<svg width="97" height="97" viewBox="0 0 97 97" fill="none" xmlns="http://www.w3.org/2000/svg">
<path d="M5.268 51.9569C4.92963 51.9569 4.60512 51.8225 4.36586 51.5832C4.1266 51.344 3.99219 51.0194 3.99219 50.6811C3.99219 50.3427 4.1266 50.0182 4.36586 49.7789C4.60512 49.5397 4.92963 49.4053 5.268 49.4053C5.31401 49.4053 5.35814 49.4236 5.39068 49.4561C5.42322 49.4886 5.4415 49.5328 5.4415 49.5788C5.4415 49.6248 5.42322 49.6689 5.39068 49.7015C5.35814 49.734 5.31401 49.7523 5.268 49.7523C5.08498 49.7523 4.90608 49.8065 4.75391 49.9082C4.60174 50.0099 4.48313 50.1544 4.41309 50.3235C4.34305 50.4926 4.32473 50.6786 4.36044 50.8581C4.39614 51.0376 4.48427 51.2025 4.61369 51.3319C4.7431 51.4613 4.90797 51.5495 5.08747 51.5852C5.26696 51.6209 5.45302 51.6025 5.6221 51.5325C5.79118 51.4625 5.93571 51.3439 6.03738 51.1917C6.13906 51.0395 6.19333 50.8606 6.19333 50.6776C6.19333 50.6316 6.21161 50.5875 6.24415 50.5549C6.27669 50.5224 6.32082 50.5041 6.36683 50.5041C6.41285 50.5041 6.45698 50.5224 6.48952 50.5549C6.52205 50.5875 6.54033 50.6316 6.54033 50.6776C6.54125 50.8453 6.50901 51.0115 6.44548 51.1666C6.38195 51.3218 6.28837 51.4629 6.17013 51.5818C6.0519 51.7007 5.91132 51.795 5.7565 51.8594C5.60168 51.9238 5.43567 51.9569 5.268 51.9569Z" fill="black"/>
<path d="M31.2844 7.19247L23.0234 1.29346L31.2844 7.19247Z" fill="white"/>
<path d="M31.2846 7.36585C31.2485 7.36579 31.2134 7.35447 31.184 7.33346L22.9231 1.43445C22.9034 1.42172 22.8865 1.40513 22.8734 1.38568C22.8603 1.36623 22.8512 1.34433 22.8468 1.32129C22.8424 1.29826 22.8427 1.27457 22.8478 1.25166C22.8528 1.22875 22.8624 1.20709 22.876 1.188C22.8896 1.16891 22.907 1.15277 22.927 1.14057C22.947 1.12836 22.9693 1.12035 22.9925 1.11701C23.0157 1.11366 23.0394 1.11506 23.062 1.12111C23.0847 1.12717 23.1059 1.13775 23.1243 1.15222L31.3864 7.05124C31.4238 7.07796 31.4491 7.11842 31.4567 7.16374C31.4643 7.20906 31.4536 7.25554 31.4269 7.29298C31.4106 7.3155 31.3893 7.33385 31.3645 7.34652C31.3398 7.35919 31.3124 7.36581 31.2846 7.36585Z" fill="black"/>
<path d="M69.9035 41.0102L64.082 36.3916L69.9035 41.0102Z" fill="white"/>
<path d="M69.9063 41.1837C69.8673 41.1836 69.8295 41.1706 69.7987 41.1467L63.9749 36.527C63.9393 36.4979 63.9165 36.4562 63.9113 36.4106C63.9061 36.365 63.919 36.3192 63.9471 36.2829C63.9613 36.265 63.9789 36.2501 63.9988 36.2391C64.0188 36.228 64.0407 36.221 64.0634 36.2184C64.086 36.2158 64.109 36.2177 64.1309 36.224C64.1529 36.2303 64.1733 36.2409 64.1912 36.2551L70.0138 40.8749C70.0318 40.8889 70.0468 40.9063 70.0579 40.9262C70.0691 40.946 70.0761 40.9679 70.0787 40.9905C70.0813 41.0131 70.0793 41.036 70.073 41.0579C70.0666 41.0797 70.0559 41.1001 70.0416 41.1178C70.0257 41.1385 70.0052 41.1552 69.9817 41.1667C69.9582 41.1781 69.9324 41.1839 69.9063 41.1837Z" fill="black"/>
<path d="M35.1292 6.46955L30.7812 3.36621L35.1292 6.46955Z" fill="white"/>
<path d="M35.1321 6.64301C35.0962 6.64298 35.0611 6.6321 35.0315 6.61178L30.6836 3.50728C30.6485 3.47972 30.6253 3.43969 30.619 3.3955C30.6126 3.35132 30.6235 3.30638 30.6494 3.27003C30.6753 3.23368 30.7143 3.20873 30.7581 3.20035C30.802 3.19197 30.8474 3.20082 30.8849 3.22505L35.2328 6.32839C35.2703 6.35532 35.2955 6.39598 35.3031 6.44149C35.3107 6.48701 35.3 6.53367 35.2733 6.57129C35.2573 6.59372 35.2361 6.61195 35.2115 6.62444C35.1869 6.63692 35.1597 6.64329 35.1321 6.64301Z" fill="black"/>
<path d="M44.4443 5.81132C44.9464 5.81132 45.3535 5.40376 45.3535 4.90102C45.3535 4.39828 44.9464 3.99072 44.4443 3.99072C43.9422 3.99072 43.5352 4.39828 43.5352 4.90102C43.5352 5.40376 43.9422 5.81132 44.4443 5.81132Z" fill="#99B9FF"/>
<path d="M39.1935 91.2487C39.0113 91.2475 38.8335 91.1931 38.6818 91.0922C38.5302 90.9913 38.4113 90.8483 38.3399 90.6808C38.2412 90.452 38.2358 90.1937 38.3248 89.961C38.4138 89.7283 38.5902 89.5395 38.8164 89.435C38.9271 89.3846 39.0469 89.357 39.1685 89.3538C39.2901 89.3506 39.4111 89.372 39.5243 89.4165C39.6405 89.4612 39.7465 89.5289 39.836 89.6156C39.9254 89.7023 39.9964 89.8061 40.0448 89.9208C40.1438 90.1496 40.1493 90.408 40.0603 90.6408C39.9712 90.8736 39.7946 91.0623 39.5682 91.1666C39.4506 91.2203 39.3228 91.2483 39.1935 91.2487ZM38.9621 89.7508C38.8188 89.8178 38.7073 89.9381 38.6514 90.0861C38.5954 90.2341 38.5994 90.398 38.6626 90.5431C38.6932 90.6154 38.7379 90.6809 38.7941 90.7357C38.8503 90.7905 38.9169 90.8336 38.9899 90.8624C39.0603 90.8897 39.1354 90.9028 39.2108 90.9008C39.2863 90.8988 39.3606 90.8818 39.4294 90.8508C39.5729 90.784 39.6847 90.6638 39.7409 90.5158C39.797 90.3678 39.7932 90.2037 39.7302 90.0585C39.6994 89.9863 39.6546 89.9209 39.5984 89.8661C39.5422 89.8113 39.4758 89.7682 39.4028 89.7392C39.3323 89.7119 39.257 89.6988 39.1813 89.7008C39.1057 89.7028 39.0312 89.7198 38.9621 89.7508Z" fill="black"/>
<path d="M31.2633 92.3661C31.0831 92.3663 30.9046 92.3325 30.737 92.2666C30.5526 92.1951 30.3844 92.0872 30.2423 91.9496C30.1003 91.8119 29.9873 91.6472 29.91 91.4651C29.7527 91.1014 29.7437 90.6906 29.885 90.3205C30.0264 89.9503 30.3068 89.65 30.6664 89.4837C30.8421 89.4039 31.032 89.3602 31.2249 89.355C31.4178 89.3498 31.6098 89.3834 31.7896 89.4536C31.9739 89.5251 32.142 89.6328 32.2839 89.7705C32.4258 89.9082 32.5385 90.0731 32.6154 90.2552C32.7734 90.619 32.7827 91.0301 32.6413 91.4007C32.4999 91.7712 32.2191 92.0717 31.8589 92.2377C31.6717 92.3221 31.4687 92.3659 31.2633 92.3661ZM31.2633 89.7058C31.1065 89.7063 30.9516 89.7398 30.8087 89.8041C30.532 89.9334 30.3168 90.1655 30.2088 90.4511C30.1008 90.7367 30.1085 91.0532 30.2303 91.3332C30.2894 91.4728 30.3758 91.5992 30.4844 91.7049C30.5931 91.8106 30.7218 91.8935 30.8631 91.9486C30.9999 92.0019 31.146 92.0273 31.2928 92.0234C31.4396 92.0194 31.5841 91.9861 31.7178 91.9254C31.9946 91.7966 32.21 91.5647 32.3181 91.2792C32.4261 90.9937 32.4183 90.6772 32.2962 90.3975C32.2369 90.2578 32.1503 90.1314 32.0414 90.0257C31.9326 89.92 31.8037 89.8372 31.6623 89.7821C31.5355 89.7304 31.4002 89.7029 31.2633 89.7012V89.7058Z" fill="black"/>
<path d="M20.7496 5.34189C40.2465 -5.4452 66.3675 5.76176 79.9792 18.1809C83.8668 21.7296 93.2948 30.5827 95.5214 44.7727C98.287 62.3981 89.2349 83.7629 68.4738 92.9006C45.8748 102.848 20.6085 93.4211 8.78275 78.1195C-2.27732 63.808 -0.0634554 46.9577 0.72655 40.9372C1.6542 33.8781 4.41401 14.3778 20.7496 5.34189Z" fill="#CADDFF"/>
<path d="M5.05181 7.77921C4.90818 8.17157 4.79865 8.57558 4.72446 8.98677L2.8125 9.41589V11.2122L4.72678 11.6459C4.80072 12.057 4.90827 12.4612 5.04834 12.8547L3.6025 14.1837L4.50008 15.7406L6.37157 15.1622C6.64113 15.4815 6.93712 15.7775 7.25641 16.0471L6.67115 17.9197L8.2257 18.8196L9.55819 17.3796C9.95119 17.5221 10.3555 17.6313 10.7669 17.7057L11.196 19.6177H12.9923L13.4261 17.7046C13.8369 17.6307 14.2408 17.5227 14.6337 17.3819L15.965 18.8254L17.5219 17.929L16.9435 16.0575C17.2628 15.7875 17.5588 15.4911 17.8284 15.1715L19.701 15.7568L20.6009 14.2022L19.1609 12.8697C19.3033 12.4766 19.4128 12.0723 19.4882 11.661L21.4002 11.2319V9.44134L19.487 9.00643C19.4131 8.59566 19.3052 8.19175 19.1643 7.79887L20.6079 6.46985L19.7114 4.91298L17.8399 5.49131C17.5697 5.17228 17.2733 4.8763 16.9539 4.60646L17.5392 2.73381L15.9846 1.83393L14.6522 3.27398C14.2595 3.13142 13.8555 3.02193 13.4446 2.94664L13.0155 1.03467H11.2192L10.7854 2.9478C10.3746 3.02156 9.97069 3.12951 9.57786 3.27051L8.24769 1.82699L6.6908 2.7234L7.26914 4.5949C6.9502 4.86487 6.6546 5.16126 6.38545 5.4809L4.51396 4.89216L3.61406 6.44672L5.05181 7.77921ZM8.10195 8.01054C8.55996 7.21803 9.24276 6.57919 10.0639 6.17484C10.8851 5.77049 11.8078 5.61881 12.7152 5.73899C13.6226 5.85917 14.474 6.24581 15.1616 6.84999C15.8492 7.45416 16.3422 8.24872 16.5781 9.13314C16.814 10.0176 16.7823 10.9521 16.487 11.8185C16.1916 12.6848 15.6459 13.4441 14.9189 14.0003C14.1919 14.5565 13.3163 14.8845 12.4028 14.9429C11.4894 15.0013 10.5791 14.7874 9.78721 14.3283C8.72556 13.7137 7.95142 12.7028 7.63496 11.5176C7.3185 10.3325 7.48564 9.07017 8.09963 8.00823L8.10195 8.01054Z" fill="#5479F7"/>
<path d="M69.0133 23.3363L2.92816 20.7847C2.17247 20.7853 1.4479 21.0857 0.913547 21.6201C0.379195 22.1544 0.0787376 22.879 0.078125 23.6347V69.7684C0.0787372 70.5242 0.379158 71.2489 0.913477 71.7835C1.4478 72.318 2.17237 72.6187 2.92816 72.6196L26.8064 71.0003L23.7413 82.1957L20.5026 82.2211C20.0161 82.2211 19.5494 82.4144 19.2054 82.7584C18.8614 83.1025 18.6681 83.5691 18.6681 84.0556C18.6681 84.5422 18.8614 85.0088 19.2054 85.3528C19.5494 85.6968 20.0161 85.8901 20.5026 85.8901L47.6681 84.5946C48.679 84.5946 46.7867 72.6243 46.7867 72.6243C46.7867 72.6243 70.5852 23.3363 69.0133 23.3363Z" fill="black"/>
<path d="M46.3558 66.7217H29.5032L24.7227 84.1712H51.1364L46.3558 66.7217Z" fill="white"/>
<path d="M51.1381 84.3449H24.7244C24.6977 84.3447 24.6714 84.3384 24.6475 84.3265C24.6236 84.3146 24.6028 84.2974 24.5866 84.2762C24.5704 84.2549 24.5593 84.2303 24.5541 84.2041C24.5489 84.1779 24.5498 84.1509 24.5567 84.1251L29.3372 66.6756C29.3475 66.639 29.3695 66.6068 29.3998 66.5839C29.43 66.5609 29.467 66.5484 29.5049 66.5483H46.3576C46.3954 66.5485 46.4322 66.561 46.4623 66.584C46.4923 66.6069 46.5141 66.6391 46.5242 66.6756L51.3047 84.1251C51.3118 84.1508 51.3129 84.1778 51.3079 84.204C51.3028 84.2302 51.2919 84.2549 51.2757 84.2761C51.2596 84.2974 51.2388 84.3147 51.215 84.3266C51.1911 84.3385 51.1648 84.3448 51.1381 84.3449ZM24.9523 83.9979H50.9103L46.2246 66.8953H29.638L24.9523 83.9979Z" fill="black"/>
<path d="M71.5761 20.9453H4.28691C2.80168 20.9453 1.59766 22.1493 1.59766 23.6346V69.7683C1.59766 71.2536 2.80168 72.4576 4.28691 72.4576H71.5761C73.0614 72.4576 74.2654 71.2536 74.2654 69.7683V23.6346C74.2654 22.1493 73.0614 20.9453 71.5761 20.9453Z" fill="white"/>
<path d="M54.0059 82.3785H21.8505C21.6271 82.3726 21.4047 82.4116 21.1966 82.493C20.9885 82.5744 20.7988 82.6967 20.6387 82.8527C20.4786 83.0086 20.3513 83.1951 20.2644 83.401C20.1776 83.6069 20.1328 83.8281 20.1328 84.0516C20.1328 84.2751 20.1776 84.4964 20.2644 84.7023C20.3513 84.9082 20.4786 85.0946 20.6387 85.2506C20.7988 85.4065 20.9885 85.5288 21.1966 85.6103C21.4047 85.6917 21.6271 85.7306 21.8505 85.7248H54.0059C54.442 85.7133 54.8564 85.532 55.1609 85.2195C55.4653 84.9069 55.6356 84.4879 55.6356 84.0516C55.6356 83.6154 55.4653 83.1963 55.1609 82.8838C54.8564 82.5713 54.442 82.39 54.0059 82.3785Z" fill="white"/>
<path d="M54.0073 85.897H21.8519C21.5991 85.9137 21.3456 85.8784 21.107 85.7932C20.8685 85.708 20.6499 85.5747 20.465 85.4016C20.28 85.2284 20.1325 85.0192 20.0317 84.7868C19.9309 84.5544 19.8789 84.3037 19.8789 84.0504C19.8789 83.797 19.9309 83.5464 20.0317 83.314C20.1325 83.0816 20.28 82.8723 20.465 82.6992C20.6499 82.5261 20.8685 82.3928 21.107 82.3076C21.3456 82.2223 21.5991 82.187 21.8519 82.2038H54.0073C54.4759 82.2348 54.9152 82.4429 55.2362 82.7857C55.5571 83.1286 55.7356 83.5807 55.7356 84.0504C55.7356 84.52 55.5571 84.9721 55.2362 85.315C54.9152 85.6579 54.4759 85.866 54.0073 85.897ZM21.8519 82.5508C21.6457 82.5356 21.4386 82.5631 21.2435 82.6316C21.0484 82.7001 20.8696 82.8081 20.7181 82.9488C20.5667 83.0896 20.4458 83.26 20.3632 83.4496C20.2806 83.6391 20.238 83.8436 20.238 84.0504C20.238 84.2571 20.2806 84.4617 20.3632 84.6512C20.4458 84.8407 20.5667 85.0112 20.7181 85.1519C20.8696 85.2927 21.0484 85.4007 21.2435 85.4691C21.4386 85.5376 21.6457 85.5652 21.8519 85.55H54.0073C54.386 85.5222 54.7401 85.3521 54.9986 85.0739C55.2571 84.7957 55.4007 84.4301 55.4007 84.0504C55.4007 83.6707 55.2571 83.305 54.9986 83.0269C54.7401 82.7487 54.386 82.5786 54.0073 82.5508H21.8519Z" fill="black"/>
<path d="M66.2104 72.631H4.28347C3.52461 72.6301 2.79712 72.3281 2.26063 71.7914C1.72414 71.2547 1.42249 70.5271 1.42188 69.7682V23.6345C1.42402 22.8765 1.7263 22.1503 2.26259 21.6146C2.79888 21.079 3.52551 20.7776 4.28347 20.7764H71.5727C72.3317 20.7773 73.0593 21.0792 73.596 21.6159C74.1326 22.1525 74.4345 22.8802 74.4355 23.6391V33.5749C74.4355 33.6209 74.4172 33.6651 74.3846 33.6976C74.3521 33.7301 74.308 33.7484 74.262 33.7484C74.2159 33.7484 74.1718 33.7301 74.1393 33.6976C74.1067 33.6651 74.0885 33.6209 74.0885 33.5749V23.6391C74.0875 22.9726 73.8225 22.3336 73.3514 21.862C72.8803 21.3905 72.2416 21.1249 71.575 21.1234H4.28347C3.61664 21.1243 2.9774 21.3897 2.50598 21.8613C2.03457 22.3329 1.76949 22.9723 1.76888 23.6391V69.7682C1.76918 70.4352 2.03417 71.0747 2.50565 71.5464C2.97712 72.0181 3.61655 72.2834 4.28347 72.284H66.2081C66.2541 72.284 66.2982 72.3023 66.3307 72.3348C66.3633 72.3674 66.3816 72.4115 66.3816 72.4575C66.3816 72.5035 66.3633 72.5476 66.3307 72.5802C66.2982 72.6127 66.2541 72.631 66.2081 72.631H66.2104Z" fill="black"/>
<path d="M71.8727 39.3675C71.8267 39.3675 71.7826 39.3492 71.75 39.3167C71.7175 39.2841 71.6992 39.24 71.6992 39.194V27.485C71.6992 27.439 71.7175 27.3949 71.75 27.3623C71.7826 27.3298 71.8267 27.3115 71.8727 27.3115C71.9187 27.3115 71.9629 27.3298 71.9954 27.3623C72.0279 27.3949 72.0462 27.439 72.0462 27.485V39.194C72.0462 39.24 72.0279 39.2841 71.9954 39.3167C71.9629 39.3492 71.9187 39.3675 71.8727 39.3675Z" fill="black"/>
<path d="M7.57031 70.0679H70.5359C70.8904 70.0676 71.2304 69.9266 71.481 69.6759C71.7317 69.4252 71.8727 69.0853 71.873 68.7308V65.1069L7.57031 70.0679Z" fill="white"/>
<path d="M70.5364 70.2415H7.57194C7.52592 70.2415 7.48179 70.2233 7.44925 70.1907C7.41672 70.1582 7.39844 70.1141 7.39844 70.068C7.39844 70.022 7.41672 69.9779 7.44925 69.9454C7.48179 69.9128 7.52592 69.8945 7.57194 69.8945H70.5364C70.845 69.8942 71.1409 69.7716 71.3592 69.5535C71.5776 69.3353 71.7005 69.0396 71.7011 68.7309V65.1071C71.7011 65.0611 71.7194 65.0169 71.7519 64.9844C71.7845 64.9519 71.8286 64.9336 71.8746 64.9336C71.9206 64.9336 71.9648 64.9519 71.9973 64.9844C72.0299 65.0169 72.0481 65.0611 72.0481 65.1071V68.7309C72.0475 69.1316 71.888 69.5156 71.6046 69.7988C71.3212 70.082 70.937 70.2412 70.5364 70.2415Z" fill="black"/>
<path d="M3.986 29.9336C3.93999 29.9336 3.89587 29.9154 3.86333 29.8828C3.83079 29.8503 3.8125 29.8062 3.8125 29.7601V26.924C3.8125 26.878 3.83079 26.8338 3.86333 26.8013C3.89587 26.7688 3.93999 26.7505 3.986 26.7505C4.03202 26.7505 4.07615 26.7688 4.10868 26.8013C4.14122 26.8338 4.1595 26.878 4.1595 26.924V29.7601C4.1595 29.8062 4.14122 29.8503 4.10868 29.8828C4.07615 29.9154 4.03202 29.9336 3.986 29.9336Z" fill="black"/>
<path d="M9.20371 23.3364H5.3254C4.97077 23.3364 4.63067 23.4773 4.37991 23.7281C4.12916 23.9788 3.98828 24.3189 3.98828 24.6735L9.20371 23.3364Z" fill="white"/>
<path d="M3.986 24.8467C3.93999 24.8467 3.89587 24.8284 3.86333 24.7959C3.83079 24.7634 3.8125 24.7192 3.8125 24.6732C3.81311 24.2728 3.97246 23.8889 4.25563 23.6057C4.53879 23.3226 4.92267 23.1632 5.32312 23.1626H9.20143C9.24745 23.1626 9.29158 23.1809 9.32412 23.2134C9.35665 23.246 9.37493 23.2901 9.37493 23.3361C9.37493 23.3821 9.35665 23.4262 9.32412 23.4588C9.29158 23.4913 9.24745 23.5096 9.20143 23.5096H5.32312C5.0146 23.5099 4.71881 23.6326 4.50066 23.8508C4.2825 24.0689 4.15981 24.3647 4.1595 24.6732C4.1595 24.7192 4.14122 24.7634 4.10868 24.7959C4.07615 24.8284 4.03202 24.8467 3.986 24.8467Z" fill="black"/>
<path d="M61.0065 69.8923H10.6914V12.2902C10.6914 11.2828 11.0916 10.3166 11.804 9.60425C12.5163 8.8919 13.4825 8.4917 14.4899 8.4917H57.2115C57.7102 8.4917 58.2041 8.58996 58.6649 8.78087C59.1257 8.97177 59.5444 9.25159 59.897 9.60432C60.2496 9.95706 60.5293 10.3758 60.7201 10.8367C60.9109 11.2975 61.009 11.7914 61.0088 12.2902L61.0065 69.8923Z" fill="#99B9FF"/>
<path d="M61.0068 16.5328C60.9607 16.5328 60.9166 16.5145 60.8841 16.482C60.8515 16.4494 60.8333 16.4053 60.8333 16.3593V12.2948C60.8323 11.3338 60.4503 10.4125 59.7709 9.73292C59.0915 9.05333 58.1703 8.67098 57.2094 8.66975H52.7204C52.6744 8.66975 52.6302 8.65147 52.5977 8.61894C52.5652 8.5864 52.5469 8.54227 52.5469 8.49625C52.5469 8.45024 52.5652 8.40611 52.5977 8.37357C52.6302 8.34103 52.6744 8.32275 52.7204 8.32275H57.2094C58.2624 8.32398 59.2718 8.74289 60.0163 9.48755C60.7607 10.2322 61.1793 11.2418 61.1803 12.2948V16.3593C61.1803 16.4053 61.162 16.4494 61.1294 16.482C61.0969 16.5145 61.0528 16.5328 61.0068 16.5328Z" fill="black"/>
<path d="M54.149 8.66975H33.654C33.608 8.66975 33.5638 8.65147 33.5313 8.61894C33.4987 8.5864 33.4805 8.54227 33.4805 8.49625C33.4805 8.45024 33.4987 8.40611 33.5313 8.37357C33.5638 8.34103 33.608 8.32275 33.654 8.32275H54.149C54.195 8.32275 54.2391 8.34103 54.2717 8.37357C54.3042 8.40611 54.3225 8.45024 54.3225 8.49625C54.3225 8.54227 54.3042 8.5864 54.2717 8.61894C54.2391 8.65147 54.195 8.66975 54.149 8.66975Z" fill="black"/>
<path d="M10.6891 28.886C10.6431 28.886 10.599 28.8677 10.5664 28.8352C10.5339 28.8027 10.5156 28.7585 10.5156 28.7125V12.2948C10.5165 11.2416 10.9353 10.2318 11.68 9.48714C12.4247 8.74245 13.4345 8.32367 14.4876 8.32275H29.5833C29.6293 8.32275 29.6735 8.34103 29.706 8.37357C29.7385 8.40611 29.7568 8.45024 29.7568 8.49625C29.7568 8.54227 29.7385 8.5864 29.706 8.61894C29.6735 8.65147 29.6293 8.66975 29.5833 8.66975H14.4876C13.5266 8.67098 12.6053 9.05329 11.9257 9.73285C11.2462 10.4124 10.8638 11.3337 10.8626 12.2948V28.7125C10.8626 28.7585 10.8443 28.8027 10.8118 28.8352C10.7793 28.8677 10.7351 28.886 10.6891 28.886Z" fill="black"/>
<path d="M38.6924 12.165H14.4023V13.6976H38.6924V12.165Z" fill="#CADDFF"/>
<path d="M50.967 14.7642H22.5742V16.3592H50.967V14.7642Z" fill="white"/>
<path d="M57.2912 17.3945H28.8984V18.9896H57.2912V17.3945Z" fill="white"/>
<path d="M53.8672 20.0244H39.1914V21.6195H53.8672V20.0244Z" fill="white"/>
<path d="M38.6924 33.207H14.4023V34.7396H38.6924V33.207Z" fill="#CADDFF"/>
<path d="M50.967 35.8062H22.5742V37.4012H50.967V35.8062Z" fill="white"/>
<path d="M56.8968 38.4365H28.8984V40.0316H56.8968V38.4365Z" fill="white"/>
<path d="M53.3583 41.0669H39.1914V42.6619H53.3583V41.0669Z" fill="white"/>
<path d="M50.967 22.6548H22.5742V24.2498H50.967V22.6548Z" fill="white"/>
<path d="M57.2912 25.2852H28.8984V26.8802H57.2912V25.2852Z" fill="white"/>
<path d="M50.4435 30.5459H39.1914V32.1409H50.4435V30.5459Z" fill="white"/>
<path d="M57.291 27.9155H39.1914V29.5106H57.291V27.9155Z" fill="white"/>
<path d="M38.6924 43.728H14.4023V45.2606H38.6924V43.728Z" fill="#CADDFF"/>
<path d="M50.967 46.3271H22.5742V47.9222H50.967V46.3271Z" fill="white"/>
<path d="M56.3774 48.9575H28.8984V50.5526H56.3774V48.9575Z" fill="white"/>
<path d="M57.291 51.5879H39.1914V53.1829H57.291V51.5879Z" fill="#CADDFF"/>
<path d="M44.2405 64.7393H28.8984V66.3343H44.2405V64.7393Z" fill="#CADDFF"/>
<path d="M50.967 54.2183H22.5742V55.8133H50.967V54.2183Z" fill="white"/>
<path d="M57.2912 56.8481H28.8984V58.4432H57.2912V56.8481Z" fill="white"/>
<path d="M57.291 62.1089H39.1914V63.7039H57.291V62.1089Z" fill="white"/>
<path d="M49.5528 59.4785H39.1914V61.0736H49.5528V59.4785Z" fill="white"/>
<path d="M11.9974 79.9734C11.9974 79.9734 5.44954 65.6203 9.20525 47.0142C9.20525 47.0142 19.355 55.518 15.6953 79.9734H11.9974Z" fill="#CADDFF"/>
<path d="M15.6966 80.1472H11.9953C11.962 80.1472 11.9295 80.1376 11.9016 80.1196C11.8737 80.1015 11.8516 80.0758 11.838 80.0454C11.8218 80.0096 10.1793 76.3707 9.02032 70.5052C7.95271 65.0932 7.08753 56.6252 9.03305 46.9797C9.03898 46.9501 9.05252 46.9226 9.07235 46.8999C9.09217 46.8771 9.11758 46.8599 9.14608 46.85C9.17458 46.8401 9.20518 46.8377 9.23485 46.8433C9.26452 46.8488 9.29224 46.8619 9.31527 46.8814C9.42053 46.9693 11.9097 49.0941 13.9813 54.2586C15.8875 59.001 17.7613 67.329 15.8655 79.9992C15.8595 80.0399 15.8392 80.0771 15.8082 80.1042C15.7773 80.1313 15.7378 80.1466 15.6966 80.1472ZM12.1109 79.8002H15.5462C17.3911 67.3082 15.5463 59.1028 13.6724 54.4148C11.9872 50.2011 9.9711 47.9999 9.31527 47.3533C7.4646 56.8056 8.31244 65.1059 9.36154 70.4266C10.4049 75.7183 11.8414 79.1756 12.1121 79.8002H12.1109Z" fill="black"/>
<path d="M13.6002 78.6505H13.591C13.5682 78.6493 13.5458 78.6436 13.5252 78.6338C13.5046 78.624 13.4862 78.6102 13.4709 78.5932C13.4557 78.5762 13.4439 78.5564 13.4363 78.5349C13.4287 78.5133 13.4255 78.4905 13.4267 78.4677C13.9287 69.2884 9.79014 49.7002 9.7485 49.5036C9.74109 49.4595 9.75095 49.4143 9.77602 49.3774C9.8011 49.3404 9.83945 49.3145 9.88312 49.3051C9.92678 49.2958 9.9724 49.3036 10.0104 49.327C10.0485 49.3503 10.0761 49.3875 10.0874 49.4307C10.1291 49.6285 14.2769 69.2618 13.7726 78.4862C13.7705 78.5305 13.7514 78.5723 13.7193 78.6029C13.6872 78.6335 13.6446 78.6505 13.6002 78.6505Z" fill="white"/>
<path d="M19.5139 56.6333C19.5139 56.6333 11.0772 71.877 16.1515 78.4724H18.8662C18.8662 78.4724 24.2956 66.5621 19.5139 56.6333Z" fill="white"/>
<path d="M18.8634 78.6505H16.1487C16.1222 78.6502 16.0961 78.6441 16.0723 78.6325C16.0485 78.6209 16.0275 78.6041 16.011 78.5834C13.87 75.7993 13.7856 71.2409 15.7612 65.0319C16.7122 62.1072 17.9158 59.2707 19.3584 56.5546C19.3739 56.5266 19.3967 56.5034 19.4245 56.4875C19.4522 56.4716 19.4838 56.4636 19.5157 56.4644C19.5475 56.4657 19.5783 56.4755 19.605 56.4928C19.6316 56.5101 19.6532 56.5342 19.6673 56.5627C22.1553 61.7307 21.8464 67.4354 21.1501 71.3091C20.396 75.502 19.0346 78.5186 19.0218 78.5487C19.008 78.5791 18.9857 78.6049 18.9576 78.623C18.9295 78.641 18.8968 78.6506 18.8634 78.6505ZM16.2354 78.3035H18.75C19.6887 76.0298 20.3793 73.6615 20.81 71.2397C21.4821 67.4956 21.7886 62.0234 19.5007 57.0254C18.1413 59.6318 17.0008 62.3466 16.0908 65.1417C14.7676 69.3011 13.7254 74.948 16.2354 78.3035Z" fill="black"/>
<path d="M17.4181 79.0543C17.3732 79.0544 17.3301 79.037 17.2978 79.006C17.2654 78.9749 17.2464 78.9326 17.2446 78.8878C17.0005 72.5978 19.3173 56.7723 19.3405 56.6138C19.3471 56.5678 19.3716 56.5263 19.4089 56.4984C19.4461 56.4705 19.4928 56.4586 19.5388 56.4652C19.5848 56.4717 19.6263 56.4964 19.6542 56.5336C19.6821 56.5708 19.6941 56.6175 19.6875 56.6635C19.6643 56.8231 17.3521 72.6163 17.595 78.8716C17.596 78.8944 17.5924 78.9171 17.5845 78.9385C17.5767 78.9599 17.5646 78.9796 17.5492 78.9963C17.5337 79.0131 17.5151 79.0266 17.4944 79.0362C17.4737 79.0457 17.4513 79.0511 17.4285 79.052L17.4181 79.0543Z" fill="black"/>
<path d="M2.36328 62.3208C2.36328 62.3208 9.54967 64.7729 12.1522 79.2903H9.32527C9.32527 79.2903 3.42626 71.3232 2.36328 62.3208Z" fill="white"/>
<path d="M12.1501 79.4637H9.32324C9.29621 79.4635 9.26957 79.4571 9.24547 79.4448C9.22137 79.4326 9.20047 79.4149 9.18443 79.3931C9.12544 79.3133 3.24494 71.2802 2.1889 62.3415C2.18513 62.312 2.18901 62.282 2.20017 62.2544C2.21132 62.2268 2.22939 62.2026 2.25262 62.184C2.27585 62.1654 2.30347 62.1531 2.33282 62.1483C2.36217 62.1435 2.39227 62.1463 2.42023 62.1564C2.49542 62.1819 4.28594 62.8122 6.41421 65.247C8.36436 67.4783 10.9738 71.7244 12.3248 79.2589C12.3292 79.284 12.328 79.3096 12.3215 79.3342C12.3149 79.3587 12.303 79.3815 12.2867 79.401C12.2704 79.4205 12.2501 79.4362 12.2271 79.4471C12.2041 79.4579 12.179 79.4635 12.1536 79.4637H12.1501ZM9.41229 79.1167H11.9431C10.599 71.803 8.0671 67.6772 6.17016 65.4992C4.56817 63.6601 3.142 62.8666 2.57061 62.5983C3.6544 70.8823 8.84321 78.3174 9.41577 79.1167H9.41229Z" fill="black"/>
<path d="M10.608 79.0541C10.5671 79.0541 10.5276 79.0396 10.4964 79.0131C10.4653 78.9866 10.4446 78.9499 10.438 78.9095C9.36689 72.4403 4.7356 65.9271 4.68933 65.8612C4.67485 65.8427 4.66428 65.8215 4.65822 65.7988C4.65217 65.7762 4.65077 65.7525 4.65412 65.7293C4.65746 65.7061 4.66547 65.6838 4.67767 65.6638C4.68987 65.6438 4.70601 65.6264 4.72511 65.6128C4.7442 65.5992 4.76585 65.5896 4.78876 65.5846C4.81167 65.5796 4.83536 65.5792 4.8584 65.5836C4.88143 65.5881 4.90333 65.5971 4.92278 65.6102C4.94223 65.6233 4.95882 65.6402 4.97155 65.6599C5.01782 65.7247 9.69655 72.305 10.7804 78.8529C10.7877 78.8983 10.7767 78.9447 10.7498 78.982C10.7229 79.0193 10.6823 79.0444 10.6369 79.0518L10.608 79.0541Z" fill="black"/>
<path d="M5.59997 78.1382H23.6776L23.7284 86.524C23.7516 87.0111 23.6757 87.4978 23.5055 87.9546C23.3352 88.4115 23.0741 88.8292 22.7378 89.1823C22.4016 89.5354 21.9972 89.8166 21.5492 90.009C21.1012 90.2015 20.6188 90.301 20.1312 90.3017H10.0046C9.42545 90.3017 8.85202 90.1876 8.31705 89.9658C7.78207 89.7441 7.29606 89.419 6.88678 89.0093C6.4775 88.5996 6.15298 88.1133 5.93178 87.5781C5.71059 87.0428 5.59705 86.4693 5.59766 85.8902L5.59997 78.1382Z" fill="#5479F7"/>
<path d="M92.9824 71.8804H69.2267C67.8373 71.8804 66.7109 73.0067 66.7109 74.3961V90.5374C66.7109 91.9269 67.8373 93.0532 69.2267 93.0532H92.9824C94.3718 93.0532 95.4981 91.9269 95.4981 90.5374V74.3961C95.4981 73.0067 94.3718 71.8804 92.9824 71.8804Z" fill="#99B9FF"/>
<path d="M95.1183 71.8745H67.1142C66.6779 71.8745 66.3242 72.2282 66.3242 72.6645V74.6089C66.3242 75.0452 66.6779 75.3989 67.1142 75.3989H95.1183C95.5547 75.3989 95.9083 75.0452 95.9083 74.6089V72.6645C95.9083 72.2282 95.5547 71.8745 95.1183 71.8745Z" fill="#99B9FF"/>
<path d="M95.2134 75.5724H67.0173C66.9712 75.5724 66.9271 75.5541 66.8946 75.5216C66.862 75.4891 66.8438 75.4449 66.8438 75.3989C66.8438 75.3529 66.862 75.3088 66.8946 75.2762C66.9271 75.2437 66.9712 75.2254 67.0173 75.2254H95.2134C95.3551 75.2212 95.4894 75.161 95.587 75.0581C95.6845 74.9551 95.7373 74.8178 95.7339 74.676V72.5951C95.7373 72.4534 95.6845 72.316 95.587 72.2131C95.4894 72.1101 95.3551 72.05 95.2134 72.0457H77.8633C77.8173 72.0457 77.7732 72.0275 77.7407 71.9949C77.7081 71.9624 77.6898 71.9182 77.6898 71.8722C77.6898 71.8262 77.7081 71.7821 77.7407 71.7495C77.7732 71.717 77.8173 71.6987 77.8633 71.6987H95.2134C95.4471 71.703 95.6697 71.7997 95.8323 71.9677C95.9949 72.1358 96.0843 72.3614 96.0809 72.5951V74.6772C96.084 74.9107 95.9944 75.1361 95.8319 75.3038C95.6693 75.4716 95.4469 75.5682 95.2134 75.5724Z" fill="black"/>
<path d="M85.2449 92.6278C85.1995 92.6275 85.156 92.6094 85.1238 92.5774C85.0916 92.5454 85.0732 92.5021 85.0726 92.4567L84.8008 76.032C84.8002 75.9858 84.8178 75.9413 84.8499 75.9082C84.882 75.875 84.9259 75.8559 84.972 75.855C85.0174 75.8553 85.0609 75.8734 85.0931 75.9054C85.1253 75.9374 85.1437 75.9808 85.1443 76.0262L85.4161 92.4509C85.4164 92.4737 85.4123 92.4963 85.4038 92.5174C85.3954 92.5386 85.3829 92.5579 85.367 92.5742C85.3511 92.5906 85.3321 92.6036 85.3112 92.6126C85.2902 92.6216 85.2677 92.6264 85.2449 92.6267V92.6278Z" fill="black"/>
<path d="M68.4227 90.55C68.1451 90.2689 66.542 85.2837 66.542 85.2837L63.375 87.5427L66.845 92.2098L68.4227 90.55Z" fill="white"/>
<path d="M66.8464 92.3834H66.8359C66.8108 92.3818 66.7863 92.3747 66.7641 92.3627C66.742 92.3507 66.7227 92.3341 66.7075 92.314L63.2375 87.6468C63.2238 87.6283 63.2138 87.6071 63.2083 87.5847C63.2027 87.5623 63.2016 87.539 63.2052 87.5161C63.2086 87.4931 63.2165 87.471 63.2287 87.4511C63.2408 87.4312 63.2568 87.414 63.2757 87.4004L66.4427 85.1415C66.4648 85.1253 66.4905 85.1147 66.5175 85.1105C66.5446 85.1062 66.5723 85.1085 66.5983 85.1171C66.6243 85.1257 66.6479 85.1404 66.6671 85.1599C66.6863 85.1794 66.7005 85.2032 66.7087 85.2294C67.3136 87.1101 68.3477 90.1845 68.5501 90.4344C68.5813 90.4662 68.5988 90.509 68.5988 90.5535C68.5988 90.5981 68.5813 90.6409 68.5501 90.6727L66.9736 92.329C66.9572 92.3463 66.9375 92.36 66.9156 92.3693C66.8937 92.3787 66.8701 92.3835 66.8464 92.3834ZM63.6192 87.582L66.8579 91.9404L68.2054 90.5235C67.8318 89.7936 66.8544 86.8221 66.4485 85.5602L63.6192 87.582Z" fill="black"/>
<path d="M62.7155 96.854L64.8218 96.8424C65.508 96.838 66.1824 96.6634 66.7845 96.3344C67.3867 96.0054 67.8978 95.5321 68.2722 94.957L70.3542 91.6605C70.4906 91.4453 70.5811 91.2041 70.62 90.9522C70.6588 90.7004 70.6453 90.4432 70.5801 90.1968C70.515 89.9504 70.3996 89.7201 70.2413 89.5204C70.083 89.3206 69.8852 89.1557 69.6602 89.036C68.7903 88.5734 67.88 88.1234 67.6661 88.1443C67.2323 88.1859 67.0577 90.2355 67.0577 90.2355L65.1815 90.3072C65.1815 90.3072 64.2562 94.1624 63.4384 94.6008C62.9144 94.892 62.4718 95.31 62.1511 95.8164C62.0853 95.9179 62.0481 96.0353 62.0435 96.1561C62.0388 96.277 62.0669 96.3969 62.1247 96.5031C62.1825 96.6093 62.2679 96.698 62.3719 96.7598C62.4758 96.8215 62.5946 96.8541 62.7155 96.854Z" fill="black"/>
<path d="M62.925 96.205C62.879 96.2084 62.8335 96.1933 62.7986 96.1632C62.7636 96.133 62.7421 96.0902 62.7387 96.0442C62.7354 95.9982 62.7504 95.9527 62.7806 95.9178C62.8107 95.8829 62.8535 95.8614 62.8995 95.858L65.7808 95.4242C66.0747 95.3804 66.3552 95.2718 66.602 95.1064C66.8488 94.941 67.0559 94.7228 67.2081 94.4677L69.7528 90.2146C69.7645 90.195 69.7799 90.1779 69.7982 90.1643C69.8165 90.1506 69.8373 90.1408 69.8595 90.1352C69.8816 90.1296 69.9046 90.1284 69.9272 90.1317C69.9498 90.135 69.9715 90.1427 69.9911 90.1544C70.0107 90.1661 70.0278 90.1816 70.0414 90.1999C70.055 90.2182 70.0649 90.239 70.0705 90.2611C70.0761 90.2832 70.0772 90.3063 70.0739 90.3288C70.0706 90.3514 70.0629 90.3731 70.0512 90.3927L67.5065 94.6458C67.3277 94.9448 67.0849 95.2005 66.7955 95.3945C66.5061 95.5885 66.1774 95.716 65.8328 95.7678L62.9516 96.2015L62.925 96.205Z" fill="white"/>
<path d="M66.4823 93.0072C66.4667 93.0075 66.4511 93.0055 66.436 93.0014L64.8317 92.5642C64.8087 92.5592 64.787 92.5495 64.7679 92.5358C64.7487 92.5221 64.7326 92.5047 64.7204 92.4845C64.7082 92.4644 64.7002 92.442 64.697 92.4187C64.6937 92.3954 64.6952 92.3716 64.7014 92.3489C64.7077 92.3262 64.7184 92.305 64.7331 92.2866C64.7477 92.2682 64.766 92.253 64.7867 92.2418C64.8075 92.2307 64.8302 92.2239 64.8537 92.2219C64.8771 92.2198 64.9008 92.2225 64.9231 92.2299L66.5274 92.666C66.5734 92.672 66.6152 92.696 66.6435 92.7327C66.6718 92.7695 66.6843 92.816 66.6783 92.862C66.6724 92.908 66.6484 92.9498 66.6116 92.9781C66.5748 93.0064 66.5283 93.019 66.4823 93.013V93.0072Z" fill="white"/>
<path d="M65.6467 93.8317C65.6328 93.8329 65.6189 93.8329 65.605 93.8317L64.5293 93.568C64.4869 93.5551 64.451 93.5265 64.429 93.488C64.4071 93.4495 64.4007 93.404 64.4112 93.3609C64.4217 93.3178 64.4483 93.2804 64.4856 93.2563C64.5228 93.2322 64.5678 93.2233 64.6114 93.2314L65.6883 93.494C65.7343 93.4995 65.7763 93.5231 65.8049 93.5595C65.8335 93.596 65.8465 93.6423 65.841 93.6883C65.8355 93.7343 65.8119 93.7763 65.7754 93.8049C65.739 93.8335 65.6927 93.8465 65.6467 93.841V93.8317Z" fill="white"/>
<path d="M57.6155 89.5983L53.9384 93.2939L51.9883 92.5779L55.3785 87.8506L57.6155 89.5983Z" fill="white"/>
<path d="M53.9398 93.4674C53.9192 93.4675 53.8987 93.4636 53.8797 93.4558L51.9307 92.741C51.9052 92.7312 51.8824 92.7157 51.8639 92.6956C51.8455 92.6755 51.8319 92.6515 51.8242 92.6253C51.8163 92.5997 51.8144 92.5726 51.8186 92.5461C51.8228 92.5196 51.833 92.4945 51.8485 92.4726L55.2387 87.7476C55.2523 87.7288 55.2696 87.7128 55.2894 87.7007C55.3093 87.6886 55.3314 87.6805 55.3544 87.6771C55.3774 87.6737 55.4008 87.6751 55.4233 87.6811C55.4458 87.687 55.4668 87.6975 55.4851 87.7118L57.7221 89.4618C57.7413 89.477 57.757 89.4961 57.7684 89.5178C57.7797 89.5395 57.7864 89.5633 57.7879 89.5877C57.7894 89.6122 57.7858 89.6367 57.7772 89.6596C57.7687 89.6825 57.7554 89.7034 57.7383 89.7209L54.0624 93.4153C54.0464 93.4316 54.0273 93.4446 54.0063 93.4536C53.9852 93.4625 53.9627 93.4672 53.9398 93.4674ZM52.2638 92.49L53.8947 93.0891L57.3554 89.6122L55.4157 88.0946L52.2638 92.49Z" fill="black"/>
<path d="M55.0987 92.7214C55.0987 92.7214 55.2768 94.2933 54.9749 95.6824C54.8934 96.0414 54.6921 96.3619 54.404 96.5911C54.1159 96.8202 53.7584 96.9444 53.3903 96.9432H44.3683C44.2274 96.9413 44.0904 96.8966 43.9755 96.8149C43.8606 96.7332 43.7733 96.6185 43.7253 96.4861C43.6772 96.3536 43.6705 96.2096 43.7063 96.0733C43.742 95.937 43.8184 95.8148 43.9253 95.7229C45.5296 94.3789 48.4814 92.3258 52.1099 91.7231L53.1231 93.1401L55.0987 92.7214Z" fill="black"/>
<path d="M54.1474 95.8699H44.7946C44.7486 95.8699 44.7044 95.8517 44.6719 95.8191C44.6394 95.7866 44.6211 95.7425 44.6211 95.6964C44.6211 95.6504 44.6394 95.6063 44.6719 95.5738C44.7044 95.5412 44.7486 95.5229 44.7946 95.5229H54.1474C54.1934 95.5229 54.2376 95.5412 54.2701 95.5738C54.3026 95.6063 54.3209 95.6504 54.3209 95.6964C54.3209 95.7425 54.3026 95.7866 54.2701 95.8191C54.2376 95.8517 54.1934 95.8699 54.1474 95.8699Z" fill="white"/>
<path d="M50.0154 94.2079C49.9812 94.2079 49.9478 94.1979 49.9194 94.1789C49.891 94.16 49.8688 94.133 49.8558 94.1014L49.3607 92.8997C49.3505 92.8784 49.3448 92.8552 49.3439 92.8317C49.343 92.8081 49.3468 92.7846 49.3553 92.7626C49.3638 92.7405 49.3767 92.7205 49.3932 92.7036C49.4096 92.6867 49.4294 92.6734 49.4512 92.6644C49.473 92.6555 49.4965 92.651 49.5201 92.6514C49.5436 92.6518 49.5669 92.657 49.5884 92.6666C49.6099 92.6763 49.6292 92.6903 49.6452 92.7077C49.6611 92.7251 49.6733 92.7455 49.6811 92.7678L50.1762 93.9684C50.1856 93.9898 50.1906 94.0128 50.1909 94.0362C50.1912 94.0595 50.1868 94.0827 50.178 94.1043C50.1691 94.1259 50.156 94.1455 50.1394 94.1619C50.1228 94.1783 50.103 94.1912 50.0813 94.1998C50.0601 94.207 50.0377 94.2097 50.0154 94.2079Z" fill="white"/>
<path d="M48.387 94.5234C48.3509 94.5239 48.3156 94.513 48.2861 94.4922C48.2566 94.4714 48.2345 94.4419 48.2228 94.4077L47.8642 93.3251C47.8571 93.3034 47.8543 93.2806 47.8559 93.2579C47.8576 93.2351 47.8638 93.213 47.874 93.1926C47.8843 93.1723 47.8985 93.1541 47.9157 93.1393C47.933 93.1244 47.953 93.113 47.9747 93.1059C47.9963 93.0988 48.0191 93.096 48.0419 93.0976C48.0646 93.0993 48.0868 93.1055 48.1071 93.1157C48.1275 93.126 48.1456 93.1402 48.1605 93.1574C48.1754 93.1747 48.1867 93.1947 48.1939 93.2164L48.5513 94.299C48.5584 94.321 48.561 94.3442 48.5591 94.3673C48.5571 94.3904 48.5505 94.4128 48.5397 94.4333C48.529 94.4537 48.5142 94.4719 48.4963 94.4865C48.4784 94.5012 48.4578 94.5122 48.4356 94.5188C48.4197 94.5225 48.4034 94.5241 48.387 94.5234Z" fill="white"/>
<path d="M77.0784 63.7455C77.0784 63.7455 60.2732 61.7896 55.2764 66.1178C50.2796 70.4461 63.1648 89.0453 63.1648 89.0453L67.2398 86.023L63.3742 72.8728L78.9094 68.4612L77.0784 63.7455Z" fill="black"/>
<path d="M86.3265 72.3074C83.886 73.0824 79.5184 74.0841 73.4135 74.0008C72.5627 73.9878 71.7252 74.2131 70.9959 74.6514C70.2665 75.0897 69.6744 75.7233 69.2865 76.4807C67.4786 80.027 63.5645 86.4118 57.1901 90.5504L54.1445 88.9102L61.9162 71.4168C62.2675 70.6262 62.774 69.9143 63.4056 69.3232C64.0372 68.7321 64.7812 68.2738 65.5932 67.9757L80.9954 62.3288C80.9954 62.3288 85.7713 60.994 88.1124 65.2564C88.53 66.0186 89.3073 64.6572 89.4923 65.2714C90.1285 67.3777 88.4236 71.6423 86.3265 72.3074Z" fill="black"/>
<path d="M58.4078 79.4949C58.3789 79.4949 58.3505 79.4877 58.3251 79.4739C58.2997 79.4601 58.2781 79.4401 58.2624 79.4159C58.2466 79.3916 58.2372 79.3638 58.2349 79.335C58.2326 79.3062 58.2376 79.2772 58.2494 79.2508L61.761 71.3462C62.1233 70.5353 62.644 69.8051 63.2925 69.1985C63.9411 68.5919 64.7044 68.121 65.5375 67.8137L72.9125 65.1082C72.9547 65.0966 72.9998 65.1015 73.0387 65.1217C73.0775 65.142 73.1073 65.1763 73.1219 65.2176C73.1366 65.2589 73.135 65.3042 73.1176 65.3444C73.1002 65.3847 73.0683 65.4168 73.0281 65.4344L65.6521 68.1387C64.8624 68.4301 64.1391 68.8765 63.5245 69.4515C62.9099 70.0266 62.4165 70.7187 62.0733 71.4873L58.5617 79.392C58.5484 79.4219 58.5269 79.4474 58.4996 79.4656C58.4724 79.4839 58.4406 79.494 58.4078 79.4949Z" fill="white"/>
<path d="M62.5093 86.29C62.4753 86.29 62.442 86.28 62.4137 86.2612C62.3853 86.2424 62.3631 86.2157 62.3498 86.1844C62.3365 86.1531 62.3326 86.1186 62.3388 86.0851C62.345 86.0517 62.3608 86.0208 62.3844 85.9963C63.0784 85.2687 63.7724 84.4856 64.4329 83.6702C64.462 83.6347 64.504 83.6121 64.5497 83.6074C64.5954 83.6026 64.6411 83.616 64.6769 83.6447C64.6948 83.659 64.7096 83.6767 64.7205 83.6967C64.7315 83.7167 64.7383 83.7387 64.7407 83.7615C64.7431 83.7842 64.7409 83.8071 64.7343 83.829C64.7277 83.8508 64.7169 83.8712 64.7024 83.8888C64.0373 84.7112 63.341 85.5012 62.6343 86.2368C62.6181 86.2537 62.5987 86.2671 62.5773 86.2763C62.5558 86.2854 62.5327 86.2901 62.5093 86.29Z" fill="white"/>
<path d="M64.5682 83.9539C64.5284 83.9541 64.4899 83.9402 64.4594 83.9146C64.4417 83.9003 64.4269 83.8827 64.4159 83.8627C64.4049 83.8427 64.398 83.8207 64.3956 83.7981C64.3931 83.7754 64.3951 83.7525 64.4015 83.7306C64.4079 83.7087 64.4186 83.6883 64.4328 83.6705C64.7579 83.2692 65.0806 82.8539 65.3929 82.4352C65.4058 82.4153 65.4227 82.3984 65.4425 82.3853C65.4622 82.3722 65.4845 82.3633 65.5078 82.3591C65.5312 82.355 65.5551 82.3556 65.5782 82.3611C65.6012 82.3666 65.6229 82.3767 65.642 82.3909C65.661 82.405 65.6769 82.423 65.6887 82.4435C65.7005 82.4641 65.708 82.4868 65.7106 82.5104C65.7133 82.5339 65.7111 82.5578 65.7042 82.5805C65.6973 82.6032 65.6858 82.6242 65.6705 82.6422C65.3559 83.0644 65.0308 83.4843 64.7023 83.8891C64.6863 83.9093 64.6659 83.9257 64.6427 83.9369C64.6194 83.9481 64.594 83.9539 64.5682 83.9539Z" fill="white"/>
<path d="M55.1775 39.1675L59.5555 41.5306C59.5555 41.5306 62.239 48.5296 66.0803 48.9517C69.9216 49.3739 73.7224 44.059 73.7224 44.059L76.2671 49.515C76.2671 49.515 72.5229 55.3053 66.5846 54.3731C60.6463 53.4408 59.0281 44.5194 59.0281 44.5194C59.0281 44.5194 57.6227 44.6593 57.093 43.2875C56.6407 42.1205 56.8293 41.4369 56.8293 41.4369C56.8293 41.4369 54.723 40.3033 55.1775 39.1675Z" fill="white"/>
<path d="M67.8661 54.6439C67.4291 54.6437 66.9929 54.6092 66.5614 54.5409C64.0745 54.15 61.9543 52.2923 60.431 49.1693C59.7473 47.7438 59.2318 46.2435 58.895 44.6988C58.809 44.6962 58.7233 44.6889 58.6382 44.6768C58.2585 44.637 57.8977 44.4911 57.597 44.2559C57.2964 44.0206 57.0679 43.7056 56.9379 43.3467C56.5816 42.4213 56.6071 41.7863 56.6441 41.5203C56.1918 41.2566 54.5736 40.219 55.0178 39.1017C55.0269 39.0789 55.0407 39.0583 55.0582 39.0412C55.0757 39.0241 55.0966 39.0108 55.1196 39.0022C55.1427 38.9941 55.1673 38.9909 55.1918 38.9927C55.2163 38.9945 55.2401 39.0012 55.2619 39.0126L59.6398 41.3757C59.6766 41.3955 59.705 41.428 59.7197 41.4671C59.7463 41.5353 62.4101 48.3712 66.101 48.7761C69.7919 49.1809 73.5453 44.0083 73.5835 43.9562C73.6011 43.9316 73.6249 43.912 73.6525 43.8994C73.6801 43.8868 73.7105 43.8816 73.7407 43.8844C73.7709 43.8872 73.7998 43.8979 73.8246 43.9154C73.8494 43.9328 73.8691 43.9565 73.8819 43.984L76.4266 49.44C76.439 49.4666 76.4445 49.496 76.4425 49.5254C76.4405 49.5547 76.431 49.583 76.415 49.6077C75.6763 50.6745 74.7824 51.625 73.7628 52.4277C72.428 53.486 70.3911 54.6439 67.8661 54.6439ZM59.0314 44.3426H59.0592C59.0948 44.3483 59.1277 44.3649 59.1535 44.3902C59.1792 44.4155 59.1964 44.4482 59.2026 44.4837C59.2188 44.5716 60.8682 53.2929 66.6146 54.1997C71.9977 55.0452 75.5973 50.1803 76.0715 49.4978L73.6841 44.3935C72.9184 45.394 69.8232 49.1462 66.5209 49.1462C66.3663 49.1462 66.2119 49.1381 66.0582 49.1219C62.3037 48.7101 59.7035 42.3866 59.4131 41.651L55.2931 39.4244C55.2237 40.1878 56.4116 41.0067 56.9124 41.2751C56.9471 41.2936 56.9745 41.3234 56.9901 41.3596C57.0056 41.3957 57.0084 41.4361 56.998 41.474C56.998 41.474 56.8338 42.1299 57.2559 43.2194C57.7186 44.4316 58.9239 44.3495 58.9979 44.3437L59.0314 44.3426Z" fill="black"/>
<path d="M59.1564 43.9447C59.1392 43.9446 59.1221 43.9422 59.1055 43.9377C59.0685 43.9262 58.1802 43.6439 58.0738 42.8609C58.0245 42.5848 57.8878 42.3317 57.684 42.1391C57.5693 42.0255 57.4784 41.8902 57.4166 41.741C57.3549 41.5919 57.3235 41.4319 57.3242 41.2705V41.1016C57.3242 41.0732 57.3311 41.0453 57.3444 41.0203C57.3578 40.9953 57.377 40.9739 57.4006 40.9582C57.424 40.9421 57.451 40.9321 57.4792 40.9289C57.5075 40.9256 57.536 40.9293 57.5625 40.9397L59.0384 41.5284C59.0812 41.5454 59.1155 41.5788 59.1337 41.6211C59.1519 41.6634 59.1526 41.7112 59.1356 41.754C59.1185 41.7967 59.0852 41.831 59.0429 41.8492C59.0006 41.8675 58.9528 41.8681 58.91 41.8511L57.6759 41.3653C57.6951 41.567 57.7843 41.7556 57.928 41.8985C58.1879 42.1452 58.3597 42.4702 58.4173 42.8239C58.4948 43.3872 59.2015 43.6139 59.2084 43.6162C59.2479 43.6287 59.2816 43.6549 59.3034 43.69C59.3253 43.7252 59.3338 43.767 59.3275 43.8079C59.3213 43.8488 59.3006 43.8862 59.2692 43.9132C59.2378 43.9401 59.1978 43.955 59.1564 43.9551V43.9447Z" fill="black"/>
<path d="M87.3866 41.6415C85.4608 41.1892 84.658 41.1788 77.659 41.4367C75.9483 41.4992 73.9137 43.646 73.7125 45.3451C74.2561 46.976 76.7649 55.0265 72.3846 61.3164C71.6468 62.3729 70.7623 63.3189 69.7578 64.126C70.409 64.6534 73.4152 64.3573 74.7754 64.7575C77.0333 65.4272 76.6573 64.9345 78.4768 64.9888C83.2908 65.1323 84.5748 71.2476 87.6839 70.5744C88.5144 70.3951 89.6143 69.7474 90.6461 67.5752C91.3135 65.5231 91.7807 63.4111 92.041 61.269C92.8264 54.7917 91.5414 49.3946 90.3928 46.0091C90.0516 44.9391 89.656 42.1747 87.3866 41.6415Z" fill="#5479F7"/>
<path d="M70.2812 46.5017C70.2812 46.5017 73.9583 41.8751 77.2005 41.5015L75.6019 53.7622L70.2812 46.5017Z" fill="#5479F7"/>
<path d="M93.8529 53.2349C93.8529 53.2349 93.5174 50.0274 93.3035 47.9026C92.8292 43.1892 87.4761 41.6323 87.4761 41.6323L85.4531 53.1308L93.8529 53.2349Z" fill="#5479F7"/>
<path d="M92.356 52.9597C92.356 52.9597 90.2948 61.814 88.5945 64.6953C86.5646 68.1352 76.3223 63.5016 76.3223 63.5016L75.1309 62.8272C74.7324 62.6017 74.2915 62.4612 73.836 62.4148C73.3804 62.3685 72.9202 62.4171 72.4845 62.5577L70.5586 63.1789C70.5586 63.1789 72.1479 61.2727 73.4989 60.5451C74.1327 60.1981 74.9539 60.5266 75.6479 60.965C76.848 61.7136 78.2447 62.0858 79.6581 62.0338L83.7319 61.9181C84.0635 61.9084 84.3799 61.7771 84.6207 61.549C84.8616 61.3209 85.0101 61.0122 85.0378 60.6816L86.3413 52.3813L92.356 52.9597Z" fill="white"/>
<path d="M85.4914 66.1399C81.7901 66.1399 76.5573 63.7976 76.2519 63.66L76.2381 63.653L75.0467 62.9787C74.6691 62.765 74.2513 62.632 73.8197 62.588C73.388 62.544 72.952 62.59 72.539 62.7231L70.6143 63.3419C70.5786 63.354 70.5398 63.354 70.5041 63.342C70.4683 63.3299 70.4375 63.3065 70.4163 63.2752C70.3952 63.2439 70.3849 63.2066 70.387 63.1689C70.3891 63.1312 70.4036 63.0953 70.4281 63.0666C70.494 62.9868 72.0544 61.1268 73.4193 60.3912C74.0115 60.072 74.7934 60.2154 75.743 60.818C76.914 61.5484 78.2769 61.911 79.656 61.859L83.7298 61.7434C84.0179 61.7346 84.2927 61.6204 84.5022 61.4226C84.7118 61.2248 84.8415 60.957 84.8668 60.67C84.8662 60.6661 84.8662 60.6622 84.8668 60.6584L86.175 52.3535C86.1819 52.31 86.2051 52.2706 86.2399 52.2436C86.2747 52.2165 86.3185 52.2037 86.3624 52.2078L92.3771 52.7861C92.4018 52.7884 92.4257 52.796 92.4473 52.8084C92.4688 52.8207 92.4874 52.8375 92.5019 52.8577C92.5164 52.8779 92.5263 52.9009 92.5312 52.9253C92.536 52.9497 92.5355 52.9748 92.5297 52.9989C92.4453 53.361 90.4477 61.9122 88.7486 64.7831C88.1575 65.779 86.943 66.1399 85.4914 66.1399ZM76.4023 63.3419C76.7169 63.483 86.5393 67.8344 88.4467 64.6026C89.9758 62.0117 91.8299 54.4182 92.148 53.1077L86.4942 52.564L85.2219 60.6977C85.189 61.069 85.021 61.4154 84.7499 61.6712C84.4787 61.9269 84.1232 62.0744 83.7506 62.0857L79.6768 62.2014C78.2284 62.2572 76.7968 61.8755 75.5684 61.106C74.99 60.7417 74.1803 60.3739 73.5939 60.6919C72.6987 61.1743 71.6785 62.2072 71.1221 62.8133L72.443 62.3865C72.9018 62.2391 73.3861 62.1883 73.8654 62.2373C74.3448 62.2862 74.8088 62.4339 75.2283 62.671L76.4023 63.3419Z" fill="black"/>
<path d="M83.6218 37.4199C83.9753 37.6145 84.3753 37.7089 84.7785 37.6929C85.764 37.6362 86.3978 36.8427 86.5227 36.6831C87.1763 35.8618 87.492 34.5132 86.938 33.7209C86.5389 33.1506 86.0369 33.3658 85.5778 32.7273C85.0561 32.0032 85.5905 31.4121 85.1151 30.7794C84.5622 30.0496 83.3419 30.1051 83.1221 30.1155C82.3692 30.1491 82.2789 30.5227 81.5676 30.5042C80.8562 30.4857 80.7452 30.119 80.0778 30.1155C79.548 30.1155 78.7754 30.3376 78.4295 30.9506C77.9958 31.7198 78.4399 32.7319 78.9546 33.264C79.5735 33.9059 80.0095 33.5612 80.877 34.084C82.3691 34.9932 82.0106 36.6079 83.6218 37.4199Z" fill="black"/>
<path d="M80.8263 40.8388L81.2334 38.308C80.922 38.2632 80.6132 38.2022 80.3081 38.1253C79.6141 37.7783 79.8073 36.0433 79.8073 36.0433L79.4209 35.5806L80.5776 33.0059C81.799 34.0237 82.2351 33.0244 83.4438 33.5252C84.6526 34.026 83.9967 35.3759 83.9967 35.3759C83.9967 35.3759 84.9845 34.941 84.7729 35.8964C84.6132 36.6181 84.0881 36.6632 83.7422 36.6343L84.3865 40.973C84.3865 40.973 86.4604 41.5617 86.8618 41.667C86.339 41.6427 82.7302 43.2123 78.6367 41.497L80.8263 40.8388Z" fill="white"/>
<path d="M82.6835 42.4677C81.2698 42.4757 79.8689 42.2004 78.5634 41.658C78.5304 41.6442 78.5025 41.6205 78.4836 41.5902C78.4646 41.5599 78.4554 41.5245 78.4573 41.4888C78.4592 41.4531 78.4721 41.4189 78.4942 41.3908C78.5163 41.3627 78.5465 41.3421 78.5807 41.3318L80.6708 40.7095L81.0329 38.4575C80.7616 38.4192 80.4934 38.362 80.2301 38.2863C79.5142 37.93 79.5928 36.4807 79.6264 36.1002L79.2875 35.6954C79.2666 35.6703 79.2531 35.6399 79.2486 35.6076C79.2441 35.5753 79.2488 35.5424 79.262 35.5126L80.4187 32.939C80.4293 32.9149 80.4452 32.8936 80.4652 32.8765C80.4852 32.8595 80.5089 32.8473 80.5344 32.8407C80.5605 32.8348 80.5876 32.835 80.6137 32.8412C80.6398 32.8474 80.6641 32.8595 80.6847 32.8766C81.3174 33.404 81.6864 33.3392 82.1537 33.2652C82.5215 33.2039 82.9391 33.1333 83.5058 33.3693C83.6757 33.4305 83.8306 33.5271 83.9602 33.6527C84.0898 33.7784 84.1912 33.9302 84.2577 34.098C84.3673 34.4282 84.3713 34.7844 84.2692 35.117C84.3589 35.0966 84.4517 35.0951 84.542 35.1126C84.6322 35.1302 84.7178 35.1663 84.7932 35.2188C84.9644 35.3588 85.013 35.5994 84.939 35.9336C84.8511 36.3304 84.6047 36.7838 83.9396 36.8127L84.5376 40.8368C84.969 40.9594 86.5594 41.4151 86.9018 41.5007C86.9478 41.5076 86.9892 41.5325 87.0169 41.5699C87.0445 41.6073 87.0562 41.6542 87.0493 41.7002C87.0424 41.7462 87.0175 41.7876 86.9801 41.8153C86.9427 41.8429 86.8958 41.8546 86.8498 41.8477H86.8428C86.6505 41.8752 86.4604 41.9162 86.2738 41.9703C85.1033 42.2893 83.8966 42.4565 82.6835 42.4677ZM79.1637 41.5146C82.171 42.6041 84.8823 41.9518 86.1211 41.6395C85.3912 41.4348 84.3861 41.1514 84.3329 41.134C84.3007 41.1249 84.2719 41.1068 84.2497 41.0818C84.2276 41.0567 84.2131 41.0259 84.2079 40.9929L83.5637 36.6542C83.5597 36.6283 83.5617 36.6018 83.5695 36.5768C83.5773 36.5517 83.5906 36.5288 83.6085 36.5096C83.6265 36.4905 83.6485 36.4756 83.673 36.4662C83.6975 36.4568 83.7238 36.4531 83.7499 36.4553C84.2345 36.4969 84.4971 36.3107 84.5977 35.8527C84.6394 35.6653 84.6301 35.5288 84.5711 35.4814C84.4716 35.3993 84.1894 35.4721 84.0599 35.5288C84.0277 35.5424 83.9923 35.5459 83.9581 35.539C83.9239 35.5321 83.8925 35.5151 83.8682 35.4901C83.8438 35.4651 83.8276 35.4334 83.8215 35.399C83.8155 35.3646 83.82 35.3293 83.8343 35.2975C83.8343 35.2917 84.1166 34.7029 83.9303 34.2171C83.8795 34.0945 83.8034 33.9839 83.7069 33.8926C83.6104 33.8013 83.4958 33.7314 83.3705 33.6874C82.8951 33.4908 82.5608 33.5463 82.2138 33.6053C81.7651 33.6804 81.3035 33.7568 80.6454 33.2802L79.6298 35.5531L79.9456 35.9313C79.9604 35.9492 79.9715 35.9699 79.9782 35.9922C79.985 36.0144 79.9873 36.0378 79.9849 36.0609C79.9387 36.4819 79.9132 37.7357 80.3909 37.9728C80.4777 38.0064 81.1601 38.129 81.2573 38.1394C81.2806 38.1421 81.3031 38.1494 81.3235 38.1611C81.3439 38.1727 81.3617 38.1883 81.3758 38.207C81.39 38.2257 81.4002 38.2471 81.4059 38.2699C81.4116 38.2927 81.4126 38.3163 81.4088 38.3395L81.0017 40.8703C80.9969 40.9017 80.9836 40.9311 80.9632 40.9554C80.9428 40.9797 80.9161 40.9979 80.886 41.0079L79.1637 41.5146Z" fill="black"/>
<path d="M81.5126 38.5012C81.4101 38.5008 81.3077 38.4939 81.2061 38.4804C81.1833 38.4773 81.1614 38.4697 81.1415 38.4581C81.1216 38.4465 81.1043 38.4311 81.0904 38.4128C81.0764 38.3945 81.0663 38.3736 81.0604 38.3514C81.0546 38.3291 81.0532 38.306 81.0563 38.2832C81.0594 38.2604 81.067 38.2384 81.0786 38.2186C81.0902 38.1987 81.1056 38.1813 81.1239 38.1674C81.1422 38.1535 81.1631 38.1434 81.1853 38.1375C81.2076 38.1317 81.2307 38.1303 81.2535 38.1334C81.5474 38.1838 81.8496 38.148 82.1236 38.0304C82.3977 37.9128 82.6318 37.7184 82.7977 37.4706C82.8216 37.4319 82.8597 37.4041 82.9038 37.3932C82.948 37.3823 82.9947 37.3892 83.0338 37.4125C83.073 37.4357 83.1014 37.4733 83.1131 37.5173C83.1247 37.5613 83.1186 37.6081 83.0961 37.6476C82.9248 37.9112 82.6901 38.1275 82.4134 38.2767C82.1367 38.4259 81.8269 38.5031 81.5126 38.5012Z" fill="black"/>
<path d="M80.1418 65.7314H57.5C57.2546 65.7314 57.0192 65.634 56.8457 65.4604C56.6722 65.2869 56.5747 65.0515 56.5747 64.8061V64.4117H81.0625V64.8061C81.0625 65.0507 80.9656 65.2854 80.7931 65.4588C80.6206 65.6322 80.3864 65.7302 80.1418 65.7314Z" fill="#CADDFF"/>
<path d="M80.1383 65.9051H57.4965C57.2064 65.9048 56.9283 65.7894 56.7232 65.5843C56.518 65.3792 56.4026 65.101 56.4023 64.8109V64.4176C56.4023 64.3716 56.4206 64.3275 56.4532 64.295C56.4857 64.2624 56.5298 64.2441 56.5758 64.2441H81.0591C81.1051 64.2441 81.1492 64.2624 81.1817 64.295C81.2143 64.3275 81.2326 64.3716 81.2326 64.4176V64.8109C81.2323 65.101 81.1169 65.3792 80.9117 65.5843C80.7066 65.7894 80.4285 65.9048 80.1383 65.9051ZM56.7493 64.5911V64.8109C56.7493 64.909 56.7687 65.0062 56.8062 65.0969C56.8438 65.1875 56.8988 65.2699 56.9682 65.3393C57.0376 65.4086 57.12 65.4637 57.2106 65.5012C57.3013 65.5388 57.3984 65.5581 57.4965 65.5581H80.1383C80.2365 65.5581 80.3336 65.5388 80.4243 65.5012C80.5149 65.4637 80.5973 65.4086 80.6667 65.3393C80.7361 65.2699 80.7911 65.1875 80.8287 65.0969C80.8662 65.0062 80.8856 64.909 80.8856 64.8109V64.5911H56.7493Z" fill="black"/>
<path d="M56.5765 64.4405H70.586L66.134 51.3389C66.0001 51.1358 65.8177 50.9692 65.6032 50.8542C65.3887 50.7393 65.149 50.6797 64.9056 50.6808H53.0625C52.9436 50.6785 52.8259 50.705 52.7195 50.7581C52.6132 50.8113 52.5212 50.8894 52.4516 50.9858C52.382 51.0822 52.3369 51.1941 52.32 51.3118C52.3031 51.4295 52.315 51.5496 52.3546 51.6617C52.4252 51.8456 52.5004 52.026 52.5605 52.2122L56.5765 64.4405Z" fill="#5479F7"/>
<path d="M70.5871 64.6141H56.5776C56.5414 64.6145 56.506 64.6036 56.4763 64.5828C56.4467 64.5621 56.4242 64.5326 56.4122 64.4985L52.4008 52.2667C52.358 52.1371 52.3071 52.0064 52.2574 51.8804L52.1973 51.7242C52.1467 51.5896 52.1296 51.4447 52.1475 51.302C52.1655 51.1594 52.2179 51.0232 52.3002 50.9053C52.3854 50.781 52.5 50.6797 52.6338 50.6103C52.7676 50.5409 52.9164 50.5055 53.0671 50.5074H64.9102C65.1826 50.5055 65.4511 50.5719 65.6912 50.7007C65.9312 50.8294 66.1352 51.0163 66.2843 51.2442C66.2921 51.2565 66.2983 51.2697 66.3028 51.2835L70.7514 64.3828C70.7609 64.409 70.764 64.4372 70.7603 64.4648C70.7565 64.4925 70.7461 64.5188 70.73 64.5416C70.7138 64.5643 70.6924 64.5828 70.6675 64.5955C70.6426 64.6081 70.615 64.6145 70.5871 64.6141ZM56.7071 64.2671H70.3477L65.9824 51.4165C65.8636 51.242 65.7036 51.0995 65.5166 51.0014C65.3296 50.9034 65.1213 50.8529 64.9102 50.8544H53.0636C52.9693 50.8533 52.8761 50.8753 52.7923 50.9184C52.7084 50.9616 52.6364 51.0246 52.5824 51.1019C52.5322 51.1736 52.5001 51.2564 52.4888 51.3432C52.4775 51.43 52.4874 51.5183 52.5177 51.6004L52.5778 51.7531C52.6287 51.885 52.6819 52.0203 52.727 52.158L56.7071 64.2671Z" fill="black"/>
<path d="M61.7758 57.3839C61.9423 57.938 61.6867 58.5048 61.2055 58.6563C60.7244 58.8078 60.1981 58.4701 60.0315 57.916C59.8649 57.362 60.1194 56.7952 60.6006 56.6495C61.0818 56.5037 61.6081 56.8299 61.7758 57.3839Z" fill="#99B9FF"/>
<path d="M90.318 13.1425C90.3041 11.5093 88.9809 10.2277 87.3777 10.3191C85.8162 10.407 84.6017 11.7475 84.6457 13.3495C84.6561 14.0858 84.9493 14.7899 85.4646 15.3159C85.8476 15.7043 86.0642 16.2266 86.0684 16.7721V17.1006C86.0681 17.1639 86.0804 17.2265 86.1047 17.285C86.129 17.3434 86.1647 17.3964 86.2097 17.4408C86.2548 17.4852 86.3083 17.5201 86.367 17.5435C86.4258 17.567 86.4886 17.5784 86.5519 17.5772L88.48 17.5216C88.6089 17.5159 88.7305 17.4601 88.8188 17.3662C88.9072 17.2722 88.9554 17.1475 88.9531 17.0185V16.6923C88.9439 16.1469 89.1448 15.6189 89.5141 15.2175C90.041 14.6562 90.3292 13.9122 90.318 13.1425Z" fill="#5479F7"/>
<path d="M86.5394 17.7482C86.3746 17.7482 86.2163 17.6843 86.0976 17.5701C86.0343 17.509 85.9838 17.4359 85.9493 17.3551C85.9147 17.2742 85.8967 17.1872 85.8963 17.0993V16.772C85.8939 16.2712 85.6949 15.7915 85.3423 15.436C84.7966 14.879 84.4856 14.1337 84.4736 13.354C84.4331 11.6479 85.7054 10.2391 87.3653 10.1454C87.7607 10.1215 88.1568 10.1789 88.5292 10.314C88.9016 10.4491 89.2424 10.659 89.5306 10.9308C89.8336 11.2139 90.0752 11.5564 90.2403 11.9368C90.4055 12.3173 90.4907 12.7276 90.4906 13.1423C90.5049 13.9567 90.2021 14.7447 89.6462 15.34C89.3088 15.7092 89.1247 16.1932 89.1315 16.6933V17.0195C89.1341 17.194 89.0684 17.3626 88.9485 17.4894C88.8286 17.6162 88.6639 17.6912 88.4895 17.6985L86.5614 17.754L86.5394 17.7482ZM87.5376 10.4889C87.4879 10.4889 87.437 10.4889 87.3872 10.4889C85.9102 10.5722 84.7824 11.826 84.8183 13.3436C84.8276 14.0361 85.1026 14.6986 85.5863 15.1943C86.0025 15.6138 86.2376 16.1798 86.241 16.7708V17.0981C86.241 17.14 86.2494 17.1814 86.2657 17.2199C86.282 17.2585 86.3058 17.2934 86.3358 17.3225C86.3925 17.3755 86.4676 17.4045 86.5452 17.4035L88.4734 17.348C88.5571 17.3441 88.636 17.3075 88.6931 17.2461C88.7502 17.1847 88.7809 17.1033 88.7787 17.0195V16.6933C88.771 16.1039 88.9887 15.5338 89.3871 15.0994C89.8836 14.5699 90.1548 13.8681 90.1436 13.1423C90.1439 12.7751 90.0687 12.4117 89.9229 12.0747C89.7771 11.7377 89.5636 11.4341 89.2957 11.1829C88.8201 10.7351 88.1909 10.4867 87.5376 10.4889Z" fill="black"/>
<path d="M87.538 19.5307C87.3809 19.5337 87.2248 19.5054 87.0788 19.4472C86.9328 19.3891 86.7999 19.3024 86.6879 19.1921C86.5759 19.0819 86.4871 18.9503 86.4267 18.8053C86.3663 18.6602 86.3356 18.5045 86.3362 18.3474L86.3281 17.5539L88.7108 17.4868L88.719 18.2791C88.7232 18.6003 88.6023 18.9104 88.3819 19.144C88.1615 19.3776 87.8588 19.5163 87.538 19.5307Z" fill="white"/>
<path d="M87.5029 19.7043C87.1576 19.7058 86.8255 19.5722 86.5776 19.3318C86.445 19.2037 86.3396 19.0502 86.2675 18.8805C86.1953 18.7108 86.158 18.5284 86.1577 18.344L86.1484 17.3817L88.8782 17.3042L88.8874 18.2735C88.892 18.6405 88.7538 18.9949 88.5019 19.2619C88.25 19.5289 87.9043 19.6875 87.5376 19.7043H87.5029ZM86.5024 17.7183L86.5081 18.3417C86.5081 18.4798 86.5358 18.6166 86.5896 18.7437C86.6435 18.8709 86.7224 18.9859 86.8216 19.082C86.9158 19.1727 87.0271 19.2438 87.149 19.291C87.271 19.3383 87.4011 19.3608 87.5318 19.3573C87.8078 19.3441 88.0679 19.2239 88.2568 19.0223C88.4458 18.8206 88.5487 18.5533 88.5439 18.277L88.5381 17.6605L86.5024 17.7183Z" fill="black"/>
<path d="M87.4822 8.38985C87.4366 8.38986 87.3928 8.3719 87.3603 8.33986C87.3279 8.30782 87.3093 8.26428 87.3087 8.21867L87.2891 6.3599C87.2888 6.31378 87.3067 6.2694 87.339 6.23646C87.3713 6.20353 87.4153 6.1847 87.4614 6.18409C87.4841 6.18393 87.5067 6.18828 87.5277 6.19687C87.5488 6.20546 87.5679 6.21813 87.584 6.23415C87.6001 6.25017 87.6129 6.26922 87.6217 6.29021C87.6304 6.31119 87.6349 6.3337 87.6349 6.35643L87.6546 8.2152C87.655 8.23797 87.6509 8.2606 87.6425 8.28177C87.6341 8.30295 87.6216 8.32223 87.6057 8.3385C87.5897 8.35476 87.5707 8.36768 87.5497 8.3765C87.5287 8.38532 87.5062 8.38986 87.4834 8.38985H87.4822Z" fill="#99B9FF"/>
<path d="M80.5446 14.1652C80.4986 14.1652 80.4544 14.1469 80.4219 14.1144C80.3894 14.0818 80.3711 14.0377 80.3711 13.9917C80.3711 13.9457 80.3894 13.9015 80.4219 13.869C80.4544 13.8365 80.4986 13.8182 80.5446 13.8182L82.5711 13.7974C82.6171 13.7974 82.6612 13.8156 82.6938 13.8482C82.7263 13.8807 82.7446 13.9248 82.7446 13.9709C82.7446 14.0169 82.7263 14.061 82.6938 14.0935C82.6612 14.1261 82.6171 14.1444 82.5711 14.1444L80.5434 14.1652H80.5446Z" fill="#99B9FF"/>
<path d="M94.0991 14.1268H92.2126C92.1665 14.1268 92.1224 14.1085 92.0899 14.076C92.0574 14.0434 92.0391 13.9993 92.0391 13.9533C92.0391 13.9073 92.0574 13.8631 92.0899 13.8306C92.1224 13.7981 92.1665 13.7798 92.2126 13.7798H94.0979C94.144 13.7798 94.1881 13.7981 94.2206 13.8306C94.2532 13.8631 94.2714 13.9073 94.2714 13.9533C94.2714 13.9993 94.2532 14.0434 94.2206 14.076C94.1881 14.1085 94.144 14.1268 94.0979 14.1268H94.0991Z" fill="#99B9FF"/>
<path d="M83.6234 10.3308C83.5775 10.3304 83.5335 10.3122 83.5008 10.2799L82.0746 8.85607C82.042 8.82355 82.0235 8.77939 82.0234 8.73329C82.0233 8.6872 82.0415 8.64295 82.0741 8.61028C82.1066 8.57761 82.1507 8.55919 82.1968 8.55908C82.2429 8.55897 82.2872 8.57718 82.3198 8.6097L83.7472 10.0347C83.7714 10.059 83.7879 10.0899 83.7946 10.1235C83.8013 10.1572 83.7978 10.192 83.7847 10.2237C83.7716 10.2554 83.7494 10.2825 83.7209 10.3015C83.6924 10.3206 83.6589 10.3308 83.6246 10.3308H83.6234Z" fill="#99B9FF"/>
<path d="M91.1655 10.4372C91.1314 10.4372 91.098 10.4271 91.0696 10.4082C91.0411 10.3892 91.0189 10.3623 91.0057 10.3309C90.9925 10.2994 90.9889 10.2647 90.9953 10.2311C91.0017 10.1976 91.0179 10.1667 91.0418 10.1423L92.461 8.70568C92.4768 8.68857 92.4959 8.67482 92.5171 8.66524C92.5384 8.65566 92.5613 8.65046 92.5846 8.64995C92.6079 8.64943 92.6311 8.65361 92.6527 8.66223C92.6744 8.67085 92.694 8.68375 92.7106 8.70014C92.7271 8.71654 92.7402 8.73609 92.749 8.75765C92.7579 8.77921 92.7623 8.80233 92.762 8.82562C92.7617 8.84891 92.7567 8.87191 92.7473 8.89323C92.7379 8.91456 92.7243 8.93377 92.7074 8.94974L91.2881 10.3863C91.2556 10.4188 91.2115 10.437 91.1655 10.4372Z" fill="#99B9FF"/>
<path d="M69.9137 2.96973H55.313L52.5 5.73995V24.3623H69.9137V2.96973Z" fill="white"/>
<path d="M69.9153 24.5359H52.5016C52.4556 24.5359 52.4115 24.5176 52.3789 24.4851C52.3464 24.4526 52.3281 24.4084 52.3281 24.3624V5.74003C52.3281 5.71697 52.3327 5.69413 52.3416 5.67287C52.3506 5.65162 52.3637 5.63237 52.3802 5.61627L55.1932 2.84026C55.2244 2.81007 55.2655 2.79237 55.3089 2.79053H69.9095C69.9555 2.79053 69.9996 2.80881 70.0322 2.84135C70.0647 2.87388 70.083 2.91801 70.083 2.96403V24.3624C70.083 24.4074 70.0655 24.4507 70.0342 24.4831C70.0029 24.5155 69.9603 24.5344 69.9153 24.5359ZM52.6751 24.1889H69.7418V3.14331H55.3864L52.6751 5.8129V24.1889Z" fill="black"/>
<path d="M55.3888 5.98527H53.6423C53.5962 5.98527 53.5521 5.96699 53.5196 5.93445C53.487 5.90191 53.4688 5.85778 53.4688 5.81177C53.4688 5.76575 53.487 5.72162 53.5196 5.68909C53.5521 5.65655 53.5962 5.63827 53.6423 5.63827H55.2153V4.24332C55.2153 4.19731 55.2336 4.15318 55.2661 4.12064C55.2987 4.0881 55.3428 4.06982 55.3888 4.06982C55.4348 4.06982 55.479 4.0881 55.5115 4.12064C55.544 4.15318 55.5623 4.19731 55.5623 4.24332V5.81177C55.5623 5.85778 55.544 5.90191 55.5115 5.93445C55.479 5.96699 55.4348 5.98527 55.3888 5.98527Z" fill="black"/>
<path d="M87.2238 22.3033C87.2115 22.3049 87.1991 22.3049 87.1868 22.3033C87.1645 22.2984 87.1434 22.2891 87.1248 22.2761C87.1061 22.263 87.0902 22.2464 87.0779 22.2271C87.0657 22.2079 87.0574 22.1864 87.0534 22.164C87.0494 22.1415 87.05 22.1185 87.0549 22.0963C87.0919 21.9309 87.1278 21.762 87.1602 21.592C87.1645 21.5696 87.1732 21.5482 87.1858 21.5292C87.1984 21.5101 87.2145 21.4938 87.2335 21.481C87.2524 21.4682 87.2736 21.4593 87.2959 21.4547C87.3183 21.4501 87.3413 21.45 87.3637 21.4543C87.3862 21.4587 87.4075 21.4674 87.4265 21.4799C87.4456 21.4925 87.4619 21.5087 87.4747 21.5276C87.4875 21.5465 87.4964 21.5677 87.501 21.5901C87.5056 21.6125 87.5057 21.6355 87.5014 21.6579C87.4678 21.8314 87.4308 22.0049 87.3938 22.1726C87.3842 22.2103 87.3622 22.2437 87.3314 22.2674C87.3006 22.2911 87.2627 22.3037 87.2238 22.3033Z" fill="#99B9FF"/>
<path d="M85.3448 27.3763C85.3166 27.3767 85.2888 27.3699 85.2639 27.3566C85.2237 27.3355 85.1935 27.2993 85.1798 27.256C85.1662 27.2126 85.1702 27.1657 85.191 27.1253C85.3286 26.8627 85.4628 26.5932 85.5912 26.3226C85.6003 26.301 85.6136 26.2814 85.6304 26.2651C85.6472 26.2488 85.6672 26.2361 85.6891 26.2277C85.7109 26.2193 85.7343 26.2154 85.7577 26.2163C85.7811 26.2172 85.8041 26.2228 85.8253 26.2328C85.8465 26.2428 85.8654 26.257 85.881 26.2745C85.8965 26.292 85.9084 26.3125 85.9158 26.3348C85.9232 26.357 85.926 26.3805 85.9241 26.4038C85.9222 26.4272 85.9156 26.4499 85.9046 26.4706C85.7751 26.7459 85.6386 27.02 85.4975 27.2861C85.4826 27.3135 85.4606 27.3364 85.4337 27.3523C85.4068 27.3682 85.3761 27.3765 85.3448 27.3763ZM86.1163 25.7419C86.0878 25.7419 86.0597 25.7347 86.0345 25.7212C86.0094 25.7077 85.9879 25.6881 85.9721 25.6643C85.9563 25.6405 85.9467 25.6132 85.944 25.5848C85.9413 25.5563 85.9457 25.5277 85.9567 25.5013C86.0724 25.2272 86.188 24.9461 86.2875 24.6674C86.304 24.6248 86.3366 24.5905 86.3783 24.5718C86.4199 24.5531 86.4673 24.5516 86.51 24.5676C86.5528 24.5836 86.5875 24.6158 86.6067 24.6572C86.6259 24.6986 86.628 24.7459 86.6125 24.7888C86.5073 25.0722 86.3939 25.3568 86.2771 25.6355C86.2638 25.6672 86.2415 25.6942 86.2128 25.7131C86.1842 25.732 86.1506 25.7421 86.1163 25.7419ZM86.7479 24.0474C86.7294 24.0476 86.7111 24.0448 86.6935 24.0393C86.6714 24.0327 86.6509 24.0218 86.6332 24.0072C86.6154 23.9926 86.6007 23.9746 86.5899 23.9542C86.5791 23.9339 86.5725 23.9116 86.5704 23.8887C86.5684 23.8657 86.5709 23.8426 86.5778 23.8207C86.6692 23.5362 86.756 23.2424 86.8346 22.9613C86.8401 22.9387 86.8501 22.9175 86.864 22.8989C86.8779 22.8803 86.8954 22.8647 86.9154 22.8529C86.9354 22.8412 86.9576 22.8336 86.9806 22.8306C87.0037 22.8276 87.0271 22.8292 87.0494 22.8354C87.0718 22.8416 87.0927 22.8522 87.1109 22.8666C87.1291 22.881 87.1442 22.899 87.1553 22.9193C87.1665 22.9397 87.1734 22.9621 87.1758 22.9852C87.1781 23.0083 87.1758 23.0316 87.1689 23.0538C87.0891 23.3441 87.0012 23.6379 86.9075 23.9271C86.8968 23.9614 86.8757 23.9914 86.8471 24.013C86.8184 24.0346 86.7837 24.0466 86.7479 24.0474Z" fill="#99B9FF"/>
<path d="M84.63 28.6106C84.5989 28.6103 84.5684 28.6016 84.5417 28.5856C84.515 28.5695 84.4931 28.5466 84.4782 28.5193C84.4633 28.4919 84.4561 28.461 84.4571 28.4299C84.4582 28.3988 84.4676 28.3685 84.4843 28.3422C84.5699 28.2092 84.6613 28.0623 84.7538 27.905C84.7652 27.885 84.7805 27.8674 84.7987 27.8534C84.817 27.8393 84.8379 27.8291 84.8601 27.8232C84.8824 27.8173 84.9056 27.8159 84.9284 27.819C84.9513 27.8222 84.9732 27.8299 84.993 27.8417C85.0128 27.8534 85.0301 27.869 85.0439 27.8875C85.0576 27.906 85.0675 27.927 85.073 27.9494C85.0785 27.9718 85.0795 27.995 85.0759 28.0178C85.0724 28.0405 85.0643 28.0623 85.0522 28.082C84.9574 28.2427 84.8648 28.3931 84.7769 28.5307C84.761 28.5552 84.7392 28.5753 84.7136 28.5892C84.6879 28.6032 84.6592 28.6105 84.63 28.6106Z" fill="#99B9FF"/>
<path d="M66.2092 7.59608C66.1759 7.59618 66.1433 7.58671 66.1152 7.5688C66.0872 7.55088 66.0649 7.52528 66.051 7.49505C66.0371 7.46482 66.0322 7.43122 66.0369 7.39828C66.0415 7.36533 66.0556 7.33442 66.0773 7.30923C66.193 7.1739 66.3086 7.04551 66.4243 6.91596C66.4562 6.88364 66.4994 6.86509 66.5448 6.86429C66.5902 6.86348 66.634 6.88048 66.667 6.91165C66.7 6.94282 66.7195 6.98567 66.7212 7.03102C66.723 7.07637 66.7069 7.1206 66.6765 7.15424C66.5608 7.27916 66.4451 7.40408 66.3295 7.53478C66.3145 7.55252 66.2962 7.56708 66.2755 7.57761C66.2549 7.58814 66.2323 7.59442 66.2092 7.59608Z" fill="#99B9FF"/>
<path d="M74.5081 9.73814H74.4734C74.1159 9.66576 73.7769 9.5209 73.4775 9.31249C73.4398 9.28596 73.4142 9.24552 73.4062 9.20007C73.3983 9.15463 73.4088 9.1079 73.4353 9.07017C73.4618 9.03244 73.5023 9.00679 73.5477 8.99887C73.5932 8.99095 73.6399 9.00141 73.6776 9.02795C73.9376 9.2093 74.2321 9.33529 74.5428 9.39808C74.5888 9.40269 74.6311 9.42538 74.6604 9.46117C74.6897 9.49696 74.7036 9.54292 74.699 9.58893C74.6944 9.63495 74.6717 9.67725 74.6359 9.70653C74.6001 9.73582 74.5541 9.74969 74.5081 9.74508V9.73814ZM75.5202 9.73814C75.4742 9.74305 75.4281 9.72948 75.3921 9.70041C75.3561 9.67135 75.3331 9.62917 75.3282 9.58315C75.3233 9.53714 75.3369 9.49105 75.3659 9.45505C75.395 9.41904 75.4372 9.39605 75.4832 9.39114C75.6967 9.34548 75.9012 9.26456 76.0881 9.15171C76.1695 9.10318 76.2468 9.04826 76.3195 8.98746C76.3368 8.97227 76.3569 8.96064 76.3787 8.95324C76.4005 8.94583 76.4236 8.94279 76.4466 8.9443C76.4696 8.9458 76.492 8.95182 76.5127 8.962C76.5334 8.97219 76.5518 8.98634 76.567 9.00366C76.5822 9.02098 76.5938 9.04111 76.6012 9.06293C76.6086 9.08474 76.6117 9.10779 76.6102 9.13078C76.6087 9.15376 76.6026 9.17622 76.5925 9.19688C76.5823 9.21754 76.5681 9.23599 76.5508 9.25118C76.466 9.32381 76.3754 9.38957 76.2801 9.44782C76.0602 9.58135 75.8193 9.67676 75.5676 9.73005C75.5525 9.73574 75.5364 9.73849 75.5202 9.73814ZM72.9131 8.58148C72.8809 8.58149 72.8493 8.57265 72.8217 8.55593C72.7942 8.5392 72.7718 8.51523 72.7569 8.48663C72.6032 8.17932 72.5239 7.84014 72.5256 7.49652C72.5256 7.46992 72.5256 7.44331 72.5256 7.41671C72.527 7.37069 72.5466 7.32711 72.5801 7.29555C72.6136 7.26399 72.6583 7.24703 72.7043 7.24841C72.7503 7.24979 72.7939 7.2694 72.8255 7.30291C72.857 7.33642 72.874 7.3811 72.8726 7.42712C72.8726 7.45025 72.8726 7.47339 72.8726 7.49652C72.8695 7.78554 72.9345 8.07123 73.0623 8.33048C73.0758 8.35679 73.0823 8.38613 73.0812 8.41567C73.08 8.44522 73.0713 8.47398 73.0559 8.49919C73.0404 8.5244 73.0188 8.54521 72.9929 8.55962C72.9671 8.57403 72.938 8.58156 72.9085 8.58148H72.9131ZM77.0031 8.46581C76.9817 8.466 76.9605 8.46207 76.9406 8.45424C76.9193 8.44605 76.8999 8.43374 76.8834 8.41802C76.8669 8.40231 76.8536 8.3835 76.8444 8.36266C76.8351 8.34182 76.8301 8.31936 76.8295 8.29657C76.829 8.27379 76.8329 8.25111 76.8411 8.22985C76.954 7.9304 77.0116 7.61296 77.0112 7.29294C77.0113 7.27031 77.0159 7.24793 77.0247 7.22708C77.0335 7.20623 77.0463 7.18731 77.0625 7.17142C77.0786 7.15552 77.0976 7.14295 77.1186 7.13443C77.1396 7.12591 77.162 7.12161 77.1847 7.12176C77.2074 7.12191 77.23 7.12655 77.251 7.13541C77.272 7.14427 77.291 7.15717 77.307 7.17339C77.323 7.18961 77.3357 7.20882 77.3442 7.22993C77.3528 7.25104 77.3572 7.27363 77.357 7.29642C77.3568 7.65794 77.2913 8.01646 77.1638 8.35477C77.1518 8.38793 77.13 8.41666 77.1013 8.43711C77.0726 8.45757 77.0383 8.46879 77.0031 8.46928V8.46581ZM72.9258 6.60241C72.9032 6.6021 72.8809 6.5978 72.8599 6.58969C72.8381 6.58123 72.8182 6.56842 72.8015 6.55203C72.7848 6.53565 72.7716 6.51604 72.7628 6.4944C72.7539 6.47275 72.7495 6.44953 72.7499 6.42614C72.7503 6.40275 72.7554 6.37969 72.765 6.35836C72.8971 6.03179 73.0768 5.72659 73.2983 5.45268L73.3075 5.44227C73.3217 5.42443 73.3393 5.40955 73.3592 5.3985C73.3792 5.38744 73.4011 5.38043 73.4238 5.37785C73.4464 5.37527 73.4694 5.37718 73.4913 5.38347C73.5132 5.38976 73.5337 5.40031 73.5516 5.41451C73.5694 5.42872 73.5843 5.4463 73.5953 5.46625C73.6064 5.4862 73.6134 5.50813 73.616 5.53079C73.6186 5.55346 73.6167 5.57641 73.6104 5.59833C73.6041 5.62025 73.5935 5.64072 73.5793 5.65857L73.5654 5.67477C73.3668 5.9196 73.2054 6.19243 73.0866 6.48443C73.0756 6.5188 73.0543 6.54893 73.0255 6.57068C72.9967 6.59243 72.9619 6.60473 72.9258 6.60588V6.60241ZM67.287 6.496C67.2518 6.49605 67.2175 6.4854 67.1885 6.46546C67.1595 6.44553 67.1372 6.41724 67.1247 6.38437C67.1121 6.35149 67.1099 6.31558 67.1182 6.28139C67.1266 6.2472 67.1451 6.21636 67.1714 6.19295C67.4328 5.96162 67.7034 5.74185 67.981 5.54175C68.0182 5.51646 68.0638 5.50661 68.1081 5.51427C68.1524 5.52193 68.1921 5.54651 68.2186 5.58281C68.2452 5.61912 68.2566 5.66431 68.2505 5.70887C68.2443 5.75343 68.2211 5.79387 68.1858 5.82166C67.9209 6.01598 67.6583 6.22765 67.4062 6.45205C67.3742 6.4828 67.3314 6.49982 67.287 6.49947V6.496ZM77.0389 6.46361C77.0027 6.46399 76.9673 6.45305 76.9377 6.43231C76.908 6.41157 76.8856 6.38207 76.8735 6.34795C76.8438 6.25087 76.8079 6.15583 76.7659 6.06341C76.6769 5.86724 76.56 5.68492 76.4189 5.52208C76.3928 5.48685 76.3809 5.443 76.3858 5.39937C76.3906 5.35574 76.4118 5.31557 76.4451 5.28697C76.4784 5.25836 76.5213 5.24344 76.5652 5.24521C76.6091 5.24699 76.6506 5.26533 76.6815 5.29653C76.8435 5.48449 76.9775 5.69486 77.0794 5.92114C77.1245 6.02623 77.1632 6.134 77.1951 6.24385C77.202 6.26571 77.2045 6.28874 77.2024 6.31159C77.2003 6.33444 77.1937 6.35664 77.183 6.37689C77.1722 6.39714 77.1575 6.41504 77.1397 6.42954C77.1219 6.44403 77.1014 6.45483 77.0794 6.4613C77.0655 6.46512 77.0511 6.46706 77.0366 6.46708L77.0389 6.46361ZM81.0873 5.68749C81.0586 5.6873 81.0304 5.68015 81.0051 5.66667C80.7106 5.50937 80.4083 5.36692 80.0995 5.23986C80.0568 5.22237 80.0229 5.18866 80.0051 5.14615C79.9873 5.10363 79.9871 5.05579 80.0046 5.01315C80.0221 4.97051 80.0558 4.93656 80.0983 4.91877C80.1408 4.90099 80.1887 4.90082 80.2313 4.9183C80.5436 5.04669 80.8582 5.19475 81.1682 5.36015C81.2027 5.37814 81.2302 5.40719 81.2461 5.44264C81.2621 5.47809 81.2658 5.51789 81.2564 5.55565C81.2471 5.59341 81.2253 5.62693 81.1947 5.65084C81.164 5.67475 81.1262 5.68765 81.0873 5.68749ZM68.926 5.29653C68.8878 5.29658 68.8506 5.28399 68.8203 5.26074C68.79 5.23748 68.7681 5.20485 68.7583 5.16792C68.7484 5.131 68.7509 5.09184 68.7656 5.05653C68.7803 5.02122 68.8062 4.99174 68.8393 4.97267C69.1382 4.79774 69.4472 4.64055 69.7646 4.5019C69.807 4.48365 69.8548 4.48296 69.8976 4.49999C69.9405 4.51702 69.9748 4.55037 69.9931 4.5927C70.0113 4.63504 70.012 4.68289 69.995 4.72573C69.978 4.76857 69.9446 4.80289 69.9023 4.82114C69.5972 4.95388 69.3002 5.10451 69.0128 5.27224C68.9882 5.2883 68.96 5.29785 68.9307 5.3L68.926 5.29653ZM74.2213 5.08602C74.1904 5.08578 74.1602 5.07741 74.1336 5.06178C74.107 5.04615 74.085 5.02379 74.0697 4.99696C74.0488 4.95721 74.0441 4.9109 74.0566 4.86775C74.0691 4.82461 74.0979 4.788 74.1368 4.76562C74.3191 4.66388 74.5099 4.57834 74.7071 4.51C74.6769 4.48399 74.6566 4.44839 74.6496 4.40918C74.6425 4.36997 74.6492 4.32954 74.6685 4.29467C74.6877 4.2598 74.7184 4.23263 74.7554 4.21771C74.7923 4.20279 74.8332 4.20103 74.8713 4.21274C75.2106 4.31192 75.5377 4.44888 75.8464 4.62104C75.8662 4.63236 75.8836 4.64746 75.8976 4.66551C75.9116 4.68355 75.9219 4.70416 75.9279 4.72618C75.9339 4.7482 75.9355 4.77119 75.9327 4.79383C75.9298 4.81648 75.9225 4.83833 75.9112 4.85816C75.8998 4.87798 75.8847 4.89538 75.8667 4.90936C75.8487 4.92334 75.828 4.93364 75.806 4.93965C75.784 4.94567 75.761 4.94729 75.7384 4.94442C75.7157 4.94155 75.6939 4.93425 75.674 4.92293C75.5341 4.84359 75.3892 4.77327 75.2403 4.71242L75.2114 4.72167C74.8951 4.79552 74.5904 4.91227 74.3057 5.06867C74.2812 5.08206 74.2538 5.08921 74.2259 5.08949L74.2213 5.08602ZM79.2042 4.9183C79.1881 4.91835 79.1721 4.91602 79.1568 4.91136C78.8404 4.8203 78.5186 4.74922 78.1933 4.69854C78.1473 4.69163 78.1059 4.66674 78.0782 4.62932C78.0506 4.5919 78.0389 4.54503 78.0458 4.49901C78.0527 4.45299 78.0776 4.41161 78.115 4.38395C78.1524 4.35629 78.1993 4.34463 78.2453 4.35154C78.5885 4.4042 78.9281 4.47837 79.262 4.57362C79.308 4.5799 79.3497 4.60422 79.3778 4.6412C79.4059 4.67818 79.4181 4.72481 79.4118 4.77083C79.4055 4.81684 79.3812 4.85847 79.3442 4.88657C79.3073 4.91466 79.2606 4.92691 79.2146 4.92062L79.2042 4.9183ZM77.1962 4.58981H77.1847C76.8528 4.56573 76.5199 4.56226 76.1876 4.5794C76.1648 4.58069 76.142 4.57748 76.1205 4.56996C76.0989 4.56243 76.0791 4.55073 76.062 4.53553C76.0277 4.50484 76.0069 4.46174 76.0043 4.41573C76.0017 4.36971 76.0174 4.32455 76.0481 4.29017C76.0788 4.25579 76.1219 4.23501 76.1679 4.2324C76.5149 4.21503 76.8625 4.21889 77.2089 4.24397C77.255 4.2455 77.2985 4.26525 77.3299 4.29887C77.3614 4.33249 77.3782 4.37723 77.3767 4.42325C77.3751 4.46926 77.3554 4.51279 77.3218 4.54424C77.2881 4.57569 77.2434 4.5925 77.1974 4.59097L77.1962 4.58981ZM70.7941 4.49265C70.7524 4.49237 70.7122 4.47712 70.6809 4.44966C70.6495 4.4222 70.6291 4.38438 70.6234 4.34312C70.6176 4.30185 70.6269 4.25989 70.6495 4.2249C70.6722 4.18992 70.7066 4.16425 70.7466 4.15259C71.0823 4.05855 71.4244 3.98935 71.7703 3.94555C71.8163 3.93987 71.8627 3.95271 71.8992 3.98123C71.9358 4.00976 71.9595 4.05163 71.9652 4.09765C71.9709 4.14366 71.958 4.19005 71.9295 4.2266C71.901 4.26315 71.8591 4.28687 71.8131 4.29255C71.4844 4.33398 71.1593 4.39971 70.8403 4.48918C70.8268 4.49334 70.8128 4.49567 70.7987 4.49612L70.7941 4.49265ZM73.8257 4.33303H73.8002C73.3977 4.27519 73.0623 4.26016 72.8818 4.25091H72.8032C72.7572 4.24937 72.7137 4.22962 72.6822 4.196C72.6508 4.16238 72.6339 4.11764 72.6355 4.07162C72.637 4.02561 72.6568 3.98208 72.6904 3.95063C72.724 3.91918 72.7687 3.90237 72.8148 3.90391H72.8992C73.2173 3.91599 73.5347 3.94417 73.85 3.98834C73.896 3.99156 73.9388 4.01293 73.9691 4.04775C73.9994 4.08256 74.0146 4.12797 74.0113 4.17399C74.0081 4.22 73.9867 4.26285 73.9519 4.29311C73.9171 4.32337 73.8717 4.33856 73.8257 4.33534V4.33303Z" fill="#99B9FF"/>
<path d="M82.4075 6.50761C82.371 6.50771 82.3354 6.49638 82.3057 6.47522C82.1634 6.37344 82.0211 6.27628 81.8823 6.18606C81.8455 6.16018 81.8202 6.12102 81.8117 6.07683C81.8032 6.03264 81.8122 5.98688 81.8369 5.9492C81.8615 5.91153 81.8997 5.8849 81.9436 5.87492C81.9875 5.86495 82.0335 5.87241 82.072 5.89573C82.2155 5.98827 82.3612 6.0889 82.5081 6.193C82.538 6.21436 82.5603 6.24465 82.5718 6.27951C82.5834 6.31437 82.5836 6.35199 82.5724 6.38697C82.5612 6.42194 82.5392 6.45247 82.5096 6.47415C82.48 6.49583 82.4442 6.50755 82.4075 6.50761Z" fill="#99B9FF"/>
</svg>
