<svg width="97" height="97" viewBox="0 0 97 97" fill="none" xmlns="http://www.w3.org/2000/svg">
<path d="M5.19361 30.4416C3.11168 35.0461 0.0408317 43.8585 1.27611 54.8268C2.86185 68.8948 10.713 79.9846 18.3491 86.2177C43.6897 106.898 90.0785 93.5379 96.2214 74.0569C97.3364 70.5222 97.0229 67.1171 96.6378 62.9197C95.4117 49.5792 88.952 45.6142 84.6088 31.4502C80.6555 18.5596 84.5533 17.108 80.8567 11.3781C72.8367 -1.05338 49.6879 -1.68027 33.76 4.27983C27.6415 6.56417 12.7903 13.5918 5.19361 30.4416Z" fill="#CADDFF"/>
<path d="M77.7262 40.4776L76.1728 35.2242L61.9995 33.9519L61.0742 41.0443C61.0742 41.0443 75.5945 44.1129 77.7262 40.4776Z" fill="#5479F7"/>
<path d="M50.4897 21.0405L52.5092 22.5592C52.2664 23.522 52.1054 24.5036 52.028 25.4935L49.6349 26.2928C49.0605 26.4852 48.5686 26.8671 48.2399 27.376C47.9112 27.8848 47.7652 28.4902 47.826 29.093C47.8865 29.6959 48.1505 30.2602 48.5745 30.6931C48.9985 31.126 49.5573 31.4015 50.1589 31.4745L52.6688 31.7798C52.9424 32.7327 53.2949 33.6612 53.7225 34.5557L52.0453 36.4491C51.6438 36.9029 51.4086 37.4797 51.3783 38.0849C51.348 38.69 51.5245 39.2875 51.8788 39.779C52.2329 40.2706 52.7437 40.627 53.3272 40.7897C53.9107 40.9524 54.5323 40.9117 55.0896 40.6743L57.4098 39.6865C58.1264 40.3766 58.9003 41.0045 59.723 41.5637L59.2118 44.0389C59.0909 44.6325 59.1756 45.2495 59.4517 45.7887C59.7279 46.3278 60.1793 46.757 60.7316 47.0057C61.2842 47.2545 61.905 47.3079 62.492 47.1569C63.0789 47.006 63.597 46.6598 63.9609 46.1752L65.4796 44.1546C66.4425 44.3972 67.424 44.5585 68.4139 44.6369L69.2132 47.0288C69.4043 47.6039 69.7855 48.0968 70.294 48.4264C70.8025 48.756 71.4081 48.9027 72.0111 48.8424C72.6138 48.7815 73.178 48.5173 73.6107 48.0934C74.0435 47.6694 74.3192 47.1109 74.3925 46.5095L74.6979 43.9996C75.6507 43.7257 76.5792 43.3733 77.4738 42.9459L79.3672 44.623C79.821 45.0246 80.3978 45.2598 81.003 45.2901C81.6081 45.3203 82.2056 45.1438 82.6971 44.7896C83.1887 44.4355 83.5451 43.9247 83.7078 43.3411C83.8705 42.7576 83.8298 42.1361 83.5924 41.5788L82.6046 39.2586C83.2941 38.544 83.9221 37.7725 84.4818 36.9523L86.9581 37.4565C87.5517 37.579 88.1693 37.4958 88.7094 37.2206C89.2494 36.9454 89.6797 36.4947 89.9295 35.9425C90.1779 35.39 90.231 34.7695 90.0801 34.1829C89.9291 33.5963 89.5832 33.0784 89.0991 32.7144L87.0796 31.1946C87.3224 30.2317 87.4833 29.2501 87.5607 28.2602L89.9538 27.461C90.5283 27.2687 91.0204 26.8868 91.3491 26.378C91.6779 25.8691 91.8237 25.2635 91.7628 24.6608C91.7019 24.058 91.4377 23.4939 91.0138 23.0611C90.5898 22.6283 90.0313 22.3526 89.4299 22.2793L86.92 21.9739C86.6461 21.0211 86.2937 20.0926 85.8663 19.198L87.5434 17.3046C87.9449 16.851 88.1801 16.2744 88.2103 15.6694C88.2406 15.0645 88.0641 14.4672 87.71 13.9758C87.3559 13.4843 86.8451 13.1279 86.2615 12.9652C85.678 12.8025 85.0565 12.8432 84.4992 13.0806L82.179 14.0684C81.4621 13.3787 80.6882 12.7507 79.8657 12.1912L80.3712 9.71482C80.4922 9.12123 80.4077 8.50411 80.1315 7.96493C79.8553 7.42575 79.4038 6.99661 78.8514 6.74807C78.2989 6.4993 77.6782 6.44588 77.0913 6.59659C76.5044 6.7473 75.9863 7.09318 75.622 7.57738L74.1034 9.59801C73.1406 9.35485 72.159 9.1935 71.169 9.11569L70.3698 6.72379C70.1778 6.14905 69.796 5.65674 69.2871 5.32777C68.7782 4.99881 68.1725 4.85277 67.5696 4.91366C66.9669 4.97477 66.4029 5.23898 65.9701 5.6629C65.5374 6.08682 65.2616 6.64527 65.1881 7.24658L64.8828 9.75762C63.9299 10.0311 63.0014 10.3831 62.1068 10.8102L60.2134 9.1261C59.7599 8.72419 59.1831 8.48861 58.5779 8.45813C57.9727 8.42765 57.3751 8.60408 56.8835 8.95839C56.392 9.31248 56.0356 9.82328 55.8729 10.4068C55.7102 10.9903 55.7509 11.6119 55.9883 12.1692L56.976 14.4894C56.286 15.206 55.658 15.9799 55.0988 16.8026L52.6225 16.2972C52.0288 16.1763 51.4116 16.2608 50.8722 16.537C50.3329 16.8132 49.9035 17.2646 49.6546 17.817C49.4083 18.3695 49.3568 18.9892 49.5085 19.5748C49.6602 20.1603 50.0061 20.6771 50.4897 21.0405ZM56.8754 21.059C58.026 18.5043 59.9082 16.348 62.2842 14.8629C64.6602 13.3779 67.4231 12.6306 70.2237 12.7158C73.0243 12.8009 75.7368 13.7145 78.0182 15.3411C80.2996 16.9677 82.0474 19.2343 83.0407 21.8542C84.034 24.4741 84.2282 27.3297 83.5986 30.06C82.9691 32.7902 81.5441 35.2725 79.5039 37.193C77.4637 39.1134 74.8998 40.3858 72.1365 40.8492C69.3732 41.3126 66.5345 40.9462 63.9794 39.7964C62.2825 39.0328 60.7526 37.9423 59.4771 36.5873C58.2017 35.2323 57.2057 33.6393 56.546 31.8993C55.8863 30.1593 55.5758 28.3064 55.6324 26.4464C55.6889 24.5864 56.1113 22.7558 56.8754 21.059Z" fill="#99B9FF"/>
<path d="M51.4596 30.6219C51.4596 30.6219 49.8739 30.6798 47.9146 30.6728C47.5016 30.6728 46.3959 29.3473 45.6857 29.5717C45.1757 29.7325 46.1403 30.6011 46.0073 30.6L43.2742 30.5884C42.9665 30.5884 42.8636 30.9018 42.9908 31.1817C43.1724 31.5831 43.5691 32.1892 44.2284 32.402C45.4035 32.7802 47.6717 32.609 48.3726 32.4737C49.2792 32.2952 50.1985 32.1881 51.1219 32.1533L51.4596 30.6219Z" fill="white"/>
<path d="M46.2592 32.8024C45.5086 32.8024 44.7313 32.7422 44.1773 32.563C43.3885 32.3097 42.9755 31.5602 42.8344 31.2502C42.7862 31.1533 42.7627 31.046 42.7659 30.9379C42.7691 30.8297 42.799 30.7241 42.8529 30.6302C42.8983 30.5606 42.961 30.5039 43.0347 30.4656C43.1085 30.4273 43.1909 30.4087 43.274 30.4116L45.6925 30.422C45.4704 30.1306 45.3061 29.8692 45.3767 29.6402C45.3957 29.5822 45.4292 29.53 45.4739 29.4886C45.5186 29.4471 45.5731 29.4177 45.6323 29.403C46.1505 29.2388 46.7531 29.6945 47.284 30.097C47.5061 30.2647 47.8103 30.4949 47.9132 30.4961C49.8459 30.503 51.4363 30.4452 51.4525 30.4452L51.6769 30.4371L51.2605 32.3212H51.124C50.2108 32.3564 49.3016 32.4624 48.4048 32.6381C47.6952 32.7511 46.9777 32.806 46.2592 32.8024ZM43.2728 30.7586C43.2478 30.7562 43.2226 30.7605 43.1999 30.7711C43.1771 30.7817 43.1576 30.7981 43.1433 30.8188C43.1207 30.8634 43.1089 30.9127 43.1089 30.9628C43.1089 31.0128 43.1207 31.0621 43.1433 31.1068C43.2659 31.3751 43.6198 32.0217 44.2767 32.2333C45.423 32.6023 47.6726 32.4276 48.3354 32.2992C49.2072 32.1305 50.0901 32.0242 50.9771 31.9812L51.2373 30.7991C50.7319 30.8141 49.4261 30.8488 47.9086 30.8431C47.69 30.8431 47.4309 30.6453 47.0712 30.3735C46.6536 30.0565 46.0811 29.624 45.7329 29.7338C45.7098 29.7419 45.7017 29.7477 45.7017 29.7489C45.6867 29.809 45.7931 29.9906 46.021 30.2844C46.1586 30.4614 46.228 30.5504 46.1701 30.6684C46.1548 30.6994 46.1311 30.7254 46.1016 30.7434C46.0721 30.7614 46.0381 30.7707 46.0036 30.7702L43.2693 30.7586H43.2728Z" fill="black"/>
<path d="M62.2009 17.0166C64.2389 16.6512 68.6155 16.3712 71.6771 16.6269C72.6142 16.7053 73.5035 17.0736 74.2217 17.6805C76.3314 19.4606 81.1222 23.695 81.4599 28.9207C81.4684 29.0677 81.4413 29.2146 81.3809 29.3489C81.3205 29.4832 81.2286 29.601 81.1129 29.6921L81.0724 29.4608C79.9158 30.378 78.448 30.5527 77.3354 29.5869L76.3441 28.857C76.3441 28.857 78.0478 34.9617 77.931 35.9437C77.8142 36.9257 74.8278 38.5935 71.093 37.2241C68.1008 36.1276 64.055 36.0166 61.67 36.6342C61.6307 36.6435 61.5277 37.7214 61.4896 37.7318C61.3098 37.77 61.1225 37.751 60.954 37.6775C60.7437 37.5953 60.5624 37.4525 60.4333 37.2672C60.3042 37.0818 60.233 36.8623 60.2288 36.6365L60.0738 29.6968L55.0078 28.7206C55.0078 28.7206 57.4564 17.8656 62.2009 17.0166Z" fill="black"/>
<path d="M84.1191 18.9018C84.0612 19.1875 82.7311 26.4118 82.1274 27.8657C81.5097 29.3531 80.9418 31.2049 78.2527 30.179C74.2368 28.6488 81.342 19.0522 81.7607 18.408C81.7746 18.3895 84.1202 18.8949 84.1191 18.9018Z" fill="black"/>
<path d="M48.1963 32.5595L48.1836 30.8535C48.1828 30.7712 48.1986 30.6896 48.23 30.6136C48.2614 30.5375 48.3078 30.4686 48.3664 30.4108C48.425 30.3531 48.4946 30.3077 48.5711 30.2775C48.6476 30.2472 48.7294 30.2326 48.8117 30.2347C50.1927 30.2694 53.4532 30.1572 54.7105 28.4188C55.7676 26.9579 56.0892 25.2033 56.0892 25.2033C56.0892 25.2033 61.4247 24.4006 62.3454 28.7264C63.65 34.8623 51.4361 33.5287 48.7261 33.1598C48.5804 33.1401 48.4467 33.0685 48.3494 32.9583C48.2521 32.8481 48.1978 32.7065 48.1963 32.5595Z" fill="black"/>
<path d="M82.2313 18.6256L82.0693 16.4384C82.0693 16.4384 81.9675 14.7636 82.3007 14.4513C82.5412 14.22 82.879 14.7636 83.0189 15.5247C83.0256 15.5492 83.0401 15.5708 83.0603 15.5862C83.0805 15.6017 83.1052 15.61 83.1305 15.61C83.1559 15.61 83.1806 15.6017 83.2008 15.5862C83.221 15.5708 83.2355 15.5492 83.2422 15.5247C83.3221 15.0736 83.3465 14.6145 83.315 14.1575C83.2861 13.6093 83.182 12.6424 83.6979 12.6204C84.2137 12.5984 85.4062 13.9413 85.1228 15.564C84.8395 17.1868 83.6527 18.9402 83.6527 18.9402L82.2313 18.6256Z" fill="white"/>
<path d="M83.6503 19.1078C83.638 19.1095 83.6256 19.1095 83.6133 19.1078L82.1872 18.7943C82.1508 18.7864 82.1179 18.7669 82.0935 18.7388C82.0691 18.7106 82.0545 18.6753 82.0519 18.6382L81.8899 16.451C81.8645 16.0369 81.8101 14.6675 82.1687 14.3263C82.2134 14.2821 82.2694 14.2509 82.3305 14.236C82.3916 14.2211 82.4556 14.2231 82.5157 14.2418C82.7898 14.3321 82.9899 14.7519 83.1055 15.1752C83.1445 14.8409 83.1526 14.5037 83.1298 14.1678L83.1217 14.029C83.0905 13.5317 83.0535 12.9106 83.3218 12.6133C83.3669 12.5631 83.4217 12.5225 83.483 12.4941C83.5442 12.4656 83.6106 12.4499 83.6781 12.4479C83.9256 12.4375 84.2414 12.6284 84.5421 12.9707C84.8487 13.3281 85.0736 13.7481 85.2013 14.2013C85.3289 14.6546 85.3562 15.1302 85.2812 15.5951C84.9955 17.2364 83.8377 18.9586 83.788 19.0314C83.7727 19.0542 83.7523 19.073 83.7284 19.0862C83.7044 19.0995 83.6777 19.1069 83.6503 19.1078ZM82.3931 18.4832L83.5705 18.7388C83.8169 18.3525 84.7098 16.8882 84.9458 15.5361C85.0126 15.1222 84.9882 14.6986 84.8743 14.2951C84.7604 13.8915 84.5598 13.5177 84.2865 13.1997C84.0413 12.9198 83.8146 12.7949 83.7081 12.7949H83.7024C83.6805 12.7942 83.6588 12.7985 83.6388 12.8073C83.6188 12.8161 83.601 12.8292 83.5867 12.8458C83.4155 13.0355 83.4525 13.645 83.4711 14.0082L83.4791 14.1493C83.5117 14.6191 83.4864 15.091 83.404 15.5546C83.3937 15.6215 83.3596 15.6825 83.3079 15.7262C83.2563 15.77 83.1906 15.7937 83.1229 15.7929C83.0552 15.7938 82.9895 15.7703 82.9377 15.7268C82.8859 15.6832 82.8515 15.6226 82.8407 15.5558C82.725 14.8977 82.4856 14.5854 82.4104 14.5715C82.245 14.7357 82.193 15.661 82.2392 16.4221L82.3931 18.4832Z" fill="black"/>
<path d="M63.959 12.4954C63.627 12.3439 63.4558 12.5949 62.962 12.5266C62.6726 12.4822 62.3995 12.3643 62.1687 12.1843C61.9379 12.0043 61.757 11.7682 61.6434 11.4984C61.382 10.8114 61.7591 10.1579 61.9904 9.74495C62.2217 9.33203 62.5282 8.87863 63.0499 8.68085C63.73 8.42408 64.0145 8.81849 64.7941 8.57675C65.4279 8.37897 65.3816 8.07362 65.9449 7.91401C66.4156 7.77984 67.7701 7.85617 68.0731 8.57675C68.2651 9.03362 67.8499 9.31121 68.0569 9.989C68.1807 10.395 68.3761 10.4447 68.5196 10.7582C68.8735 11.5377 68.4305 12.9049 67.5873 13.3629C66.448 13.9851 64.5304 12.7545 63.959 12.4954Z" fill="black"/>
<path d="M65.0127 13.8012L64.7467 15.9849C64.7219 16.1882 64.6367 16.3793 64.502 16.5336C64.3674 16.6878 64.1895 16.7981 63.9914 16.8501L62.8672 17.1427L63.0257 17.2584C63.9761 17.9822 65.1374 18.3746 66.3321 18.3757C67.5267 18.3767 68.6887 17.9863 69.6404 17.2642L70.2187 16.8235L68.8227 16.5112C68.6265 16.4674 68.4477 16.3667 68.3085 16.2216C68.1694 16.0765 68.0763 15.8936 68.0408 15.6958L67.4625 12.478L65.0127 13.8012Z" fill="white"/>
<path d="M66.3347 18.5491C65.1007 18.5509 63.9004 18.1474 62.918 17.4006L62.7607 17.2849C62.7346 17.2654 62.7145 17.2389 62.7028 17.2085C62.6911 17.178 62.6884 17.1449 62.6948 17.1129C62.7012 17.0809 62.7166 17.0514 62.7391 17.0278C62.7616 17.0042 62.7904 16.9875 62.822 16.9796L63.9451 16.687C64.1099 16.6446 64.2581 16.5533 64.37 16.4251C64.4819 16.2969 64.5523 16.1378 64.572 15.9687L64.838 13.785C64.8413 13.7574 64.8512 13.7309 64.8669 13.708C64.8826 13.685 64.9037 13.6662 64.9282 13.6531L67.3791 12.3346C67.4036 12.322 67.4308 12.3154 67.4584 12.3154C67.4859 12.3154 67.5131 12.322 67.5376 12.3346C67.5623 12.3465 67.5838 12.3642 67.6003 12.3861C67.6168 12.4081 67.6278 12.4336 67.6324 12.4607L68.2107 15.6784C68.2399 15.8427 68.3172 15.9946 68.4326 16.115C68.5481 16.2355 68.6967 16.319 68.8596 16.355L70.2545 16.6661C70.2868 16.6735 70.3164 16.6899 70.3398 16.7135C70.3631 16.737 70.3793 16.7668 70.3864 16.7992C70.3937 16.8314 70.3915 16.8651 70.38 16.8961C70.3685 16.9272 70.3482 16.9542 70.3216 16.9738L69.7433 17.4156C68.7612 18.1553 67.5641 18.5533 66.3347 18.5491ZM63.2569 17.2202C64.1767 17.8742 65.2809 18.2181 66.4094 18.2021C67.5379 18.1861 68.6319 17.811 69.5328 17.1311L69.8161 16.9148L68.7856 16.6835C68.5561 16.6326 68.3467 16.515 68.1839 16.3454C68.0211 16.1758 67.9121 15.9618 67.8707 15.7304L67.334 12.7475L65.1723 13.9041L64.9167 15.9999C64.8885 16.2379 64.7891 16.4618 64.6314 16.6422C64.4736 16.8226 64.2651 16.9511 64.033 17.0108L63.2569 17.2202Z" fill="black"/>
<path d="M67.183 12.9256C67.183 12.9256 68.0459 12.6006 67.722 11.8847C67.3982 11.1687 66.8707 11.6973 66.8707 11.6973C66.8707 11.6973 66.3815 9.94268 65.3521 10.6343C64.7363 11.0499 64.0603 11.3682 63.3477 11.5782C63.3477 11.5782 63.7097 13.3455 64.3609 14.5206C64.753 15.2296 65.2515 15.7235 65.8379 15.4852C67.4433 14.8329 67.183 12.9222 67.183 12.9222V12.9256Z" fill="white"/>
<path d="M65.5448 15.7234C65.1631 15.7234 64.6912 15.477 64.2112 14.6096C63.5542 13.424 63.1945 11.6914 63.1795 11.6185C63.1703 11.5749 63.1783 11.5294 63.2018 11.4915C63.2253 11.4536 63.2624 11.4262 63.3056 11.415C63.9987 11.2094 64.6566 10.8997 65.2568 10.4966C65.5436 10.3034 65.8258 10.256 66.0942 10.3555C66.5568 10.5255 66.8356 11.1015 66.9617 11.4277C67.0879 11.356 67.2346 11.3291 67.378 11.3514C67.5885 11.3907 67.7586 11.5468 67.8812 11.814C67.9342 11.9175 67.9644 12.0311 67.9696 12.1473C67.9748 12.2635 67.9549 12.3794 67.9113 12.4872C67.7971 12.7246 67.6053 12.916 67.3676 13.0296C67.3919 13.4923 67.3676 15.0549 65.9045 15.6471C65.7906 15.6954 65.6685 15.7213 65.5448 15.7234ZM63.5531 11.7041C63.6583 12.1575 63.9949 13.5027 64.5142 14.4407C64.9341 15.1995 65.3586 15.4979 65.7738 15.329C67.2323 14.7368 67.023 13.0215 67.0137 12.9498C67.0088 12.9102 67.0176 12.8702 67.0387 12.8363C67.0597 12.8024 67.0917 12.7768 67.1294 12.7636C67.1375 12.7636 67.4879 12.6225 67.592 12.3565C67.6159 12.2924 67.6259 12.224 67.6214 12.1558C67.6168 12.0876 67.5977 12.0212 67.5654 11.9609C67.5157 11.8452 67.4313 11.7134 67.3156 11.6914C67.256 11.6914 67.1969 11.7032 67.1419 11.7262C67.0869 11.7493 67.037 11.783 66.9952 11.8256C66.9737 11.8468 66.9471 11.8621 66.9179 11.8699C66.8887 11.8777 66.858 11.8778 66.8288 11.8701C66.7996 11.8624 66.7729 11.8472 66.7514 11.826C66.7298 11.8048 66.7142 11.7783 66.706 11.7492C66.6355 11.5006 66.3683 10.8239 65.9739 10.6793C65.8848 10.6518 65.7902 10.6469 65.6987 10.665C65.6073 10.6832 65.5217 10.7239 65.4499 10.7834C64.8635 11.177 64.2251 11.4869 63.5531 11.7041Z" fill="black"/>
<path d="M60.0757 29.8702H60.0572C60.0115 29.8652 59.9696 29.8423 59.9408 29.8066C59.9119 29.7708 59.8985 29.725 59.9033 29.6793C60.3116 25.8173 60.8888 22.5522 60.8946 22.5198C60.9043 22.4762 60.9306 22.438 60.9679 22.4132C61.0051 22.3885 61.0505 22.3791 61.0945 22.387C61.1385 22.3949 61.1778 22.4195 61.2041 22.4557C61.2304 22.4918 61.2418 22.5368 61.2358 22.5811C61.2358 22.6135 60.6575 25.8671 60.248 29.7163C60.2432 29.7587 60.2229 29.7977 60.1912 29.8261C60.1594 29.8545 60.1183 29.8701 60.0757 29.8702Z" fill="white"/>
<path d="M18.4709 77.6863L19.491 78.2299C19.4504 78.6827 19.4473 79.138 19.4818 79.5913L18.4582 80.1256C18.2134 80.2531 18.019 80.4596 17.9066 80.7116C17.7943 80.9637 17.7706 81.2463 17.8394 81.5136C17.9098 81.7816 18.0693 82.0178 18.2917 82.1832C18.5141 82.3486 18.7861 82.4335 19.0631 82.4238L20.2197 82.3845C20.4113 82.796 20.6365 83.1909 20.8929 83.5654L20.2694 84.5393C20.1189 84.7726 20.0522 85.0502 20.0803 85.3264C20.1085 85.6026 20.2298 85.861 20.4244 86.0591C20.6194 86.2562 20.8756 86.3811 21.151 86.4132C21.4263 86.4454 21.7045 86.3829 21.9396 86.2361L22.9181 85.6254C23.2905 85.886 23.6839 86.115 24.0944 86.3101L24.0412 87.4667C24.0287 87.7436 24.1108 88.0165 24.2739 88.2405C24.437 88.4646 24.6715 88.6265 24.9387 88.6997C25.2061 88.7727 25.4903 88.7527 25.7448 88.643C25.9993 88.5333 26.2089 88.3404 26.3394 88.0959L26.883 87.0746C27.3357 87.1164 27.7912 87.1195 28.2444 87.0839L28.7753 88.1087C28.9025 88.3537 29.109 88.5483 29.3611 88.6609C29.6131 88.7735 29.8959 88.7973 30.1632 88.7286C30.4313 88.6582 30.6674 88.4987 30.8328 88.2763C30.9983 88.0539 31.0831 87.7819 31.0735 87.5049L31.0342 86.3483C31.4482 86.1582 31.8455 85.9338 32.222 85.6774L33.1959 86.3009C33.4295 86.4503 33.7071 86.5158 33.9829 86.4866C34.2586 86.4574 34.5163 86.3352 34.7134 86.1401C34.9104 85.9453 35.0352 85.6893 35.0674 85.4141C35.0996 85.1389 35.0371 84.861 34.8904 84.6261L34.2797 83.6464C34.54 83.2743 34.769 82.8812 34.9644 82.4713L36.121 82.5233C36.3979 82.5358 36.6707 82.4537 36.8948 82.2906C37.1189 82.1275 37.2808 81.8931 37.354 81.6258C37.427 81.3584 37.407 81.0742 37.2973 80.8197C37.1876 80.5652 36.9947 80.3556 36.7502 80.2251L35.7289 79.6815C35.7707 79.2292 35.7738 78.7741 35.7382 78.3213L36.763 77.7904C37.0078 77.663 37.2023 77.4565 37.3149 77.2045C37.4274 76.9525 37.4514 76.6698 37.3829 76.4024C37.3127 76.1342 37.1533 75.8978 36.9309 75.7321C36.7085 75.5665 36.4363 75.4815 36.1592 75.491L35.0026 75.5315C34.8117 75.1197 34.5865 74.7247 34.3294 74.3506L34.9528 73.3755C35.1022 73.1421 35.1677 72.8648 35.1385 72.5892C35.1092 72.3136 34.9871 72.0561 34.7921 71.8592C34.5971 71.6621 34.341 71.5372 34.0657 71.5048C33.7903 71.4724 33.5122 71.5346 33.2769 71.6811L32.2984 72.2929C31.9266 72.0321 31.5335 71.8031 31.1232 71.6082L31.1753 70.4516C31.1877 70.1747 31.1057 69.9019 30.9426 69.6778C30.7795 69.4538 30.545 69.2918 30.2777 69.2186C30.0104 69.1452 29.726 69.165 29.4714 69.2747C29.2168 69.3844 29.0072 69.5776 28.8771 69.8224L28.3334 70.8437C27.8811 70.8021 27.4261 70.7986 26.9733 70.8333L26.4424 69.8085C26.3149 69.5637 26.1084 69.3693 25.8563 69.257C25.6043 69.1446 25.3216 69.1209 25.0544 69.1897C24.786 69.2597 24.5495 69.4191 24.3838 69.6415C24.2182 69.864 24.1332 70.1362 24.143 70.4134L24.1835 71.5701C23.7719 71.7614 23.3769 71.9866 23.0026 72.2432L22.0275 71.6198C21.7941 71.4704 21.5167 71.4049 21.2411 71.4342C20.9655 71.4634 20.7081 71.5855 20.5112 71.7806C20.3141 71.9755 20.1891 72.2316 20.1568 72.507C20.1244 72.7823 20.1866 73.0604 20.333 73.2957L20.9449 74.2742C20.6835 74.646 20.4544 75.0396 20.2602 75.4505L19.1036 75.3985C18.8267 75.3857 18.5536 75.4675 18.3294 75.6304C18.1051 75.7933 17.9429 76.0276 17.8694 76.2949C17.7983 76.5606 17.819 76.8426 17.9282 77.0952C18.0373 77.3477 18.2286 77.556 18.4709 77.6863ZM21.3625 77.2422C21.7017 76.0073 22.3995 74.9008 23.3674 74.0623C24.3354 73.2239 25.5302 72.6912 26.8008 72.5316C28.0714 72.372 29.3609 72.5927 30.5061 73.1656C31.6514 73.7386 32.6011 74.6382 33.2353 75.7508C33.8694 76.8633 34.1596 78.1389 34.069 79.4163C33.9784 80.6937 33.5112 81.9156 32.7265 82.9275C31.9417 83.9395 30.8745 84.6961 29.6599 85.1018C28.4452 85.5075 27.1376 85.544 25.9022 85.2067C25.0805 84.9828 24.311 84.5991 23.6377 84.0774C22.9645 83.5558 22.4007 82.9065 21.9787 82.1667C21.5567 81.4269 21.2848 80.6112 21.1784 79.7661C21.0721 78.9211 21.1334 78.0634 21.359 77.2422H21.3625Z" fill="#5479F7"/>
<path d="M33.1874 78.9773C33.1865 77.8634 32.8554 76.7748 32.2359 75.8491C31.6164 74.9234 30.7364 74.2022 29.707 73.7766C28.6777 73.3509 27.5453 73.2401 26.4529 73.4579C25.3606 73.6758 24.3573 74.2126 23.5701 75.0006C22.7828 75.7885 22.2467 76.7922 22.0298 77.8847C21.8128 78.9772 21.9246 80.1096 22.3511 81.1385C22.7776 82.1675 23.4995 83.047 24.4257 83.6657C25.3519 84.2844 26.4408 84.6147 27.5547 84.6147C28.2947 84.6145 29.0275 84.4686 29.7111 84.1852C30.3948 83.9017 31.0158 83.4864 31.5389 82.9629C32.062 82.4394 32.4768 81.818 32.7597 81.1341C33.0425 80.4502 33.1879 79.7173 33.1874 78.9773Z" fill="white"/>
<path d="M31.5186 83.0762C30.468 84.0686 29.0776 84.6215 27.6324 84.6215C26.1871 84.6215 24.7967 84.0686 23.7461 83.0762C26.2816 82.319 28.9831 82.319 31.5186 83.0762Z" fill="#5479F7"/>
<path d="M25.8191 75.6843C26.0743 75.5197 26.3714 75.4321 26.6751 75.4321H28.462C28.8615 75.4323 29.2462 75.5836 29.5389 75.8555L29.636 75.9457C29.8635 76.1567 30.0238 76.43 30.097 76.7315C30.1702 77.033 30.1531 77.3494 30.0478 77.6413L29.4602 79.2721L25.6919 79.2478L25.1599 77.4655C25.0618 77.1372 25.0731 76.786 25.192 76.4648C25.3109 76.1435 25.531 75.8696 25.8191 75.6843Z" fill="black"/>
<path d="M26.7497 76.3957L26.774 76.3853L29.4782 78.1422V79.2005C29.4783 79.4881 29.4132 79.772 29.2878 80.0308C29.1624 80.2897 28.9799 80.5167 28.7541 80.6949V82.3141C28.7541 82.6209 28.6323 82.9151 28.4154 83.132C28.1985 83.3489 27.9043 83.4708 27.5975 83.4708C27.2908 83.4708 26.9966 83.3489 26.7797 83.132C26.5627 82.9151 26.4409 82.6209 26.4409 82.3141V80.7411C26.1989 80.5647 26.0021 80.3336 25.8664 80.0667C25.7308 79.7998 25.6601 79.5045 25.6602 79.2051V78.0809C25.6605 77.7249 25.7634 77.3767 25.9567 77.0778C26.1499 76.7789 26.4253 76.542 26.7497 76.3957Z" fill="white"/>
<path d="M27.5702 81.2824C27.018 81.2824 26.4885 81.0631 26.0981 80.6726C25.7076 80.2822 25.4883 79.7526 25.4883 79.2005V78.0762C25.4889 77.5414 25.7016 77.0287 26.0798 76.6506C26.4579 76.2724 26.9706 76.0597 27.5054 76.0591H29.4717C29.5177 76.0591 29.5618 76.0774 29.5944 76.1099C29.6269 76.1424 29.6452 76.1866 29.6452 76.2326V79.2005C29.6452 79.5999 29.5302 79.991 29.3141 80.3269C29.0979 80.6628 28.7896 80.9295 28.4261 81.095C28.4054 81.1045 28.383 81.1098 28.3602 81.1107C28.3374 81.1115 28.3147 81.1079 28.2933 81.0999C28.2719 81.092 28.2523 81.0799 28.2356 81.0644C28.2189 81.0488 28.2054 81.0302 28.1959 81.0094C28.1864 80.9887 28.1811 80.9663 28.1803 80.9435C28.1795 80.9207 28.1831 80.898 28.1911 80.8766C28.199 80.8553 28.2111 80.8357 28.2266 80.819C28.2421 80.8023 28.2608 80.7888 28.2815 80.7793C28.5846 80.6414 28.8417 80.4193 29.0219 80.1393C29.2022 79.8594 29.2981 79.5335 29.2982 79.2005V76.4072H27.4997C27.0569 76.4078 26.6324 76.584 26.3193 76.8971C26.0063 77.2102 25.8301 77.6346 25.8295 78.0774V79.2005C25.8295 79.6606 26.0123 80.1019 26.3376 80.4273C26.663 80.7526 27.1043 80.9354 27.5644 80.9354C27.6104 80.9354 27.6546 80.9537 27.6871 80.9862C27.7196 81.0188 27.7379 81.0629 27.7379 81.1089C27.7379 81.1549 27.7196 81.1991 27.6871 81.2316C27.6546 81.2641 27.6104 81.2824 27.5644 81.2824H27.5702Z" fill="black"/>
<path d="M27.6332 84.7916C26.8366 84.7906 26.0485 84.6266 25.3176 84.3097C24.5867 83.9928 23.9283 83.5297 23.383 82.9489C22.8377 82.3681 22.4171 81.6818 22.1469 80.9324C21.8767 80.1829 21.7627 79.3861 21.8119 78.5909C21.8147 78.5449 21.8356 78.5019 21.8701 78.4713C21.8872 78.4562 21.9071 78.4445 21.9287 78.4371C21.9502 78.4296 21.9731 78.4265 21.9958 78.4279C22.0186 78.4292 22.0409 78.4351 22.0615 78.445C22.082 78.455 22.1003 78.469 22.1155 78.486C22.1306 78.5031 22.1423 78.523 22.1497 78.5446C22.1572 78.5661 22.1603 78.589 22.1589 78.6118C22.1096 79.3948 22.2286 80.1793 22.5079 80.9125C22.7872 81.6458 23.2204 82.3106 23.7782 82.8624C24.8152 83.8852 26.2161 84.4543 27.6726 84.4443C29.1292 84.4343 30.5221 83.8461 31.545 82.8092C32.5678 81.7722 33.1369 80.3713 33.1269 78.9148C33.1169 77.4582 32.5287 76.0653 31.4918 75.0424C30.4987 74.0658 29.1721 73.5023 27.7798 73.4656C26.3875 73.4289 25.033 73.9217 23.9899 74.8446C23.9555 74.8753 23.9104 74.8911 23.8644 74.8885C23.8184 74.8859 23.7753 74.8651 23.7447 74.8307C23.714 74.7964 23.6982 74.7512 23.7008 74.7053C23.7034 74.6593 23.7242 74.6162 23.7585 74.5855C24.4644 73.959 25.3116 73.5128 26.2275 73.2854C27.1435 73.0579 28.101 73.0559 29.0179 73.2795C29.9349 73.5031 30.7839 73.9456 31.4924 74.5692C32.2008 75.1928 32.7475 75.9789 33.0857 76.86C33.4239 77.7411 33.5434 78.6911 33.434 79.6286C33.3246 80.566 32.9896 81.463 32.4577 82.2426C31.9258 83.0222 31.2128 83.6613 30.3798 84.105C29.5468 84.5488 28.6187 84.784 27.6749 84.7905L27.6332 84.7916Z" fill="black"/>
<path d="M27.5946 83.6396C27.2422 83.6393 26.9044 83.4991 26.6552 83.25C26.406 83.0008 26.2659 82.663 26.2656 82.3106V80.7781C26.2656 80.7321 26.2839 80.6879 26.3164 80.6554C26.349 80.6228 26.3931 80.6046 26.4391 80.6046C26.4851 80.6046 26.5293 80.6228 26.5618 80.6554C26.5943 80.6879 26.6126 80.7321 26.6126 80.7781V82.3106C26.6126 82.5713 26.7162 82.8214 26.9006 83.0058C27.0849 83.1901 27.335 83.2937 27.5957 83.2937C27.8565 83.2937 28.1066 83.1901 28.2909 83.0058C28.4753 82.8214 28.5789 82.5713 28.5789 82.3106V80.6913C28.5789 80.6453 28.5972 80.6012 28.6297 80.5686C28.6622 80.5361 28.7064 80.5178 28.7524 80.5178C28.7984 80.5178 28.8425 80.5361 28.8751 80.5686C28.9076 80.6012 28.9259 80.6453 28.9259 80.6913V82.3106C28.9257 82.4853 28.8912 82.6582 28.8242 82.8195C28.7572 82.9808 28.6591 83.1274 28.5355 83.2508C28.4118 83.3742 28.2651 83.472 28.1037 83.5387C27.9423 83.6055 27.7693 83.6397 27.5946 83.6396Z" fill="black"/>
<path d="M78.9089 62.2685C78.5758 61.7673 78.0821 61.3943 77.5089 61.2108C76.9357 61.0273 76.3171 61.0442 75.7548 61.2587L73.4092 62.154C72.7297 61.4402 71.9911 60.7851 71.2012 60.1958L71.7945 57.7669C71.9381 57.1816 71.8781 56.5648 71.6243 56.0182C71.3706 55.4716 70.9382 55.0277 70.3985 54.7596C69.8593 54.4909 69.2446 54.414 68.6558 54.5417C68.0671 54.6693 67.5394 54.9938 67.1599 55.4617L65.5742 57.4106C64.6282 57.1359 63.661 56.9405 62.6826 56.8265L61.9771 54.4161C61.8081 53.8384 61.4477 53.3353 60.955 52.9896C60.4623 52.6438 59.8667 52.4759 59.2659 52.5135C58.6654 52.5513 58.0955 52.7924 57.6501 53.197C57.2047 53.6016 56.9102 54.1458 56.815 54.74L56.4172 57.2129C55.4597 57.45 54.5238 57.7669 53.6193 58.1601L51.8034 56.4252C51.3685 56.0095 50.805 55.7541 50.2057 55.7012C49.6064 55.6482 49.0069 55.8007 48.5058 56.1337C48.0047 56.4667 47.6318 56.9602 47.4483 57.5332C47.2648 58.1062 47.2816 58.7246 47.4961 59.2867L48.3913 61.6335C47.6779 62.3146 47.0229 63.0543 46.4331 63.845L44.0042 63.2516C43.4188 63.1083 42.8021 63.1686 42.2555 63.4226C41.7089 63.6765 41.265 64.109 40.997 64.6488C40.7285 65.188 40.6517 65.8027 40.7793 66.3914C40.907 66.9801 41.2314 67.5077 41.6991 67.8874L43.648 69.472C43.3759 70.4182 43.1825 71.3854 43.0697 72.3635L40.65 73.0702C40.0723 73.2391 39.5692 73.5996 39.2234 74.0923C38.8777 74.585 38.7098 75.1806 38.7474 75.7814C38.7852 76.3821 39.0262 76.9521 39.4308 77.3977C39.8354 77.8433 40.3796 78.138 40.9739 78.2334L43.4421 78.622C43.6791 79.5799 43.9959 80.5162 44.3894 81.4211L42.6544 83.2358C42.2388 83.671 41.9836 84.2346 41.9306 84.8341C41.8776 85.4335 42.0301 86.0332 42.363 86.5345C42.6958 87.0358 43.1892 87.409 43.7622 87.5927C44.3352 87.7765 44.9537 87.7598 45.516 87.5454L47.8627 86.6502C48.5436 87.3635 49.2833 88.0182 50.0742 88.6072L49.4809 91.0361C49.3376 91.6215 49.3979 92.2383 49.6518 92.7849C49.9058 93.3315 50.3383 93.7753 50.8781 94.0434C51.4174 94.3112 52.0319 94.3876 52.6204 94.2601C53.209 94.1325 53.7366 93.8085 54.1166 93.3413L55.7012 91.3924C56.6475 91.6645 57.6146 91.858 58.5928 91.9707L59.2983 94.3811C59.4669 94.9587 59.8271 95.4618 60.3196 95.8074C60.8122 96.153 61.4078 96.3206 62.0083 96.2826C62.6089 96.245 63.1789 96.0043 63.6245 95.5998C64.0701 95.1954 64.3649 94.6514 64.4603 94.0572L64.8571 91.5832C65.8151 91.3472 66.7514 91.0307 67.6561 90.6371L69.4709 92.372C69.9061 92.7876 70.4697 93.0429 71.0691 93.0959C71.6686 93.1488 72.2682 92.9964 72.7696 92.6635C73.2711 92.3306 73.6445 91.837 73.8282 91.2637C74.012 90.6905 73.9951 90.0718 73.7805 89.5094L72.8887 87.1811C73.6024 86.4998 74.2574 85.7597 74.8469 84.9684L77.2758 85.5618C77.8611 85.7054 78.4778 85.6454 79.0244 85.3916C79.5711 85.1378 80.015 84.7055 80.283 84.1657C80.5509 83.6264 80.6273 83.0119 80.4997 82.4234C80.3721 81.8348 80.0481 81.3072 79.5809 80.9272L77.632 79.3415C77.9062 78.3954 78.1016 77.4282 78.2161 76.4499L80.6265 75.7443C81.2043 75.5756 81.7073 75.2151 82.0529 74.7224C82.3985 74.2296 82.5661 73.6339 82.528 73.0332C82.4904 72.4327 82.2496 71.8629 81.8452 71.4175C81.4407 70.9721 80.8967 70.6775 80.3027 70.5823L77.8287 70.1786C77.5925 69.2211 77.276 68.2852 76.8825 67.3808L78.6175 65.5649C79.0325 65.1298 79.2874 64.5666 79.3404 63.9677C79.3934 63.3688 79.2412 62.7696 78.9089 62.2685ZM68.4253 86.1262C66.1071 87.6669 63.3841 88.4854 60.6007 88.4784C57.8173 88.4714 55.0985 87.6392 52.7881 86.087C50.4777 84.5347 48.6795 82.3322 47.6209 79.758C46.5623 77.1837 46.2908 74.3534 46.8409 71.6248C47.3909 68.8963 48.7377 66.3922 50.711 64.4291C52.6843 62.4661 55.1954 61.1322 57.9267 60.5964C60.6581 60.0605 63.487 60.3466 66.0557 61.4186C68.6244 62.4905 70.8176 64.3001 72.3578 66.6185C74.4229 69.727 75.1687 73.5284 74.4312 77.1868C73.6938 80.8451 71.5334 84.0606 68.4253 86.1262Z" fill="white"/>
<path d="M60.5777 57.4835C60.5777 57.4835 56.8013 55.7636 55.5337 55.4918C54.266 55.22 52.1008 53.1034 55.152 50.361C56.1409 49.4727 55.9049 47.9934 58.0528 47.0172C60.2007 46.041 62.4237 46.5615 63.1269 47.887C63.8302 49.2125 62.8956 50.8676 61.9587 51.3569C61.0219 51.8461 60.5777 57.4835 60.5777 57.4835Z" fill="black"/>
<path d="M64.5202 52.5215L64.6821 51.9709L62.9379 50.8062L61.4158 49.0227C58.9869 49.6461 58.2489 50.6096 58.8192 52.4428C59.1858 53.618 58.5797 53.8493 58.5797 53.8493C58.5797 53.8493 57.3549 53.175 57.2681 54.4831C57.1814 55.7913 59.3894 55.9521 59.3894 55.9521C59.5997 56.1725 59.7463 56.4458 59.8137 56.743C59.8812 57.0401 59.8668 57.35 59.7722 57.6396L57.8684 63.4701C57.8684 63.4701 64.9134 63.0457 64.6439 62.0012C64.571 61.7288 64.4022 61.4918 64.1686 61.3339C63.086 60.5635 63.5266 57.3678 63.5266 57.3678L65.4004 55.7797C65.5661 55.6392 65.6737 55.4422 65.7026 55.2268C65.7314 55.0114 65.6794 54.793 65.5565 54.6138L64.6428 53.2837C64.5674 53.1736 64.5174 53.0481 64.4962 52.9163C64.475 52.7846 64.4832 52.6497 64.5202 52.5215Z" fill="white"/>
<path d="M57.8655 63.6484C57.8388 63.6485 57.8125 63.6423 57.7887 63.6305C57.7648 63.6186 57.744 63.6014 57.7279 63.5802C57.7108 63.5577 57.6993 63.5315 57.6945 63.5038C57.6897 63.476 57.6916 63.4474 57.7001 63.4206L59.6039 57.5842C59.6864 57.3349 59.7022 57.0683 59.6496 56.811C59.597 56.5537 59.478 56.3146 59.3043 56.1176C58.9042 56.076 57.0038 55.8088 57.0929 54.4717C57.1206 54.0368 57.271 53.7431 57.5359 53.5973C57.9037 53.3972 58.3721 53.5638 58.5676 53.6517C58.6763 53.5626 58.8937 53.2735 58.6508 52.495C58.3825 51.631 58.3987 50.9463 58.7029 50.4004C59.0857 49.7145 59.9335 49.2241 61.3701 48.8551C61.4015 48.8467 61.4346 48.8475 61.4655 48.8574C61.4965 48.8672 61.524 48.8857 61.5447 48.9107L63.0483 50.6757L64.7729 51.8323C64.8038 51.8526 64.8274 51.8824 64.8401 51.9172C64.8528 51.952 64.854 51.99 64.8434 52.0255L64.6815 52.576C64.6506 52.6801 64.6433 52.7899 64.6604 52.8971C64.6774 53.0044 64.7182 53.1065 64.7798 53.196L65.6936 54.5261C65.8416 54.7405 65.9045 55.0024 65.8701 55.2606C65.8357 55.5189 65.7063 55.7551 65.5073 55.9233L63.6833 57.4616C63.5677 58.3707 63.4647 60.6296 64.2617 61.1975C64.5289 61.3785 64.7216 61.65 64.8041 61.9621C64.8196 62.0236 64.8208 62.0879 64.8078 62.15C64.7948 62.2121 64.7678 62.2704 64.7289 62.3206C64.0523 63.2459 58.5016 63.6102 57.8713 63.6484H57.8655ZM57.9384 53.8495C57.8581 53.8479 57.7786 53.8662 57.707 53.9027C57.552 53.9871 57.4642 54.186 57.4433 54.4949C57.3693 55.6145 59.3842 55.7764 59.4096 55.7776C59.4534 55.7803 59.4946 55.7993 59.5253 55.8308C59.7571 56.074 59.9187 56.3754 59.993 56.703C60.0674 57.0307 60.0516 57.3724 59.9474 57.6918L58.1223 63.2852C60.4575 63.1291 64.0442 62.6953 64.4652 62.117C64.493 62.0777 64.4883 62.0592 64.486 62.0488C64.4223 61.8164 64.2775 61.6146 64.0778 61.4797C62.9211 60.6585 63.3456 57.4836 63.3641 57.3494C63.3702 57.307 63.3916 57.2683 63.4243 57.2407L65.298 55.6526C65.4314 55.5401 65.5181 55.3819 65.5412 55.2089C65.5643 55.0359 65.5221 54.8605 65.4229 54.7169L64.5092 53.3868C64.4184 53.2547 64.3582 53.1041 64.333 52.9458C64.3078 52.7876 64.3182 52.6257 64.3634 52.4719L64.4895 52.044L62.8506 50.951C62.8373 50.9417 62.8252 50.9308 62.8147 50.9186L61.3643 49.2183C60.092 49.5572 59.3437 49.9886 59.0187 50.5704C58.7596 51.0331 58.7526 51.6114 58.9955 52.3921C59.405 53.7072 58.6821 53.9998 58.6485 54.0114C58.6249 54.0203 58.5997 54.024 58.5745 54.0222C58.5494 54.0204 58.5249 54.0131 58.5028 54.001C58.3285 53.9085 58.1355 53.8567 57.9384 53.8495Z" fill="black"/>
<path d="M58.2464 52.2508L60.6244 53.9303C61.1125 54.2756 61.7072 54.4365 62.3028 54.3844C62.8984 54.3323 63.4562 54.0705 63.8768 53.6457L64.6194 52.8951L67.2681 55.3899C67.3434 55.4784 67.3998 55.5814 67.4335 55.6926C67.4672 55.8038 67.4776 55.9208 67.464 56.0362C67.4504 56.1516 67.4132 56.263 67.3546 56.3634C67.296 56.4637 67.2173 56.5509 67.1235 56.6194L65.0554 58.4053C64.755 58.6238 64.3998 58.7547 64.0294 58.7835C63.659 58.8123 63.2879 58.7378 62.9573 58.5683L59.5187 56.808C59.5187 56.808 60.1964 55.5796 58.5783 53.8493C56.9602 52.119 58.2464 52.2508 58.2464 52.2508Z" fill="black"/>
<path d="M88.1346 49.8313L83.6677 52.0682C83.6677 52.0682 84.179 60.0108 79.4819 61.829C77.676 62.551 75.6856 62.6726 73.8052 62.176C71.6262 61.5905 69.3356 61.5575 67.1407 62.08L58.3226 64.2082C55.9384 64.7832 53.7752 66.0448 52.1009 67.8369C50.4267 69.629 49.3148 71.8728 48.903 74.2905C48.0043 79.5751 47.0292 86.5508 46.9066 92.5074C46.901 92.7613 46.9563 93.0129 47.0679 93.2411C47.1794 93.4693 47.344 93.6674 47.5479 93.819C47.7517 93.9705 47.9889 94.071 48.2395 94.112C48.4902 94.1531 48.747 94.1335 48.9886 94.055L71.7672 86.5311L72.6335 72.3254C75.4823 72.5637 79.6404 72.2317 84.8811 69.9474C95.965 65.1242 88.1346 49.8313 88.1346 49.8313Z" fill="#5479F7"/>
<path d="M48.4906 94.314C48.2561 94.3123 48.0244 94.2641 47.8088 94.1721C47.5932 94.0801 47.398 93.9461 47.2346 93.778C47.0713 93.6099 46.9429 93.411 46.8571 93.1929C46.7713 92.9747 46.7297 92.7417 46.7348 92.5073C46.8609 86.398 47.8914 79.2142 48.7334 74.265C49.1502 71.8141 50.2774 69.5394 51.9751 67.7233C53.6729 65.9071 55.8664 64.6293 58.2837 64.0485L67.1007 61.9191C69.3245 61.3922 71.6443 61.4256 73.8519 62.0163C75.6933 62.5044 77.567 62.3887 79.4211 61.6693C83.9447 59.9182 83.5005 52.1607 83.4959 52.082C83.4939 52.0479 83.5018 52.0139 83.5189 51.9843C83.536 51.9547 83.5614 51.9308 83.5919 51.9155L88.0588 49.6785C88.0994 49.6579 88.1466 49.6543 88.19 49.6683C88.2333 49.6824 88.2693 49.7131 88.2901 49.7537C88.3341 49.8381 92.5847 58.2642 90.3293 64.5724C89.4306 67.0869 87.6227 68.9514 84.9567 70.1127C79.6293 72.4329 75.4342 72.7116 72.8029 72.5185L71.947 86.5472C71.9449 86.5814 71.9328 86.6141 71.9122 86.6415C71.8917 86.6688 71.8635 86.6895 71.8313 86.701L49.0527 94.2191C48.8717 94.2809 48.6818 94.3129 48.4906 94.314ZM70.2606 61.8891C69.2239 61.8883 68.1908 62.0102 67.1828 62.2522L58.3658 64.3804C56.0134 64.9463 53.879 66.1906 52.2277 67.959C50.5763 69.7274 49.4807 71.9418 49.077 74.3274C48.2361 79.2662 47.209 86.4304 47.0829 92.52C47.0793 92.7458 47.1297 92.9692 47.2298 93.1715C47.33 93.3739 47.4771 93.5494 47.6588 93.6834C47.8406 93.8174 48.0517 93.906 48.2747 93.9418C48.4976 93.9777 48.7259 93.9597 48.9405 93.8895L71.6104 86.4015L72.4698 72.3137C72.4736 72.269 72.4948 72.2275 72.5287 72.1981C72.5462 72.1827 72.5666 72.1711 72.5886 72.164C72.6107 72.1568 72.634 72.1542 72.6571 72.1564C75.2353 72.3716 79.4384 72.1368 84.8202 69.7923C87.3949 68.6704 89.1391 66.8741 90.0054 64.4533C92.0445 58.75 88.6174 51.2307 88.0599 50.0648L83.8498 52.1734C83.8945 53.5582 83.7804 54.9437 83.5098 56.3025C82.8967 59.2577 81.5262 61.2252 79.5483 61.9908C77.6249 62.7346 75.6794 62.8548 73.7652 62.3471C72.6217 62.0434 71.4437 61.8894 70.2606 61.8891Z" fill="black"/>
<path d="M83.2305 42.8822C83.2756 42.5792 83.6711 41.588 83.8944 41.263L86.0677 37.3096C86.0677 37.3096 86.9398 38.5819 86.7188 39.572C87.3048 39.3999 87.9035 39.275 88.5093 39.1984C88.5093 39.1984 89.5248 37.4634 89.8105 37.1269C90.0962 36.7903 90.4467 36.2918 90.929 36.1402C91.4113 35.9887 92.0104 36.1981 92.0104 36.1981L90.4085 40.6002L85.8537 43.6352L88.6435 51.1394L83.67 52.0647L83.2305 42.8822Z" fill="white"/>
<path d="M83.6658 52.2416C83.6268 52.2419 83.5889 52.2289 83.5583 52.2046C83.5389 52.1893 83.5229 52.1701 83.5115 52.1481C83.5002 52.1262 83.4936 52.1021 83.4923 52.0774L83.0551 42.8938C83.0545 42.8826 83.0545 42.8714 83.0551 42.8602C83.1037 42.5352 83.5004 41.5336 83.7491 41.1785L85.9178 37.2332C85.932 37.2072 85.9526 37.1852 85.9777 37.1694C86.0028 37.1536 86.0316 37.1446 86.0612 37.143C86.0908 37.1414 86.1204 37.1474 86.1469 37.1606C86.1735 37.1738 86.1962 37.1936 86.2127 37.2182C86.2474 37.2679 86.9807 38.3506 86.9275 39.3406C87.4131 39.2104 87.9064 39.1111 88.4045 39.0434C88.6046 38.7022 89.4189 37.3281 89.6768 37.0216C89.7162 36.9753 89.7566 36.9256 89.7983 36.8747C90.0724 36.5427 90.4125 36.1275 90.8763 35.9818C91.4083 35.8141 92.041 36.0315 92.0676 36.0408C92.0892 36.0484 92.1092 36.0603 92.1262 36.0756C92.1432 36.091 92.157 36.1096 92.1668 36.1304C92.1766 36.1512 92.1822 36.1737 92.1832 36.1966C92.1842 36.2195 92.1807 36.2424 92.1728 36.264L90.5709 40.6673C90.5581 40.7019 90.5346 40.7315 90.5038 40.7517L86.0635 43.7104L88.8059 51.0862C88.8148 51.1099 88.8183 51.1353 88.8164 51.1605C88.8144 51.1858 88.8069 51.2103 88.7945 51.2323C88.782 51.2543 88.7648 51.2734 88.7442 51.2881C88.7236 51.3028 88.7001 51.3129 88.6752 51.3175L83.7017 52.2428C83.6897 52.2439 83.6777 52.2435 83.6658 52.2416ZM83.4033 42.8949L83.8289 51.8623L88.4069 51.0133L85.6888 43.7023C85.6753 43.6656 85.6745 43.6254 85.6867 43.5882C85.6989 43.5511 85.7233 43.5191 85.7559 43.4975L90.2667 40.4903L91.7854 36.3172C91.5229 36.2462 91.2467 36.2431 90.9827 36.3079C90.6172 36.4236 90.313 36.7937 90.0689 37.091C90.0261 37.143 89.9845 37.1939 89.944 37.2413C89.7266 37.4981 89.0095 38.6929 88.6602 39.2886C88.6465 39.3119 88.6276 39.3317 88.6049 39.3464C88.5822 39.3611 88.5563 39.3702 88.5295 39.373C87.9343 39.4492 87.3461 39.5722 86.7702 39.7408C86.7413 39.7494 86.7107 39.7502 86.6813 39.7433C86.652 39.7364 86.6249 39.7219 86.6028 39.7014C86.5808 39.6808 86.5644 39.6549 86.5555 39.6261C86.5465 39.5973 86.5452 39.5667 86.5516 39.5373C86.6985 38.8768 86.3064 38.0591 86.0774 37.6566L84.0487 41.3485L84.0383 41.3636C83.7614 41.8445 83.548 42.3592 83.4033 42.8949Z" fill="black"/>
<path d="M40.5859 88.6975C40.5859 88.6975 41.5112 70.4922 53.3667 66.821L56.5451 76.4453C56.5451 76.4453 45.2356 89.8865 44.1507 94.0758C43.0657 98.2651 40.5859 88.6975 40.5859 88.6975Z" fill="#5479F7"/>
<path d="M40.5867 88.8709H40.5786C40.5558 88.8699 40.5335 88.8644 40.5129 88.8547C40.4923 88.845 40.4739 88.8313 40.4586 88.8144C40.4433 88.7975 40.4315 88.7777 40.4239 88.7563C40.4163 88.7348 40.4131 88.7121 40.4143 88.6893C40.6662 85.4195 41.322 82.1934 42.3667 79.0847C43.3683 76.1573 44.6684 73.6671 46.2322 71.6823C48.1984 69.1955 50.5776 67.5045 53.3153 66.6567C53.3374 66.6485 53.361 66.6448 53.3846 66.646C53.4082 66.6471 53.4313 66.6531 53.4524 66.6635C53.4736 66.6738 53.4925 66.6884 53.5079 66.7064C53.5232 66.7243 53.5348 66.7452 53.5418 66.7677C53.5488 66.7902 53.5511 66.814 53.5486 66.8374C53.5462 66.8609 53.5389 66.8836 53.5274 66.9042C53.5158 66.9248 53.5002 66.9428 53.4814 66.9571C53.4627 66.9714 53.4412 66.9818 53.4183 66.9875C47.3633 68.8624 44.2451 74.6606 42.6952 79.1934C41.6605 82.273 41.0105 85.4687 40.7602 88.7079C40.7575 88.752 40.738 88.7935 40.7058 88.8239C40.6735 88.8542 40.6309 88.871 40.5867 88.8709Z" fill="black"/>
<path d="M44.1501 94.2492C44.1308 94.249 44.1117 94.2459 44.0934 94.24C44.05 94.2248 44.0143 94.193 43.9942 94.1516C43.9741 94.1103 43.971 94.0626 43.9858 94.0191C45.5623 89.4319 54.3133 78.8765 54.6846 78.4289C54.7141 78.3935 54.7564 78.3712 54.8023 78.3669C54.8482 78.3627 54.8938 78.3769 54.9293 78.4063C54.9647 78.4358 54.987 78.4781 54.9912 78.524C54.9954 78.5698 54.9813 78.6155 54.9518 78.651C54.8616 78.7597 45.87 89.6054 44.3108 94.1324C44.2991 94.1659 44.2774 94.1951 44.2487 94.2159C44.22 94.2368 44.1856 94.2484 44.1501 94.2492Z" fill="black"/>
<path d="M66.757 62.6479L66.5419 61.2831C66.4713 60.8285 65.9913 60.3242 65.5969 60.5613C62.2959 62.5426 56.9222 60.7927 56.02 61.1998C53.4581 62.3356 49.1797 68.8197 50.1478 68.3131C54.2238 66.1791 61.0965 67.6839 64.2078 66.5573C66.5962 65.6921 66.757 62.6479 66.757 62.6479Z" fill="black"/>
<path d="M62.8333 77.0963C62.7921 77.0963 62.7523 77.0816 62.7209 77.0549C62.6895 77.0282 62.6687 76.9912 62.6621 76.9506L60.7756 65.3126C60.772 65.2898 60.7729 65.2665 60.7782 65.2441C60.7836 65.2216 60.7933 65.2005 60.8068 65.1818C60.8204 65.1631 60.8374 65.1473 60.8571 65.1352C60.8768 65.1231 60.8986 65.115 60.9214 65.1113C60.9442 65.1077 60.9674 65.1086 60.9899 65.1139C61.0123 65.1193 61.0335 65.129 61.0522 65.1425C61.0709 65.1561 61.0867 65.1731 61.0988 65.1928C61.1109 65.2124 61.119 65.2343 61.1226 65.2571L63.0091 76.8951C63.0164 76.9405 63.0055 76.9869 62.9786 77.0242C62.9517 77.0615 62.9111 77.0866 62.8657 77.094L62.8333 77.0963Z" fill="black"/>
<path d="M65.6488 74.5472C65.6108 74.5471 65.5739 74.5346 65.5437 74.5116C65.5134 74.4887 65.4914 74.4565 65.4811 74.4199L62.9631 65.1206C62.951 65.0762 62.9571 65.0287 62.98 64.9887C63.0028 64.9486 63.0407 64.9194 63.0852 64.9072C63.1296 64.8951 63.1771 64.9012 63.2171 64.9241C63.2571 64.9469 63.2865 64.9848 63.2986 65.0293L65.8165 74.3285C65.8225 74.3506 65.824 74.3736 65.8211 74.3962C65.8182 74.4188 65.8108 74.4406 65.7994 74.4604C65.788 74.4802 65.7728 74.4975 65.7547 74.5114C65.7366 74.5253 65.716 74.5355 65.6939 74.5414C65.6793 74.5456 65.6641 74.5475 65.6488 74.5472Z" fill="black"/>
<path d="M62.7733 76.7021C62.5755 76.7426 62.4367 76.8825 62.4645 77.0144L62.7074 78.1895C62.7351 78.3213 62.9179 78.3942 63.1157 78.3537C63.3134 78.3132 63.4522 78.1721 63.4245 78.0403L63.1816 76.8663C63.1538 76.7345 62.9711 76.6558 62.7733 76.7021Z" fill="white"/>
<path d="M65.6006 74.0928C65.4063 74.1471 65.2779 74.2963 65.315 74.4259L65.6388 75.5825C65.6747 75.712 65.862 75.7733 66.0564 75.719C66.2507 75.6646 66.3802 75.5143 66.3432 75.3847L66.0193 74.2281C65.9835 74.0985 65.7961 74.0372 65.6006 74.0928Z" fill="white"/>
<path d="M22.8887 55.6052L21.7656 61.4046C21.7656 61.4046 32.1556 64.3991 36.8099 59.3805L35.4462 55.6052H22.8887Z" fill="black"/>
<path d="M5.64284 41.3867L8.10067 42.6948C8.00072 43.784 7.9926 44.8798 8.07639 45.9704L5.61046 47.2427C5.01804 47.5494 4.54765 48.0487 4.27668 48.6583C4.00572 49.2679 3.95031 49.9516 4.11957 50.5969C4.28785 51.2432 4.67114 51.8129 5.20638 52.2124C5.74161 52.6118 6.39688 52.8171 7.06434 52.7945L9.84835 52.6985C10.3084 53.689 10.8501 54.6395 11.4676 55.5403L9.96401 57.8871C9.60451 58.4491 9.44702 59.1168 9.51744 59.7802C9.58786 60.4437 9.882 61.0634 10.3515 61.5374C10.8204 62.0119 11.4369 62.3127 12.0995 62.3903C12.7621 62.4678 13.4313 62.3176 13.9972 61.9642L16.3532 60.493C17.2488 61.1207 18.1956 61.672 19.1835 62.1412L19.0574 64.9229C19.027 65.5894 19.2244 66.2464 19.6171 66.7859C20.0098 67.3253 20.5744 67.715 21.218 67.8908C21.8614 68.0671 22.5457 68.0193 23.1584 67.7553C23.7711 67.4913 24.2758 67.0268 24.5896 66.4381L25.8977 63.9814C26.9866 64.081 28.0819 64.0887 29.1721 64.0045L30.4444 66.4704C30.7515 67.0626 31.2508 67.5327 31.8603 67.8036C32.4698 68.0746 33.1533 68.1302 33.7986 67.9613C34.4449 67.7931 35.0147 67.4098 35.4141 66.8745C35.8135 66.3393 36.0188 65.684 35.9962 65.0166L35.9002 62.2326C36.8906 61.7723 37.8412 61.2306 38.7421 60.6133L41.0877 62.1169C41.6499 62.4762 42.3176 62.6337 42.9811 62.5635C43.6447 62.4933 44.2646 62.1996 44.7392 61.7306C45.2138 61.2614 45.5145 60.6447 45.5919 59.9818C45.6692 59.319 45.5186 58.6496 45.1648 58.0837L43.7005 55.7207C44.3282 54.8251 44.8795 53.8784 45.3487 52.8905L48.1246 53.0166C48.7911 53.0483 49.4486 52.8523 49.989 52.461C50.5294 52.0696 50.9206 51.506 51.0983 50.8629C51.2747 50.2195 51.2268 49.5353 50.9625 48.9227C50.6983 48.3101 50.2334 47.8057 49.6444 47.4925L47.1866 46.1844C47.2862 45.0951 47.2939 43.9994 47.2097 42.9088L49.6757 41.6307C50.2679 41.3238 50.7382 40.8245 51.0091 40.215C51.2801 39.6054 51.3356 38.9218 51.1666 38.2765C50.9974 37.6312 50.6136 37.0626 50.0785 36.6643C49.5433 36.266 48.8885 36.0616 48.2218 36.0847L45.4389 36.1807C44.9789 35.1902 44.4372 34.2396 43.8197 33.3388L45.3233 30.992C45.6831 30.4302 45.8409 29.7626 45.7707 29.0991C45.7005 28.4356 45.4064 27.8158 44.937 27.3417C44.4675 26.8677 43.8508 26.5674 43.1881 26.49C42.5254 26.4127 41.8561 26.5629 41.2901 26.9161L38.9317 28.3804C38.0367 27.7522 37.0899 27.2012 36.1015 26.7333L36.2287 23.9517C36.259 23.285 36.0616 22.6279 35.6689 22.0884C35.2763 21.5488 34.7117 21.1588 34.0681 20.9826C33.4244 20.8067 32.7401 20.8549 32.1274 21.1193C31.5147 21.3837 31.0102 21.8486 30.6966 22.4376L29.3884 24.8943C28.2995 24.7947 27.2042 24.787 26.114 24.8712L24.8336 22.4099C24.5265 21.8177 24.0273 21.3476 23.4177 21.0767C22.8082 20.8058 22.1247 20.7502 21.4794 20.919C20.833 21.0871 20.2631 21.4703 19.8637 22.0056C19.4642 22.5409 19.259 23.1962 19.2818 23.8638L19.3778 26.6478C18.3874 27.1081 17.4369 27.6497 16.536 28.267L14.1903 26.7634C13.6282 26.4039 12.9604 26.2463 12.2969 26.3165C11.6333 26.3867 11.0133 26.6805 10.5389 27.1497C10.0644 27.619 9.76375 28.2356 9.68619 28.8983C9.60863 29.5611 9.75881 30.2305 10.112 30.7966L11.5833 33.1526C10.9554 34.0481 10.404 34.9949 9.93509 35.9829L7.15919 35.8568C6.49267 35.8263 5.83558 36.0235 5.29599 36.4159C4.75639 36.8084 4.3664 37.3727 4.19012 38.0162C4.01389 38.6595 4.0617 39.3436 4.3257 39.9561C4.5897 40.5686 5.05418 41.0731 5.64284 41.3867ZM12.5953 40.3168C13.4105 37.3408 15.0899 34.6733 17.4211 32.6517C19.7522 30.6302 22.6305 29.3452 25.6919 28.9594C28.7533 28.5736 31.8604 29.1042 34.6202 30.4841C37.3801 31.8641 39.6688 34.0315 41.1969 36.7121C42.725 39.3928 43.4239 42.4664 43.2053 45.5443C42.9866 48.6222 41.8602 51.5661 39.9685 54.0038C38.0767 56.4415 35.5046 58.2635 32.5774 59.2395C29.6502 60.2154 26.4993 60.3015 23.5232 59.4867C21.5469 58.9455 19.6966 58.0204 18.0779 56.7642C16.4592 55.5079 15.1037 53.9451 14.089 52.165C13.0743 50.3849 12.4201 48.4224 12.1638 46.3894C11.9075 44.3565 12.0541 42.293 12.5953 40.3168Z" fill="#5479F7"/>
<path d="M7.7029 29.9535C7.7029 29.9535 7.46116 26.9034 7.35591 26.0799C7.22983 25.1442 8.58656 26.1239 8.83177 29.0015L7.7029 29.9535Z" fill="white"/>
<path d="M7.5552 30.3051L7.5286 29.9674C7.5286 29.9373 7.28687 26.9127 7.18161 26.1031C7.15039 25.8718 7.19434 25.7087 7.31231 25.6208C7.36247 25.5852 7.4217 25.5645 7.48313 25.5613C7.54455 25.558 7.60564 25.5722 7.6593 25.6023C8.0861 25.7931 8.82866 26.8815 9.00793 28.9877L9.01487 29.0768L7.5552 30.3051ZM7.5182 25.9192C7.51272 25.9649 7.51272 26.0111 7.5182 26.0568C7.60841 26.7207 7.77843 28.783 7.84436 29.603L8.64244 28.9276C8.46316 26.996 7.76456 26.0221 7.5182 25.9192Z" fill="black"/>
<path d="M6.05407 44.091C6.05407 44.091 7.8746 34.0989 7.89773 33.7669C7.91471 33.5269 7.88203 33.2859 7.80174 33.0591C7.57041 32.394 7.08231 30.9714 7.07769 30.5747C7.07306 30.1779 7.42467 29.8552 7.57966 29.7373C7.67219 29.6667 7.76126 29.5927 7.84916 29.5163L8.66573 28.8096C8.8693 28.6419 8.96877 28.3666 9.24405 28.4083C9.77841 28.4869 9.93802 29.403 9.93802 29.403C9.93802 29.403 10.4562 28.9947 10.7373 29.1902C11.0183 29.3856 11.4949 30.8094 10.8252 32.2703C10.1555 33.7311 9.95884 33.0614 9.90679 34.5777C9.88597 35.1838 9.98661 40.9288 9.98661 40.9288C9.98667 41.0375 10.0148 41.1443 10.0682 41.239C10.1217 41.3336 10.1987 41.4129 10.2917 41.469C10.3848 41.5252 10.4908 41.5564 10.5994 41.5597C10.708 41.5629 10.8157 41.538 10.9119 41.4874L14.5333 39.5709L15.7397 45.701L9.27875 47.1757C8.84771 47.2732 8.39921 47.2625 7.97332 47.1445C7.54744 47.0264 7.15741 46.8048 6.83806 46.4993C6.51871 46.1938 6.27998 45.814 6.14318 45.3938C6.00638 44.9735 5.97576 44.5259 6.05407 44.091Z" fill="white"/>
<path d="M8.68226 47.4186C8.2656 47.418 7.85413 47.3262 7.47682 47.1494C7.09952 46.9726 6.76556 46.7153 6.49848 46.3955C6.23139 46.0757 6.03766 45.7012 5.93096 45.2984C5.82426 44.8957 5.80719 44.4744 5.88091 44.0643C6.38636 41.2884 7.70144 34.0375 7.72341 33.7588C7.73857 33.5426 7.70904 33.3257 7.63667 33.1215C7.30356 32.1788 6.90684 30.9725 6.90221 30.5769C6.90221 30.0888 7.3001 29.7302 7.47359 29.5984C7.56381 29.5302 7.65171 29.455 7.73267 29.3856L8.5504 28.6777C8.60337 28.6313 8.6525 28.5806 8.6973 28.5262C8.81296 28.3862 8.98299 28.1942 9.27561 28.237C9.72901 28.3041 9.95339 28.8084 10.0505 29.123C10.2645 29.0074 10.5919 28.8767 10.8394 29.0467C11.2234 29.3127 11.6768 30.8325 10.9851 32.3419C10.8275 32.7089 10.6234 33.054 10.3779 33.369C10.1789 33.6269 10.1119 33.716 10.0829 34.5835C10.0621 35.178 10.1616 40.8686 10.1628 40.9264C10.1634 41.0053 10.1842 41.0827 10.2232 41.1513C10.2621 41.2199 10.318 41.2774 10.3854 41.3183C10.4529 41.3592 10.5297 41.3822 10.6085 41.3851C10.6874 41.3879 10.7656 41.3706 10.8359 41.3347L14.6632 39.3083L15.947 45.8351L9.31841 47.3468C9.10973 47.3946 8.89633 47.4186 8.68226 47.4186ZM6.22211 44.121C6.14762 44.5287 6.17547 44.9484 6.30314 45.3426C6.43081 45.7369 6.65431 46.0932 6.95362 46.3798C7.25293 46.6664 7.61869 46.8742 8.01809 46.9847C8.41749 47.0951 8.83805 47.1047 9.24207 47.0126L15.5388 45.5749L14.4076 39.8334L10.992 41.6412C10.8691 41.7049 10.7319 41.736 10.5935 41.7315C10.4551 41.7271 10.3202 41.6872 10.2016 41.6157C10.0831 41.5443 9.98479 41.4436 9.91622 41.3233C9.84765 41.203 9.81107 41.0672 9.80997 40.9287C9.80997 40.6974 9.70935 35.1745 9.73017 34.5673C9.7614 33.6327 9.84583 33.4743 10.0968 33.1527C10.3262 32.8584 10.5167 32.5357 10.6636 32.1927C11.3217 30.7573 10.8081 29.4469 10.6358 29.3277C10.5201 29.2491 10.2183 29.3971 10.0425 29.5348L9.81113 29.7141L9.76139 29.4284C9.72322 29.2075 9.54973 28.6187 9.21547 28.5748C9.12294 28.5621 9.0732 28.6095 8.95407 28.7483C8.89816 28.8173 8.83623 28.8811 8.76901 28.9391L7.95937 29.6435C7.87378 29.7175 7.78009 29.7962 7.68178 29.8748C7.54992 29.9743 7.24457 30.2415 7.24804 30.5688C7.24804 30.8302 7.5187 31.7382 7.96168 32.9977C8.05034 33.2467 8.08655 33.5113 8.06809 33.775C8.04495 34.1069 6.40832 43.0928 6.21748 44.1175L6.22211 44.121Z" fill="black"/>
<path d="M8.74364 32.1766C8.63791 32.1782 8.53329 32.1549 8.43829 32.1084C8.32348 32.0461 8.23218 31.9479 8.17831 31.8289C8.12443 31.7099 8.11095 31.5765 8.13989 31.4491C8.1992 31.0875 8.38089 30.7571 8.65458 30.5134C8.69063 30.4847 8.73659 30.4715 8.78236 30.4767C8.82813 30.482 8.86995 30.5051 8.89863 30.5412C8.92731 30.5772 8.9405 30.6232 8.9353 30.6689C8.93009 30.7147 8.90691 30.7565 8.87087 30.7852C8.6647 30.9754 8.52794 31.229 8.48225 31.5058C8.46605 31.5607 8.46863 31.6193 8.48959 31.6726C8.51054 31.7258 8.54866 31.7705 8.59791 31.7996C8.75868 31.8817 9.07097 31.8123 9.40755 31.4723C10.0148 30.8616 9.75454 29.3903 9.75454 29.3753C9.74641 29.3293 9.75689 29.2819 9.78368 29.2436C9.81047 29.2053 9.85136 29.1793 9.89738 29.1711C9.94339 29.163 9.99075 29.1735 10.029 29.2003C10.0673 29.2271 10.0934 29.268 10.1015 29.314C10.1131 29.3822 10.3907 30.9795 9.65854 31.7163C9.32196 32.0552 9.00157 32.1766 8.74364 32.1766Z" fill="black"/>
<path d="M47.7865 61.3884C46.9283 60.9014 46.5859 60.5093 46.269 59.7009C46.269 59.7009 44.4982 54.0889 43.1138 50.5635C42.5597 49.1536 41.3198 46.5153 40.0591 43.9094L35.5806 46.4089C35.5338 46.4355 35.4886 46.4648 35.4453 46.4968C37.6429 50.1726 41.6784 56.9065 42.1086 57.5299C42.1086 57.5299 44.3062 60.7788 44.1987 62.4652C44.1316 63.5305 44.5457 65.4956 46.1198 66.5978C46.1914 66.6469 46.2771 66.6713 46.3638 66.6675C46.4505 66.6636 46.5336 66.6316 46.6006 66.5764C46.6675 66.5212 46.7147 66.4457 46.735 66.3613C46.7554 66.2769 46.7477 66.1882 46.7132 66.1086L46.7051 66.0912C46.5014 65.6872 46.2739 65.2955 46.0238 64.9184C46.0238 64.9184 46.8832 64.9265 47.7831 65.6355C48.6829 66.3445 50.5902 67.6145 50.9858 67.1877C51.6635 66.4637 51.2599 63.3674 47.7865 61.3884Z" fill="white"/>
<path d="M50.7492 67.4478C49.8239 67.4478 47.9248 65.9742 47.6784 65.7799C47.2968 65.4745 46.8512 65.2591 46.3749 65.1496C46.5537 65.4322 46.7174 65.7241 46.8653 66.024L46.8745 66.0448C46.9212 66.1589 46.9302 66.285 46.9001 66.4046C46.8701 66.5242 46.8026 66.631 46.7076 66.7095C46.6125 66.7881 46.4948 66.8342 46.3717 66.8411C46.2486 66.848 46.1265 66.8154 46.0233 66.748C44.3068 65.5463 43.9679 63.4181 44.0281 62.4616C44.131 60.8539 41.9889 57.6673 41.9681 57.635C41.5402 57.0173 37.6065 50.4523 35.3002 46.5938C35.2768 46.5569 35.2683 46.5124 35.2765 46.4695C35.2846 46.4265 35.3088 46.3883 35.3441 46.3625C35.3933 46.325 35.4451 46.2909 35.4991 46.2607L39.9729 43.7658C39.9935 43.7542 40.0162 43.7469 40.0397 43.7445C40.0632 43.7421 40.087 43.7447 40.1094 43.752C40.1319 43.7589 40.1528 43.7704 40.1707 43.7857C40.1886 43.801 40.2032 43.8198 40.2135 43.841C41.768 47.053 42.7974 49.2957 43.274 50.5078C44.6249 53.9453 46.3645 59.4381 46.4304 59.6452C46.7369 60.4213 47.0608 60.7798 47.8704 61.2402C50.7469 62.8745 51.2917 65.0779 51.39 65.714C51.4976 66.408 51.39 67.006 51.1113 67.3113C51.0637 67.358 51.007 67.3942 50.9446 67.4177C50.8823 67.4412 50.8158 67.4515 50.7492 67.4478ZM46.0267 64.7529C46.0637 64.7529 46.952 64.7702 47.89 65.507C49.1808 66.5236 50.6509 67.3021 50.8591 67.0777C51.0222 66.9019 51.1575 66.4658 51.05 65.7695C50.9574 65.1716 50.4427 63.1012 47.6957 61.5444C46.8121 61.0412 46.4396 60.6272 46.1019 59.7689V59.7574C46.0846 59.7019 44.3172 54.1107 42.9524 50.6351C42.4898 49.4518 41.4881 47.2727 39.9822 44.1579L35.6795 46.5603C37.9928 50.4315 41.8328 56.8357 42.2503 57.4395C42.3429 57.576 44.4815 60.7579 44.3716 62.4835C44.3149 63.373 44.6284 65.3497 46.2222 66.4635C46.2631 66.4876 46.3104 66.4985 46.3577 66.4947C46.405 66.491 46.45 66.4728 46.4866 66.4426C46.5232 66.4125 46.5497 66.3718 46.5624 66.326C46.5751 66.2803 46.5734 66.2318 46.5576 66.1871V66.1732C46.3569 65.775 46.1333 65.3888 45.8879 65.0166C45.8706 64.9904 45.8606 64.9601 45.8591 64.9287C45.8577 64.8974 45.8647 64.8662 45.8796 64.8385C45.8944 64.8109 45.9165 64.7878 45.9434 64.7717C45.9703 64.7556 46.0011 64.7471 46.0325 64.7471L46.0267 64.7529Z" fill="black"/>
<path d="M12.7494 39.2435L13.7036 38.1724C15.3201 36.3775 17.3558 35.0106 19.629 34.1936L21.1824 33.6361C21.298 33.5933 30.1404 32.6854 33.143 33.6778C35.0168 34.2977 37.4677 35.7481 40.8011 42.5005C40.9179 42.7462 40.9378 43.0268 40.8568 43.2865C40.7757 43.5461 40.5997 43.7657 40.3639 43.9012L35.476 46.6297C35.0503 46.8668 35.0619 47.4012 35.129 47.8846L36.5817 55.7497C36.6231 55.9697 36.5982 56.1971 36.5103 56.403C36.4224 56.6089 36.2754 56.7841 36.0878 56.9063C34.8745 57.6882 31.3364 58.9015 23.5962 57.6558C22.7091 57.5122 21.8848 57.1073 21.2289 56.493C20.5729 55.8786 20.1149 55.0826 19.9135 54.2068L18.4932 48.05C18.4053 47.5296 17.6916 47.2739 17.1399 47.1536C16.8289 47.0924 16.5109 47.0748 16.195 47.1016C15.8648 47.124 15.5366 47.0353 15.2626 46.8496C14.9887 46.6639 14.7847 46.3918 14.6833 46.0768L12.5204 40.5586C12.433 40.3396 12.4081 40.1008 12.4485 39.8686C12.489 39.6364 12.5931 39.4199 12.7494 39.2435Z" fill="#99B9FF"/>
<path d="M29.0549 46.3926C29.0168 46.3927 28.9797 46.3801 28.9496 46.3567C26.8862 44.7779 26.2697 43.0372 26.2443 42.9643C26.2367 42.9428 26.2334 42.9201 26.2346 42.8973C26.2358 42.8745 26.2415 42.8522 26.2513 42.8317C26.2612 42.8111 26.2749 42.7927 26.2919 42.7774C26.3089 42.7622 26.3286 42.7504 26.3501 42.7428C26.3716 42.7352 26.3944 42.7319 26.4172 42.7332C26.4399 42.7344 26.4622 42.74 26.4828 42.7499C26.5034 42.7597 26.5218 42.7735 26.537 42.7904C26.5523 42.8074 26.564 42.8272 26.5716 42.8487C26.5716 42.866 27.1858 44.5674 29.1602 46.0791C29.1966 46.1071 29.2205 46.1483 29.2266 46.1939C29.2326 46.2394 29.2204 46.2855 29.1925 46.322C29.1767 46.3437 29.1561 46.3615 29.1321 46.3737C29.1082 46.386 29.0818 46.3924 29.0549 46.3926Z" fill="black"/>
<path d="M21.7656 46.1452C21.7387 46.1453 21.7122 46.1392 21.6882 46.1274C21.6641 46.1155 21.6431 46.0982 21.6268 46.0769C20.063 44.0019 19.9346 42.1594 19.93 42.0819C19.9272 42.0359 19.9429 41.9907 19.9735 41.9562C20.004 41.9217 20.0471 41.9008 20.0931 41.898C20.1391 41.8953 20.1843 41.9109 20.2188 41.9415C20.2533 41.9721 20.2742 42.0151 20.277 42.0611C20.277 42.0785 20.4065 43.8816 21.9044 45.8676C21.9317 45.9045 21.9433 45.9507 21.9368 45.9961C21.9304 46.0416 21.9062 46.0827 21.8697 46.1105C21.8398 46.1334 21.8032 46.1456 21.7656 46.1452Z" fill="black"/>
<path d="M29.0978 37.7736C24.1706 39.9943 21.2003 35.6118 21.2003 35.6118C21.1194 35.5228 21.0286 35.4432 20.9297 35.3747L20.9713 35.3597C21.028 35.34 21.087 35.3192 21.1402 35.2972C23.3378 34.4471 24.7396 32.268 24.6853 29.9073L24.6552 28.5518L28.339 28.5125C28.339 28.5125 28.4362 33.4732 30.1364 33.5102L31.0756 33.6259C31.7742 35.2278 30.746 37.0275 29.0978 37.7736Z" fill="white"/>
<path d="M26.3696 38.5704C23.1438 38.5704 21.2006 35.9194 21.0607 35.7205C20.991 35.6446 20.9134 35.5764 20.8294 35.5169C20.803 35.4988 20.7821 35.4738 20.769 35.4446C20.756 35.4154 20.7512 35.3832 20.7553 35.3515C20.7599 35.3197 20.773 35.2896 20.7934 35.2648C20.8138 35.2399 20.8407 35.2211 20.871 35.2104L20.9138 35.1965L21.0769 35.1352C23.1843 34.3256 24.5641 32.2217 24.5109 29.9107L24.4808 28.5552C24.4802 28.5322 24.4842 28.5094 24.4925 28.4881C24.5008 28.4667 24.5133 28.4472 24.5292 28.4307C24.5452 28.4142 24.5643 28.4011 24.5853 28.3921C24.6064 28.3831 24.6291 28.3783 24.652 28.3782L28.3359 28.3389C28.3814 28.3391 28.4251 28.3569 28.4579 28.3886C28.4906 28.4203 28.5099 28.4634 28.5117 28.5089C28.5371 29.8425 28.8818 33.3101 30.1391 33.3378H30.1553L31.0956 33.4477C31.1257 33.4512 31.1544 33.4626 31.1787 33.4807C31.2031 33.4987 31.2223 33.5228 31.2344 33.5506C32.0232 35.3527 30.803 37.1929 29.1686 37.9296C28.2922 38.341 27.3377 38.5596 26.3696 38.5704ZM21.2654 35.4325C21.2851 35.4533 21.3059 35.4741 21.3244 35.4961C21.33 35.5017 21.3351 35.5079 21.3394 35.5146C21.8977 36.2651 22.5965 36.8999 23.3971 37.3837C25.1459 38.4316 27.0381 38.5091 29.0218 37.615C30.4756 36.9592 31.5733 35.3584 30.951 33.7808L30.1194 33.6836C28.4423 33.6339 28.2005 29.6736 28.1658 28.6882L24.8278 28.7229L24.8544 29.9038C24.91 32.335 23.4711 34.5476 21.2654 35.4325Z" fill="black"/>
<path d="M24.6672 28.7437L24.4787 26.2547C24.4569 25.9667 24.4941 25.6774 24.588 25.4043C24.6819 25.1312 24.8305 24.8801 25.0247 24.6664C25.2189 24.4527 25.4547 24.2809 25.7176 24.1614C25.9805 24.0419 26.265 23.9773 26.5537 23.9715L29.7518 23.9021C29.7518 23.9021 30.0004 25.4635 30.8355 26.1992L30.4619 26.9001L30.0895 28.1932C30.0505 28.3312 29.974 28.4556 29.8684 28.5526C29.7628 28.6496 29.6323 28.7154 29.4915 28.7426H27.5623L24.6672 28.7437Z" fill="white"/>
<path d="M24.6671 28.9172C24.6236 28.917 24.5817 28.9005 24.5498 28.871C24.5179 28.8414 24.4982 28.8009 24.4948 28.7576L24.3074 26.2673C24.2837 25.9563 24.3237 25.6437 24.4249 25.3486C24.5261 25.0535 24.6864 24.7821 24.8959 24.551C25.1055 24.32 25.3599 24.134 25.6437 24.0045C25.9275 23.875 26.2348 23.8047 26.5466 23.7979L29.7459 23.7285C29.7876 23.728 29.8281 23.7423 29.8602 23.7691C29.8922 23.7958 29.9136 23.8331 29.9205 23.8743C29.9205 23.8893 30.1692 25.3779 30.9476 26.0719C30.9768 26.0977 30.9965 26.1327 31.0034 26.1711C31.0104 26.2095 31.0041 26.2491 30.9858 26.2835L30.6214 26.9694L30.2571 28.2417C30.21 28.4109 30.1164 28.5635 29.987 28.6823C29.8576 28.8011 29.6976 28.8812 29.5249 28.9137H29.4926H27.5633C27.5173 28.9137 27.4732 28.8954 27.4406 28.8629C27.4081 28.8303 27.3898 28.7862 27.3898 28.7402C27.3898 28.6942 27.4081 28.6501 27.4406 28.6175C27.4732 28.585 27.5173 28.5667 27.5633 28.5667H29.4752C29.5813 28.5434 29.6791 28.4917 29.7581 28.4171C29.8372 28.3426 29.8945 28.248 29.924 28.1434L30.2929 26.8526C30.2964 26.8409 30.301 26.8297 30.3068 26.819L30.618 26.2349C29.9645 25.578 29.6927 24.4792 29.6059 24.079L26.5547 24.1449C26.2899 24.1508 26.029 24.2105 25.7881 24.3205C25.5471 24.4304 25.3311 24.5884 25.1531 24.7846C24.9752 24.9808 24.8391 25.2112 24.7532 25.4618C24.6672 25.7123 24.6332 25.9778 24.6532 26.2419L24.8406 28.7309C24.8441 28.7768 24.8293 28.8222 24.7993 28.8571C24.7694 28.892 24.7268 28.9136 24.681 28.9172H24.6671Z" fill="black"/>
<path d="M26.9754 34.8055C26.8552 34.8052 26.7356 34.79 26.6191 34.7604C26.5745 34.7491 26.5362 34.7204 26.5127 34.6809C26.4891 34.6413 26.4823 34.594 26.4936 34.5493C26.505 34.5047 26.5336 34.4664 26.5732 34.4429C26.6128 34.4193 26.6601 34.4125 26.7047 34.4238C27.2079 34.5511 27.4878 34.2943 27.4901 34.292C27.5237 34.2615 27.5679 34.2454 27.6133 34.2472C27.6586 34.249 27.7015 34.2684 27.7326 34.3014C27.7638 34.3344 27.7808 34.3783 27.78 34.4236C27.7792 34.469 27.7607 34.5123 27.7283 34.5441C27.5168 34.7186 27.2496 34.8114 26.9754 34.8055Z" fill="black"/>
<path d="M30.3844 23.7123L28.7755 24.5659C28.311 24.8133 27.9116 25.1672 27.61 25.5986C27.3085 26.03 27.1133 26.5267 27.0406 27.048C26.8335 28.5296 26.6566 31.0962 25.2455 33.2591C24.6998 34.0836 23.9692 34.7694 23.1118 35.2617C22.2544 35.7541 21.2939 36.0395 20.3067 36.0951C18.9916 36.1784 17.4371 36.6735 16.6055 37.5166C16.6055 37.5166 13.9603 34.056 16.6182 31.0176C19.2761 27.9791 22.7703 28.1769 23.4585 24.9522C24.1178 21.8652 27.8814 19.5785 30.5359 22.9535C30.5823 23.011 30.6156 23.0779 30.6332 23.1496C30.6509 23.2213 30.6525 23.296 30.6381 23.3684C30.6236 23.4409 30.5934 23.5092 30.5496 23.5686C30.5057 23.6281 30.4493 23.6771 30.3844 23.7123Z" fill="black"/>
<path d="M51.4596 30.6219C51.4596 30.6219 49.8739 30.6798 47.9146 30.6728C47.5016 30.6728 46.3959 29.3473 45.6857 29.5717C45.1757 29.7325 46.1403 30.6011 46.0073 30.6L43.2742 30.5884C42.9665 30.5884 42.8636 30.9018 42.9908 31.1817C43.1724 31.5831 43.5691 32.1892 44.2284 32.402C45.4035 32.7802 47.6717 32.609 48.3726 32.4737C49.2792 32.2952 50.1985 32.1881 51.1219 32.1533L51.4596 30.6219Z" fill="white"/>
<path d="M46.2592 32.8024C45.5086 32.8024 44.7313 32.7422 44.1773 32.563C43.3885 32.3097 42.9755 31.5602 42.8344 31.2502C42.7862 31.1533 42.7627 31.046 42.7659 30.9379C42.7691 30.8297 42.799 30.7241 42.8529 30.6302C42.8983 30.5606 42.961 30.5039 43.0347 30.4656C43.1085 30.4273 43.1909 30.4087 43.274 30.4116L45.6925 30.422C45.4704 30.1306 45.3061 29.8692 45.3767 29.6402C45.3957 29.5822 45.4292 29.53 45.4739 29.4886C45.5186 29.4471 45.5731 29.4177 45.6323 29.403C46.1505 29.2388 46.7531 29.6945 47.284 30.097C47.5061 30.2647 47.8103 30.4949 47.9132 30.4961C49.8459 30.503 51.4363 30.4452 51.4525 30.4452L51.6769 30.4371L51.2605 32.3212H51.124C50.2108 32.3564 49.3016 32.4624 48.4048 32.6381C47.6952 32.7511 46.9777 32.806 46.2592 32.8024ZM43.2728 30.7586C43.2478 30.7562 43.2226 30.7605 43.1999 30.7711C43.1771 30.7817 43.1576 30.7981 43.1433 30.8188C43.1207 30.8634 43.1089 30.9127 43.1089 30.9628C43.1089 31.0128 43.1207 31.0621 43.1433 31.1068C43.2659 31.3751 43.6198 32.0217 44.2767 32.2333C45.423 32.6023 47.6726 32.4276 48.3354 32.2992C49.2072 32.1305 50.0901 32.0242 50.9771 31.9812L51.2373 30.7991C50.7319 30.8141 49.4261 30.8488 47.9086 30.8431C47.69 30.8431 47.4309 30.6453 47.0712 30.3735C46.6536 30.0565 46.0811 29.624 45.7329 29.7338C45.7098 29.7419 45.7017 29.7477 45.7017 29.7489C45.6867 29.809 45.7931 29.9906 46.021 30.2844C46.1586 30.4614 46.228 30.5504 46.1701 30.6684C46.1548 30.6994 46.1311 30.7254 46.1016 30.7434C46.0721 30.7614 46.0381 30.7707 46.0036 30.7702L43.2693 30.7586H43.2728Z" fill="black"/>
<path d="M48.8093 30.2368C50.1823 30.2715 53.4104 30.1605 54.685 28.4521C55.3651 29.3034 55.9943 30.1975 56.686 31.0384C56.7585 31.14 56.8627 31.2146 56.9823 31.2504C57.1019 31.2862 57.23 31.2812 57.3464 31.2362C57.6406 31.8812 57.8928 32.5446 58.1017 33.2221C54.6769 33.8698 50.2366 33.3678 48.7261 33.1619C48.58 33.1422 48.446 33.0703 48.3486 32.9596C48.2513 32.8489 48.1972 32.7067 48.1963 32.5593L48.1836 30.8533C48.1831 30.7714 48.199 30.6903 48.2304 30.6147C48.2618 30.5391 48.3081 30.4705 48.3664 30.413C48.4247 30.3556 48.4939 30.3104 48.57 30.2801C48.6461 30.2498 48.7275 30.2351 48.8093 30.2368Z" fill="black"/>
<path d="M30.6179 11.0855L31.6392 11.6291C31.5976 12.0814 31.5941 12.5364 31.6288 12.9893L30.604 13.5202C30.3581 13.6478 30.1628 13.8553 30.0504 14.1086C29.9379 14.3619 29.915 14.6459 29.9852 14.9139C30.0552 15.1823 30.2146 15.4188 30.437 15.5845C30.6595 15.7502 30.9317 15.8351 31.2089 15.8253L32.3656 15.786C32.5572 16.1971 32.7823 16.5917 33.0387 16.9658L32.4153 17.9408C32.2659 18.1742 32.2004 18.4516 32.2297 18.7272C32.2589 19.0028 32.3811 19.2602 32.5761 19.4571C32.771 19.6542 33.0272 19.7792 33.3025 19.8115C33.5778 19.8439 33.8559 19.7818 34.0912 19.6353L35.0698 19.0234C35.4416 19.2849 35.8351 19.5139 36.246 19.7081L36.194 20.8648C36.1812 21.1417 36.263 21.4147 36.4259 21.639C36.5888 21.8632 36.8231 22.0254 37.0904 22.0989C37.3578 22.172 37.6422 22.152 37.8968 22.042C38.1514 21.9321 38.3609 21.7388 38.4911 21.494L39.0347 20.4738C39.4874 20.5145 39.9428 20.5176 40.396 20.4831L40.9269 21.5078C41.0543 21.7526 41.2609 21.947 41.5129 22.0594C41.765 22.1717 42.0476 22.1955 42.3149 22.1266C42.5828 22.0564 42.8189 21.8972 42.9844 21.675C43.1498 21.4528 43.2347 21.1809 43.2251 20.9041L43.1858 19.7475C43.5973 19.5559 43.9922 19.3307 44.3667 19.0743L45.3406 19.6977C45.5743 19.847 45.8518 19.9124 46.1275 19.8832C46.4033 19.854 46.6609 19.7319 46.8581 19.537C47.0552 19.342 47.1801 19.0857 47.2122 18.8104C47.2444 18.535 47.1819 18.2569 47.0351 18.0218L46.4244 17.0433C46.685 16.6709 46.914 16.2775 47.1091 15.867L48.2657 15.9202C48.5426 15.9326 48.8154 15.8506 49.0395 15.6875C49.2635 15.5244 49.4255 15.2899 49.4987 15.0226C49.5717 14.7553 49.5517 14.4711 49.442 14.2166C49.3323 13.9621 49.1394 13.7524 48.8949 13.622L47.8736 13.0783C47.9154 12.626 47.9185 12.171 47.8829 11.7181L48.9076 11.1861C49.1538 11.0586 49.3493 10.8512 49.4619 10.5979C49.5746 10.3446 49.5978 10.0606 49.5276 9.79237C49.4572 9.52431 49.2977 9.28818 49.0753 9.12276C48.8529 8.95734 48.5809 8.87247 48.3039 8.8821L47.1473 8.92142C46.9561 8.50975 46.7309 8.11474 46.4741 7.74051L47.0975 6.76663C47.247 6.53301 47.3125 6.25548 47.2833 5.97968C47.2541 5.70388 47.1319 5.44624 46.9368 5.24913C46.742 5.05215 46.4859 4.92732 46.2108 4.89515C45.9356 4.86299 45.6577 4.92542 45.4227 5.07217L44.4431 5.68287C44.071 5.42252 43.6779 5.1935 43.2679 4.99814L43.32 3.84152C43.3324 3.56466 43.2504 3.29179 43.0873 3.06774C42.9242 2.84368 42.6897 2.68175 42.4224 2.60855C42.1559 2.53621 41.8726 2.55629 41.6189 2.66551C41.3652 2.77472 41.1559 2.96664 41.0252 3.21L40.4816 4.2313C40.0293 4.18951 39.5743 4.18642 39.1214 4.22205L38.5905 3.19727C38.4631 2.95244 38.2566 2.75792 38.0046 2.64536C37.7526 2.53279 37.4699 2.50882 37.2026 2.57732C36.9344 2.64772 36.6981 2.80718 36.5325 3.02954C36.3669 3.25189 36.2818 3.52394 36.2912 3.80103L36.3316 4.95766C35.9198 5.14855 35.5248 5.37373 35.1507 5.63082L34.1757 5.00739C33.9422 4.85801 33.6649 4.79255 33.3893 4.82177C33.1137 4.85099 32.8563 4.97315 32.6593 5.16817C32.4623 5.36312 32.3373 5.61926 32.3049 5.89456C32.2726 6.16987 32.3347 6.44801 32.4812 6.68335L33.0931 7.66186C32.8323 8.03367 32.6032 8.42677 32.4084 8.83699L31.2517 8.78494C30.9735 8.77165 30.6991 8.85387 30.474 9.01796C30.2489 9.18205 30.0866 9.41815 30.0141 9.68711C29.9413 9.95412 29.9613 10.238 30.0711 10.4921C30.1808 10.7462 30.3736 10.9554 30.6179 11.0855ZM33.5095 10.6413C33.8486 9.40638 34.5461 8.29966 35.514 7.46106C36.482 6.62245 37.6767 6.0896 38.9474 5.92983C40.218 5.77007 41.5075 5.99057 42.6529 6.56347C43.7983 7.13637 44.7481 8.03595 45.3824 9.14852C46.0166 10.2611 46.3068 11.5367 46.2163 12.8142C46.1258 14.0916 45.6586 15.3136 44.8738 16.3256C44.089 17.3376 43.0218 18.0943 41.8071 18.4999C40.5924 18.9056 39.2847 18.9421 38.0492 18.6047C37.2276 18.3808 36.4582 17.9971 35.7851 17.4755C35.1119 16.954 34.5482 16.3048 34.1263 15.5651C33.7043 14.8255 33.4323 14.0099 33.3258 13.165C33.2194 12.3201 33.2806 11.4625 33.506 10.6413H33.5095Z" fill="white"/>
<path d="M44.3654 16.4452C43.1516 17.6026 41.5412 18.2522 39.864 18.2611C38.1868 18.2699 36.5697 17.6372 35.3438 16.4926C38.2822 15.5983 41.4178 15.5818 44.3654 16.4452Z" fill="#5479F7"/>
<path d="M39.8243 18.4368C38.1135 18.439 36.4661 17.7892 35.2174 16.6197L35 16.4162L35.2845 16.3271C38.2578 15.4211 41.4312 15.4046 44.4138 16.2797L44.6983 16.3664L44.4832 16.5712C43.2375 17.7636 41.5811 18.4316 39.8567 18.4368H39.8243ZM35.6824 16.5689C36.8479 17.5583 38.3291 18.0978 39.8579 18.0897C41.3867 18.0817 42.8621 17.5266 44.0171 16.5249C41.2858 15.7867 38.4057 15.8019 35.6824 16.5689Z" fill="black"/>
<path d="M36.008 11.9898C36.5794 9.92874 37.7591 7.2257 39.9718 7.55765C42.0942 7.87688 43.0947 10.2052 43.5573 12.0107C43.6211 12.2679 43.6256 12.5363 43.5705 12.7956C43.5153 13.0548 43.402 13.2981 43.239 13.5071C43.076 13.7161 42.8676 13.8854 42.6296 14.002C42.3916 14.1187 42.1302 14.1797 41.8652 14.1805L37.7106 14.2013C37.44 14.204 37.1725 14.1439 36.9292 14.0257C36.6858 13.9074 36.4732 13.7343 36.3082 13.5199C36.1431 13.3055 36.0301 13.0557 35.978 12.7902C35.9259 12.5247 35.9362 12.2507 36.008 11.9898Z" fill="black"/>
<path d="M37.84 9.59571V9.58067L41.6129 9.55176V9.56101C41.6636 9.75397 41.6896 9.95256 41.6904 10.152V11.2566C41.6964 11.5998 41.6206 11.9394 41.4693 12.2475C41.3181 12.5557 41.0958 12.8234 40.8206 13.0286L40.8357 15.9109C40.8372 16.187 40.729 16.4524 40.5349 16.6487C40.3407 16.845 40.0766 16.9561 39.8005 16.9576C39.5244 16.9592 39.259 16.851 39.0627 16.6568C38.8664 16.4627 38.7553 16.1985 38.7538 15.9225L38.7387 13.0818C38.4439 12.8827 38.203 12.6137 38.0373 12.2989C37.8716 11.9841 37.7864 11.6332 37.7891 11.2774V10.0318C37.7913 9.88506 37.8083 9.73896 37.84 9.59571Z" fill="white"/>
<path d="M39.8081 17.1288C39.488 17.1285 39.181 17.0016 38.9541 16.7758C38.7273 16.5501 38.5989 16.2437 38.5971 15.9236L38.582 13.1153C38.5819 13.0925 38.5862 13.07 38.5948 13.0488C38.6034 13.0277 38.616 13.0085 38.632 12.9923C38.648 12.9761 38.6671 12.9632 38.6881 12.9543C38.7091 12.9455 38.7316 12.9408 38.7544 12.9407C38.8002 12.9407 38.8441 12.9588 38.8766 12.9911C38.9091 13.0234 38.9276 13.0672 38.9279 13.113L38.9429 15.9213C38.9432 16.035 38.9661 16.1475 39.0102 16.2524C39.0542 16.3572 39.1186 16.4522 39.1997 16.532C39.3214 16.6519 39.4759 16.7332 39.6437 16.7654C39.8115 16.7976 39.9852 16.7794 40.1426 16.7131C40.3001 16.6468 40.4345 16.5353 40.5287 16.3928C40.6229 16.2502 40.6728 16.0829 40.6721 15.9121L40.6582 13.1153C40.6582 13.0693 40.6765 13.0252 40.709 12.9926C40.7415 12.9601 40.7857 12.9418 40.8317 12.9418C40.8777 12.9418 40.9218 12.9601 40.9544 12.9926C40.9869 13.0252 41.0052 13.0693 41.0052 13.1153L41.0191 15.9132C41.0206 16.2345 40.8945 16.5432 40.6685 16.7716C40.4425 17 40.1351 17.1293 39.8138 17.1311L39.8081 17.1288Z" fill="black"/>
<path d="M39.7477 12.1992C39.6214 12.1994 39.4965 12.1737 39.3805 12.1238C39.2645 12.0739 39.16 12.0007 39.0734 11.9089C39.0572 11.8925 39.0444 11.8729 39.0358 11.8515C39.0273 11.8301 39.0231 11.8071 39.0235 11.784C39.0239 11.7609 39.0289 11.7382 39.0382 11.717C39.0475 11.6959 39.061 11.6769 39.0778 11.661C39.0946 11.6451 39.1143 11.6328 39.136 11.6247C39.1576 11.6166 39.1806 11.6128 39.2037 11.6137C39.2268 11.6146 39.2494 11.6201 39.2703 11.6299C39.2913 11.6397 39.31 11.6535 39.3255 11.6706C39.3797 11.7281 39.4452 11.7739 39.5178 11.8052C39.5904 11.8364 39.6686 11.8524 39.7477 11.8522C39.8269 11.8522 39.9052 11.8358 39.9776 11.8039C40.0501 11.7721 40.1152 11.7255 40.1687 11.6672C40.2001 11.6334 40.2437 11.6136 40.2898 11.6119C40.3359 11.6103 40.3807 11.6271 40.4145 11.6585C40.4482 11.6899 40.4681 11.7335 40.4697 11.7796C40.4714 11.8257 40.4546 11.8705 40.4232 11.9043C40.3369 11.997 40.2326 12.0709 40.1166 12.1217C40.0006 12.1724 39.8754 12.1988 39.7488 12.1992H39.7477Z" fill="black"/>
<path d="M39.7566 13.5547C38.5907 13.5547 37.64 12.5357 37.633 11.2785V10.0328C37.625 9.45523 37.8352 8.89592 38.2218 8.4667C38.4043 8.26049 38.6282 8.09493 38.8789 7.98076C39.1295 7.86659 39.4014 7.80635 39.6768 7.80396C39.9696 7.80371 40.2592 7.86482 40.527 7.98336C40.7947 8.10189 41.0346 8.27521 41.2313 8.49215C41.6445 8.94501 41.8723 9.53659 41.8698 10.1496V11.253C41.8781 11.6804 41.7678 12.1018 41.5512 12.4703C41.3346 12.8388 41.0201 13.1401 40.6426 13.3407C40.6221 13.3523 40.5995 13.3595 40.5761 13.3621C40.5528 13.3646 40.5291 13.3624 40.5066 13.3555C40.4842 13.3486 40.4633 13.3372 40.4454 13.322C40.4274 13.3069 40.4127 13.2882 40.4022 13.2672C40.3917 13.2461 40.3856 13.2232 40.3842 13.1997C40.3828 13.1763 40.3862 13.1528 40.3942 13.1307C40.4022 13.1086 40.4146 13.0883 40.4307 13.0711C40.4467 13.0539 40.4661 13.0402 40.4876 13.0308C40.8082 12.8599 41.0752 12.6035 41.2589 12.2901C41.4427 11.9767 41.536 11.6185 41.5286 11.2553V10.1508C41.5306 9.62346 41.3341 9.11472 40.978 8.72579C40.8138 8.54409 40.6135 8.39877 40.3898 8.29917C40.1661 8.19957 39.924 8.1479 39.6791 8.14747C39.4517 8.15008 39.2274 8.20032 39.0206 8.29495C38.8138 8.38958 38.6291 8.52649 38.4785 8.69687C38.1511 9.06187 37.9732 9.53674 37.98 10.027V11.2727C37.98 12.3402 38.7816 13.2043 39.7566 13.2043H39.7659C39.8119 13.2043 39.856 13.2225 39.8885 13.2551C39.9211 13.2876 39.9393 13.3317 39.9393 13.3777C39.9393 13.4238 39.9211 13.4679 39.8885 13.5004C39.856 13.533 39.8119 13.5512 39.7659 13.5512L39.7566 13.5547Z" fill="black"/>
<path d="M39.7703 18.3351C38.743 18.3334 37.7336 18.0664 36.8399 17.5597C35.9462 17.0531 35.1986 16.3241 34.6696 15.4435C34.6487 15.4042 34.6437 15.3584 34.6556 15.3156C34.6675 15.2727 34.6954 15.2361 34.7336 15.2132C34.7717 15.1904 34.8172 15.183 34.8606 15.1927C34.904 15.2024 34.9421 15.2284 34.9668 15.2654C35.6935 16.4728 36.8484 17.3621 38.2014 17.756C39.5545 18.15 41.0062 18.0198 42.2675 17.3913C43.5288 16.7628 44.507 15.6821 45.0072 14.3647C45.5073 13.0472 45.4928 11.5897 44.9664 10.2825C44.44 8.97526 43.4405 7.91435 42.1669 7.31114C40.8933 6.70792 39.4392 6.60669 38.0944 7.0276C36.7495 7.44851 35.6126 8.36067 34.9101 9.58232C34.2077 10.804 33.9913 12.2454 34.3041 13.6195C34.3092 13.6417 34.3098 13.6648 34.306 13.6873C34.3022 13.7098 34.294 13.7313 34.2819 13.7507C34.2697 13.77 34.2539 13.7867 34.2353 13.8C34.2167 13.8132 34.1956 13.8226 34.1734 13.8277C34.1511 13.8328 34.1281 13.8334 34.1056 13.8296C34.0831 13.8258 34.0616 13.8176 34.0422 13.8055C34.0229 13.7933 34.0061 13.7775 33.9929 13.7589C33.9797 13.7403 33.9703 13.7192 33.9652 13.697C33.6908 12.4925 33.7977 11.2324 34.271 10.0913C34.7443 8.95017 35.5606 7.98439 36.6069 7.32764C37.6533 6.67089 38.8779 6.35566 40.1114 6.42557C41.3448 6.49547 42.5259 6.94707 43.4914 7.71785C44.4568 8.48863 45.1588 9.54046 45.5001 10.7278C45.8414 11.9151 45.8052 13.1791 45.3965 14.3449C44.9878 15.5107 44.2267 16.5207 43.2188 17.2349C42.2108 17.9492 41.0057 18.3324 39.7703 18.3316V18.3351Z" fill="black"/>
<path d="M17.6929 6.97832C17.6589 6.9783 17.6256 6.96828 17.5973 6.9495C17.5689 6.93073 17.5467 6.90403 17.5334 6.87272C17.5201 6.84141 17.5162 6.80688 17.5224 6.77342C17.5286 6.73997 17.5444 6.70906 17.568 6.68454L17.9936 6.2404C18.0259 6.20884 18.0692 6.1911 18.1143 6.19092C18.1594 6.19074 18.2028 6.20814 18.2353 6.23944C18.2678 6.27073 18.2868 6.31346 18.2884 6.35855C18.2899 6.40364 18.2738 6.44756 18.2435 6.48097L17.8178 6.92512C17.8018 6.94215 17.7825 6.95567 17.761 6.96483C17.7395 6.97399 17.7163 6.97858 17.6929 6.97832Z" fill="black"/>
<path d="M16.205 8.53056C16.1619 8.52978 16.1206 8.51286 16.0893 8.48314C16.0571 8.45046 16.0391 8.40642 16.0391 8.36053C16.0391 8.31465 16.0571 8.27061 16.0893 8.23793L16.515 7.79379C16.5301 7.77538 16.549 7.7603 16.5703 7.7495C16.5915 7.7387 16.6148 7.7324 16.6387 7.73101C16.6625 7.72962 16.6863 7.73316 16.7087 7.7414C16.7311 7.74965 16.7516 7.76243 16.7688 7.77895C16.7861 7.79546 16.7997 7.81535 16.8089 7.83738C16.8181 7.85941 16.8226 7.88309 16.8223 7.90696C16.8219 7.93082 16.8166 7.95435 16.8067 7.97607C16.7968 7.9978 16.7825 8.01725 16.7648 8.03321L16.3392 8.47735C16.3221 8.49558 16.3012 8.50981 16.278 8.51901C16.2548 8.52821 16.2299 8.53216 16.205 8.53056Z" fill="black"/>
<path d="M16.6196 7.00242C16.5762 7.00069 16.535 6.98298 16.5039 6.95269L16.0713 6.52705C16.0551 6.51103 16.0421 6.49196 16.0332 6.47093C16.0243 6.44991 16.0197 6.42734 16.0195 6.40452C16.0194 6.3817 16.0237 6.35907 16.0323 6.33792C16.0409 6.31677 16.0535 6.29752 16.0696 6.28127C16.0856 6.26502 16.1047 6.25208 16.1257 6.2432C16.1467 6.23431 16.1693 6.22966 16.1921 6.2295C16.2149 6.22934 16.2376 6.23367 16.2587 6.24226C16.2799 6.25084 16.2991 6.26351 16.3154 6.27953L16.7468 6.70517C16.7793 6.7377 16.7975 6.7818 16.7975 6.82777C16.7975 6.87375 16.7793 6.91785 16.7468 6.95038C16.7303 6.96737 16.7105 6.98078 16.6886 6.98973C16.6667 6.99869 16.6432 7.00301 16.6196 7.00242Z" fill="black"/>
<path d="M18.1337 8.48996C18.0879 8.48997 18.044 8.47213 18.0111 8.44022L17.5797 8.01574C17.5625 8.00001 17.5487 7.98098 17.5391 7.9598C17.5294 7.93862 17.5241 7.91571 17.5235 7.89243C17.5229 7.86916 17.527 7.846 17.5355 7.82434C17.544 7.80268 17.5568 7.78295 17.5731 7.76633C17.5894 7.74972 17.6089 7.73655 17.6304 7.72762C17.6519 7.71869 17.675 7.71418 17.6982 7.71436C17.7215 7.71454 17.7445 7.7194 17.7659 7.72865C17.7873 7.7379 17.8065 7.75136 17.8226 7.76822L18.2552 8.19386C18.2714 8.20989 18.2843 8.22898 18.2931 8.25003C18.3019 8.27107 18.3064 8.29365 18.3064 8.31646C18.3064 8.33927 18.3019 8.36185 18.2931 8.3829C18.2843 8.40394 18.2714 8.42304 18.2552 8.43907C18.2229 8.47122 18.1793 8.48949 18.1337 8.48996Z" fill="black"/>
<path d="M84.6504 7.75559C84.6164 7.75588 84.583 7.7461 84.5545 7.72747C84.5261 7.70885 84.5038 7.68221 84.4904 7.65091C84.477 7.61962 84.4732 7.58507 84.4795 7.55162C84.4857 7.51817 84.5017 7.48732 84.5255 7.46296L84.9511 7.01766C84.9669 7.00118 84.9858 6.98797 85.0067 6.97879C85.0276 6.96961 85.0501 6.96463 85.0729 6.96415C85.0958 6.96367 85.1185 6.96768 85.1397 6.97597C85.161 6.98426 85.1804 6.99665 85.1969 7.01245C85.2134 7.02825 85.2266 7.04714 85.2358 7.06804C85.245 7.08894 85.2499 7.11144 85.2504 7.13426C85.2509 7.15709 85.2469 7.17978 85.2386 7.20105C85.2303 7.22233 85.2179 7.24175 85.2021 7.25823L84.7765 7.70238C84.7602 7.71933 84.7406 7.73279 84.7189 7.74194C84.6972 7.75108 84.6739 7.75573 84.6504 7.75559Z" fill="black"/>
<path d="M83.1616 9.31112C83.1182 9.31015 83.0769 9.29279 83.0459 9.26254C83.0126 9.23079 82.9933 9.18712 82.9922 9.14114C82.9912 9.09516 83.0084 9.05063 83.0401 9.01734L83.4657 8.57319C83.4978 8.5413 83.541 8.52319 83.5863 8.52271C83.6315 8.52224 83.6751 8.53945 83.7078 8.57066C83.7406 8.60188 83.7598 8.64464 83.7615 8.68983C83.7631 8.73503 83.7471 8.77908 83.7167 8.81262L83.2911 9.25676C83.2745 9.27441 83.2544 9.28837 83.2321 9.29774C83.2098 9.30711 83.1858 9.31167 83.1616 9.31112Z" fill="black"/>
<path d="M83.5751 7.77969C83.5293 7.77971 83.4854 7.76186 83.4525 7.72995L83.0211 7.30431C83.0039 7.28858 82.9901 7.26956 82.9805 7.24838C82.9708 7.22719 82.9655 7.20428 82.9649 7.18101C82.9643 7.15774 82.9684 7.13458 82.9769 7.11292C82.9854 7.09125 82.9982 7.07152 83.0145 7.05491C83.0308 7.03829 83.0503 7.02513 83.0718 7.0162C83.0933 7.00727 83.1164 7.00276 83.1397 7.00293C83.1629 7.00311 83.1859 7.00797 83.2073 7.01722C83.2287 7.02648 83.2479 7.03993 83.264 7.0568L83.6966 7.48244C83.7291 7.51497 83.7473 7.55906 83.7473 7.60504C83.7473 7.65101 83.7291 7.69511 83.6966 7.72764C83.6644 7.76012 83.6208 7.77879 83.5751 7.77969Z" fill="black"/>
<path d="M85.0922 9.26829C85.0488 9.26656 85.0077 9.24885 84.9766 9.21856L84.544 8.79292C84.5277 8.7769 84.5148 8.75783 84.5059 8.7368C84.497 8.71578 84.4924 8.69321 84.4922 8.67039C84.492 8.64756 84.4964 8.62493 84.505 8.60379C84.5135 8.58264 84.5262 8.56339 84.5422 8.54714C84.5583 8.53088 84.5773 8.51795 84.5983 8.50906C84.6194 8.50018 84.6419 8.49553 84.6648 8.49537C84.6876 8.4952 84.7102 8.49954 84.7314 8.50813C84.7525 8.51671 84.7718 8.52938 84.788 8.5454L85.2194 8.97104C85.2519 9.00357 85.2702 9.04767 85.2702 9.09364C85.2702 9.13962 85.2519 9.18371 85.2194 9.21624C85.203 9.23324 85.1832 9.24664 85.1613 9.2556C85.1394 9.26456 85.1159 9.26888 85.0922 9.26829Z" fill="black"/>
<path d="M86.5066 75.7895C86.4612 75.7895 86.4175 75.7717 86.3851 75.7399C86.3527 75.7081 86.334 75.6648 86.3331 75.6194L86.3203 75.0041C86.3199 74.9813 86.3239 74.9587 86.3322 74.9374C86.3405 74.9162 86.3529 74.8968 86.3687 74.8804C86.3845 74.864 86.4034 74.8508 86.4242 74.8417C86.4451 74.8325 86.4676 74.8276 86.4904 74.8271C86.5358 74.8271 86.5794 74.8449 86.6118 74.8767C86.6443 74.9085 86.663 74.9518 86.6639 74.9972L86.6766 75.6125C86.6772 75.6352 86.6733 75.6579 86.6652 75.6791C86.657 75.7003 86.6447 75.7197 86.629 75.7361C86.6133 75.7526 86.5945 75.7658 86.5737 75.7749C86.5529 75.7841 86.5305 75.789 86.5077 75.7895H86.5066Z" fill="black"/>
<path d="M86.5535 77.9419C86.5084 77.9419 86.465 77.9242 86.4328 77.8926C86.4006 77.8611 86.3821 77.8181 86.3811 77.773L86.3672 77.1577C86.3666 77.1349 86.3706 77.1121 86.3788 77.0908C86.3871 77.0695 86.3994 77.0501 86.4153 77.0336C86.4311 77.0172 86.45 77.004 86.471 76.9949C86.4919 76.9858 86.5145 76.981 86.5373 76.9807C86.5827 76.9807 86.6263 76.9985 86.6588 77.0303C86.6912 77.0621 86.7099 77.1053 86.7108 77.1507L86.7247 77.7661C86.7251 77.7888 86.7211 77.8115 86.7128 77.8327C86.7045 77.8539 86.6921 77.8733 86.6763 77.8898C86.6605 77.9062 86.6416 77.9194 86.6208 77.9285C86.5999 77.9376 86.5774 77.9426 86.5546 77.943L86.5535 77.9419Z" fill="black"/>
<path d="M85.1618 76.5692C85.1158 76.5692 85.0716 76.5509 85.0391 76.5183C85.0066 76.4858 84.9883 76.4417 84.9883 76.3957C84.9883 76.3496 85.0066 76.3055 85.0391 76.273C85.0716 76.2404 85.1158 76.2222 85.1618 76.2222H85.7678C85.8139 76.2222 85.858 76.2404 85.8905 76.273C85.9231 76.3055 85.9413 76.3496 85.9413 76.3957C85.9413 76.4417 85.9231 76.4858 85.8905 76.5183C85.858 76.5509 85.8139 76.5692 85.7678 76.5692H85.1618Z" fill="black"/>
<path d="M87.279 76.553C87.2333 76.5527 87.1895 76.5345 87.157 76.5022C87.1246 76.47 87.1061 76.4263 87.1055 76.3806C87.1052 76.3578 87.1094 76.3351 87.1179 76.314C87.1265 76.2928 87.1391 76.2735 87.1551 76.2573C87.1712 76.241 87.1903 76.2281 87.2113 76.2193C87.2324 76.2105 87.255 76.206 87.2778 76.206L87.8839 76.2002C87.9299 76.2002 87.9741 76.2185 88.0066 76.251C88.0391 76.2835 88.0574 76.3277 88.0574 76.3737C88.0574 76.4197 88.0391 76.4638 88.0066 76.4964C87.9741 76.5289 87.9299 76.5472 87.8839 76.5472L87.2778 76.553H87.279Z" fill="black"/>
<path d="M8.82269 18.4299C8.65179 18.4297 8.4824 18.398 8.32303 18.3363C8.14861 18.2682 7.98951 18.1661 7.85506 18.0358C7.7206 17.9055 7.61349 17.7497 7.53999 17.5775C7.39103 17.2331 7.38265 16.844 7.51664 16.4935C7.65063 16.143 7.91638 15.8587 8.25711 15.7015C8.42366 15.6261 8.6036 15.5848 8.78635 15.5801C8.96909 15.5753 9.15095 15.6071 9.3212 15.6737C9.49572 15.7416 9.6549 15.8437 9.78937 15.974C9.92385 16.1043 10.0309 16.2602 10.1042 16.4324C10.2535 16.7768 10.262 17.166 10.128 17.5166C9.994 17.8672 9.72806 18.1515 9.38712 18.3085C9.20967 18.3884 9.0173 18.4298 8.82269 18.4299ZM8.82269 15.927C8.67706 15.927 8.53312 15.9581 8.40053 16.0184C8.14256 16.1377 7.94156 16.3533 7.8406 16.619C7.73964 16.8847 7.74674 17.1793 7.86038 17.4399C7.9146 17.5709 7.99469 17.6896 8.09584 17.789C8.197 17.8884 8.31714 17.9663 8.4491 18.0182C8.57659 18.0681 8.71279 18.092 8.84967 18.0884C8.98654 18.0849 9.12131 18.0539 9.24602 17.9974C9.5042 17.8783 9.70539 17.6627 9.80639 17.3969C9.90738 17.1311 9.90012 16.8364 9.78617 16.5759C9.7313 16.4459 9.65092 16.3283 9.5498 16.23C9.44868 16.1316 9.32886 16.0546 9.19743 16.0033C9.07763 15.9566 8.95014 15.9326 8.82153 15.9328L8.82269 15.927Z" fill="black"/>
<path d="M91.7743 71.7691C91.6061 71.7688 91.4393 71.7371 91.2828 71.6754C91.1115 71.6089 90.9553 71.5087 90.8234 71.3808C90.6914 71.2528 90.5865 71.0998 90.5148 70.9306C90.3682 70.5921 90.3598 70.2098 90.4914 69.8653C90.6231 69.5208 90.8843 69.2414 91.2192 69.0869C91.3823 69.0138 91.5583 68.9738 91.737 68.9692C91.9157 68.9646 92.0935 68.9956 92.2601 69.0603C92.4316 69.1268 92.5879 69.227 92.72 69.355C92.8521 69.4829 92.9573 69.636 93.0293 69.8052C93.1759 70.1436 93.1842 70.526 93.0526 70.8705C92.921 71.215 92.6598 71.4944 92.3249 71.6488C92.1518 71.7271 91.9642 71.768 91.7743 71.7691ZM91.3614 69.4038C91.1096 69.5204 90.9133 69.7308 90.8145 69.9902C90.7157 70.2495 90.7223 70.5372 90.8328 70.7918C90.8869 70.9191 90.9659 71.0342 91.0652 71.1303C91.1645 71.2265 91.2822 71.3017 91.4112 71.3516C91.5357 71.4004 91.6688 71.4237 91.8025 71.4201C91.9362 71.4165 92.0678 71.3862 92.1896 71.3308C92.4412 71.214 92.6373 71.0035 92.7358 70.7442C92.8343 70.4848 92.8276 70.1972 92.717 69.9428C92.663 69.8157 92.5839 69.7007 92.4846 69.6048C92.3852 69.5088 92.2676 69.4338 92.1387 69.3842C92.0143 69.3355 91.8815 69.3121 91.7481 69.3155C91.6146 69.3189 91.4831 69.3489 91.3614 69.4038Z" fill="black"/>
<path d="M13.5937 91.0571C13.4068 91.0568 13.2217 91.0215 13.0478 90.953C12.857 90.8792 12.683 90.7678 12.536 90.6256C12.3889 90.4834 12.2719 90.3131 12.1919 90.1248C12.0288 89.7482 12.0195 89.3226 12.1661 88.9392C12.3126 88.5558 12.6033 88.2449 12.9761 88.073C13.158 87.9907 13.3546 87.9456 13.5542 87.9404C13.7539 87.9353 13.9525 87.9701 14.1385 88.0429C14.3293 88.117 14.5034 88.2285 14.6504 88.371C14.7974 88.5134 14.9143 88.6838 14.9944 88.8722C15.1578 89.2486 15.1674 89.6739 15.021 90.0572C14.8746 90.4405 14.584 90.7513 14.2114 90.9229C14.0173 91.0109 13.8068 91.0566 13.5937 91.0571ZM13.5937 88.2812C13.4301 88.2816 13.2685 88.3167 13.1195 88.3841C12.8297 88.5183 12.604 88.7606 12.4905 89.0591C12.377 89.3576 12.3848 89.6886 12.5123 89.9814C12.5741 90.1273 12.6645 90.2594 12.7781 90.3698C12.8917 90.4803 13.0263 90.5669 13.1739 90.6245C13.3173 90.6805 13.4705 90.7073 13.6244 90.7033C13.7783 90.6994 13.9299 90.6647 14.0703 90.6014C14.3598 90.467 14.5853 90.2246 14.6986 89.9262C14.8118 89.6277 14.8039 89.2967 14.6763 89.0041C14.6149 88.8579 14.5247 88.7257 14.411 88.6152C14.2973 88.5047 14.1625 88.4182 14.0147 88.361C13.8798 88.3102 13.7367 88.2851 13.5926 88.287L13.5937 88.2812Z" fill="black"/>
<path d="M11.772 10.7823C11.6532 10.7824 11.5355 10.76 11.425 10.7163C11.3049 10.6697 11.1954 10.5996 11.1028 10.51C11.0102 10.4204 10.9365 10.3132 10.886 10.1947C10.7834 9.9575 10.7777 9.68959 10.87 9.44819C10.9622 9.20679 11.1452 9.01104 11.3799 8.90275C11.4948 8.8506 11.6191 8.82208 11.7452 8.8189C11.8714 8.81572 11.9969 8.83794 12.1144 8.88425C12.2344 8.93103 12.3438 9.00125 12.4364 9.09081C12.5289 9.18038 12.6027 9.28749 12.6533 9.40589C12.7556 9.64313 12.7612 9.91092 12.669 10.1522C12.5767 10.3936 12.3939 10.5893 12.1595 10.6978C12.0374 10.7522 11.9056 10.7809 11.772 10.7823ZM11.772 9.16299C11.6866 9.16279 11.6022 9.18093 11.5245 9.2162C11.3728 9.2868 11.2546 9.41383 11.1952 9.57025C11.1358 9.72666 11.1398 9.9001 11.2064 10.0536C11.2391 10.1299 11.2866 10.1989 11.3461 10.2567C11.4057 10.3145 11.4762 10.3598 11.5534 10.3902C11.6275 10.4189 11.7066 10.4326 11.786 10.4304C11.8654 10.4282 11.9436 10.4102 12.016 10.3775C12.1679 10.3071 12.2862 10.18 12.3455 10.0235C12.4047 9.86689 12.4002 9.69335 12.333 9.54006C12.2867 9.42842 12.2084 9.333 12.108 9.26588C12.0075 9.19876 11.8894 9.16296 11.7685 9.16299H11.772Z" fill="black"/>
<path d="M69.0328 15.2795C68.9988 15.2794 68.9655 15.2694 68.9371 15.2506C68.9087 15.2319 68.8865 15.2052 68.8732 15.1738C68.8599 15.1425 68.8561 15.108 68.8622 15.0746C68.8684 15.0411 68.8843 15.0102 68.9078 14.9857L69.3335 14.5415C69.3472 14.5199 69.3656 14.5015 69.3873 14.4878C69.409 14.4741 69.4334 14.4654 69.4589 14.4622C69.4843 14.4591 69.5102 14.4617 69.5345 14.4697C69.5589 14.4778 69.5811 14.4911 69.5997 14.5088C69.6183 14.5265 69.6327 14.5481 69.6419 14.5721C69.6511 14.596 69.6549 14.6217 69.653 14.6473C69.6511 14.6729 69.6436 14.6977 69.6309 14.72C69.6183 14.7423 69.6008 14.7616 69.5799 14.7763L69.1542 15.2216C69.123 15.2562 69.0793 15.277 69.0328 15.2795Z" fill="black"/>
<path d="M67.542 16.8338C67.499 16.8325 67.4579 16.8156 67.4263 16.7864C67.4101 16.7702 67.3972 16.7511 67.3883 16.7299C67.3795 16.7088 67.375 16.6861 67.375 16.6632C67.375 16.6403 67.3795 16.6176 67.3883 16.5965C67.3972 16.5753 67.4101 16.5561 67.4263 16.54L67.852 16.0959C67.8842 16.0643 67.9275 16.0466 67.9726 16.0464C68.0177 16.0462 68.0611 16.0636 68.0936 16.0949C68.1261 16.1262 68.1452 16.1689 68.1467 16.214C68.1482 16.2591 68.1321 16.303 68.1018 16.3364L67.6762 16.7806C67.6591 16.7988 67.6382 16.813 67.615 16.8222C67.5918 16.8314 67.5669 16.8354 67.542 16.8338Z" fill="black"/>
<path d="M67.9633 15.3025C67.9198 15.3013 67.8785 15.2835 67.8476 15.2528L67.4151 14.8283C67.3822 14.796 67.3636 14.7519 67.3633 14.7058C67.363 14.6597 67.381 14.6154 67.4133 14.5825C67.4457 14.5497 67.4898 14.5311 67.5359 14.5308C67.582 14.5304 67.6263 14.5484 67.6591 14.5808L68.0905 15.0053C68.1148 15.0291 68.1315 15.0594 68.1386 15.0926C68.1458 15.1258 68.143 15.1604 68.1307 15.1921C68.1184 15.2237 68.0971 15.251 68.0694 15.2707C68.0417 15.2903 68.0088 15.3014 67.9749 15.3025H67.9633Z" fill="black"/>
<path d="M69.4719 16.7912C69.4284 16.7899 69.3871 16.7721 69.3562 16.7414L68.9248 16.3158C68.9066 16.3004 68.8917 16.2813 68.8811 16.2599C68.8706 16.2384 68.8645 16.215 68.8635 16.1912C68.8624 16.1673 68.8662 16.1434 68.8748 16.1211C68.8834 16.0988 68.8964 16.0785 68.9132 16.0615C68.93 16.0444 68.9501 16.0311 68.9723 16.0222C68.9945 16.0133 69.0183 16.0091 69.0422 16.0099C69.0661 16.0106 69.0896 16.0163 69.1112 16.0265C69.1328 16.0368 69.152 16.0514 69.1677 16.0694L69.6003 16.4939C69.6328 16.5264 69.651 16.5705 69.651 16.6165C69.651 16.6625 69.6328 16.7066 69.6003 16.7391C69.5837 16.7563 69.5637 16.7698 69.5416 16.7787C69.5195 16.7877 69.4958 16.7919 69.4719 16.7912Z" fill="black"/>
</svg>
