<svg width="97" height="97" viewBox="0 0 97 97" fill="none" xmlns="http://www.w3.org/2000/svg">
<path d="M79.903 26.3507C77.2028 16.2608 86.6964 10.11 83.9811 5.07783C79.4329 -3.3667 44.0893 -2.25859 21.596 17.9652C18.0726 21.1344 -5.98505 43.52 2.46875 67.9516C10.1167 90.0489 40.1119 101.505 63.322 93.6233C87.8161 85.3038 101.803 56.4375 95.1282 43.2108C91.4044 35.8454 82.3253 35.3997 79.903 26.3507Z" fill="#CADDFF"/>
<path d="M93.2418 74.7425C93.1342 74.3499 92.8963 74.0057 92.5672 73.7662C92.2381 73.5268 91.8374 73.4064 91.4308 73.4248L89.7345 73.5024C89.4489 72.8995 89.1127 72.3219 88.7294 71.7759L89.6268 70.339C89.8422 69.9937 89.9337 69.5854 89.8864 69.1812C89.839 68.777 89.6556 68.4009 89.3663 68.1147C89.0765 67.8291 88.6982 67.6506 88.2936 67.6085C87.8889 67.5664 87.482 67.6633 87.1397 67.8831L85.7085 68.799C85.1579 68.4218 84.577 68.0911 83.9717 67.8101L84.0295 66.1127C84.0439 65.7058 83.9192 65.3061 83.6762 64.9795C83.4331 64.6529 83.0861 64.4187 82.6922 64.3156C82.2985 64.2127 81.8815 64.2468 81.5097 64.4121C81.1379 64.5775 80.8334 64.8644 80.6462 65.2257L79.8658 66.731C79.2008 66.6795 78.5326 66.6841 77.8684 66.7449L77.0706 65.2466C76.8807 64.8869 76.5742 64.6025 76.2014 64.44C75.8285 64.2776 75.4115 64.2468 75.0188 64.3527C74.6262 64.46 74.2818 64.6979 74.0423 65.027C73.8028 65.3561 73.6825 65.757 73.7011 66.1636L73.7775 67.8599C73.1752 68.1458 72.598 68.482 72.0523 68.865L70.6188 67.9676C70.2735 67.7522 69.8652 67.6607 69.461 67.7081C69.0568 67.7554 68.6807 67.9388 68.3945 68.2281C68.1087 68.5178 67.9301 68.8961 67.888 69.3008C67.8459 69.7055 67.9429 70.1125 68.1629 70.4548L69.0776 71.8859C68.7008 72.4365 68.3705 73.0174 68.09 73.6228L66.3913 73.5649C65.9835 73.5483 65.5822 73.6715 65.2539 73.914C64.9256 74.1566 64.69 74.504 64.5862 74.8988C64.4827 75.2923 64.5164 75.7094 64.6816 76.0813C64.8468 76.4532 65.1337 76.7577 65.4951 76.9448L67.0004 77.7252C66.9493 78.3902 66.9543 79.0584 67.0154 79.7226L65.5102 80.5204C65.1509 80.7117 64.8675 81.0194 64.7063 81.3931C64.5451 81.7668 64.5158 82.1842 64.6232 82.5768C64.7308 82.9693 64.9687 83.3136 65.2977 83.553C65.6268 83.7925 66.0276 83.9129 66.4342 83.8945L68.1305 83.8181C68.4168 84.4202 68.753 84.9973 69.1355 85.5433L68.2393 86.9814C68.0234 87.3265 67.9314 87.7348 67.9786 88.1391C68.0257 88.5434 68.2092 88.9196 68.4987 89.2057C68.7888 89.4912 69.1672 89.6696 69.572 89.7117C69.9768 89.7538 70.3839 89.657 70.7265 89.4373L72.1576 88.5214C72.7081 88.8985 73.289 89.2289 73.8945 89.5091L73.8354 91.2077C73.8214 91.6144 73.9461 92.0138 74.1892 92.3402C74.4322 92.6666 74.7791 92.9006 75.1728 93.0036C75.5658 93.1072 75.9824 93.0741 76.3542 92.9098C76.7259 92.7455 77.0308 92.4597 77.2188 92.0993L77.9981 90.5941C78.6631 90.6451 79.3313 90.6401 79.9954 90.579L80.7932 92.0843C80.9862 92.4421 81.295 92.7239 81.669 92.8833C82.0431 93.0428 82.4601 93.0705 82.852 92.962C83.2429 92.8537 83.5857 92.6162 83.8243 92.2882C84.063 91.9601 84.1835 91.5609 84.1662 91.1556L84.0886 89.4593C84.6912 89.1733 85.2687 88.8371 85.815 88.4543L87.252 89.3505C87.597 89.5664 88.0053 89.6584 88.4097 89.6112C88.814 89.5641 89.1902 89.3806 89.4763 89.0911C89.7618 88.801 89.9402 88.4226 89.9822 88.0178C90.0243 87.613 89.9276 87.2059 89.7079 86.8633L88.7978 85.4356C89.1752 84.8852 89.5059 84.3043 89.7866 83.6988L91.4841 83.7578C91.8908 83.7728 92.2906 83.649 92.6178 83.4069C92.945 83.1647 93.1801 82.8185 93.2846 82.4251C93.3876 82.0312 93.3536 81.6141 93.1882 81.2421C93.0228 80.8701 92.7359 80.5654 92.3745 80.3779L90.8692 79.5987C90.9207 78.9337 90.9161 78.2655 90.8553 77.6013L92.3537 76.8035C92.7142 76.6124 92.9987 76.3039 93.1602 75.9292C93.3217 75.5544 93.3505 75.1358 93.2418 74.7425ZM81.4486 87.8394C79.633 88.3366 77.7108 88.2842 75.925 87.6889C74.1392 87.0936 72.57 85.9821 71.4159 84.495C70.2617 83.0079 69.5745 81.212 69.441 79.3343C69.3075 77.4566 69.7338 75.5816 70.666 73.9462C71.5982 72.3108 72.9944 70.9885 74.678 70.1466C76.3616 69.3047 78.2571 68.9809 80.1248 69.2162C81.9924 69.4515 83.7484 70.2354 85.1705 71.4686C86.5927 72.7019 87.6172 74.3292 88.1146 76.1447C88.7813 78.5795 88.4535 81.1794 87.2034 83.3725C85.9534 85.5657 83.8833 87.1724 81.4486 87.8394Z" fill="white"/>
<path d="M43.2901 9.37125C43.2295 9.14865 43.0949 8.95336 42.9084 8.81759C42.7219 8.68182 42.4947 8.61368 42.2642 8.62441L41.302 8.66841C41.1397 8.32639 40.9487 7.9987 40.7312 7.68883L41.2406 6.8783C41.3636 6.68179 41.4157 6.44917 41.3883 6.21899C41.3609 5.98881 41.2557 5.7749 41.0901 5.61272C40.9263 5.4503 40.712 5.3485 40.4826 5.32408C40.2532 5.29967 40.0224 5.3541 39.828 5.4784L39.0175 5.9983C38.7062 5.78412 38.3773 5.59665 38.0344 5.43788L38.068 4.47451C38.0758 4.24398 38.005 4.01766 37.8672 3.83271C37.7293 3.64776 37.5327 3.51517 37.3096 3.45672C37.0868 3.39858 36.8508 3.41792 36.6404 3.51154C36.43 3.60517 36.2577 3.76753 36.1517 3.97198L35.7105 4.82535C35.3331 4.79565 34.9539 4.79836 34.577 4.83345L34.1242 3.9824C34.0157 3.77875 33.8412 3.61806 33.6293 3.52673C33.4174 3.43541 33.1808 3.41888 32.9582 3.47987C32.7356 3.54088 32.5404 3.6758 32.4047 3.86245C32.269 4.0491 32.2008 4.27639 32.2114 4.50693L32.2554 5.46914C31.9134 5.6311 31.5857 5.82167 31.2758 6.03882L30.4653 5.53051C30.2697 5.4081 30.0382 5.35597 29.809 5.3827C29.5798 5.40943 29.3665 5.51343 29.2043 5.67756C29.0418 5.84161 28.94 6.05615 28.9158 6.2858C28.8916 6.51545 28.9464 6.7465 29.0712 6.94082L29.5899 7.75135C29.3757 8.06266 29.1883 8.39151 29.0295 8.7344L28.0661 8.70083C27.8356 8.69304 27.6093 8.76386 27.4243 8.90169C27.2394 9.03951 27.1068 9.23612 27.0483 9.45925C26.9904 9.68208 27.0098 9.91797 27.1034 10.1283C27.197 10.3387 27.3593 10.511 27.5636 10.6171L28.4169 11.0595C28.3873 11.4365 28.39 11.8153 28.4251 12.1919L27.5752 12.6446C27.3713 12.7529 27.2104 12.9274 27.1188 13.1393C27.0273 13.3512 27.0106 13.588 27.0715 13.8106C27.1326 14.0332 27.2676 14.2284 27.4541 14.3643C27.6407 14.5002 27.8679 14.5687 28.0985 14.5586L29.0607 14.5146C29.2227 14.8562 29.4133 15.1835 29.6304 15.493L29.1221 16.3036C28.9997 16.4992 28.9476 16.7307 28.9743 16.9599C29.001 17.1891 29.105 17.4023 29.2692 17.5645C29.4333 17.7268 29.6477 17.8286 29.8773 17.853C30.1068 17.8774 30.3378 17.823 30.5324 17.6988L31.343 17.1801C31.6548 17.3934 31.9836 17.5808 32.326 17.7405L32.2924 18.7027C32.2846 18.9334 32.3554 19.1599 32.4932 19.345C32.631 19.5302 32.8276 19.663 33.0508 19.7217C33.2738 19.7795 33.5098 19.7599 33.7202 19.6661C33.9305 19.5723 34.1028 19.4098 34.2087 19.2053L34.6511 18.353C35.0281 18.3816 35.4069 18.3789 35.7835 18.3449L36.227 19.2041C36.3354 19.4078 36.51 19.5684 36.7219 19.6598C36.9338 19.7511 37.1704 19.7676 37.393 19.7066C37.6156 19.6457 37.811 19.5108 37.9469 19.3242C38.0828 19.1375 38.1513 18.9102 38.141 18.6796L38.097 17.7185C38.4386 17.5561 38.7659 17.3652 39.0754 17.1477L39.8859 17.6572C40.0819 17.7791 40.3136 17.8308 40.5429 17.8039C40.7722 17.777 40.9855 17.673 41.148 17.5089C41.3101 17.3449 41.4115 17.1306 41.4357 16.9012C41.4599 16.6719 41.4054 16.4411 41.2812 16.2468L40.7624 15.4363C40.9757 15.1245 41.1632 14.7957 41.3229 14.4533L42.2851 14.4868C42.5157 14.4947 42.7422 14.4239 42.9274 14.2861C43.1125 14.1483 43.2453 13.9516 43.304 13.7284C43.3619 13.5056 43.3425 13.2697 43.2489 13.0593C43.1553 12.849 42.9931 12.6767 42.7887 12.5705L41.9354 12.1282C41.9645 11.7512 41.9618 11.3724 41.9273 10.9958L42.7772 10.543C42.9839 10.436 43.1477 10.2612 43.241 10.0479C43.3344 9.83464 43.3517 9.59577 43.2901 9.37125ZM36.6033 16.798C35.5737 17.0812 34.4832 17.0527 33.4698 16.716C32.4565 16.3792 31.5658 15.7494 30.9105 14.9063C30.2552 14.0632 29.8647 13.0446 29.7885 11.9795C29.7123 10.9143 29.9538 9.85055 30.4824 8.92273C31.011 7.9949 31.803 7.24474 32.7581 6.76719C33.7132 6.28963 34.7885 6.10614 35.848 6.23995C36.9074 6.37375 37.9033 6.81883 38.7097 7.51885C39.5161 8.21888 40.0967 9.14239 40.378 10.1725C40.7542 11.5522 40.5674 13.0249 39.8589 14.267C39.1503 15.5092 37.9777 16.4195 36.5986 16.798H36.6033Z" fill="white"/>
<path d="M82.8888 61.7405L65.3594 45.8079L92.5086 34.4976L82.8888 61.7405Z" fill="#99B9FF"/>
<path d="M79.1955 48.354C78.1911 47.4005 76.8555 46.8747 75.4707 46.8874C74.0858 46.9002 72.7601 47.4505 71.7734 48.4223L50.262 69.826L34.9975 70.0356C33.62 70.0513 32.3026 70.6019 31.3235 71.571L17.0154 85.8026C16.8701 85.9492 16.7333 86.1038 16.6055 86.2658C19.5191 88.3578 22.6486 90.1314 25.9404 91.5562L37.3029 80.2505L52.5674 80.0444C53.9447 80.0289 55.2621 79.4788 56.2414 78.5102L79.2662 55.5989C79.7478 55.1245 80.1291 54.5579 80.3871 53.933C80.6451 53.308 80.7747 52.6376 80.7681 51.9615C80.7616 51.2854 80.6189 50.6176 80.3487 49.9978C80.0785 49.378 79.6864 48.819 79.1955 48.354Z" fill="#99B9FF"/>
<path d="M1.94458 39.2255L57.4564 18.0869L18.1887 70.2084C18.1887 70.2084 1.32394 65.5769 5.03384 55.5483C8.74374 45.5198 8.49827 44.715 5.81658 44.7347C3.16732 44.7544 1.66668 43.4194 0.896681 41.9338C0.772015 41.6897 0.700283 41.422 0.686175 41.1482C0.672067 40.8745 0.715904 40.6009 0.814815 40.3452C0.913725 40.0896 1.06548 39.8577 1.26017 39.6647C1.45485 39.4718 1.68807 39.3221 1.94458 39.2255Z" fill="white"/>
<path d="M13.8262 34.8741C13.7856 34.8741 13.7463 34.8599 13.7151 34.834C13.6839 34.8081 13.6627 34.7721 13.6553 34.7322C13.6479 34.6923 13.6546 34.6511 13.6744 34.6156C13.6942 34.5802 13.7258 34.5528 13.7637 34.5383L29.0699 28.7094C29.0914 28.7002 29.1146 28.6954 29.138 28.6953C29.1614 28.6952 29.1845 28.6999 29.2061 28.709C29.2277 28.7181 29.2472 28.7315 29.2634 28.7483C29.2797 28.7652 29.2924 28.7851 29.3007 28.807C29.3091 28.8289 29.3129 28.8522 29.312 28.8756C29.3112 28.899 29.3056 28.9219 29.2956 28.9431C29.2856 28.9643 29.2714 28.9832 29.2539 28.9988C29.2364 29.0143 29.216 29.0262 29.1938 29.0336L13.8876 34.8625C13.868 34.8701 13.8472 34.8741 13.8262 34.8741Z" fill="black"/>
<path d="M3.74026 38.716C3.69968 38.716 3.66037 38.7018 3.62915 38.6759C3.59793 38.65 3.57677 38.614 3.56934 38.5741C3.56191 38.5342 3.56869 38.4929 3.58849 38.4575C3.60829 38.4221 3.63986 38.3947 3.67774 38.3802L6.42426 37.3381C6.44563 37.3299 6.46839 37.3261 6.49124 37.3267C6.51409 37.3274 6.53658 37.3325 6.55744 37.3419C6.5783 37.3513 6.59712 37.3646 6.61281 37.3813C6.6285 37.3979 6.64076 37.4174 6.6489 37.4388C6.65703 37.4602 6.66088 37.4829 6.66022 37.5058C6.65956 37.5286 6.65441 37.5511 6.64505 37.572C6.6357 37.5928 6.62233 37.6116 6.6057 37.6273C6.58908 37.643 6.56952 37.6553 6.54816 37.6634L3.80163 38.7055C3.78205 38.713 3.7612 38.7165 3.74026 38.716Z" fill="black"/>
<path d="M3.73845 44.5957C3.71918 44.5955 3.70006 44.5924 3.68172 44.5865C2.40222 44.1483 1.3463 43.2246 0.741817 42.0148C0.606034 41.7516 0.527386 41.4626 0.511024 41.1669C0.494662 40.8712 0.540954 40.5754 0.64687 40.2988C0.754114 40.0177 0.9195 39.7625 1.13221 39.5498C1.34491 39.3371 1.60014 39.1717 1.88119 39.0645L3.67592 38.3813C3.69743 38.3721 3.72058 38.3673 3.74399 38.3672C3.7674 38.3671 3.79058 38.3718 3.81214 38.3809C3.8337 38.39 3.85319 38.4034 3.86945 38.4202C3.88571 38.4371 3.8984 38.457 3.90676 38.4789C3.91511 38.5007 3.91896 38.5241 3.91808 38.5475C3.91719 38.5708 3.91158 38.5938 3.9016 38.615C3.89161 38.6362 3.87744 38.6551 3.85995 38.6706C3.84246 38.6862 3.82201 38.6981 3.79982 38.7055L2.00508 39.3887C1.7697 39.4786 1.55594 39.6172 1.37776 39.7954C1.19959 39.9735 1.06101 40.1873 0.97108 40.4227C0.882899 40.6536 0.844337 40.9004 0.857903 41.1472C0.871469 41.394 0.93686 41.6352 1.04982 41.855C1.61451 42.9847 2.59983 43.8478 3.79403 44.2588C3.83762 44.2736 3.87356 44.305 3.89397 44.3463C3.91438 44.3875 3.91758 44.4352 3.90287 44.4788C3.89076 44.5128 3.8685 44.5422 3.83909 44.5632C3.80967 44.5841 3.77454 44.5955 3.73845 44.5957Z" fill="black"/>
<path d="M5.03311 55.722C5.01247 55.7221 4.99202 55.7181 4.9729 55.7104C4.92982 55.6945 4.89479 55.6622 4.87548 55.6205C4.85617 55.5788 4.85414 55.5312 4.86984 55.4881C7.13816 49.3512 8.10269 46.2735 7.45195 45.3461C7.19027 44.9732 6.63216 44.9014 5.817 44.9084C5.77103 44.9084 5.72691 44.8903 5.69418 44.858C5.66146 44.8257 5.64277 44.7818 5.64216 44.7358C5.64185 44.713 5.64609 44.6903 5.65462 44.6691C5.66316 44.6479 5.67581 44.6286 5.69186 44.6124C5.70792 44.5961 5.72704 44.5832 5.74812 44.5744C5.76921 44.5655 5.79183 44.561 5.81469 44.561C6.741 44.5529 7.38711 44.649 7.73563 45.1469C8.41995 46.1207 7.87342 48.3693 5.19637 55.6085C5.18377 55.6417 5.16143 55.6702 5.13229 55.6905C5.10316 55.7107 5.06859 55.7217 5.03311 55.722Z" fill="black"/>
<path d="M11.3451 41.3987C11.3058 41.3986 11.2678 41.3852 11.2371 41.3606C11.2064 41.3361 11.185 41.3019 11.1762 41.2636C11.1675 41.2253 11.172 41.1852 11.189 41.1498C11.206 41.1144 11.2345 41.0858 11.2699 41.0687L27.4688 33.3189C27.4894 33.309 27.5118 33.3033 27.5346 33.302C27.5574 33.3008 27.5802 33.304 27.6018 33.3116C27.6234 33.3192 27.6432 33.3309 27.6602 33.3462C27.6772 33.3615 27.6911 33.3799 27.701 33.4005C27.7109 33.4211 27.7166 33.4435 27.7178 33.4663C27.7191 33.4891 27.7158 33.5119 27.7082 33.5335C27.7007 33.5551 27.6889 33.5749 27.6737 33.5919C27.6584 33.6089 27.6399 33.6228 27.6193 33.6327L11.4192 41.3825C11.396 41.3933 11.3707 41.3989 11.3451 41.3987Z" fill="black"/>
<path d="M52.4875 39.2591C52.5742 39.295 52.6509 39.3514 52.7109 39.4236C56.3853 43.7535 58.4603 49.2145 58.5884 54.8919C58.5954 55.1582 58.3893 55.3215 58.1774 55.4813C55.2004 57.7195 49.4341 59.997 44.8465 61.5498C40.2856 63.0944 35.2939 63.231 30.7329 64.7757C30.5881 64.825 30.43 64.8176 30.2904 64.7551C30.1508 64.6926 30.04 64.5796 29.9803 64.4387L28.6499 61.3043C28.6031 61.1943 28.5899 61.073 28.612 60.9556C28.634 60.8381 28.6903 60.7298 28.7738 60.6443C30.8499 58.5115 34.9372 54.9706 41.0764 53.3554C42.9633 52.859 44.9006 52.5793 46.8508 52.5217C46.9656 52.518 47.0769 52.4818 47.1718 52.4171C47.2667 52.3525 47.3412 52.2622 47.3867 52.1567C47.4321 52.0513 47.4466 51.9351 47.4284 51.8217C47.4102 51.7084 47.36 51.6025 47.2839 51.5166L43.5786 47.3111C43.4759 47.1943 43.4226 47.0421 43.4302 46.8867C43.4378 46.7313 43.5055 46.5849 43.6192 46.4786H43.6249C47.7841 42.5777 48.3989 39.3749 50.7645 39.0171C51.3502 38.9373 51.9465 39.0211 52.4875 39.2591Z" fill="black"/>
<path d="M16.3942 76.1715L12.1633 82.5098L10.3164 79.5386L14.0657 73.3242L16.3942 76.1715Z" fill="white"/>
<path d="M12.1621 82.6836C12.133 82.6833 12.1044 82.6755 12.0791 82.6611C12.0538 82.6468 12.0326 82.6262 12.0173 82.6014L10.174 79.6303C10.1573 79.6031 10.1484 79.5718 10.1484 79.54C10.1484 79.5081 10.1573 79.4768 10.174 79.4496L13.9221 73.2352C13.9365 73.2115 13.9565 73.1915 13.9802 73.177C14.004 73.1625 14.0308 73.1539 14.0586 73.1518C14.0863 73.1498 14.1141 73.1544 14.1397 73.1653C14.1653 73.1762 14.188 73.193 14.2058 73.2144L16.5273 76.057C16.5509 76.0857 16.5646 76.1212 16.5665 76.1583C16.5684 76.1954 16.5583 76.2322 16.5378 76.2631L12.3068 82.6014C12.2915 82.6262 12.2702 82.6466 12.2449 82.661C12.2196 82.6754 12.1912 82.6831 12.1621 82.6836ZM10.5213 79.5376L12.1667 82.1938L16.1777 76.1867L14.0853 73.6254L10.5213 79.5376Z" fill="black"/>
<path d="M13.5404 81.5938C12.4022 83.575 9.53869 88.3733 6.94732 90.5884C6.80338 90.7121 6.62947 90.7958 6.44301 90.8312C6.25654 90.8666 6.06405 90.8524 5.88479 90.79C5.70553 90.7276 5.5458 90.6193 5.42157 90.4758C5.29734 90.3323 5.21297 90.1587 5.1769 89.9724C4.61764 87.0487 4.52848 81.0311 7.6849 76.513C7.6849 76.513 9.0408 76.4493 11.5233 77.0919L10.7996 79.4077L11.1239 79.2086C11.3609 79.0629 11.6399 79.0009 11.9163 79.0324C12.1927 79.0639 12.4506 79.187 12.6488 79.3822L13.3296 80.0538C13.5309 80.2506 13.6608 80.5088 13.699 80.7877C13.7371 81.0666 13.6813 81.3502 13.5404 81.5938Z" fill="black"/>
<path d="M6.60704 89.8774C6.56995 89.8773 6.53387 89.8654 6.50408 89.8433C6.47428 89.8212 6.45234 89.7901 6.44146 89.7547C4.64556 83.7869 8.07873 77.1707 8.11462 77.1047C8.12501 77.0847 8.13924 77.0669 8.15651 77.0524C8.17378 77.0379 8.19375 77.0269 8.21526 77.0201C8.23678 77.0133 8.25942 77.0109 8.28189 77.0129C8.30436 77.0149 8.32621 77.0213 8.3462 77.0317C8.38598 77.0534 8.41582 77.0896 8.42942 77.1328C8.44303 77.176 8.43935 77.2228 8.41915 77.2633C8.38441 77.3282 5.01725 83.8216 6.77146 89.6528C6.7848 89.6969 6.7801 89.7444 6.75839 89.785C6.73668 89.8256 6.69973 89.8559 6.65567 89.8693C6.6399 89.8742 6.62354 89.8769 6.60704 89.8774Z" fill="white"/>
<path d="M11.8782 84.5247C11.8407 84.5247 11.8041 84.5125 11.774 84.4899L9.97235 83.1352C9.95324 83.1218 9.93704 83.1047 9.9247 83.0849C9.91236 83.065 9.90414 83.0429 9.90053 83.0199C9.89692 82.9968 9.89799 82.9733 9.90368 82.9507C9.90938 82.928 9.91957 82.9068 9.93366 82.8882C9.94775 82.8696 9.96545 82.854 9.98569 82.8424C10.0059 82.8308 10.0283 82.8233 10.0515 82.8206C10.0747 82.8178 10.0981 82.8197 10.1206 82.8262C10.143 82.8327 10.1638 82.8437 10.1819 82.8584L11.9825 84.212C12.0116 84.2339 12.0332 84.2644 12.044 84.2992C12.0549 84.334 12.0545 84.3713 12.043 84.4059C12.0315 84.4405 12.0094 84.4706 11.9798 84.4919C11.9502 84.5132 11.9147 84.5247 11.8782 84.5247Z" fill="white"/>
<path d="M10.8194 86.1307C10.7768 86.1312 10.7356 86.1159 10.7036 86.0879L9.06631 84.6405C9.0492 84.6253 9.03526 84.6069 9.02527 84.5863C9.01529 84.5657 9.00946 84.5433 9.00811 84.5205C9.00677 84.4976 9.00994 84.4747 9.01744 84.4531C9.02494 84.4315 9.03663 84.4115 9.05183 84.3944C9.06704 84.3773 9.08547 84.3634 9.10606 84.3534C9.12666 84.3434 9.14902 84.3376 9.17186 84.3362C9.19471 84.3349 9.2176 84.3381 9.23922 84.3456C9.26085 84.3531 9.28078 84.3648 9.29789 84.38L10.934 85.8273C10.9603 85.8508 10.9789 85.8816 10.9872 85.9159C10.9955 85.9501 10.9933 85.986 10.9807 86.019C10.9682 86.0519 10.9459 86.0802 10.9169 86.1001C10.8878 86.1201 10.8534 86.1308 10.8182 86.1307H10.8194Z" fill="white"/>
<path d="M12.9336 74.128L16.5231 77.3585L54.2253 40.3603C54.2253 40.3603 46.2972 33.8761 37.8596 38.5667C37.8596 38.5667 30.1828 45.4724 27.9446 52.0851C25.7063 58.6979 21.9409 57.474 19.0901 62.0569C16.2394 66.6399 12.9336 74.128 12.9336 74.128Z" fill="black"/>
<path d="M38.0815 56.3796C38.035 56.3793 37.9904 56.3606 37.9576 56.3275C37.9413 56.3114 37.9284 56.2921 37.9196 56.271C37.9108 56.2498 37.9062 56.2271 37.9062 56.2042C37.9062 56.1813 37.9108 56.1586 37.9196 56.1374C37.9284 56.1162 37.9413 56.097 37.9576 56.0809L48.3625 45.8694C48.3957 45.8389 48.4394 45.8226 48.4844 45.8238C48.5295 45.825 48.5723 45.8436 48.6038 45.8758C48.6354 45.9079 48.6532 45.9511 48.6535 45.9961C48.6539 46.0411 48.6367 46.0846 48.6056 46.1172L38.2008 56.3298C38.1688 56.3609 38.1261 56.3787 38.0815 56.3796Z" fill="#CADDFF"/>
<path d="M34.038 60.3453C34.0149 60.3454 33.992 60.3409 33.9707 60.3319C33.9494 60.323 33.9302 60.3098 33.9141 60.2932C33.8816 60.2607 33.8633 60.2165 33.8633 60.1705C33.8633 60.1245 33.8816 60.0803 33.9141 60.0477L35.6312 58.363C35.6473 58.3461 35.6666 58.3327 35.688 58.3234C35.7094 58.3141 35.7324 58.3093 35.7557 58.3091C35.779 58.3089 35.8021 58.3134 35.8236 58.3224C35.8452 58.3313 35.8647 58.3445 35.881 58.3611C35.8973 58.3778 35.9101 58.3975 35.9187 58.4192C35.9272 58.4409 35.9313 58.4641 35.9307 58.4874C35.93 58.5107 35.9247 58.5336 35.9151 58.5548C35.9054 58.576 35.8916 58.5951 35.8744 58.6108L34.1572 60.2955C34.1255 60.3271 34.0827 60.3449 34.038 60.3453Z" fill="#CADDFF"/>
<path d="M16.5302 77.532C16.5071 77.5321 16.4842 77.5275 16.4629 77.5186C16.4416 77.5096 16.4223 77.4964 16.4063 77.4799C16.3737 77.4473 16.3555 77.4032 16.3555 77.3571C16.3555 77.3111 16.3737 77.267 16.4063 77.2344L32.9642 60.9856C32.997 60.9532 33.0414 60.9352 33.0876 60.9356C33.1337 60.9359 33.1778 60.9545 33.2102 60.9874C33.2426 61.0202 33.2606 61.0646 33.2603 61.1108C33.26 61.1569 33.2413 61.201 33.2085 61.2334L16.6506 77.4822C16.6186 77.514 16.5753 77.5319 16.5302 77.532Z" fill="#CADDFF"/>
<path d="M87.406 9.32379C87.406 9.32379 88.6866 7.73284 90.2683 6.8702C91.85 6.00757 95.8586 4.17578 95.8586 4.17578C95.8586 4.17578 96.3426 4.91452 95.8262 5.49462C95.3098 6.07473 92.3849 8.31989 92.2518 8.53642C92.1186 8.75294 90.9318 9.98031 89.4786 10.1945C88.0254 10.4087 87.0586 11.7681 87.0586 11.7681L87.406 9.32379Z" fill="white"/>
<path d="M86.7852 12.4481L87.2414 9.25227L87.2703 9.21522C87.3236 9.14922 88.5915 7.58722 90.1847 6.71879C91.7525 5.86311 95.7507 4.03711 95.7913 4.01858L95.9267 3.95605L96.009 4.08111C96.2012 4.37521 96.4385 5.07342 95.9603 5.61069C95.6651 5.94069 94.6519 6.76858 93.7603 7.49227C93.1594 7.9809 92.4774 8.53438 92.4021 8.6328C92.2226 8.92227 90.986 10.1485 89.5074 10.3696C88.1445 10.5711 87.2089 11.8599 87.1997 11.8749L86.7852 12.4481ZM87.5714 9.39701L87.3132 11.2149C87.7416 10.7795 88.4931 10.1728 89.4553 10.0292C90.8934 9.81617 92.0246 8.58301 92.1068 8.44985C92.1752 8.33985 92.5538 8.02837 93.538 7.22827C94.3786 6.54511 95.4242 5.69521 95.701 5.3849C96.009 5.03753 95.8827 4.61721 95.7878 4.40764C95.0479 4.74806 91.7352 6.273 90.3457 7.02911C88.9562 7.78522 87.7705 9.15848 87.5714 9.39701Z" fill="black"/>
<path d="M90.8795 8.33372C90.8435 8.33369 90.8084 8.32255 90.7789 8.30183C90.7495 8.2811 90.7272 8.2518 90.7151 8.21793C90.7076 8.19634 90.7045 8.1735 90.706 8.15071C90.7074 8.12793 90.7134 8.10566 90.7235 8.08519C90.7336 8.06473 90.7477 8.04648 90.765 8.0315C90.7822 8.01652 90.8022 8.00511 90.8239 7.99793C91.5186 7.76635 91.7282 7.50698 91.9517 7.23488C92.1357 6.9878 92.3687 6.78126 92.636 6.62814C92.8148 6.53295 92.9783 6.41157 93.1212 6.26803L90.1303 7.20824C90.0869 7.22029 90.0405 7.21502 90.001 7.19352C89.9614 7.17202 89.9317 7.13599 89.9182 7.09303C89.9046 7.05006 89.9083 7.00353 89.9285 6.96324C89.9486 6.92295 89.9836 6.89206 90.0261 6.87708L93.3933 5.81761C93.4169 5.81015 93.4419 5.80784 93.4666 5.81085C93.4912 5.81387 93.5149 5.82213 93.5361 5.83507C93.5573 5.84802 93.5754 5.86536 93.5893 5.88591C93.6032 5.90647 93.6126 5.92977 93.6167 5.95424C93.6306 6.03298 93.6561 6.44982 92.8062 6.93035C92.5767 7.0627 92.3771 7.24132 92.2203 7.45487C91.976 7.75245 91.7236 8.06045 90.935 8.32677C90.917 8.33187 90.8982 8.33421 90.8795 8.33372Z" fill="black"/>
<path d="M56.0743 42.9942C56.0743 42.9942 56.3255 40.4954 59.5213 38.4784C63.4744 35.9796 67.6382 33.4913 69.1712 28.4626C69.1712 28.4626 72.2339 27.3684 78.5907 22.4311C84.9476 17.4938 85.5149 15.8496 88.6644 12.9688L87.701 8.63477C87.701 8.63477 71.2161 18.4271 69.1018 19.0558C66.9874 19.6846 61.6357 19.7575 56.094 17.0064C53.7377 15.8369 47.1492 22.4485 47.1492 22.4485C47.1492 22.4485 47.6633 26.9075 46.4441 28.3144C45.2248 29.7212 37.2145 35.2988 37.3094 37.4455C37.4044 39.5923 43.7786 46.2108 56.0743 42.9942Z" fill="#5479F7"/>
<path d="M26.7023 39.4937L25.5595 39.2622C25.4862 39.2471 25.4106 39.2466 25.3371 39.2607C25.2637 39.2749 25.1937 39.3034 25.1312 39.3445C25.0688 39.3857 25.015 39.4388 24.9731 39.5008C24.9311 39.5627 24.9018 39.6323 24.8867 39.7056L27.1458 40.1688C27.161 40.0953 27.1616 40.0196 27.1476 39.9459C27.1336 39.8722 27.1051 39.802 27.0639 39.7394C27.0228 39.6767 26.9696 39.6227 26.9076 39.5806C26.8455 39.5384 26.7758 39.5089 26.7023 39.4937Z" fill="#5479F7"/>
<path d="M35.8546 41.3707L34.713 41.1391C34.5648 41.1087 34.4106 41.1383 34.2843 41.2214C34.1579 41.3046 34.0697 41.4345 34.0391 41.5826L36.2981 42.0458C36.3135 41.9723 36.3143 41.8965 36.3003 41.8228C36.2863 41.749 36.2579 41.6788 36.2167 41.6161C36.1755 41.5533 36.1223 41.4994 36.0602 41.4573C35.998 41.4151 35.9282 41.3857 35.8546 41.3707Z" fill="#5479F7"/>
<path d="M35.5619 41.2795L35.9695 40.2247C36.259 39.4755 35.8653 38.7403 35.0907 38.5816L28.2429 37.1771C27.8481 37.1103 27.4424 37.1796 27.0921 37.3735C26.7419 37.5675 26.4678 37.8746 26.315 38.2447L25.9062 39.2995L26.4308 39.4072L26.748 38.5863C26.8672 38.2973 27.0811 38.0575 27.3548 37.9064C27.6284 37.7553 27.9453 37.7018 28.2533 37.7549L34.675 39.0726C35.2783 39.1953 35.5851 39.7673 35.3593 40.3463L35.0421 41.1672L35.5619 41.2795Z" fill="black"/>
<path d="M34.8422 38.0596L28.8269 36.8252C28.7034 36.8049 28.5766 36.8269 28.4671 36.8876C28.3576 36.9484 28.2718 37.0443 28.2237 37.1599L28.028 37.667C28.0051 37.7184 27.9943 37.7743 27.9963 37.8304C27.9983 37.8866 28.0131 37.9415 28.0396 37.9911C28.0661 38.0407 28.1035 38.0836 28.149 38.1165C28.1946 38.1494 28.247 38.1716 28.3024 38.1811L34.3177 39.4143C34.4413 39.4355 34.5685 39.4139 34.6781 39.353C34.7878 39.2922 34.8735 39.1958 34.9209 39.0797L35.1166 38.5725C35.1397 38.5213 35.1508 38.4654 35.1489 38.4092C35.147 38.3531 35.1322 38.2981 35.1057 38.2485C35.0791 38.1989 35.0416 38.1561 34.9959 38.1234C34.9503 38.0906 34.8977 38.0688 34.8422 38.0596Z" fill="#99B9FF"/>
<path d="M33.9109 59.1412L16.3178 55.5355C16.0702 55.4848 15.837 55.3797 15.6351 55.2276C15.4333 55.0756 15.2678 54.8805 15.1507 54.6566C15.0336 54.4326 14.9679 54.1854 14.9583 53.9328C14.9486 53.6803 14.9954 53.4288 15.0951 53.1966L20.4214 40.7723C20.6388 40.2655 21.0245 39.8493 21.5133 39.5938C22.002 39.3383 22.564 39.2593 23.1042 39.3701L38.1951 42.464L33.9109 59.1412Z" fill="#99B9FF"/>
<path d="M36.1594 59.6033L32.746 58.9086C32.4986 58.8577 32.2657 58.7525 32.0641 58.6005C31.8625 58.4484 31.6972 58.2535 31.5803 58.0297C31.4633 57.8059 31.3976 57.5589 31.388 57.3065C31.3783 57.0542 31.4249 56.8029 31.5244 56.5708L37.3926 42.8868C37.4571 42.7356 37.5719 42.6114 37.7175 42.5352C37.8631 42.4591 38.0306 42.4356 38.1915 42.4688L39.0692 42.6494C39.2446 42.6854 39.4001 42.7859 39.5047 42.9311C39.6094 43.0763 39.6556 43.2556 39.6343 43.4333L37.8141 58.4119C37.7906 58.6019 37.7281 58.785 37.6305 58.9497C37.5329 59.1144 37.4024 59.2572 37.247 59.369C37.0917 59.4809 36.9149 59.5595 36.7277 59.5998C36.5405 59.6401 36.3471 59.6413 36.1594 59.6033Z" fill="#5479F7"/>
<path d="M36.4359 59.8048C36.3313 59.8048 36.2269 59.7943 36.1244 59.7735L32.7109 59.0788C32.4376 59.0231 32.1801 58.907 31.9573 58.7391C31.7345 58.5712 31.552 58.3557 31.4231 58.1083C31.2942 57.8609 31.2221 57.5878 31.2121 57.309C31.2022 57.0302 31.2545 56.7527 31.3655 56.4967L37.2337 42.8127C37.3148 42.6254 37.4576 42.4716 37.6385 42.377C37.8193 42.2824 38.0271 42.2527 38.2271 42.2928L39.1048 42.4734C39.3225 42.519 39.5152 42.6443 39.6452 42.8247C39.7753 43.005 39.8332 43.2275 39.8077 43.4484L37.9863 58.4327C37.9404 58.8115 37.7573 59.1603 37.4716 59.4131C37.1859 59.666 36.8174 59.8053 36.4359 59.8048ZM36.1939 59.4331C36.358 59.4667 36.5274 59.4658 36.6912 59.4307C36.855 59.3955 37.0098 59.3269 37.1457 59.229C37.2817 59.1311 37.3959 59.0061 37.4812 58.8619C37.5665 58.7176 37.621 58.5573 37.6413 58.391L39.4615 43.4044C39.477 43.2701 39.4418 43.1348 39.3628 43.0251C39.2837 42.9154 39.1665 42.8392 39.0342 42.8115L38.1565 42.6309C38.0348 42.6066 37.9085 42.6247 37.7985 42.6822C37.6885 42.7397 37.6016 42.8332 37.5521 42.947L31.6839 56.6333C31.5943 56.8418 31.5523 57.0675 31.561 57.2942C31.5696 57.5209 31.6286 57.7429 31.7337 57.9439C31.8388 58.1449 31.9874 58.32 32.1687 58.4565C32.3499 58.5929 32.5593 58.6872 32.7816 58.7326L36.1939 59.4331Z" fill="black"/>
<path d="M33.44 48.6149C33.3669 48.6149 33.294 48.6076 33.2223 48.5929L19.4515 45.7745C19.4063 45.7653 19.3667 45.7386 19.3413 45.7001C19.3159 45.6617 19.3068 45.6147 19.316 45.5696C19.3252 45.5245 19.352 45.4848 19.3904 45.4594C19.4289 45.434 19.4758 45.4249 19.521 45.4341L33.2918 48.2571C33.4517 48.2905 33.6182 48.2687 33.7641 48.1953C33.9101 48.1219 34.0269 48.0012 34.0954 47.853L36.3602 42.9771C36.3692 42.9555 36.3825 42.9359 36.3992 42.9196C36.4159 42.9032 36.4358 42.8904 36.4576 42.882C36.4794 42.8735 36.5026 42.8695 36.526 42.8702C36.5494 42.8709 36.5724 42.8764 36.5936 42.8862C36.6148 42.896 36.6338 42.9101 36.6495 42.9274C36.6652 42.9448 36.6772 42.9651 36.6848 42.9872C36.6924 43.0093 36.6955 43.0327 36.6938 43.0561C36.6922 43.0794 36.6858 43.1022 36.6752 43.123L34.4103 47.9989C34.3242 48.1834 34.1871 48.3394 34.0152 48.4486C33.8432 48.5577 33.6437 48.6154 33.44 48.6149Z" fill="black"/>
<path d="M28.2537 47.5205L27.5439 48.998C27.4874 49.1196 27.3915 49.2187 27.2717 49.279C27.1519 49.3393 27.0152 49.3574 26.8839 49.3303L24.157 48.771C24.0883 48.756 24.024 48.7255 23.9688 48.6819C23.9136 48.6382 23.8691 48.5826 23.8387 48.5192C23.8082 48.4559 23.7926 48.3864 23.793 48.316C23.7934 48.2457 23.8098 48.1764 23.8409 48.1133L24.5357 46.7598L28.2537 47.5205Z" fill="white"/>
<path d="M27.0099 49.5168C26.9574 49.5164 26.905 49.511 26.8536 49.5006L24.1267 48.9413C24.0312 48.9221 23.9413 48.8809 23.8644 48.8211C23.7874 48.7612 23.7254 48.6843 23.6832 48.5965C23.641 48.5086 23.6197 48.4121 23.6212 48.3146C23.6226 48.2171 23.6466 48.1213 23.6914 48.0347L24.3861 46.6799C24.4035 46.6462 24.4315 46.6191 24.4658 46.6028C24.5001 46.5865 24.5388 46.5818 24.576 46.5896L28.2894 47.3504C28.3151 47.3559 28.3393 47.3672 28.3601 47.3833C28.3809 47.3995 28.3978 47.4201 28.4096 47.4437C28.4214 47.4672 28.4277 47.4931 28.4281 47.5195C28.4286 47.5458 28.4231 47.5719 28.4121 47.5958L27.7058 49.0779C27.6436 49.2097 27.5451 49.3211 27.4218 49.3988C27.2985 49.4766 27.1556 49.5175 27.0099 49.5168ZM24.6339 46.9555L24.0005 48.1921C23.9803 48.2311 23.9694 48.2743 23.9687 48.3182C23.968 48.3622 23.9775 48.4057 23.9965 48.4453C24.0154 48.4849 24.0433 48.5196 24.078 48.5466C24.1127 48.5736 24.1531 48.5922 24.1962 48.6009L26.9242 49.1601C27.0162 49.179 27.1118 49.1664 27.1958 49.1244C27.2798 49.0824 27.3473 49.0135 27.3874 48.9286L27.9976 47.6549L24.6339 46.9555Z" fill="black"/>
<path d="M30.522 57.2632H30.4873L15.8573 54.2596C15.8349 54.2549 15.8137 54.2459 15.7948 54.2331C15.7759 54.2203 15.7598 54.2038 15.7473 54.1847C15.7347 54.1657 15.7261 54.1443 15.7218 54.1219C15.7175 54.0995 15.7177 54.0764 15.7224 54.054C15.727 54.0317 15.736 54.0105 15.7488 53.9916C15.7617 53.9727 15.7781 53.9566 15.7972 53.944C15.8163 53.9315 15.8377 53.9229 15.8601 53.9186C15.8825 53.9143 15.9056 53.9145 15.9279 53.9192L30.5556 56.9193C30.6017 56.9239 30.644 56.9466 30.6733 56.9824C30.7026 57.0182 30.7165 57.0642 30.7119 57.1103C30.7073 57.1564 30.6846 57.1987 30.6488 57.228C30.6129 57.2574 30.5669 57.2712 30.5209 57.2666L30.522 57.2632Z" fill="black"/>
<path d="M31.8162 33.0991L29.6601 35.7623C29.6601 35.7623 29.0939 37.5767 29.2329 38.3097C29.3718 39.0426 31.3669 39.8057 32.8282 39.1144C32.8282 39.1144 32.0408 38.0723 32.2886 37.542L33.6862 37.1518L33.1246 35.0583L33.6862 33.7105L31.8162 33.0991Z" fill="white"/>
<path d="M31.5456 39.5518C30.9614 39.5537 30.3847 39.4213 29.8597 39.165C29.3966 38.9334 29.1175 38.637 29.0596 38.3348C28.9137 37.5706 29.4672 35.7805 29.4915 35.7052L29.5008 35.674L31.7529 32.895L33.9158 33.5898L33.3079 35.0672L33.8985 37.2672L32.4245 37.6783C32.3504 38.0257 32.7058 38.6579 32.9664 39.0029L33.096 39.1731L32.9027 39.2646C32.4769 39.459 32.0136 39.557 31.5456 39.5518ZM29.8169 35.8407C29.6571 36.3594 29.2981 37.7177 29.4047 38.2723C29.4406 38.461 29.671 38.6799 30.0207 38.857C30.676 39.1905 31.6904 39.3596 32.568 39.0342C32.3365 38.6868 31.9138 37.9469 32.1373 37.4641L32.1709 37.3911L33.4805 37.0275L32.9478 35.0429L33.4596 33.8155L31.8814 33.3049L29.8169 35.8407Z" fill="black"/>
<path d="M57.4562 18.0867C57.4562 18.0867 56.905 16.5814 52.0361 16.0244C47.1671 15.4675 44.064 18.7953 42.8285 19.4912C41.593 20.1871 36.4277 22.064 34.4569 25.0248C32.4862 27.9855 29.918 33.423 29.918 33.423L34.4453 34.516C34.4453 34.516 39.1313 28.4278 44.6256 26.3448C50.1198 24.2617 57.4539 22.2574 57.4562 18.0867Z" fill="#5479F7"/>
<path d="M49.7226 44.0353C48.5579 44.0374 47.3955 43.9359 46.2489 43.7319C43.2152 43.1854 41.1368 42.0066 39.9279 41.115C38.0544 39.7337 37.1791 38.2805 37.142 37.4526C37.0725 35.8663 40.9631 32.6913 43.8057 30.3732C44.9636 29.4272 45.9675 28.6098 46.3241 28.1976C46.7132 27.7494 46.9644 26.8683 47.0548 25.6409L46.9737 25.6699C46.1782 25.957 45.4279 26.228 44.6938 26.507C39.3073 28.5496 34.6352 34.5625 34.5889 34.6227C34.5683 34.6492 34.5406 34.6693 34.5089 34.6803C34.4773 34.6914 34.4431 34.6931 34.4105 34.6852L29.8832 33.591C29.858 33.5853 29.8345 33.5738 29.8144 33.5576C29.7943 33.5413 29.7782 33.5207 29.7674 33.4972C29.7559 33.4742 29.75 33.4488 29.75 33.4231C29.75 33.3974 29.7559 33.3721 29.7674 33.349C29.7928 33.2946 32.3622 27.8664 34.3179 24.9288C35.9251 22.5134 39.628 20.8044 41.6126 19.8862C42.1094 19.6546 42.5031 19.4751 42.7416 19.3397C43.0506 19.1482 43.3483 18.9391 43.6332 18.7132C45.1755 17.5553 48.0459 15.3959 52.0557 15.8521C53.6964 16.0385 55.0303 16.3534 56.0203 16.7876C56.0736 16.8063 56.1258 16.8279 56.1767 16.8525C61.6107 19.5504 66.8571 19.5492 69.0571 18.8904C71.1263 18.2709 87.4526 8.58511 87.617 8.48206C87.6407 8.46837 87.6673 8.46041 87.6946 8.4588C87.722 8.45719 87.7493 8.46199 87.7745 8.4728C87.7997 8.48359 87.822 8.50024 87.8396 8.52139C87.8571 8.54253 87.8693 8.56756 87.8752 8.59438L88.8386 12.9284C88.8454 12.9581 88.8442 12.9891 88.835 13.0183C88.8259 13.0474 88.8091 13.0735 88.7865 13.094C87.7062 14.0805 86.9338 14.9165 86.1233 15.8023C84.6042 17.45 82.8812 19.3176 78.7024 22.5644C72.8874 27.0802 69.8526 28.3817 69.3165 28.5924C67.7973 33.4613 63.8419 35.9578 60.0139 38.3731L59.6191 38.6221C56.5414 40.5685 56.2542 42.9874 56.2519 43.0117C56.2482 43.0468 56.234 43.08 56.211 43.1069C56.1881 43.1337 56.1575 43.153 56.1234 43.1622C54.0358 43.7253 51.8847 44.0187 49.7226 44.0353ZM47.2412 25.2137C47.2647 25.2138 47.2879 25.2187 47.3095 25.228C47.3311 25.2374 47.3505 25.2511 47.3666 25.2682C47.3828 25.2853 47.3952 25.3055 47.4033 25.3276C47.4114 25.3496 47.415 25.3731 47.4137 25.3966C47.3361 26.859 47.0559 27.8791 46.5823 28.4257C46.2049 28.8599 45.2415 29.6461 44.0211 30.6419C41.3926 32.7851 37.4211 36.0249 37.4848 37.4376C37.516 38.1589 38.3578 39.5299 40.1294 40.836C41.9728 42.1954 47.1925 45.1028 55.9208 42.8554C56.0146 42.3158 56.5622 40.1412 59.4303 38.328L59.8252 38.079C63.6196 35.6845 67.5437 33.2089 69.0061 28.4094C69.0136 28.383 69.0272 28.3586 69.0459 28.3385C69.0647 28.3183 69.0879 28.303 69.1138 28.2937C69.1439 28.2832 72.2401 27.1439 78.4858 22.2877C82.6427 19.0583 84.2753 17.2821 85.8639 15.5649C86.6675 14.6942 87.4271 13.8698 88.4785 12.9018L87.5892 8.8989C85.5953 10.0857 71.1645 18.6252 69.1578 19.2239C66.9046 19.8978 61.547 19.9059 56.0227 17.164C55.9835 17.1442 55.9428 17.1276 55.9011 17.1142L55.8883 17.1084C54.9296 16.6869 53.627 16.3801 52.0175 16.1971C48.1455 15.7571 45.4522 17.7811 43.8428 18.99C43.5469 19.2254 43.2376 19.4435 42.9164 19.643C42.6652 19.7843 42.2669 19.9684 41.7585 20.2011C39.8005 21.1054 36.1555 22.7879 34.6016 25.1222C32.8647 27.7251 30.6439 32.3104 30.168 33.3039L34.377 34.3217C34.986 33.5586 39.4497 28.1211 44.5664 26.1817C45.304 25.9026 46.0555 25.6305 46.8521 25.3433L47.1833 25.2275C47.2016 25.2195 47.2212 25.2148 47.2412 25.2137Z" fill="black"/>
<path d="M69.6179 27.5027C69.5928 27.5025 69.5679 27.497 69.545 27.4865C69.5034 27.4667 69.4713 27.4313 69.4556 27.3879C69.44 27.3445 69.4422 27.2967 69.4616 27.2549C70.2015 25.7036 71.283 24.3399 72.625 23.266C72.6432 23.251 72.6643 23.24 72.6869 23.2334C72.7095 23.2269 72.7332 23.225 72.7566 23.2279C72.78 23.2308 72.8025 23.2384 72.8229 23.2503C72.8432 23.2622 72.8609 23.2781 72.8749 23.2971C72.8889 23.316 72.8989 23.3376 72.9043 23.3605C72.9096 23.3835 72.9103 23.4073 72.9062 23.4305C72.9021 23.4537 72.8933 23.4758 72.8804 23.4955C72.8675 23.5152 72.8507 23.532 72.8311 23.545C71.5406 24.5901 70.4971 25.9076 69.7754 27.4032C69.7614 27.4331 69.7392 27.4584 69.7113 27.476C69.6834 27.4937 69.651 27.503 69.6179 27.5027Z" fill="black"/>
<path d="M48.8034 24.9936C48.7622 24.9938 48.7222 24.9793 48.6907 24.9528C48.6592 24.9262 48.6381 24.8893 48.6313 24.8487C48.6245 24.808 48.6323 24.7663 48.6535 24.7309C48.6746 24.6955 48.7076 24.6688 48.7466 24.6555C48.7802 24.6439 52.1879 23.4478 53.6526 22.5122C53.6719 22.4992 53.6935 22.4902 53.7163 22.4857C53.7391 22.4812 53.7625 22.4813 53.7852 22.4861C53.808 22.4908 53.8295 22.5 53.8486 22.5132C53.8677 22.5264 53.884 22.5433 53.8965 22.5629C53.9089 22.5824 53.9173 22.6043 53.9212 22.6272C53.9251 22.6501 53.9243 22.6736 53.9189 22.6961C53.9136 22.7187 53.9038 22.74 53.89 22.7588C53.8763 22.7775 53.859 22.7933 53.8391 22.8052C52.3407 23.7628 49.0025 24.9346 48.8601 24.9832C48.842 24.99 48.8227 24.9935 48.8034 24.9936Z" fill="black"/>
<path d="M63.8067 14.3978L62.8353 14.5599C62.1263 14.0746 61.5209 13.4531 61.0544 12.7316C60.3597 11.6027 58.8544 10.1761 61.6785 8.95457C64.5026 7.73299 65.0781 7.33351 65.642 6.4593C66.2059 5.58509 67.541 4.30214 68.8494 5.36625C70.1578 6.43036 69.2083 8.5412 69.2083 8.5412C69.2083 8.5412 70.2041 8.61415 69.8405 9.46752C69.477 10.3209 63.8067 14.3978 63.8067 14.3978Z" fill="black"/>
<path d="M69.3503 12.5302C69.363 12.5107 69.3677 12.4871 69.3634 12.4642C69.3591 12.4413 69.3461 12.421 69.3272 12.4075C68.6467 11.9094 68.1357 11.2141 67.8636 10.4159C67.6146 9.68873 67.4375 9.17578 67.4375 9.17578C66.4452 12.0149 62.5523 10.549 62.7654 11.0516C62.9784 11.5541 62.4655 13.2412 62.4655 13.2412C60.8444 15.0614 59.3809 16.2169 56.8242 17.3528C60.9706 22.6548 63.738 20.4792 63.738 20.4792L65.4633 17.0043C67.2082 16.9441 69.5159 15.8464 69.4001 15.1992C69.3584 14.9734 69.1685 14.3516 68.9242 13.5885C68.8981 13.5072 68.8902 13.4212 68.9012 13.3365C68.9122 13.2518 68.9418 13.1706 68.9879 13.0987L69.3503 12.5302Z" fill="white"/>
<path d="M62.1851 21.0971C62.0349 21.0972 61.8849 21.0879 61.7358 21.0693C60.1055 20.8713 58.4069 19.6567 56.6886 17.459L56.5508 17.2842L56.7546 17.1938C59.1398 16.1344 60.5976 15.0749 62.3125 13.1539C62.5012 12.5194 62.742 11.4368 62.6077 11.1195C62.5903 11.0826 62.583 11.0417 62.5864 11.0011C62.5899 10.9604 62.604 10.9214 62.6274 10.8879C62.7351 10.7362 62.9632 10.7525 63.4623 10.7884C64.5646 10.8659 66.6152 11.0107 67.2764 9.12214L67.4408 8.65088L67.6075 9.11867C67.6075 9.11867 67.7847 9.63162 68.0336 10.3599C68.2933 11.1246 68.7826 11.7906 69.4347 12.267C69.4894 12.3068 69.5269 12.366 69.5394 12.4325C69.5518 12.4991 69.5384 12.5678 69.5018 12.6248L69.1371 13.1921C69.1046 13.2421 69.0836 13.2987 69.0758 13.3578C69.068 13.4169 69.0735 13.477 69.0919 13.5337C69.3779 14.4195 69.5354 14.9545 69.5736 15.1675C69.5839 15.2569 69.5744 15.3474 69.5458 15.4326C69.5172 15.5179 69.4702 15.5958 69.4081 15.6608C68.8453 16.3555 66.9765 17.0908 65.5789 17.1718L63.8768 20.5934L63.8455 20.6177C63.8177 20.642 63.2237 21.0971 62.1851 21.0971ZM57.0996 17.4196C59.1039 19.9207 60.7447 20.5992 61.7775 20.7243C62.8104 20.8493 63.4611 20.4637 63.6024 20.3676L65.3543 16.8326H65.4585C66.8746 16.7839 68.6635 16.029 69.1325 15.4431C69.1904 15.3865 69.2244 15.3098 69.2274 15.2289C69.2031 15.0946 69.1024 14.7102 68.7573 13.6403C68.7229 13.5346 68.7125 13.4226 68.7269 13.3124C68.7413 13.2022 68.7802 13.0966 68.8407 13.0034L69.1637 12.5009C68.4839 11.9864 67.974 11.2797 67.7002 10.4723L67.4199 9.66172C66.5318 11.3557 64.4673 11.2098 63.4368 11.1369C63.2654 11.1253 63.0778 11.1114 62.9632 11.1137C63.0952 11.7436 62.683 13.1308 62.6321 13.2975L62.6216 13.3334L62.5962 13.3624C60.9068 15.2555 59.4004 16.3729 57.0996 17.4196Z" fill="black"/>
<path d="M63.4595 15.2441C63.4421 15.2442 63.4249 15.2415 63.4085 15.236C62.7983 15.0472 62.3664 14.7022 62.1962 14.2657C62.1286 14.0842 62.1039 13.8895 62.124 13.6969C62.144 13.5043 62.2084 13.3189 62.312 13.1552C62.3699 13.0522 62.5436 12.7407 62.8226 12.7905C63.1434 12.8472 63.2661 13.3787 63.3043 13.601C63.312 13.6471 63.301 13.6943 63.2739 13.7323C63.2468 13.7703 63.2056 13.796 63.1596 13.8037C63.1135 13.8113 63.0663 13.8004 63.0283 13.7733C62.9903 13.7461 62.9646 13.705 62.9569 13.6589C62.9176 13.4273 62.8249 13.1819 62.7601 13.1332C62.6952 13.1845 62.6432 13.2504 62.6084 13.3255C62.5299 13.4435 62.4801 13.5784 62.4633 13.7191C62.4464 13.8599 62.4628 14.0027 62.5111 14.136C62.6408 14.4683 63.0021 14.7474 63.5023 14.9025C63.5418 14.915 63.5755 14.9412 63.5974 14.9764C63.6193 15.0116 63.6278 15.0535 63.6215 15.0945C63.6152 15.1354 63.5945 15.1728 63.5631 15.1998C63.5317 15.2268 63.4916 15.2417 63.4502 15.2418L63.4595 15.2441Z" fill="black"/>
<path d="M65.4638 17.1769C64.1275 17.134 63.8496 16.2019 63.8427 16.1626C63.83 16.1182 63.8354 16.0706 63.8577 16.0302C63.8801 15.9898 63.9176 15.9599 63.962 15.9472C64.0063 15.9344 64.054 15.9399 64.0944 15.9622C64.1347 15.9846 64.1646 16.0221 64.1773 16.0665C64.1866 16.1 64.4089 16.7948 65.48 16.8295C65.526 16.8295 65.5702 16.8478 65.6028 16.8804C65.6354 16.913 65.6537 16.9571 65.6537 17.0032C65.6537 17.0493 65.6354 17.0934 65.6028 17.126C65.5702 17.1586 65.526 17.1769 65.48 17.1769H65.4638Z" fill="black"/>
<path d="M71.4944 73.5337C71.4599 73.533 71.4265 73.522 71.3982 73.5022C71.37 73.4825 71.3483 73.4547 71.3359 73.4226C71.3235 73.3904 71.3209 73.3553 71.3285 73.3216C71.3361 73.288 71.3536 73.2574 71.3786 73.2338L72.8156 71.8651C72.8494 71.8329 72.8946 71.8154 72.9412 71.8165C72.9879 71.8175 73.0323 71.8371 73.0645 71.8709C73.0968 71.9047 73.1143 71.9499 73.1132 71.9966C73.1121 72.0433 73.0925 72.0876 73.0587 72.1199L71.6137 73.4862C71.5814 73.5165 71.5388 73.5335 71.4944 73.5337Z" fill="black"/>
<path d="M71.4944 73.5337C71.4599 73.533 71.4265 73.522 71.3982 73.5022C71.37 73.4825 71.3483 73.4547 71.3359 73.4226C71.3235 73.3904 71.3209 73.3553 71.3285 73.3216C71.3361 73.288 71.3536 73.2574 71.3786 73.2338L72.8156 71.8651C72.8494 71.8329 72.8946 71.8154 72.9412 71.8165C72.9879 71.8175 73.0323 71.8371 73.0645 71.8709C73.0968 71.9047 73.1143 71.9499 73.1132 71.9966C73.1121 72.0433 73.0925 72.0876 73.0587 72.1199L71.6137 73.4862C71.5814 73.5165 71.5388 73.5335 71.4944 73.5337Z" fill="black"/>
<path d="M56.712 86.6111H46.2284C46.1823 86.6111 46.1381 86.5928 46.1056 86.5602C46.073 86.5277 46.0547 86.4835 46.0547 86.4374C46.0547 86.3914 46.073 86.3472 46.1056 86.3146C46.1381 86.282 46.1823 86.2638 46.2284 86.2638H56.712C57.2964 86.2647 57.8588 86.0403 58.2821 85.6373L68.2469 76.1993C68.263 76.1817 68.2825 76.1675 68.3043 76.1578C68.3261 76.148 68.3497 76.1428 68.3735 76.1426C68.3974 76.1423 68.4211 76.147 68.4431 76.1563C68.465 76.1656 68.4849 76.1794 68.5013 76.1967C68.5177 76.214 68.5304 76.2345 68.5386 76.2569C68.5467 76.2794 68.5502 76.3033 68.5487 76.3271C68.5472 76.3509 68.5408 76.3742 68.5299 76.3954C68.519 76.4167 68.5039 76.4355 68.4854 76.4506L58.5217 85.8897C58.0337 86.354 57.3855 86.6123 56.712 86.6111Z" fill="black"/>
<path d="M65.3475 73.5453C65.3136 73.5441 65.2807 73.533 65.2529 73.5134C65.2252 73.4937 65.2038 73.4663 65.1915 73.4347C65.1792 73.403 65.1764 73.3684 65.1836 73.3351C65.1907 73.3019 65.2075 73.2715 65.2318 73.2477L78.9343 59.9203C78.9505 59.9036 78.9698 59.8902 78.9912 59.8811C79.0127 59.872 79.0357 59.8672 79.059 59.8672C79.0822 59.8671 79.1053 59.8718 79.1268 59.8808C79.1482 59.8899 79.1676 59.9031 79.1839 59.9198C79.2001 59.9365 79.2128 59.9563 79.2212 59.978C79.2296 59.9997 79.2336 60.0229 79.2329 60.0461C79.2322 60.0694 79.2268 60.0923 79.2171 60.1134C79.2074 60.1346 79.1935 60.1536 79.1763 60.1693L65.468 73.4966C65.4356 73.5278 65.3925 73.5452 65.3475 73.5453Z" fill="black"/>
<path d="M61.2471 77.5333C61.2129 77.5324 61.1797 77.5214 61.1518 77.5017C61.1238 77.4819 61.1022 77.4544 61.0899 77.4225C61.0775 77.3906 61.0748 77.3557 61.0822 77.3223C61.0896 77.2888 61.1067 77.2583 61.1313 77.2346L62.1943 76.2006C62.2105 76.1838 62.2298 76.1705 62.2512 76.1614C62.2727 76.1522 62.2957 76.1475 62.319 76.1475C62.3422 76.1474 62.3653 76.1521 62.3868 76.1611C62.4082 76.1701 62.4276 76.1834 62.4439 76.2001C62.4601 76.2168 62.4728 76.2366 62.4812 76.2583C62.4896 76.28 62.4936 76.3031 62.4929 76.3264C62.4922 76.3497 62.4868 76.3726 62.4771 76.3937C62.4674 76.4149 62.4535 76.4339 62.4363 76.4495L61.3733 77.4835C61.3566 77.4998 61.3369 77.5125 61.3152 77.5211C61.2936 77.5296 61.2704 77.5338 61.2471 77.5333Z" fill="black"/>
<path d="M43.6639 87.1795C43.4278 87.1792 43.2015 87.0852 43.0346 86.9183C42.8677 86.7514 42.7737 86.5251 42.7734 86.289C42.7734 86.243 42.7917 86.1988 42.8243 86.1662C42.8569 86.1337 42.9011 86.1154 42.9471 86.1154C42.9932 86.1154 43.0374 86.1337 43.0699 86.1662C43.1025 86.1988 43.1208 86.243 43.1208 86.289C43.121 86.3964 43.1531 86.5013 43.2129 86.5904C43.2727 86.6796 43.3576 86.749 43.4568 86.7899C43.5561 86.8309 43.6652 86.8414 43.7705 86.8204C43.8758 86.7993 43.9724 86.7475 44.0483 86.6715C44.1241 86.5955 44.1757 86.4987 44.1966 86.3934C44.2174 86.2881 44.2066 86.179 44.1655 86.0798C44.1243 85.9806 44.0547 85.8959 43.9654 85.8363C43.8762 85.7767 43.7712 85.7448 43.6639 85.7448C43.6178 85.7448 43.5736 85.7265 43.541 85.694C43.5085 85.6614 43.4902 85.6172 43.4902 85.5711C43.4902 85.5251 43.5085 85.4809 43.541 85.4483C43.5736 85.4158 43.6178 85.3975 43.6639 85.3975C43.8946 85.4058 44.1131 85.5033 44.2734 85.6695C44.4337 85.8357 44.5233 86.0576 44.5233 86.2885C44.5233 86.5194 44.4337 86.7413 44.2734 86.9074C44.1131 87.0736 43.8946 87.1711 43.6639 87.1795Z" fill="black"/>
<path d="M74.9745 34.3831C74.9284 34.3831 74.8842 34.3648 74.8517 34.3322C74.8191 34.2997 74.8008 34.2555 74.8008 34.2094V33.3109C74.8008 33.2648 74.8191 33.2207 74.8517 33.1881C74.8842 33.1555 74.9284 33.1372 74.9745 33.1372C75.0205 33.1372 75.0647 33.1555 75.0973 33.1881C75.1299 33.2207 75.1481 33.2648 75.1481 33.3109V34.2094C75.1481 34.2555 75.1299 34.2997 75.0973 34.3322C75.0647 34.3648 75.0205 34.3831 74.9745 34.3831Z" fill="black"/>
<path d="M74.9745 36.4754C74.9284 36.4754 74.8842 36.4571 74.8517 36.4245C74.8191 36.3919 74.8008 36.3478 74.8008 36.3017V35.4032C74.8008 35.3571 74.8191 35.3129 74.8517 35.2804C74.8842 35.2478 74.9284 35.2295 74.9745 35.2295C75.0205 35.2295 75.0647 35.2478 75.0973 35.2804C75.1299 35.3129 75.1481 35.3571 75.1481 35.4032V36.3017C75.1481 36.3478 75.1299 36.3919 75.0973 36.4245C75.0647 36.4571 75.0205 36.4754 74.9745 36.4754Z" fill="black"/>
<path d="M74.3757 34.9792H73.4784C73.4323 34.9792 73.3881 34.9609 73.3556 34.9283C73.323 34.8958 73.3047 34.8516 73.3047 34.8055C73.3047 34.7595 73.323 34.7153 73.3556 34.6827C73.3881 34.6501 73.4323 34.6318 73.4784 34.6318H74.3757C74.4218 34.6318 74.466 34.6501 74.4986 34.6827C74.5311 34.7153 74.5494 34.7595 74.5494 34.8055C74.5494 34.8516 74.5311 34.8958 74.4986 34.9283C74.466 34.9609 74.4218 34.9792 74.3757 34.9792Z" fill="black"/>
<path d="M76.4695 34.9792H75.5721C75.5261 34.9792 75.4819 34.9609 75.4493 34.9283C75.4167 34.8958 75.3984 34.8516 75.3984 34.8055C75.3984 34.7595 75.4167 34.7153 75.4493 34.6827C75.4819 34.6501 75.5261 34.6318 75.5721 34.6318H76.4695C76.5156 34.6318 76.5597 34.6501 76.5923 34.6827C76.6249 34.7153 76.6432 34.7595 76.6432 34.8055C76.6432 34.8516 76.6249 34.8958 76.5923 34.9283C76.5597 34.9609 76.5156 34.9792 76.4695 34.9792Z" fill="black"/>
<path d="M22.0487 23.3204C22.0026 23.3204 21.9584 23.3021 21.9259 23.2696C21.8933 23.237 21.875 23.1928 21.875 23.1467V22.2494C21.875 22.2033 21.8933 22.1591 21.9259 22.1266C21.9584 22.094 22.0026 22.0757 22.0487 22.0757C22.0947 22.0757 22.1389 22.094 22.1715 22.1266C22.2041 22.1591 22.2224 22.2033 22.2224 22.2494V23.1467C22.2224 23.1928 22.2041 23.237 22.1715 23.2696C22.1389 23.3021 22.0947 23.3204 22.0487 23.3204Z" fill="black"/>
<path d="M22.0487 25.4127C22.0026 25.4127 21.9584 25.3944 21.9259 25.3618C21.8933 25.3293 21.875 25.2851 21.875 25.239V24.3417C21.875 24.2956 21.8933 24.2514 21.9259 24.2188C21.9584 24.1863 22.0026 24.168 22.0487 24.168C22.0947 24.168 22.1389 24.1863 22.1715 24.2188C22.2041 24.2514 22.2224 24.2956 22.2224 24.3417V25.239C22.2224 25.2851 22.2041 25.3293 22.1715 25.3618C22.1389 25.3944 22.0947 25.4127 22.0487 25.4127Z" fill="black"/>
<path d="M21.455 23.9182H20.5565C20.5104 23.9182 20.4663 23.8999 20.4337 23.8673C20.4011 23.8347 20.3828 23.7905 20.3828 23.7445C20.3828 23.6984 20.4011 23.6542 20.4337 23.6217C20.4663 23.5891 20.5104 23.5708 20.5565 23.5708H21.455C21.5011 23.5708 21.5453 23.5891 21.5778 23.6217C21.6104 23.6542 21.6287 23.6984 21.6287 23.7445C21.6287 23.7905 21.6104 23.8347 21.5778 23.8673C21.5453 23.8999 21.5011 23.9182 21.455 23.9182Z" fill="black"/>
<path d="M23.5449 23.9182H22.6463C22.6003 23.9182 22.5561 23.8999 22.5235 23.8673C22.491 23.8347 22.4727 23.7905 22.4727 23.7445C22.4727 23.6984 22.491 23.6542 22.5235 23.6217C22.5561 23.5891 22.6003 23.5708 22.6463 23.5708H23.5449C23.5909 23.5708 23.6351 23.5891 23.6677 23.6217C23.7003 23.6542 23.7186 23.6984 23.7186 23.7445C23.7186 23.7905 23.7003 23.8347 23.6677 23.8673C23.6351 23.8999 23.5909 23.9182 23.5449 23.9182Z" fill="black"/>
<path d="M91.1813 24.2782C91.1498 24.1633 91.0802 24.0625 90.9838 23.9924C90.8874 23.9223 90.77 23.8871 90.651 23.8927L90.1542 23.9147C90.0704 23.7385 89.972 23.5696 89.8601 23.4098L90.1218 22.9883C90.185 22.8874 90.2119 22.768 90.1982 22.6498C90.1846 22.5315 90.1311 22.4214 90.0465 22.3376C89.9616 22.2538 89.8508 22.2013 89.7322 22.1887C89.6135 22.176 89.4941 22.2041 89.3935 22.2681L88.9755 22.5368C88.8146 22.426 88.6445 22.3292 88.4672 22.2473L88.4845 21.7494C88.4885 21.6304 88.4519 21.5136 88.3808 21.4181C88.3097 21.3226 88.2083 21.2541 88.0932 21.2237C87.9778 21.1935 87.8556 21.2034 87.7466 21.2518C87.6376 21.3002 87.5483 21.3842 87.4934 21.49L87.2618 21.93C87.0691 21.9142 86.8755 21.9142 86.6828 21.93L86.4513 21.4912C86.3953 21.386 86.3052 21.303 86.1957 21.2558C86.0863 21.2087 85.9641 21.2002 85.8492 21.2318C85.7343 21.2634 85.6336 21.3331 85.5636 21.4295C85.4935 21.5258 85.4583 21.6431 85.4636 21.7621L85.4867 22.2589C85.3078 22.3452 85.1366 22.4467 84.975 22.5622L84.5546 22.2994C84.4534 22.2363 84.3338 22.2095 84.2153 22.2234C84.0968 22.2372 83.9866 22.291 83.9027 22.3758C83.8188 22.4605 83.7663 22.5712 83.7539 22.6897C83.7415 22.8083 83.7699 22.9275 83.8344 23.0277L84.1019 23.4469C83.9933 23.6071 83.898 23.7759 83.8171 23.9517L83.3203 23.9343C83.2013 23.9302 83.0844 23.9667 82.9888 24.0378C82.8933 24.1089 82.8248 24.2105 82.7946 24.3257C82.7643 24.4409 82.7741 24.563 82.8225 24.6719C82.871 24.7807 82.9551 24.8698 83.0609 24.9243L83.501 25.1559C83.4842 25.3505 83.4842 25.5461 83.501 25.7407L83.0609 25.9722C82.9559 26.0284 82.873 26.1185 82.8259 26.2279C82.7788 26.3373 82.7702 26.4594 82.8016 26.5743C82.8328 26.6894 82.9024 26.7904 82.9989 26.8605C83.0953 26.9306 83.2128 26.9657 83.3319 26.9599L83.8286 26.9379C83.912 27.1143 84.0104 27.2832 84.1227 27.4428L83.8599 27.8642C83.7969 27.9653 83.7701 28.0847 83.784 28.203C83.7979 28.3213 83.8516 28.4313 83.9363 28.515C84.021 28.5987 84.1317 28.6512 84.2501 28.6638C84.3685 28.6764 84.4878 28.6484 84.5882 28.5844L85.0074 28.3158C85.1683 28.4265 85.3383 28.5234 85.5157 28.6053L85.4983 29.1032C85.4942 29.2222 85.5307 29.3391 85.6018 29.4347C85.6729 29.5302 85.7745 29.5987 85.8897 29.6289C86.0049 29.6592 86.127 29.6494 86.2358 29.601C86.3447 29.5526 86.4337 29.4684 86.4883 29.3626L86.7199 28.9226C86.9145 28.9387 87.1101 28.9387 87.3046 28.9226L87.5362 29.3614C87.5924 29.4664 87.6825 29.5493 87.7919 29.5964C87.9013 29.6436 88.0234 29.6521 88.1383 29.6208C88.2534 29.5894 88.3543 29.5198 88.4246 29.4234C88.4949 29.327 88.5303 29.2096 88.5251 29.0905L88.5019 28.5937C88.6785 28.5101 88.8478 28.4117 89.0079 28.2996L89.4282 28.5624C89.5294 28.6256 89.6491 28.6524 89.7676 28.6385C89.886 28.6246 89.9962 28.5708 90.0801 28.486C90.1638 28.4013 90.2162 28.2906 90.2286 28.1721C90.2411 28.0536 90.2128 27.9344 90.1484 27.8341L89.881 27.415C89.9913 27.2542 90.0881 27.0846 90.1704 26.9078L90.6672 26.9252C90.7864 26.9293 90.9034 26.8926 90.999 26.8213C91.0945 26.7499 91.1629 26.6481 91.1929 26.5327C91.223 26.4175 91.2131 26.2954 91.1647 26.1866C91.1163 26.0779 91.0323 25.9888 90.9265 25.934L90.4865 25.7024C90.503 25.5098 90.503 25.3161 90.4865 25.1235L90.9254 24.8919C91.0322 24.8348 91.116 24.7425 91.1627 24.6307C91.2093 24.5188 91.2159 24.3943 91.1813 24.2782ZM87.7273 28.1132C87.1956 28.2587 86.6327 28.2434 86.1098 28.069C85.5868 27.8947 85.1273 27.5692 84.7894 27.1337C84.4515 26.6982 84.2503 26.1722 84.2112 25.6224C84.1722 25.0725 84.2971 24.5235 84.5701 24.0446C84.8432 23.5657 85.2521 23.1786 85.7452 22.9321C86.2382 22.6856 86.7933 22.5909 87.3402 22.6599C87.8871 22.7289 88.4013 22.9586 88.8176 23.3198C89.234 23.681 89.534 24.1576 89.6795 24.6893C89.7763 25.0423 89.8025 25.4109 89.7568 25.7741C89.711 26.1372 89.5942 26.4878 89.4129 26.8058C89.2316 27.1237 88.9894 27.4029 88.7002 27.6272C88.4109 27.8515 88.0803 28.0167 87.7273 28.1132Z" fill="#5479F7"/>
</svg>
