<svg width="78" height="79" viewBox="0 0 78 79" fill="none" xmlns="http://www.w3.org/2000/svg">
<path d="M30.8898 3.18365C29.1978 3.71101 21.6662 6.16358 14.1496 12.6724C12.3325 14.246 4.96821 20.6223 1.82377 29.1927C-3.52788 43.7765 2.87662 65.9643 21.324 74.8787C42.8114 85.2652 69.957 72.4816 76.1443 55.3738C78.8892 47.7858 79.0133 35.2033 72.0965 26.9065C66.5305 20.2285 58.308 16.708 58.6765 10.3919C58.8542 7.34991 59.8581 6.85639 59.2198 4.93965C57.7064 0.39643 42.8838 -0.54643 30.8898 3.18365Z" fill="#CADDFF"/>
<path d="M63.4964 24.238L65.0945 25.0558L66.3485 23.5518C66.7477 23.674 67.1565 23.7624 67.5706 23.8159L68.097 25.7007L69.8887 25.6067L70.2224 23.6768C70.6281 23.582 71.0252 23.4537 71.4097 23.2932L72.8104 24.6648L74.3144 23.6909L73.6395 21.8606C73.9439 21.5754 74.2238 21.265 74.4761 20.9328L76.3731 21.4207L77.19 19.8226L75.6897 18.5705C75.8119 18.1713 75.9002 17.7625 75.9539 17.3484L77.8339 16.823L77.7399 15.0322L75.8091 14.6966C75.7143 14.2909 75.586 13.8938 75.4256 13.5093L76.7961 12.1096L75.8213 10.6055L73.9845 11.2805C73.6994 10.9756 73.3886 10.6957 73.0557 10.4438L73.5427 8.54589L71.9446 7.72806L70.6906 9.23212C70.2913 9.10997 69.8826 9.02161 69.4685 8.96797L68.9421 7.08789L67.1504 7.18189L66.8167 9.1118C66.412 9.20168 66.0155 9.32493 65.6313 9.48029L64.2306 8.10877L62.7265 9.08266L63.4024 10.9186C63.098 11.2041 62.8181 11.5148 62.5658 11.8473L60.6679 11.3594L59.8519 12.9575L61.356 14.2125C61.2338 14.6117 61.1455 15.0205 61.0918 15.4345L59.207 15.96L59.301 17.7508L61.2328 18.0864C61.3272 18.4922 61.4555 18.8893 61.6164 19.2736L60.2458 20.6734L61.2206 22.1774L63.0565 21.5025C63.3424 21.8069 63.6534 22.0868 63.9862 22.3391L63.4964 24.238ZM64.4092 14.283C64.8251 13.4694 65.4729 12.7974 66.2707 12.352C67.0685 11.9066 67.9805 11.7078 68.8913 11.7807C69.8021 11.8537 70.6708 12.1951 71.3875 12.7619C72.1042 13.3286 72.6368 14.0951 72.9178 14.9645C73.1989 15.834 73.2158 16.7672 72.9664 17.6462C72.717 18.5252 72.2125 19.3106 71.5167 19.9028C70.821 20.4951 69.9652 20.8677 69.0576 20.9736C68.1501 21.0795 67.2315 20.9138 66.4181 20.4976C65.878 20.2216 65.3975 19.8419 65.0042 19.3801C64.6109 18.9184 64.3124 18.3837 64.1259 17.8065C63.9393 17.2294 63.8683 16.6211 63.9169 16.0166C63.9656 15.412 64.1328 14.8229 64.4092 14.283Z" fill="#99B9FF"/>
<path d="M55.4632 12.8577L56.6345 12.869L56.9278 11.6244C57.1965 11.5807 57.4609 11.5143 57.7184 11.426L58.5757 12.3661L59.5957 11.7908L59.2272 10.5687C59.4368 10.3956 59.6315 10.205 59.809 9.99906L61.0273 10.392L61.6224 9.38427L60.6927 8.51192C60.7865 8.25603 60.8591 7.99287 60.9098 7.7251L62.1601 7.45625L62.1714 6.2859L60.9268 5.99261C60.8814 5.72394 60.8138 5.45951 60.7247 5.20203L61.6713 4.34566L61.096 3.32571L59.8739 3.69327C59.6999 3.48434 59.5091 3.29004 59.3033 3.11232L59.6953 1.89497L58.6866 1.29992L57.8105 2.22869C57.5551 2.13448 57.2922 2.06185 57.0246 2.01154L56.7549 0.761281L55.5836 0.75L55.2903 1.99367C55.0216 2.03904 54.7572 2.10664 54.4997 2.19578L53.6424 1.24916L52.6224 1.82447L52.99 3.04652C52.7809 3.21993 52.5865 3.41048 52.409 3.61618L51.187 3.22419L50.5929 4.23191L51.5235 5.10709C51.429 5.36242 51.3564 5.62533 51.3064 5.89296L50.0542 6.16181L50.043 7.33217L51.2876 7.6264C51.3329 7.89506 51.4005 8.1595 51.4897 8.41697L50.5431 9.27335L51.1184 10.298L52.3404 9.9295C52.5142 10.1389 52.705 10.3336 52.911 10.5114L52.519 11.7287L53.5277 12.3238L54.4029 11.3941C54.6586 11.4886 54.9218 11.5615 55.1897 11.6122L55.4632 12.8577ZM53.0925 6.77754C53.0983 6.18133 53.2807 5.60022 53.6168 5.1077C53.9528 4.61518 54.4273 4.23337 54.9804 4.01055C55.5334 3.78772 56.1401 3.73389 56.7238 3.85587C57.3074 3.97784 57.8417 4.27014 58.2593 4.6958C58.6768 5.12147 58.9587 5.66137 59.0694 6.24725C59.18 6.83313 59.1145 7.43868 58.881 7.98731C58.6475 8.53594 58.2566 9.00301 57.7577 9.32948C57.2588 9.65594 56.6742 9.82713 56.078 9.82139C55.6819 9.81845 55.2902 9.73728 54.9255 9.58255C54.5608 9.42783 54.2303 9.20258 53.9528 8.91976C53.6754 8.63693 53.4566 8.30209 53.309 7.93447C53.1613 7.56685 53.0877 7.17368 53.0925 6.77754Z" fill="#99B9FF"/>
<path d="M75.9291 70.33L75.2711 70.9372C75.0286 71.1642 74.7383 71.334 74.4216 71.4342C74.1049 71.5344 73.7698 71.5625 73.4409 71.5163L3.32511 60.9484C2.39259 60.8083 1.94137 59.8382 1.93103 58.8803L1.46101 10.5528C1.45537 9.98312 1.79848 7.70916 1.79848 7.70916C1.79848 7.70916 3.50371 6.48147 4.5246 6.00863C4.98125 5.79412 5.49071 5.71798 5.99012 5.7896L75.4206 16.0614C75.7627 16.1106 76.0752 16.2825 76.3 16.545C76.5249 16.8075 76.6466 17.1428 76.6426 17.4884L76.7996 68.3709C76.7981 68.7399 76.72 69.1046 76.5701 69.4419C76.4203 69.7791 76.202 70.0815 75.9291 70.33Z" fill="#5479F7"/>
<path d="M73.805 71.4009L3.55204 61.0031C3.02594 60.9274 2.54523 60.6632 2.19938 60.2596C1.85353 59.856 1.6661 59.3405 1.67196 58.809L1.52344 8.58734C1.52395 8.44726 1.55418 8.30888 1.61215 8.18135C1.67011 8.05382 1.75449 7.94004 1.85969 7.84754C1.96489 7.75505 2.08853 7.68593 2.22243 7.64477C2.35634 7.60361 2.49745 7.59134 2.63645 7.60877L73.0765 18.0291C73.4184 18.0787 73.7308 18.2507 73.9555 18.5131C74.1803 18.7755 74.3021 19.1106 74.2986 19.4561L74.4565 70.8284C74.4568 70.9105 74.4395 70.9918 74.4058 71.0668C74.3721 71.1417 74.3227 71.2085 74.261 71.2628C74.1992 71.317 74.1266 71.3574 74.048 71.3812C73.9693 71.405 73.8865 71.4117 73.805 71.4009Z" fill="#99B9FF"/>
<path d="M11.8312 62.3685C11.8244 62.3694 11.8174 62.3694 11.8105 62.3685L3.5316 61.1464C2.97312 61.0635 2.46337 60.7817 2.09616 60.3528C1.72895 59.924 1.52899 59.3769 1.53307 58.8123L1.37891 8.58688C1.37919 8.42449 1.41452 8.26408 1.4825 8.11661C1.55048 7.96913 1.6495 7.83807 1.77278 7.73238C1.89182 7.62798 2.03191 7.55036 2.18355 7.50479C2.33519 7.45921 2.49485 7.44675 2.65172 7.46823L38.8809 12.8265C38.9183 12.8319 38.952 12.8521 38.9745 12.8824C38.9971 12.9127 39.0067 12.9508 39.0012 12.9881C38.9957 13.0255 38.9756 13.0592 38.9453 13.0818C38.915 13.1044 38.8769 13.114 38.8395 13.1085L2.61036 7.75024C2.49286 7.73377 2.37318 7.74297 2.25958 7.77722C2.14598 7.81146 2.04116 7.86993 1.95233 7.94859C1.85965 8.02763 1.78514 8.12574 1.73387 8.23622C1.6826 8.34671 1.65579 8.46696 1.65528 8.58876L1.81509 58.8038C1.81123 59.3008 1.98695 59.7825 2.30993 60.1602C2.63291 60.5379 3.08142 60.7863 3.57296 60.8597L11.8519 62.0818C11.8893 62.0845 11.9241 62.102 11.9486 62.1304C11.9731 62.1588 11.9853 62.1957 11.9826 62.2331C11.9798 62.2705 11.9623 62.3053 11.934 62.3298C11.9056 62.3543 11.8686 62.3665 11.8312 62.3638V62.3685Z" fill="black"/>
<path d="M73.8815 71.5426C73.8501 71.5426 73.8187 71.5404 73.7875 71.536L32.0789 65.3656C32.0415 65.3601 32.0078 65.34 31.9852 65.3097C31.9626 65.2793 31.9531 65.2413 31.9585 65.2039C31.964 65.1665 31.9841 65.1328 32.0145 65.1102C32.0448 65.0877 32.0828 65.0781 32.1202 65.0836L73.8242 71.253C73.8837 71.2611 73.9442 71.2561 74.0017 71.2386C74.0591 71.2211 74.1121 71.1914 74.157 71.1515C74.2047 71.1114 74.243 71.0613 74.2693 71.0048C74.2956 70.9483 74.3092 70.8867 74.3093 70.8244L74.1513 19.4531C74.1538 19.1418 74.0438 18.8401 73.8416 18.6034C73.6393 18.3668 73.3584 18.2112 73.0505 18.1652L62.4365 16.5963C62.3991 16.5908 62.3655 16.5707 62.3429 16.5403C62.3203 16.51 62.3107 16.472 62.3162 16.4346C62.3217 16.3972 62.3418 16.3635 62.3721 16.3409C62.4025 16.3184 62.4405 16.3088 62.4779 16.3143L73.091 17.8841C73.4658 17.9396 73.8079 18.1287 74.0544 18.4164C74.3009 18.7042 74.4351 19.0713 74.4324 19.4502L74.5903 70.8216C74.5902 70.9244 74.5678 71.026 74.5248 71.1195C74.4818 71.2129 74.4192 71.296 74.3412 71.363C74.2146 71.4762 74.0514 71.54 73.8815 71.5426Z" fill="black"/>
<path d="M36.9336 47.8142L4.81895 42.7615C4.44025 42.7031 4.09545 42.5097 3.84807 42.217C3.60069 41.9244 3.46742 41.5522 3.47281 41.1691V11.8718C3.47281 10.7832 4.47396 9.91367 5.53432 10.0801L37.6489 15.1328C38.0275 15.1913 38.3722 15.3847 38.6195 15.6773C38.8667 15.97 38.9998 16.3421 38.9941 16.7252V46.0197C38.9941 47.1111 37.9939 47.9806 36.9336 47.8142Z" fill="white"/>
<path d="M6.88379 40.0871L5.97101 39.9216C5.56961 39.8492 5.24906 39.4412 5.25 39.0032L5.25846 34.2231C5.25846 33.7747 5.59594 33.471 6.01049 33.5387L6.91481 33.6976C7.31715 33.7681 7.63864 34.1761 7.63864 34.6151V39.4018C7.63112 39.852 7.29647 40.1613 6.88379 40.0871Z" fill="#CADDFF"/>
<path d="M10.1191 40.5957L9.20539 40.4303C8.80493 40.3579 8.48438 39.9499 8.48438 39.5128L8.49378 31.7105C8.49378 31.2611 8.83219 30.9528 9.24581 31.0252L10.1492 31.1841C10.5515 31.2546 10.873 31.6625 10.873 32.1006V39.9029C10.8702 40.3617 10.5308 40.67 10.1191 40.5957Z" fill="#CADDFF"/>
<path d="M13.3486 41.1039L12.4359 40.9431C12.0354 40.8707 11.7148 40.4628 11.7148 40.0256L11.7242 33.8345C11.7242 33.3861 12.0617 33.0778 12.4763 33.1502L13.3806 33.3091C13.782 33.3796 14.1044 33.7875 14.1044 34.2256V40.4233C14.1007 40.8689 13.7613 41.1781 13.3486 41.1039Z" fill="#CADDFF"/>
<path d="M16.583 41.6127L15.6702 41.4473C15.2688 41.3749 14.9492 40.9669 14.9492 40.5298L14.9596 28.3516C14.9596 27.9022 15.297 27.5939 15.7116 27.6663L16.615 27.8252C17.0164 27.8957 17.3388 28.3036 17.3388 28.7426V40.9275C17.335 41.3787 16.9957 41.687 16.583 41.6127Z" fill="#CADDFF"/>
<path d="M19.8135 42.1203L18.8998 41.9558C18.4993 41.8834 18.1787 41.4755 18.1797 41.0384L18.19 25.7241C18.19 25.2748 18.5275 24.9665 18.9421 25.0389L19.8454 25.1968C20.2468 25.2673 20.5693 25.6753 20.5693 26.1143V41.4369C20.5655 41.8834 20.2271 42.1955 19.8135 42.1203Z" fill="#CADDFF"/>
<path d="M23.0479 42.6288L22.1341 42.4643C21.7337 42.3919 21.4131 41.9849 21.4141 41.5468L21.4244 23.9004C21.4244 23.452 21.7619 23.1427 22.1764 23.2151L23.0798 23.374C23.4812 23.4445 23.8036 23.8515 23.8036 24.2905V41.9445C23.7999 42.3948 23.4596 42.704 23.0479 42.6288Z" fill="#99B9FF"/>
<path d="M26.2822 43.1375L25.3685 42.973C24.9681 42.9006 24.6475 42.4926 24.6484 42.0555L24.6578 29.5201C24.6578 29.0717 24.9953 28.7634 25.4099 28.8357L26.3133 28.9937C26.7147 29.0642 27.0371 29.4721 27.0371 29.9111V42.4532C27.0343 42.9034 26.6949 43.2127 26.2822 43.1375Z" fill="#CADDFF"/>
<path d="M29.5136 43.6459L28.5999 43.4814C28.1995 43.409 27.8789 43.0011 27.8789 42.564L27.8892 25.9299C27.8892 25.4815 28.2267 25.1723 28.6413 25.2446L29.5447 25.4035C29.9461 25.474 30.2685 25.882 30.2685 26.3201V42.9588C30.2657 43.4128 29.9263 43.7211 29.5136 43.6459Z" fill="#CADDFF"/>
<path d="M32.748 44.1545L31.8343 43.99C31.4338 43.9176 31.1133 43.5106 31.1133 43.0725L31.1246 21.4422C31.1246 20.9938 31.4611 20.6854 31.8766 20.7569L32.78 20.9157C33.1814 20.9862 33.5038 21.3942 33.5038 21.8332V43.4701C33.5 43.9204 33.1607 44.2334 32.748 44.1545Z" fill="#CADDFF"/>
<path d="M36.0205 44.6708L35.1068 44.5053C34.7063 44.433 34.3858 44.0259 34.3867 43.5888L34.3971 18.6016C34.3971 18.1522 34.7345 17.8439 35.1491 17.9163L36.0525 18.0742C36.4548 18.1447 36.7763 18.5527 36.7763 18.9917V43.9855C36.7725 44.4367 36.4341 44.7451 36.0205 44.6708Z" fill="#99B9FF"/>
<path d="M38.9908 63.9741L26.1254 61.9201C25.917 61.8769 25.7295 61.7637 25.5944 61.5991C25.4593 61.4346 25.3846 61.2287 25.3828 61.0158V48.22C25.3828 47.7857 25.7156 47.4867 26.1254 47.5525L38.9908 49.6093C39.1992 49.6529 39.3864 49.7665 39.5214 49.9311C39.6563 50.0958 39.7308 50.3017 39.7325 50.5146V63.3104C39.7325 63.7438 39.4045 64.0427 38.9908 63.9741Z" fill="white"/>
<path d="M28.8055 61.2595L27.5195 61.0537V51.8149L28.8055 52.0208V61.2595Z" fill="#99B9FF"/>
<path d="M28.8055 61.2595L27.5195 61.0536V55.0938L28.8055 55.2987V61.2595Z" fill="#CADDFF"/>
<path d="M31.2157 61.645L29.9297 61.4391V53.5635L31.2157 53.7684V61.645Z" fill="#99B9FF"/>
<path d="M31.2157 61.6448L29.9297 61.4389V56.9258L31.2157 57.1317V61.6448Z" fill="#CADDFF"/>
<path d="M33.4666 62.0471L32.1797 61.8412V54.6885L33.4666 54.8943V62.0471Z" fill="#99B9FF"/>
<path d="M33.4666 62.0473L32.1797 61.8415V58.5212L33.4666 58.7262V62.0473Z" fill="#CADDFF"/>
<path d="M35.7772 62.5013L34.4922 62.2963V53.0576L35.7772 53.2635V62.5013Z" fill="#99B9FF"/>
<path d="M35.7772 62.5012L34.4922 62.2963V54.5898L35.7772 54.7957V62.5012Z" fill="#CADDFF"/>
<path d="M38.1063 62.8322L36.8203 62.6263V54.0259L38.1063 54.2317V62.8322Z" fill="#99B9FF"/>
<path d="M38.1063 62.8321L36.8203 62.6262V56.9634L38.1063 57.1692V62.8321Z" fill="#CADDFF"/>
<path d="M38.9114 63.0907H38.8888L26.4276 61.0978C26.2999 61.0726 26.1847 61.004 26.1018 60.9036C26.0189 60.8032 25.9732 60.6772 25.9727 60.547L26.0215 49.6303C26.0215 49.5929 26.0364 49.557 26.0628 49.5306C26.0893 49.5041 26.1251 49.4893 26.1625 49.4893C26.1999 49.4898 26.2355 49.5049 26.2617 49.5315C26.2879 49.5581 26.3026 49.5939 26.3026 49.6312L26.2537 60.5479C26.2543 60.6109 26.2761 60.672 26.3154 60.7212C26.3548 60.7704 26.4095 60.8051 26.4709 60.8196L38.9368 62.8106C38.9742 62.8136 39.0088 62.8313 39.0332 62.8598C39.0575 62.8884 39.0695 62.9255 39.0665 62.9629C39.0635 63.0003 39.0458 63.0349 39.0172 63.0593C38.9886 63.0836 38.9516 63.0956 38.9142 63.0926L38.9114 63.0907Z" fill="#5479F7"/>
<path d="M31.3401 50.0419L27.4766 49.4243V48.7004L31.3401 49.318V50.0419Z" fill="#99B9FF"/>
<path d="M31.3558 51.1512L27.4922 50.5336V49.8098L31.3558 50.4274V51.1512Z" fill="#99B9FF"/>
<path d="M23.0772 51.0414L3.24609 47.8603V45.811L23.0772 48.9921V51.0414Z" fill="#CADDFF"/>
<path d="M23.1709 54.3276L3.33984 51.1474V49.0981L23.1709 52.2792V54.3276Z" fill="#CADDFF"/>
<path d="M23.2022 57.7372L3.37109 54.5561V52.5068L23.2022 55.6879V57.7372Z" fill="#CADDFF"/>
<path d="M23.2022 60.9098L3.37109 57.7287V55.6794L23.2022 58.8605V60.9098Z" fill="#CADDFF"/>
<path d="M56.3956 36.4442L41.0898 34.3338V32.6577L56.3956 34.7681V36.4442Z" fill="#CADDFF"/>
<path d="M56.4298 39.5624L41.125 37.4529V35.7759L56.4298 37.8863V39.5624Z" fill="#CADDFF"/>
<path d="M72.3331 65.2733L57.0273 63.1629V61.4858L72.3331 63.5962V65.2733Z" fill="#CADDFF"/>
<path d="M72.3673 68.3917L57.0625 66.2813V64.6042L72.3673 66.7146V68.3917Z" fill="#CADDFF"/>
<path d="M72.2393 58.6378L56.9336 56.5283V54.8513L72.2393 56.9617V58.6378Z" fill="#CADDFF"/>
<path d="M72.2706 61.7567L56.9648 59.6463V57.9692L72.2706 60.0796V61.7567Z" fill="#CADDFF"/>
<path d="M69.7516 43.6544C71.6034 43.6544 73.1047 42.1443 73.1047 40.2816C73.1047 38.4188 71.6034 36.9087 69.7516 36.9087C67.8997 36.9087 66.3984 38.4188 66.3984 40.2816C66.3984 42.1443 67.8997 43.6544 69.7516 43.6544Z" fill="white"/>
<path d="M69.703 40.887C70.3847 40.887 70.9373 40.3344 70.9373 39.6527C70.9373 38.9711 70.3847 38.4185 69.703 38.4185C69.0213 38.4185 68.4688 38.9711 68.4688 39.6527C68.4688 40.3344 69.0213 40.887 69.703 40.887Z" fill="#5479F7"/>
<path d="M72.2218 42.5103C71.9549 42.0915 71.5876 41.746 71.1533 41.5052C70.7189 41.2643 70.2313 41.1358 69.7347 41.1312C69.2381 41.1267 68.7482 41.2462 68.3095 41.479C67.8708 41.7118 67.4972 42.0505 67.2227 42.4643C67.2932 42.5479 67.3674 42.6297 67.4464 42.7077C68.8414 44.0962 70.9368 43.9918 72.2218 42.5103Z" fill="#5479F7"/>
<path d="M69.7453 43.7954C68.899 43.7963 68.0818 43.4865 67.4487 42.925C66.7522 42.3085 66.327 41.4421 66.2655 40.514C66.2041 39.5859 66.5114 38.671 67.1207 37.9681C67.4215 37.6207 67.7883 37.3364 68.1997 37.1316C68.6111 36.9268 69.059 36.8055 69.5176 36.7748C69.9761 36.7442 70.4362 36.8047 70.8713 36.9528C71.3063 37.101 71.7076 37.334 72.0521 37.6382C72.7488 38.2548 73.174 39.1213 73.2354 40.0496C73.2968 40.9779 72.9895 41.8929 72.3802 42.5959C72.0793 42.9437 71.7122 43.2282 71.3004 43.4328C70.8885 43.6374 70.4401 43.7581 69.9812 43.7879C69.9022 43.7926 69.8233 43.7954 69.7453 43.7954ZM67.6349 42.7135C67.9514 42.9931 68.3202 43.2072 68.72 43.3434C69.1197 43.4797 69.5425 43.5353 69.964 43.5072C70.3854 43.479 70.797 43.3677 71.1751 43.1795C71.5532 42.9913 71.8903 42.73 72.1668 42.4108C72.7276 41.7642 73.0105 40.9224 72.9542 40.0684C72.8979 39.2143 72.5068 38.417 71.866 37.8497C71.5494 37.57 71.1805 37.3558 70.7806 37.2195C70.3807 37.0833 69.9577 37.0277 69.5362 37.0559C69.1147 37.0842 68.7029 37.1957 68.3248 37.384C67.9466 37.5724 67.6096 37.8339 67.3331 38.1533C66.7727 38.8 66.4901 39.6416 66.5466 40.4954C66.6031 41.3492 66.9942 42.1463 67.6349 42.7135Z" fill="black"/>
<path d="M68.0719 35.13C69.9238 35.13 71.425 33.6199 71.425 31.7571C71.425 29.8944 69.9238 28.3843 68.0719 28.3843C66.22 28.3843 64.7188 29.8944 64.7188 31.7571C64.7188 33.6199 66.22 35.13 68.0719 35.13Z" fill="white"/>
<path d="M68.0614 32.3614C68.7428 32.3421 69.2795 31.7741 69.2603 31.0927C69.241 30.4113 68.673 29.8745 67.9916 29.8938C67.3102 29.9131 66.7734 30.4811 66.7927 31.1625C66.812 31.8439 67.38 32.3806 68.0614 32.3614Z" fill="#5479F7"/>
<path d="M70.546 33.9868C70.279 33.5682 69.9117 33.2228 69.4775 32.982C69.0432 32.7413 68.5557 32.6127 68.0592 32.608C67.5627 32.6034 67.0728 32.7227 66.6341 32.9553C66.1954 33.1879 65.8217 33.5263 65.5469 33.9398C65.6183 34.0244 65.6916 34.1062 65.7706 34.1843C67.1656 35.5727 69.261 35.4683 70.546 33.9868Z" fill="#5479F7"/>
<path d="M68.0685 35.2722C67.2223 35.2728 66.4052 34.9631 65.772 34.4017C65.0756 33.7848 64.6507 32.9181 64.5897 31.9899C64.5286 31.0616 64.8362 30.1467 65.4458 29.4439C65.7467 29.0966 66.1135 28.8123 66.525 28.6076C66.9364 28.4029 67.3844 28.2817 67.8429 28.2511C68.3015 28.2205 68.7615 28.2811 69.1965 28.4294C69.6315 28.5776 70.0328 28.8106 70.3772 29.1149C71.0738 29.7313 71.499 30.5977 71.5604 31.5259C71.6219 32.454 71.3146 33.3689 70.7053 34.0717C70.4046 34.4197 70.0376 34.7043 69.6257 34.909C69.2138 35.1137 68.7653 35.2342 68.3063 35.2637C68.2255 35.2693 68.1465 35.2722 68.0685 35.2722ZM65.9581 34.1902C66.2747 34.4699 66.6436 34.6841 67.0435 34.8203C67.4434 34.9566 67.8664 35.0122 68.2879 34.9839C68.7094 34.9557 69.1211 34.8442 69.4993 34.6558C69.8775 34.4675 70.2145 34.206 70.491 33.8865C71.0514 33.2399 71.334 32.3983 71.2775 31.5444C71.221 30.6906 70.8299 29.8936 70.1892 29.3264C69.8727 29.0468 69.5039 28.8327 69.1041 28.6964C68.7044 28.5602 68.2815 28.5045 67.8601 28.5327C67.4387 28.5608 67.0271 28.6722 66.649 28.8604C66.2709 29.0486 65.9338 29.3099 65.6573 29.6291C65.0965 30.2757 64.8135 31.1175 64.8699 31.9715C64.9262 32.8255 65.3173 33.6228 65.9581 34.1902Z" fill="black"/>
<path d="M61.1852 29.9259C63.037 29.9259 64.5383 28.4158 64.5383 26.553C64.5383 24.6903 63.037 23.1802 61.1852 23.1802C59.3333 23.1802 57.832 24.6903 57.832 26.553C57.832 28.4158 59.3333 29.9259 61.1852 29.9259Z" fill="white"/>
<path d="M61.1366 27.1585C61.8183 27.1585 62.3709 26.6059 62.3709 25.9242C62.3709 25.2425 61.8183 24.6899 61.1366 24.6899C60.4549 24.6899 59.9023 25.2425 59.9023 25.9242C59.9023 26.6059 60.4549 27.1585 61.1366 27.1585Z" fill="#5479F7"/>
<path d="M63.6593 28.783C63.3925 28.3642 63.0252 28.0186 62.5909 27.7777C62.1567 27.5368 61.6691 27.4081 61.1725 27.4035C60.6759 27.3988 60.186 27.5182 59.7472 27.7509C59.3085 27.9837 58.9348 28.3223 58.6602 28.736C58.7307 28.8197 58.8049 28.9015 58.8839 28.9804C60.2751 30.3679 62.3705 30.2636 63.6593 28.783Z" fill="#5479F7"/>
<path d="M61.1788 30.067C60.3321 30.0666 59.515 29.7556 58.8823 29.1928C58.1857 28.5764 57.7606 27.71 57.6991 26.7818C57.6377 25.8537 57.945 24.9388 58.5543 24.2359C58.8551 23.8886 59.2219 23.6042 59.6333 23.3994C60.0447 23.1946 60.4926 23.0734 60.9512 23.0427C61.4097 23.012 61.8698 23.0725 62.3048 23.2207C62.7399 23.3689 63.1412 23.6018 63.4857 23.906C64.1824 24.5226 64.6076 25.3891 64.669 26.3174C64.7304 27.2457 64.4231 28.1608 63.8138 28.8638C63.5131 29.2118 63.1461 29.4964 62.7342 29.701C62.3223 29.9057 61.8738 30.0263 61.4148 30.0557C61.3358 30.0642 61.2569 30.067 61.1788 30.067ZM59.0685 28.985C59.385 29.2648 59.7539 29.479 60.1537 29.6154C60.5536 29.7517 60.9765 29.8074 61.398 29.7792C61.8196 29.7511 62.2313 29.6397 62.6095 29.4514C62.9877 29.2631 63.3248 29.0017 63.6013 28.6823C64.1618 28.0355 64.4444 27.1937 64.3879 26.3398C64.3314 25.4858 63.9403 24.6886 63.2996 24.1213C62.9831 23.8423 62.6145 23.6287 62.215 23.4929C61.8156 23.357 61.3932 23.3016 60.9722 23.3299C60.5513 23.3581 60.1401 23.4694 59.7623 23.6573C59.3846 23.8453 59.0478 24.1061 58.7714 24.4249C58.2107 25.0713 57.9277 25.9129 57.9841 26.7668C58.0404 27.6207 58.4314 28.4179 59.0722 28.985H59.0685Z" fill="black"/>
<path d="M54.0111 30.7646C57.1536 27.6222 57.1536 22.5272 54.0111 19.3848C50.8687 16.2423 45.7738 16.2423 42.6313 19.3848C39.4889 22.5272 39.4889 27.6222 42.6313 30.7646C45.7738 33.9071 50.8687 33.9071 54.0111 30.7646Z" fill="#CADDFF"/>
<path d="M53.0189 30.7653C56.1614 27.6229 56.1614 22.528 53.0189 19.3855C49.8765 16.2431 44.7816 16.2431 41.6391 19.3855C38.4967 22.528 38.4967 27.6229 41.6391 30.7653C44.7816 33.9078 49.8765 33.9078 53.0189 30.7653Z" fill="#5479F7"/>
<path d="M47.3303 33.2631C45.7106 33.2633 44.1273 32.7832 42.7805 31.8835C41.4337 30.9838 40.384 29.7049 39.7641 28.2086C39.1442 26.7122 38.982 25.0657 39.2979 23.4771C39.6139 21.8886 40.3938 20.4294 41.539 19.2842C42.6843 18.1389 44.1435 17.359 45.732 17.043C47.3206 16.7271 48.9671 16.8894 50.4634 17.5093C51.9598 18.1292 53.2387 19.1789 54.1384 20.5256C55.0381 21.8724 55.5182 23.4557 55.518 25.0754C55.5153 27.2461 54.6518 29.3271 53.1169 30.862C51.5819 32.3969 49.501 33.2604 47.3303 33.2631ZM47.3303 17.1687C45.7664 17.1685 44.2377 17.6321 42.9373 18.5008C41.6369 19.3694 40.6234 20.6042 40.0248 22.049C39.4262 23.4937 39.2695 25.0835 39.5744 26.6173C39.8794 28.1511 40.6324 29.5601 41.7381 30.6659C42.8439 31.7718 44.2527 32.5249 45.7865 32.8301C47.3202 33.1352 48.9101 32.9787 50.3549 32.3803C51.7997 31.7819 53.0346 30.7685 53.9034 29.4682C54.7723 28.1679 55.236 26.6392 55.236 25.0754C55.2338 22.9792 54.4002 20.9696 52.9181 19.4873C51.4359 18.005 49.4264 17.1712 47.3303 17.1687Z" fill="black"/>
<path d="M49.3112 30.0559C52.0642 28.9604 53.4078 25.8406 52.3122 23.0877C51.2167 20.3348 48.0969 18.9912 45.344 20.0867C42.5911 21.1822 41.2475 24.302 42.343 27.0549C43.4385 29.8079 46.5583 31.1515 49.3112 30.0559Z" fill="white"/>
<path d="M49.9729 25.5077C50.2122 24.046 49.2213 22.667 47.7596 22.4276C46.2979 22.1883 44.9189 23.1792 44.6795 24.6409C44.4401 26.1026 45.4311 27.4816 46.8928 27.721C48.3545 27.9604 49.7335 26.9695 49.9729 25.5077Z" fill="#5479F7"/>
<path d="M47.3036 24.9233L49.0624 22.9492L49.3256 23.2124L47.3515 24.9712C47.3448 24.974 47.3375 24.9748 47.3303 24.9734C47.3232 24.972 47.3167 24.9685 47.3115 24.9633C47.3064 24.9582 47.3029 24.9516 47.3015 24.9445C47.3001 24.9374 47.3008 24.93 47.3036 24.9233Z" fill="white"/>
<path d="M47.3254 25.1252C47.2913 25.125 47.2579 25.1151 47.2293 25.0965C47.2007 25.0779 47.178 25.0514 47.164 25.0203C47.15 24.9891 47.1453 24.9546 47.1504 24.9209C47.1556 24.8871 47.1703 24.8556 47.1928 24.83L48.9517 22.8559C48.9647 22.8418 48.9803 22.8303 48.9977 22.8223C49.0152 22.8142 49.034 22.8097 49.0532 22.8089C49.0723 22.8084 49.0914 22.8117 49.1092 22.8189C49.127 22.826 49.1431 22.8367 49.1566 22.8503L49.4198 23.1135C49.4334 23.1269 49.444 23.1431 49.4509 23.1609C49.4579 23.1787 49.4611 23.1978 49.4602 23.2169C49.4598 23.2361 49.4554 23.2551 49.4473 23.2725C49.4392 23.29 49.4276 23.3056 49.4132 23.3184L47.4391 25.0772C47.4082 25.1063 47.3678 25.1233 47.3254 25.1252ZM49.0626 23.1576L48.632 23.6399L49.1143 23.2094L49.0626 23.1576Z" fill="black"/>
<path d="M49.0533 23.2178C49.029 23.1937 49.0097 23.165 48.9965 23.1333C48.9834 23.1017 48.9766 23.0678 48.9766 23.0335C48.9766 22.9993 48.9834 22.9654 48.9965 22.9337C49.0097 22.9021 49.029 22.8734 49.0533 22.8493L49.7772 22.1245L50.1457 22.4939L49.4218 23.2178C49.3977 23.2421 49.369 23.2614 49.3374 23.2746C49.3058 23.2878 49.2719 23.2946 49.2376 23.2946C49.2033 23.2946 49.1694 23.2878 49.1378 23.2746C49.1062 23.2614 49.0775 23.2421 49.0533 23.2178Z" fill="white"/>
<path d="M49.2404 23.4362C49.161 23.4361 49.0834 23.4124 49.0174 23.3681C48.9515 23.3238 48.9002 23.2609 48.87 23.1874C48.8398 23.1139 48.8321 23.0332 48.8478 22.9553C48.8635 22.8774 48.902 22.806 48.9584 22.75L49.6822 22.0252C49.7093 21.9999 49.7449 21.9858 49.7819 21.9858C49.8189 21.9858 49.8545 21.9999 49.8815 22.0252L50.25 22.3947C50.2633 22.4076 50.2738 22.4231 50.2809 22.4403C50.288 22.4574 50.2916 22.4758 50.2914 22.4943C50.2915 22.5129 50.2879 22.5312 50.2808 22.5483C50.2737 22.5655 50.2633 22.581 50.25 22.594L49.5262 23.3178C49.4888 23.3555 49.4443 23.3855 49.3952 23.4058C49.3462 23.4261 49.2935 23.4365 49.2404 23.4362ZM49.78 22.3251L49.1558 22.9493C49.1446 22.9603 49.1356 22.9735 49.1295 22.988C49.1234 23.0025 49.1203 23.0181 49.1203 23.0339C49.1203 23.0497 49.1234 23.0653 49.1295 23.0798C49.1356 23.0943 49.1446 23.1075 49.1558 23.1185C49.1786 23.1403 49.2089 23.1525 49.2404 23.1525C49.272 23.1525 49.3023 23.1403 49.325 23.1185L49.9492 22.4943L49.78 22.3251Z" fill="black"/>
<path d="M49.5802 22.6914C49.4963 22.6075 49.4492 22.4937 49.4492 22.3751C49.4492 22.2564 49.4963 22.1427 49.5802 22.0588L58.0274 13.6125C58.0688 13.5709 58.118 13.5379 58.1722 13.5153C58.2264 13.4928 58.2846 13.4812 58.3433 13.4812C58.402 13.4812 58.4601 13.4928 58.5143 13.5153C58.5685 13.5379 58.6177 13.5709 58.6591 13.6125C58.7007 13.6539 58.7337 13.7031 58.7563 13.7573C58.7788 13.8115 58.7904 13.8696 58.7904 13.9283C58.7904 13.987 58.7788 14.0452 58.7563 14.0994C58.7337 14.1536 58.7007 14.2028 58.6591 14.2442L50.2157 22.6914C50.1742 22.7336 50.1247 22.7671 50.0702 22.79C50.0156 22.8128 49.9571 22.8246 49.8979 22.8246C49.8388 22.8246 49.7802 22.8128 49.7257 22.79C49.6711 22.7671 49.6217 22.7336 49.5802 22.6914Z" fill="white"/>
<path d="M49.8958 22.9632C49.7796 22.9629 49.6661 22.9283 49.5695 22.8636C49.473 22.7989 49.3978 22.7071 49.3533 22.5997C49.3089 22.4923 49.2972 22.3742 49.3198 22.2602C49.3424 22.1462 49.3983 22.0415 49.4803 21.9592L57.9238 13.5129C57.9784 13.4584 58.0431 13.4151 58.1144 13.3856C58.1857 13.356 58.2621 13.3408 58.3393 13.3408C58.4165 13.3408 58.4929 13.356 58.5642 13.3856C58.6354 13.4151 58.7002 13.4584 58.7548 13.5129C58.8094 13.5675 58.8526 13.6323 58.8822 13.7036C58.9117 13.7748 58.9269 13.8513 58.9269 13.9284C58.9269 14.0056 58.9117 14.082 58.8822 14.1533C58.8526 14.2246 58.8094 14.2894 58.7548 14.3439L50.3095 22.7911C50.2552 22.8456 50.1908 22.8889 50.1198 22.9184C50.0488 22.9479 49.9727 22.9631 49.8958 22.9632ZM58.343 13.6229C58.3029 13.6227 58.2631 13.6304 58.2259 13.6458C58.1888 13.6611 58.1551 13.6837 58.1268 13.7122L49.6796 22.1585C49.6224 22.2161 49.5903 22.294 49.5903 22.3752C49.5903 22.4564 49.6224 22.5342 49.6796 22.5918C49.7379 22.6475 49.8153 22.6785 49.8958 22.6785C49.9764 22.6785 50.0538 22.6475 50.1121 22.5918L58.5593 14.1446C58.5877 14.1163 58.6102 14.0826 58.6256 14.0455C58.641 14.0084 58.6489 13.9686 58.6489 13.9284C58.6489 13.8883 58.641 13.8485 58.6256 13.8114C58.6102 13.7743 58.5877 13.7406 58.5593 13.7122C58.531 13.6837 58.4973 13.6611 58.4602 13.6458C58.423 13.6304 58.3832 13.6227 58.343 13.6229Z" fill="black"/>
<path d="M55.5584 16.0801L55.2971 14.8101C55.2461 14.5635 55.2572 14.3081 55.3294 14.0669C55.4016 13.8257 55.5326 13.6062 55.7107 13.4282L57.3313 11.8076C57.3448 11.7944 57.3615 11.785 57.3798 11.7805C57.398 11.7759 57.4172 11.7763 57.4352 11.7817C57.4533 11.7871 57.4696 11.7972 57.4824 11.811C57.4952 11.8248 57.5041 11.8418 57.5081 11.8602L57.8954 13.7403L55.5584 16.0801Z" fill="#5479F7"/>
<path d="M55.5594 16.2202C55.5458 16.2202 55.5322 16.2183 55.519 16.2146C55.4953 16.2068 55.4741 16.1929 55.4576 16.1742C55.4411 16.1555 55.4298 16.1328 55.425 16.1083L55.1637 14.8365C55.1076 14.5671 55.1195 14.2879 55.1985 14.0243C55.2774 13.7607 55.4209 13.5209 55.6158 13.3267L57.2327 11.708C57.2642 11.6768 57.3034 11.6546 57.3464 11.6439C57.3894 11.6331 57.4344 11.6341 57.4769 11.6468C57.5193 11.6595 57.5575 11.6834 57.5875 11.716C57.6175 11.7486 57.6382 11.7887 57.6473 11.8321L58.0346 13.7122C58.0392 13.735 58.0381 13.7586 58.0314 13.7809C58.0247 13.8032 58.0125 13.8235 57.996 13.84L55.6591 16.1807C55.6323 16.2063 55.5965 16.2205 55.5594 16.2202ZM57.3841 11.9533L55.8114 13.526C55.6497 13.6875 55.5307 13.8867 55.4651 14.1056C55.3994 14.3245 55.3892 14.5562 55.4354 14.78L55.645 15.7953L57.7432 13.6962L57.3841 11.9533Z" fill="black"/>
<path d="M56.1914 16.7129L57.4633 16.9723C57.7099 17.0231 57.9652 17.0118 58.2063 16.9396C58.4475 16.8674 58.667 16.7366 58.8451 16.5587L60.463 14.94C60.4762 14.9265 60.4855 14.9097 60.49 14.8913C60.4945 14.873 60.494 14.8538 60.4885 14.8357C60.483 14.8177 60.4728 14.8014 60.4589 14.7886C60.4449 14.7759 60.4278 14.7671 60.4094 14.7632L58.5293 14.375L56.1914 16.7129Z" fill="#5479F7"/>
<path d="M57.771 17.1472C57.6576 17.1472 57.5445 17.1356 57.4335 17.1124L56.1626 16.8511C56.1378 16.8457 56.1149 16.8338 56.0963 16.8166C56.0777 16.7994 56.0641 16.7775 56.0568 16.7532C56.0495 16.7289 56.0488 16.7032 56.0549 16.6786C56.0609 16.6539 56.0734 16.6314 56.0911 16.6133L58.429 14.2754C58.4455 14.2589 58.4658 14.2468 58.4881 14.2403C58.5105 14.2337 58.5341 14.2328 58.5569 14.2378L60.4369 14.6251C60.4803 14.6342 60.5204 14.6548 60.553 14.6848C60.5856 14.7148 60.6095 14.753 60.6222 14.7955C60.6349 14.8379 60.6359 14.883 60.6252 14.926C60.6144 14.9689 60.5922 15.0082 60.561 15.0396L58.9404 16.6603C58.6303 16.9708 58.2098 17.1459 57.771 17.1472ZM56.4756 16.6274L57.4908 16.836C57.7147 16.8824 57.9465 16.8724 58.1654 16.8067C58.3844 16.7411 58.5835 16.6219 58.7449 16.46L60.3176 14.8864L58.5747 14.5282L56.4756 16.6274Z" fill="black"/>
<path d="M58.2656 15.0349L59.7969 15.3169L58.2656 15.0349Z" fill="white"/>
<path d="M59.7978 15.4614C59.7891 15.4624 59.7803 15.4624 59.7715 15.4614L58.2402 15.1747C58.222 15.1713 58.2046 15.1644 58.1891 15.1543C58.1736 15.1442 58.1602 15.1311 58.1497 15.1158C58.1392 15.1006 58.1319 15.0834 58.128 15.0652C58.1242 15.0471 58.124 15.0284 58.1274 15.0102C58.1308 14.992 58.1377 14.9746 58.1478 14.9591C58.1579 14.9436 58.171 14.9302 58.1863 14.9197C58.2016 14.9093 58.2187 14.9019 58.2369 14.8981C58.255 14.8942 58.2737 14.894 58.2919 14.8974L59.8232 15.1794C59.8606 15.1828 59.8951 15.2009 59.9192 15.2297C59.9433 15.2585 59.9549 15.2957 59.9515 15.3331C59.9482 15.3705 59.9301 15.405 59.9013 15.4291C59.8724 15.4532 59.8352 15.4648 59.7978 15.4614Z" fill="black"/>
<path d="M57.6406 15.6562L59.1719 15.9383L57.6406 15.6562Z" fill="white"/>
<path d="M59.1748 16.084C59.166 16.085 59.1572 16.085 59.1484 16.084L57.6171 15.802C57.5797 15.795 57.5466 15.7735 57.5251 15.7421C57.5036 15.7107 57.4955 15.6721 57.5024 15.6347C57.5094 15.5973 57.531 15.5642 57.5623 15.5427C57.5937 15.5212 57.6324 15.513 57.6698 15.52L59.2001 15.8067C59.2187 15.8084 59.2367 15.8137 59.2531 15.8223C59.2696 15.8309 59.2842 15.8427 59.2961 15.857C59.3081 15.8713 59.317 15.8878 59.3226 15.9055C59.3281 15.9232 59.3301 15.9419 59.3285 15.9604C59.3268 15.9789 59.3215 15.9969 59.3129 16.0134C59.3042 16.0299 59.2925 16.0445 59.2782 16.0564C59.2639 16.0683 59.2474 16.0773 59.2297 16.0829C59.212 16.0884 59.1933 16.0904 59.1748 16.0887V16.084Z" fill="black"/>
<path d="M55.3125 16.645L55.6284 16.9609L55.3125 16.645Z" fill="white"/>
<path d="M55.6282 17.102C55.5909 17.1019 55.5551 17.087 55.5286 17.0607L55.2127 16.7448C55.1866 16.7183 55.1719 16.6825 55.1719 16.6452C55.1719 16.6079 55.1866 16.5721 55.2127 16.5455C55.2258 16.5323 55.2413 16.5219 55.2584 16.5147C55.2755 16.5076 55.2938 16.5039 55.3124 16.5039C55.3309 16.5039 55.3493 16.5076 55.3664 16.5147C55.3835 16.5219 55.399 16.5323 55.412 16.5455L55.7279 16.8614C55.7476 16.8811 55.761 16.9062 55.7664 16.9336C55.7718 16.9609 55.769 16.9892 55.7584 17.015C55.7477 17.0407 55.7297 17.0627 55.7065 17.0782C55.6833 17.0937 55.6561 17.102 55.6282 17.102Z" fill="black"/>
<path d="M55.6758 16.2793L55.9916 16.5951L55.6758 16.2793Z" fill="white"/>
<path d="M55.9944 16.7361C55.9571 16.736 55.9213 16.7212 55.8948 16.6948L55.5761 16.3789C55.5623 16.366 55.5512 16.3505 55.5435 16.3332C55.5358 16.3159 55.5316 16.2972 55.5313 16.2783C55.5309 16.2593 55.5344 16.2405 55.5415 16.223C55.5486 16.2054 55.5592 16.1895 55.5725 16.1761C55.5859 16.1627 55.6019 16.1521 55.6194 16.145C55.637 16.1379 55.6558 16.1345 55.6747 16.1348C55.6937 16.1351 55.7123 16.1393 55.7296 16.147C55.7469 16.1547 55.7625 16.1658 55.7754 16.1796L56.0913 16.4955C56.1045 16.5085 56.1149 16.524 56.1221 16.5411C56.1292 16.5583 56.1329 16.5766 56.1329 16.5951C56.1329 16.6137 56.1292 16.632 56.1221 16.6491C56.1149 16.6662 56.1045 16.6818 56.0913 16.6948C56.0655 16.7205 56.0308 16.7353 55.9944 16.7361Z" fill="black"/>
<path d="M56.043 15.9136L56.3588 16.2294L56.043 15.9136Z" fill="white"/>
<path d="M56.3596 16.3707C56.3411 16.3708 56.3227 16.3671 56.3056 16.36C56.2885 16.3529 56.273 16.3425 56.26 16.3294L55.9441 16.0135C55.9192 15.9868 55.9056 15.9514 55.9063 15.9149C55.9069 15.8784 55.9217 15.8435 55.9475 15.8177C55.9734 15.7918 56.0082 15.777 56.0448 15.7764C56.0813 15.7757 56.1167 15.7893 56.1434 15.8142L56.4592 16.1263C56.4789 16.146 56.4923 16.1711 56.4978 16.1985C56.5032 16.2258 56.5004 16.2541 56.4897 16.2799C56.4791 16.3056 56.461 16.3277 56.4379 16.3432C56.4147 16.3586 56.3875 16.3669 56.3596 16.367V16.3707Z" fill="black"/>
<path d="M43.5846 4.0937C43.3987 4.0937 43.2169 4.03857 43.0623 3.93528C42.9077 3.83199 42.7872 3.68517 42.7161 3.5134C42.6449 3.34163 42.6263 3.15262 42.6626 2.97027C42.6989 2.78792 42.7884 2.62042 42.9199 2.48895C43.0513 2.35749 43.2188 2.26796 43.4012 2.23169C43.5835 2.19541 43.7725 2.21403 43.9443 2.28518C44.1161 2.35633 44.2629 2.47682 44.3662 2.6314C44.4695 2.78599 44.5246 2.96774 44.5246 3.15366C44.5246 3.40298 44.4256 3.64208 44.2493 3.81837C44.073 3.99467 43.8339 4.0937 43.5846 4.0937ZM43.5846 2.48811C43.4544 2.48811 43.3272 2.52671 43.219 2.59901C43.1108 2.67132 43.0264 2.77409 42.9766 2.89433C42.9268 3.01457 42.9138 3.14687 42.9392 3.27452C42.9646 3.40216 43.0272 3.51941 43.1193 3.61144C43.2113 3.70347 43.3286 3.76614 43.4562 3.79153C43.5838 3.81692 43.7162 3.80389 43.8364 3.75408C43.9566 3.70428 44.0594 3.61994 44.1317 3.51172C44.204 3.40351 44.2426 3.27629 44.2426 3.14614C44.2394 2.97331 44.1688 2.80857 44.0459 2.68704C43.923 2.56552 43.7574 2.49683 43.5846 2.49564V2.48811Z" fill="black"/>
<path d="M30.1289 72.979C30.1142 72.9791 30.0996 72.9769 30.0856 72.9725C29.28 72.7168 28.4744 72.4235 27.6923 72.1001C27.6742 72.0938 27.6575 72.0839 27.6434 72.0709C27.6293 72.058 27.6179 72.0423 27.6101 72.0248C27.6022 72.0073 27.598 71.9884 27.5977 71.9692C27.5974 71.95 27.601 71.931 27.6083 71.9133C27.6156 71.8955 27.6264 71.8795 27.6401 71.8661C27.6538 71.8527 27.6701 71.8422 27.688 71.8353C27.7059 71.8284 27.725 71.8253 27.7442 71.826C27.7633 71.8268 27.7822 71.8314 27.7995 71.8397C28.575 72.1593 29.3721 72.4498 30.1712 72.7036C30.189 72.709 30.2056 72.7178 30.2199 72.7296C30.2343 72.7414 30.2462 72.756 30.255 72.7724C30.2637 72.7888 30.2691 72.8068 30.2709 72.8253C30.2726 72.8439 30.2707 72.8626 30.2652 72.8803C30.2558 72.9091 30.2376 72.9341 30.2131 72.9519C30.1886 72.9696 30.1591 72.9791 30.1289 72.979Z" fill="black"/>
<path d="M39.3273 74.3965H39.0209C35.9899 74.3687 32.9801 73.8893 30.0905 72.9742C30.0548 72.9629 30.0251 72.9378 30.008 72.9046C29.9908 72.8714 29.9875 72.8327 29.9988 72.797C30.0102 72.7614 30.0352 72.7317 30.0684 72.7145C30.1017 72.6973 30.1404 72.694 30.176 72.7054C34.8554 74.1805 39.8219 74.503 44.6527 73.6454C44.6712 73.6421 44.6901 73.6425 44.7085 73.6466C44.7269 73.6507 44.7443 73.6583 44.7597 73.6691C44.7751 73.6799 44.7882 73.6936 44.7983 73.7094C44.8084 73.7253 44.8153 73.743 44.8186 73.7615C44.8218 73.78 44.8214 73.799 44.8174 73.8174C44.8133 73.8357 44.8057 73.8531 44.7949 73.8685C44.7841 73.8839 44.7704 73.8971 44.7545 73.9072C44.7387 73.9173 44.721 73.9242 44.7025 73.9274C42.928 74.2409 41.1293 74.3978 39.3273 74.3965Z" fill="black"/>
<path d="M26.5726 74.6417C26.5547 74.6417 26.5368 74.6385 26.52 74.6323C26.112 74.4687 25.7012 74.2939 25.2979 74.1124C25.2662 74.0957 25.242 74.0675 25.2303 74.0335C25.2186 73.9996 25.2204 73.9625 25.2351 73.9298C25.2498 73.897 25.2765 73.8712 25.3097 73.8574C25.3428 73.8437 25.38 73.8431 25.4135 73.8558C25.8131 74.0353 26.221 74.2083 26.6253 74.37C26.6599 74.384 26.6876 74.4112 26.7022 74.4455C26.7168 74.4799 26.7172 74.5187 26.7033 74.5533C26.693 74.5795 26.675 74.602 26.6517 74.6178C26.6284 74.6336 26.6008 74.6419 26.5726 74.6417Z" fill="black"/>
<path d="M38.4551 76.9261H38.1336C34.1543 76.8913 30.2164 76.114 26.5223 74.6343C26.4875 74.6203 26.4597 74.5931 26.445 74.5586C26.4302 74.5242 26.4298 74.4853 26.4438 74.4505C26.4577 74.4157 26.4849 74.3879 26.5194 74.3732C26.5539 74.3585 26.5928 74.358 26.6275 74.372C32.4231 76.6839 38.7688 77.248 44.8813 75.9945C44.9173 75.9869 44.9548 75.9938 44.9857 76.0137C45.0167 76.0336 45.0386 76.0648 45.0467 76.1007C45.0542 76.1375 45.0469 76.1757 45.0262 76.2071C45.0056 76.2384 44.9734 76.2604 44.9367 76.2681C42.8039 76.7057 40.6323 76.9261 38.4551 76.9261Z" fill="black"/>
<path d="M47.5604 75.878C47.3063 75.878 47.0621 75.7795 46.8791 75.6033C46.6961 75.4271 46.5884 75.1868 46.5788 74.9329C46.5692 74.679 46.6583 74.4312 46.8275 74.2416C46.9967 74.0521 47.2327 73.9354 47.4861 73.9162C47.7394 73.8969 47.9904 73.9766 48.1862 74.1384C48.3821 74.3003 48.5076 74.5317 48.5365 74.7842C48.5653 75.0366 48.4952 75.2904 48.3409 75.4923C48.1866 75.6941 47.9601 75.8283 47.7089 75.8667C47.6598 75.8742 47.6101 75.878 47.5604 75.878ZM47.5604 74.1963C47.5248 74.1963 47.4893 74.1992 47.4542 74.2047C47.2762 74.2327 47.116 74.3286 47.0073 74.4721C46.8985 74.6157 46.8495 74.7958 46.8707 74.9747C46.8918 75.1536 46.9815 75.3173 47.1208 75.4315C47.26 75.5457 47.4382 75.6015 47.6177 75.5872C47.7973 75.5729 47.9643 75.4896 48.0838 75.3548C48.2032 75.22 48.2658 75.0441 48.2584 74.8642C48.251 74.6842 48.1741 74.5141 48.044 74.3896C47.9138 74.265 47.7405 74.1958 47.5604 74.1963Z" fill="black"/>
<path d="M23.6812 73.683C23.6622 73.6833 23.6433 73.6798 23.6257 73.6726L21.3282 72.6978C21.3052 72.6881 21.2851 72.6723 21.2702 72.6523C21.2552 72.6322 21.2458 72.6085 21.2431 72.5836C21.2403 72.5587 21.2442 72.5335 21.2544 72.5106C21.2645 72.4878 21.2806 72.468 21.301 72.4534L23.2356 71.0612C23.2553 71.0473 23.2783 71.0386 23.3023 71.036C23.3263 71.0334 23.3505 71.0369 23.3728 71.0462C23.395 71.0555 23.4144 71.0703 23.4292 71.0892C23.444 71.1081 23.4537 71.1305 23.4574 71.1543L23.8193 73.5213C23.8225 73.5413 23.8212 73.5618 23.8157 73.5813C23.8101 73.6008 23.8004 73.6189 23.7871 73.6343C23.7739 73.6496 23.7575 73.662 23.739 73.6704C23.7206 73.6788 23.7005 73.6831 23.6802 73.683H23.6812ZM21.6685 72.5361L23.5035 73.3135L23.214 71.425L21.6685 72.5361Z" fill="black"/>
<path d="M25.6109 7.34433C25.5797 7.34457 25.5494 7.3345 25.5245 7.31567C25.4997 7.29684 25.4818 7.27033 25.4737 7.24027C25.4655 7.2102 25.4675 7.17828 25.4794 7.14949C25.4913 7.1207 25.5124 7.09666 25.5394 7.08112C28.6534 5.23322 32.0684 3.9477 35.6279 3.28336C35.6465 3.27996 35.6655 3.28025 35.6839 3.2842C35.7023 3.28815 35.7197 3.29568 35.7352 3.30638C35.7507 3.31707 35.7639 3.33071 35.7742 3.34652C35.7844 3.36233 35.7914 3.37999 35.7948 3.39851C35.7982 3.41703 35.7979 3.43603 35.7939 3.45444C35.79 3.47285 35.7825 3.49029 35.7718 3.50579C35.7611 3.52128 35.7474 3.53452 35.7316 3.54474C35.7158 3.55496 35.6982 3.56197 35.6796 3.56537C32.1526 4.22308 28.7686 5.49585 25.6823 7.32553C25.6606 7.33804 25.6359 7.34452 25.6109 7.34433Z" fill="black"/>
<path d="M31.7344 6.92787C31.7025 6.92779 31.6716 6.9169 31.6467 6.89699C31.6218 6.87707 31.6044 6.8493 31.5973 6.81822C31.5902 6.78713 31.5938 6.75455 31.6076 6.72581C31.6215 6.69707 31.6446 6.67386 31.6733 6.65996C34.0156 5.53203 36.4969 4.71935 39.0526 4.24311C39.0708 4.23972 39.0895 4.23994 39.1076 4.24377C39.1258 4.24761 39.143 4.25497 39.1582 4.26544C39.1735 4.27592 39.1866 4.2893 39.1967 4.30482C39.2068 4.32035 39.2137 4.33771 39.2171 4.35592C39.2205 4.37412 39.2203 4.39282 39.2165 4.41095C39.2126 4.42907 39.2053 4.44626 39.1948 4.46153C39.1843 4.47681 39.1709 4.48987 39.1554 4.49998C39.1399 4.51008 39.1225 4.51703 39.1043 4.52042C36.573 4.99196 34.1154 5.79674 31.7955 6.91377C31.7764 6.92296 31.7556 6.92778 31.7344 6.92787Z" fill="black"/>
<path d="M6.17969 72.4281L6.40624 74.5864L7.86518 74.7575V72.1987L6.17969 72.4281Z" fill="white"/>
<path d="M7.86546 74.8983H7.84854L6.38959 74.7272C6.35789 74.7235 6.32841 74.7091 6.30601 74.6864C6.28362 74.6637 6.26966 74.634 6.26645 74.6022L6.0399 72.4401C6.0359 72.4037 6.04637 72.3671 6.06904 72.3383C6.09171 72.3094 6.12479 72.2907 6.16116 72.286L7.84665 72.0585C7.86657 72.0557 7.88684 72.0572 7.90612 72.0629C7.92541 72.0686 7.94327 72.0783 7.95852 72.0914C7.97348 72.1047 7.98548 72.1211 7.99373 72.1394C8.00199 72.1577 8.00633 72.1775 8.00646 72.1976V74.7564C8.00646 74.7938 7.99161 74.8296 7.96516 74.8561C7.93872 74.8825 7.90285 74.8974 7.86546 74.8974V74.8983ZM6.5353 74.4593L7.72727 74.5966V72.3602L6.33695 72.5482L6.5353 74.4593Z" fill="black"/>
<path d="M8.09293 78.5139C7.17225 78.6404 6.23861 78.6404 5.31793 78.5139C5.22738 78.5017 5.14042 78.4705 5.06271 78.4224C4.985 78.3744 4.91826 78.3105 4.86684 78.235C4.81542 78.1594 4.78047 78.0739 4.76425 77.984C4.74803 77.8941 4.75091 77.8018 4.7727 77.713C5.03027 76.6649 5.47397 74.6776 6.23635 73.7573L6.42435 74.2565L6.68663 73.7865C6.70414 73.7546 6.72894 73.7274 6.75901 73.707C6.78907 73.6865 6.82354 73.6735 6.85959 73.669L7.43208 73.5966C7.48983 73.5892 7.54823 73.6039 7.59563 73.6377C7.64303 73.6715 7.67593 73.722 7.68777 73.779L7.78177 74.2123L7.982 73.6426L8.64755 77.7845C8.67005 77.9546 8.62437 78.1268 8.52049 78.2634C8.4166 78.4001 8.26291 78.4901 8.09293 78.5139Z" fill="#5479F7"/>
<path d="M6.7145 78.7499C6.24099 78.7514 5.76795 78.72 5.2988 78.6559C5.18874 78.6409 5.08306 78.6029 4.98862 78.5444C4.89417 78.486 4.81308 78.4083 4.75059 78.3165C4.6881 78.2246 4.64561 78.1207 4.62588 78.0114C4.60615 77.9021 4.60962 77.7899 4.63607 77.682L4.69153 77.4554C4.95568 76.3697 5.3975 74.5535 6.12791 73.6699C6.14368 73.6508 6.16416 73.6363 6.18733 73.6277C6.21049 73.619 6.23551 73.6166 6.25989 73.6207C6.28426 73.6248 6.30713 73.6353 6.32621 73.651C6.34528 73.6667 6.35989 73.6872 6.36856 73.7103L6.45035 73.9256L6.56409 73.7206C6.5931 73.6694 6.63373 73.6257 6.68272 73.5931C6.7317 73.5604 6.78766 73.5397 6.84611 73.5326L7.41859 73.4602C7.50199 73.4501 7.58637 73.4683 7.65827 73.5117C7.73017 73.5552 7.78545 73.6214 7.81529 73.7L7.85007 73.6003C7.86035 73.5706 7.8803 73.5451 7.90674 73.528C7.93317 73.5109 7.96457 73.5031 7.99593 73.5059C8.02729 73.5087 8.05681 73.522 8.07978 73.5435C8.10275 73.565 8.11785 73.5936 8.12268 73.6248L8.78917 77.7666C8.81684 77.9739 8.76172 78.1838 8.63574 78.3508C8.50976 78.5177 8.32306 78.6284 8.1161 78.6587C7.6516 78.7217 7.18325 78.7522 6.7145 78.7499ZM6.19654 74.0468C5.59303 74.9389 5.2048 76.5351 4.96508 77.5184L4.90962 77.745C4.89233 77.8143 4.88993 77.8865 4.90257 77.9568C4.9152 78.0271 4.9426 78.094 4.98295 78.1529C5.02333 78.2124 5.07574 78.2626 5.13679 78.3005C5.19784 78.3384 5.26616 78.3631 5.33734 78.3729C6.24552 78.498 7.16656 78.498 8.07474 78.3729C8.20742 78.3531 8.32703 78.282 8.40788 78.175C8.48874 78.0679 8.52438 77.9335 8.50716 77.8004L7.92903 74.2113L7.91399 74.2555C7.90397 74.2849 7.88456 74.3101 7.85877 74.3272C7.83298 74.3444 7.80224 74.3526 7.77132 74.3506C7.74039 74.3486 7.711 74.3364 7.68768 74.316C7.66436 74.2956 7.64842 74.268 7.64232 74.2377L7.54831 73.8043C7.54281 73.7826 7.52976 73.7636 7.51149 73.7507C7.49323 73.7378 7.47095 73.7318 7.44867 73.7338L6.87619 73.8062C6.86216 73.8083 6.84879 73.8135 6.83707 73.8215C6.82535 73.8294 6.81558 73.84 6.8085 73.8522L6.54717 74.3223C6.53415 74.3459 6.51462 74.3653 6.49089 74.3782C6.46715 74.3911 6.44022 74.3969 6.41329 74.3949C6.38637 74.3929 6.36057 74.3833 6.33898 74.3671C6.31738 74.3508 6.3009 74.3288 6.29148 74.3035L6.19654 74.0468Z" fill="black"/>
<path d="M6.40538 78.0552C5.98784 78.0578 5.57132 78.0136 5.16359 77.9236C5.14474 77.9203 5.12675 77.9132 5.11073 77.9027C5.09471 77.8923 5.08099 77.8786 5.07041 77.8627C5.05982 77.8468 5.05259 77.8288 5.04916 77.81C5.04573 77.7912 5.04617 77.7718 5.05045 77.7532C5.05473 77.7345 5.06276 77.7169 5.07406 77.7015C5.08535 77.686 5.09968 77.673 5.11615 77.6633C5.13263 77.6536 5.15092 77.6473 5.1699 77.6449C5.18889 77.6424 5.20817 77.6439 5.22657 77.6491C6.63663 77.9715 8.12378 77.5551 8.1407 77.5551C8.17635 77.5446 8.21472 77.5485 8.24747 77.5661C8.28021 77.5837 8.30468 77.6136 8.31555 77.6491C8.32559 77.6848 8.3214 77.7229 8.30387 77.7555C8.28633 77.7881 8.25681 77.8127 8.22154 77.824C7.62828 77.9771 7.01808 78.0548 6.40538 78.0552Z" fill="black"/>
<path d="M6.05744 76.4507C6.03892 76.4511 6.02053 76.4477 6.0033 76.4409C5.98608 76.4341 5.97036 76.424 5.95704 76.4111C5.94373 76.3982 5.93309 76.3829 5.92571 76.3659C5.91834 76.3489 5.91439 76.3306 5.91408 76.3121C5.91377 76.2936 5.91712 76.2752 5.92392 76.258C5.93072 76.2407 5.94084 76.225 5.95372 76.2117C5.9666 76.1984 5.98197 76.1877 5.99896 76.1804C6.01595 76.173 6.03422 76.169 6.05274 76.1687L7.4205 76.1236C7.4579 76.1224 7.49426 76.136 7.52158 76.1616C7.54891 76.1872 7.56496 76.2225 7.5662 76.2599C7.56745 76.2973 7.55379 76.3337 7.52823 76.361C7.50267 76.3883 7.46729 76.4044 7.4299 76.4056L6.06214 76.4507H6.05744Z" fill="black"/>
<path d="M13.0117 71.2793L13.2298 74.4284H14.9858L15.0676 71.2793H13.0117Z" fill="white"/>
<path d="M14.9865 74.5696H13.2305C13.1949 74.5697 13.1606 74.5562 13.1346 74.532C13.1086 74.5077 13.0928 74.4744 13.0904 74.439L12.8714 71.2898C12.8702 71.2705 12.8729 71.2511 12.8793 71.2329C12.8858 71.2146 12.8959 71.1979 12.909 71.1836C12.9223 71.1695 12.9383 71.1583 12.9561 71.1507C12.9739 71.1431 12.993 71.1393 13.0124 71.1394H15.0682C15.087 71.1394 15.1056 71.1431 15.1228 71.1504C15.1401 71.1576 15.1558 71.1683 15.1688 71.1817C15.1819 71.1951 15.1923 71.211 15.1992 71.2284C15.2061 71.2459 15.2096 71.2645 15.2093 71.2832L15.1275 74.4324C15.1265 74.4691 15.1112 74.504 15.0849 74.5297C15.0585 74.5553 15.0232 74.5696 14.9865 74.5696ZM13.3621 74.2876H14.8492L14.9235 71.4214H13.1628L13.3621 74.2876Z" fill="black"/>
<path d="M12.7735 76.2063C12.7714 76.351 12.8188 76.4921 12.9079 76.6061C12.997 76.7202 13.1224 76.8003 13.2633 76.8333C14.2719 77.0683 16.5459 77.592 17.1945 77.6878C18.0406 77.8138 19.0746 77.5553 19.5155 77.0637C19.9564 76.572 18.52 75.3951 17.8356 74.9674C16.8204 74.3319 15.8446 73.0769 15.4348 73.0196C15.0249 72.9623 14.2625 74.1476 14.2625 74.1476L13.0142 73.6231C12.8615 74.4759 12.781 75.34 12.7735 76.2063Z" fill="#5479F7"/>
<path d="M17.6329 77.8605C17.4794 77.8605 17.3261 77.8495 17.1742 77.8276C16.5162 77.7336 14.198 77.1958 13.2317 76.9702C13.0598 76.9293 12.9069 76.8312 12.7981 76.692C12.6893 76.5528 12.631 76.3808 12.6329 76.2041C12.6412 75.3299 12.7227 74.458 12.8763 73.5974C12.8807 73.5773 12.8895 73.5585 12.902 73.5423C12.9145 73.526 12.9305 73.5127 12.9487 73.5034C12.9671 73.4937 12.9874 73.4881 13.0082 73.4872C13.029 73.4862 13.0498 73.4898 13.069 73.4977L14.214 73.9743C14.4603 73.6068 15.0394 72.8209 15.4596 72.8801C15.6983 72.913 16.0001 73.1903 16.5133 73.6773C16.9392 74.0806 17.4214 74.5384 17.9159 74.8476C18.3586 75.1296 19.6437 76.0697 19.7396 76.7578C19.7519 76.8287 19.748 76.9015 19.7282 76.9707C19.7083 77.0399 19.673 77.1037 19.6249 77.1573C19.2348 77.5841 18.4207 77.8605 17.6329 77.8605ZM12.9149 76.2088C12.9137 76.3211 12.9508 76.4305 13.02 76.5189C13.0891 76.6074 13.1863 76.6698 13.2956 76.6957C14.2582 76.9204 16.5688 77.4478 17.2156 77.5484C18.0277 77.6687 19.0129 77.4092 19.4115 76.9684C19.4319 76.9454 19.4465 76.9179 19.4542 76.8881C19.4619 76.8584 19.4624 76.8272 19.4557 76.7973C19.3908 76.332 18.4301 75.5047 17.7636 75.0864C17.2447 74.7621 16.7512 74.2949 16.3169 73.8813C15.954 73.5372 15.578 73.1819 15.4182 73.1593C15.2302 73.1321 14.7291 73.6895 14.3841 74.2263C14.3662 74.2541 14.339 74.2747 14.3074 74.2845C14.2758 74.2943 14.2417 74.2926 14.2112 74.2798L13.1245 73.8239C12.9973 74.6128 12.9282 75.4099 12.9177 76.2088H12.9149Z" fill="black"/>
<path d="M17.6157 77.2805C15.7732 77.2805 13.316 76.2878 13.1778 76.2314C13.1606 76.2245 13.145 76.2142 13.1318 76.2012C13.1186 76.1882 13.1081 76.1727 13.1009 76.1556C13.0937 76.1385 13.09 76.1202 13.0898 76.1017C13.0897 76.0832 13.0932 76.0648 13.1002 76.0477C13.1072 76.0305 13.1175 76.0149 13.1305 76.0017C13.1435 75.9885 13.159 75.978 13.1761 75.9708C13.1931 75.9636 13.2114 75.9598 13.23 75.9597C13.2485 75.9596 13.2668 75.9631 13.284 75.9701C13.3282 75.9889 17.7407 77.7712 19.0183 76.614C19.0318 76.6005 19.048 76.5898 19.0658 76.5827C19.0836 76.5756 19.1026 76.5722 19.1218 76.5727C19.141 76.5732 19.1598 76.5777 19.1772 76.5857C19.1946 76.5938 19.2102 76.6053 19.223 76.6195C19.2358 76.6338 19.2455 76.6505 19.2517 76.6687C19.2578 76.6869 19.2601 76.7061 19.2586 76.7252C19.257 76.7443 19.2515 76.7629 19.2425 76.7798C19.2336 76.7967 19.2212 76.8117 19.2063 76.8237C18.8425 77.1564 18.2672 77.2805 17.6157 77.2805Z" fill="black"/>
<path d="M15.6725 75.375C15.6527 75.3749 15.6332 75.3708 15.6151 75.3629C15.597 75.3549 15.5807 75.3434 15.5672 75.3289C15.5424 75.301 15.5295 75.2645 15.5314 75.2272C15.5334 75.1899 15.5499 75.1548 15.5775 75.1296L16.4706 74.324C16.4985 74.2992 16.535 74.2863 16.5723 74.2883C16.6097 74.2902 16.6447 74.3068 16.6699 74.3344C16.6824 74.3481 16.6921 74.3641 16.6984 74.3816C16.7046 74.3991 16.7074 74.4176 16.7064 74.4362C16.7054 74.4547 16.7008 74.4729 16.6928 74.4896C16.6847 74.5064 16.6734 74.5213 16.6595 74.5337L15.7665 75.3393C15.7406 75.3623 15.7071 75.3751 15.6725 75.375Z" fill="black"/>
<path d="M5.68222 50.752C5.68222 50.752 5.13887 60.5961 4.85404 63.9943C4.56921 67.3926 5.51959 72.8542 5.51959 72.8542L8.22973 72.7169C8.22973 72.7169 8.41774 66.0756 8.61703 64.2312C8.61703 64.2312 9.76105 61.7307 10.1004 59.5009C10.4398 57.2711 11.5951 53.7488 11.5951 53.7488C11.5951 53.7488 12.5351 71.3276 12.6244 72.7104C12.6244 72.7104 14.7489 72.8044 15.5113 72.3249C15.5113 72.3249 16.8612 65.9148 16.6675 62.4273C16.4739 58.9397 16.6863 50.2744 16.6863 50.2744L5.68222 50.752Z" fill="black"/>
<path d="M8.11762 64.3665H7.28944C7.25205 64.3665 7.21618 64.3516 7.18974 64.3252C7.16329 64.2987 7.14844 64.2629 7.14844 64.2255C7.14844 64.1881 7.16329 64.1522 7.18974 64.1258C7.21618 64.0993 7.25205 64.0845 7.28944 64.0845H8.11762C8.15502 64.0845 8.19088 64.0993 8.21733 64.1258C8.24377 64.1522 8.25863 64.1881 8.25863 64.2255C8.25863 64.2629 8.24377 64.2987 8.21733 64.3252C8.19088 64.3516 8.15502 64.3665 8.11762 64.3665Z" fill="white"/>
<path d="M14.0171 69.4791C13.9986 69.4789 13.9804 69.475 13.9634 69.4677C13.9465 69.4603 13.9311 69.4497 13.9183 69.4364C13.9054 69.4232 13.8954 69.4075 13.8886 69.3903C13.8818 69.3731 13.8786 69.3547 13.8789 69.3362C13.909 67.6949 15.6998 64.7686 15.7769 64.6445C15.7865 64.6285 15.7992 64.6146 15.8143 64.6036C15.8293 64.5926 15.8464 64.5847 15.8646 64.5803C15.8827 64.576 15.9015 64.5752 15.9199 64.5782C15.9383 64.5812 15.956 64.5877 15.9718 64.5976C15.9877 64.6074 16.0014 64.6202 16.0123 64.6354C16.0231 64.6506 16.0308 64.6678 16.035 64.6859C16.0392 64.7041 16.0397 64.7229 16.0365 64.7413C16.0334 64.7597 16.0266 64.7773 16.0166 64.793C15.9987 64.8222 14.1891 67.7776 14.16 69.3409C14.1598 69.3594 14.1559 69.3776 14.1485 69.3946C14.1412 69.4116 14.1306 69.4269 14.1173 69.4398C14.104 69.4526 14.0884 69.4627 14.0712 69.4694C14.054 69.4762 14.0356 69.4795 14.0171 69.4791Z" fill="white"/>
<path d="M17.5437 35.0089C17.7411 34.9929 18.7093 36.9764 21.74 36.889C24.7707 36.8015 27.2017 33.423 27.2017 33.423C27.2017 33.423 28.2479 31.6586 29.0423 31.0203C29.8366 30.382 29.9607 30.2983 29.9607 30.2983C30.0325 30.405 30.0708 30.5307 30.0708 30.6593C30.0708 30.7879 30.0325 30.9136 29.9607 31.0203C29.7125 31.4104 29.0207 32.1408 29.0207 32.1408C29.2373 32.2643 29.4004 32.4638 29.4784 32.7007C29.5564 32.9376 29.5437 33.195 29.4427 33.423C29.0498 34.4185 27.9387 34.3386 27.9387 34.3386C27.9387 34.3386 25.692 44.2861 16.4062 39.5596L17.5437 35.0089Z" fill="white"/>
<path d="M21.0116 40.9706C19.5921 40.9706 18.0307 40.541 16.3424 39.6809C16.314 39.6665 16.2913 39.6428 16.2781 39.6137C16.2649 39.5847 16.2621 39.552 16.27 39.5211L17.4084 34.9741C17.4155 34.9454 17.4315 34.9196 17.4541 34.9005C17.4768 34.8814 17.5049 34.87 17.5344 34.8679C17.6444 34.8576 17.7224 34.9431 17.8831 35.1255C18.3362 35.6312 19.3994 36.8175 21.7373 36.7517C24.611 36.6737 26.9818 33.4823 27.0843 33.3413C27.1623 33.2115 28.1653 31.5411 28.9549 30.9066C29.7446 30.272 29.8781 30.1808 29.8828 30.1771C29.9125 30.158 29.9484 30.1508 29.9832 30.1569C30.018 30.163 30.0493 30.1819 30.0708 30.21C30.1606 30.3394 30.2093 30.4928 30.2105 30.6503C30.2117 30.8078 30.1653 30.962 30.0773 31.0927C29.8837 31.3963 29.4438 31.887 29.236 32.1136C29.518 32.342 29.8282 32.813 29.5688 33.471C29.2228 34.3481 28.3646 34.4637 28.0478 34.4759C27.8598 35.1687 26.7317 38.9505 23.655 40.3982C22.8272 40.7827 21.9243 40.9783 21.0116 40.9706ZM16.5708 39.4807C19.2594 40.8259 21.6029 41.0487 23.5347 40.1387C26.791 38.6111 27.7912 34.3434 27.8015 34.3001C27.8087 34.2671 27.8276 34.2379 27.8548 34.2178C27.8819 34.1977 27.9155 34.1882 27.9491 34.1911C27.9895 34.1911 28.9587 34.2484 29.3075 33.3638C29.5998 32.6212 28.9813 32.2715 28.9549 32.2574C28.9361 32.2469 28.9199 32.2323 28.9076 32.2146C28.8952 32.197 28.8871 32.1767 28.8837 32.1554C28.8804 32.1341 28.8819 32.1124 28.8882 32.0917C28.8945 32.0711 28.9055 32.0522 28.9202 32.0365C28.9267 32.0299 29.6017 31.3117 29.8405 30.9366C29.8831 30.875 29.9115 30.8046 29.9237 30.7307C29.9359 30.6567 29.9315 30.581 29.911 30.5089C29.7878 30.6029 29.5556 30.7853 29.1326 31.1256C28.3674 31.7404 27.3352 33.4757 27.3249 33.4898L27.3183 33.5001C27.2168 33.6411 24.8112 36.9491 21.7458 37.0328C19.2791 37.1033 18.1539 35.8474 17.6735 35.3125L17.6274 35.2618L16.5708 39.4807Z" fill="black"/>
<path d="M2.52344 39.5558C2.52344 39.5558 3.4334 33.6862 6.64646 32.2423C9.85952 30.7984 14.2053 30.9986 15.4039 31.7196C16.6024 32.4406 19.7281 35.7016 19.7281 35.7016L16.9681 39.5558C16.9681 39.5558 17.5989 49.9301 17.0997 52.6684C17.0997 52.6684 14.0286 53.0266 12.7266 52.5133C11.4247 52.0001 7.13904 51.2838 5.09445 52.2238L5.46577 39.0886L2.52344 39.5558Z" fill="#5479F7"/>
<path d="M14.9338 52.9326C14.1113 52.9326 13.2418 52.8678 12.673 52.645C11.3307 52.1167 7.09671 51.4567 5.1527 52.3507C5.13104 52.361 5.10708 52.3654 5.08318 52.3636C5.05928 52.3618 5.03627 52.3538 5.0164 52.3404C4.99648 52.3272 4.98025 52.3091 4.96924 52.2879C4.95822 52.2667 4.95278 52.243 4.95342 52.2191L5.31815 39.2513L2.54597 39.6921C2.52406 39.6955 2.50168 39.6936 2.48061 39.6867C2.45955 39.6798 2.4404 39.6681 2.42468 39.6525C2.40897 39.6368 2.39712 39.6177 2.39011 39.5967C2.38309 39.5757 2.3811 39.5533 2.38429 39.5314C2.42189 39.2879 3.34313 33.5697 6.58815 32.1107C9.77019 30.68 14.1743 30.8125 15.4762 31.5965C16.6776 32.3185 19.6998 35.4676 19.8277 35.6011C19.8505 35.6248 19.8642 35.6557 19.8666 35.6885C19.869 35.7213 19.8599 35.7539 19.8408 35.7806L17.1091 39.5944C17.1617 40.4677 17.7201 50.0354 17.2369 52.691C17.2313 52.7208 17.2163 52.7479 17.1942 52.7686C17.172 52.7892 17.1439 52.8022 17.1138 52.8057C16.3898 52.886 15.6622 52.9283 14.9338 52.9326ZM7.87412 51.6241C9.82565 51.6241 11.9313 52.0499 12.7764 52.3827C13.8979 52.8245 16.4313 52.5961 16.9765 52.5397C17.4343 49.6989 16.8308 39.6611 16.8252 39.5671C16.8227 39.5337 16.832 39.5004 16.8515 39.4731L19.5438 35.7129C19.0446 35.1978 16.3928 32.4773 15.3315 31.839C14.2128 31.166 9.90179 30.931 6.70377 32.3683C3.92031 33.6195 2.88815 38.3667 2.69732 39.3829L5.44224 38.9467C5.46267 38.9434 5.48358 38.9447 5.50343 38.9506C5.52328 38.9564 5.54156 38.9667 5.55692 38.9805C5.57277 38.994 5.58534 39.0109 5.59365 39.03C5.60196 39.049 5.60579 39.0697 5.60486 39.0905L5.23919 52.0076C5.96114 51.7303 6.89836 51.6241 7.87412 51.6241Z" fill="black"/>
<path d="M7.91547 49.6564C7.89696 49.658 7.87831 49.656 7.86058 49.6504C7.84286 49.6448 7.82642 49.6357 7.81219 49.6238C7.79796 49.6118 7.78623 49.5972 7.77766 49.5807C7.76909 49.5642 7.76385 49.5461 7.76225 49.5276C7.76064 49.5091 7.7627 49.4905 7.7683 49.4727C7.77391 49.455 7.78295 49.4386 7.79491 49.4243C7.80686 49.4101 7.82151 49.3984 7.838 49.3898C7.8545 49.3812 7.87252 49.376 7.89103 49.3744C12.7388 48.518 14.1555 45.1668 14.1696 45.1329C14.1846 45.0999 14.2118 45.0739 14.2456 45.0604C14.2793 45.0469 14.3169 45.0469 14.3506 45.0605C14.3843 45.0741 14.4115 45.1001 14.4264 45.1332C14.4414 45.1664 14.443 45.204 14.4309 45.2382C14.4168 45.2739 12.9494 48.7671 7.94462 49.6564C7.93494 49.6576 7.92515 49.6576 7.91547 49.6564Z" fill="black"/>
<path d="M16.7317 43.6572H10.4805L12.4386 36.6746H18.6898L16.7317 43.6572Z" fill="black"/>
<path d="M3.07582 39.5783L6.24 38.1636C6.24 38.1636 5.79442 43.5218 12.1952 41.0495C12.0454 40.5663 11.9771 40.0614 11.993 39.5558C12.0259 38.7511 12.5072 39.5295 12.5749 40.1837C12.6426 40.838 14.1457 40.572 15.0482 40.3144C15.9506 40.0568 17.1369 40.2251 15.0482 41.3776C12.9594 42.5301 12.5025 42.0159 12.5025 42.0159C12.5025 42.0159 9.83471 45.7478 6.51637 44.9554C2.43377 43.9796 3.07582 39.5783 3.07582 39.5783Z" fill="white"/>
<path d="M7.44576 45.2055C7.12316 45.2052 6.80169 45.1674 6.48785 45.0927C2.32441 44.0991 2.93356 39.6029 2.93356 39.5577C2.93719 39.5342 2.94666 39.512 2.96112 39.4931C2.97557 39.4742 2.99454 39.4593 3.01628 39.4496L6.17952 38.0349C6.20189 38.0247 6.22655 38.0207 6.25098 38.0232C6.27542 38.0256 6.29877 38.0346 6.31865 38.049C6.33885 38.0628 6.355 38.0817 6.36541 38.1039C6.37582 38.126 6.38013 38.1506 6.37787 38.1749C6.37787 38.1947 6.23498 40.1105 7.4843 41.043C8.44596 41.7621 9.97164 41.7349 12.02 40.964C11.892 40.5038 11.8346 40.0268 11.8498 39.5493C11.8545 39.4336 11.8696 39.0793 12.1149 39.0717H12.1206C12.4355 39.0717 12.6733 39.7833 12.7128 40.1688C12.7158 40.203 12.7269 40.2361 12.745 40.2653C12.7631 40.2945 12.7878 40.3191 12.8171 40.337C13.1527 40.5636 14.1586 40.4207 15.0074 40.1791C15.4634 40.0484 16.1919 39.9761 16.3291 40.3098C16.4504 40.6031 16.0763 40.9678 15.1146 41.5008C13.5043 42.3891 12.8049 42.3168 12.5361 42.2021C12.1168 42.7435 10.0534 45.2055 7.44576 45.2055ZM3.21557 39.6743C3.1454 40.4119 3.20909 41.1562 3.40358 41.8712C3.8548 43.4354 4.91329 44.4271 6.5499 44.8182C9.73851 45.5806 12.3622 41.9699 12.3885 41.9342C12.4005 41.9166 12.4164 41.9021 12.435 41.8918C12.4537 41.8816 12.4744 41.8758 12.4957 41.8749C12.5167 41.8743 12.5377 41.8781 12.5571 41.8862C12.5766 41.8943 12.5941 41.9065 12.6085 41.9219C12.6085 41.9219 13.0785 42.3045 14.9811 41.2536C16.0932 40.6407 16.0716 40.4179 16.0716 40.416C16.0293 40.3446 15.6138 40.3004 15.0883 40.4498C14.6587 40.572 13.2129 40.9434 12.662 40.5702C12.5982 40.5288 12.5446 40.4735 12.5053 40.4083C12.466 40.3432 12.4422 40.2699 12.4355 40.1941C12.4068 39.9082 12.3101 39.6333 12.1535 39.3923C12.1427 39.4468 12.1368 39.5022 12.1356 39.5577C12.1222 40.0473 12.1892 40.5357 12.334 41.0035C12.3457 41.038 12.3438 41.0756 12.3286 41.1087C12.3133 41.1417 12.286 41.1677 12.2522 41.1812C10.044 42.0347 8.3858 42.0639 7.32167 41.2686C6.20678 40.4339 6.09492 38.9561 6.09962 38.3846L3.21557 39.6743Z" fill="black"/>
<path d="M11.5199 29.5687C11.2463 29.8188 10.7124 30.1243 10.2978 29.9137C9.98666 29.7567 9.81275 29.3497 9.82309 28.8853C9.74087 28.8981 9.65691 28.8944 9.57618 28.8742C9.49545 28.854 9.41958 28.8178 9.35307 28.7678C9.14626 28.5845 9.18481 28.247 9.19327 28.0252C9.22993 27.0005 8.63582 26.8435 8.78059 26.1451C8.87323 25.7708 9.09408 25.4409 9.40477 25.2126C9.80993 24.9052 10.0844 25.0039 10.765 24.8253C11.9109 24.5254 11.9476 24.0319 12.7024 24.0291C12.7466 24.0291 13.7741 24.0403 14.1228 24.7501C14.4049 25.3282 14.0749 26.0295 13.7327 26.398C13.289 26.8755 12.9703 26.6395 12.5248 27.04C11.7417 27.745 12.3321 28.8233 11.5199 29.5687Z" fill="black"/>
<path d="M13.809 27.7394L13.7639 27.7C13.5373 27.5054 13.3014 27.2779 13.2412 26.9846C12.9846 25.7381 11.8433 25.2859 11.7907 26.43C11.7766 26.7195 10.7219 26.7045 10.8507 27.0072C11.1778 27.7977 11.1844 27.5853 10.7238 27.8767C10.6711 27.8784 10.6194 27.8905 10.5715 27.9124C10.3346 28.0233 10.2509 28.3439 10.3835 28.6287C10.4185 28.7084 10.4702 28.7796 10.535 28.8377C10.5999 28.8957 10.6764 28.9392 10.7595 28.9653V30.2136C10.7595 30.4425 10.6914 30.6662 10.5638 30.8562C10.4363 31.0462 10.255 31.194 10.0432 31.2806L9.62109 31.4535C9.62109 31.4535 11.5877 32.7367 13.5834 31.3276L13.3173 31.2082C13.0873 31.105 12.891 30.9392 12.7507 30.7298C12.6104 30.5204 12.5318 30.2757 12.5239 30.0237V29.7803C12.6527 29.7932 12.7827 29.7823 12.9075 29.7483C13.4659 29.5857 13.651 28.9427 13.5561 28.1427L13.7836 28.0205C13.8078 28.0069 13.8284 27.9876 13.8435 27.9643C13.8586 27.941 13.8678 27.9143 13.8703 27.8867C13.8728 27.859 13.8685 27.8311 13.8579 27.8055C13.8472 27.7798 13.8304 27.7572 13.809 27.7394Z" fill="white"/>
<path d="M11.5633 32.1246C10.8522 32.1199 10.1547 31.929 9.54034 31.571C9.51869 31.5572 9.50131 31.5377 9.49018 31.5146C9.47905 31.4915 9.4746 31.4658 9.47736 31.4403C9.47969 31.4147 9.48898 31.3902 9.50422 31.3695C9.51946 31.3488 9.54008 31.3326 9.56384 31.3228L9.98592 31.1508C10.1725 31.0746 10.3321 30.9445 10.4442 30.777C10.5563 30.6095 10.6157 30.4123 10.6148 30.2107V29.062C10.4555 28.9815 10.3279 28.8497 10.2525 28.6879C10.1771 28.5261 10.1584 28.3436 10.1993 28.1699C10.2183 28.0867 10.2559 28.0088 10.3093 27.9422C10.3627 27.8756 10.4305 27.822 10.5076 27.7854C10.5605 27.7607 10.617 27.7448 10.675 27.7384C10.7474 27.6942 10.8066 27.6623 10.8564 27.636C10.8855 27.62 10.9175 27.603 10.9363 27.5908C10.9092 27.5084 10.8778 27.4275 10.8423 27.3483C10.8085 27.2712 10.7671 27.1763 10.7201 27.0606C10.7048 27.0282 10.6968 26.9927 10.6968 26.9568C10.6968 26.9209 10.7048 26.8854 10.7201 26.8529C10.7944 26.6987 11.0106 26.6386 11.2597 26.5709C11.3828 26.5361 11.6103 26.4769 11.6489 26.4195C11.6827 25.7286 12.0803 25.644 12.2016 25.6346C12.6293 25.6045 13.2018 26.0971 13.3776 26.9582C13.4302 27.212 13.6511 27.4197 13.8551 27.5955L13.9002 27.6341C13.9386 27.6672 13.9683 27.7092 13.9868 27.7564C14.0053 27.8036 14.0121 27.8546 14.0066 27.905C14.001 27.9554 13.9833 28.0037 13.955 28.0458C13.9266 28.0878 13.8885 28.1223 13.8438 28.1464L13.7 28.2235C13.7827 29.1165 13.512 29.72 12.9405 29.8855C12.8486 29.9114 12.7539 29.9257 12.6585 29.9278V30.0218C12.6666 30.2466 12.7374 30.4648 12.8628 30.6516C12.9881 30.8384 13.1632 30.9866 13.3682 31.0793L13.6342 31.1987C13.6569 31.209 13.6764 31.225 13.6909 31.2452C13.7054 31.2654 13.7144 31.2891 13.7169 31.3139C13.7193 31.3386 13.7153 31.3636 13.705 31.3863C13.6948 31.409 13.6788 31.4286 13.6587 31.4431C13.0493 31.885 12.3161 32.1235 11.5633 32.1246ZM9.94362 31.4723C10.4907 31.7402 11.8547 32.2243 13.2883 31.351L13.2554 31.3369C13.0021 31.2218 12.7859 31.0384 12.6312 30.8073C12.4764 30.5761 12.3892 30.3064 12.3793 30.0284V29.7811C12.3789 29.7615 12.3827 29.7421 12.3905 29.7241C12.3983 29.7061 12.4098 29.6899 12.4244 29.6768C12.4388 29.6633 12.4559 29.6531 12.4745 29.6466C12.4931 29.6401 12.5128 29.6376 12.5325 29.6392C12.6438 29.651 12.7563 29.6421 12.8643 29.6129C13.4932 29.4248 13.4575 28.5356 13.4124 28.1596C13.409 28.1314 13.4142 28.1029 13.4273 28.0777C13.4404 28.0526 13.4607 28.032 13.4857 28.0185L13.7132 27.8963C13.7177 27.8942 13.7215 27.8909 13.7243 27.8868C13.7272 27.8826 13.7288 27.8778 13.7292 27.8728C13.7299 27.8678 13.7293 27.8626 13.7275 27.8579C13.7257 27.8531 13.7227 27.8489 13.7188 27.8456L13.6737 27.807C13.4349 27.6012 13.1745 27.353 13.105 27.0127C12.9527 26.2729 12.4883 25.8912 12.227 25.9138C11.9826 25.9326 11.945 26.2898 11.9327 26.4365C11.9224 26.6771 11.6254 26.7598 11.3386 26.8397C11.2159 26.8673 11.0972 26.9103 10.9852 26.9676C11.0303 27.0757 11.0679 27.1631 11.0999 27.2364C11.2559 27.5946 11.3076 27.7149 10.9908 27.8851C10.9391 27.9123 10.8752 27.9462 10.7972 27.996C10.7763 28.0093 10.7523 28.0168 10.7276 28.0176C10.6936 28.0186 10.66 28.0263 10.6289 28.0402C10.5899 28.06 10.5557 28.0882 10.5289 28.1229C10.502 28.1575 10.4832 28.1976 10.4738 28.2404C10.4473 28.351 10.4603 28.4674 10.5105 28.5694C10.5366 28.63 10.5752 28.6845 10.6238 28.7292C10.6724 28.7739 10.7299 28.8078 10.7925 28.8289C10.8219 28.8376 10.8478 28.8555 10.8663 28.8801C10.8847 28.9046 10.8948 28.9345 10.8949 28.9652V30.2135C10.8957 30.4707 10.8195 30.7222 10.6761 30.9356C10.5326 31.1491 10.3286 31.3147 10.0903 31.4112L9.94362 31.4723Z" fill="black"/>
<path d="M12.5204 29.9213H12.4987C12.2506 29.8831 12.0133 29.7928 11.8027 29.6562C11.592 29.5196 11.4127 29.3398 11.2767 29.1288C11.258 29.0964 11.2529 29.0579 11.2626 29.0218C11.2723 28.9856 11.296 28.9548 11.3284 28.9361C11.3608 28.9174 11.3993 28.9124 11.4355 28.9221C11.4716 28.9318 11.5024 28.9554 11.5211 28.9878C11.6368 29.162 11.7874 29.3104 11.9632 29.4237C12.1391 29.5369 12.3364 29.6126 12.5429 29.6458C12.5803 29.6486 12.6151 29.6661 12.6396 29.6945C12.6641 29.7228 12.6763 29.7598 12.6736 29.7972C12.6709 29.8346 12.6534 29.8694 12.625 29.8939C12.5966 29.9184 12.5596 29.9306 12.5222 29.9279L12.5204 29.9213Z" fill="black"/>
<path d="M57.5095 62.0268C57.801 61.7372 57.9655 61.4073 57.9655 61.0576C57.9655 59.9051 56.1794 58.9707 53.9769 58.9707C51.7744 58.9707 49.9883 59.9051 49.9883 61.0576C49.9883 61.4073 50.1528 61.7372 50.4433 62.0268C50.1528 62.3163 49.9883 62.6463 49.9883 62.996C49.9883 63.5431 50.3897 64.0403 51.0477 64.4126C51.0333 64.4742 51.0257 64.5373 51.0251 64.6006C51.0251 65.4532 52.3412 66.1451 53.9769 66.1451C55.6125 66.1451 56.9286 65.4532 56.9286 64.6006C56.9282 64.5372 56.9203 64.4741 56.9051 64.4126C57.5631 64.0366 57.9655 63.5431 57.9655 62.996C57.9655 62.6463 57.801 62.3163 57.5095 62.0268Z" fill="black"/>
<path d="M64.68 44.9047C64.6794 43.1426 64.2438 41.4079 63.4118 39.8546C62.5798 38.3013 61.3771 36.9774 59.9106 36.0005C58.4441 35.0236 56.7591 34.4239 55.0052 34.2546C53.2512 34.0853 51.4826 34.3516 49.8563 35.03C48.23 35.7083 46.7964 36.7777 45.6826 38.1432C44.5689 39.5086 43.8094 41.128 43.4718 42.8574C43.1341 44.5868 43.2287 46.3729 43.747 48.057C44.2654 49.7412 45.1915 51.2712 46.4433 52.5115C47.8743 53.9148 48.9002 55.6783 49.4128 57.6159L49.4363 57.7099C49.6751 58.6252 50.2106 59.4354 50.9591 60.0137C51.7075 60.5921 52.6266 60.9059 53.5725 60.9061H54.3706C55.3165 60.9061 56.2357 60.5923 56.9842 60.0139C57.7327 59.4356 58.2682 58.6252 58.5068 57.7099L58.5218 57.6535C59.0145 55.7227 60.0254 53.9631 61.4454 52.5651C62.4698 51.5697 63.284 50.3788 63.8397 49.063C64.3953 47.7471 64.6811 46.3331 64.68 44.9047Z" fill="white"/>
<path d="M54.3757 61.0497H53.5776C52.6001 61.0492 51.6504 60.7246 50.8771 60.1267C50.1038 59.5288 49.5506 58.6913 49.3042 57.7454L49.2797 57.6514C48.7731 55.7385 47.7607 53.9973 46.3487 52.6109C44.8185 51.0964 43.7737 49.1607 43.3475 47.0504C42.9212 44.9401 43.1328 42.7507 43.9552 40.761C44.7776 38.7713 46.1736 37.0715 47.9654 35.878C49.7572 34.6845 51.8638 34.0513 54.0167 34.0592C56.1696 34.067 58.2715 34.7155 60.0545 35.9221C61.8376 37.1286 63.2212 38.8386 64.029 40.8342C64.8369 42.8299 65.0325 45.0208 64.5908 47.1279C64.1492 49.2351 63.0903 51.1631 61.5491 52.6664C60.1478 54.0461 59.1503 55.7826 58.6641 57.6881L58.6491 57.7454C58.4027 58.6913 57.8495 59.5288 57.0762 60.1267C56.3029 60.7246 55.3532 61.0492 54.3757 61.0497ZM53.9752 34.3412C48.1893 34.3412 43.4515 39.048 43.4129 44.8321C43.3991 46.2414 43.6698 47.639 44.2086 48.9414C44.7474 50.2437 45.5434 51.424 46.5489 52.4116C47.9976 53.8337 49.0367 55.6196 49.557 57.5818L49.5815 57.6758C49.8121 58.5613 50.3298 59.3453 51.0536 59.9051C51.7774 60.4649 52.6663 60.7689 53.5813 60.7695H54.3794C55.294 60.7683 56.1823 60.464 56.9055 59.9042C57.6287 59.3445 58.146 58.5608 58.3765 57.6758L58.3906 57.6194C58.8901 55.6639 59.9143 53.882 61.3527 52.4661C62.8568 50.9996 63.8895 49.1179 64.3187 47.0614C64.7478 45.005 64.5541 42.8673 63.7621 40.9215C62.9701 38.9758 61.6159 37.3104 59.8726 36.1383C58.1292 34.9661 56.076 34.3404 53.9752 34.3412Z" fill="black"/>
<path d="M54.7209 59.3588C54.6857 59.3587 54.6518 59.3454 54.6259 59.3215C54.6 59.2977 54.5839 59.2651 54.5808 59.23C54.0413 53.4017 56.8369 44.1743 56.867 44.0822C56.878 44.0464 56.9027 44.0164 56.9358 43.9989C56.9688 43.9813 57.0075 43.9777 57.0433 43.9886C57.0791 43.9996 57.109 44.0243 57.1265 44.0574C57.1441 44.0904 57.1478 44.1291 57.1368 44.1649C57.1086 44.2589 54.327 53.4318 54.8619 59.2055C54.8651 59.2428 54.8534 59.2797 54.8295 59.3084C54.8055 59.3371 54.7713 59.3552 54.7341 59.3588H54.7209Z" fill="black"/>
<path d="M53.4 59.1115C53.363 59.1113 53.3275 59.0966 53.3012 59.0706C53.2749 59.0446 53.2597 59.0094 53.259 58.9724C53.0559 47.8348 50.8609 44.6537 50.8393 44.6227C50.8174 44.5924 50.8084 44.5546 50.8143 44.5177C50.8202 44.4808 50.8405 44.4477 50.8708 44.4257C50.9011 44.4038 50.9389 44.3948 50.9758 44.4007C51.0127 44.4066 51.0458 44.4269 51.0677 44.4572C51.1617 44.5851 53.3361 47.7126 53.541 58.9677C53.5414 58.9862 53.5381 59.0046 53.5313 59.0219C53.5246 59.0391 53.5145 59.0549 53.5017 59.0682C53.4889 59.0816 53.4735 59.0923 53.4566 59.0997C53.4396 59.1071 53.4213 59.1112 53.4028 59.1115H53.4Z" fill="black"/>
<path d="M53.9443 45.9649H53.9077C53.636 45.9518 53.3982 45.7986 53.2064 45.5776C53.0322 45.7134 52.819 45.7899 52.5982 45.7957C52.0342 45.8042 51.4955 45.3586 51.2821 44.7062C51.2756 44.6884 51.2727 44.6695 51.2736 44.6506C51.2745 44.6316 51.2793 44.6131 51.2876 44.596C51.2958 44.5789 51.3074 44.5637 51.3217 44.5513C51.336 44.5388 51.3527 44.5293 51.3707 44.5234C51.3887 44.5176 51.4078 44.5154 51.4266 44.517C51.4455 44.5187 51.4639 44.5241 51.4806 44.533C51.4974 44.5419 51.5122 44.5541 51.5241 44.5688C51.536 44.5836 51.5448 44.6006 51.55 44.6188C51.7202 45.1396 52.1507 45.5137 52.5784 45.5137H52.5925C52.7551 45.5086 52.9117 45.4512 53.0391 45.3502C52.8508 45.0493 52.7299 44.7113 52.6847 44.3594C52.633 43.9072 52.7392 43.3714 52.9244 43.1373C52.9514 43.0993 52.9858 43.0672 53.0255 43.0428C53.0653 43.0184 53.1095 43.0023 53.1556 42.9954C53.2037 42.9921 53.252 42.9988 53.2974 43.015C53.3429 43.0311 53.3845 43.0565 53.4198 43.0894C53.6322 43.2642 53.8155 43.6731 53.8475 44.0407C53.8768 44.5266 53.7217 45.0056 53.4132 45.3821C53.5645 45.5579 53.7403 45.6735 53.9227 45.682C54.1981 45.6951 54.451 45.4799 54.6494 45.1791C54.4366 44.8371 54.3129 44.4474 54.2893 44.0454C54.2649 43.502 54.4717 42.9521 54.6766 42.7538C54.706 42.7223 54.742 42.6975 54.7819 42.6813C54.8218 42.6651 54.8648 42.6577 54.9079 42.6598C54.9464 42.6643 54.9835 42.6768 55.017 42.6963C55.0505 42.7159 55.0796 42.7422 55.1024 42.7735C55.2905 42.9982 55.392 43.5904 55.3356 44.0896C55.2878 44.4663 55.1692 44.8305 54.9859 45.1631C55.0305 45.2238 55.0879 45.274 55.154 45.3102C55.2201 45.3464 55.2933 45.3678 55.3685 45.3727C55.6439 45.3727 55.9569 45.0334 56.1309 44.5577C56.1452 44.5251 56.1713 44.4991 56.204 44.4849C56.2367 44.4708 56.2735 44.4696 56.3071 44.4815C56.3407 44.4934 56.3685 44.5175 56.385 44.5491C56.4015 44.5807 56.4054 44.6174 56.3959 44.6517C56.176 45.2533 55.7746 45.6463 55.3732 45.6519C55.271 45.6503 55.1702 45.6279 55.0769 45.586C54.9836 45.5442 54.8999 45.4838 54.8308 45.4084C54.5958 45.7375 54.2931 45.964 53.9443 45.9649ZM53.1857 43.2774C53.0917 43.2999 52.9037 43.7869 52.9648 44.3264C53.0003 44.6149 53.0947 44.8929 53.2421 45.1433C53.4719 44.8324 53.5865 44.4513 53.5664 44.0651C53.5298 43.6365 53.2713 43.2783 53.1857 43.2774ZM54.8834 42.9399C54.7697 43.0217 54.5478 43.5133 54.5713 44.0285C54.5876 44.3301 54.6677 44.6249 54.8063 44.8933C54.9333 44.6284 55.0174 44.3451 55.0554 44.0538C55.1128 43.5425 54.9812 43.0386 54.8834 42.9399Z" fill="black"/>
<path d="M57.2554 39.0472C57.5948 39.3762 57.9774 39.6582 58.3027 40.0014C58.6475 40.3836 58.9586 40.795 59.2323 41.2309C59.5108 41.6417 59.7485 42.0787 59.9421 42.5357C60.0192 42.7512 60.0841 42.9709 60.1367 43.1937C60.2307 43.5265 60.3867 44.2795 60.837 44.3077C61.087 44.3237 61.2675 44.0689 61.3822 43.8828C61.5767 43.5466 61.6885 43.1689 61.7084 42.7811C61.7705 41.9754 61.5608 41.167 61.244 40.431C60.9166 39.6643 60.4525 38.9636 59.8744 38.3629C59.6313 38.1091 59.3633 37.8805 59.0744 37.6804L59.0481 37.6597C58.7097 37.405 58.3374 37.1408 57.9031 37.106C57.5654 37.0776 57.2294 37.1784 56.9631 37.388C56.3333 37.906 56.7958 38.6045 57.2554 39.0472Z" fill="#CADDFF"/>
<path d="M56.3272 37.3252C56.4673 37.0357 56.4212 36.5365 56.1975 36.2573C56.1957 36.2477 56.1922 36.2384 56.1871 36.2301C55.7961 35.588 54.8062 35.745 54.6633 36.4951C54.5157 37.282 55.8976 38.2173 56.3272 37.3252Z" fill="#CADDFF"/>
<path d="M57.1712 52.6938C57.139 52.6936 57.1079 52.6823 57.0829 52.6619C57.058 52.6415 57.0408 52.6132 57.0342 52.5816C57.0276 52.5501 57.032 52.5173 57.0467 52.4886C57.0614 52.4599 57.0854 52.4371 57.1148 52.424C58.1497 51.9734 59.0832 51.319 59.8597 50.4998C60.6362 49.6807 61.2398 48.7136 61.6346 47.6561C61.6489 47.6235 61.675 47.5975 61.7077 47.5834C61.7404 47.5692 61.7772 47.568 61.8108 47.5799C61.8444 47.5918 61.8722 47.616 61.8887 47.6475C61.9052 47.6791 61.9091 47.7158 61.8997 47.7501C61.4914 48.8432 60.8673 49.843 60.0645 50.6897C59.2616 51.5365 58.2965 52.2129 57.2267 52.6788C57.2094 52.6875 57.1906 52.6926 57.1712 52.6938Z" fill="black"/>
<path d="M47.5287 50.6361C47.5092 50.6362 47.4898 50.6322 47.4718 50.6244C47.4539 50.6167 47.4377 50.6053 47.4244 50.591C46.5147 49.5987 45.8494 48.4076 45.4814 47.1128C45.1135 45.8179 45.0531 44.4549 45.3051 43.1326C45.5571 41.8102 46.1145 40.565 46.9329 39.4962C47.7513 38.4274 48.808 37.5645 50.0189 36.9763C50.0356 36.9671 50.054 36.9614 50.073 36.9594C50.092 36.9575 50.1112 36.9595 50.1294 36.9652C50.1477 36.971 50.1645 36.9803 50.179 36.9928C50.1935 37.0052 50.2053 37.0205 50.2137 37.0376C50.2221 37.0548 50.227 37.0734 50.2279 37.0925C50.2289 37.1116 50.226 37.1307 50.2194 37.1486C50.2128 37.1665 50.2026 37.1829 50.1895 37.1967C50.1763 37.2106 50.1605 37.2217 50.143 37.2292C48.9715 37.7981 47.949 38.6327 47.1572 39.6667C46.3653 40.7006 45.826 41.9052 45.5821 43.1845C45.3382 44.4638 45.3966 45.7824 45.7525 47.0351C46.1084 48.2879 46.7521 49.4402 47.6321 50.4001C47.6509 50.4201 47.6634 50.4452 47.6681 50.4723C47.6727 50.4993 47.6693 50.5271 47.6583 50.5522C47.6473 50.5774 47.6292 50.5987 47.6061 50.6136C47.5831 50.6285 47.5562 50.6363 47.5287 50.6361Z" fill="black"/>
<path d="M49.1399 50.8205C49.1109 50.8206 49.0826 50.8113 49.0591 50.7942C48.1385 50.1446 47.3824 49.2891 46.851 48.2956C46.3197 47.3021 46.0277 46.1982 45.9985 45.072C45.9693 43.9457 46.2036 42.8282 46.6828 41.8085C47.1619 40.7888 47.8726 39.8951 48.7583 39.1988C48.7729 39.1873 48.7895 39.1788 48.8074 39.1738C48.8252 39.1687 48.8439 39.1673 48.8623 39.1694C48.8807 39.1716 48.8986 39.1774 48.9147 39.1865C48.9309 39.1955 48.9452 39.2077 48.9566 39.2223C48.9681 39.2368 48.9766 39.2535 48.9816 39.2714C48.9867 39.2892 48.9881 39.3079 48.986 39.3263C48.9838 39.3447 48.978 39.3625 48.9689 39.3787C48.9599 39.3949 48.9477 39.4091 48.9331 39.4206C48.082 40.0898 47.3989 40.9486 46.9384 41.9285C46.4779 42.9084 46.2527 43.9823 46.2808 45.0647C46.3088 46.147 46.5893 47.2079 47.0999 48.1626C47.6105 49.1174 48.3371 49.9396 49.2217 50.5639C49.2464 50.5811 49.2649 50.6058 49.2746 50.6343C49.2842 50.6628 49.2845 50.6936 49.2754 50.7223C49.2662 50.751 49.2482 50.776 49.2238 50.7937C49.1994 50.8113 49.17 50.8207 49.1399 50.8205Z" fill="black"/>
<path d="M52.4713 62.6957C51.8954 62.6999 51.3199 62.6635 50.7491 62.5866C50.7306 62.5836 50.7129 62.5771 50.6969 62.5672C50.6809 62.5574 50.667 62.5445 50.656 62.5294C50.645 62.5142 50.6371 62.497 50.6328 62.4787C50.6285 62.4605 50.6277 62.4416 50.6307 62.423C50.6337 62.4045 50.6402 62.3868 50.6501 62.3708C50.6599 62.3548 50.6728 62.3409 50.688 62.3299C50.7031 62.3189 50.7203 62.311 50.7386 62.3067C50.7568 62.3023 50.7757 62.3016 50.7943 62.3046C50.829 62.3102 54.2799 62.8414 57.117 61.4755C57.1338 61.4664 57.1522 61.4608 57.1712 61.4591C57.1902 61.4573 57.2094 61.4595 57.2275 61.4654C57.2457 61.4712 57.2624 61.4807 57.2768 61.4933C57.2912 61.5058 57.3028 61.5211 57.3111 61.5383C57.3194 61.5555 57.3241 61.5742 57.3249 61.5933C57.3258 61.6123 57.3228 61.6314 57.316 61.6492C57.3093 61.6671 57.299 61.6834 57.2858 61.6971C57.2726 61.7109 57.2567 61.7218 57.2392 61.7293C55.6035 62.5217 53.7723 62.6957 52.4713 62.6957Z" fill="white"/>
<path d="M52.9007 64.5743C52.4737 64.5773 52.047 64.549 51.6241 64.4897C51.6056 64.4867 51.5879 64.4801 51.5719 64.4703C51.5559 64.4605 51.542 64.4476 51.531 64.4324C51.52 64.4172 51.5121 64.4 51.5078 64.3818C51.5035 64.3635 51.5027 64.3446 51.5057 64.3261C51.5087 64.3076 51.5152 64.2898 51.5251 64.2738C51.5349 64.2579 51.5478 64.244 51.563 64.233C51.5781 64.222 51.5953 64.2141 51.6136 64.2097C51.6318 64.2054 51.6507 64.2047 51.6693 64.2076C51.6937 64.2076 54.1923 64.5959 56.2435 63.6079C56.2602 63.5998 56.2783 63.5951 56.2968 63.594C56.3152 63.5929 56.3338 63.5955 56.3513 63.6015C56.3688 63.6076 56.3849 63.6171 56.3988 63.6294C56.4126 63.6417 56.4239 63.6566 56.432 63.6732C56.4401 63.6899 56.4448 63.708 56.4459 63.7265C56.447 63.745 56.4444 63.7635 56.4384 63.781C56.4323 63.7985 56.4228 63.8146 56.4105 63.8285C56.3982 63.8423 56.3833 63.8536 56.3667 63.8617C55.1634 64.4445 53.8426 64.5743 52.9007 64.5743Z" fill="white"/>
</svg>
