<svg width="79" height="79" viewBox="0 0 79 79" fill="none" xmlns="http://www.w3.org/2000/svg">
<path d="M1.87808 63.8672C4.17466 69.4282 9.53365 72.0612 12.9588 73.7441C26.4592 80.3773 46.963 79.6134 61.716 67.5422C65.1684 64.7166 82.1851 49.9119 78.2093 29.8479C74.6959 12.1114 57.0665 1.81249 42.2195 0.435862C29.9219 -0.703972 10.9751 1.55784 5.30603 12.3698C1.74088 19.1703 8.91911 23.5379 6.00985 38.9515C3.49057 52.2922 -0.92969 57.0657 1.87808 63.8672Z" fill="#CADDFF"/>
<path d="M37.5468 47.916C41.2115 37.3126 40.2568 32.8867 38.4573 30.8514C37.9198 30.2443 36.6823 29.1346 35.8196 27.1058C34.7023 24.4747 35.3037 22.8594 35.0303 20.622C34.4965 16.2487 30.9596 12.3096 27.2497 10.5749C24.659 9.36275 19.768 8.19096 17.0298 10.7422C15.8711 11.821 14.7867 13.8554 15.4464 15.2057C16.3861 17.1386 20.2021 15.7253 22.2835 18.2578C23.1649 19.3309 22.8783 20.0601 23.2768 21.0148C23.4234 21.3691 23.5878 21.5786 23.8349 21.9084C24.4927 22.788 25.0791 23.7192 25.7462 24.5903C27.6792 27.1124 25.9906 30.9886 28.2204 32.9534C29.8696 34.4099 32.1549 33.4891 32.6764 34.8037C33.087 35.8373 31.6362 36.4735 31.6991 38.116C31.7752 40.111 33.6621 40.7941 35.5885 43.6113C36.6682 45.1909 37.1906 46.7282 37.5468 47.916Z" fill="#99B9FF"/>
<path d="M37.5748 46.996C37.5378 46.996 37.5024 46.9814 37.4761 46.9553C37.4499 46.9293 37.435 46.8939 37.4348 46.8569C37.3549 38.0794 35.1955 28.9316 31.6595 22.3848C29.2229 17.8744 26.4302 15.1859 24.5179 13.7238C22.4441 12.1404 20.9274 11.6161 20.9124 11.6104C20.8948 11.6046 20.8785 11.5954 20.8646 11.5832C20.8506 11.571 20.8391 11.5562 20.8309 11.5396C20.8227 11.523 20.8179 11.5049 20.8167 11.4865C20.8155 11.468 20.818 11.4494 20.8241 11.4319C20.836 11.3965 20.8616 11.3674 20.895 11.3508C20.9285 11.3342 20.9672 11.3316 21.0026 11.3436C21.0656 11.3652 22.569 11.8829 24.6758 13.4907C26.6153 14.9689 29.4447 17.6902 31.9114 22.2514C33.5144 25.2189 34.8958 28.8893 35.9041 32.8698C37.0656 37.4436 37.6754 42.14 37.7205 46.8588C37.7206 46.8773 37.7171 46.8957 37.7101 46.9128C37.7031 46.93 37.6928 46.9456 37.6798 46.9588C37.6668 46.9719 37.6514 46.9824 37.6343 46.9896C37.6173 46.9968 37.599 47.0006 37.5804 47.0007L37.5748 46.996Z" fill="#CADDFF"/>
<path d="M30.6317 55.5462C36.2933 45.2595 36.0152 41.2142 34.476 39.5011C32.8024 37.6396 30.1262 39.0783 27.4913 36.6642C23.9816 33.4449 25.6336 28.053 22.7995 26.9517C21.0141 26.2582 19.8451 28.2043 17.682 27.4121C15.6401 26.6651 15.8336 24.656 13.7569 22.5906C11.6351 20.481 7.49209 18.8404 4.43343 20.5045C1.76568 21.9554 0.933126 25.3693 1.05904 27.7062C1.24698 31.1577 3.61309 33.9805 6.09479 35.2838C9.66088 37.1566 13.2721 35.7931 13.7494 37.15C14.193 38.413 11.0807 39.6487 11.2424 42.0138C11.3542 43.6658 13.0278 45.2802 14.7276 45.6974C17.0909 46.2762 18.4629 44.2963 19.8733 45.0509C21.3515 45.8421 20.5311 48.3858 21.5845 50.689C22.4565 52.5965 24.7334 54.6121 30.6317 55.5462Z" fill="#99B9FF"/>
<path d="M64.3454 74.0316H29.3892C27.8858 74.0316 26.8164 72.8166 27.0062 71.3178L35.6137 3.44934C35.8016 1.95054 37.1792 0.735538 38.6855 0.735538L71.8873 0.348389C75.6986 0.348389 76.2154 1.95054 76.0219 3.44934L67.4172 71.314C67.2264 72.8175 65.8517 74.0316 64.3454 74.0316Z" fill="#99B9FF"/>
<path d="M62.2447 74.0316H27.2886C25.7851 74.0316 24.7148 72.8101 24.9046 71.3066L33.5121 3.09324C33.7 1.58975 35.0776 0.368164 36.5839 0.368164H71.5401C73.0435 0.368164 74.1129 1.58975 73.9231 3.09324L65.3156 71.3075C65.1267 72.8101 63.751 74.0316 62.2447 74.0316Z" fill="white"/>
<path d="M26.8935 71.3978L35.1119 6.26476C35.1371 6.09308 35.2221 5.93578 35.3519 5.82061C35.4817 5.70543 35.6479 5.63976 35.8214 5.63518H70.9655C71.0453 5.63319 71.1245 5.6488 71.1975 5.68091C71.2706 5.71301 71.3357 5.76081 71.3881 5.82092C71.4406 5.88103 71.4792 5.95196 71.5012 6.02867C71.5231 6.10538 71.5279 6.18599 71.5152 6.26476L63.2967 71.3978C63.2716 71.5695 63.1866 71.7268 63.0568 71.842C62.927 71.9572 62.7607 72.0228 62.5873 72.0274H27.4432C27.3635 72.0292 27.2843 72.0135 27.2114 71.9813C27.1384 71.9492 27.0734 71.9014 27.021 71.8413C26.9685 71.7812 26.9299 71.7104 26.9079 71.6338C26.8859 71.5571 26.8809 71.4766 26.8935 71.3978Z" fill="#CADDFF"/>
<path d="M53.6235 3.83096C53.4939 3.83424 53.3653 3.80897 53.2467 3.75693C53.128 3.7049 53.0223 3.62738 52.937 3.52988C52.8517 3.43238 52.7889 3.3173 52.7531 3.1928C52.7173 3.0683 52.7094 2.93745 52.7298 2.80953C52.7703 2.53072 52.908 2.2752 53.1187 2.08811C53.3293 1.90103 53.5993 1.79443 53.8809 1.78716C54.0105 1.78382 54.1392 1.80911 54.2579 1.8612C54.3766 1.9133 54.4823 1.99093 54.5675 2.08856C54.6528 2.18619 54.7154 2.30142 54.7511 2.42604C54.7867 2.55065 54.7944 2.68159 54.7736 2.80953C54.733 3.08801 54.5953 3.34319 54.3849 3.53007C54.1744 3.71694 53.9048 3.82351 53.6235 3.83096Z" fill="#CADDFF"/>
<path d="M48.3538 72.1684H27.444C27.3449 72.1702 27.2465 72.1505 27.1557 72.1107C27.0649 72.071 26.9837 72.0122 26.9177 71.9382C26.8518 71.8625 26.8029 71.7734 26.7745 71.6771C26.7461 71.5807 26.7389 71.4794 26.7533 71.38L34.9746 6.24695C35.0047 6.04225 35.106 5.85471 35.2607 5.71724C35.4153 5.57977 35.6135 5.50116 35.8203 5.4952H70.9644C71.0634 5.49364 71.1617 5.51338 71.2525 5.5531C71.3433 5.59282 71.4245 5.65159 71.4906 5.72543C71.5562 5.80117 71.6047 5.89012 71.6329 5.98626C71.6611 6.0824 71.6684 6.18348 71.6541 6.28266L65.0209 58.8494C65.0161 58.8867 64.9967 58.9207 64.967 58.9438C64.9372 58.9669 64.8995 58.9772 64.8621 58.9725C64.8247 58.9677 64.7907 58.9483 64.7676 58.9185C64.7445 58.8888 64.7342 58.851 64.739 58.8136L71.3713 6.24789C71.3806 6.18836 71.3771 6.1275 71.3609 6.06945C71.3447 6.01141 71.3162 5.95753 71.2773 5.91148C71.2374 5.86796 71.1887 5.83345 71.1344 5.81028C71.0801 5.7871 71.0215 5.77579 70.9625 5.77711H35.8203C35.6811 5.78093 35.5476 5.83371 35.4435 5.92618C35.3393 6.01864 35.2711 6.14487 35.2508 6.28266L27.0324 71.4167C27.0231 71.4762 27.0266 71.537 27.0428 71.5951C27.059 71.6531 27.0875 71.707 27.1264 71.7531C27.1662 71.7967 27.2148 71.8313 27.2692 71.8544C27.3235 71.8776 27.3821 71.8889 27.4411 71.8874H48.3509C48.3883 71.8874 48.4242 71.9023 48.4506 71.9287C48.477 71.9552 48.4919 71.991 48.4919 72.0284C48.4919 72.0658 48.477 72.1016 48.4506 72.1281C48.4242 72.1545 48.3883 72.1693 48.3509 72.1693L48.3538 72.1684Z" fill="black"/>
<path d="M47.5116 74.1726H27.2887C26.926 74.1795 26.5661 74.1081 26.2335 73.9633C25.9009 73.8185 25.6035 73.6037 25.3614 73.3335C25.1208 73.0551 24.9431 72.728 24.8402 72.3747C24.7374 72.0213 24.712 71.65 24.7656 71.2859L33.3722 3.07166C33.5714 1.49958 35.0119 0.22067 36.584 0.22067H71.5402C71.9027 0.213781 72.2625 0.28518 72.5949 0.429995C72.9274 0.574809 73.2247 0.789632 73.4665 1.05981C73.7073 1.33799 73.8852 1.66483 73.9882 2.01802C74.0911 2.37121 74.1167 2.74245 74.0632 3.10643L67.8275 52.5261C67.8229 52.5635 67.8036 52.5975 67.7739 52.6207C67.7442 52.6439 67.7065 52.6543 67.6691 52.6497C67.6318 52.6451 67.5977 52.6258 67.5746 52.5961C67.5514 52.5664 67.541 52.5288 67.5456 52.4914L73.7869 3.07166C73.8351 2.74726 73.8129 2.41628 73.7218 2.10123C73.6307 1.78618 73.4728 1.49445 73.2588 1.24586C73.0432 1.00605 72.7783 0.815521 72.4824 0.687257C72.1865 0.558993 71.8664 0.496002 71.5439 0.502574H36.5878C35.1529 0.502574 33.8373 1.6706 33.656 3.10643L25.0485 71.3216C25.0003 71.646 25.0225 71.977 25.1136 72.2921C25.2048 72.6071 25.3627 72.8989 25.5766 73.1474C25.7924 73.3874 26.0573 73.578 26.3534 73.7062C26.6496 73.8345 26.9698 73.8974 27.2925 73.8907H47.5153C47.5527 73.8907 47.5886 73.9056 47.615 73.932C47.6414 73.9584 47.6563 73.9943 47.6563 74.0317C47.6563 74.0691 47.6414 74.1049 47.615 74.1313C47.5886 74.1578 47.5527 74.1726 47.5153 74.1726H47.5116Z" fill="black"/>
<path d="M66.7695 58.9028L66.9302 60.0577L68.2007 60.1638C68.2839 60.423 68.3892 60.6745 68.5155 60.9156L67.7083 61.8994L68.4252 62.8194L69.5782 62.2772C69.7803 62.4575 69.9969 62.6209 70.2257 62.7658L70.0189 64.0231L71.0996 64.4619L71.8259 63.417C72.0916 63.4719 72.3612 63.5049 72.6322 63.5157L73.0814 64.7072L74.2372 64.5465L74.3434 63.277C74.6023 63.1929 74.8538 63.0873 75.0951 62.9613L76.0789 63.7685L76.9989 63.0515L76.4558 61.8985C76.6366 61.6966 76.8003 61.48 76.9453 61.2511L78.2026 61.4587L78.6405 60.3772L77.5956 59.6517C77.6498 59.3858 77.6812 59.1158 77.6896 58.8445L78.882 58.3954L78.7213 57.2405L77.449 57.1315C77.3658 56.8724 77.2605 56.6209 77.1342 56.3798L77.9414 55.3959L77.2244 54.476L76.0714 55.0182C75.8694 54.8378 75.6528 54.6744 75.424 54.5295L75.6307 53.2722L74.5501 52.8334L73.8237 53.8783C73.5581 53.8235 73.2885 53.7905 73.0175 53.7797L72.5683 52.5881L71.4125 52.7488L71.3101 54.024C71.0511 54.1081 70.7997 54.2137 70.5583 54.3397L69.5745 53.5325L68.6545 54.2495L69.1977 55.4025C69.0171 55.6046 68.8534 55.8211 68.7081 56.0499L67.4508 55.8423L67.0185 56.921L68.0635 57.6464C68.0078 57.9122 67.9747 58.1823 67.9648 58.4536L66.7695 58.9028ZM72.4123 55.674C73.0016 55.5911 73.6023 55.6848 74.1383 55.9435C74.6743 56.2021 75.1215 56.614 75.4233 57.1269C75.725 57.6398 75.8678 58.2308 75.8335 58.8249C75.7992 59.4191 75.5894 59.9897 75.2306 60.4645C74.8719 60.9393 74.3803 61.297 73.8181 61.4922C73.2559 61.6875 72.6484 61.7115 72.0725 61.5613C71.4967 61.4111 70.9784 61.0934 70.5832 60.6484C70.188 60.2034 69.9338 59.6512 69.8526 59.0616C69.7983 58.6711 69.8214 58.2737 69.9206 57.8921C70.0198 57.5106 70.1932 57.1523 70.4309 56.8377C70.6686 56.5231 70.9659 56.2585 71.3059 56.0588C71.6458 55.8591 72.0218 55.7284 72.4123 55.674Z" fill="#5479F7"/>
<path d="M49.2695 67.4755L49.5279 69.3295L51.5652 69.4996C51.6997 69.9137 51.8688 70.3157 52.0707 70.7014L50.7758 72.2801L51.927 73.7573L53.7772 72.8862C54.101 73.1767 54.4487 73.4395 54.8165 73.6718L54.4838 75.6893L56.2185 76.3921L57.3827 74.7157C57.8092 74.8045 58.2423 74.8573 58.6776 74.8736L59.3984 76.7868L61.2514 76.5284L61.4224 74.4912C61.8365 74.3566 62.2385 74.1875 62.6243 73.9856L64.1992 75.2796L65.6792 74.1331L64.8081 72.2829C65.0981 71.9587 65.3609 71.6111 65.5937 71.2436L67.6112 71.5763L68.3141 69.8416L66.6424 68.6727C66.7311 68.2465 66.784 67.8137 66.8002 67.3787L68.7134 66.658L68.455 64.804L66.4178 64.633C66.2832 64.2189 66.1141 63.8168 65.9122 63.4311L67.2071 61.8525L66.056 60.3762L64.1992 61.2473C63.875 60.9576 63.5274 60.6951 63.1599 60.4627L63.4925 58.4452L61.7579 57.7413L60.5927 59.4187C60.1667 59.3291 59.7338 59.276 59.2987 59.2599L58.578 57.3467L56.724 57.6051L56.553 59.6423C56.1389 59.7772 55.7369 59.9466 55.3511 60.1488L53.7725 58.8539L52.2962 60.0041L53.1673 61.8543C52.8773 62.1783 52.6148 62.5259 52.3827 62.8936L50.3643 62.561L49.6614 64.2956L51.3387 65.4599C51.2491 65.8862 51.196 66.3194 51.1799 66.7548L49.2695 67.4755ZM58.3243 62.2932C59.2683 62.1616 60.23 62.3129 61.088 62.7279C61.946 63.1429 62.6616 63.8031 63.1444 64.6248C63.6271 65.4466 63.8554 66.3931 63.8002 67.3446C63.7451 68.2961 63.409 69.2098 62.8345 69.9703C62.26 70.7308 61.4729 71.3038 60.5727 71.6169C59.6725 71.93 58.6997 71.9692 57.7773 71.7294C56.8549 71.4896 56.0242 70.9817 55.3905 70.2698C54.7568 69.5579 54.3484 68.6741 54.217 67.7302C54.1296 67.1035 54.1665 66.4657 54.3257 65.8533C54.4848 65.2408 54.763 64.6658 55.1444 64.1609C55.5258 63.656 56.003 63.2312 56.5486 62.9107C57.0942 62.5903 57.6976 62.3804 58.3243 62.2932Z" fill="#5479F7"/>
<path d="M73.398 44.2043C73.3756 44.204 73.3535 44.1984 73.3336 44.188C73.3138 44.1775 73.2967 44.1625 73.2837 44.1442C73.2708 44.1258 73.2624 44.1047 73.2592 44.0824C73.2561 44.0602 73.2582 44.0376 73.2655 44.0163C75.1529 38.694 75.8353 33.019 75.2633 27.4009C75.2594 27.3635 75.2706 27.3261 75.2943 27.297C75.318 27.2678 75.3523 27.2492 75.3896 27.2454C75.427 27.2415 75.4644 27.2527 75.4936 27.2764C75.5228 27.3001 75.5413 27.3344 75.5452 27.3718C76.122 33.0317 75.4349 38.7492 73.5333 44.1112C73.5231 44.1388 73.5046 44.1625 73.4804 44.1791C73.4562 44.1958 73.4274 44.2046 73.398 44.2043Z" fill="black"/>
<path d="M76.8634 38.7382H76.8418C76.8049 38.7324 76.7718 38.7122 76.7498 38.6821C76.7278 38.652 76.7186 38.6143 76.7243 38.5775C77.0715 36.3108 77.2137 34.0175 77.149 31.7253C77.1479 31.6879 77.1617 31.6516 77.1873 31.6244C77.213 31.5972 77.2484 31.5813 77.2857 31.5801C77.3231 31.579 77.3594 31.5928 77.3867 31.6184C77.4139 31.6441 77.4298 31.6795 77.4309 31.7169C77.4962 34.026 77.3528 36.3364 77.0024 38.6198C76.9973 38.6529 76.9804 38.683 76.9549 38.7048C76.9293 38.7265 76.8969 38.7383 76.8634 38.7382Z" fill="black"/>
<path d="M6.0173 15.4444C5.99897 15.4443 5.98081 15.4408 5.96373 15.4341C5.94618 15.427 5.93024 15.4165 5.91682 15.4031C5.9034 15.3898 5.89279 15.3739 5.88561 15.3564C5.87843 15.3389 5.87482 15.3201 5.87501 15.3012C5.87519 15.2822 5.87916 15.2635 5.88668 15.2462C7.67208 10.903 10.9469 7.49099 15.8915 4.81572C15.9078 4.80542 15.926 4.79858 15.9451 4.79562C15.9641 4.79266 15.9836 4.79364 16.0022 4.7985C16.0209 4.80336 16.0384 4.81199 16.0536 4.82387C16.0687 4.83576 16.0813 4.85063 16.0906 4.86757C16.0998 4.88451 16.1054 4.90316 16.1071 4.92237C16.1088 4.94157 16.1066 4.96093 16.1005 4.97923C16.0945 4.99754 16.0847 5.0144 16.0719 5.02879C16.059 5.04317 16.0433 5.05476 16.0258 5.06285C11.1395 7.70618 7.90981 11.0721 6.14791 15.3524C6.13802 15.3791 6.12024 15.4023 6.09692 15.4187C6.0736 15.4351 6.04584 15.4441 6.0173 15.4444Z" fill="black"/>
<path d="M5.60143 13.9241C5.59177 13.9255 5.58196 13.9255 5.5723 13.9241C5.55417 13.9203 5.53697 13.913 5.5217 13.9025C5.50643 13.892 5.49339 13.8786 5.48334 13.8631C5.47329 13.8475 5.46643 13.8301 5.46315 13.8119C5.45987 13.7936 5.46024 13.775 5.46423 13.7569C5.75553 12.3934 6.75255 10.7433 8.27107 9.11202C9.62891 7.6527 11.278 6.35124 12.6932 5.62956C12.7097 5.62111 12.7277 5.61599 12.7461 5.61448C12.7646 5.61298 12.7831 5.61512 12.8008 5.62079C12.8184 5.62646 12.8347 5.63555 12.8488 5.64754C12.863 5.65952 12.8746 5.67417 12.883 5.69064C12.8915 5.70712 12.8966 5.72509 12.8981 5.74355C12.8996 5.762 12.8975 5.78058 12.8918 5.7982C12.8861 5.81583 12.877 5.83216 12.865 5.84628C12.8531 5.86039 12.8384 5.87201 12.8219 5.88046C9.96813 7.33978 6.3325 11.0431 5.73956 13.8161C5.73198 13.847 5.71425 13.8744 5.6892 13.894C5.66415 13.9136 5.63324 13.9242 5.60143 13.9241Z" fill="black"/>
<path d="M24.9307 2.93065H24.9082C24.8712 2.92464 24.8382 2.90429 24.8162 2.87401C24.7942 2.84374 24.785 2.80601 24.7907 2.76902L24.9054 2.04735C24.9112 2.00996 24.9317 1.97644 24.9623 1.95415C24.9928 1.93186 25.031 1.92262 25.0684 1.92848C25.1058 1.93433 25.1393 1.9548 25.1616 1.98538C25.1839 2.01595 25.1931 2.05413 25.1873 2.09151L25.0736 2.81319C25.0677 2.84661 25.0501 2.87683 25.0239 2.89838C24.9977 2.91993 24.9646 2.93138 24.9307 2.93065Z" fill="black"/>
<path d="M24.5315 5.45647C24.524 5.45738 24.5164 5.45738 24.5089 5.45647C24.4907 5.45361 24.4732 5.44718 24.4575 5.43755C24.4418 5.42792 24.4281 5.41528 24.4173 5.40034C24.4065 5.38541 24.3987 5.36849 24.3944 5.35055C24.3902 5.3326 24.3895 5.31399 24.3924 5.29579L24.5061 4.57411C24.509 4.5556 24.5154 4.53783 24.5251 4.52182C24.5348 4.5058 24.5476 4.49186 24.5627 4.48077C24.5778 4.46969 24.5949 4.46169 24.6131 4.45723C24.6313 4.45277 24.6502 4.45193 24.6687 4.45477C24.6872 4.45761 24.705 4.46407 24.721 4.47377C24.737 4.48348 24.7509 4.49624 24.762 4.51134C24.7731 4.52643 24.7811 4.54356 24.7856 4.56175C24.79 4.57994 24.7909 4.59883 24.788 4.61734L24.6743 5.33995C24.6685 5.37329 24.6508 5.4034 24.6246 5.4248C24.5984 5.44619 24.5653 5.45743 24.5315 5.45647Z" fill="black"/>
<path d="M23.8998 3.67973H23.8754L23.1659 3.55663C23.1474 3.55349 23.1297 3.54672 23.1138 3.53673C23.0979 3.52674 23.0841 3.51372 23.0732 3.49841C23.0513 3.46748 23.0425 3.4291 23.0489 3.39172C23.0553 3.35434 23.0762 3.32101 23.1071 3.29907C23.1381 3.27713 23.1764 3.26837 23.2138 3.27473L23.9233 3.39783C23.9607 3.40094 23.9953 3.41878 24.0195 3.44742C24.0437 3.47605 24.0556 3.51314 24.0525 3.55053C24.0494 3.58791 24.0315 3.62252 24.0029 3.64675C23.9743 3.67098 23.9372 3.68285 23.8998 3.67973Z" fill="black"/>
<path d="M26.3832 4.10823C26.3754 4.10916 26.3675 4.10916 26.3597 4.10823L25.6503 3.98607C25.6318 3.98293 25.614 3.97617 25.5982 3.96618C25.5823 3.95619 25.5685 3.94316 25.5576 3.92785C25.5467 3.91253 25.539 3.89523 25.5348 3.87693C25.5307 3.85862 25.5301 3.83967 25.5333 3.82116C25.5364 3.80265 25.5432 3.78494 25.5532 3.76904C25.5632 3.75315 25.5762 3.73937 25.5915 3.72851C25.6068 3.71765 25.6241 3.70991 25.6424 3.70573C25.6607 3.70155 25.6797 3.70102 25.6982 3.70417L26.4077 3.82727C26.445 3.83051 26.4796 3.84847 26.5037 3.87719C26.5279 3.90592 26.5396 3.94305 26.5364 3.98044C26.5331 4.01782 26.5152 4.05238 26.4865 4.07653C26.4577 4.10067 26.4206 4.11241 26.3832 4.10917V4.10823Z" fill="black"/>
<path d="M12.6182 25.2951H12.5957C12.5587 25.2891 12.5257 25.2688 12.5037 25.2385C12.4817 25.2082 12.4725 25.1705 12.4782 25.1335L12.5929 24.4118C12.5987 24.3745 12.6192 24.3409 12.6498 24.3186C12.6803 24.2964 12.7185 24.2871 12.7559 24.293C12.7933 24.2988 12.8268 24.3193 12.8491 24.3499C12.8714 24.3805 12.8806 24.4186 12.8748 24.456L12.7611 25.1777C12.7552 25.2111 12.7376 25.2413 12.7114 25.2629C12.6852 25.2844 12.6521 25.2959 12.6182 25.2951Z" fill="black"/>
<path d="M12.219 27.821C12.2115 27.8219 12.2039 27.8219 12.1964 27.821C12.1782 27.8181 12.1607 27.8117 12.145 27.8021C12.1293 27.7924 12.1156 27.7798 12.1048 27.7648C12.094 27.7499 12.0862 27.733 12.0819 27.715C12.0777 27.6971 12.077 27.6785 12.0799 27.6603L12.1936 26.9386C12.1994 26.9012 12.2197 26.8677 12.2502 26.8453C12.2807 26.8229 12.3188 26.8135 12.3562 26.8193C12.3936 26.825 12.4271 26.8454 12.4495 26.8758C12.4719 26.9063 12.4813 26.9445 12.4755 26.9818L12.3618 27.7045C12.356 27.7378 12.3383 27.7679 12.3121 27.7893C12.2859 27.8107 12.2528 27.8219 12.219 27.821Z" fill="black"/>
<path d="M11.5912 26.044H11.5668L10.8573 25.9209C10.8199 25.9145 10.7866 25.8936 10.7646 25.8627C10.7427 25.8317 10.7339 25.7934 10.7403 25.756C10.7467 25.7186 10.7676 25.6853 10.7985 25.6633C10.8295 25.6414 10.8678 25.6326 10.9052 25.639L11.6147 25.7621C11.6521 25.7652 11.6867 25.783 11.7109 25.8117C11.7351 25.8403 11.747 25.8774 11.7439 25.9148C11.7408 25.9522 11.7229 25.9868 11.6943 26.011C11.6657 26.0352 11.6286 26.0471 11.5912 26.044Z" fill="black"/>
<path d="M14.0746 26.4725C14.0668 26.4734 14.0589 26.4734 14.0511 26.4725L13.3417 26.3503C13.3043 26.344 13.271 26.323 13.249 26.2921C13.2271 26.2612 13.2183 26.2228 13.2247 26.1854C13.231 26.148 13.252 26.1147 13.2829 26.0928C13.3138 26.0708 13.3522 26.0621 13.3896 26.0684L14.0991 26.1915C14.1364 26.1948 14.171 26.2127 14.1951 26.2415C14.2193 26.2702 14.231 26.3073 14.2278 26.3447C14.2246 26.3821 14.2066 26.4166 14.1779 26.4408C14.1491 26.4649 14.112 26.4767 14.0746 26.4734V26.4725Z" fill="black"/>
<path d="M29.1917 3.52738C29.0491 3.52723 28.9093 3.48685 28.7886 3.41086C28.6166 3.30392 28.4932 3.13409 28.4446 2.93753C28.396 2.74096 28.426 2.53318 28.5283 2.35842C28.5791 2.27367 28.6464 2.19993 28.7261 2.14152C28.8058 2.08311 28.8964 2.0412 28.9925 2.01825C29.0907 1.99439 29.1926 1.99041 29.2924 2.00655C29.3921 2.02269 29.4876 2.05862 29.5732 2.11222C29.7452 2.21916 29.8686 2.38899 29.9172 2.58556C29.9658 2.78212 29.9358 2.9899 29.8335 3.16466C29.7829 3.24965 29.7157 3.32362 29.636 3.38221C29.5562 3.44079 29.4656 3.48281 29.3693 3.50577C29.3112 3.5199 29.2516 3.52716 29.1917 3.52738ZM29.1692 2.27854C29.1318 2.27874 29.0946 2.28316 29.0583 2.2917C28.9379 2.32162 28.8341 2.39796 28.7698 2.50407C28.7053 2.61517 28.6868 2.74702 28.718 2.87161C28.7492 2.9962 28.8278 3.10369 28.9371 3.17124C28.991 3.2054 29.0512 3.22841 29.1141 3.2389C29.1771 3.24939 29.2415 3.24715 29.3035 3.23232C29.3632 3.21819 29.4194 3.19218 29.4688 3.15586C29.5182 3.11953 29.5598 3.07363 29.5911 3.02089C29.6559 2.90982 29.6748 2.77782 29.6437 2.65302C29.6127 2.52822 29.5341 2.42049 29.4248 2.35278C29.3482 2.30458 29.2596 2.27886 29.1692 2.27854Z" fill="black"/>
<path d="M42.3223 22.9609C42.9706 17.9759 47.5741 13.9343 52.6052 13.9343C57.6362 13.9343 61.1873 17.975 60.5389 22.9609C59.8905 27.9469 55.287 31.9884 50.2569 31.9884C45.2268 31.9884 41.6748 27.9478 42.3223 22.9609Z" fill="white"/>
<path d="M44.3281 29.5265C45.7602 31.0516 47.836 31.9885 50.2556 31.9885C52.6753 31.9885 54.9944 31.0488 56.824 29.5265C55.0123 28.9467 52.9347 28.6216 50.6935 28.6216C48.5394 28.618 46.3959 28.9227 44.3281 29.5265Z" fill="#99B9FF"/>
<path d="M50.5496 30.1467C50.3684 30.1525 50.1881 30.1181 50.0218 30.0461C49.8554 29.974 49.707 29.866 49.5873 29.7298C49.4676 29.5937 49.3795 29.4327 49.3293 29.2585C49.2791 29.0843 49.2681 28.9011 49.297 28.7222L50.2367 21.4565H53.1121L52.1724 28.7222C52.1124 29.1125 51.9169 29.4692 51.6202 29.7297C51.3234 29.9902 50.9444 30.1378 50.5496 30.1467Z" fill="white"/>
<path d="M56.9027 24.1075C57.0155 21.8522 58.2033 20.4427 56.2835 17.8924C54.2951 15.2528 52.0643 17.0232 52.0643 17.0232C52.0643 17.0232 50.5759 15.6513 48.0152 18.5192C45.7544 21.0516 47.9325 23.32 46.897 24.8959C45.8615 26.4717 42.9297 27.3315 42.9297 27.3315C42.9297 27.3315 43.6006 29.1225 44.6211 29.9109H56.5128C56.5128 29.9109 59.3149 27.2601 59.4089 26.5083C59.4089 26.5083 56.79 26.3646 56.9027 24.1075Z" fill="black"/>
<path d="M44.3281 29.5265C45.7602 31.0516 47.836 31.9885 50.2556 31.9885C52.6753 31.9885 54.9944 31.0488 56.824 29.5265C55.0123 28.9467 52.9347 28.6216 50.6935 28.6216C48.5394 28.618 46.3959 28.9227 44.3281 29.5265Z" fill="#99B9FF"/>
<path d="M50.2572 32.1293C47.8864 32.1293 45.7467 31.2394 44.2263 29.6222L44.0703 29.4559L44.2893 29.3911C46.3698 28.7821 48.5272 28.4755 50.6951 28.4805C52.8996 28.4805 54.9762 28.7869 56.8688 29.392L57.1131 29.47L56.9157 29.6345C54.9866 31.2432 52.6223 32.1293 50.2572 32.1293ZM44.5937 29.5969C46.0465 31.0496 48.048 31.8474 50.2572 31.8474C52.4664 31.8474 54.6925 31.0449 56.5333 29.5828C54.6381 29.024 52.6709 28.7476 50.6951 28.7624C48.6325 28.7575 46.5792 29.0383 44.5937 29.5969Z" fill="black"/>
<path d="M52.1289 19.0923H52.0293L48.7244 22.0053L48.5168 23.6028C48.3777 24.6693 48.8391 25.6005 49.6444 26.1051L49.3042 28.7184C49.2753 28.8974 49.2863 29.0805 49.3365 29.2547C49.3867 29.429 49.4748 29.5899 49.5945 29.7261C49.7143 29.8622 49.8626 29.9702 50.029 30.0423C50.1954 30.1143 50.3756 30.1487 50.5568 30.1429C50.9501 30.1329 51.3273 29.9852 51.6228 29.7255C51.9184 29.4659 52.1134 29.1108 52.174 28.7221L52.5076 26.1577C53.4839 25.6663 54.2281 24.7078 54.371 23.6065L54.5937 21.8972C54.7957 20.3486 53.6916 19.0923 52.1289 19.0923Z" fill="white"/>
<path d="M50.55 30.2878C50.3488 30.2936 50.1487 30.2549 49.9641 30.1746C49.7795 30.0943 49.6149 29.9743 49.4819 29.8231C49.349 29.6719 49.2509 29.4933 49.1949 29.3C49.1388 29.1066 49.126 28.9033 49.1574 28.7044L49.4873 26.1673C49.4897 26.1488 49.4957 26.1309 49.505 26.1147C49.5143 26.0985 49.5267 26.0844 49.5415 26.073C49.5563 26.0616 49.5732 26.0532 49.5912 26.0484C49.6092 26.0435 49.628 26.0422 49.6465 26.0446C49.665 26.047 49.6829 26.0531 49.6991 26.0624C49.7152 26.0717 49.7294 26.0841 49.7408 26.0989C49.7522 26.1137 49.7606 26.1306 49.7654 26.1486C49.7703 26.1666 49.7716 26.1854 49.7692 26.2039L49.4403 28.7411C49.4138 28.9002 49.4231 29.0632 49.4674 29.2182C49.5117 29.3733 49.5899 29.5166 49.6964 29.6378C49.8029 29.7589 49.935 29.8549 50.0831 29.9187C50.2312 29.9825 50.3917 30.0126 50.5528 30.0068C50.9135 29.9985 51.2597 29.8635 51.5308 29.6255C51.8019 29.3876 51.9806 29.0618 52.0357 28.7054L52.3599 26.2096C52.3623 26.191 52.3683 26.1732 52.3776 26.157C52.3869 26.1408 52.3993 26.1266 52.4141 26.1153C52.4289 26.1039 52.4458 26.0955 52.4638 26.0906C52.4818 26.0858 52.5006 26.0845 52.5191 26.0869C52.5376 26.0893 52.5555 26.0954 52.5717 26.1047C52.5878 26.114 52.602 26.1264 52.6134 26.1412C52.6248 26.156 52.6332 26.1728 52.638 26.1909C52.6429 26.2089 52.6442 26.2277 52.6418 26.2462L52.3176 28.7364C52.253 29.1618 52.0402 29.5507 51.7169 29.8346C51.3935 30.1184 50.9802 30.2789 50.55 30.2878Z" fill="black"/>
<path d="M51.067 26.6491C51.0296 26.6491 50.9938 26.6343 50.9673 26.6078C50.9409 26.5814 50.926 26.5455 50.926 26.5082C50.926 26.4708 50.9409 26.4349 50.9673 26.4085C50.9938 26.3821 51.0296 26.3672 51.067 26.3672C52.6128 26.3672 54.0326 25.1203 54.2318 23.5876L54.4545 21.8793C54.5034 21.5551 54.4836 21.2242 54.3965 20.9081C54.3094 20.5919 54.157 20.2976 53.949 20.0441C53.7378 19.7979 53.4774 19.5987 53.1844 19.4595C52.8914 19.3203 52.5724 19.2441 52.2482 19.236H52.1815L48.8512 22.1302L48.6567 23.6262C48.5167 24.6993 49.0241 25.6794 49.9497 26.1229C49.9664 26.1309 49.9814 26.1421 49.9938 26.156C50.0062 26.1698 50.0157 26.1859 50.0219 26.2034C50.028 26.2209 50.0306 26.2394 50.0296 26.2579C50.0286 26.2764 50.024 26.2946 50.016 26.3113C50.0079 26.328 49.9967 26.343 49.9829 26.3554C49.9691 26.3678 49.953 26.3773 49.9355 26.3834C49.918 26.3896 49.8994 26.3922 49.8809 26.3912C49.8624 26.3902 49.8443 26.3856 49.8276 26.3775C48.7939 25.8805 48.2216 24.7857 48.3767 23.5895L48.5778 22.0409C48.5823 22.0066 48.5993 21.9751 48.6257 21.9526L52.0367 18.9879C52.0629 18.9654 52.0962 18.9531 52.1307 18.9531C52.1749 18.9531 52.219 18.9531 52.2623 18.9531C52.6278 18.9605 52.9876 19.0462 53.3173 19.2044C53.6469 19.3626 53.9388 19.5897 54.1732 19.8703C54.4076 20.151 54.5791 20.4786 54.6761 20.8312C54.7731 21.1837 54.7934 21.553 54.7355 21.9141L54.5137 23.6233C54.2948 25.2922 52.749 26.6491 51.067 26.6491Z" fill="black"/>
<path d="M50.2553 32.1295C47.7802 32.1295 45.5776 31.1729 44.0534 29.4363C42.5292 27.6998 41.8649 25.3957 42.1834 22.9431C42.3281 21.8494 42.6549 20.7876 43.1504 19.8018C43.1586 19.7852 43.17 19.7704 43.1839 19.7582C43.1978 19.746 43.214 19.7366 43.2316 19.7307C43.2491 19.7248 43.2676 19.7224 43.2861 19.7236C43.3046 19.7248 43.3226 19.7297 43.3392 19.7379C43.3558 19.7461 43.3707 19.7575 43.3829 19.7714C43.395 19.7853 43.4044 19.8015 43.4103 19.8191C43.4162 19.8366 43.4187 19.8552 43.4174 19.8736C43.4162 19.8921 43.4113 19.9102 43.4031 19.9268C42.922 20.885 42.6044 21.9169 42.4635 22.9798C42.1552 25.3487 42.7961 27.5758 44.2658 29.2503C45.7354 30.9248 47.8629 31.8475 50.2553 31.8475C55.2093 31.8475 59.7592 27.853 60.3973 22.9431C60.7055 20.5742 60.0656 18.3472 58.595 16.6726C57.1244 14.9981 54.996 14.0754 52.6036 14.0754C49.9076 14.0754 47.2239 15.2603 45.2393 17.3276C45.2264 17.341 45.2111 17.3517 45.1941 17.3592C45.1771 17.3666 45.1589 17.3707 45.1403 17.3711C45.1218 17.3715 45.1033 17.3682 45.086 17.3615C45.0688 17.3547 45.053 17.3447 45.0396 17.3318C45.0262 17.319 45.0155 17.3036 45.008 17.2867C45.0006 17.2697 44.9965 17.2514 44.9961 17.2329C44.9957 17.2143 44.999 17.1959 45.0057 17.1786C45.0125 17.1613 45.0225 17.1455 45.0354 17.1321C47.0735 15.0103 49.8277 13.7935 52.6036 13.7935C55.0777 13.7935 57.2813 14.7501 58.8055 16.4866C60.3296 18.2231 60.994 20.5272 60.6754 22.9798C60.0214 28.0249 55.3455 32.1295 50.2553 32.1295Z" fill="black"/>
<path d="M61.4697 34.911H56.4894C56.3648 34.911 56.2453 34.8615 56.1571 34.7734C56.069 34.6853 56.0195 34.5657 56.0195 34.4411C56.0195 34.3165 56.069 34.197 56.1571 34.1089C56.2453 34.0208 56.3648 33.9713 56.4894 33.9713H61.0581L61.6332 29.5416C61.6491 29.418 61.7135 29.3058 61.8122 29.2297C61.9109 29.1536 62.0358 29.1198 62.1594 29.1357C62.283 29.1517 62.3952 29.2161 62.4714 29.3147C62.5475 29.4134 62.5813 29.5383 62.5654 29.6619L61.9367 34.5013C61.9221 34.6147 61.8666 34.7189 61.7806 34.7943C61.6946 34.8698 61.5841 34.9112 61.4697 34.911Z" fill="white"/>
<path d="M63.7462 17.4158C63.7258 17.4172 63.7054 17.4172 63.6851 17.4158C63.5616 17.3996 63.4496 17.3351 63.3737 17.2365C63.2977 17.1378 63.2641 17.013 63.2801 16.8896L63.9491 11.7429H58.4698C58.3452 11.7429 58.2257 11.6934 58.1376 11.6053C58.0495 11.5172 58 11.3977 58 11.2731C58 11.1485 58.0495 11.029 58.1376 10.9409C58.2257 10.8527 58.3452 10.8032 58.4698 10.8032H64.4838C64.551 10.8027 64.6175 10.8165 64.6789 10.8439C64.7403 10.8712 64.7951 10.9114 64.8396 10.9617C64.8842 11.012 64.9174 11.0713 64.9371 11.1356C64.9567 11.1998 64.9624 11.2675 64.9536 11.3342L64.2151 17.0108C64.1993 17.1237 64.1431 17.227 64.0568 17.3015C63.9705 17.376 63.8601 17.4166 63.7462 17.4158Z" fill="white"/>
<path d="M40.4192 16.8586C40.3988 16.8584 40.3784 16.8569 40.3581 16.8539C40.2347 16.8378 40.1227 16.7733 40.0467 16.6746C39.9708 16.576 39.9371 16.4512 39.9531 16.3277L40.6184 11.2093C40.6331 11.0954 40.689 10.9908 40.7756 10.9153C40.8622 10.8398 40.9734 10.7986 41.0883 10.7996H47.3841C47.5087 10.7996 47.6282 10.8491 47.7163 10.9372C47.8045 11.0253 47.854 11.1448 47.854 11.2694C47.854 11.394 47.8045 11.5135 47.7163 11.6016C47.6282 11.6898 47.5087 11.7393 47.3841 11.7393H41.5008L40.889 16.4489C40.8743 16.5629 40.8184 16.6674 40.7318 16.7429C40.6453 16.8184 40.5341 16.8596 40.4192 16.8586Z" fill="white"/>
<path d="M44.0854 34.9109H38.0715C38.0043 34.9115 37.9378 34.8976 37.8764 34.8703C37.815 34.843 37.7602 34.8028 37.7157 34.7525C37.6711 34.7021 37.6379 34.6428 37.6182 34.5786C37.5986 34.5143 37.5929 34.4466 37.6016 34.38L38.376 28.4243C38.392 28.3007 38.4565 28.1885 38.5553 28.1125C38.6541 28.0364 38.779 28.0027 38.9026 28.0188C39.0263 28.0349 39.1384 28.0994 39.2145 28.1982C39.2905 28.297 39.3242 28.4219 39.3081 28.5455L38.6024 33.9712H44.0817C44.2063 33.9712 44.3258 34.0207 44.4139 34.1088C44.502 34.197 44.5515 34.3165 44.5515 34.4411C44.5515 34.5657 44.502 34.6852 44.4139 34.7733C44.3258 34.8614 44.2063 34.9109 44.0817 34.9109H44.0854Z" fill="white"/>
<path d="M61.0721 43.2815H36.7344L37.3395 38.6282H61.6773L61.0721 43.2815Z" fill="white"/>
<path d="M57.5287 49.5707H38.4531L38.9277 45.9238H58.0032L57.5287 49.5707Z" fill="#99B9FF"/>
<path d="M45.4234 46.563C45.5419 46.3314 45.7135 46.1312 45.9242 45.9785L48.4257 43.6528C48.4257 43.6528 48.7508 44.7739 48.3561 45.4382C48.8181 45.4534 49.2782 45.5055 49.7318 45.5942C49.7318 45.5942 50.8735 44.5878 51.1583 44.414C51.443 44.2401 51.816 43.9657 52.1975 43.9704C52.5791 43.9751 52.9606 44.2683 52.9606 44.2683L50.7645 47.0498L46.769 48.1492L45.8293 54.5879L43.0234 52.3327L45.4234 46.563Z" fill="white"/>
<path d="M45.8298 54.7288C45.7976 54.729 45.7664 54.7181 45.7414 54.6978L42.9355 52.4426C42.9118 52.4233 42.8949 52.3969 42.8873 52.3673C42.8797 52.3377 42.8818 52.3065 42.8933 52.2781L45.2913 46.5066V46.4982C45.4196 46.2497 45.6036 46.0343 45.8288 45.8686L48.3246 43.5476C48.3423 43.5315 48.3638 43.5201 48.3871 43.5146C48.4104 43.5091 48.4347 43.5095 48.4578 43.5159C48.4809 43.5222 48.5019 43.5344 48.5191 43.5511C48.5362 43.5678 48.5488 43.5886 48.5558 43.6115C48.568 43.6556 48.8377 44.6 48.5699 45.3029C48.9442 45.3245 49.3167 45.3697 49.6853 45.4382C49.9164 45.2362 50.8204 44.4478 51.0798 44.2899C51.1192 44.2664 51.1596 44.2401 51.2019 44.2138C51.4754 44.0409 51.8155 43.8257 52.1811 43.8257H52.1933C52.6199 43.8314 53.0249 44.1405 53.039 44.1537C53.0536 44.1651 53.0659 44.1792 53.0751 44.1954C53.0842 44.2115 53.0901 44.2293 53.0924 44.2477C53.0947 44.2662 53.0933 44.2848 53.0883 44.3027C53.0833 44.3206 53.0749 44.3373 53.0634 44.3519L50.8664 47.1362C50.8482 47.1603 50.8224 47.1775 50.7932 47.1851L46.8878 48.2601L45.9707 54.6086C45.9669 54.6331 45.9568 54.6563 45.9413 54.6757C45.9258 54.6952 45.9055 54.7102 45.8824 54.7194C45.8656 54.7259 45.8477 54.7291 45.8298 54.7288ZM43.1987 52.2857L45.7358 54.322L46.6379 48.1266C46.6417 48.0996 46.6533 48.0742 46.6713 48.0537C46.6894 48.0331 46.713 48.0183 46.7394 48.0111L50.686 46.9238L52.7599 44.2927C52.5905 44.1842 52.3967 44.1196 52.1961 44.1048H52.1886C51.9067 44.1048 51.6022 44.2927 51.3588 44.4487C51.3156 44.4769 51.2733 44.5032 51.2329 44.5277C51.0083 44.6649 50.141 45.4157 49.8234 45.6938C49.8067 45.7082 49.7869 45.7186 49.7656 45.7241C49.7442 45.7297 49.7219 45.7302 49.7003 45.7258C49.255 45.6385 48.8035 45.5873 48.35 45.5726C48.3254 45.5718 48.3015 45.5646 48.2806 45.5518C48.2597 45.5389 48.2425 45.5208 48.2307 45.4993C48.2189 45.4777 48.213 45.4535 48.2135 45.4289C48.214 45.4044 48.2208 45.3803 48.2335 45.3593C48.49 44.9298 48.4092 44.2664 48.3415 43.9197L46.0186 46.081L46.0074 46.0904C45.8157 46.2294 45.659 46.4112 45.5497 46.6213L43.1987 52.2857Z" fill="black"/>
<path d="M46.7617 51.9633L43.2003 50.6543C41.8011 53.1539 40.2995 55.302 38.6259 56.6467C37.6565 57.4248 36.5913 58.0753 35.4564 58.5824C35.3376 58.6363 35.2091 58.6655 35.0787 58.6683C34.9484 58.671 34.8188 58.6473 34.6978 58.5986C34.5768 58.5498 34.467 58.477 34.375 58.3846C34.283 58.2922 34.2107 58.1821 34.1624 58.0609C33.3241 55.8791 32.2815 53.7815 31.0483 51.796C29.8192 49.8227 27.7792 48.2055 26.0849 47.3654C23.4538 46.0602 20.3933 45.4297 17.4775 46.0114C11.8507 47.1343 8.00736 50.4138 8.00736 50.4138C4.94588 52.8569 -0.709124 61.3799 1.30743 65.4825C3.77973 70.5154 10.4449 67.5714 10.4449 67.5714C10.4449 67.5714 11.0923 68.6276 9.70161 71.8404C8.01018 75.7429 10.4599 76.2653 10.4599 76.2653C16.1497 79.0468 31.2212 78.4266 29.9358 75.3191C28.5601 71.9935 28.5375 67.7791 28.5375 67.7791C30.4385 69.6584 33.0339 69.3643 33.0339 69.3643C33.0339 69.3643 34.5374 69.2516 35.571 68.8249C44.5694 65.8377 46.7617 51.9633 46.7617 51.9633Z" fill="#5479F7"/>
<path d="M10.5239 65.1123C10.4946 65.1126 10.466 65.1036 10.442 65.0868C10.4181 65.0699 10.4001 65.046 10.3904 65.0183C8.50638 59.5682 9.38122 55.1667 9.39061 55.1226C9.39431 55.1044 9.40155 55.0872 9.41191 55.0718C9.42228 55.0565 9.43555 55.0433 9.451 55.0331C9.46644 55.0229 9.48375 55.0159 9.50193 55.0123C9.5201 55.0088 9.5388 55.0089 9.55694 55.0126C9.59365 55.0203 9.62583 55.0422 9.64643 55.0736C9.66704 55.1049 9.67439 55.1431 9.66689 55.1799C9.65749 55.2231 8.79955 59.5541 10.6564 64.9263C10.6626 64.9437 10.6653 64.9622 10.6643 64.9807C10.6633 64.9992 10.6587 65.0174 10.6506 65.034C10.6426 65.0507 10.6313 65.0657 10.6175 65.078C10.6036 65.0903 10.5874 65.0997 10.5699 65.1057C10.5551 65.1106 10.5395 65.1128 10.5239 65.1123Z" fill="black"/>
<path d="M28.4223 67.949C28.3871 67.948 28.3536 67.9339 28.3283 67.9096C25.3833 65.0341 23.3339 58.3549 23.2484 58.072C23.2374 58.0363 23.2411 57.9976 23.2586 57.9646C23.2762 57.9315 23.3061 57.9068 23.3419 57.8958C23.3776 57.8849 23.4163 57.8886 23.4493 57.9061C23.4824 57.9236 23.5071 57.9536 23.5181 57.9893C23.5387 58.0579 25.6323 64.8828 28.5256 67.7075C28.552 67.734 28.5669 67.7698 28.5669 67.8071C28.5669 67.8445 28.552 67.8803 28.5256 67.9067C28.5123 67.9205 28.4962 67.9314 28.4784 67.9387C28.4606 67.946 28.4415 67.9495 28.4223 67.949Z" fill="black"/>
<path d="M20.6939 32.6839C21.2529 32.6889 21.801 32.8398 22.2839 33.1216C22.7668 33.4034 23.1678 33.8064 23.4471 34.2908C23.7112 34.7465 23.9517 35.1712 24.0006 35.2906C24.1105 35.564 24.3549 36.4811 25.2485 37.3663C25.2916 37.4078 25.3179 37.4637 25.3224 37.5233C25.3269 37.5829 25.3093 37.6421 25.2729 37.6896L24.6997 38.4216C24.6802 38.4465 24.6661 38.4754 24.6585 38.5061C24.6509 38.5369 24.6499 38.5689 24.6556 38.6001C24.7232 38.9901 25.0643 40.4081 24.9638 40.6674C24.7495 41.2096 23.4537 41.3562 23.0694 41.3882C23.0341 41.3911 23 41.4027 22.9702 41.4219C22.9404 41.441 22.9157 41.4672 22.8983 41.4981C22.7734 41.7227 22.4454 42.3664 22.1757 43.9732C21.7642 46.4164 24.0974 46.8007 23.6219 47.0403C20.3077 48.7139 14.2035 48.3333 14.5577 47.638C14.849 47.0648 18.1981 45.5838 18.5044 41.5573C18.6989 39.0474 15.1836 38.8407 17.7169 34.0624C18.3099 32.9451 19.585 32.6792 20.6939 32.6839Z" fill="white"/>
<path d="M17.4842 48.3615C15.9656 48.3615 14.7694 48.1736 14.4941 47.8917C14.449 47.8522 14.4183 47.7987 14.4071 47.7398C14.3959 47.6809 14.4047 47.6199 14.4321 47.5666C14.5138 47.4059 14.7431 47.2254 15.0899 46.9539C16.1536 46.1213 18.1335 44.5699 18.3684 41.5394C18.4351 40.6721 18.0283 40.0867 17.5969 39.4665C16.8236 38.3567 15.9487 37.0976 17.5969 33.9891C18.0987 33.0419 19.1577 32.542 20.6603 32.542H20.6922C21.2758 32.5473 21.848 32.7045 22.3523 32.9981C22.8567 33.2917 23.2759 33.7116 23.5686 34.2165C24.0638 35.0688 24.1146 35.1928 24.1324 35.2342C24.1503 35.2755 24.1644 35.3187 24.185 35.3761C24.4191 36.0875 24.8177 36.7336 25.3484 37.262C25.416 37.3277 25.4572 37.4161 25.4639 37.5101C25.4707 37.6042 25.4426 37.6975 25.385 37.7723L24.8118 38.5052C24.8045 38.5145 24.7992 38.5253 24.7963 38.5368C24.7933 38.5483 24.7929 38.5602 24.7949 38.5719C24.8099 38.6584 24.84 38.8012 24.8748 38.9675C25.0834 39.9674 25.1745 40.5114 25.0956 40.7116C24.8597 41.3111 23.609 41.4774 23.0828 41.5216C23.0704 41.5222 23.0583 41.5259 23.0478 41.5325C23.0373 41.5391 23.0286 41.5483 23.0227 41.5592C22.6675 42.1991 22.4419 43.2337 22.316 43.9882C22.0482 45.5801 22.9879 46.2378 23.4934 46.5912C23.7086 46.7415 23.8383 46.8317 23.828 46.9746C23.8243 47.0159 23.8092 47.0554 23.7843 47.0886C23.7594 47.1218 23.7257 47.1474 23.687 47.1625C21.943 48.0401 19.4453 48.3615 17.4842 48.3615ZM14.6877 47.6868C14.7563 47.7481 14.8389 47.7917 14.9282 47.8137C16.1198 48.229 20.6829 48.323 23.4944 46.9407C23.4483 46.905 23.3854 46.8608 23.3309 46.8223C22.814 46.4615 21.74 45.7107 22.0369 43.9431C22.2249 42.8155 22.4748 41.9651 22.7746 41.4229C22.8031 41.3719 22.8438 41.3287 22.8929 41.2971C22.9421 41.2655 22.9982 41.2464 23.0565 41.2416C23.7838 41.1805 24.685 40.9794 24.8306 40.6092C24.8926 40.4475 24.685 39.4515 24.5957 39.0258C24.5609 38.8576 24.5308 38.7119 24.5149 38.6208C24.5061 38.5703 24.508 38.5186 24.5205 38.4689C24.5329 38.4192 24.5557 38.3727 24.5872 38.3323L25.1595 37.5994C25.175 37.5793 25.1824 37.5541 25.1801 37.5288C25.1779 37.5036 25.1661 37.4801 25.1473 37.4631C24.5864 36.9056 24.1646 36.2237 23.9163 35.4729C23.8975 35.419 23.8815 35.3748 23.8684 35.3404C23.8458 35.2859 23.7453 35.0857 23.3233 34.3584C23.0552 33.8967 22.6717 33.5127 22.2105 33.2438C21.7493 32.975 21.2261 32.8306 20.6922 32.8248H20.6631C19.6849 32.8248 18.4154 33.0522 17.8441 34.1216C16.2767 37.0788 17.0651 38.2111 17.8272 39.3068C18.2679 39.9401 18.7236 40.5951 18.6484 41.562C18.4041 44.7165 16.3603 46.3168 15.2656 47.1766C14.9884 47.3927 14.7488 47.5806 14.6877 47.6868Z" fill="black"/>
<path d="M22.6219 36.5545L23.9477 34.8941C24.1073 34.6935 24.2218 34.461 24.2835 34.2123C24.3452 33.9636 24.3526 33.7045 24.3053 33.4527C24.2579 33.2008 24.1569 32.9621 24.0092 32.7528C23.8614 32.5435 23.6702 32.3684 23.4488 32.2395C23.1548 32.0684 22.8507 31.9153 22.5382 31.7809C19.1328 30.3141 15.2303 32.7347 15.2266 36.4417C15.2266 37.9593 16.2405 39.7193 18.397 41.283C18.397 41.283 19.9118 40.0877 19.893 38.7947C19.893 38.7947 18.7927 37.4904 20.3422 36.8298C20.4892 36.7677 20.6479 36.738 20.8074 36.7425C20.9669 36.747 21.1236 36.7858 21.2668 36.8561C21.4933 36.9678 21.751 36.9987 21.9975 36.9439C22.2439 36.889 22.4642 36.7516 22.6219 36.5545Z" fill="black"/>
<path d="M20.5973 39.5302C20.1566 39.5302 19.5938 39.3423 19.1756 38.5511C19.166 38.5347 19.1598 38.5165 19.1574 38.4976C19.155 38.4787 19.1564 38.4595 19.1616 38.4412C19.1669 38.4229 19.1757 38.4059 19.1877 38.3911C19.1997 38.3763 19.2145 38.3641 19.2314 38.3552C19.2482 38.3463 19.2666 38.3409 19.2856 38.3393C19.3046 38.3378 19.3237 38.3401 19.3417 38.3461C19.3598 38.3521 19.3764 38.3617 19.3907 38.3743C19.4049 38.387 19.4165 38.4023 19.4246 38.4195C20.0824 39.6674 21.1217 39.1478 21.1649 39.1252C21.1981 39.1078 21.2368 39.1042 21.2725 39.1153C21.3083 39.1264 21.3382 39.1513 21.3557 39.1844C21.3731 39.2176 21.3767 39.2563 21.3656 39.2921C21.3545 39.3278 21.3296 39.3577 21.2965 39.3752C21.0773 39.4766 20.8388 39.5295 20.5973 39.5302Z" fill="black"/>
<path d="M17.0044 32.9224C17.0044 32.9224 15.8543 28.9438 11.6595 29.6927C9.0397 30.1626 6.75158 31.9207 5.49523 34.7933C3.06333 40.3525 5.26595 45.6419 1.30237 50.4681C0.407795 51.5582 1.13699 53.2148 2.54557 53.2637C5.20862 53.3577 8.80197 52.7121 11.2978 49.2832C13.3416 46.4736 12.057 33.5595 16.56 33.7531L17.0044 32.9224Z" fill="black"/>
<path d="M28.6578 25.0518C29.6667 22.5075 28.422 19.627 25.8777 18.6181C23.3334 17.6092 20.4529 18.8539 19.444 21.3982C18.4351 23.9425 19.6798 26.823 22.2241 27.8319C24.7684 28.8408 27.6489 27.5961 28.6578 25.0518Z" fill="#5479F7"/>
<path d="M23.5651 25.8337C23.4736 25.8338 23.384 25.8072 23.3074 25.7571C23.2308 25.707 23.1704 25.6356 23.1338 25.5518L21.7327 22.3352C21.7058 22.2784 21.6906 22.2167 21.6879 22.1538C21.6853 22.091 21.6953 22.0282 21.7173 21.9693C21.7394 21.9104 21.7731 21.8565 21.8164 21.8108C21.8596 21.7652 21.9117 21.7287 21.9693 21.7035C22.027 21.6783 22.0891 21.665 22.152 21.6642C22.2149 21.6635 22.2773 21.6755 22.3355 21.6993C22.3938 21.7232 22.4466 21.7585 22.4909 21.8032C22.5352 21.8478 22.5701 21.9009 22.5935 21.9593L23.5069 24.0548C24.0519 22.5805 24.689 21.4632 25.4407 20.657C25.4829 20.6118 25.5335 20.5755 25.5897 20.5499C25.6459 20.5244 25.7065 20.5102 25.7682 20.5081C25.8299 20.506 25.8914 20.5161 25.9492 20.5377C26.007 20.5594 26.06 20.5923 26.1051 20.6344C26.1502 20.6765 26.1865 20.7272 26.2121 20.7833C26.2376 20.8395 26.2518 20.9002 26.2539 20.9619C26.256 21.0236 26.246 21.0851 26.2243 21.1429C26.2026 21.2007 26.1698 21.2537 26.1276 21.2988C25.3007 22.1849 24.5894 23.5991 24.0143 25.4991C23.9866 25.5912 23.9312 25.6726 23.8558 25.7323C23.7803 25.7919 23.6884 25.827 23.5924 25.8327L23.5651 25.8337Z" fill="white"/>
</svg>
