<svg width="96" height="97" viewBox="0 0 96 97" fill="none" xmlns="http://www.w3.org/2000/svg">
<path d="M71.6303 87.1982C95.6427 72.0609 96.0103 44.7898 95.9998 43.5396C95.9337 29.3799 89.4929 9.56097 73.0289 2.53678C71.127 1.725 60.6203 -2.08803 51.2164 1.54061C40.2423 5.77577 32.919 14.9349 31.0496 22.9414C30.7852 24.0755 30.5973 25.2503 29.6104 26.512C25.802 31.3827 21.9994 27.8897 15.671 29.7986C4.88597 33.0457 -3.20511 52.0958 1.24691 68.1249C6.60695 87.4232 27.712 93.5405 31.0206 94.4369C51.3892 99.9547 68.1779 89.3726 71.6303 87.1982Z" fill="#CADDFF"/>
<path d="M83.3993 86.0651L27.0574 85.8865C26.805 85.8864 26.5553 85.8345 26.3237 85.7342C26.0922 85.6338 25.8836 85.4871 25.7109 85.303C25.5382 85.1189 25.4051 84.9014 25.3198 84.6639C25.2344 84.4264 25.1987 84.1739 25.2147 83.922L29.8302 11.5092C29.86 11.0405 30.0672 10.6008 30.4098 10.2796C30.7524 9.95835 31.2045 9.77974 31.6741 9.78009L88.1598 9.60498C89.2256 9.60498 90.2229 10.68 90.1545 11.7446L85.539 84.1563C85.4763 85.1292 84.3746 86.0651 83.3993 86.0651Z" fill="black"/>
<path d="M82.7919 85.8865H26.1484C25.8959 85.8865 25.6461 85.8348 25.4144 85.7345C25.1827 85.6342 24.974 85.4875 24.8012 85.3034C24.6284 85.1193 24.4952 84.9017 24.4097 84.6641C24.3243 84.4265 24.2885 84.1739 24.3045 83.922L28.9212 11.5091C28.951 11.0406 29.1581 10.6011 29.5004 10.2799C29.8427 9.95871 30.2945 9.77997 30.7639 9.78003H87.4016C87.6541 9.78 87.9039 9.83172 88.1356 9.93201C88.3673 10.0323 88.576 10.179 88.7488 10.3631C88.9216 10.5472 89.0549 10.7648 89.1403 11.0024C89.2257 11.24 89.2615 11.4925 89.2455 11.7445L84.63 84.1562C84.6 84.6239 84.3935 85.0627 84.0523 85.3839C83.711 85.7051 83.2605 85.8848 82.7919 85.8865Z" fill="white"/>
<path d="M82.7894 86.0605H26.1459C25.8696 86.0606 25.5962 86.004 25.3427 85.8943C25.0891 85.7845 24.8607 85.6239 24.6717 85.4224C24.4827 85.2209 24.3371 84.9827 24.2437 84.7227C24.1504 84.4626 24.1114 84.1862 24.1292 83.9105L28.7482 11.4976C28.7817 10.9854 29.0087 10.505 29.3832 10.1538C29.7576 9.80262 30.2515 9.60687 30.7649 9.6062H87.4026C87.6788 9.60613 87.9521 9.66267 88.2057 9.77234C88.4592 9.88202 88.6875 10.0425 88.8766 10.2439C89.0657 10.4452 89.2115 10.6832 89.3051 10.9432C89.3986 11.2031 89.4378 11.4794 89.4204 11.7551L84.8037 84.1679C84.7702 84.6799 84.5436 85.1601 84.1697 85.5114C83.7958 85.8627 83.3024 86.059 82.7894 86.0605ZM30.7614 9.95411C30.3363 9.95495 29.9274 10.1172 29.6174 10.4081C29.3074 10.6989 29.1194 11.0967 29.0915 11.5208L24.4759 83.9325C24.4615 84.1607 24.494 84.3895 24.5714 84.6047C24.6488 84.8199 24.7694 85.017 24.9259 85.1837C25.0824 85.3505 25.2713 85.4835 25.4811 85.5745C25.691 85.6654 25.9172 85.7124 26.1459 85.7126H82.7894C83.2145 85.7118 83.6234 85.5495 83.9334 85.2587C84.2434 84.9678 84.4314 84.5701 84.4593 84.1459L89.0748 11.7331C89.0894 11.5048 89.0571 11.2761 88.9797 11.0608C88.9024 10.8456 88.7817 10.6486 88.6252 10.4818C88.4687 10.3151 88.2797 10.1823 88.0698 10.0915C87.8599 10.0007 87.6336 9.95396 87.4049 9.95411H30.7614Z" fill="black"/>
<path d="M78.646 81.3381H31.0132C30.7988 81.3394 30.5864 81.2967 30.3891 81.2128C30.1918 81.1288 30.0138 81.0054 29.866 80.85C29.7182 80.6946 29.6039 80.5106 29.5299 80.3094C29.456 80.1081 29.424 79.8938 29.4361 79.6797L31.9746 38.0831C32.0006 37.6835 32.1782 37.3089 32.4711 37.0358C32.7641 36.7627 33.1502 36.6118 33.5506 36.6138H81.1845C81.3988 36.6127 81.6109 36.6554 81.808 36.7393C82.0051 36.8233 82.1829 36.9467 82.3306 37.1019C82.4782 37.2571 82.5925 37.4409 82.6665 37.642C82.7404 37.843 82.7724 38.0571 82.7606 38.271L80.222 79.8688C80.196 80.2684 80.0184 80.643 79.7255 80.9161C79.4326 81.1892 79.0465 81.3401 78.646 81.3381Z" fill="#CADDFF"/>
<path d="M76.0342 41.5508L62.5742 46.9263L65.3359 53.8415L78.7959 48.4661L76.0342 41.5508Z" fill="#99B9FF"/>
<path d="M49.2283 42.2082L35.1328 47.8374L37.9156 54.8054L52.011 49.1762L49.2283 42.2082Z" fill="#99B9FF"/>
<path d="M58.7829 66.1994L44.6875 71.8286L47.4703 78.7966L61.5657 73.1674L58.7829 66.1994Z" fill="#99B9FF"/>
<path d="M87.5108 46.9436L74.0508 52.3191L76.8125 59.2343L90.2725 53.8589L87.5108 46.9436Z" fill="#99B9FF"/>
<path d="M71.585 33.303L70.9102 31.6133L14.3109 54.217L14.9857 55.9068L71.585 33.303Z" fill="white"/>
<path d="M30.6116 36.5927L28.9219 37.2676L47.3282 83.3566L49.018 82.6818L30.6116 36.5927Z" fill="white"/>
<path d="M38.6546 33.6103L36.9648 34.2852L56.5243 83.2616L58.2141 82.5867L38.6546 33.6103Z" fill="white"/>
<path d="M46.1859 29.695L44.4961 30.3699L65.7579 83.609L67.4476 82.9341L46.1859 29.695Z" fill="white"/>
<path d="M76.7691 82.6955L75.0806 83.3704L55.5898 34.2938L57.2795 33.6189L76.7691 82.6955Z" fill="white"/>
<path d="M83.3747 75.6421L81.6851 76.317L64.5508 33.2697L66.2404 32.5947L83.3747 75.6421Z" fill="white"/>
<path d="M85.3819 37.8699L84.707 36.1802L28.4136 58.6617L29.0885 60.3515L85.3819 37.8699Z" fill="white"/>
<path d="M84.4053 48.2344L83.7305 46.5447L26.7037 69.3191L27.3785 71.0089L84.4053 48.2344Z" fill="white"/>
<path d="M54.0069 16.2605H35.8196C35.19 16.2605 34.6797 16.7709 34.6797 17.4005V17.4086C34.6797 18.0382 35.19 18.5486 35.8196 18.5486H54.0069C54.6365 18.5486 55.1469 18.0382 55.1469 17.4086V17.4005C55.1469 16.7709 54.6365 16.2605 54.0069 16.2605Z" fill="#CADDFF"/>
<path d="M54.0004 21.8328H35.0814C34.4518 21.8328 33.9414 22.3431 33.9414 22.9727V22.9808C33.9414 23.6104 34.4518 24.1208 35.0814 24.1208H54.0004C54.63 24.1208 55.1404 23.6104 55.1404 22.9808V22.9727C55.1404 22.3431 54.63 21.8328 54.0004 21.8328Z" fill="#CADDFF"/>
<path d="M43.5325 27.4041H34.0892C33.4596 27.4041 32.9492 27.9144 32.9492 28.544V28.5521C32.9492 29.1817 33.4596 29.6921 34.0892 29.6921H43.5325C44.1621 29.6921 44.6724 29.1817 44.6724 28.5521V28.544C44.6724 27.9144 44.1621 27.4041 43.5325 27.4041Z" fill="#CADDFF"/>
<path d="M78.6423 81.3996H31.0095C30.785 81.4011 30.5626 81.356 30.3564 81.2672C30.1502 81.1784 29.9647 81.0477 29.8115 80.8835C29.6596 80.7239 29.5424 80.5345 29.4672 80.3273C29.3919 80.1202 29.3603 79.8997 29.3743 79.6798L31.9129 38.0832C31.9406 37.6691 32.1249 37.2811 32.4284 36.998C32.7319 36.715 33.1318 36.5581 33.5469 36.5594H81.1808C81.4053 36.5579 81.6277 36.603 81.8339 36.6918C82.0401 36.7806 82.2256 36.9112 82.3787 37.0754C82.5304 37.235 82.6475 37.4241 82.7225 37.6311C82.7976 37.8381 82.829 38.0583 82.8148 38.278L80.2762 79.8758C80.2485 80.2899 80.0642 80.6779 79.7607 80.9609C79.4572 81.244 79.0573 81.4008 78.6423 81.3996ZM33.5469 36.6719C33.1614 36.6707 32.79 36.8163 32.5081 37.0791C32.2261 37.3418 32.0548 37.7021 32.0289 38.0867L29.4903 79.6833C29.477 79.8874 29.5062 80.092 29.576 80.2843C29.6459 80.4765 29.7549 80.6521 29.8962 80.8001C30.0384 80.9528 30.2108 81.0743 30.4024 81.157C30.5941 81.2396 30.8008 81.2815 31.0095 81.2802H78.6423C79.0278 81.2816 79.3993 81.1361 79.6813 80.8733C79.9634 80.6104 80.1346 80.25 80.1603 79.8654L82.6988 38.2676C82.712 38.0638 82.6828 37.8594 82.6132 37.6674C82.5435 37.4754 82.4349 37.2999 82.2941 37.152C82.1519 36.9992 81.9795 36.8777 81.7878 36.7951C81.5962 36.7124 81.3895 36.6705 81.1808 36.6719H33.5469Z" fill="white"/>
<path d="M18.5955 60.5147H18.57C18.5474 60.5113 18.5256 60.5035 18.506 60.4917C18.4864 60.4799 18.4694 60.4643 18.4558 60.4459C18.4422 60.4275 18.4324 60.4066 18.4269 60.3843C18.4215 60.3621 18.4204 60.339 18.4239 60.3164L19.1568 55.4144C19.1602 55.3916 19.1681 55.3697 19.18 55.3499C19.1919 55.3301 19.2076 55.3128 19.2262 55.2991C19.2448 55.2854 19.2659 55.2754 19.2883 55.2699C19.3107 55.2643 19.334 55.2632 19.3569 55.2666C19.3797 55.27 19.4016 55.2779 19.4214 55.2898C19.4412 55.3017 19.4585 55.3174 19.4722 55.336C19.4859 55.3546 19.4959 55.3757 19.5014 55.3981C19.507 55.4205 19.5081 55.4438 19.5047 55.4666L18.7718 60.3686C18.7651 60.4102 18.7435 60.4479 18.7111 60.4748C18.6787 60.5016 18.6376 60.5158 18.5955 60.5147Z" fill="#CADDFF"/>
<path d="M22.1308 71.6328C22.1007 71.6326 22.0712 71.6246 22.045 71.6097C22.0251 71.5983 22.0076 71.5832 21.9936 71.5651C21.9796 71.547 21.9692 71.5264 21.9632 71.5043C21.9572 71.4822 21.9555 71.4591 21.9584 71.4364C21.9613 71.4137 21.9687 71.3918 21.9801 71.3719C21.9975 71.3429 23.6732 68.4078 24.318 66.6729C24.3237 66.6491 24.3343 66.6268 24.3491 66.6075C24.364 66.5881 24.3827 66.572 24.4042 66.5604C24.4257 66.5487 24.4493 66.5417 24.4737 66.5398C24.498 66.5379 24.5225 66.5412 24.5455 66.5494C24.5685 66.5576 24.5895 66.5705 24.6072 66.5874C24.6249 66.6042 24.6388 66.6246 24.6481 66.6472C24.6574 66.6698 24.6618 66.6941 24.6611 66.7185C24.6603 66.7429 24.6545 66.7669 24.6439 66.7889C23.9898 68.5504 22.299 71.5099 22.2827 71.5435C22.2674 71.5704 22.2453 71.5927 22.2186 71.6084C22.192 71.6241 22.1617 71.6325 22.1308 71.6328Z" fill="#CADDFF"/>
<path d="M62.0475 62.845C62.0475 65.0867 57.9886 70.9036 57.9886 70.9036C57.9886 70.9036 53.9297 65.0867 53.9297 62.845C53.9297 61.7685 54.3573 60.7361 55.1185 59.975C55.8797 59.2138 56.9121 58.7861 57.9886 58.7861C59.0651 58.7861 60.0974 59.2138 60.8586 59.975C61.6198 60.7361 62.0475 61.7685 62.0475 62.845Z" fill="#5479F7"/>
<path d="M59.0146 63.8708C59.5825 63.3029 59.5825 62.3822 59.0146 61.8142C58.4467 61.2463 57.5259 61.2463 56.958 61.8142C56.3901 62.3821 56.3901 63.3029 56.958 63.8708C57.5259 64.4387 58.4467 64.4387 59.0146 63.8708Z" fill="white"/>
<path d="M78.7628 50.9306C78.7628 53.9457 73.296 61.7806 73.296 61.7806C73.296 61.7806 67.8281 53.9492 67.8281 50.9306C67.849 49.4946 68.4341 48.1246 69.457 47.1166C70.4798 46.1085 71.8582 45.5435 73.2943 45.5435C74.7304 45.5435 76.1088 46.1085 77.1316 47.1166C78.1544 48.1246 78.7395 49.4946 78.7604 50.9306H78.7628Z" fill="#5479F7"/>
<path d="M73.2985 52.8891C74.3803 52.8891 75.2573 52.0121 75.2573 50.9304C75.2573 49.8486 74.3803 48.9717 73.2985 48.9717C72.2168 48.9717 71.3398 49.8486 71.3398 50.9304C71.3398 52.0121 72.2168 52.8891 73.2985 52.8891Z" fill="white"/>
<path d="M76.923 18.3789C76.923 25.2628 64.4576 43.1231 64.4576 43.1231C64.4576 43.1231 51.9922 25.264 51.9922 18.3789C51.9922 15.0726 53.3056 11.9017 55.6436 9.56373C57.9815 7.22579 61.1524 5.91235 64.4588 5.91235C67.7651 5.91235 70.936 7.22579 73.274 9.56373C75.6119 11.9017 76.9253 15.0726 76.9253 18.3789H76.923Z" fill="#5479F7"/>
<path d="M68.7892 19.3993C69.3558 16.9988 67.8691 14.5935 65.4686 14.0269C63.0681 13.4604 60.6628 14.9471 60.0962 17.3476C59.5296 19.7481 61.0163 22.1534 63.4168 22.72C65.8173 23.2865 68.2226 21.7998 68.7892 19.3993Z" fill="white"/>
<path d="M65.252 23.0192C64.3346 23.0192 63.4377 22.7471 62.6749 22.2374C61.912 21.7277 61.3175 21.0032 60.9664 20.1556C60.6153 19.308 60.5234 18.3753 60.7024 17.4755C60.8814 16.5756 61.3232 15.7491 61.9719 15.1004C62.6207 14.4516 63.4472 14.0098 64.347 13.8308C65.2469 13.6518 66.1796 13.7437 67.0272 14.0948C67.8748 14.4459 68.5993 15.0405 69.109 15.8033C69.6187 16.5661 69.8907 17.463 69.8907 18.3804C69.8889 19.6101 69.3996 20.7889 68.53 21.6585C67.6605 22.528 66.4817 23.0173 65.252 23.0192ZM65.252 14.0896C64.4034 14.0896 63.5738 14.3413 62.8682 14.8127C62.1625 15.2842 61.6126 15.9544 61.2878 16.7384C60.963 17.5224 60.8781 18.3852 61.0436 19.2175C61.2092 20.0499 61.6178 20.8144 62.2179 21.4145C62.818 22.0146 63.5826 22.4232 64.4149 22.5888C65.2473 22.7544 66.11 22.6694 66.894 22.3446C67.6781 22.0199 68.3482 21.4699 68.8197 20.7643C69.2912 20.0587 69.5428 19.2291 69.5428 18.3804C69.5419 17.2424 69.0897 16.1512 68.2853 15.3461C67.4809 14.5411 66.39 14.088 65.252 14.0861V14.0896Z" fill="black"/>
<path d="M80.1166 28.602C80.0706 28.6016 80.0265 28.5833 79.9937 28.5509L79.567 28.1242C79.5342 28.0916 79.5157 28.0473 79.5156 28.0011C79.5155 27.9549 79.5338 27.9105 79.5664 27.8777C79.599 27.845 79.6433 27.8265 79.6895 27.8264C79.7357 27.8263 79.7801 27.8446 79.8128 27.8772L80.2396 28.3039C80.2637 28.3284 80.2801 28.3594 80.2867 28.3932C80.2933 28.4269 80.2899 28.4619 80.2768 28.4936C80.2636 28.5254 80.2415 28.5526 80.213 28.5719C80.1845 28.5912 80.151 28.6016 80.1166 28.602Z" fill="black"/>
<path d="M81.6079 30.0956C81.5619 30.0951 81.5178 30.0768 81.485 30.0445L81.0582 29.6178C81.0259 29.585 81.0078 29.5408 81.0078 29.4948C81.0078 29.4488 81.0259 29.4047 81.0582 29.3719C81.0743 29.3556 81.0934 29.3427 81.1145 29.3339C81.1356 29.3251 81.1582 29.3206 81.1811 29.3206C81.204 29.3206 81.2266 29.3251 81.2477 29.3339C81.2688 29.3427 81.288 29.3556 81.304 29.3719L81.7308 29.7987C81.7551 29.823 81.7717 29.854 81.7784 29.8877C81.7851 29.9214 81.7816 29.9564 81.7685 29.9882C81.7553 30.0199 81.733 30.0471 81.7044 30.0662C81.6759 30.0853 81.6423 30.0955 81.6079 30.0956Z" fill="black"/>
<path d="M79.6894 30.0955C79.655 30.0955 79.6214 30.0853 79.5929 30.0662C79.5643 30.047 79.542 30.0199 79.5289 29.9881C79.5157 29.9564 79.5123 29.9214 79.519 29.8877C79.5257 29.854 79.5422 29.823 79.5665 29.7986L79.9933 29.3719C80.0263 29.3412 80.0698 29.3244 80.1149 29.3252C80.16 29.326 80.203 29.3443 80.2348 29.3761C80.2667 29.408 80.285 29.451 80.2858 29.4961C80.2866 29.5411 80.2698 29.5848 80.2391 29.6177L79.8124 30.0445C79.7963 30.0607 79.7771 30.0736 79.756 30.0823C79.7349 30.0911 79.7123 30.0956 79.6894 30.0955Z" fill="black"/>
<path d="M81.1811 28.602C81.1468 28.6016 81.1132 28.5912 81.0848 28.5719C81.0563 28.5526 81.0342 28.5254 81.021 28.4936C81.0079 28.4619 81.0045 28.4269 81.0111 28.3932C81.0177 28.3594 81.0341 28.3284 81.0582 28.3039L81.485 27.8772C81.5177 27.8446 81.5621 27.8263 81.6083 27.8264C81.6545 27.8265 81.6988 27.845 81.7314 27.8777C81.764 27.9105 81.7823 27.9549 81.7821 28.0011C81.782 28.0473 81.7636 28.0916 81.7308 28.1242L81.3041 28.5509C81.288 28.5671 81.2688 28.58 81.2477 28.5888C81.2266 28.5975 81.204 28.602 81.1811 28.602Z" fill="black"/>
<path d="M68.0222 92.6268C67.9761 92.6266 67.9319 92.6083 67.8993 92.5757L67.4725 92.149C67.4417 92.116 67.425 92.0724 67.4258 92.0273C67.4266 91.9823 67.4449 91.9393 67.4767 91.9074C67.5086 91.8755 67.5516 91.8573 67.5967 91.8565C67.6417 91.8557 67.6854 91.8724 67.7183 91.9031L68.1451 92.3299C68.1614 92.346 68.1743 92.3651 68.1831 92.3862C68.1919 92.4073 68.1964 92.43 68.1964 92.4528C68.1964 92.4757 68.1919 92.4983 68.1831 92.5194C68.1743 92.5405 68.1614 92.5597 68.1451 92.5757C68.1124 92.6083 68.0682 92.6266 68.0222 92.6268Z" fill="black"/>
<path d="M69.5152 94.1203C69.4691 94.1201 69.425 94.1018 69.3923 94.0693L68.9655 93.6425C68.9484 93.6266 68.9347 93.6074 68.9252 93.5861C68.9157 93.5647 68.9106 93.5417 68.9102 93.5183C68.9098 93.495 68.9141 93.4718 68.9228 93.4501C68.9316 93.4285 68.9446 93.4088 68.9611 93.3923C68.9776 93.3757 68.9973 93.3627 69.019 93.354C69.0406 93.3452 69.0638 93.3409 69.0872 93.3413C69.1106 93.3417 69.1336 93.3469 69.1549 93.3564C69.1763 93.3659 69.1954 93.3796 69.2114 93.3967L69.6382 93.8234C69.6544 93.8395 69.6673 93.8586 69.6762 93.8797C69.685 93.9008 69.6895 93.9235 69.6895 93.9464C69.6895 93.9692 69.685 93.9919 69.6762 94.013C69.6673 94.0341 69.6544 94.0532 69.6382 94.0693C69.6055 94.1018 69.5613 94.1201 69.5152 94.1203Z" fill="black"/>
<path d="M67.6001 94.1203C67.554 94.1201 67.5098 94.1018 67.4771 94.0693C67.4609 94.0532 67.448 94.0341 67.4391 94.013C67.4303 93.9919 67.4258 93.9692 67.4258 93.9464C67.4258 93.9235 67.4303 93.9008 67.4391 93.8797C67.448 93.8586 67.4609 93.8395 67.4771 93.8234L67.9039 93.3967C67.9198 93.3796 67.939 93.3659 67.9604 93.3564C67.9817 93.3469 68.0047 93.3417 68.0281 93.3413C68.0515 93.3409 68.0747 93.3452 68.0963 93.354C68.118 93.3627 68.1377 93.3757 68.1542 93.3923C68.1707 93.4088 68.1837 93.4285 68.1925 93.4501C68.2012 93.4718 68.2055 93.495 68.2051 93.5183C68.2047 93.5417 68.1996 93.5647 68.1901 93.5861C68.1806 93.6074 68.1669 93.6266 68.1498 93.6425L67.723 94.0693C67.6903 94.1018 67.6462 94.1201 67.6001 94.1203Z" fill="black"/>
<path d="M69.0884 92.6268C69.0423 92.6266 68.9981 92.6083 68.9654 92.5757C68.9492 92.5597 68.9362 92.5405 68.9274 92.5194C68.9186 92.4983 68.9141 92.4757 68.9141 92.4528C68.9141 92.43 68.9186 92.4073 68.9274 92.3862C68.9362 92.3651 68.9492 92.346 68.9654 92.3299L69.3922 91.9031C69.4252 91.8724 69.4688 91.8557 69.5138 91.8565C69.5589 91.8573 69.6019 91.8755 69.6338 91.9074C69.6656 91.9393 69.6839 91.9823 69.6847 92.0273C69.6855 92.0724 69.6688 92.116 69.638 92.149L69.2113 92.5757C69.1952 92.592 69.176 92.6048 69.1549 92.6136C69.1338 92.6223 69.1112 92.6268 69.0884 92.6268Z" fill="black"/>
<path d="M83.615 25.3386C83.4563 25.3386 83.3011 25.2916 83.1691 25.2034C83.0372 25.1152 82.9343 24.9899 82.8736 24.8432C82.8128 24.6966 82.797 24.5353 82.8279 24.3796C82.8589 24.2239 82.9353 24.0809 83.0475 23.9687C83.1598 23.8565 83.3028 23.78 83.4584 23.7491C83.6141 23.7181 83.7754 23.734 83.9221 23.7947C84.0687 23.8555 84.1941 23.9583 84.2822 24.0903C84.3704 24.2223 84.4175 24.3774 84.4175 24.5361C84.4175 24.749 84.3329 24.9531 84.1824 25.1036C84.032 25.2541 83.8278 25.3386 83.615 25.3386ZM83.615 24.0815C83.5251 24.0815 83.4372 24.1082 83.3624 24.1582C83.2877 24.2081 83.2294 24.2791 83.195 24.3622C83.1606 24.4452 83.1516 24.5366 83.1691 24.6248C83.1867 24.713 83.23 24.794 83.2935 24.8576C83.3571 24.9212 83.4381 24.9645 83.5263 24.982C83.6145 24.9995 83.7059 24.9905 83.789 24.9561C83.872 24.9217 83.943 24.8635 83.993 24.7887C84.0429 24.7139 84.0696 24.6261 84.0696 24.5361C84.0693 24.4157 84.0213 24.3002 83.9361 24.215C83.8509 24.1298 83.7355 24.0819 83.615 24.0815Z" fill="black"/>
<path d="M82.6804 20.8712C82.4654 20.8712 82.2553 20.8075 82.0765 20.688C81.8978 20.5686 81.7586 20.3988 81.6764 20.2002C81.5941 20.0016 81.5727 19.783 81.6147 19.5722C81.6567 19.3614 81.7603 19.1678 81.9124 19.0159C82.0645 18.8639 82.2582 18.7605 82.4691 18.7187C82.6799 18.6769 82.8985 18.6986 83.097 18.781C83.2955 18.8635 83.4652 19.0029 83.5844 19.1818C83.7037 19.3606 83.7672 19.5708 83.767 19.7858C83.7667 20.0738 83.6521 20.3499 83.4483 20.5534C83.2446 20.7569 82.9684 20.8712 82.6804 20.8712ZM82.6804 19.0471C82.5343 19.0471 82.3914 19.0904 82.27 19.1716C82.1485 19.2527 82.0538 19.3681 81.9979 19.5031C81.942 19.6381 81.9273 19.7866 81.9559 19.9299C81.9844 20.0732 82.0547 20.2048 82.158 20.3081C82.2613 20.4114 82.393 20.4818 82.5363 20.5103C82.6796 20.5388 82.8281 20.5242 82.9631 20.4683C83.0981 20.4124 83.2134 20.3177 83.2946 20.1962C83.3758 20.0747 83.4191 19.9319 83.4191 19.7858C83.4191 19.5899 83.3412 19.402 83.2027 19.2634C83.0642 19.1249 82.8763 19.0471 82.6804 19.0471Z" fill="black"/>
<path d="M11.4421 17.5339C11.154 17.5336 10.8778 17.419 10.6741 17.2153C10.4704 17.0116 10.3558 16.7354 10.3555 16.4473C10.3555 16.4011 10.3738 16.3569 10.4064 16.3243C10.4391 16.2917 10.4833 16.2733 10.5294 16.2733C10.5756 16.2733 10.6198 16.2917 10.6524 16.3243C10.6851 16.3569 10.7034 16.4011 10.7034 16.4473C10.7031 16.5934 10.7463 16.7364 10.8273 16.858C10.9084 16.9796 11.0236 17.0745 11.1586 17.1306C11.2936 17.1867 11.4421 17.2015 11.5855 17.1731C11.7289 17.1447 11.8606 17.0745 11.964 16.9712C12.0675 16.8679 12.1379 16.7363 12.1665 16.593C12.1951 16.4497 12.1806 16.3011 12.1247 16.166C12.0688 16.031 11.9741 15.9155 11.8526 15.8343C11.7311 15.7531 11.5883 15.7097 11.4421 15.7097C11.396 15.7097 11.3517 15.6914 11.3191 15.6588C11.2865 15.6262 11.2682 15.5819 11.2682 15.5358C11.2682 15.4896 11.2865 15.4454 11.3191 15.4128C11.3517 15.3801 11.396 15.3618 11.4421 15.3618C11.724 15.371 11.9913 15.4895 12.1874 15.6922C12.3836 15.8948 12.4932 16.1658 12.4932 16.4479C12.4932 16.7299 12.3836 17.0009 12.1874 17.2036C11.9913 17.4062 11.724 17.5247 11.4421 17.5339Z" fill="black"/>
<path d="M90.5046 79.0861C90.2896 79.0861 90.0795 79.0223 89.9008 78.9029C89.722 78.7834 89.5828 78.6136 89.5006 78.415C89.4184 78.2164 89.3969 77.9979 89.4389 77.787C89.481 77.5762 89.5846 77.3826 89.7366 77.2307C89.8887 77.0788 90.0825 76.9754 90.2933 76.9336C90.5042 76.8918 90.7227 76.9135 90.9212 76.9959C91.1197 77.0783 91.2894 77.2178 91.4086 77.3966C91.5279 77.5755 91.5914 77.7857 91.5912 78.0006C91.5909 78.2886 91.4763 78.5647 91.2725 78.7682C91.0688 78.9718 90.7926 79.0861 90.5046 79.0861ZM90.5046 77.2619C90.3585 77.2619 90.2157 77.3052 90.0942 77.3864C89.9727 77.4676 89.878 77.5829 89.8221 77.7179C89.7662 77.8529 89.7516 78.0014 89.7801 78.1447C89.8086 78.288 89.8789 78.4197 89.9822 78.523C90.0855 78.6263 90.2172 78.6966 90.3605 78.7251C90.5038 78.7537 90.6523 78.739 90.7873 78.6831C90.9223 78.6272 91.0376 78.5325 91.1188 78.411C91.2 78.2896 91.2433 78.1467 91.2433 78.0006C91.2433 77.8047 91.1655 77.6168 91.0269 77.4783C90.8884 77.3397 90.7005 77.2619 90.5046 77.2619Z" fill="black"/>
<path d="M10.3449 29.1702C10.3159 29.1701 10.2874 29.1629 10.2619 29.1491C10.2364 29.1354 10.2147 29.1155 10.1988 29.0913C10.193 29.082 10.0573 28.8721 9.83578 28.4871C9.82436 28.4673 9.81696 28.4454 9.81398 28.4228C9.811 28.4001 9.81253 28.3771 9.81845 28.355C9.82438 28.3329 9.83457 28.3123 9.84849 28.2941C9.86241 28.276 9.87977 28.2608 9.89957 28.2494C9.91937 28.2379 9.94123 28.2305 9.96389 28.2276C9.98656 28.2246 10.0096 28.2261 10.0316 28.232C10.0537 28.2379 10.0744 28.2482 10.0925 28.2621C10.1107 28.276 10.1259 28.2934 10.1373 28.3131C10.353 28.6889 10.4852 28.893 10.491 28.9011C10.516 28.9399 10.5247 28.987 10.5151 29.0322C10.5056 29.0774 10.4786 29.117 10.44 29.1423C10.4116 29.1604 10.3786 29.1701 10.3449 29.1702Z" fill="#99B9FF"/>
<path d="M9.3197 27.3444C9.2876 27.3442 9.25615 27.3352 9.22877 27.3184C9.20138 27.3017 9.17908 27.2778 9.1643 27.2493C8.95439 26.8329 8.75029 26.4062 8.55895 25.9794C8.54958 25.9585 8.54444 25.936 8.54377 25.9132C8.5431 25.8903 8.54694 25.8676 8.55507 25.8462C8.5632 25.8248 8.57545 25.8052 8.59114 25.7886C8.60683 25.772 8.62565 25.7586 8.64652 25.7492C8.66738 25.7399 8.68988 25.7347 8.71274 25.734C8.7356 25.7333 8.75838 25.7372 8.77976 25.7453C8.80113 25.7535 8.82068 25.7657 8.83732 25.7814C8.85395 25.7971 8.86733 25.8159 8.8767 25.8368C9.06573 26.2589 9.26753 26.681 9.47511 27.0916C9.48861 27.1181 9.49506 27.1477 9.49386 27.1774C9.49265 27.2072 9.48386 27.2361 9.46826 27.2615C9.45267 27.2869 9.43079 27.3078 9.40478 27.3223C9.37878 27.3368 9.34949 27.3444 9.3197 27.3444ZM8.17744 24.7931C8.14247 24.793 8.1083 24.7825 8.07936 24.7628C8.05043 24.7432 8.02803 24.7154 8.01506 24.6829C7.84343 24.2422 7.68341 23.7969 7.53729 23.3597C7.53006 23.338 7.52715 23.3151 7.52877 23.2923C7.53039 23.2694 7.53649 23.2472 7.54672 23.2267C7.55695 23.2062 7.57111 23.188 7.58839 23.173C7.60567 23.158 7.62575 23.1466 7.64745 23.1394C7.66915 23.1321 7.69208 23.1292 7.71489 23.1309C7.73771 23.1325 7.75998 23.1386 7.78044 23.1488C7.8009 23.159 7.81913 23.1732 7.83412 23.1905C7.84911 23.2078 7.86055 23.2278 7.86778 23.2495C8.01158 23.6821 8.17047 24.1216 8.33978 24.5565C8.35647 24.5994 8.35545 24.6472 8.33698 24.6893C8.3185 24.7315 8.28405 24.7646 8.2412 24.7815C8.22076 24.7888 8.19916 24.7924 8.17744 24.7919V24.7931ZM7.29955 22.1397C7.26146 22.1396 7.22443 22.1271 7.19408 22.1041C7.16374 22.0811 7.14174 22.0488 7.1314 22.0121C7.00731 21.5483 6.89946 21.0902 6.80552 20.6414C6.7963 20.5962 6.80539 20.5492 6.83083 20.5107C6.85628 20.4722 6.89598 20.4454 6.9412 20.4361C6.98641 20.4269 7.03345 20.436 7.07194 20.4615C7.11044 20.4869 7.13724 20.5266 7.14646 20.5718C7.23692 21.0137 7.34477 21.4683 7.4677 21.9205C7.47366 21.9426 7.47521 21.9657 7.47226 21.9883C7.4693 22.011 7.4619 22.0329 7.45048 22.0527C7.43906 22.0725 7.42386 22.0899 7.40572 22.1038C7.38758 22.1178 7.36686 22.128 7.34476 22.1339C7.33007 22.1381 7.31483 22.1401 7.29955 22.1397ZM6.7429 19.4017C6.70091 19.4015 6.6604 19.3862 6.62885 19.3584C6.59731 19.3307 6.57686 19.2926 6.57127 19.2509C6.50748 18.7766 6.4634 18.3046 6.43905 17.8466C6.43783 17.8237 6.44114 17.8009 6.44876 17.7793C6.45637 17.7577 6.46815 17.7379 6.48344 17.7208C6.49873 17.7038 6.51725 17.69 6.53788 17.6801C6.55852 17.6703 6.5809 17.6646 6.60374 17.6633C6.62658 17.6621 6.64944 17.6654 6.67101 17.673C6.69258 17.6806 6.71243 17.6924 6.72945 17.7077C6.74646 17.723 6.76029 17.7415 6.77016 17.7622C6.78003 17.7828 6.78573 17.8052 6.78695 17.828C6.81014 18.2768 6.85422 18.7407 6.91569 19.2046C6.91879 19.2273 6.91737 19.2503 6.91153 19.2725C6.90568 19.2946 6.8955 19.3154 6.8816 19.3336C6.8677 19.3518 6.85035 19.3671 6.83052 19.3786C6.8107 19.3901 6.7888 19.3975 6.76608 19.4005L6.7429 19.4017ZM6.5991 16.6185H6.59794C6.57509 16.6177 6.55262 16.6125 6.5318 16.603C6.51098 16.5936 6.49221 16.5801 6.47659 16.5634C6.46097 16.5467 6.44881 16.5271 6.44077 16.5057C6.43274 16.4843 6.42901 16.4616 6.42979 16.4387C6.44602 15.9609 6.48661 15.4878 6.54576 15.0297C6.55191 14.9836 6.57614 14.9418 6.61311 14.9135C6.65008 14.8852 6.69676 14.8728 6.7429 14.8789C6.78903 14.8851 6.83085 14.9093 6.85912 14.9463C6.88739 14.9833 6.89981 15.03 6.89366 15.0761C6.83336 15.5226 6.79509 15.9853 6.77769 16.4503C6.77442 16.4953 6.75391 16.5373 6.72042 16.5676C6.68693 16.5978 6.64304 16.614 6.59794 16.6127L6.5991 16.6185ZM21.1798 15.8658C20.8207 15.8655 20.4624 15.8357 20.1082 15.7765C20.0854 15.7728 20.0635 15.7646 20.0438 15.7524C20.0241 15.7402 20.007 15.7243 19.9935 15.7055C19.98 15.6867 19.9703 15.6654 19.965 15.6429C19.9598 15.6204 19.959 15.597 19.9627 15.5742C19.9664 15.5513 19.9746 15.5294 19.9868 15.5098C19.999 15.4901 20.0149 15.473 20.0337 15.4595C20.0525 15.446 20.0738 15.4363 20.0963 15.431C20.1188 15.4257 20.1422 15.4249 20.165 15.4286C20.6124 15.5033 21.0666 15.5285 21.5195 15.504C21.5654 15.5018 21.6104 15.5177 21.6446 15.5483C21.6789 15.5789 21.6998 15.6217 21.7028 15.6675C21.7042 15.6903 21.7011 15.7132 21.6936 15.7347C21.6861 15.7563 21.6744 15.7762 21.6592 15.7932C21.644 15.8103 21.6256 15.8241 21.605 15.834C21.5844 15.8439 21.5621 15.8496 21.5393 15.8508C21.421 15.8566 21.3004 15.86 21.1798 15.86V15.8658ZM22.9031 15.6188C22.8656 15.6186 22.8293 15.6062 22.7994 15.5837C22.7695 15.5611 22.7477 15.5295 22.7372 15.4936C22.7306 15.4718 22.7284 15.4489 22.7306 15.4263C22.7329 15.4036 22.7396 15.3817 22.7504 15.3616C22.7612 15.3416 22.7758 15.3239 22.7934 15.3095C22.8111 15.2951 22.8314 15.2844 22.8532 15.2779C23.2866 15.1482 23.7032 14.9676 24.0941 14.7398C24.1338 14.7185 24.1802 14.7135 24.2235 14.7257C24.2669 14.738 24.3038 14.7666 24.3265 14.8055C24.3491 14.8444 24.3559 14.8906 24.3452 14.9344C24.3345 14.9781 24.3072 15.0161 24.2691 15.0401C23.8547 15.2829 23.4124 15.4745 22.9518 15.6107C22.9358 15.6141 22.9193 15.6149 22.9031 15.613V15.6188ZM18.7931 15.3996C18.7709 15.3998 18.7488 15.3955 18.7282 15.3869C18.2834 15.208 17.8604 14.9788 17.4676 14.7038C17.4473 14.6915 17.4297 14.6751 17.416 14.6556C17.4022 14.6362 17.3926 14.6141 17.3877 14.5908C17.3828 14.5675 17.3828 14.5435 17.3876 14.5201C17.3924 14.4968 17.4019 14.4747 17.4156 14.4552C17.4293 14.4357 17.4468 14.4193 17.4671 14.4068C17.4874 14.3944 17.5101 14.3863 17.5337 14.3829C17.5572 14.3796 17.5812 14.3812 17.6042 14.3875C17.6271 14.3938 17.6485 14.4048 17.6671 14.4197C18.0389 14.6788 18.4389 14.8951 18.8592 15.0645C18.8809 15.0732 18.9006 15.0862 18.9171 15.1027C18.9337 15.1192 18.9468 15.1388 18.9557 15.1604C18.9645 15.182 18.969 15.2052 18.9688 15.2286C18.9685 15.2519 18.9636 15.275 18.9543 15.2964C18.9399 15.3266 18.9169 15.3519 18.8883 15.3692C18.8597 15.3865 18.8266 15.3951 18.7931 15.3938V15.3996ZM25.2688 14.1831C25.226 14.1836 25.1845 14.1679 25.1528 14.1391C25.1357 14.1239 25.1218 14.1054 25.1118 14.0847C25.1019 14.0641 25.0962 14.0417 25.095 14.0188C25.0938 13.9959 25.0972 13.973 25.1049 13.9515C25.1127 13.9299 25.1246 13.9101 25.1401 13.8932C25.4401 13.5562 25.6951 13.1815 25.8985 12.7788C25.9082 12.7573 25.9221 12.738 25.9394 12.722C25.9568 12.7061 25.9772 12.6938 25.9994 12.686C26.0216 12.6781 26.0452 12.6749 26.0687 12.6765C26.0922 12.678 26.1151 12.6843 26.1361 12.695C26.1571 12.7057 26.1758 12.7206 26.1908 12.7387C26.2059 12.7568 26.2171 12.7777 26.2239 12.8003C26.2306 12.8229 26.2327 12.8466 26.23 12.87C26.2273 12.8934 26.2199 12.916 26.2082 12.9365C25.9908 13.3669 25.7178 13.7669 25.3964 14.1263C25.3803 14.1442 25.3607 14.1586 25.3387 14.1684C25.3167 14.1782 25.2929 14.1832 25.2688 14.1831ZM6.97831 13.8491C6.96445 13.8509 6.95042 13.8509 6.93655 13.8491C6.91429 13.8437 6.89333 13.8339 6.87486 13.8204C6.85639 13.8068 6.84076 13.7897 6.82891 13.7701C6.81706 13.7505 6.8092 13.7288 6.80578 13.7061C6.80236 13.6834 6.80346 13.6603 6.80901 13.6381C6.92185 13.1793 7.06123 12.7274 7.22647 12.2847C7.23214 12.261 7.24276 12.2387 7.25762 12.2193C7.27247 12.1999 7.29122 12.1839 7.31269 12.1722C7.33415 12.1606 7.35785 12.1536 7.38219 12.1517C7.40654 12.1498 7.43099 12.153 7.45399 12.1612C7.477 12.1694 7.49804 12.1824 7.51572 12.1992C7.53339 12.2161 7.54732 12.2364 7.5566 12.259C7.56588 12.2816 7.5703 12.3059 7.56957 12.3303C7.56883 12.3547 7.56296 12.3787 7.55235 12.4007C7.39203 12.8309 7.25651 13.27 7.14646 13.7158C7.13744 13.7543 7.11547 13.7886 7.08423 13.8128C7.05299 13.8371 7.01438 13.8499 6.97483 13.8491H6.97831ZM16.5329 13.7993C16.508 13.7996 16.4833 13.7943 16.4606 13.7839C16.4379 13.7735 16.4179 13.7581 16.4019 13.739C16.0848 13.3762 15.8173 12.973 15.6063 12.5399C15.5862 12.4983 15.5834 12.4505 15.5985 12.4069C15.6136 12.3633 15.6454 12.3275 15.6869 12.3073C15.7285 12.2872 15.7763 12.2844 15.8199 12.2995C15.8635 12.3146 15.8993 12.3464 15.9194 12.3879C16.1172 12.7936 16.3675 13.1714 16.664 13.5117C16.679 13.5288 16.6904 13.5488 16.6977 13.5704C16.705 13.5921 16.7078 13.6149 16.7062 13.6376C16.7046 13.6604 16.6985 13.6826 16.6883 13.703C16.678 13.7233 16.6638 13.7415 16.6466 13.7564C16.6144 13.7851 16.5725 13.8004 16.5294 13.7993H16.5329ZM47.1868 12.1073C47.1604 12.1073 47.1343 12.1012 47.1105 12.0896C47.0868 12.0779 47.0661 12.061 47.05 12.04C46.7647 11.6724 46.4701 11.3083 46.1755 10.9581C46.1459 10.9227 46.1315 10.877 46.1355 10.831C46.1395 10.785 46.1616 10.7425 46.197 10.7128C46.2324 10.6831 46.2781 10.6687 46.3241 10.6727C46.3701 10.6767 46.4126 10.6989 46.4423 10.7342C46.7403 11.0879 47.0372 11.4556 47.3248 11.8267C47.3388 11.8447 47.3492 11.8653 47.3552 11.8873C47.3612 11.9093 47.3628 11.9323 47.3599 11.955C47.357 11.9776 47.3496 11.9994 47.3382 12.0192C47.3268 12.039 47.3116 12.0563 47.2935 12.0702C47.263 12.094 47.2255 12.1071 47.1868 12.1073ZM26.5445 11.7269C26.5298 11.7286 26.515 11.7286 26.5004 11.7269C26.4558 11.7152 26.4177 11.6863 26.3944 11.6465C26.3712 11.6067 26.3647 11.5593 26.3763 11.5147C26.4903 11.0748 26.559 10.6245 26.5816 10.1706C26.5823 10.1477 26.5876 10.1251 26.5972 10.1043C26.6068 10.0834 26.6206 10.0647 26.6376 10.0492C26.6545 10.0338 26.6744 10.0219 26.6961 10.0142C26.7178 10.0066 26.7407 10.0034 26.7636 10.0048C26.8096 10.0072 26.8527 10.0277 26.8836 10.0618C26.9144 10.096 26.9305 10.1409 26.9283 10.1869C26.9053 10.6646 26.833 11.1388 26.7126 11.6017C26.702 11.638 26.6799 11.6699 26.6495 11.6925C26.6192 11.7151 26.5823 11.7272 26.5445 11.7269ZM15.328 11.3141C15.2873 11.314 15.2479 11.2997 15.2165 11.2736C15.1852 11.2476 15.1639 11.2115 15.1564 11.1714C15.0953 10.8351 15.0647 10.4939 15.0648 10.1521C15.0648 10.0164 15.0706 9.87607 15.0798 9.73691C15.0831 9.69095 15.1045 9.64816 15.1393 9.61794C15.1741 9.58772 15.2194 9.57253 15.2654 9.57572C15.2882 9.57719 15.3105 9.58317 15.331 9.59332C15.3515 9.60346 15.3697 9.61757 15.3847 9.63483C15.3997 9.65209 15.4112 9.67215 15.4183 9.69386C15.4255 9.71556 15.4283 9.73847 15.4266 9.76127C15.4173 9.89231 15.4127 10.0234 15.4127 10.1521C15.4122 10.473 15.4413 10.7933 15.4997 11.1088C15.5078 11.1543 15.4976 11.2012 15.4713 11.2392C15.445 11.2772 15.4048 11.3033 15.3593 11.3118C15.3486 11.3138 15.3377 11.3145 15.3269 11.3141H15.328ZM7.9536 11.2387C7.9257 11.2389 7.89819 11.2321 7.87359 11.219C7.83332 11.1977 7.80301 11.1615 7.78913 11.1182C7.77525 11.0748 7.77894 11.0277 7.79938 10.9871C8.01715 10.5676 8.25956 10.1614 8.52534 9.77055C8.55133 9.73241 8.5914 9.70616 8.63675 9.69757C8.68209 9.68898 8.72899 9.69875 8.76713 9.72474C8.80527 9.75073 8.8315 9.7908 8.84009 9.83615C8.84868 9.88149 8.83893 9.92839 8.81294 9.96653C8.55455 10.3456 8.3191 10.7398 8.10784 11.1471C8.09279 11.1751 8.07035 11.1985 8.04295 11.2146C8.01555 11.2308 7.98424 11.2391 7.95244 11.2387H7.9536ZM45.3835 9.97117C45.3594 9.97103 45.3357 9.9659 45.3137 9.95612C45.2918 9.94634 45.2721 9.93211 45.2559 9.91434C44.9405 9.57224 44.6169 9.23477 44.2934 8.91354C44.2762 8.8977 44.2624 8.87855 44.2528 8.85726C44.2432 8.83597 44.238 8.81296 44.2375 8.78961C44.237 8.76626 44.2412 8.74305 44.2498 8.72136C44.2585 8.69966 44.2714 8.67993 44.2878 8.66333C44.3043 8.64674 44.3239 8.63363 44.3455 8.62478C44.3671 8.61592 44.3903 8.61152 44.4136 8.61181C44.437 8.61211 44.46 8.61711 44.4814 8.62651C44.5028 8.63591 44.5221 8.64952 44.5381 8.66653C44.8663 8.9924 45.1933 9.33334 45.5122 9.67893C45.5277 9.69575 45.5397 9.71546 45.5475 9.73693C45.5554 9.75839 45.5589 9.78119 45.5579 9.80402C45.557 9.82685 45.5515 9.84927 45.5419 9.86999C45.5322 9.89071 45.5186 9.90933 45.5018 9.92478C45.4694 9.95509 45.4266 9.97171 45.3823 9.97117H45.3835ZM26.6744 8.95413C26.6332 8.95415 26.5934 8.93961 26.562 8.91307C26.5306 8.88653 26.5096 8.84972 26.5027 8.80917C26.428 8.36311 26.2996 7.92775 26.12 7.51264C26.1109 7.4917 26.106 7.46917 26.1055 7.44633C26.1051 7.42348 26.1092 7.40078 26.1175 7.37951C26.1259 7.35824 26.1383 7.33883 26.1542 7.32237C26.17 7.30592 26.1889 7.29275 26.2099 7.28361C26.2308 7.27447 26.2534 7.26955 26.2762 7.26912C26.299 7.26869 26.3217 7.27276 26.343 7.28111C26.3643 7.28946 26.3837 7.30191 26.4002 7.31776C26.4166 7.33361 26.4298 7.35254 26.4389 7.37348C26.6301 7.81447 26.7668 8.27712 26.846 8.75118C26.8531 8.79662 26.8421 8.84304 26.8155 8.88052C26.7888 8.918 26.7486 8.94359 26.7033 8.95181L26.6744 8.95413ZM9.52149 8.93325C9.48813 8.93335 9.45543 8.92385 9.42732 8.90589C9.39921 8.88793 9.37687 8.86227 9.36294 8.83196C9.349 8.80164 9.34408 8.76796 9.34875 8.73493C9.35343 8.7019 9.3675 8.67091 9.3893 8.64566C9.69879 8.28904 10.0271 7.94916 10.3727 7.62745C10.3885 7.60796 10.4082 7.59211 10.4307 7.58097C10.4531 7.56983 10.4777 7.56367 10.5027 7.56291C10.5278 7.56215 10.5527 7.56681 10.5758 7.57658C10.5989 7.58634 10.6195 7.60098 10.6364 7.61948C10.6533 7.63798 10.6661 7.65992 10.6737 7.68378C10.6813 7.70765 10.6837 7.73288 10.6807 7.75776C10.6777 7.78263 10.6693 7.80656 10.6562 7.8279C10.643 7.84925 10.6255 7.8675 10.6046 7.88142C10.2685 8.19482 9.9491 8.52579 9.6479 8.87295C9.63228 8.89164 9.61277 8.90672 9.59074 8.91713C9.56871 8.92754 9.54469 8.93304 9.52033 8.93325H9.52149ZM15.502 8.55056C15.4846 8.5507 15.4674 8.54796 15.451 8.54244C15.4291 8.53594 15.4088 8.52519 15.3912 8.51082C15.3735 8.49644 15.3589 8.47873 15.3482 8.45868C15.3374 8.43864 15.3307 8.41667 15.3284 8.39403C15.3261 8.37139 15.3284 8.34852 15.335 8.32674C15.4744 7.86877 15.6617 7.42679 15.8939 7.00818C15.9045 6.98738 15.9191 6.9689 15.9369 6.95385C15.9547 6.9388 15.9754 6.92748 15.9976 6.92058C16.0199 6.91367 16.0434 6.91131 16.0666 6.91364C16.0898 6.91597 16.1122 6.92295 16.1327 6.93414C16.1531 6.94534 16.1711 6.96054 16.1856 6.97883C16.2001 6.99713 16.2107 7.01814 16.2169 7.04063C16.2231 7.06311 16.2247 7.08661 16.2216 7.10973C16.2185 7.13284 16.2108 7.1551 16.1989 7.17518C15.9786 7.57252 15.8005 7.99192 15.6678 8.42647C15.6572 8.46249 15.6352 8.49408 15.6051 8.51647C15.575 8.53885 15.5383 8.55082 15.5008 8.55056H15.502ZM43.4016 8.00319C43.3587 8.00283 43.3174 7.98673 43.2856 7.95796C42.9377 7.64601 42.5898 7.34217 42.2326 7.05341C42.2131 7.03968 42.1966 7.02207 42.1841 7.00168C42.1717 6.98129 42.1636 6.95856 42.1603 6.9349C42.1571 6.91124 42.1587 6.88716 42.1651 6.86415C42.1716 6.84115 42.1827 6.81973 42.1978 6.80121C42.2128 6.78269 42.2316 6.76748 42.2528 6.75652C42.274 6.74556 42.2973 6.73909 42.3211 6.73751C42.3449 6.73593 42.3689 6.73927 42.3914 6.74733C42.4138 6.75539 42.4344 6.768 42.4518 6.78436C42.8101 7.07544 43.1697 7.38392 43.5187 7.69935C43.5359 7.71456 43.5498 7.73303 43.5597 7.75367C43.5696 7.77432 43.5754 7.79673 43.5765 7.81961C43.5777 7.84249 43.5744 7.86537 43.5666 7.88694C43.5589 7.9085 43.5469 7.92831 43.5315 7.94521C43.5151 7.96374 43.4949 7.97852 43.4723 7.98853C43.4497 7.99854 43.4252 8.00354 43.4004 8.00319H43.4016ZM11.5579 7.02674C11.5215 7.0269 11.4859 7.01564 11.4563 6.99453C11.4266 6.97342 11.4043 6.94353 11.3925 6.90908C11.3807 6.87463 11.38 6.83734 11.3906 6.80248C11.4011 6.76763 11.4223 6.73695 11.4512 6.71478C11.8154 6.4353 12.205 6.16394 12.6109 5.90301C12.6498 5.87809 12.697 5.86966 12.7421 5.87955C12.7873 5.88945 12.8266 5.91687 12.8515 5.95577C12.8764 5.99468 12.8849 6.04189 12.875 6.08702C12.8651 6.13215 12.8377 6.17149 12.7987 6.19641C12.4033 6.44922 12.0229 6.71594 11.6669 6.98847C11.6358 7.01378 11.5968 7.02733 11.5567 7.02674H11.5579ZM25.5541 6.42718C25.5284 6.42756 25.5029 6.42212 25.4797 6.41128C25.4564 6.40043 25.4358 6.38446 25.4196 6.36456C25.2264 6.12862 25.0104 5.91226 24.7748 5.71862C24.6658 5.62932 24.5486 5.54003 24.4269 5.45421C24.4065 5.44184 24.389 5.42543 24.3752 5.40599C24.3615 5.38655 24.3518 5.3645 24.347 5.34119C24.3421 5.31789 24.342 5.29383 24.3468 5.27051C24.3516 5.24719 24.3612 5.2251 24.3749 5.20561C24.3885 5.18612 24.4061 5.16965 24.4264 5.15722C24.4467 5.14478 24.4693 5.13665 24.4929 5.13332C24.5165 5.12999 24.5405 5.13153 24.5634 5.13786C24.5864 5.14418 24.6078 5.15515 24.6263 5.17009C24.7562 5.26054 24.8803 5.35564 24.9963 5.45073C25.2499 5.65987 25.4829 5.89288 25.6921 6.14654C25.7129 6.17202 25.7261 6.20289 25.7301 6.23557C25.7341 6.26825 25.7288 6.30139 25.7147 6.33115C25.7006 6.3609 25.6784 6.38605 25.6505 6.40367C25.6227 6.42128 25.5905 6.43064 25.5576 6.43066L25.5541 6.42718ZM41.2353 6.23931C41.1986 6.23915 41.1629 6.22738 41.1333 6.20568C40.7575 5.932 40.3737 5.66759 39.9898 5.41826C39.9706 5.40585 39.9541 5.38978 39.9411 5.37097C39.9281 5.35216 39.919 5.33098 39.9142 5.30863C39.9094 5.28629 39.909 5.26322 39.9132 5.24074C39.9173 5.21826 39.9258 5.19682 39.9382 5.17763C39.9506 5.15844 39.9667 5.14188 39.9855 5.1289C40.0043 5.11592 40.0255 5.10678 40.0478 5.10199C40.0702 5.09719 40.0933 5.09685 40.1157 5.10097C40.1382 5.1051 40.1597 5.11361 40.1788 5.12602C40.5685 5.37883 40.9581 5.64672 41.3385 5.92504C41.3681 5.94668 41.39 5.97708 41.4013 6.01192C41.4125 6.04677 41.4125 6.08427 41.4011 6.11909C41.3898 6.15391 41.3678 6.18428 41.3383 6.20586C41.3087 6.22745 41.2731 6.23916 41.2365 6.23931H41.2353ZM16.8228 6.10595C16.79 6.10598 16.7579 6.09672 16.7301 6.07924C16.7023 6.06177 16.6801 6.0368 16.6659 6.00721C16.6517 5.97762 16.6462 5.94462 16.6499 5.91203C16.6537 5.87943 16.6666 5.84856 16.6872 5.82299C16.9855 5.45284 17.3124 5.10658 17.6648 4.78739C17.6812 4.76969 17.7011 4.75561 17.7233 4.74603C17.7455 4.73646 17.7694 4.73161 17.7936 4.73179C17.8177 4.73196 17.8416 4.73717 17.8636 4.74707C17.8856 4.75698 17.9053 4.77136 17.9215 4.7893C17.9377 4.80724 17.9499 4.82836 17.9575 4.8513C17.965 4.87423 17.9678 4.8985 17.9654 4.92254C17.9631 4.94657 17.9558 4.96986 17.9439 4.99092C17.9321 5.01198 17.916 5.03034 17.8967 5.04484C17.558 5.35177 17.2439 5.68485 16.9574 6.04101C16.9412 6.06142 16.9205 6.07788 16.897 6.08914C16.8735 6.10039 16.8477 6.10614 16.8217 6.10595H16.8228ZM13.9039 5.51915C13.8652 5.51909 13.8277 5.50612 13.7972 5.48231C13.7667 5.4585 13.745 5.4252 13.7355 5.38767C13.7261 5.35015 13.7294 5.31054 13.745 5.27513C13.7606 5.23971 13.7875 5.2105 13.8216 5.19212L14.0384 5.07615C14.3863 4.89292 14.7435 4.72825 15.0949 4.57749C15.1161 4.56753 15.1391 4.56194 15.1625 4.56107C15.1859 4.56019 15.2092 4.56405 15.2311 4.57241C15.2529 4.58077 15.2729 4.59345 15.2897 4.60971C15.3066 4.62596 15.32 4.64545 15.3291 4.66701C15.3383 4.68856 15.3429 4.71174 15.3429 4.73515C15.3429 4.75856 15.3381 4.78172 15.3289 4.80325C15.3197 4.82478 15.3063 4.84423 15.2894 4.86043C15.2725 4.87664 15.2525 4.88927 15.2306 4.89756C14.8827 5.04252 14.5406 5.20604 14.1997 5.38463L13.9863 5.5006C13.9608 5.51345 13.9325 5.51982 13.9039 5.51915ZM23.3101 4.79783C23.2853 4.79758 23.2607 4.79205 23.2382 4.7816C22.8217 4.59305 22.3909 4.43794 21.9498 4.31772C21.9267 4.31268 21.905 4.303 21.8858 4.28927C21.8666 4.27554 21.8504 4.25805 21.8382 4.23786C21.8259 4.21768 21.818 4.19521 21.8147 4.17184C21.8114 4.14847 21.813 4.12468 21.8192 4.10192C21.8254 4.07916 21.8362 4.0579 21.8509 4.03944C21.8656 4.02098 21.8839 4.0057 21.9047 3.99454C21.9255 3.98337 21.9483 3.97656 21.9718 3.9745C21.9953 3.97244 22.019 3.97519 22.0414 3.98257C22.5004 4.10686 22.9487 4.2678 23.382 4.46384C23.4185 4.4801 23.4483 4.50842 23.4663 4.54404C23.4844 4.57966 23.4896 4.62042 23.4812 4.65945C23.4728 4.69849 23.4512 4.73344 23.42 4.75843C23.3888 4.78341 23.3501 4.79692 23.3101 4.79667V4.79783ZM38.8893 4.72013C38.8587 4.72039 38.8287 4.71238 38.8023 4.69694C38.3999 4.465 37.9905 4.2493 37.5777 4.04636C37.5572 4.03635 37.539 4.0224 37.5239 4.00531C37.5089 3.98822 37.4974 3.96833 37.49 3.94678C37.4827 3.92523 37.4797 3.90244 37.4812 3.87972C37.4827 3.85701 37.4887 3.83482 37.4988 3.81442C37.5193 3.77336 37.555 3.74197 37.5984 3.727C37.6418 3.71204 37.6893 3.71469 37.7307 3.7344C38.1471 3.93967 38.5657 4.16232 38.9739 4.39426C39.0139 4.41733 39.0431 4.45525 39.0553 4.49977C39.0674 4.54429 39.0616 4.59181 39.0389 4.632C39.024 4.65841 39.0025 4.68046 38.9764 4.69593C38.9504 4.7114 38.9207 4.71974 38.8904 4.72013H38.8893ZM16.4784 4.44297C16.4408 4.44278 16.4043 4.4305 16.3742 4.40795C16.3442 4.38539 16.3221 4.35376 16.3114 4.31772C16.3048 4.29595 16.3026 4.27308 16.3049 4.25044C16.3071 4.22779 16.3138 4.20582 16.3246 4.18578C16.3354 4.16574 16.35 4.14802 16.3677 4.13365C16.3853 4.11927 16.4056 4.10853 16.4274 4.10202C16.8814 3.96739 17.3435 3.86165 17.8109 3.78543C17.857 3.77805 17.9042 3.78929 17.9421 3.8167C17.9799 3.8441 18.0053 3.88541 18.0127 3.93155C18.0201 3.97768 18.0088 4.02486 17.9814 4.0627C17.954 4.10055 17.9127 4.12595 17.8666 4.13333C17.4137 4.2073 16.966 4.30955 16.526 4.43949C16.5108 4.44318 16.4951 4.44435 16.4796 4.44297H16.4784ZM18.8801 4.23075C18.8515 4.23099 18.8233 4.22412 18.798 4.21076C18.7727 4.1974 18.7511 4.17797 18.7352 4.15421C18.7094 4.11573 18.7 4.06863 18.7089 4.02321C18.7178 3.97779 18.7444 3.93775 18.7827 3.91183C18.8871 3.84225 18.9949 3.77267 19.1028 3.70541C19.1238 3.68271 19.1507 3.66626 19.1805 3.65786C19.4484 3.49551 19.7255 3.34243 20.0108 3.20095C20.0313 3.19082 20.0536 3.18483 20.0764 3.18331C20.0992 3.18179 20.1221 3.18478 20.1437 3.1921C20.1653 3.19942 20.1853 3.21094 20.2025 3.22599C20.2197 3.24104 20.2338 3.25932 20.2439 3.27981C20.254 3.30029 20.26 3.32257 20.2615 3.34537C20.2631 3.36817 20.2601 3.39104 20.2528 3.41269C20.2454 3.43433 20.2339 3.45432 20.2189 3.47152C20.2038 3.48871 20.1855 3.50278 20.165 3.5129C20.0723 3.55813 19.9795 3.60568 19.8891 3.65439C20.143 3.66482 20.3958 3.68454 20.6451 3.71353C20.6913 3.71891 20.7334 3.7424 20.7622 3.77883C20.791 3.81526 20.8042 3.86164 20.7988 3.90778C20.7934 3.95391 20.7699 3.99602 20.7335 4.02483C20.6971 4.05365 20.6507 4.06682 20.6046 4.06143C20.1693 4.01053 19.7311 3.98999 19.293 3.99997C19.1851 4.06607 19.0796 4.13449 18.9764 4.20291C18.9483 4.22167 18.9151 4.23138 18.8813 4.23075H18.8801ZM36.3832 3.48623C36.3601 3.48608 36.3372 3.48135 36.3159 3.47231C35.8903 3.29372 35.4543 3.12441 35.0206 2.97713C34.9769 2.96175 34.9411 2.92965 34.9211 2.8879C34.9011 2.84614 34.8985 2.79815 34.9139 2.75447C34.9292 2.7108 34.9614 2.67502 35.0031 2.65501C35.0449 2.635 35.0929 2.6324 35.1365 2.64778C35.5761 2.80086 36.019 2.97017 36.4516 3.15108C36.4892 3.16631 36.5202 3.19416 36.5394 3.22984C36.5586 3.26552 36.5648 3.30679 36.5568 3.34652C36.5488 3.38624 36.5272 3.42194 36.4957 3.44745C36.4643 3.47296 36.4249 3.48667 36.3844 3.48623H36.3832ZM21.3723 2.98061C21.3312 2.98112 21.2912 2.96706 21.2595 2.94093C21.2278 2.91479 21.2064 2.87827 21.199 2.83784C21.1916 2.79741 21.1988 2.75567 21.2193 2.72003C21.2398 2.6844 21.2722 2.65716 21.3108 2.64314C21.7434 2.48195 22.1945 2.33351 22.6514 2.20362C22.6737 2.19616 22.6972 2.19327 22.7206 2.19514C22.744 2.19701 22.7668 2.2036 22.7876 2.21451C22.8083 2.22542 22.8267 2.24042 22.8415 2.25861C22.8564 2.27681 22.8674 2.29781 22.8739 2.32037C22.8804 2.34293 22.8822 2.36657 22.8794 2.38986C22.8765 2.41316 22.8689 2.43564 22.8571 2.45593C22.8454 2.47623 22.8296 2.49393 22.8107 2.50797C22.7919 2.522 22.7705 2.53209 22.7477 2.53761C22.2989 2.66518 21.857 2.8113 21.4326 2.96901C21.4138 2.97662 21.3937 2.98055 21.3734 2.98061H21.3723ZM33.7438 2.57124C33.7284 2.57294 33.7128 2.57294 33.6974 2.57124C33.2532 2.44831 32.7998 2.33931 32.3498 2.24537C32.3274 2.24073 32.3062 2.23172 32.2873 2.21886C32.2684 2.206 32.2522 2.18954 32.2396 2.17043C32.2271 2.15132 32.2184 2.12992 32.2142 2.10746C32.2099 2.085 32.2101 2.06192 32.2147 2.03953C32.2194 2.01714 32.2284 1.99589 32.2412 1.97698C32.2541 1.95808 32.2706 1.94189 32.2897 1.92934C32.3088 1.9168 32.3302 1.90814 32.3526 1.90387C32.3751 1.89959 32.3982 1.89978 32.4206 1.90442C32.8775 1.99952 33.3379 2.11085 33.7901 2.23493C33.8311 2.24578 33.8668 2.27124 33.8903 2.30651C33.9139 2.34178 33.9237 2.38444 33.918 2.42647C33.9123 2.4685 33.8915 2.507 33.8594 2.53472C33.8273 2.56245 33.7862 2.5775 33.7438 2.57704V2.57124ZM24.0569 2.21174C24.0108 2.21635 23.9647 2.20245 23.9288 2.17309C23.8929 2.14373 23.8702 2.10132 23.8656 2.05518C23.861 2.00905 23.8749 1.96297 23.9042 1.92708C23.9336 1.8912 23.976 1.86845 24.0222 1.86384C24.4779 1.7699 24.9499 1.69104 25.4138 1.6319C25.4599 1.6259 25.5065 1.63848 25.5434 1.66686C25.5802 1.69524 25.6043 1.7371 25.6103 1.78324C25.6163 1.82937 25.6038 1.876 25.5754 1.91286C25.547 1.94973 25.5051 1.97381 25.459 1.9798C25.0009 2.04127 24.5417 2.11897 24.0929 2.21174C24.0813 2.21288 24.0697 2.21288 24.0581 2.21174H24.0569ZM31.015 2.00416H30.9907C30.5338 1.94037 30.0699 1.88819 29.6118 1.85804C29.589 1.85636 29.5667 1.8502 29.5462 1.83991C29.5257 1.82962 29.5075 1.81541 29.4926 1.79807C29.4776 1.78073 29.4662 1.76061 29.459 1.73887C29.4518 1.71712 29.449 1.69417 29.4506 1.67133C29.4523 1.64849 29.4585 1.62619 29.4687 1.60573C29.479 1.58527 29.4933 1.56703 29.5106 1.55206C29.5279 1.53709 29.548 1.52569 29.5698 1.51849C29.5915 1.5113 29.6145 1.50846 29.6373 1.51013C30.1012 1.54376 30.5744 1.59363 31.0382 1.65857C31.0844 1.66165 31.1274 1.68293 31.1578 1.71772C31.1883 1.75252 31.2036 1.79799 31.2006 1.84412C31.1975 1.89026 31.1762 1.93328 31.1414 1.96373C31.1066 1.99418 31.0612 2.00955 31.015 2.00648V2.00416ZM26.8274 1.84528C26.7813 1.84682 26.7364 1.82997 26.7027 1.79843C26.669 1.7669 26.6492 1.72326 26.6477 1.67713C26.6461 1.63099 26.663 1.58614 26.6945 1.55243C26.726 1.51872 26.7697 1.49891 26.8158 1.49738C27.2461 1.46954 27.6844 1.45679 28.1182 1.45679H28.2248C28.271 1.45679 28.3152 1.47511 28.3479 1.50774C28.3805 1.54036 28.3988 1.5846 28.3988 1.63074C28.3988 1.67687 28.3805 1.72112 28.3479 1.75374C28.3152 1.78637 28.271 1.80469 28.2248 1.80469H28.1193C27.6926 1.80469 27.2623 1.81745 26.8437 1.84412L26.8274 1.84528Z" fill="#99B9FF"/>
<path d="M48.433 13.8193C48.4049 13.8192 48.3772 13.8123 48.3524 13.7991C48.3276 13.786 48.3063 13.7671 48.2903 13.7439C48.1581 13.5522 48.0256 13.3631 47.8926 13.1768C47.8781 13.1583 47.8674 13.1371 47.8614 13.1144C47.8553 13.0916 47.8539 13.0679 47.8572 13.0447C47.8606 13.0214 47.8686 12.999 47.8809 12.979C47.8931 12.9589 47.9093 12.9415 47.9284 12.9278C47.9476 12.9142 47.9693 12.9046 47.9923 12.8995C48.0152 12.8945 48.039 12.8942 48.0621 12.8986C48.0852 12.903 48.1071 12.9121 48.1266 12.9252C48.1461 12.9383 48.1628 12.9553 48.1755 12.975C48.3101 13.1629 48.4438 13.3535 48.5768 13.5468C48.5898 13.5656 48.5989 13.5869 48.6037 13.6093C48.6084 13.6317 48.6087 13.6548 48.6045 13.6773C48.6003 13.6999 48.5917 13.7213 48.5792 13.7405C48.5667 13.7597 48.5505 13.7762 48.5316 13.7891C48.5026 13.8091 48.4682 13.8197 48.433 13.8193Z" fill="#99B9FF"/>
<path d="M57.5618 90.1064C57.6825 89.3623 57.1772 88.6612 56.4331 88.5404C55.6891 88.4196 54.9879 88.9249 54.8671 89.669C54.7464 90.4131 55.2517 91.1143 55.9958 91.2351C56.7398 91.3558 57.441 90.8505 57.5618 90.1064Z" fill="#99B9FF"/>
</svg>
