<svg width="79" height="79" viewBox="0 0 79 79" fill="none" xmlns="http://www.w3.org/2000/svg">
<path d="M19.8849 20.4382C28.0436 12.2269 25.7112 7.08101 31.2903 3.27889C39.8803 -2.57087 55.911 2.46134 65.3712 10.5082C76.9551 20.363 82.9317 38.3578 76.1235 54.6365C68.8726 71.9725 49.7944 80.9722 32.7713 78.2602C17.5666 75.8404 2.62222 63.8571 1.12524 49.4878C0.962672 47.9307 0.244724 39.5108 5.27129 32.2514C9.42486 26.2513 13.414 26.9477 19.8849 20.4382Z" fill="#CADDFF"/>
<path d="M72.962 27.8723L5.89029 25.8049C4.29276 25.8049 3.19141 26.8433 3.19141 28.1185V65.5608C3.19141 66.8369 4.29464 67.8744 5.89029 67.8744L30.1248 66.5588L27.0133 75.6412L23.7243 75.6618C22.6981 75.6618 21.8627 76.33 21.8627 77.1504C21.8627 77.9707 22.6981 78.6398 23.7243 78.6398L51.2957 77.5883C52.3219 77.5883 50.4011 67.8716 50.4011 67.8716C50.4011 67.8716 74.5567 27.8723 72.962 27.8723Z" fill="#99B9FF"/>
<path d="M49.9674 63.0864H32.8635L28.0117 77.2499H54.8191L49.9674 63.0864Z" fill="white"/>
<path d="M75.561 25.9316H7.26772C5.76416 25.9316 4.73047 26.909 4.73047 28.1146V65.5606C4.73047 66.7663 5.75758 67.7436 7.26772 67.7436H75.561C77.0646 67.7436 78.0983 66.7663 78.0983 65.5606V28.1146C78.0964 26.909 77.0683 25.9316 75.561 25.9316Z" fill="white"/>
<path d="M57.7274 75.7954H25.0975C24.1577 75.7954 23.3984 76.4034 23.3984 77.1533C23.3984 77.9032 24.1596 78.5121 25.0975 78.5121H57.7274C58.6671 78.5121 59.4255 77.9041 59.4255 77.1533C59.4255 76.4025 58.6652 75.7954 57.7274 75.7954Z" fill="white"/>
<path d="M54.1331 75.2502L52.7695 71.2705L54.1331 75.2502Z" fill="white"/>
<path d="M54.1339 75.3911C54.1046 75.3913 54.076 75.3824 54.0521 75.3655C54.0281 75.3487 54.0101 75.3247 54.0005 75.2971L52.6369 71.3174C52.6308 71.2998 52.6281 71.2813 52.6291 71.2627C52.6301 71.2442 52.6348 71.226 52.6428 71.2092C52.6508 71.1925 52.6621 71.1775 52.6759 71.1651C52.6897 71.1527 52.7059 71.1431 52.7234 71.1369C52.7409 71.1308 52.7595 71.1281 52.778 71.1291C52.7966 71.1301 52.8148 71.1348 52.8315 71.1428C52.8483 71.1508 52.8633 71.1621 52.8757 71.1759C52.8881 71.1897 52.8976 71.2059 52.9038 71.2234L54.2674 75.2031C54.2793 75.2385 54.2767 75.2772 54.2601 75.3107C54.2436 75.3441 54.2144 75.3697 54.179 75.3817C54.1647 75.3875 54.1494 75.3907 54.1339 75.3911Z" fill="black"/>
<path d="M57.7288 78.6531C57.6914 78.6531 57.6555 78.6383 57.6291 78.6118C57.6027 78.5854 57.5878 78.5495 57.5878 78.5121C57.5878 78.4748 57.6027 78.4389 57.6291 78.4125C57.6555 78.386 57.6914 78.3712 57.7288 78.3712C58.5877 78.3712 59.2859 77.8252 59.2859 77.1496C59.2859 76.4739 58.5877 75.9279 57.7288 75.9279H51.0511C51.0137 75.9279 50.9779 75.9131 50.9514 75.8866C50.925 75.8602 50.9102 75.8243 50.9102 75.787C50.9102 75.7496 50.925 75.7137 50.9514 75.6873C50.9779 75.6608 51.0137 75.646 51.0511 75.646H57.7288C58.7427 75.646 59.5678 76.3188 59.5678 77.1496C59.5678 77.9803 58.7427 78.6531 57.7288 78.6531Z" fill="black"/>
<path d="M55.3533 78.653H46.7464C46.709 78.653 46.6732 78.6382 46.6468 78.6117C46.6203 78.5853 46.6055 78.5494 46.6055 78.5121C46.6055 78.4747 46.6203 78.4388 46.6468 78.4124C46.6732 78.3859 46.709 78.3711 46.7464 78.3711H55.3533C55.3907 78.3711 55.4266 78.3859 55.453 78.4124C55.4794 78.4388 55.4943 78.4747 55.4943 78.5121C55.4943 78.5494 55.4794 78.5853 55.453 78.6117C55.4266 78.6382 55.3907 78.653 55.3533 78.653Z" fill="black"/>
<path d="M41.9448 26.0729H38.7347C38.6973 26.0729 38.6615 26.0581 38.635 26.0316C38.6086 26.0052 38.5938 25.9694 38.5938 25.932C38.5938 25.8946 38.6086 25.8587 38.635 25.8323C38.6615 25.8059 38.6973 25.791 38.7347 25.791H41.9448C41.9822 25.791 42.018 25.8059 42.0445 25.8323C42.0709 25.8587 42.0858 25.8946 42.0858 25.932C42.0858 25.9694 42.0709 26.0052 42.0445 26.0316C42.018 26.0581 41.9822 26.0729 41.9448 26.0729Z" fill="black"/>
<path d="M75.5585 67.8849H7.26523C5.74006 67.8849 4.58984 66.886 4.58984 65.561V28.1149C4.58984 26.7899 5.74006 25.791 7.26523 25.791H19.1057C19.1431 25.791 19.179 25.8059 19.2054 25.8323C19.2318 25.8587 19.2467 25.8946 19.2467 25.932C19.2467 25.9694 19.2318 26.0052 19.2054 26.0316C19.179 26.0581 19.1431 26.0729 19.1057 26.0729H7.26523C5.90076 26.0729 4.87176 26.9516 4.87176 28.1149V65.561C4.87176 66.7253 5.90076 67.603 7.26523 67.603H75.5585C76.924 67.603 77.9529 66.7253 77.9529 65.561V28.1149C77.9529 26.9516 76.9193 26.0729 75.5585 26.0729H44.2414C44.204 26.0729 44.1682 26.0581 44.1417 26.0316C44.1153 26.0052 44.1004 25.9694 44.1004 25.932C44.1004 25.8946 44.1153 25.8587 44.1417 25.8323C44.1682 25.8059 44.204 25.791 44.2414 25.791H75.5585C77.0846 25.791 78.2349 26.7899 78.2349 28.1149V65.561C78.2349 66.886 77.0846 67.8849 75.5585 67.8849Z" fill="black"/>
<path d="M74.8927 27.9673H8.03714C7.50102 27.9673 7.06641 28.4019 7.06641 28.938V64.6907C7.06641 65.2268 7.50102 65.6614 8.03714 65.6614H74.8927C75.4288 65.6614 75.8634 65.2268 75.8634 64.6907V28.938C75.8634 28.4019 75.4288 27.9673 74.8927 27.9673Z" fill="#CADDFF"/>
<path d="M74.5077 65.9442H8.32213C7.49612 65.9442 6.82422 65.3944 6.82422 64.7178C6.82422 64.6804 6.83907 64.6446 6.8655 64.6182C6.89194 64.5917 6.92779 64.5769 6.96518 64.5769C7.00256 64.5769 7.03842 64.5917 7.06485 64.6182C7.09129 64.6446 7.10614 64.6804 7.10614 64.7178C7.10614 65.2384 7.65117 65.6622 8.32213 65.6622H74.5077C75.1777 65.6622 75.7236 65.2384 75.7236 64.7178V49.9642C75.7236 49.9268 75.7385 49.891 75.7649 49.8645C75.7914 49.8381 75.8272 49.8232 75.8646 49.8232C75.902 49.8232 75.9378 49.8381 75.9643 49.8645C75.9907 49.891 76.0056 49.9268 76.0056 49.9642V64.7178C76.0056 65.3944 75.3299 65.9442 74.5077 65.9442Z" fill="black"/>
<path d="M6.96523 33.2276C6.9464 33.2276 6.92775 33.2239 6.9104 33.2166C6.89305 33.2092 6.87734 33.1985 6.8642 33.185C6.85106 33.1715 6.84076 33.1556 6.8339 33.138C6.82704 33.1205 6.82377 33.1017 6.82427 33.0829V30.7806C6.82427 30.7432 6.83912 30.7074 6.86555 30.6809C6.89199 30.6545 6.92784 30.6396 6.96523 30.6396C7.00261 30.6396 7.03847 30.6545 7.0649 30.6809C7.09134 30.7074 7.10619 30.7432 7.10619 30.7806V33.0829C7.10669 33.1017 7.10341 33.1205 7.09656 33.138C7.0897 33.1556 7.07939 33.1715 7.06625 33.185C7.05311 33.1985 7.0374 33.2092 7.02005 33.2166C7.0027 33.2239 6.98406 33.2276 6.96523 33.2276Z" fill="black"/>
<path d="M6.96518 29.0987C6.92779 29.0987 6.89194 29.0839 6.8655 29.0575C6.83907 29.031 6.82422 28.9952 6.82422 28.9578C6.82422 28.2812 7.49612 27.7314 8.32213 27.7314H12.2577C12.2951 27.7314 12.3309 27.7463 12.3574 27.7727C12.3838 27.7992 12.3986 27.835 12.3986 27.8724C12.3986 27.9098 12.3838 27.9456 12.3574 27.9721C12.3309 27.9985 12.2951 28.0134 12.2577 28.0134H8.32213C7.65117 28.0134 7.10614 28.4372 7.10614 28.9578C7.10614 28.9952 7.09129 29.031 7.06485 29.0575C7.03842 29.0839 7.00256 29.0987 6.96518 29.0987Z" fill="black"/>
<path d="M75.8626 30.9218C75.8253 30.9218 75.7894 30.907 75.763 30.8805C75.7365 30.8541 75.7217 30.8182 75.7217 30.7808V28.9578C75.7217 28.4372 75.1757 28.0134 74.5057 28.0134H70.4574C70.42 28.0134 70.3841 27.9985 70.3577 27.9721C70.3313 27.9456 70.3164 27.9098 70.3164 27.8724C70.3164 27.835 70.3313 27.7992 70.3577 27.7727C70.3841 27.7463 70.42 27.7314 70.4574 27.7314H74.5057C75.3317 27.7314 76.0036 28.2812 76.0036 28.9578V30.7846C76.0026 30.8213 75.9873 30.8562 75.961 30.8819C75.9347 30.9075 75.8994 30.9218 75.8626 30.9218Z" fill="black"/>
<path d="M75.8636 36.0264C75.8262 36.0264 75.7904 36.0115 75.764 35.9851C75.7375 35.9587 75.7227 35.9228 75.7227 35.8854V33.3407C75.7227 33.3033 75.7375 33.2674 75.764 33.241C75.7904 33.2146 75.8262 33.1997 75.8636 33.1997C75.901 33.1997 75.9369 33.2146 75.9633 33.241C75.9897 33.2674 76.0046 33.3033 76.0046 33.3407V35.8854C76.0046 35.9228 75.9897 35.9587 75.9633 35.9851C75.9369 36.0115 75.901 36.0264 75.8636 36.0264Z" fill="black"/>
<path d="M53.1922 8.54987C54.0634 10.0356 56.1054 10.3278 56.5649 10.3786C58.4274 10.5872 59.8022 9.69164 60.1744 9.43133C60.819 9.82789 62.3827 10.6624 64.4228 10.5064C66.0354 10.3823 68.7531 9.57699 69.2793 7.68721C69.9099 5.43188 67.0691 2.80818 64.6324 1.88161C62.5876 1.1054 59.4724 1.00673 57.9801 2.57794C57.4323 3.15587 57.3477 3.70561 56.7012 3.89355C55.5397 4.23185 54.6855 2.80348 53.181 2.87584C52.2779 2.91906 51.5731 3.48196 51.138 3.91987C50.0263 4.28636 49.346 5.02404 49.4287 5.61794C49.5151 6.23534 50.4191 6.61029 50.5948 6.68359C51.5101 7.05948 51.995 6.68359 52.5373 7.07733C53.0174 7.42879 52.8229 7.91932 53.1922 8.54987Z" fill="black"/>
<path d="M54.3835 10.0768C54.3835 10.0768 49.8126 11.5371 47.5902 10.0768C46.5462 9.38982 42.6567 4.5418 41.8137 4.09356C41.3006 3.82104 40.5038 3.41132 39.9578 3.13222C39.7699 3.0364 39.5638 2.98173 39.3532 2.97185C39.1425 2.96196 38.9322 2.99709 38.7361 3.0749L36.4648 3.97797C36.4648 3.97797 37.1226 4.50891 38.2033 4.29654C38.8953 4.15302 39.6152 4.23571 40.2566 4.5324L40.2998 4.55308L38.2597 5.18833C38.2597 5.18833 38.5689 5.7033 39.6627 5.50596C40.2406 5.40071 40.936 5.53133 41.4642 5.67699L41.5017 5.69578C41.5017 5.69578 43.4517 11.1114 46.3131 12.8067C50.4761 15.2725 54.8496 13.7229 54.8496 13.7229L54.3835 10.0768Z" fill="white"/>
<path d="M51.5702 14.3365C50.0169 14.3365 48.1027 14.0302 46.242 12.9269C43.4971 11.3012 41.6224 6.42595 41.3902 5.80198C40.9101 5.67229 40.2381 5.54449 39.6884 5.64316C38.5119 5.85648 38.1538 5.28419 38.1397 5.25976C38.1287 5.24142 38.122 5.22082 38.12 5.1995C38.118 5.17818 38.1209 5.15669 38.1285 5.13665C38.1364 5.11627 38.1491 5.09806 38.1654 5.08352C38.1817 5.06898 38.2013 5.05852 38.2224 5.05302L39.8914 4.53335C39.3576 4.35444 38.786 4.32007 38.2347 4.43374C37.107 4.65646 36.4097 4.11048 36.3806 4.08698C36.3613 4.07165 36.3465 4.05148 36.3376 4.02853C36.3286 4.00558 36.326 3.98068 36.3298 3.95636C36.3332 3.93186 36.343 3.90871 36.3584 3.88936C36.3738 3.87001 36.3941 3.85517 36.4172 3.84642L38.6885 2.9424C38.9034 2.85709 39.134 2.81857 39.3649 2.82943C39.5958 2.84029 39.8218 2.90027 40.0277 3.00536C40.5915 3.29574 41.3771 3.697 41.8855 3.96764C42.3318 4.20539 43.5121 5.52758 44.761 6.92682C45.9451 8.25465 47.1705 9.62664 47.6742 9.95836C49.8148 11.3679 54.302 9.95836 54.3462 9.94145C54.3658 9.9352 54.3866 9.93332 54.407 9.93591C54.4275 9.93851 54.4471 9.94553 54.4646 9.95648C54.4821 9.96756 54.497 9.98243 54.508 9.99999C54.5191 10.0175 54.5261 10.0374 54.5285 10.058L54.9927 13.7041C54.9968 13.7361 54.9897 13.7686 54.9726 13.796C54.9554 13.8234 54.9294 13.8441 54.8987 13.8544C54.8724 13.8638 53.4995 14.3365 51.5702 14.3365ZM40.116 5.32742C40.5843 5.33878 41.0492 5.41048 41.4993 5.54073C41.5087 5.54352 41.5178 5.5473 41.5265 5.55201L41.5641 5.5708C41.5952 5.58751 41.6192 5.61487 41.6318 5.64786C41.6505 5.70237 43.5986 11.0362 46.382 12.6854C50.0845 14.8787 53.9994 13.8366 54.6929 13.6252L54.2644 10.261C53.4187 10.5109 49.5527 11.5362 47.5125 10.1952C46.9778 9.84466 45.7957 8.51965 44.544 7.11665C43.3665 5.80104 42.1486 4.4328 41.7464 4.21855C41.239 3.94885 40.459 3.54758 39.8933 3.25815C39.7229 3.1713 39.5359 3.12177 39.3449 3.11285C39.1538 3.10394 38.9631 3.13585 38.7853 3.20647L36.7781 4.00523C37.2139 4.20777 37.7041 4.26191 38.1736 4.15934C38.8951 4.00873 39.646 4.09543 40.3143 4.40649L40.3584 4.42716C40.3841 4.43931 40.4056 4.45894 40.4199 4.48348C40.4343 4.50803 40.4408 4.53634 40.4388 4.56469C40.4368 4.59305 40.4262 4.62012 40.4085 4.64237C40.3908 4.66462 40.3668 4.68099 40.3396 4.68935L38.5297 5.25318C38.6998 5.36125 39.0344 5.47777 39.6348 5.36876C39.7936 5.34045 39.9547 5.32661 40.116 5.32742Z" fill="black"/>
<path d="M64.0349 19.1556C64.0349 19.1556 60.058 21.8554 54.5117 21.0604C54.5117 21.0604 55.2635 19.6123 56.5425 19.0927C57.8214 18.573 64.0349 19.1556 64.0349 19.1556Z" fill="black"/>
<path d="M69.5079 25.9656C69.2607 19.9101 65.7696 17.6782 65.7696 17.6782L58.5761 19.4731L55.6094 25.9656H69.5079Z" fill="black"/>
<path d="M54.5396 9.50827L58.3191 7.61661C58.7855 7.38337 59.3155 7.3091 59.828 7.40513C60.3406 7.50116 60.8077 7.76222 61.158 8.14849C62.8082 9.96967 65.6508 13.4908 67.0783 17.4997C67.0783 17.4997 64.5091 20.7774 61.111 20.5491C57.713 20.3207 55.7095 20.1027 54.5086 21.0574C54.5086 21.0574 53.5087 16.0318 53.3066 11.5926C53.2886 11.1631 53.3955 10.7377 53.6143 10.3677C53.8331 9.99781 54.1545 9.69926 54.5396 9.50827Z" fill="#5479F7"/>
<path d="M60.5647 19.7805C60.5296 19.7806 60.4957 19.7676 60.4697 19.7439C60.4438 19.7202 60.4277 19.6877 60.4247 19.6527C60.2969 18.2901 59.8721 17.3222 59.1607 16.7743C58.6185 16.3571 58.0434 16.2744 57.4345 16.187C56.787 16.093 56.1189 15.9991 55.4329 15.502C54.7149 14.9804 54.2037 14.176 53.9133 13.1104C53.9073 13.0922 53.9051 13.073 53.9068 13.054C53.9085 13.0349 53.914 13.0164 53.923 12.9996C53.9321 12.9827 53.9445 12.9679 53.9594 12.956C53.9744 12.9441 53.9916 12.9353 54.01 12.9303C54.0285 12.9252 54.0478 12.924 54.0667 12.9266C54.0856 12.9293 54.1038 12.9358 54.1202 12.9457C54.1366 12.9556 54.1507 12.9687 54.1618 12.9842C54.173 12.9998 54.1808 13.0174 54.1849 13.0361C54.4584 14.0388 54.9367 14.7915 55.5945 15.2736C56.2222 15.7284 56.8565 15.8196 57.4739 15.9079C58.0913 15.9962 58.7313 16.0883 59.3318 16.5507C60.107 17.1483 60.5694 18.183 60.7038 19.6264C60.7056 19.6448 60.7037 19.6635 60.6983 19.6812C60.6929 19.699 60.6841 19.7155 60.6723 19.7298C60.6605 19.7441 60.646 19.7559 60.6296 19.7646C60.6133 19.7733 60.5954 19.7787 60.5769 19.7805H60.5647Z" fill="black"/>
<path d="M66.5105 25.758L58.5228 9.43039C58.3674 9.11288 58.3441 8.74672 58.458 8.41207C58.572 8.07743 58.8139 7.80158 59.1308 7.64492C59.4276 7.49779 59.7684 7.46612 60.0872 7.55607C60.406 7.64601 60.6801 7.85115 60.8562 8.1317C61.9209 9.82319 63.9572 13.2184 64.4196 15.1796C65.0464 17.8616 65.957 19.1894 66.5142 20.0436C66.8751 20.5952 67.3261 22.5536 67.6005 23.872C67.6332 24.0299 67.6986 24.1792 67.7925 24.3103C67.8864 24.4413 68.0068 24.5512 68.1458 24.6329C68.2848 24.7145 68.4395 24.7661 68.5997 24.7843C68.7599 24.8025 68.9221 24.7869 69.0759 24.7385C69.3632 24.6481 69.6678 24.6272 69.9648 24.6773C70.2618 24.7275 70.5426 24.8473 70.7843 25.0269L71.6432 25.665C71.6638 25.6799 71.679 25.7009 71.6867 25.7251C71.6943 25.7493 71.694 25.7753 71.6858 25.7993C71.6776 25.8232 71.6619 25.844 71.6411 25.8584C71.6202 25.8728 71.5953 25.8801 71.5699 25.8793L66.5105 25.758Z" fill="white"/>
<path d="M71.5712 26.0175L66.4281 25.8972L58.4 9.49624C58.2315 9.15675 58.2 8.76541 58.3122 8.40336C58.4244 8.04131 58.6717 7.73634 59.0027 7.55168C59.3337 7.36702 59.7231 7.31684 60.0901 7.41155C60.4571 7.50625 60.7736 7.73858 60.9739 8.06035C62.1147 9.86931 64.0985 13.195 64.5552 15.1496C65.1538 17.7132 66.0071 19.0147 66.5709 19.8764L66.631 19.9704C66.9938 20.5258 67.4326 22.3855 67.7362 23.8477C67.7656 23.986 67.8236 24.1166 67.9066 24.2311C67.9895 24.3456 68.0955 24.4415 68.2178 24.5126C68.34 24.5837 68.4758 24.6284 68.6164 24.6438C68.7569 24.6593 68.8992 24.6451 69.0339 24.6023C69.3424 24.5049 69.6695 24.4817 69.9886 24.5348C70.3077 24.5879 70.6098 24.7157 70.8701 24.9077L71.729 25.5467C71.7738 25.5789 71.8072 25.6246 71.8242 25.6771C71.8413 25.7295 71.8411 25.7861 71.8238 25.8385C71.8066 25.8909 71.773 25.9364 71.7281 25.9684C71.6831 26.0004 71.6292 26.0173 71.574 26.0165L71.5712 26.0175ZM66.5991 25.62L71.5026 25.7337L70.6991 25.137C70.4749 24.9711 70.2148 24.8604 69.9398 24.814C69.6648 24.7677 69.3828 24.7869 69.1166 24.8701C68.9439 24.9251 68.7617 24.9431 68.5816 24.9231C68.4015 24.9031 68.2276 24.8455 68.0712 24.7539C67.9148 24.6624 67.7794 24.539 67.6738 24.3918C67.5681 24.2446 67.4946 24.0768 67.458 23.8994C67.0351 21.8658 66.6564 20.5229 66.3924 20.1189L66.3322 20.0249C65.7571 19.1472 64.8879 17.8203 64.278 15.2088C63.8307 13.2937 61.8648 9.99899 60.7324 8.20507C60.5684 7.94869 60.3128 7.76458 60.0177 7.69032C59.7225 7.61606 59.4102 7.65726 59.1444 7.8055C58.8786 7.95374 58.6795 8.19784 58.5876 8.48796C58.4957 8.77809 58.518 9.09234 58.65 9.36656L66.5991 25.62Z" fill="black"/>
<path d="M54.5504 6.3489C54.556 6.34232 54.9432 5.89971 54.7308 5.57551C54.5184 5.2513 54.0946 5.6817 54.0946 5.6817C53.9671 5.48815 53.7916 5.33094 53.5853 5.22538C53.3789 5.11981 53.1487 5.0695 52.9172 5.07933C52.9172 5.07933 52.5685 5.8734 51.6758 5.86964C51.8273 6.20469 51.9957 6.53182 52.1804 6.84977L52.2744 7.40514C52.2777 7.42451 52.2857 7.44278 52.2977 7.45837C52.3097 7.47396 52.3252 7.48641 52.3431 7.49464C52.3609 7.50287 52.3805 7.50663 52.4001 7.50561C52.4198 7.50459 52.4389 7.49882 52.4558 7.48878C52.4823 7.47317 52.5136 7.46789 52.5438 7.47396C52.574 7.48003 52.6008 7.49702 52.6193 7.52167C52.8401 7.81204 53.0797 8.05449 53.3147 8.15974C53.6436 8.30728 53.9377 8.15974 54.1604 7.87313C54.682 8.50556 55.4516 9.5806 55.0926 10.0458C55.0926 10.0458 56.2663 10.3859 57.4259 8.79029L54.5504 6.3489Z" fill="white"/>
<path d="M55.3813 10.2214C55.2708 10.2235 55.1605 10.2109 55.0533 10.1838L54.8541 10.1265L54.981 9.96294C55.1887 9.69324 54.8804 8.99973 54.155 8.0929C53.8872 8.35696 53.5676 8.43026 53.2585 8.29118C53.0282 8.18875 52.7783 7.96227 52.5161 7.61928C52.4796 7.63762 52.4394 7.64719 52.3986 7.64724C52.3578 7.64729 52.3175 7.63781 52.281 7.61956C52.2445 7.60131 52.2128 7.57479 52.1883 7.54211C52.1639 7.50943 52.1474 7.4715 52.1402 7.43133L52.0462 6.90133C51.8627 6.58452 51.6952 6.25865 51.5444 5.92496L51.457 5.72668H51.6807C52.4607 5.72668 52.7726 5.04914 52.7858 5.02095L52.8224 4.93919H52.9108C53.1392 4.92823 53.367 4.97068 53.5761 5.06318C53.7853 5.15567 53.9699 5.29565 54.1155 5.47201C54.2388 5.36732 54.3955 5.3103 54.5572 5.31132C54.6167 5.31799 54.6739 5.33845 54.7241 5.37108C54.7744 5.4037 54.8163 5.44759 54.8466 5.49927C55.0421 5.79904 54.8616 6.15049 54.7404 6.3281L57.6169 8.77138L57.5408 8.87662C56.6941 10.0391 55.8352 10.2214 55.3813 10.2214ZM55.3024 9.93945C55.6379 9.95918 56.4225 9.87273 57.2344 8.81648L54.3467 6.36475L54.4406 6.25762C54.4406 6.25198 54.7573 5.88173 54.6089 5.65432C54.6012 5.63881 54.5898 5.62546 54.5757 5.61545C54.5616 5.60544 54.5452 5.5991 54.528 5.597C54.4209 5.5876 54.2546 5.71634 54.1907 5.78494L54.0601 5.9165L53.9661 5.75675C53.8597 5.59656 53.7159 5.46474 53.5471 5.37271C53.3782 5.28068 53.1895 5.23122 52.9972 5.22862C52.8837 5.43483 52.7242 5.61212 52.5311 5.74673C52.3379 5.88134 52.1164 5.96966 51.8837 6.00484C51.9701 6.18526 52.1158 6.4747 52.2962 6.78574L52.3084 6.8083L52.4024 7.36179C52.4576 7.33687 52.5196 7.33138 52.5783 7.34623C52.637 7.36107 52.689 7.39538 52.7257 7.44355C52.9615 7.75366 53.1767 7.95382 53.3656 8.03933C53.6616 8.17183 53.8965 7.97919 54.0413 7.79407L54.1503 7.65499L54.2612 7.79031C55.0787 8.76856 55.4255 9.49026 55.3024 9.93757V9.93945Z" fill="black"/>
<path d="M54.161 8.01683C54.1341 8.01694 54.1077 8.00932 54.085 7.99488C54.0622 7.98045 54.0441 7.95979 54.0327 7.93537C54.0213 7.91095 54.0172 7.88378 54.0208 7.85708C54.0244 7.83038 54.0356 7.80527 54.053 7.78472C54.1827 7.63061 54.3001 7.29419 54.3349 7.17766C54.3454 7.14177 54.3697 7.11151 54.4024 7.09354C54.4352 7.07556 54.4738 7.07134 54.5097 7.08181C54.5456 7.09228 54.5758 7.11657 54.5938 7.14935C54.6118 7.18213 54.616 7.22071 54.6055 7.2566C54.5999 7.27633 54.4636 7.73586 54.2691 7.96703C54.2559 7.98281 54.2394 7.99546 54.2207 8.00407C54.202 8.01269 54.1816 8.01704 54.161 8.01683Z" fill="black"/>
<path d="M39.188 4.33057H15.1387C14.2854 4.33057 13.5938 5.02224 13.5938 5.87547V21.7925C13.5938 22.6457 14.2854 23.3374 15.1387 23.3374H39.188C40.0412 23.3374 40.7329 22.6457 40.7329 21.7925V5.87547C40.7329 5.02224 40.0412 4.33057 39.188 4.33057Z" fill="#5479F7"/>
<path d="M37.3209 6.31885H17.0041C16.7041 6.31885 16.4609 6.56203 16.4609 6.86201V14.7604C16.4609 15.0603 16.7041 15.3035 17.0041 15.3035H37.3209C37.6209 15.3035 37.864 15.0603 37.864 14.7604V6.86201C37.864 6.56203 37.6209 6.31885 37.3209 6.31885Z" fill="#CADDFF"/>
<path d="M18.6195 11.5427C18.5822 11.5425 18.5464 11.5277 18.5199 11.5013L17.6619 10.6434C17.6358 10.6168 17.6211 10.581 17.6211 10.5437C17.6211 10.5065 17.6358 10.4707 17.6619 10.4441L18.5199 9.58617C18.5466 9.56127 18.582 9.54772 18.6185 9.54836C18.655 9.54901 18.6898 9.5638 18.7157 9.58963C18.7415 9.61545 18.7563 9.65029 18.7569 9.68681C18.7576 9.72333 18.744 9.75867 18.7191 9.78539L17.9608 10.5437L18.7191 11.3012C18.7387 11.321 18.752 11.3462 18.7573 11.3735C18.7627 11.4008 18.7599 11.4291 18.7492 11.4549C18.7386 11.4806 18.7207 11.5027 18.6976 11.5183C18.6745 11.5339 18.6474 11.5424 18.6195 11.5427Z" fill="black"/>
<path d="M35.7039 11.5429C35.676 11.5428 35.6487 11.5344 35.6255 11.5189C35.6022 11.5033 35.5841 11.4813 35.5734 11.4555C35.5627 11.4297 35.5598 11.4013 35.5651 11.3739C35.5704 11.3465 35.5837 11.3213 35.6033 11.3014L36.3617 10.5439L35.6033 9.78558C35.5825 9.75822 35.5724 9.72419 35.575 9.68991C35.5775 9.65563 35.5925 9.62345 35.6171 9.59944C35.6417 9.57542 35.6742 9.56122 35.7085 9.5595C35.7429 9.55779 35.7766 9.56868 35.8035 9.59012L36.6605 10.4481C36.6737 10.4611 36.6842 10.4766 36.6913 10.4937C36.6985 10.5108 36.7021 10.5292 36.7021 10.5477C36.7021 10.5662 36.6985 10.5846 36.6913 10.6017C36.6842 10.6188 36.6737 10.6343 36.6605 10.6473L35.8035 11.5053C35.7763 11.5301 35.7407 11.5435 35.7039 11.5429Z" fill="black"/>
<path d="M25.2777 17.0468C25.2777 17.1198 25.256 17.1912 25.2154 17.252C25.1749 17.3127 25.1172 17.36 25.0497 17.388C24.9822 17.416 24.908 17.4233 24.8363 17.409C24.7647 17.3948 24.6989 17.3596 24.6472 17.3079C24.5956 17.2563 24.5604 17.1905 24.5462 17.1188C24.5319 17.0472 24.5392 16.973 24.5672 16.9055C24.5951 16.838 24.6425 16.7803 24.7032 16.7397C24.7639 16.6992 24.8353 16.6775 24.9084 16.6775C24.9569 16.6774 25.005 16.6868 25.0498 16.7053C25.0947 16.7239 25.1355 16.7511 25.1698 16.7854C25.2041 16.8197 25.2313 16.8605 25.2498 16.9053C25.2683 16.9502 25.2778 16.9983 25.2777 17.0468Z" fill="black"/>
<path d="M27.5316 17.0468C27.5316 17.1198 27.5099 17.1912 27.4694 17.252C27.4288 17.3127 27.3711 17.36 27.3036 17.388C27.2361 17.416 27.1619 17.4233 27.0902 17.409C27.0186 17.3948 26.9528 17.3596 26.9011 17.3079C26.8495 17.2563 26.8143 17.1905 26.8001 17.1188C26.7858 17.0472 26.7931 16.973 26.8211 16.9055C26.849 16.838 26.8964 16.7803 26.9571 16.7397C27.0178 16.6992 27.0892 16.6775 27.1623 16.6775C27.2108 16.6774 27.2589 16.6868 27.3038 16.7053C27.3486 16.7239 27.3894 16.7511 27.4237 16.7854C27.458 16.8197 27.4852 16.8605 27.5037 16.9053C27.5222 16.9502 27.5317 16.9983 27.5316 17.0468Z" fill="black"/>
<path d="M29.4162 17.4151C29.6201 17.4151 29.7855 17.2498 29.7855 17.0458C29.7855 16.8419 29.6201 16.6765 29.4162 16.6765C29.2122 16.6765 29.0469 16.8419 29.0469 17.0458C29.0469 17.2498 29.2122 17.4151 29.4162 17.4151Z" fill="black"/>
<path d="M25.4935 18.8455H17.0041C16.7041 18.8455 16.4609 19.0886 16.4609 19.3886V20.677C16.4609 20.977 16.7041 21.2201 17.0041 21.2201H25.4935C25.7935 21.2201 26.0367 20.977 26.0367 20.677V19.3886C26.0367 19.0886 25.7935 18.8455 25.4935 18.8455Z" fill="#CADDFF"/>
<path d="M37.3217 18.8452H28.8322C28.5322 18.8452 28.2891 19.0884 28.2891 19.3884V20.6767C28.2891 20.9767 28.5322 21.2199 28.8322 21.2199H37.3217C37.6216 21.2199 37.8648 20.9767 37.8648 20.6767V19.3884C37.8648 19.0884 37.6216 18.8452 37.3217 18.8452Z" fill="#CADDFF"/>
<path d="M38.9927 29.6445H14.9433C14.0901 29.6445 13.3984 30.3362 13.3984 31.1894V47.1064C13.3984 47.9597 14.0901 48.6513 14.9433 48.6513H38.9927C39.8459 48.6513 40.5376 47.9597 40.5376 47.1064V31.1894C40.5376 30.3362 39.8459 29.6445 38.9927 29.6445Z" fill="#5479F7"/>
<path d="M22.2188 31.731H16.8088C16.5088 31.731 16.2656 31.9741 16.2656 32.2741V37.6249C16.2656 37.9249 16.5088 38.168 16.8088 38.168H22.2188C22.5187 38.168 22.7619 37.9249 22.7619 37.6249V32.2741C22.7619 31.9741 22.5187 31.731 22.2188 31.731Z" fill="#CADDFF"/>
<path d="M29.6719 31.731H24.2619C23.9619 31.731 23.7188 31.9741 23.7188 32.2741V37.6249C23.7188 37.9249 23.9619 38.168 24.2619 38.168H29.6719C29.9719 38.168 30.215 37.9249 30.215 37.6249V32.2741C30.215 31.9741 29.9719 31.731 29.6719 31.731Z" fill="white"/>
<path d="M37.125 31.731H31.715C31.4151 31.731 31.1719 31.9741 31.1719 32.2741V37.6249C31.1719 37.9249 31.4151 38.168 31.715 38.168H37.125C37.425 38.168 37.6682 37.9249 37.6682 37.6249V32.2741C37.6682 31.9741 37.425 31.731 37.125 31.731Z" fill="#CADDFF"/>
<path d="M22.2188 39.5898H16.8088C16.5088 39.5898 16.2656 39.833 16.2656 40.133V40.1828C16.2656 40.4828 16.5088 40.726 16.8088 40.726H22.2188C22.5187 40.726 22.7619 40.4828 22.7619 40.1828V40.133C22.7619 39.833 22.5187 39.5898 22.2188 39.5898Z" fill="#CADDFF"/>
<path d="M29.6719 39.5898H24.2619C23.9619 39.5898 23.7188 39.833 23.7188 40.133V40.1828C23.7188 40.4828 23.9619 40.726 24.2619 40.726H29.6719C29.9719 40.726 30.215 40.4828 30.215 40.1828V40.133C30.215 39.833 29.9719 39.5898 29.6719 39.5898Z" fill="white"/>
<path d="M37.125 39.5898H31.715C31.4151 39.5898 31.1719 39.833 31.1719 40.133V40.1828C31.1719 40.4828 31.4151 40.726 31.715 40.726H37.125C37.425 40.726 37.6682 40.4828 37.6682 40.1828V40.133C37.6682 39.833 37.425 39.5898 37.125 39.5898Z" fill="#CADDFF"/>
<path d="M22.0831 42.2756H20.7308C20.6934 42.2756 20.6576 42.2607 20.6311 42.2343C20.6047 42.2078 20.5898 42.172 20.5898 42.1346C20.5898 42.0972 20.6047 42.0614 20.6311 42.0349C20.6576 42.0085 20.6934 41.9937 20.7308 41.9937H22.0878C22.1251 41.9937 22.161 42.0085 22.1874 42.0349C22.2139 42.0614 22.2287 42.0972 22.2287 42.1346C22.2287 42.172 22.2139 42.2078 22.1874 42.2343C22.161 42.2607 22.1251 42.2756 22.0878 42.2756H22.0831Z" fill="#CADDFF"/>
<path d="M19.9781 42.2756H16.9456C16.9083 42.2756 16.8724 42.2607 16.846 42.2343C16.8195 42.2078 16.8047 42.172 16.8047 42.1346C16.8047 42.0972 16.8195 42.0614 16.846 42.0349C16.8724 42.0085 16.9083 41.9937 16.9456 41.9937H19.9781C20.0155 41.9937 20.0514 42.0085 20.0778 42.0349C20.1042 42.0614 20.1191 42.0972 20.1191 42.1346C20.1191 42.172 20.1042 42.2078 20.0778 42.2343C20.0514 42.2607 20.0155 42.2756 19.9781 42.2756Z" fill="#CADDFF"/>
<path d="M22.0832 43.0827H18.8167C18.7794 43.0827 18.7435 43.0678 18.7171 43.0414C18.6906 43.015 18.6758 42.9791 18.6758 42.9417C18.6758 42.9044 18.6906 42.8685 18.7171 42.8421C18.7435 42.8156 18.7794 42.8008 18.8167 42.8008H22.0832C22.1206 42.8008 22.1564 42.8156 22.1829 42.8421C22.2093 42.8685 22.2242 42.9044 22.2242 42.9417C22.2242 42.9791 22.2093 43.015 22.1829 43.0414C22.1564 43.0678 22.1206 43.0827 22.0832 43.0827Z" fill="#CADDFF"/>
<path d="M18.0573 43.0827H16.9456C16.9083 43.0827 16.8724 43.0678 16.846 43.0414C16.8195 43.015 16.8047 42.9791 16.8047 42.9417C16.8047 42.9044 16.8195 42.8685 16.846 42.8421C16.8724 42.8156 16.9083 42.8008 16.9456 42.8008H18.0573C18.0947 42.8008 18.1306 42.8156 18.157 42.8421C18.1834 42.8685 18.1983 42.9044 18.1983 42.9417C18.1983 42.9791 18.1834 43.015 18.157 43.0414C18.1306 43.0678 18.0947 43.0827 18.0573 43.0827Z" fill="#CADDFF"/>
<path d="M22.0822 43.8898H16.9456C16.9083 43.8898 16.8724 43.875 16.846 43.8485C16.8195 43.8221 16.8047 43.7863 16.8047 43.7489C16.8047 43.7115 16.8195 43.6756 16.846 43.6492C16.8724 43.6228 16.9083 43.6079 16.9456 43.6079H22.0822C22.1195 43.6079 22.1554 43.6228 22.1818 43.6492C22.2083 43.6756 22.2231 43.7115 22.2231 43.7489C22.2231 43.7863 22.2083 43.8221 22.1818 43.8485C22.1554 43.875 22.1195 43.8898 22.0822 43.8898Z" fill="#CADDFF"/>
<path d="M29.5371 42.2756H26.6136C26.5762 42.2756 26.5404 42.2607 26.5139 42.2343C26.4875 42.2078 26.4727 42.172 26.4727 42.1346C26.4727 42.0972 26.4875 42.0614 26.5139 42.0349C26.5404 42.0085 26.5762 41.9937 26.6136 41.9937H29.5371C29.5745 41.9937 29.6103 42.0085 29.6368 42.0349C29.6632 42.0614 29.6781 42.0972 29.6781 42.1346C29.6781 42.172 29.6632 42.2078 29.6368 42.2343C29.6103 42.2607 29.5745 42.2756 29.5371 42.2756Z" fill="#CADDFF"/>
<path d="M25.842 42.2756H24.3949C24.3575 42.2756 24.3216 42.2607 24.2952 42.2343C24.2688 42.2078 24.2539 42.172 24.2539 42.1346C24.2539 42.0972 24.2688 42.0614 24.2952 42.0349C24.3216 42.0085 24.3575 41.9937 24.3949 41.9937H25.842C25.8794 41.9937 25.9153 42.0085 25.9417 42.0349C25.9681 42.0614 25.983 42.0972 25.983 42.1346C25.983 42.172 25.9681 42.2078 25.9417 42.2343C25.9153 42.2607 25.8794 42.2756 25.842 42.2756Z" fill="#CADDFF"/>
<path d="M29.5361 43.0827H24.3949C24.3575 43.0827 24.3216 43.0678 24.2952 43.0414C24.2688 43.015 24.2539 42.9791 24.2539 42.9417C24.2539 42.9044 24.2688 42.8685 24.2952 42.8421C24.3216 42.8156 24.3575 42.8008 24.3949 42.8008H29.5323C29.5697 42.8008 29.6056 42.8156 29.632 42.8421C29.6584 42.8685 29.6733 42.9044 29.6733 42.9417C29.6733 42.9791 29.6584 43.015 29.632 43.0414C29.6056 43.0678 29.5697 43.0827 29.5323 43.0827H29.5361Z" fill="#CADDFF"/>
<path d="M29.5377 43.8898H28.598C28.5606 43.8898 28.5248 43.875 28.4983 43.8485C28.4719 43.8221 28.457 43.7863 28.457 43.7489C28.457 43.7115 28.4719 43.6756 28.4983 43.6492C28.5248 43.6228 28.5606 43.6079 28.598 43.6079H29.5377C29.5751 43.6079 29.6109 43.6228 29.6374 43.6492C29.6638 43.6756 29.6787 43.7115 29.6787 43.7489C29.6787 43.7863 29.6638 43.8221 29.6374 43.8485C29.6109 43.875 29.5751 43.8898 29.5377 43.8898Z" fill="#CADDFF"/>
<path d="M27.8465 43.8898H24.3949C24.3575 43.8898 24.3216 43.875 24.2952 43.8485C24.2688 43.8221 24.2539 43.7863 24.2539 43.7489C24.2539 43.7115 24.2688 43.6756 24.2952 43.6492C24.3216 43.6228 24.3575 43.6079 24.3949 43.6079H27.8427C27.8801 43.6079 27.9159 43.6228 27.9424 43.6492C27.9688 43.6756 27.9837 43.7115 27.9837 43.7489C27.9837 43.7863 27.9688 43.8221 27.9424 43.8485C27.9159 43.875 27.8801 43.8898 27.8427 43.8898H27.8465Z" fill="#CADDFF"/>
<path d="M36.9888 42.2756H33.8792C33.8419 42.2756 33.806 42.2607 33.7796 42.2343C33.7531 42.2078 33.7383 42.172 33.7383 42.1346C33.7383 42.0972 33.7531 42.0614 33.7796 42.0349C33.806 42.0085 33.8419 41.9937 33.8792 41.9937H36.9888C37.0262 41.9937 37.062 42.0085 37.0885 42.0349C37.1149 42.0614 37.1297 42.0972 37.1297 42.1346C37.1297 42.172 37.1149 42.2078 37.0885 42.2343C37.062 42.2607 37.0262 42.2756 36.9888 42.2756Z" fill="#CADDFF"/>
<path d="M33.051 42.2756H31.8519C31.8145 42.2756 31.7787 42.2607 31.7522 42.2343C31.7258 42.2078 31.7109 42.172 31.7109 42.1346C31.7109 42.0972 31.7258 42.0614 31.7522 42.0349C31.7787 42.0085 31.8145 41.9937 31.8519 41.9937H33.051C33.0884 41.9937 33.1242 42.0085 33.1507 42.0349C33.1771 42.0614 33.1919 42.0972 33.1919 42.1346C33.1919 42.172 33.1771 42.2078 33.1507 42.2343C33.1242 42.2607 33.0884 42.2756 33.051 42.2756Z" fill="#CADDFF"/>
<path d="M36.9868 43.0827H36.0199C35.9825 43.0827 35.9466 43.0678 35.9202 43.0414C35.8938 43.015 35.8789 42.9791 35.8789 42.9417C35.8789 42.9044 35.8938 42.8685 35.9202 42.8421C35.9466 42.8156 35.9825 42.8008 36.0199 42.8008H36.9868C37.0242 42.8008 37.0601 42.8156 37.0865 42.8421C37.1129 42.8685 37.1278 42.9044 37.1278 42.9417C37.1278 42.9791 37.1129 43.015 37.0865 43.0414C37.0601 43.0678 37.0242 43.0827 36.9868 43.0827Z" fill="#CADDFF"/>
<path d="M35.2114 43.0827H31.8519C31.8145 43.0827 31.7787 43.0678 31.7522 43.0414C31.7258 43.015 31.7109 42.9791 31.7109 42.9417C31.7109 42.9044 31.7258 42.8685 31.7522 42.8421C31.7787 42.8156 31.8145 42.8008 31.8519 42.8008H35.2114C35.2488 42.8008 35.2846 42.8156 35.3111 42.8421C35.3375 42.8685 35.3524 42.9044 35.3524 42.9417C35.3524 42.9791 35.3375 43.015 35.3111 43.0414C35.2846 43.0678 35.2488 43.0827 35.2114 43.0827Z" fill="#CADDFF"/>
<path d="M36.9862 43.8898H34.3089C34.2715 43.8898 34.2357 43.875 34.2093 43.8485C34.1828 43.8221 34.168 43.7863 34.168 43.7489C34.168 43.7115 34.1828 43.6756 34.2093 43.6492C34.2357 43.6228 34.2715 43.6079 34.3089 43.6079H36.9862C37.0236 43.6079 37.0594 43.6228 37.0859 43.6492C37.1123 43.6756 37.1272 43.7115 37.1272 43.7489C37.1272 43.7863 37.1123 43.8221 37.0859 43.8485C37.0594 43.875 37.0236 43.8898 36.9862 43.8898Z" fill="#CADDFF"/>
<path d="M33.5321 43.8898H31.8519C31.8145 43.8898 31.7787 43.875 31.7522 43.8485C31.7258 43.8221 31.7109 43.7863 31.7109 43.7489C31.7109 43.7115 31.7258 43.6756 31.7522 43.6492C31.7787 43.6228 31.8145 43.6079 31.8519 43.6079H33.5321C33.5695 43.6079 33.6054 43.6228 33.6318 43.6492C33.6582 43.6756 33.6731 43.7115 33.6731 43.7489C33.6731 43.7863 33.6582 43.8221 33.6318 43.8485C33.6054 43.875 33.5695 43.8898 33.5321 43.8898Z" fill="#CADDFF"/>
<path d="M25.0824 46.0646C25.0824 46.1377 25.0607 46.2091 25.0201 46.2698C24.9796 46.3305 24.9219 46.3779 24.8544 46.4058C24.7869 46.4338 24.7126 46.4411 24.641 46.4268C24.5694 46.4126 24.5036 46.3774 24.4519 46.3258C24.4003 46.2741 24.3651 46.2083 24.3508 46.1367C24.3366 46.065 24.3439 45.9908 24.3719 45.9233C24.3998 45.8558 24.4471 45.7981 24.5079 45.7575C24.5686 45.717 24.64 45.6953 24.7131 45.6953C24.811 45.6953 24.9049 45.7342 24.9742 45.8035C25.0435 45.8727 25.0824 45.9667 25.0824 46.0646Z" fill="black"/>
<path d="M27.3363 46.0646C27.3363 46.1377 27.3146 46.2091 27.274 46.2698C27.2335 46.3305 27.1758 46.3779 27.1083 46.4058C27.0408 46.4338 26.9666 46.4411 26.8949 46.4268C26.8233 46.4126 26.7575 46.3774 26.7058 46.3258C26.6542 46.2741 26.619 46.2083 26.6048 46.1367C26.5905 46.065 26.5978 45.9908 26.6258 45.9233C26.6537 45.8558 26.7011 45.7981 26.7618 45.7575C26.8225 45.717 26.8939 45.6953 26.967 45.6953C27.0649 45.6953 27.1589 45.7342 27.2281 45.8035C27.2974 45.8727 27.3363 45.9667 27.3363 46.0646Z" fill="black"/>
<path d="M29.5941 46.0646C29.5941 46.1377 29.5724 46.2091 29.5319 46.2698C29.4913 46.3305 29.4336 46.3779 29.3661 46.4058C29.2986 46.4338 29.2244 46.4411 29.1527 46.4268C29.0811 46.4126 29.0153 46.3774 28.9636 46.3258C28.912 46.2741 28.8768 46.2083 28.8626 46.1367C28.8483 46.065 28.8556 45.9908 28.8836 45.9233C28.9115 45.8558 28.9589 45.7981 29.0196 45.7575C29.0803 45.717 29.1517 45.6953 29.2248 45.6953C29.3227 45.6953 29.4167 45.7342 29.4859 45.8035C29.5552 45.8727 29.5941 45.9667 29.5941 46.0646Z" fill="black"/>
<path d="M70.145 29.6445H46.0957C45.2425 29.6445 44.5508 30.3362 44.5508 31.1894V47.1064C44.5508 47.9597 45.2425 48.6513 46.0957 48.6513H70.145C70.9983 48.6513 71.6899 47.9597 71.6899 47.1064V31.1894C71.6899 30.3362 70.9983 29.6445 70.145 29.6445Z" fill="#5479F7"/>
<path d="M59.0077 31.731H47.965C47.6651 31.731 47.4219 31.9741 47.4219 32.2741V43.2068C47.4219 43.5068 47.6651 43.75 47.965 43.75H59.0077C59.3077 43.75 59.5509 43.5068 59.5509 43.2068V32.2741C59.5509 31.9741 59.3077 31.731 59.0077 31.731Z" fill="#CADDFF"/>
<path d="M68.2813 32.0129C68.3505 32.0129 68.417 32.0404 68.466 32.0894C68.515 32.1384 68.5425 32.2048 68.5425 32.2741V37.6249C68.5423 37.6941 68.5146 37.7604 68.4657 37.8093C68.4168 37.8583 68.3505 37.8859 68.2813 37.8861H62.8713C62.8021 37.8859 62.7358 37.8583 62.6868 37.8093C62.6379 37.7604 62.6103 37.6941 62.61 37.6249V32.2741C62.61 32.2048 62.6376 32.1384 62.6866 32.0894C62.7355 32.0404 62.802 32.0129 62.8713 32.0129H68.2813ZM68.2813 31.731H62.8713C62.7272 31.731 62.5891 31.7882 62.4872 31.89C62.3853 31.9919 62.3281 32.1301 62.3281 32.2741V37.6249C62.3281 37.7689 62.3853 37.9071 62.4872 38.009C62.5891 38.1108 62.7272 38.168 62.8713 38.168H68.2813C68.4253 38.168 68.5635 38.1108 68.6653 38.009C68.7672 37.9071 68.8244 37.7689 68.8244 37.6249V32.2741C68.8244 32.1301 68.7672 31.9919 68.6653 31.89C68.5635 31.7882 68.4253 31.731 68.2813 31.731Z" fill="black"/>
<path d="M68.1424 40.0597H66.7855C66.7481 40.0597 66.7123 40.0449 66.6858 40.0185C66.6594 39.992 66.6445 39.9562 66.6445 39.9188C66.6445 39.8814 66.6594 39.8456 66.6858 39.8191C66.7123 39.7927 66.7481 39.7778 66.7855 39.7778H68.1424C68.1798 39.7778 68.2157 39.7927 68.2421 39.8191C68.2686 39.8456 68.2834 39.8814 68.2834 39.9188C68.2834 39.9562 68.2686 39.992 68.2421 40.0185C68.2157 40.0449 68.1798 40.0597 68.1424 40.0597Z" fill="white"/>
<path d="M66.0453 40.0597H63.0081C62.9708 40.0597 62.9349 40.0449 62.9085 40.0185C62.882 39.992 62.8672 39.9562 62.8672 39.9188C62.8672 39.8814 62.882 39.8456 62.9085 39.8191C62.9349 39.7927 62.9708 39.7778 63.0081 39.7778H66.0453C66.0827 39.7778 66.1186 39.7927 66.145 39.8191C66.1714 39.8456 66.1863 39.8814 66.1863 39.9188C66.1863 39.9562 66.1714 39.992 66.145 40.0185C66.1186 40.0449 66.0827 40.0597 66.0453 40.0597Z" fill="white"/>
<path d="M68.1427 40.8669H64.8753C64.8379 40.8669 64.8021 40.852 64.7757 40.8256C64.7492 40.7992 64.7344 40.7633 64.7344 40.7259C64.7344 40.6885 64.7492 40.6527 64.7757 40.6262C64.8021 40.5998 64.8379 40.585 64.8753 40.585H68.1427C68.1801 40.585 68.216 40.5998 68.2424 40.6262C68.2688 40.6527 68.2837 40.6885 68.2837 40.7259C68.2837 40.7633 68.2688 40.7992 68.2424 40.8256C68.216 40.852 68.1801 40.8669 68.1427 40.8669Z" fill="white"/>
<path d="M64.1208 40.8669H63.0081C62.9708 40.8669 62.9349 40.852 62.9085 40.8256C62.882 40.7992 62.8672 40.7633 62.8672 40.7259C62.8672 40.6885 62.882 40.6527 62.9085 40.6262C62.9349 40.5998 62.9708 40.585 63.0081 40.585H64.1208C64.1582 40.585 64.194 40.5998 64.2204 40.6262C64.2469 40.6527 64.2617 40.6885 64.2617 40.7259C64.2617 40.7633 64.2469 40.7992 64.2204 40.8256C64.194 40.852 64.1582 40.8669 64.1208 40.8669Z" fill="white"/>
<path d="M68.1424 42.4567H66.7855C66.7481 42.4567 66.7123 42.4419 66.6858 42.4154C66.6594 42.389 66.6445 42.3531 66.6445 42.3158C66.6445 42.2784 66.6594 42.2425 66.6858 42.2161C66.7123 42.1897 66.7481 42.1748 66.7855 42.1748H68.1424C68.1798 42.1748 68.2157 42.1897 68.2421 42.2161C68.2686 42.2425 68.2834 42.2784 68.2834 42.3158C68.2834 42.3531 68.2686 42.389 68.2421 42.4154C68.2157 42.4419 68.1798 42.4567 68.1424 42.4567Z" fill="white"/>
<path d="M66.0453 42.4567H63.0081C62.9708 42.4567 62.9349 42.4419 62.9085 42.4154C62.882 42.389 62.8672 42.3531 62.8672 42.3158C62.8672 42.2784 62.882 42.2425 62.9085 42.2161C62.9349 42.1897 62.9708 42.1748 63.0081 42.1748H66.0453C66.0827 42.1748 66.1186 42.1897 66.145 42.2161C66.1714 42.2425 66.1863 42.2784 66.1863 42.3158C66.1863 42.3531 66.1714 42.389 66.145 42.4154C66.1186 42.4419 66.0827 42.4567 66.0453 42.4567Z" fill="white"/>
<path d="M68.1427 43.2648H64.8753C64.8379 43.2648 64.8021 43.25 64.7757 43.2235C64.7492 43.1971 64.7344 43.1613 64.7344 43.1239C64.7344 43.0865 64.7492 43.0506 64.7757 43.0242C64.8021 42.9978 64.8379 42.9829 64.8753 42.9829H68.1427C68.1801 42.9829 68.216 42.9978 68.2424 43.0242C68.2688 43.0506 68.2837 43.0865 68.2837 43.1239C68.2837 43.1613 68.2688 43.1971 68.2424 43.2235C68.216 43.25 68.1801 43.2648 68.1427 43.2648Z" fill="white"/>
<path d="M64.1208 43.2648H63.0081C62.9708 43.2648 62.9349 43.25 62.9085 43.2235C62.882 43.1971 62.8672 43.1613 62.8672 43.1239C62.8672 43.0865 62.882 43.0506 62.9085 43.0242C62.9349 42.9978 62.9708 42.9829 63.0081 42.9829H64.1208C64.1582 42.9829 64.194 42.9978 64.2204 43.0242C64.2469 43.0506 64.2617 43.0865 64.2617 43.1239C64.2617 43.1613 64.2469 43.1971 64.2204 43.2235C64.194 43.25 64.1582 43.2648 64.1208 43.2648Z" fill="white"/>
<path d="M68.1456 41.675H63.0081C62.9708 41.675 62.9349 41.6601 62.9085 41.6337C62.882 41.6073 62.8672 41.5714 62.8672 41.534C62.8672 41.4966 62.882 41.4608 62.9085 41.4344C62.9349 41.4079 62.9708 41.3931 63.0081 41.3931H68.1456C68.183 41.3931 68.2188 41.4079 68.2453 41.4344C68.2717 41.4608 68.2866 41.4966 68.2866 41.534C68.2866 41.5714 68.2717 41.6073 68.2453 41.6337C68.2188 41.6601 68.183 41.675 68.1456 41.675Z" fill="white"/>
<path d="M56.2386 46.0646C56.2386 46.1377 56.217 46.2091 56.1764 46.2698C56.1358 46.3305 56.0781 46.3779 56.0106 46.4058C55.9432 46.4338 55.8689 46.4411 55.7973 46.4268C55.7256 46.4126 55.6598 46.3774 55.6082 46.3258C55.5565 46.2741 55.5213 46.2083 55.5071 46.1367C55.4928 46.065 55.5002 45.9908 55.5281 45.9233C55.5561 45.8558 55.6034 45.7981 55.6641 45.7575C55.7249 45.717 55.7963 45.6953 55.8693 45.6953C55.9673 45.6953 56.0612 45.7342 56.1304 45.8035C56.1997 45.8727 56.2386 45.9667 56.2386 46.0646Z" fill="black"/>
<path d="M58.4925 46.0646C58.4925 46.1377 58.4709 46.2091 58.4303 46.2698C58.3897 46.3305 58.332 46.3779 58.2645 46.4058C58.1971 46.4338 58.1228 46.4411 58.0512 46.4268C57.9795 46.4126 57.9137 46.3774 57.8621 46.3258C57.8104 46.2741 57.7753 46.2083 57.761 46.1367C57.7468 46.065 57.7541 45.9908 57.782 45.9233C57.81 45.8558 57.8573 45.7981 57.918 45.7575C57.9788 45.717 58.0502 45.6953 58.1232 45.6953C58.2212 45.6953 58.3151 45.7342 58.3844 45.8035C58.4536 45.8727 58.4925 45.9667 58.4925 46.0646Z" fill="black"/>
<path d="M60.7464 46.0644C60.7464 46.1374 60.7248 46.2088 60.6842 46.2696C60.6436 46.3303 60.5859 46.3776 60.5184 46.4056C60.451 46.4335 60.3767 46.4408 60.3051 46.4266C60.2334 46.4123 60.1676 46.3772 60.116 46.3255C60.0643 46.2739 60.0292 46.2081 60.0149 46.1364C60.0007 46.0648 60.008 45.9905 60.0359 45.923C60.0639 45.8556 60.1112 45.7979 60.1719 45.7573C60.2327 45.7167 60.3041 45.6951 60.3771 45.6951C60.4751 45.6951 60.569 45.734 60.6383 45.8032C60.7075 45.8725 60.7464 45.9664 60.7464 46.0644Z" fill="black"/>
<path d="M70.145 52.8315H46.0957C45.2425 52.8315 44.5508 53.5232 44.5508 54.3764V70.2934C44.5508 71.1467 45.2425 71.8383 46.0957 71.8383H70.145C70.9983 71.8383 71.6899 71.1467 71.6899 70.2934V54.3764C71.6899 53.5232 70.9983 52.8315 70.145 52.8315Z" fill="#5479F7"/>
<path d="M61.0938 56.6702H55.6838C55.3838 56.6702 55.1406 56.9133 55.1406 57.2133V62.5641C55.1406 62.8641 55.3838 63.1073 55.6838 63.1073H61.0938C61.3937 63.1073 61.6369 62.8641 61.6369 62.5641V57.2133C61.6369 56.9133 61.3937 56.6702 61.0938 56.6702Z" fill="white"/>
<path d="M60.9589 64.9977H59.6019C59.5645 64.9977 59.5287 64.9829 59.5022 64.9565C59.4758 64.93 59.4609 64.8942 59.4609 64.8568C59.4609 64.8194 59.4758 64.7835 59.5022 64.7571C59.5287 64.7307 59.5645 64.7158 59.6019 64.7158H60.9589C60.9962 64.7158 61.0321 64.7307 61.0585 64.7571C61.085 64.7835 61.0998 64.8194 61.0998 64.8568C61.0998 64.8942 61.085 64.93 61.0585 64.9565C61.0321 64.9829 60.9962 64.9977 60.9589 64.9977Z" fill="white"/>
<path d="M58.8578 64.998H55.8206C55.7833 64.998 55.7474 64.9831 55.721 64.9567C55.6945 64.9303 55.6797 64.8944 55.6797 64.857C55.6797 64.8196 55.6945 64.7838 55.721 64.7573C55.7474 64.7309 55.7833 64.7161 55.8206 64.7161H58.8578C58.8952 64.7161 58.9311 64.7309 58.9575 64.7573C58.9839 64.7838 58.9988 64.8196 58.9988 64.857C58.9988 64.8944 58.9839 64.9303 58.9575 64.9567C58.9311 64.9831 58.8952 64.998 58.8578 64.998Z" fill="white"/>
<path d="M60.9831 67.6695C60.9831 67.8274 60.9205 67.9789 60.809 68.0908C60.6975 68.2026 60.5462 68.2657 60.3883 68.2662H56.7647C56.6064 68.2662 56.4547 68.2033 56.3427 68.0914C56.2308 67.9795 56.168 67.8277 56.168 67.6695C56.168 67.5112 56.2308 67.3594 56.3427 67.2475C56.4547 67.1356 56.6064 67.0728 56.7647 67.0728H60.3883C60.5462 67.0733 60.6975 67.1363 60.809 67.2482C60.9205 67.36 60.9831 67.5115 60.9831 67.6695Z" fill="#CADDFF"/>
<path d="M57.114 67.6693C57.114 67.7119 57.1014 67.7535 57.0777 67.7889C57.0541 67.8242 57.0205 67.8518 56.9811 67.8681C56.9418 67.8844 56.8986 67.8887 56.8568 67.8804C56.8151 67.8721 56.7767 67.8516 56.7466 67.8215C56.7165 67.7914 56.696 67.753 56.6877 67.7113C56.6794 67.6695 56.6837 67.6263 56.7 67.5869C56.7163 67.5476 56.7438 67.514 56.7792 67.4904C56.8146 67.4667 56.8562 67.4541 56.8988 67.4541C56.9271 67.454 56.9551 67.4595 56.9813 67.4702C57.0075 67.481 57.0312 67.4968 57.0512 67.5169C57.0712 67.5369 57.0871 67.5606 57.0979 67.5868C57.1086 67.613 57.1141 67.641 57.114 67.6693Z" fill="#5479F7"/>
<path d="M57.9187 67.6695C57.9187 67.7121 57.9061 67.7537 57.8824 67.7891C57.8588 67.8245 57.8252 67.8521 57.7858 67.8684C57.7465 67.8846 57.7032 67.8889 57.6615 67.8806C57.6198 67.8723 57.5814 67.8518 57.5513 67.8217C57.5212 67.7916 57.5007 67.7533 57.4924 67.7115C57.4841 67.6698 57.4884 67.6265 57.5047 67.5872C57.5209 67.5479 57.5485 67.5143 57.5839 67.4906C57.6193 67.467 57.6609 67.4543 57.7035 67.4543C57.7318 67.4542 57.7598 67.4597 57.786 67.4705C57.8121 67.4812 57.8359 67.4971 57.8559 67.5171C57.8759 67.5371 57.8918 67.5609 57.9025 67.587C57.9133 67.6132 57.9188 67.6412 57.9187 67.6695Z" fill="#5479F7"/>
<path d="M58.7234 67.6695C58.7234 67.7121 58.7107 67.7537 58.6871 67.7891C58.6634 67.8245 58.6298 67.8521 58.5905 67.8684C58.5512 67.8846 58.5079 67.8889 58.4662 67.8806C58.4244 67.8723 58.3861 67.8518 58.356 67.8217C58.3259 67.7916 58.3054 67.7533 58.2971 67.7115C58.2888 67.6698 58.2931 67.6265 58.3093 67.5872C58.3256 67.5479 58.3532 67.5143 58.3886 67.4906C58.424 67.467 58.4656 67.4543 58.5082 67.4543C58.5365 67.4542 58.5645 67.4597 58.5907 67.4705C58.6168 67.4812 58.6406 67.4971 58.6606 67.5171C58.6806 67.5371 58.6965 67.5609 58.7072 67.587C58.718 67.6132 58.7235 67.6412 58.7234 67.6695Z" fill="#5479F7"/>
<path d="M59.526 67.6695C59.5262 67.7124 59.5137 67.7543 59.49 67.79C59.4663 67.8257 59.4326 67.8535 59.393 67.87C59.3535 67.8865 59.31 67.8908 59.2679 67.8825C59.2259 67.8742 59.1873 67.8536 59.1571 67.8233C59.1268 67.793 59.1062 67.7544 59.0979 67.7124C59.0895 67.6704 59.0939 67.6269 59.1104 67.5873C59.1269 67.5478 59.1547 67.5141 59.1904 67.4904C59.2261 67.4667 59.268 67.4542 59.3108 67.4543C59.3679 67.4543 59.4226 67.477 59.463 67.5174C59.5033 67.5577 59.526 67.6125 59.526 67.6695Z" fill="black"/>
<path d="M60.3307 67.6693C60.3309 67.7121 60.3183 67.754 60.2947 67.7897C60.271 67.8254 60.2372 67.8533 60.1977 67.8697C60.1582 67.8862 60.1146 67.8906 60.0726 67.8823C60.0306 67.874 59.992 67.8534 59.9617 67.8231C59.9315 67.7928 59.9109 67.7542 59.9025 67.7122C59.8942 67.6702 59.8986 67.6266 59.9151 67.5871C59.9315 67.5476 59.9594 67.5138 59.9951 67.4901C60.0308 67.4665 60.0727 67.4539 60.1155 67.4541C60.1726 67.4541 60.2273 67.4768 60.2677 67.5171C60.308 67.5575 60.3307 67.6122 60.3307 67.6693Z" fill="#5479F7"/>
<path d="M69.0469 57.0002H66.5238C66.4864 57.0002 66.4505 56.9853 66.4241 56.9589C66.3977 56.9325 66.3828 56.8966 66.3828 56.8592C66.3828 56.8218 66.3977 56.786 66.4241 56.7595C66.4505 56.7331 66.4864 56.7183 66.5238 56.7183H69.0469C69.0843 56.7183 69.1202 56.7331 69.1466 56.7595C69.173 56.786 69.1879 56.8218 69.1879 56.8592C69.1879 56.8966 69.173 56.9325 69.1466 56.9589C69.1202 56.9853 69.0843 57.0002 69.0469 57.0002Z" fill="black"/>
<path d="M65.7805 57.0002H63.9105C63.8731 57.0002 63.8373 56.9853 63.8108 56.9589C63.7844 56.9325 63.7695 56.8966 63.7695 56.8592C63.7695 56.8218 63.7844 56.786 63.8108 56.7595C63.8373 56.7331 63.8731 56.7183 63.9105 56.7183H65.7805C65.8179 56.7183 65.8538 56.7331 65.8802 56.7595C65.9066 56.786 65.9215 56.8218 65.9215 56.8592C65.9215 56.8966 65.9066 56.9325 65.8802 56.9589C65.8538 56.9853 65.8179 57.0002 65.7805 57.0002Z" fill="black"/>
<path d="M69.0478 57.8071H67.7933C67.7559 57.8071 67.7201 57.7922 67.6936 57.7658C67.6672 57.7393 67.6523 57.7035 67.6523 57.6661C67.6523 57.6287 67.6672 57.5929 67.6936 57.5664C67.7201 57.54 67.7559 57.5251 67.7933 57.5251H69.0478C69.0852 57.5251 69.1211 57.54 69.1475 57.5664C69.1739 57.5929 69.1888 57.6287 69.1888 57.6661C69.1888 57.7035 69.1739 57.7393 69.1475 57.7658C69.1211 57.7922 69.0852 57.8071 69.0478 57.8071Z" fill="black"/>
<path d="M67.0351 57.8073H63.9105C63.8731 57.8073 63.8373 57.7925 63.8108 57.766C63.7844 57.7396 63.7695 57.7037 63.7695 57.6663C63.7695 57.629 63.7844 57.5931 63.8108 57.5667C63.8373 57.5402 63.8731 57.5254 63.9105 57.5254H67.0351C67.0724 57.5254 67.1083 57.5402 67.1347 57.5667C67.1612 57.5931 67.176 57.629 67.176 57.6663C67.176 57.7037 67.1612 57.7396 67.1347 57.766C67.1083 57.7925 67.0724 57.8073 67.0351 57.8073Z" fill="black"/>
<path d="M69.047 58.6154H63.9105C63.8731 58.6154 63.8373 58.6006 63.8108 58.5741C63.7844 58.5477 63.7695 58.5118 63.7695 58.4745C63.7695 58.4371 63.7844 58.4012 63.8108 58.3748C63.8373 58.3483 63.8731 58.3335 63.9105 58.3335H69.047C69.0844 58.3335 69.1202 58.3483 69.1467 58.3748C69.1731 58.4012 69.188 58.4371 69.188 58.4745C69.188 58.5118 69.1731 58.5477 69.1467 58.5741C69.1202 58.6006 69.0844 58.6154 69.047 58.6154Z" fill="black"/>
<path d="M52.9336 56.9999H50.4105C50.3731 56.9999 50.3373 56.9851 50.3108 56.9586C50.2844 56.9322 50.2695 56.8964 50.2695 56.859C50.2695 56.8216 50.2844 56.7857 50.3108 56.7593C50.3373 56.7329 50.3731 56.718 50.4105 56.718H52.9336C52.971 56.718 53.0069 56.7329 53.0333 56.7593C53.0597 56.7857 53.0746 56.8216 53.0746 56.859C53.0746 56.8964 53.0597 56.9322 53.0333 56.9586C53.0069 56.9851 52.971 56.9999 52.9336 56.9999Z" fill="black"/>
<path d="M49.6652 57.0002H47.7933C47.7559 57.0002 47.7201 56.9853 47.6936 56.9589C47.6672 56.9325 47.6523 56.8966 47.6523 56.8592C47.6523 56.8218 47.6672 56.786 47.6936 56.7595C47.7201 56.7331 47.7559 56.7183 47.7933 56.7183H49.6633C49.7007 56.7183 49.7366 56.7331 49.763 56.7595C49.7895 56.786 49.8043 56.8218 49.8043 56.8592C49.8043 56.8966 49.7895 56.9325 49.763 56.9589C49.7366 56.9853 49.7007 57.0002 49.6633 57.0002H49.6652Z" fill="black"/>
<path d="M52.9313 57.8073H51.3949C51.3575 57.8073 51.3216 57.7925 51.2952 57.766C51.2688 57.7396 51.2539 57.7037 51.2539 57.6663C51.2539 57.629 51.2688 57.5931 51.2952 57.5667C51.3216 57.5402 51.3575 57.5254 51.3949 57.5254H52.9313C52.9687 57.5254 53.0045 57.5402 53.031 57.5667C53.0574 57.5931 53.0723 57.629 53.0723 57.6663C53.0723 57.7037 53.0574 57.7396 53.031 57.766C53.0045 57.7925 52.9687 57.8073 52.9313 57.8073Z" fill="black"/>
<path d="M50.6378 57.8073H47.7933C47.7559 57.8073 47.7201 57.7925 47.6936 57.766C47.6672 57.7396 47.6523 57.7037 47.6523 57.6663C47.6523 57.629 47.6672 57.5931 47.6936 57.5667C47.7201 57.5402 47.7559 57.5254 47.7933 57.5254H50.636C50.6733 57.5254 50.7092 57.5402 50.7356 57.5667C50.7621 57.5931 50.7769 57.629 50.7769 57.6663C50.7769 57.7037 50.7621 57.7396 50.7356 57.766C50.7092 57.7925 50.6733 57.8073 50.636 57.8073H50.6378Z" fill="black"/>
<path d="M47.5223 77.4463H37.207L44.3339 65.6857C44.4473 65.5029 44.6061 65.3525 44.7948 65.2491C44.9835 65.1457 45.1957 65.0928 45.4108 65.0956H53.7818C54.3137 65.0956 54.6624 65.6641 54.3974 66.1011L47.5223 77.4463Z" fill="black"/>
<path d="M47.3429 71.3965C47.0309 71.9124 46.328 72.3297 45.7745 72.3297C45.221 72.3297 45.0228 71.9124 45.3366 71.3965C45.6505 70.8806 46.3515 70.4634 46.906 70.4634C47.4604 70.4634 47.6559 70.8816 47.3429 71.3965Z" fill="#CADDFF"/>
<path d="M24.9492 77.3467H47.7619V77.4914C47.7619 77.7872 47.6444 78.071 47.4352 78.2801C47.226 78.4893 46.9423 78.6068 46.6464 78.6068H26.0665C25.7707 78.6068 25.487 78.4893 25.2778 78.2801C25.0686 78.071 24.9511 77.7872 24.9511 77.4914V77.3467H24.9492Z" fill="black"/>
<path d="M47.084 77.5998H36.6136C36.5762 77.5998 36.5404 77.5849 36.5139 77.5585C36.4875 77.5321 36.4727 77.4962 36.4727 77.4588C36.4727 77.4214 36.4875 77.3856 36.5139 77.3592C36.5404 77.3327 36.5762 77.3179 36.6136 77.3179H47.084C47.1214 77.3179 47.1572 77.3327 47.1837 77.3592C47.2101 77.3856 47.2249 77.4214 47.2249 77.4588C47.2249 77.4962 47.2101 77.5321 47.1837 77.5585C47.1572 77.5849 47.1214 77.5998 47.084 77.5998Z" fill="white"/>
<path d="M16.5374 56.689C14.8835 57.0649 13.4053 55.9316 12.849 55.2991C12.4327 54.8293 12.4036 54.4947 12.4064 54.3397C12.4186 53.8134 12.8528 53.4366 13.0238 53.2787C14.6091 51.8193 14.0801 50.374 15.469 49.6063C16.2104 49.1956 16.9725 49.3244 17.9658 49.4841C18.6311 49.5894 20.8846 49.9455 21.2003 51.1625C21.3723 51.8203 20.6985 52.6256 19.3453 54.2053C18.04 55.7305 17.3691 56.501 16.5374 56.689Z" fill="black"/>
<path d="M19.5385 52.4893C19.5385 52.4893 16.8499 52.6058 16.1198 52.9657C15.3896 53.3256 16.2222 55.221 16.2222 55.221C16.2222 55.221 15.0842 54.6704 14.8662 55.4259C14.6482 56.1814 16.1085 56.3083 16.1085 56.3083L12.6484 60.834L17.877 60.7926L18.8393 58.105C18.8393 58.105 19.7236 58.542 20.2076 58.1718C20.6915 57.8015 20.8823 56.0414 20.8823 56.0414C20.9473 56.0012 21.0031 55.9477 21.0462 55.8845C21.0892 55.8213 21.1184 55.7498 21.132 55.6745C21.1455 55.5993 21.1431 55.522 21.1249 55.4478C21.1066 55.3735 21.0729 55.304 21.0261 55.2436L20.6727 54.7906C20.4572 54.5121 20.3153 54.1837 20.2602 53.8359C20.1849 53.3729 19.9721 52.9433 19.6494 52.603L19.5385 52.4893Z" fill="white"/>
<path d="M12.6491 60.9749C12.623 60.9749 12.5973 60.9677 12.5749 60.9541C12.5525 60.9405 12.5343 60.921 12.5223 60.8978C12.5108 60.874 12.506 60.8475 12.5085 60.8211C12.5109 60.7948 12.5206 60.7696 12.5364 60.7484L15.848 56.4106C15.536 56.3552 15.0238 56.2227 14.8058 55.9013C14.7543 55.8264 14.7207 55.7407 14.7075 55.6508C14.6943 55.5608 14.7019 55.4691 14.7297 55.3826C14.753 55.2879 14.7976 55.1998 14.8601 55.1251C14.9227 55.0503 15.0015 54.9909 15.0905 54.9512C15.3649 54.8291 15.7192 54.8939 15.9711 54.971C15.7521 54.3827 15.3978 53.1629 16.0566 52.8387C16.8084 52.4704 19.4208 52.3538 19.5335 52.3482C19.5536 52.3476 19.5737 52.3512 19.5923 52.3588C19.6109 52.3664 19.6277 52.3779 19.6416 52.3924L19.7487 52.5051C20.0923 52.8655 20.3184 53.3216 20.3972 53.8132C20.4501 54.1371 20.5835 54.4424 20.7853 54.7013L21.1395 55.157C21.1949 55.2282 21.2358 55.3097 21.2596 55.3967C21.2835 55.4837 21.2899 55.5745 21.2786 55.664C21.2672 55.7535 21.2383 55.8399 21.1935 55.9182C21.1486 55.9965 21.0888 56.0652 21.0174 56.1203C20.9741 56.4792 20.7749 57.917 20.2957 58.2816C19.8709 58.6077 19.2131 58.4066 18.9237 58.2919L18.0121 60.8376C18.0025 60.8649 17.9847 60.8886 17.9612 60.9054C17.9376 60.9222 17.9095 60.9313 17.8806 60.9316L12.652 60.973L12.6491 60.9749ZM15.4505 55.1664C15.3671 55.1639 15.2842 55.1789 15.2071 55.2106C15.1558 55.2339 15.1106 55.2688 15.0751 55.3125C15.0395 55.3562 15.0146 55.4075 15.0022 55.4624C14.9859 55.5091 14.9808 55.5589 14.9874 55.6079C14.9939 55.6569 15.0119 55.7036 15.0398 55.7444C15.2362 56.0263 15.8856 56.1466 16.1214 56.1663C16.1458 56.1691 16.169 56.1782 16.1887 56.1927C16.2085 56.2072 16.2241 56.2266 16.234 56.249C16.244 56.2714 16.248 56.296 16.2455 56.3204C16.2431 56.3448 16.2343 56.3681 16.2201 56.3881L12.9367 60.6892L17.7791 60.6506L18.7085 58.0561C18.715 58.0372 18.7254 58.0199 18.7392 58.0055C18.753 57.9911 18.7698 57.9798 18.7883 57.9724C18.8064 57.9644 18.8259 57.9602 18.8457 57.9602C18.8654 57.9602 18.885 57.9644 18.903 57.9724C19.1276 58.0824 19.7854 58.3126 20.1246 58.0533C20.4817 57.7798 20.6932 56.4924 20.7448 56.0197C20.7471 55.9983 20.7542 55.9777 20.7656 55.9595C20.777 55.9413 20.7924 55.9259 20.8106 55.9145C20.8589 55.8847 20.9003 55.8451 20.9322 55.7983C20.9641 55.7514 20.9857 55.6984 20.9958 55.6426C21.0058 55.5869 21.0039 55.5296 20.9903 55.4746C20.9767 55.4196 20.9517 55.368 20.9168 55.3234L20.5625 54.8685C20.3321 54.572 20.1797 54.2224 20.119 53.8518C20.0489 53.4165 19.8487 53.0125 19.5448 52.6931L19.4819 52.6264C19.0721 52.647 16.8178 52.773 16.1825 53.0849C15.6863 53.3293 16.1506 54.6947 16.3526 55.1523C16.3646 55.1786 16.3682 55.208 16.3631 55.2364C16.3579 55.2649 16.3442 55.291 16.3238 55.3115C16.3034 55.3319 16.2772 55.3456 16.2487 55.3508C16.2203 55.3559 16.191 55.3523 16.1646 55.3403C15.9402 55.2362 15.6976 55.1772 15.4505 55.1664Z" fill="black"/>
<path d="M18.8425 58.2461C18.8206 58.2461 18.799 58.241 18.7795 58.2311C18.3576 58.0301 17.9909 57.7295 17.711 57.3552C17.6903 57.3241 17.6829 57.286 17.6903 57.2493C17.6977 57.2127 17.7194 57.1805 17.7505 57.1598C17.7817 57.1391 17.8198 57.1316 17.8564 57.139C17.8931 57.1464 17.9253 57.1681 17.946 57.1992C18.1998 57.5312 18.5286 57.7985 18.9054 57.9792C18.9337 57.9934 18.9564 58.0168 18.9698 58.0455C18.9832 58.0743 18.9865 58.1067 18.9793 58.1375C18.972 58.1683 18.9545 58.1958 18.9297 58.2155C18.9049 58.2352 18.8742 58.246 18.8425 58.2461Z" fill="black"/>
<path d="M37.0041 57.8296L33.5422 58.337C33.5422 58.337 32.1326 63.7301 28.6152 63.9077C27.2554 63.9919 25.9045 63.6364 24.7623 62.8937C23.4429 62.0275 21.9286 61.5033 20.356 61.3686L14.0251 60.848C12.3135 60.7065 10.598 61.0702 9.09101 61.894C7.58405 62.7178 6.35182 63.9655 5.54692 65.4827C3.7887 68.799 2.82172 73.2222 1.43187 77.1578C1.37199 77.3257 1.35331 77.5056 1.3774 77.6823C1.4015 77.859 1.46767 78.0273 1.57035 78.173C1.67303 78.3188 1.80922 78.4378 1.96746 78.52C2.12569 78.6022 2.30135 78.6452 2.47966 78.6454H18.0621L21.7581 69.3891C23.5999 70.1738 26.4379 70.8654 30.4242 70.498C38.8525 69.7189 37.0041 57.8296 37.0041 57.8296Z" fill="#5479F7"/>
<path d="M18.0625 78.7835C18.0445 78.7834 18.0266 78.7799 18.0099 78.7732C17.9922 78.7663 17.976 78.7559 17.9624 78.7426C17.9488 78.7293 17.938 78.7135 17.9306 78.6959C17.9232 78.6784 17.9195 78.6596 17.9195 78.6406C17.9196 78.6215 17.9235 78.6027 17.9309 78.5852L21.6278 69.3299C21.6346 69.3123 21.6449 69.2963 21.6582 69.2829C21.6715 69.2695 21.6873 69.2589 21.7049 69.2519C21.7221 69.2447 21.7406 69.241 21.7594 69.241C21.7781 69.241 21.7966 69.2447 21.8139 69.2519C23.479 69.9614 26.3245 70.7273 30.4114 70.3505C32.3651 70.17 33.9147 69.3619 35.016 67.9457C37.6012 64.6304 37.0035 58.9432 36.8814 57.9847L33.6515 58.4545C33.4429 59.1932 31.9929 63.8701 28.6193 64.0393C27.2304 64.1276 25.85 63.7651 24.6838 63.0056C23.3821 62.1525 21.889 61.6359 20.3385 61.502L14.0076 60.9805C12.3233 60.84 10.6348 61.1973 9.15181 62.0081C7.6688 62.8188 6.45659 64.0473 5.66569 65.541C4.50607 67.7286 3.67348 70.4642 2.86814 73.1095C2.69961 73.6633 2.52984 74.2162 2.35881 74.7681C2.35375 74.7863 2.34507 74.8033 2.33329 74.8181C2.32152 74.8329 2.30688 74.8452 2.29026 74.8542C2.27364 74.8633 2.25537 74.8689 2.23655 74.8707C2.21772 74.8725 2.19872 74.8705 2.18068 74.8648C2.16263 74.8592 2.14592 74.8499 2.13153 74.8376C2.11714 74.8254 2.10536 74.8103 2.0969 74.7934C2.08845 74.7765 2.08348 74.758 2.08231 74.7392C2.08113 74.7203 2.08376 74.7014 2.09005 74.6835C2.26202 74.1338 2.43023 73.5803 2.59844 73.0277C3.40754 70.3693 4.24389 67.6206 5.4176 65.4094C6.23419 63.8668 7.48596 62.598 9.01744 61.7607C10.5489 60.9234 12.2926 60.5544 14.032 60.6995L20.362 61.2211C21.9609 61.3608 23.5 61.8958 24.8407 62.7782C25.9572 63.5051 27.2784 63.8525 28.608 63.7687C31.991 63.5986 33.3922 58.3559 33.4063 58.3032C33.4133 58.2765 33.4279 58.2523 33.4485 58.2338C33.469 58.2153 33.4945 58.2032 33.5218 58.1989L36.9838 57.6924C37.0205 57.687 37.0579 57.6963 37.0878 57.7183C37.1177 57.7403 37.1377 57.7732 37.1435 57.8099C37.1539 57.8757 38.1312 64.4208 35.2406 68.1261C34.0876 69.6053 32.4712 70.4501 30.4377 70.638C26.3969 71.0139 23.5476 70.279 21.8364 69.5743L18.195 78.6952C18.1844 78.7216 18.1661 78.7441 18.1424 78.7599C18.1188 78.7756 18.0909 78.7839 18.0625 78.7835Z" fill="black"/>
<path d="M22.4481 71.2304C19.8309 70.364 18.4167 66.2959 18.4167 66.2959L10.7109 67.8474C10.7109 67.8474 16.0523 76.3716 19.7323 77.1506C22.0261 77.6365 26.6355 75.4723 29.7873 73.7676C29.3832 72.8758 28.8034 71.595 28.373 70.6534C26.0688 71.2191 23.6368 71.6241 22.4481 71.2304Z" fill="#5479F7"/>
<path d="M20.4632 77.3619C20.208 77.3645 19.9531 77.3402 19.703 77.2895C16.0061 76.5058 10.8104 68.2729 10.5877 67.9224C10.5768 67.9067 10.5692 67.889 10.5654 67.8703C10.5615 67.8516 10.5615 67.8324 10.5654 67.8137C10.5692 67.795 10.5768 67.7773 10.5877 67.7616C10.5986 67.7459 10.6125 67.7326 10.6287 67.7225C10.6448 67.7124 10.6629 67.7057 10.6817 67.7027C10.7006 67.6998 10.7198 67.7007 10.7383 67.7054C10.7568 67.7101 10.7741 67.7186 10.7893 67.7302C10.8044 67.7418 10.817 67.7563 10.8264 67.773C10.8799 67.8575 16.1781 76.2549 19.7593 77.0142C21.4706 77.3779 24.9616 76.2051 29.5982 73.712C29.2082 72.8493 28.6876 71.701 28.2826 70.8242C25.392 71.5187 23.412 71.701 22.3962 71.3646C19.7434 70.4859 18.3347 66.5109 18.2755 66.3418C18.2631 66.3064 18.2652 66.2675 18.2814 66.2337C18.2976 66.1998 18.3266 66.1738 18.362 66.1614C18.3974 66.1489 18.4363 66.151 18.4701 66.1672C18.5039 66.1834 18.5299 66.2124 18.5424 66.2478C18.5565 66.2873 19.9642 70.2604 22.4892 71.0949C23.4534 71.4135 25.4747 71.2152 28.3334 70.5207C28.3652 70.5133 28.3985 70.517 28.428 70.5312C28.4574 70.5454 28.481 70.5692 28.495 70.5987C28.9207 71.529 29.4986 72.8061 29.9093 73.7139C29.9241 73.7464 29.926 73.7832 29.9146 73.8171C29.9033 73.8509 29.8796 73.8792 29.8482 73.8962C26.8289 75.5304 22.8933 77.3619 20.4632 77.3619Z" fill="black"/>
<path d="M38.1542 71.5589L34.5833 69.5771C34.3108 69.4258 34.0102 69.332 33.7 69.3016C33.3898 69.2712 33.0766 69.3048 32.78 69.4004C31.7857 69.7208 30.113 70.2349 28.3633 70.6596C28.7937 71.5993 29.3735 72.8821 29.7776 73.7739C31.6805 72.7458 33.0497 71.8878 33.0497 71.8878L35.352 73.101C35.352 73.101 35.2242 75.1224 35.6809 75.1778C36.1376 75.2332 36.3105 73.3688 36.3105 73.3688C36.3105 73.3688 36.7061 75.6834 37.3884 75.1825L37.6459 72.3812C37.6459 72.3812 38.0969 73.6197 38.3553 73.6714L38.6147 73.7222L38.1542 71.5589Z" fill="white"/>
<path d="M37.1955 75.3913C37.1436 75.3912 37.0922 75.381 37.0442 75.3612C36.7181 75.2306 36.4888 74.6555 36.3469 74.1518C36.2633 74.5888 36.127 75.0699 35.9146 75.2419C35.881 75.2708 35.8418 75.2925 35.7995 75.3056C35.7571 75.3187 35.7125 75.3229 35.6684 75.318C35.16 75.256 35.1723 73.8717 35.2108 73.1839L33.0598 72.0506C32.7572 72.2385 31.4951 73.0091 29.8487 73.8981C29.8317 73.9071 29.813 73.9126 29.7937 73.9142C29.7745 73.9158 29.7551 73.9134 29.7368 73.9073C29.7185 73.9011 29.7017 73.8913 29.6873 73.8784C29.673 73.8655 29.6614 73.8498 29.6533 73.8323C29.2426 72.9245 28.6647 71.6474 28.239 70.718C28.2305 70.6992 28.2263 70.6787 28.2266 70.6581C28.2268 70.6374 28.2316 70.6171 28.2406 70.5985C28.2495 70.5799 28.2624 70.5634 28.2784 70.5503C28.2943 70.5372 28.313 70.5277 28.333 70.5226C30.0423 70.1082 31.6727 69.6101 32.7393 69.2624C33.0544 69.1613 33.387 69.1257 33.7164 69.1581C34.0457 69.1904 34.365 69.2899 34.6545 69.4504L38.2254 71.4322C38.243 71.4421 38.2583 71.4555 38.2703 71.4717C38.2823 71.4879 38.2907 71.5065 38.2949 71.5262L38.7573 73.6876C38.7623 73.7104 38.7616 73.7341 38.7551 73.7566C38.7486 73.7791 38.7366 73.7996 38.7201 73.8162C38.7037 73.8329 38.6833 73.8451 38.6609 73.8518C38.6385 73.8586 38.6148 73.8596 38.5919 73.8548L38.3335 73.8041C38.1361 73.7646 37.9153 73.3727 37.7377 72.9715L37.531 75.1855C37.5292 75.2051 37.5233 75.2242 37.5136 75.2414C37.5038 75.2586 37.4905 75.2735 37.4746 75.2851C37.3964 75.3513 37.2979 75.3887 37.1955 75.3913ZM36.315 73.2299C36.3483 73.2299 36.3805 73.2417 36.406 73.2632C36.4315 73.2847 36.4485 73.3145 36.454 73.3474C36.5659 74.0052 36.8553 74.9844 37.1485 75.1018C37.1648 75.1094 37.1826 75.1133 37.2006 75.1133C37.2187 75.1133 37.2365 75.1094 37.2528 75.1018L37.5075 72.3766C37.5105 72.3449 37.5242 72.315 37.5463 72.292C37.5685 72.269 37.5978 72.2543 37.6295 72.2501C37.6611 72.246 37.6933 72.2527 37.7206 72.2692C37.748 72.2857 37.7689 72.311 37.78 72.3409C37.9989 72.9405 38.278 73.4912 38.3908 73.5428L38.4331 73.5504L38.029 71.6587L34.5173 69.7088C34.2617 69.5668 33.9797 69.4787 33.6888 69.4501C33.3978 69.4215 33.1041 69.4529 32.8258 69.5424C31.7921 69.876 30.2227 70.3553 28.567 70.7641C28.9616 71.6296 29.4653 72.7422 29.8478 73.5832C31.6558 72.6022 32.9658 71.7827 32.9789 71.7743C33.0004 71.762 33.0247 71.7555 33.0494 71.7555C33.0741 71.7555 33.0984 71.762 33.1199 71.7743L35.4222 72.9865C35.4463 72.9994 35.4661 73.0189 35.4795 73.0427C35.4928 73.0665 35.499 73.0937 35.4974 73.1209C35.4297 74.1837 35.5528 75.0304 35.7023 75.0483C35.7023 75.0483 35.7154 75.0483 35.737 75.0332C35.9607 74.8528 36.1242 73.915 36.174 73.3662C36.1774 73.3321 36.1929 73.3005 36.2178 73.277C36.2426 73.2535 36.2751 73.2398 36.3093 73.2384L36.315 73.2299Z" fill="black"/>
<path d="M19.9743 61.6574L20.1322 60.7036C20.1573 60.5505 20.1225 60.3936 20.035 60.2655C19.9475 60.1374 19.814 60.048 19.6623 60.0157C18.0873 59.683 13.7223 58.7377 13.1538 58.3374C12.4584 57.8468 7.42151 62.5905 8.17892 62.4655C13.7975 61.5399 19.9743 61.6574 19.9743 61.6574Z" fill="#5479F7"/>
<path d="M8.15221 62.609C8.11588 62.611 8.07978 62.602 8.04861 62.5833C8.01744 62.5645 7.99263 62.5368 7.97742 62.5037C7.93513 62.4098 7.87123 62.2726 8.79028 61.3309C9.31934 60.7897 10.0213 60.146 10.6697 59.6094C12.7531 57.8812 13.113 58.1368 13.2352 58.2214C13.675 58.5315 16.8587 59.2795 19.692 59.8772C19.8789 59.9165 20.0435 60.0263 20.1517 60.1838C20.2598 60.3413 20.3032 60.5344 20.2727 60.723L20.1149 61.6768C20.1091 61.71 20.0916 61.7401 20.0656 61.7617C20.0396 61.7832 20.0067 61.7947 19.973 61.7942C19.9119 61.7942 13.7445 61.6871 8.20201 62.6005C8.18566 62.6047 8.16901 62.6075 8.15221 62.609ZM13.02 58.4422C12.9358 58.4476 12.8533 58.4683 12.7766 58.5033C11.5549 58.9882 8.78746 61.6044 8.31102 62.3007C13.4081 61.4804 18.9675 61.5048 19.8555 61.5142L19.9936 60.6807C20.0129 60.5631 19.9862 60.4427 19.919 60.3443C19.8518 60.246 19.7493 60.1773 19.6328 60.1525C17.4235 59.6874 13.6327 58.8473 13.0717 58.4516C13.0557 58.4437 13.0377 58.4404 13.02 58.4422Z" fill="black"/>
<path d="M35.2653 52.1343C35.4875 51.79 35.7556 51.4776 36.0622 51.2059L38.3758 49.0586C38.3758 49.0586 38.6765 50.0923 38.3119 50.7059C38.7387 50.7178 39.1639 50.764 39.5834 50.8441C39.5834 50.8441 40.6405 49.9128 40.9037 49.7521C41.1668 49.5914 41.5107 49.3368 41.865 49.3415C42.2193 49.3461 42.5717 49.6177 42.5717 49.6177L40.539 52.1935L36.8431 53.2103L37.0508 58.8138L33.5391 58.3346L35.2653 52.1343Z" fill="white"/>
<path d="M37.0544 58.9574H37.0347L33.5239 58.4772C33.5048 58.4739 33.4865 58.4667 33.4704 58.456C33.4542 58.4453 33.4404 58.4314 33.4299 58.4151C33.4188 58.3983 33.4113 58.3793 33.4081 58.3594C33.4049 58.3394 33.4059 58.3191 33.4111 58.2996L35.1383 52.0974C35.1403 52.0886 35.1434 52.08 35.1477 52.072C35.3779 51.7101 35.6579 51.3824 35.9794 51.0985L38.2882 48.9522C38.3059 48.9358 38.3274 48.9242 38.3507 48.9186C38.3741 48.9129 38.3985 48.9132 38.4217 48.9196C38.4448 48.926 38.466 48.9383 38.4831 48.9551C38.5002 48.972 38.5127 48.993 38.5194 49.0161C38.5307 49.0565 38.7769 49.921 38.5373 50.5722C38.8774 50.593 39.216 50.6341 39.5512 50.6953C39.7711 50.5074 40.6 49.781 40.8387 49.6353C40.8753 49.6137 40.9129 49.5893 40.9514 49.5649C41.2051 49.4042 41.5209 49.204 41.8629 49.204H41.8752C42.2727 49.2096 42.6495 49.4972 42.6655 49.5094C42.6803 49.5207 42.6928 49.5349 42.7021 49.5511C42.7115 49.5673 42.7175 49.5852 42.7199 49.6037C42.7222 49.6222 42.7209 49.6411 42.7159 49.6591C42.7109 49.6771 42.7024 49.6939 42.6908 49.7086L40.6545 52.2835C40.6357 52.3069 40.6101 52.324 40.5812 52.3323L36.9896 53.32L37.1925 58.8117C37.193 58.8323 37.189 58.8528 37.1809 58.8718C37.1728 58.8907 37.1608 58.9077 37.1455 58.9217C37.1205 58.9443 37.0881 58.957 37.0544 58.9574ZM33.7221 58.2187L36.9069 58.6548L36.7076 53.2185C36.7063 53.1868 36.7158 53.1555 36.7346 53.1299C36.7534 53.1043 36.7803 53.0858 36.811 53.0775L40.4618 52.073L42.3704 49.6532C42.2189 49.5572 42.0464 49.4995 41.8676 49.485H41.8601C41.5989 49.485 41.3217 49.6607 41.098 49.8026L40.9824 49.875C40.7747 50.0018 39.9732 50.6953 39.6819 50.9528C39.6652 50.9673 39.6454 50.9777 39.6241 50.9833C39.6027 50.9888 39.5803 50.9893 39.5588 50.9848C39.1473 50.9041 38.7299 50.857 38.3108 50.8438C38.2862 50.843 38.2623 50.8359 38.2414 50.823C38.2205 50.8102 38.2033 50.7921 38.1915 50.7705C38.1797 50.7489 38.1738 50.7247 38.1743 50.7001C38.1748 50.6756 38.1817 50.6516 38.1943 50.6305C38.4245 50.2452 38.3578 49.6494 38.2958 49.3252L36.1617 51.3137L36.1504 51.3231C35.8639 51.5791 35.6113 51.8705 35.3986 52.1904L33.7221 58.2187Z" fill="black"/>
<path d="M26.9769 29.7856C26.9395 29.7856 26.9037 29.7708 26.8772 29.7443C26.8508 29.7179 26.8359 29.682 26.8359 29.6447V23.3372C26.8359 23.2999 26.8508 23.264 26.8772 23.2376C26.9037 23.2111 26.9395 23.1963 26.9769 23.1963C27.0143 23.1963 27.0501 23.2111 27.0766 23.2376C27.103 23.264 27.1179 23.2999 27.1179 23.3372V29.6447C27.1179 29.682 27.103 29.7179 27.0766 29.7443C27.0501 29.7708 27.0143 29.7856 26.9769 29.7856Z" fill="black"/>
<path d="M26.9781 23.6473C27.1493 23.6473 27.2882 23.5085 27.2882 23.3372C27.2882 23.1659 27.1493 23.0271 26.9781 23.0271C26.8068 23.0271 26.668 23.1659 26.668 23.3372C26.668 23.5085 26.8068 23.6473 26.9781 23.6473Z" fill="black"/>
<path d="M26.9781 29.9547C27.1493 29.9547 27.2882 29.8158 27.2882 29.6446C27.2882 29.4733 27.1493 29.3345 26.9781 29.3345C26.8068 29.3345 26.668 29.4733 26.668 29.6446C26.668 29.8158 26.8068 29.9547 26.9781 29.9547Z" fill="black"/>
<path d="M26.9769 54.708C26.9395 54.708 26.9037 54.6932 26.8772 54.6667C26.8508 54.6403 26.8359 54.6044 26.8359 54.5671V53.7213C26.8359 53.6839 26.8508 53.6481 26.8772 53.6216C26.9037 53.5952 26.9395 53.5804 26.9769 53.5804C27.0143 53.5804 27.0501 53.5952 27.0766 53.6216C27.103 53.6481 27.1179 53.6839 27.1179 53.7213V54.5671C27.1179 54.6044 27.103 54.6403 27.0766 54.6667C27.0501 54.6932 27.0143 54.708 26.9769 54.708ZM26.9769 53.0165C26.9395 53.0165 26.9037 53.0017 26.8772 52.9752C26.8508 52.9488 26.8359 52.9129 26.8359 52.8756V52.0298C26.8359 51.9924 26.8508 51.9566 26.8772 51.9301C26.9037 51.9037 26.9395 51.8889 26.9769 51.8889C27.0143 51.8889 27.0501 51.9037 27.0766 51.9301C27.103 51.9566 27.1179 51.9924 27.1179 52.0298V52.8756C27.1179 52.9129 27.103 52.9488 27.0766 52.9752C27.0501 53.0017 27.0143 53.0165 26.9769 53.0165ZM26.9769 51.325C26.9395 51.325 26.9037 51.3102 26.8772 51.2837C26.8508 51.2573 26.8359 51.2214 26.8359 51.1841V50.3383C26.8359 50.3009 26.8508 50.2651 26.8772 50.2386C26.9037 50.2122 26.9395 50.1974 26.9769 50.1974C27.0143 50.1974 27.0501 50.2122 27.0766 50.2386C27.103 50.2651 27.1179 50.3009 27.1179 50.3383V51.1841C27.1179 51.2214 27.103 51.2573 27.0766 51.2837C27.0501 51.3102 27.0143 51.325 26.9769 51.325ZM26.9769 49.6335C26.9395 49.6335 26.9037 49.6187 26.8772 49.5922C26.8508 49.5658 26.8359 49.53 26.8359 49.4926V48.6468C26.8359 48.6094 26.8508 48.5736 26.8772 48.5471C26.9037 48.5207 26.9395 48.5059 26.9769 48.5059C27.0143 48.5059 27.0501 48.5207 27.0766 48.5471C27.103 48.5736 27.1179 48.6094 27.1179 48.6468V49.4926C27.1179 49.53 27.103 49.5658 27.0766 49.5922C27.0501 49.6187 27.0143 49.6335 26.9769 49.6335Z" fill="black"/>
<path d="M26.9781 48.9569C27.1493 48.9569 27.2882 48.818 27.2882 48.6468C27.2882 48.4755 27.1493 48.3367 26.9781 48.3367C26.8068 48.3367 26.668 48.4755 26.668 48.6468C26.668 48.818 26.8068 48.9569 26.9781 48.9569Z" fill="black"/>
<path d="M44.5506 39.2897H40.3285C40.2911 39.2897 40.2552 39.2749 40.2288 39.2484C40.2024 39.222 40.1875 39.1862 40.1875 39.1488C40.1875 39.1114 40.2024 39.0755 40.2288 39.0491C40.2552 39.0227 40.2911 39.0078 40.3285 39.0078H44.5506C44.588 39.0078 44.6239 39.0227 44.6503 39.0491C44.6767 39.0755 44.6916 39.1114 44.6916 39.1488C44.6916 39.1862 44.6767 39.222 44.6503 39.2484C44.6239 39.2749 44.588 39.2897 44.5506 39.2897Z" fill="black"/>
<path d="M40.3296 38.8389C40.391 38.8389 40.4509 38.8571 40.5019 38.8911C40.5529 38.9252 40.5927 38.9736 40.6161 39.0303C40.6396 39.087 40.6458 39.1493 40.6338 39.2095C40.6218 39.2696 40.5923 39.3249 40.5489 39.3683C40.5055 39.4116 40.4503 39.4412 40.3901 39.4531C40.33 39.4651 40.2676 39.459 40.211 39.4355C40.1543 39.412 40.1059 39.3723 40.0718 39.3213C40.0377 39.2703 40.0195 39.2103 40.0195 39.149C40.0195 39.0667 40.0522 38.9879 40.1104 38.9297C40.1685 38.8715 40.2474 38.8389 40.3296 38.8389Z" fill="black"/>
<path d="M44.5523 39.4581C44.7236 39.4581 44.8624 39.3193 44.8624 39.148C44.8624 38.9767 44.7236 38.8379 44.5523 38.8379C44.381 38.8379 44.2422 38.9767 44.2422 39.148C44.2422 39.3193 44.381 39.4581 44.5523 39.4581Z" fill="black"/>
<path d="M58.1214 53.0099C58.084 53.0099 58.0482 52.9951 58.0218 52.9687C57.9953 52.9422 57.9805 52.9064 57.9805 52.869V48.6468C57.9805 48.6094 57.9953 48.5736 58.0218 48.5471C58.0482 48.5207 58.084 48.5059 58.1214 48.5059C58.1588 48.5059 58.1947 48.5207 58.2211 48.5471C58.2475 48.5736 58.2624 48.6094 58.2624 48.6468V52.869C58.2624 52.9064 58.2475 52.9422 58.2211 52.9687C58.1947 52.9951 58.1588 53.0099 58.1214 53.0099Z" fill="black"/>
<path d="M58.1226 53.1791C58.2939 53.1791 58.4327 53.0402 58.4327 52.8689C58.4327 52.6977 58.2939 52.5588 58.1226 52.5588C57.9513 52.5588 57.8125 52.6977 57.8125 52.8689C57.8125 53.0402 57.9513 53.1791 58.1226 53.1791Z" fill="black"/>
<path d="M58.1226 48.9569C58.2939 48.9569 58.4327 48.818 58.4327 48.6468C58.4327 48.4755 58.2939 48.3367 58.1226 48.3367C57.9513 48.3367 57.8125 48.4755 57.8125 48.6468C57.8125 48.818 57.9513 48.9569 58.1226 48.9569Z" fill="black"/>
<path d="M64.936 74.2167C64.8419 74.2282 64.7466 74.2116 64.662 74.169C64.5775 74.1264 64.5074 74.0596 64.4607 73.9772C64.414 73.8948 64.3928 73.8004 64.3997 73.7059C64.4066 73.6115 64.4414 73.5212 64.4996 73.4465C64.5578 73.3717 64.6369 73.3159 64.7267 73.2861C64.8166 73.2563 64.9134 73.2538 65.0047 73.2789C65.096 73.3039 65.1779 73.3556 65.2399 73.4271C65.3019 73.4987 65.3413 73.5871 65.3532 73.681C65.3689 73.8074 65.3337 73.9348 65.2555 74.0353C65.1772 74.1357 65.0623 74.201 64.936 74.2167Z" fill="#CADDFF"/>
<path d="M75.0166 12.7853C74.8874 12.7849 74.7611 12.7472 74.6528 12.6768C74.5445 12.6064 74.4589 12.5062 74.4061 12.3883C74.3534 12.2704 74.3358 12.1397 74.3555 12.0121C74.3752 11.8844 74.4313 11.7651 74.5171 11.6686C74.6029 11.572 74.7148 11.5023 74.8392 11.4678C74.9637 11.4333 75.0955 11.4354 75.2188 11.4739C75.342 11.5124 75.4516 11.5857 75.5342 11.685C75.6169 11.7843 75.6691 11.9053 75.6847 12.0335C75.6959 12.1212 75.6896 12.2102 75.6664 12.2955C75.6431 12.3808 75.6032 12.4607 75.549 12.5305C75.4947 12.6004 75.4273 12.6588 75.3504 12.7025C75.2736 12.7462 75.1889 12.7744 75.1011 12.7853C75.073 12.7871 75.0447 12.7871 75.0166 12.7853ZM75.0166 11.7243C75 11.7234 74.9833 11.7234 74.9667 11.7243C74.8905 11.7342 74.8189 11.7665 74.761 11.8171C74.7031 11.8676 74.6615 11.9342 74.6414 12.0084C74.6212 12.0826 74.6236 12.1611 74.648 12.2339C74.6725 12.3068 74.718 12.3708 74.7788 12.4178C74.8395 12.4654 74.913 12.4938 74.9899 12.4995C75.0668 12.5053 75.1437 12.488 75.2107 12.4499C75.2778 12.4119 75.3321 12.3547 75.3666 12.2858C75.4011 12.2168 75.4144 12.1391 75.4047 12.0626C75.393 11.9686 75.3474 11.8821 75.2765 11.8193C75.2055 11.7565 75.1141 11.7217 75.0194 11.7215L75.0166 11.7243Z" fill="black"/>
<path d="M72.5697 9.75821C72.5512 9.75821 72.5328 9.75453 72.5157 9.74738C72.4986 9.74022 72.4831 9.72974 72.47 9.71654C72.457 9.70334 72.4467 9.68768 72.4398 9.67047C72.4329 9.65327 72.4295 9.63486 72.4297 9.61631V9.15397C72.4302 9.11691 72.4453 9.08154 72.4716 9.05551C72.498 9.02948 72.5336 9.01489 72.5707 9.01489C72.5892 9.01489 72.6076 9.01857 72.6247 9.02573C72.6418 9.03288 72.6573 9.04336 72.6703 9.05656C72.6834 9.06977 72.6936 9.08542 72.7006 9.10263C72.7075 9.11984 72.7109 9.13825 72.7107 9.15679V9.61819C72.7104 9.65541 72.6955 9.69103 72.6691 9.71726C72.6427 9.74349 72.6069 9.75821 72.5697 9.75821Z" fill="black"/>
<path d="M72.558 11.3756C72.5395 11.3755 72.5212 11.3717 72.5041 11.3645C72.4871 11.3573 72.4716 11.3468 72.4586 11.3337C72.4456 11.3205 72.4353 11.3049 72.4283 11.2877C72.4214 11.2706 72.4178 11.2522 72.418 11.2337V10.7714C72.4182 10.7341 72.4332 10.6985 72.4596 10.6723C72.486 10.6461 72.5217 10.6313 72.5589 10.6313C72.5962 10.6318 72.6318 10.647 72.6581 10.6736C72.6843 10.7001 72.699 10.7359 72.6989 10.7732V11.2356C72.6989 11.2541 72.6953 11.2723 72.6882 11.2894C72.6811 11.3064 72.6707 11.3219 72.6576 11.3349C72.6445 11.3479 72.629 11.3582 72.6119 11.3652C72.5948 11.3722 72.5765 11.3757 72.558 11.3756Z" fill="black"/>
<path d="M71.99 10.3351H71.5277C71.4903 10.3351 71.4544 10.3203 71.428 10.2939C71.4016 10.2674 71.3867 10.2316 71.3867 10.1942C71.3867 10.1568 71.4016 10.1209 71.428 10.0945C71.4544 10.0681 71.4903 10.0532 71.5277 10.0532H71.99C72.0274 10.0532 72.0633 10.0681 72.0897 10.0945C72.1161 10.1209 72.131 10.1568 72.131 10.1942C72.131 10.2316 72.1161 10.2674 72.0897 10.2939C72.0633 10.3203 72.0274 10.3351 71.99 10.3351Z" fill="black"/>
<path d="M73.6072 10.342H73.1449C73.1075 10.342 73.0716 10.3271 73.0452 10.3007C73.0188 10.2743 73.0039 10.2384 73.0039 10.201C73.0039 10.1636 73.0188 10.1278 73.0452 10.1013C73.0716 10.0749 73.1075 10.0601 73.1449 10.0601H73.6072C73.6446 10.0601 73.6804 10.0749 73.7069 10.1013C73.7333 10.1278 73.7482 10.1636 73.7482 10.201C73.7482 10.2384 73.7333 10.2743 73.7069 10.3007C73.6804 10.3271 73.6446 10.342 73.6072 10.342Z" fill="black"/>
<path d="M6.59491 11.0862C6.56685 11.0864 6.53939 11.0782 6.51603 11.0626C6.49267 11.0471 6.47447 11.025 6.46377 10.999C6.45308 10.9731 6.45036 10.9445 6.45598 10.9171C6.46159 10.8896 6.47529 10.8644 6.4953 10.8447L6.86555 10.4801C6.89222 10.4538 6.92824 10.4392 6.96569 10.4395C7.00314 10.4397 7.03895 10.4549 7.06524 10.4815C7.09153 10.5082 7.10616 10.5442 7.10589 10.5817C7.10563 10.6191 7.0905 10.6549 7.06383 10.6812L6.69358 11.0458C6.6806 11.0587 6.6652 11.0689 6.64827 11.0759C6.63134 11.0828 6.61321 11.0863 6.59491 11.0862Z" fill="black"/>
<path d="M5.29638 12.3634C5.2688 12.3625 5.24211 12.3535 5.2196 12.3375C5.19709 12.3216 5.17976 12.2993 5.16975 12.2736C5.15975 12.2479 5.15751 12.2198 5.16331 12.1929C5.16912 12.1659 5.18271 12.1412 5.20241 12.1219L5.57266 11.7573C5.5996 11.7326 5.63509 11.7193 5.67163 11.7203C5.70818 11.7212 5.74291 11.7364 5.76852 11.7624C5.79412 11.7885 5.80859 11.8236 5.80886 11.8601C5.80914 11.8967 5.79521 11.9319 5.77 11.9584L5.39975 12.323C5.38622 12.3364 5.37005 12.347 5.35227 12.3539C5.33449 12.3609 5.31546 12.3641 5.29638 12.3634Z" fill="black"/>
<path d="M5.6719 11.0823C5.63455 11.0822 5.59876 11.0673 5.57229 11.041L5.2058 10.6726C5.1809 10.6459 5.16735 10.6105 5.16799 10.574C5.16864 10.5375 5.18343 10.5027 5.20925 10.4768C5.23508 10.451 5.26992 10.4362 5.30644 10.4356C5.34296 10.4349 5.3783 10.4485 5.40502 10.4734L5.77245 10.8417C5.79175 10.8617 5.80477 10.8868 5.80992 10.9141C5.81506 10.9414 5.8121 10.9695 5.8014 10.9951C5.79071 11.0207 5.77273 11.0426 5.74972 11.0581C5.7267 11.0736 5.69965 11.082 5.6719 11.0823Z" fill="black"/>
<path d="M6.95739 12.3707C6.93887 12.3708 6.92054 12.3671 6.90344 12.3601C6.88634 12.353 6.87082 12.3425 6.85777 12.3294L6.49034 11.961C6.46393 11.9345 6.44913 11.8985 6.44922 11.8611C6.44931 11.8236 6.46427 11.7878 6.49081 11.7613C6.51735 11.7349 6.5533 11.7201 6.59075 11.7202C6.6282 11.7203 6.66408 11.7353 6.6905 11.7618L7.057 12.1302C7.07668 12.1499 7.09009 12.175 7.09552 12.2023C7.10094 12.2297 7.09815 12.258 7.08749 12.2837C7.07684 12.3095 7.05879 12.3315 7.03563 12.347C7.01247 12.3624 6.98525 12.3707 6.95739 12.3707Z" fill="black"/>
<path d="M47.5441 20.8909C47.5254 20.8912 47.5069 20.8877 47.4896 20.8805C47.4723 20.8734 47.4567 20.8629 47.4436 20.8496C47.4172 20.8231 47.4023 20.7873 47.4023 20.75C47.4023 20.7126 47.4172 20.6768 47.4436 20.6503L47.8138 20.2848C47.8405 20.2585 47.8765 20.2439 47.914 20.2441C47.9514 20.2444 47.9872 20.2595 48.0135 20.2862C48.0398 20.3129 48.0544 20.3489 48.0542 20.3863C48.0539 20.4238 48.0388 20.4596 48.0121 20.4859L47.6419 20.8505C47.6159 20.8763 47.5807 20.8908 47.5441 20.8909Z" fill="black"/>
<path d="M46.2495 22.1683C46.2219 22.1674 46.1952 22.1584 46.1727 22.1424C46.1502 22.1265 46.1329 22.1043 46.1229 22.0786C46.1129 22.0528 46.1106 22.0248 46.1164 21.9978C46.1222 21.9708 46.1358 21.9461 46.1555 21.9268L46.5258 21.5622C46.5527 21.5375 46.5882 21.5242 46.6248 21.5252C46.6613 21.5262 46.696 21.5413 46.7216 21.5674C46.7472 21.5935 46.7617 21.6285 46.762 21.665C46.7623 21.7016 46.7483 21.7368 46.7231 21.7633L46.3529 22.1279C46.3393 22.1414 46.3232 22.1519 46.3054 22.1589C46.2876 22.1658 46.2686 22.169 46.2495 22.1683Z" fill="black"/>
<path d="M46.6245 20.8875C46.5871 20.8874 46.5513 20.8725 46.5249 20.8462L46.1584 20.4778C46.1437 20.4651 46.1317 20.4495 46.1233 20.432C46.1149 20.4145 46.1102 20.3955 46.1095 20.376C46.1088 20.3566 46.1121 20.3373 46.1192 20.3192C46.1263 20.3011 46.1371 20.2847 46.1509 20.271C46.1647 20.2573 46.1811 20.2466 46.1992 20.2396C46.2173 20.2325 46.2367 20.2293 46.2561 20.2301C46.2755 20.2309 46.2946 20.2357 46.312 20.2442C46.3295 20.2527 46.345 20.2647 46.3576 20.2795L46.725 20.6469C46.7514 20.6734 46.7663 20.7092 46.7663 20.7465C46.7663 20.7839 46.7514 20.8197 46.725 20.8462C46.712 20.8596 46.6964 20.8702 46.6791 20.8773C46.6618 20.8844 46.6432 20.8879 46.6245 20.8875Z" fill="black"/>
<path d="M47.9098 22.1758C47.8913 22.1758 47.873 22.1722 47.8559 22.1651C47.8388 22.158 47.8233 22.1476 47.8102 22.1344L47.4428 21.7661C47.429 21.7531 47.418 21.7375 47.4104 21.7202C47.4027 21.7028 47.3987 21.6841 47.3984 21.6652C47.3982 21.6463 47.4018 21.6275 47.409 21.61C47.4161 21.5925 47.4268 21.5766 47.4402 21.5633C47.4536 21.55 47.4696 21.5395 47.4872 21.5325C47.5048 21.5255 47.5236 21.5221 47.5425 21.5225C47.5614 21.5229 47.5801 21.5271 47.5973 21.5349C47.6146 21.5427 47.6301 21.5539 47.6429 21.5678L48.0094 21.9352C48.0358 21.9616 48.0507 21.9975 48.0507 22.0348C48.0507 22.0722 48.0358 22.108 48.0094 22.1344C47.9964 22.1476 47.9809 22.1581 47.9638 22.1652C47.9467 22.1723 47.9283 22.1759 47.9098 22.1758Z" fill="black"/>
<path d="M63.6079 75.7172C63.5155 75.8355 63.3901 75.9238 63.2476 75.9709C63.1051 76.0181 62.9518 76.0219 62.8071 75.9819C62.6624 75.9419 62.5328 75.8599 62.4347 75.7463C62.3365 75.6327 62.2743 75.4926 62.2558 75.3436C62.2373 75.1947 62.2634 75.0435 62.3307 74.9094C62.398 74.7752 62.5036 74.664 62.6342 74.5899C62.7647 74.5157 62.9142 74.4819 63.064 74.4927C63.2137 74.5035 63.3569 74.5585 63.4754 74.6506C63.5542 74.7119 63.6201 74.7881 63.6695 74.8749C63.7188 74.9617 63.7505 75.0573 63.7628 75.1564C63.7751 75.2555 63.7678 75.356 63.7412 75.4522C63.7146 75.5484 63.6693 75.6385 63.6079 75.7172Z" fill="#99B9FF"/>
<path d="M10.8007 21.3939C10.5914 21.3947 10.3901 21.314 10.2392 21.169C10.0884 21.0239 9.99999 20.8258 9.99268 20.6167C9.98537 20.4075 10.0598 20.2038 10.2001 20.0485C10.3404 19.8933 10.5357 19.7987 10.7445 19.785C10.9533 19.7712 11.1593 19.8392 11.3188 19.9746C11.4783 20.1101 11.5788 20.3023 11.5991 20.5106C11.6193 20.7189 11.5577 20.9269 11.4273 21.0905C11.2969 21.2542 11.1079 21.3606 10.9003 21.3873C10.8673 21.3918 10.834 21.394 10.8007 21.3939ZM10.8007 20.083C10.7791 20.0816 10.7574 20.0816 10.7359 20.083C10.6005 20.1001 10.4775 20.1701 10.3937 20.2777C10.3099 20.3853 10.2721 20.5217 10.2885 20.6571C10.3056 20.7924 10.3756 20.9154 10.4831 20.9992C10.5357 21.0405 10.5961 21.071 10.6606 21.0889C10.7251 21.1068 10.7925 21.1118 10.859 21.1035C10.9889 21.0877 11.108 21.0229 11.1918 20.9223C11.2756 20.8217 11.3179 20.6929 11.31 20.5622C11.3021 20.4315 11.2446 20.3087 11.1492 20.219C11.0539 20.1292 10.9279 20.0792 10.7969 20.0792L10.8007 20.083Z" fill="black"/>
</svg>
