<svg width="45" height="43" viewBox="0 0 45 43" fill="none" xmlns="http://www.w3.org/2000/svg">
<path d="M15.7168 0.355469V8.47656C9.91602 8.92773 7.14453 12.6338 7.40234 19.5947V25.2021H17.8438V42.9912H0.0546875V19.6914C0.0546875 15.6953 0.441406 12.6338 1.21484 10.5068C1.98828 8.31543 3.37402 6.28516 5.37207 4.41602C8.33691 1.90234 11.7852 0.548828 15.7168 0.355469ZM41.917 0.452148V8.47656C35.9873 9.44336 33.2158 13.1816 33.6025 19.6914V25.2021H44.0439V42.9912H26.2549V19.7881C26.2549 15.4697 26.5449 12.376 27.125 10.5068C27.7695 8.6377 29.123 6.7041 31.1855 4.70605C33.6992 2.38574 37.2764 0.967773 41.917 0.452148Z" fill="#CADDFF"/>
</svg>
