<svg width="80" height="79" viewBox="0 0 80 79" fill="none" xmlns="http://www.w3.org/2000/svg">
<path d="M1.83251 65.0137C4.10934 70.6423 9.45647 73.2965 12.8797 74.9907C26.3591 81.6678 51.3515 78.2399 66.1467 65.9549C69.6085 63.0804 82.2907 50.6957 78.3827 30.3765C74.9274 12.414 57.4563 1.85722 42.616 0.50844C30.3169 -0.612564 14.0205 4.05876 8.31475 15.0382C4.72679 21.9421 9.00938 24.1201 6.04733 39.7502C3.48342 53.2775 -0.953531 58.1305 1.83251 65.0137Z" fill="#CADDFF"/>
<path d="M43.5623 63.2668V68.9142C43.5623 70.6263 41.5857 72.3422 37.609 73.6693C29.6556 76.3236 16.6761 76.4365 8.36218 73.9517C8.2257 73.9112 8.0911 73.8698 7.95651 73.8274C3.74451 72.5012 1.62862 70.7383 1.6258 68.9707L1.62109 63.3233C1.62109 65.0909 3.7398 66.8539 7.95274 68.1801L8.35747 68.3043C16.6723 70.7863 29.6509 70.6743 37.6043 68.0219C41.5847 66.6939 43.5642 64.9761 43.5623 63.2668Z" fill="#5479F7"/>
<path d="M36.822 58.2848L37.2276 58.41C45.5208 61.02 45.6902 65.3223 37.6041 68.0208C29.6507 70.676 16.6721 70.7881 8.35729 68.3032L7.95257 68.179C-0.339663 65.5689 -0.509085 61.2656 7.57608 58.5671C15.5295 55.9157 28.5071 55.8027 36.822 58.2848Z" fill="#99B9FF"/>
<path d="M43.5749 55.8518V61.4992C43.5749 63.2103 41.5984 64.9262 37.6207 66.2543C29.6673 68.9085 16.6887 69.0205 8.3739 66.5366C8.23742 66.4952 8.10282 66.4548 7.96823 66.4124C3.75622 65.0862 1.64034 63.3233 1.63752 61.5557L1.63281 55.9083C1.63281 57.675 3.75152 59.4388 7.96446 60.7641C8.09812 60.8064 8.23271 60.8479 8.37013 60.8883C16.684 63.3713 29.6636 63.2593 37.617 60.606C41.5984 59.2798 43.5778 57.5639 43.5749 55.8518Z" fill="#5479F7"/>
<path d="M36.8372 50.8708C36.9746 50.9122 37.1092 50.9527 37.2438 50.996C45.5361 53.6051 45.7055 57.9084 37.6203 60.6069C29.6669 63.2621 16.6874 63.3741 8.3735 60.8892C8.23608 60.8488 8.10149 60.8074 7.96783 60.765C-0.324397 58.155 -0.492877 53.8526 7.59134 51.1541C15.541 48.5046 28.5233 48.3888 36.8372 50.8708Z" fill="#99B9FF"/>
<path d="M43.4835 48.2703L43.4882 53.9176C43.4882 55.6288 41.5116 57.3447 37.5349 58.6727C29.5815 61.327 16.602 61.439 8.28716 58.9551C8.15068 58.9137 8.01609 58.8732 7.88243 58.8309C3.66949 57.5047 1.5536 55.7417 1.55078 53.9741V48.3267C1.55078 50.0944 3.66949 51.8573 7.88149 53.1835C8.01609 53.2258 8.15068 53.2673 8.28716 53.3077C16.601 55.7907 29.5806 55.6777 37.534 53.0254C41.5069 51.6982 43.4863 49.9824 43.4835 48.2703Z" fill="#5479F7"/>
<path d="M36.747 43.2893C36.8844 43.3307 37.019 43.3711 37.1536 43.4135C45.4468 46.0235 45.6153 50.3268 37.5301 53.0253C29.5767 55.6796 16.5972 55.7925 8.28331 53.3077C8.14683 53.2672 8.01224 53.2258 7.87764 53.1835C-0.413646 50.5734 -0.583068 46.2701 7.50115 43.5716C15.4545 40.9192 28.435 40.8072 36.747 43.2893Z" fill="#99B9FF"/>
<path d="M43.4726 40.6924L43.4773 46.3398C43.4773 48.0509 41.5007 49.7668 37.5231 51.0949C29.5697 53.7491 16.5911 53.8611 8.27624 51.3772C8.13976 51.3358 8.00517 51.2953 7.87057 51.253C3.65857 49.9268 1.54269 48.1639 1.53986 46.3962L1.53516 40.7489C1.53516 42.5155 3.65386 44.2794 7.86681 45.6047C8.00046 45.647 8.13506 45.6884 8.27154 45.7289C16.5864 48.2119 29.5659 48.0999 37.5193 45.4465C41.496 44.1222 43.4754 42.4064 43.4726 40.6924Z" fill="#5479F7"/>
<path d="M36.7357 35.7131C36.8731 35.7545 37.0077 35.795 37.1423 35.8374C45.4345 38.4474 45.6039 42.7507 37.5188 45.4492C29.5654 48.1044 16.5858 48.2164 8.271 45.7316C8.13452 45.6911 7.99993 45.6497 7.86627 45.6073C-0.42596 42.9973 -0.59444 38.6949 7.48978 35.9964C15.446 33.3441 28.4218 33.2311 36.7357 35.7131Z" fill="#99B9FF"/>
<path d="M43.5037 33.425V39.0724C43.5037 40.7836 41.5271 42.4994 37.5504 43.8275C29.597 46.4818 16.6175 46.5938 8.30358 44.1099C8.1671 44.0685 8.03251 44.028 7.89791 43.9856C3.68591 42.6595 1.57003 40.8965 1.5672 39.1289L1.5625 33.4815C1.5625 35.2482 3.68121 37.0121 7.89415 38.3373C8.0278 38.3797 8.1624 38.4211 8.29888 38.4616C16.6137 40.9445 29.5923 40.8325 37.5457 38.1792C41.5262 36.853 43.5056 35.139 43.5037 33.425Z" fill="#5479F7"/>
<path d="M36.7634 28.4441C36.8998 28.4855 37.0344 28.526 37.169 28.5683C45.4622 31.1784 45.6316 35.4817 37.5455 38.1802C29.5921 40.8354 16.6135 40.9474 8.2987 38.4625C8.16222 38.4221 8.02763 38.3806 7.89397 38.3383C-0.398257 35.7283 -0.567679 31.4259 7.51748 28.7274C15.4709 26.075 28.4485 25.9621 36.7634 28.4441Z" fill="#99B9FF"/>
<path d="M43.453 26.0261L43.4577 31.6735C43.4577 33.3847 41.4812 35.1005 37.5035 36.4286C29.5501 39.0829 16.5706 39.1949 8.25671 36.711C8.12023 36.6705 7.98564 36.6291 7.85104 36.5867C3.63904 35.2605 1.52316 33.4976 1.52033 31.73L1.51562 26.0826C1.51562 27.8502 3.63433 29.6131 7.84727 30.9384C7.98093 30.9808 8.11553 31.0222 8.252 31.0626C16.5668 33.5456 29.5464 33.4336 37.4998 30.7803C41.4755 29.4541 43.4549 27.7382 43.453 26.0261Z" fill="#5479F7"/>
<path d="M36.7171 21.0452L37.1227 21.1703C45.4159 23.7794 45.5853 28.0827 37.4992 30.7812C29.5458 33.4364 16.5663 33.5485 8.25147 31.0636C8.11499 31.0231 7.98039 30.9817 7.84674 30.9394C-0.445491 28.3303 -0.613971 24.027 7.47025 21.3285C15.4218 18.6761 28.3994 18.5631 36.7171 21.0452Z" fill="#99B9FF"/>
<path d="M43.453 18.4792L43.4577 24.1266C43.4577 25.8387 41.4812 27.5546 37.5035 28.8817C29.5501 31.536 16.5706 31.6489 8.25671 29.1641C8.12023 29.1236 7.98564 29.0822 7.85104 29.0398C3.63904 27.7136 1.52316 25.9507 1.52033 24.1831L1.51562 18.5357C1.51562 20.3034 3.63433 22.0663 7.84727 23.3925L8.252 23.5167C16.5668 25.9987 29.5464 25.8867 37.4998 23.2343C41.4755 21.91 43.4549 20.1942 43.453 18.4792Z" fill="#5479F7"/>
<path d="M36.7171 13.5011L37.1227 13.6263C45.4159 16.2363 45.5853 20.5386 37.4992 23.2372C29.5458 25.8924 16.5663 26.0044 8.25147 23.5195L7.84674 23.3953C-0.445491 20.7852 -0.613971 16.4819 7.47025 13.7834C15.4218 11.132 28.3994 11.0191 36.7171 13.5011Z" fill="#99B9FF"/>
<path d="M77.9112 33.7979H53.2368C52.612 33.7979 52.1055 34.3044 52.1055 34.9292V45.8644C52.1055 46.4892 52.612 46.9958 53.2368 46.9958H77.9112C78.536 46.9958 79.0425 46.4892 79.0425 45.8644V34.9292C79.0425 34.3044 78.536 33.7979 77.9112 33.7979Z" fill="#99B9FF"/>
<path d="M77.9098 47.1361H53.2355C52.8994 47.1353 52.5772 47.0017 52.3392 46.7644C52.1011 46.5271 51.9666 46.2053 51.9648 45.8692V34.9293C51.9653 34.5919 52.0996 34.2685 52.3381 34.03C52.5767 33.7915 52.9 33.6572 53.2374 33.6567H77.9117C78.2491 33.657 78.5727 33.7911 78.8113 34.0297C79.0499 34.2683 79.184 34.5919 79.1843 34.9293V45.8692C79.1825 46.206 79.0474 46.5283 78.8086 46.7658C78.5698 47.0032 78.2466 47.1363 77.9098 47.1361ZM53.2355 33.9391C52.9733 33.9399 52.7221 34.0445 52.5368 34.2301C52.3516 34.4156 52.2475 34.6671 52.2472 34.9293V45.8692C52.2475 46.1316 52.3519 46.3833 52.5376 46.5687C52.7232 46.7542 52.9749 46.8584 53.2374 46.8584H77.9117C78.1738 46.8579 78.4251 46.7535 78.6103 46.5681C78.7956 46.3826 78.8998 46.1313 78.9 45.8692V34.9293C78.8998 34.6667 78.7954 34.415 78.6097 34.2294C78.4241 34.0438 78.1724 33.9394 77.9098 33.9391H53.2355Z" fill="black"/>
<path d="M78.1314 35.798H53.0006C52.9631 35.798 52.9272 35.7831 52.9007 35.7566C52.8742 35.7302 52.8594 35.6943 52.8594 35.6568C52.8594 35.6194 52.8742 35.5835 52.9007 35.557C52.9272 35.5305 52.9631 35.5156 53.0006 35.5156H78.1314C78.1688 35.5156 78.2047 35.5305 78.2312 35.557C78.2577 35.5835 78.2726 35.6194 78.2726 35.6568C78.2726 35.6943 78.2577 35.7302 78.2312 35.7566C78.2047 35.7831 78.1688 35.798 78.1314 35.798Z" fill="#CADDFF"/>
<path d="M53.829 34.9575C53.9891 34.9575 54.1189 34.8277 54.1189 34.6676C54.1189 34.5075 53.9891 34.3777 53.829 34.3777C53.6689 34.3777 53.5391 34.5075 53.5391 34.6676C53.5391 34.8277 53.6689 34.9575 53.829 34.9575Z" fill="#CADDFF"/>
<path d="M55.2809 34.6686C55.2811 34.7262 55.2642 34.7825 55.2323 34.8305C55.2004 34.8785 55.155 34.9159 55.1018 34.938C55.0486 34.9602 54.9901 34.966 54.9335 34.9548C54.877 34.9436 54.8251 34.9159 54.7844 34.8752C54.7437 34.8344 54.716 34.7825 54.7048 34.726C54.6936 34.6695 54.6994 34.611 54.7215 34.5578C54.7437 34.5046 54.7811 34.4592 54.8291 34.4273C54.877 34.3954 54.9334 34.3785 54.991 34.3787C55.0679 34.3787 55.1416 34.4092 55.196 34.4636C55.2504 34.5179 55.2809 34.5917 55.2809 34.6686Z" fill="#CADDFF"/>
<path d="M56.4392 34.6686C56.4392 34.7259 56.4222 34.782 56.3903 34.8296C56.3585 34.8773 56.3132 34.9144 56.2602 34.9364C56.2072 34.9583 56.149 34.9641 56.0927 34.9529C56.0365 34.9417 55.9848 34.9141 55.9443 34.8736C55.9037 34.833 55.8761 34.7814 55.8649 34.7251C55.8538 34.6689 55.8595 34.6106 55.8814 34.5576C55.9034 34.5047 55.9405 34.4594 55.9882 34.4275C56.0359 34.3957 56.0919 34.3787 56.1493 34.3787C56.2262 34.3787 56.2999 34.4092 56.3543 34.4636C56.4086 34.5179 56.4392 34.5917 56.4392 34.6686Z" fill="#CADDFF"/>
<path d="M78.1319 34.7626H76.5318C76.4944 34.7626 76.4585 34.7477 76.432 34.7212C76.4055 34.6948 76.3906 34.6589 76.3906 34.6214C76.3906 34.584 76.4055 34.5481 76.432 34.5216C76.4585 34.4951 76.4944 34.4802 76.5318 34.4802H78.1319C78.1693 34.4802 78.2053 34.4951 78.2317 34.5216C78.2582 34.5481 78.2731 34.584 78.2731 34.6214C78.2731 34.6589 78.2582 34.6948 78.2317 34.7212C78.2053 34.7477 78.1693 34.7626 78.1319 34.7626Z" fill="#CADDFF"/>
<path d="M75.7766 34.7626H60.3404C60.303 34.7626 60.267 34.7477 60.2406 34.7212C60.2141 34.6948 60.1992 34.6589 60.1992 34.6214C60.1992 34.584 60.2141 34.5481 60.2406 34.5216C60.267 34.4951 60.303 34.4802 60.3404 34.4802H75.7766C75.814 34.4802 75.8499 34.4951 75.8764 34.5216C75.9029 34.5481 75.9177 34.584 75.9177 34.6214C75.9177 34.6589 75.9029 34.6948 75.8764 34.7212C75.8499 34.7477 75.814 34.7626 75.7766 34.7626Z" fill="#CADDFF"/>
<path d="M58.553 34.7626H57.1412C57.1037 34.7626 57.0678 34.7477 57.0414 34.7212C57.0149 34.6948 57 34.6589 57 34.6214C57 34.584 57.0149 34.5481 57.0414 34.5216C57.0678 34.4951 57.1037 34.4802 57.1412 34.4802H58.553C58.5905 34.4802 58.6264 34.4951 58.6529 34.5216C58.6793 34.5481 58.6942 34.584 58.6942 34.6214C58.6942 34.6589 58.6793 34.6948 58.6529 34.7212C58.6264 34.7477 58.5905 34.7626 58.553 34.7626Z" fill="#CADDFF"/>
<path d="M61.2837 37.3979H53.7539V44.7395H61.2837V37.3979Z" fill="#CADDFF"/>
<path d="M64.2017 37.3979H62.6016V38.998H64.2017V37.3979Z" fill="#CADDFF"/>
<path d="M77.3794 37.3979H65.4258V38.998H77.3794V37.3979Z" fill="#CADDFF"/>
<path d="M64.2017 40.3159H62.6016V41.916H64.2017V40.3159Z" fill="#CADDFF"/>
<path d="M77.3794 40.3159H65.4258V41.916H77.3794V40.3159Z" fill="#CADDFF"/>
<path d="M64.2017 43.2336H62.6016V44.8337H64.2017V43.2336Z" fill="#CADDFF"/>
<path d="M77.3794 43.1396H65.4258V44.7397H77.3794V43.1396Z" fill="#CADDFF"/>
<path d="M71.4983 61.6676H35.3428C35.2453 61.6684 35.1486 61.6496 35.0584 61.6123C34.9683 61.5749 34.8866 61.5198 34.8182 61.4503C34.7498 61.3808 34.6961 61.2982 34.6603 61.2074C34.6244 61.1167 34.6072 61.0197 34.6096 60.9222L35.0463 41.3258C35.0522 41.1262 35.1356 40.9367 35.2788 40.7976C35.422 40.6584 35.6138 40.5805 35.8134 40.5803H71.9689C72.0664 40.5796 72.1631 40.5984 72.2532 40.6357C72.3434 40.6731 72.425 40.7282 72.4935 40.7977C72.5619 40.8672 72.6156 40.9498 72.6514 41.0406C72.6873 41.1313 72.7045 41.2283 72.7021 41.3258L72.2654 60.9222C72.2593 61.1217 72.1758 61.311 72.0327 61.4501C71.8895 61.5893 71.6979 61.6672 71.4983 61.6676Z" fill="white"/>
<path d="M71.499 61.8089H35.3435C35.2266 61.8095 35.1108 61.7866 35.0029 61.7415C34.895 61.6964 34.7974 61.63 34.7157 61.5463C34.6344 61.4639 34.5707 61.3658 34.5283 61.2581C34.4859 61.1504 34.4658 61.0352 34.4691 60.9194L34.9058 41.3221C34.9134 41.0859 35.0123 40.8619 35.1817 40.6973C35.3511 40.5326 35.5779 40.4401 35.8141 40.4392H71.9696C72.0864 40.4386 72.2021 40.4615 72.31 40.5064C72.4178 40.5514 72.5155 40.6175 72.5974 40.7009C72.6786 40.7836 72.7423 40.8818 72.7847 40.9896C72.8271 41.0975 72.8472 41.2128 72.844 41.3287L72.4072 60.9288C72.399 61.1645 72.2998 61.3878 72.1304 61.5519C71.9611 61.7159 71.7347 61.8081 71.499 61.8089ZM35.8141 40.7254C35.6515 40.7258 35.4953 40.7893 35.3786 40.9025C35.2618 41.0157 35.1936 41.1699 35.1882 41.3324L34.7515 60.9288C34.7493 61.0069 34.7628 61.0847 34.7913 61.1574C34.8197 61.2302 34.8625 61.2965 34.9171 61.3524C34.9726 61.4092 35.0389 61.4542 35.1122 61.4848C35.1855 61.5154 35.2641 61.5308 35.3435 61.5303H71.499C71.6617 61.5301 71.818 61.4667 71.9348 61.3534C72.0516 61.2401 72.1197 61.0858 72.1249 60.9232L72.5616 41.3259C72.5637 41.2478 72.5501 41.1701 72.5217 41.0973C72.4932 41.0246 72.4505 40.9583 72.3959 40.9023C72.3403 40.8458 72.2739 40.801 72.2007 40.7706C72.1274 40.7402 72.0489 40.7248 71.9696 40.7254H35.8141Z" fill="black"/>
<path d="M43.8962 60.5456H40.5078L40.6622 53.604H44.0506L43.8962 60.5456Z" fill="#CADDFF"/>
<path d="M39.6306 60.5457H36.2422L36.357 55.415H39.7454L39.6306 60.5457Z" fill="#CADDFF"/>
<path d="M48.1775 60.5458H44.7891L45.0225 50.1169H48.41L48.1775 60.5458Z" fill="#CADDFF"/>
<path d="M52.6501 60.5456H49.2617L49.449 52.1733H52.8365L52.6501 60.5456Z" fill="#CADDFF"/>
<path d="M57.1189 60.5457H53.7305L53.995 48.6833H57.3834L57.1189 60.5457Z" fill="#CADDFF"/>
<path d="M61.5955 60.4056H58.207L58.4 51.7378H61.7884L61.5955 60.4056Z" fill="#CADDFF"/>
<path d="M66.158 60.4054H62.7695L63.0387 48.3718H66.4262L66.158 60.4054Z" fill="#CADDFF"/>
<path d="M70.533 60.4053H67.1445L67.4758 45.5659H70.8643L70.533 60.4053Z" fill="#CADDFF"/>
<path d="M38.7521 51.9955C38.7215 51.9958 38.6916 51.9862 38.6669 51.9681C38.6423 51.9499 38.6242 51.9243 38.6154 51.895C38.6065 51.8656 38.6075 51.8343 38.6181 51.8055C38.6286 51.7768 38.6483 51.7523 38.674 51.7357L46.4749 46.5683C46.5018 46.5509 46.5337 46.543 46.5656 46.5459C46.5976 46.5488 46.6276 46.5623 46.6509 46.5843L49.8407 49.6264L55.9484 45.5791C55.9753 45.5611 56.0076 45.5529 56.0399 45.556C56.0721 45.5591 56.1023 45.5732 56.1253 45.5961L59.5909 49.0061L69.7374 42.298C69.7528 42.2877 69.7701 42.2806 69.7883 42.277C69.8065 42.2735 69.8253 42.2735 69.8434 42.2772C69.8616 42.2809 69.8789 42.2881 69.8943 42.2984C69.9097 42.3088 69.9229 42.3221 69.9331 42.3375C69.9434 42.353 69.9505 42.3703 69.9541 42.3885C69.9576 42.4067 69.9576 42.4254 69.9539 42.4436C69.9502 42.4618 69.943 42.4791 69.9327 42.4944C69.9223 42.5098 69.9091 42.523 69.8936 42.5333L59.6511 49.3045C59.6241 49.3222 59.5919 49.3302 59.5597 49.3271C59.5275 49.324 59.4974 49.3101 59.4742 49.2876L56.0086 45.8756L49.9028 49.9229C49.8763 49.9407 49.8445 49.9489 49.8126 49.9462C49.7808 49.9434 49.7509 49.9299 49.7278 49.9078L46.537 46.8648L38.8293 51.971C38.8064 51.9863 38.7796 51.9948 38.7521 51.9955Z" fill="black"/>
<path d="M47.5713 46.6616C47.56 46.9334 47.4484 47.1915 47.2581 47.386C47.0678 47.5805 46.8122 47.6976 46.5407 47.7148C46.4121 47.7243 46.283 47.7066 46.1618 47.6628C46.0405 47.6191 45.9298 47.5504 45.8369 47.4611C45.7439 47.3718 45.6708 47.2639 45.6223 47.1445C45.5737 47.0251 45.5509 46.8968 45.5552 46.7679C45.5661 46.4961 45.6774 46.2379 45.8676 46.0434C46.0578 45.8488 46.3134 45.7317 46.5849 45.7147C46.7135 45.7051 46.8427 45.7227 46.9641 45.7664C47.0855 45.81 47.1963 45.8788 47.2894 45.9681C47.3824 46.0574 47.4556 46.1653 47.5042 46.2848C47.5528 46.4043 47.5756 46.5327 47.5713 46.6616Z" fill="#99B9FF"/>
<path d="M57.0214 45.6311C57.0104 45.9038 56.8983 46.1628 56.7069 46.3574C56.5155 46.5521 56.2586 46.6686 55.986 46.6843C55.8574 46.6938 55.7282 46.676 55.6069 46.6323C55.4855 46.5885 55.3748 46.5196 55.2818 46.4302C55.1889 46.3408 55.1158 46.2328 55.0673 46.1133C55.0189 45.9938 54.9961 45.8654 55.0005 45.7365C55.0118 45.4639 55.124 45.2052 55.3153 45.0107C55.5067 44.8162 55.7635 44.6998 56.0359 44.6842C56.1645 44.6746 56.2936 44.6922 56.415 44.7359C56.5363 44.7795 56.6471 44.8483 56.74 44.9376C56.833 45.0269 56.9061 45.1349 56.9546 45.2544C57.0031 45.3738 57.0258 45.5022 57.0214 45.6311Z" fill="#5479F7"/>
<path d="M50.5657 50.4787C50.9904 50.0904 51.0426 49.4562 50.6824 49.0623C50.3221 48.6683 49.6858 48.6637 49.2611 49.052C48.8364 49.4403 48.7842 50.0745 49.1445 50.4685C49.5048 50.8625 50.1411 50.8671 50.5657 50.4787Z" fill="#99B9FF"/>
<path d="M39.7852 51.8197C39.7741 52.0914 39.6627 52.3493 39.4726 52.5436C39.2824 52.738 39.0269 52.855 38.7555 52.872C38.627 52.8816 38.4978 52.864 38.3765 52.8203C38.2551 52.7766 38.1444 52.7079 38.0514 52.6186C37.9584 52.5292 37.8853 52.4213 37.8368 52.3018C37.7884 52.1823 37.7656 52.054 37.7701 51.9251C37.781 51.6532 37.8923 51.3951 38.0825 51.2005C38.2727 51.006 38.5282 50.8889 38.7998 50.8719C38.9284 50.8624 39.0576 50.8801 39.1789 50.9239C39.3003 50.9677 39.411 51.0365 39.504 51.1259C39.5969 51.2153 39.67 51.3233 39.7185 51.4428C39.7669 51.5624 39.7897 51.6908 39.7852 51.8197Z" fill="#CADDFF"/>
<path d="M38.7016 53.0148C38.4209 53.0176 38.1504 52.9098 37.9486 52.7146C37.843 52.6119 37.76 52.4883 37.705 52.3516C37.6501 52.215 37.6244 52.0683 37.6296 51.9211C37.642 51.614 37.7678 51.3225 37.9827 51.1027C38.1975 50.883 38.4862 50.7507 38.7929 50.7314C38.942 50.7214 39.0915 50.7427 39.2319 50.794C39.3723 50.8452 39.5004 50.9252 39.608 51.0288C39.7134 51.1317 39.7961 51.2554 39.8511 51.392C39.906 51.5286 39.9319 51.6751 39.9271 51.8223C39.9145 52.1295 39.7885 52.4212 39.5735 52.6411C39.3585 52.861 39.0697 52.9934 38.7628 53.0129L38.7016 53.0148ZM38.856 51.0119H38.8089C38.5729 51.0266 38.3506 51.1282 38.1852 51.2972C38.0197 51.4662 37.9227 51.6904 37.9129 51.9268C37.9088 52.0351 37.9274 52.1431 37.9676 52.2438C38.0078 52.3444 38.0687 52.4356 38.1463 52.5113C38.226 52.5878 38.3209 52.6467 38.4248 52.6843C38.5288 52.7219 38.6394 52.7374 38.7496 52.7296C38.9857 52.7149 39.2079 52.6133 39.3734 52.4443C39.5389 52.2753 39.6359 52.0511 39.6457 51.8147C39.6495 51.7093 39.6319 51.6043 39.5937 51.5059C39.5556 51.4076 39.4978 51.3181 39.4239 51.2428C39.35 51.1676 39.2615 51.1082 39.1638 51.0684C39.0662 51.0285 38.9614 51.0089 38.856 51.0109V51.0119Z" fill="black"/>
<path d="M60.5976 49.0562C60.5858 49.3273 60.474 49.5844 60.2839 49.778C60.0938 49.9716 59.8387 50.088 59.5679 50.1047C59.4398 50.1142 59.3111 50.0968 59.1902 50.0535C59.0693 50.0101 58.9588 49.9419 58.8659 49.8532C58.773 49.7645 58.6998 49.6572 58.6509 49.5384C58.6021 49.4196 58.5788 49.2919 58.5824 49.1635C58.5933 48.8917 58.7046 48.6337 58.8949 48.4393C59.0851 48.2449 59.3406 48.128 59.6121 48.1112C59.7405 48.1016 59.8695 48.1192 59.9907 48.1627C60.1119 48.2063 60.2226 48.2748 60.3155 48.364C60.4085 48.4531 60.4816 48.5608 60.5302 48.6801C60.5788 48.7993 60.6018 48.9275 60.5976 49.0562Z" fill="#99B9FF"/>
<path d="M70.8222 42.3631C70.8109 42.6357 70.6987 42.8944 70.5074 43.0889C70.316 43.2834 70.0592 43.3998 69.7868 43.4154C69.6582 43.425 69.529 43.4074 69.4077 43.3638C69.2864 43.3201 69.1756 43.2514 69.0827 43.162C68.9897 43.0727 68.9166 42.9647 68.8681 42.8453C68.8196 42.7258 68.7969 42.5974 68.8013 42.4686C68.8127 42.1959 68.925 41.9372 69.1163 41.7426C69.3076 41.548 69.5643 41.4314 69.8367 41.4153C69.9653 41.4059 70.0945 41.4236 70.2158 41.4674C70.3372 41.5111 70.4479 41.58 70.5409 41.6694C70.6338 41.7588 70.7069 41.8668 70.7554 41.9863C70.8038 42.1058 70.8266 42.2342 70.8222 42.3631Z" fill="#5479F7"/>
<path d="M69.7358 43.5584C69.4551 43.561 69.1847 43.4532 68.9828 43.2581C68.8775 43.1555 68.7949 43.0319 68.7401 42.8955C68.6853 42.759 68.6596 42.6126 68.6647 42.4656C68.6771 42.1584 68.8029 41.8668 69.0177 41.6469C69.2326 41.427 69.5212 41.2945 69.828 41.275C69.9772 41.2653 70.1267 41.2868 70.2671 41.3382C70.4074 41.3896 70.5355 41.4697 70.6432 41.5733C70.7486 41.6759 70.8314 41.7994 70.8863 41.9359C70.9413 42.0724 70.9671 42.2188 70.9622 42.3658C70.9496 42.6731 70.8236 42.9648 70.6086 43.1847C70.3936 43.4045 70.1048 43.537 69.7979 43.5565L69.7358 43.5584ZM69.8892 41.5554H69.8478C69.6117 41.5703 69.3895 41.672 69.2239 41.8409C69.0583 42.0098 68.961 42.234 68.9508 42.4703C68.9471 42.5786 68.966 42.6865 69.0062 42.7871C69.0463 42.8877 69.107 42.9789 69.1843 43.0548C69.2642 43.1312 69.3593 43.1901 69.4634 43.2277C69.5674 43.2653 69.6781 43.2808 69.7885 43.2732C70.0245 43.2583 70.2466 43.1566 70.4121 42.9876C70.5775 42.8187 70.6746 42.5945 70.6846 42.3583C70.6883 42.2502 70.6694 42.1424 70.6292 42.042C70.589 41.9415 70.5284 41.8505 70.4511 41.7747C70.3003 41.6301 70.0982 41.5512 69.8892 41.5554Z" fill="black"/>
<path d="M70.9154 2.29761H47.6218C46.7132 2.29761 45.9766 3.03422 45.9766 3.94288V29.6431C45.9766 30.5518 46.7132 31.2884 47.6218 31.2884H70.9154C71.824 31.2884 72.5606 30.5518 72.5606 29.6431V3.94288C72.5606 3.03422 71.824 2.29761 70.9154 2.29761Z" fill="white"/>
<path d="M70.913 31.4287H47.6204C47.1461 31.4287 46.6912 31.2403 46.3558 30.9049C46.0204 30.5696 45.832 30.1147 45.832 29.6404V3.94483C45.832 3.47053 46.0204 3.01566 46.3558 2.68029C46.6912 2.34491 47.1461 2.15649 47.6204 2.15649H70.913C71.3873 2.15649 71.8421 2.34491 72.1775 2.68029C72.5129 3.01566 72.7013 3.47053 72.7013 3.94483V29.6404C72.7013 30.1147 72.5129 30.5696 72.1775 30.9049C71.8421 31.2403 71.3873 31.4287 70.913 31.4287ZM47.6204 2.43886C47.221 2.43886 46.8379 2.59753 46.5555 2.87995C46.2731 3.16237 46.1144 3.54542 46.1144 3.94483V29.6404C46.1144 30.0398 46.2731 30.4228 46.5555 30.7053C46.8379 30.9877 47.221 31.1464 47.6204 31.1464H70.913C71.3124 31.1464 71.6954 30.9877 71.9779 30.7053C72.2603 30.4228 72.4189 30.0398 72.4189 29.6404V3.94483C72.4189 3.54542 72.2603 3.16237 71.9779 2.87995C71.6954 2.59753 71.3124 2.43886 70.913 2.43886H47.6204Z" fill="black"/>
<path d="M71.2739 5.1393H47.2857C47.2483 5.1393 47.2124 5.12443 47.1859 5.09795C47.1594 5.07147 47.1445 5.03556 47.1445 4.99812C47.1445 4.96067 47.1594 4.92476 47.1859 4.89828C47.2124 4.87181 47.2483 4.85693 47.2857 4.85693H71.2739C71.3113 4.85693 71.3472 4.87181 71.3737 4.89828C71.4002 4.92476 71.4151 4.96067 71.4151 4.99812C71.4151 5.03556 71.4002 5.07147 71.3737 5.09795C71.3472 5.12443 71.3113 5.1393 71.2739 5.1393Z" fill="black"/>
<path d="M48.1285 3.56373C48.1283 3.64708 48.1034 3.72852 48.057 3.79774C48.0105 3.86696 47.9446 3.92086 47.8675 3.95263C47.7905 3.9844 47.7057 3.99261 47.624 3.97624C47.5423 3.95986 47.4672 3.91963 47.4083 3.86062C47.3494 3.80161 47.3094 3.72647 47.2932 3.6447C47.277 3.56293 47.2854 3.4782 47.3173 3.4012C47.3493 3.32421 47.4033 3.25841 47.4727 3.21211C47.542 3.16582 47.6235 3.14111 47.7068 3.14111C47.7623 3.14111 47.8172 3.15205 47.8684 3.1733C47.9196 3.19455 47.9662 3.2257 48.0053 3.26495C48.0445 3.30421 48.0755 3.3508 48.0967 3.40207C48.1178 3.45334 48.1286 3.50827 48.1285 3.56373Z" fill="#99B9FF"/>
<path d="M49.8179 3.56373C49.8179 3.64731 49.7931 3.72902 49.7467 3.79852C49.7002 3.86801 49.6342 3.92218 49.557 3.95417C49.4798 3.98616 49.3948 3.99452 49.3128 3.97822C49.2308 3.96191 49.1555 3.92166 49.0964 3.86256C49.0373 3.80345 48.9971 3.72815 48.9808 3.64617C48.9645 3.5642 48.9728 3.47922 49.0048 3.402C49.0368 3.32478 49.091 3.25877 49.1605 3.21234C49.23 3.1659 49.3117 3.14111 49.3953 3.14111C49.5074 3.14111 49.6148 3.18564 49.6941 3.26489C49.7734 3.34415 49.8179 3.45164 49.8179 3.56373Z" fill="#99B9FF"/>
<path d="M51.5054 3.56373C51.5054 3.64735 51.4806 3.7291 51.4341 3.79861C51.3876 3.86813 51.3216 3.9223 51.2443 3.95426C51.167 3.98622 51.082 3.99453 51 3.97815C50.918 3.96177 50.8427 3.92142 50.7836 3.86222C50.7245 3.80303 50.6844 3.72764 50.6682 3.6456C50.652 3.56356 50.6605 3.47855 50.6926 3.40135C50.7247 3.32414 50.779 3.2582 50.8487 3.21188C50.9183 3.16556 51.0001 3.14093 51.0837 3.14111C51.1956 3.14136 51.3029 3.186 51.3819 3.26523C51.461 3.34446 51.5054 3.45181 51.5054 3.56373Z" fill="#99B9FF"/>
<path d="M71.2717 3.70205H68.8951C68.8576 3.70205 68.8217 3.68717 68.7953 3.66069C68.7688 3.63422 68.7539 3.59831 68.7539 3.56086C68.7539 3.52342 68.7688 3.48751 68.7953 3.46103C68.8217 3.43455 68.8576 3.41968 68.8951 3.41968H71.2717C71.3091 3.41968 71.3451 3.43455 71.3715 3.46103C71.398 3.48751 71.4129 3.52342 71.4129 3.56086C71.4129 3.59831 71.398 3.63422 71.3715 3.66069C71.3451 3.68717 71.3091 3.70205 71.2717 3.70205Z" fill="black"/>
<path d="M67.8263 3.70205H57.981C57.9436 3.70205 57.9077 3.68717 57.8812 3.66069C57.8547 3.63422 57.8398 3.59831 57.8398 3.56086C57.8398 3.52342 57.8547 3.48751 57.8812 3.46103C57.9077 3.43455 57.9436 3.41968 57.981 3.41968H67.8263C67.8637 3.41968 67.8996 3.43455 67.9261 3.46103C67.9526 3.48751 67.9675 3.52342 67.9675 3.56086C67.9675 3.59831 67.9526 3.63422 67.9261 3.66069C67.8996 3.68717 67.8637 3.70205 67.8263 3.70205Z" fill="black"/>
<path d="M55.3936 3.70205H53.2974C53.26 3.70205 53.2241 3.68717 53.1976 3.66069C53.1711 3.63422 53.1562 3.59831 53.1562 3.56086C53.1562 3.52342 53.1711 3.48751 53.1976 3.46103C53.2241 3.43455 53.26 3.41968 53.2974 3.41968H55.3936C55.431 3.41968 55.4669 3.43455 55.4934 3.46103C55.5199 3.48751 55.5347 3.52342 55.5347 3.56086C55.5347 3.59831 55.5199 3.63422 55.4934 3.66069C55.4669 3.68717 55.431 3.70205 55.3936 3.70205Z" fill="black"/>
<path d="M55.2346 16.0482C55.636 15.3621 56.1946 14.7811 56.8643 14.3529C57.534 13.9247 58.2958 13.6615 59.087 13.585L59.2019 7.02466C54.4392 7.04066 50.2348 9.72505 48.3203 13.6914L55.2346 16.0482Z" fill="#99B9FF"/>
<path d="M55.2349 16.1894C55.2196 16.1892 55.2043 16.1867 55.1898 16.1818L48.2755 13.8288C48.2566 13.8224 48.2392 13.812 48.2246 13.7984C48.21 13.7848 48.1985 13.7682 48.1907 13.7498C48.183 13.7314 48.1792 13.7115 48.1797 13.6916C48.1802 13.6716 48.185 13.6519 48.1936 13.6339C50.1636 9.55183 54.4848 6.90321 59.206 6.88721C59.2248 6.88717 59.2433 6.8909 59.2606 6.89817C59.2779 6.90545 59.2936 6.91612 59.3067 6.92956C59.3198 6.94299 59.3302 6.95889 59.3371 6.97634C59.3441 6.99379 59.3475 7.01244 59.3472 7.03122L59.2286 13.585C59.2281 13.6196 59.2148 13.6529 59.1914 13.6784C59.168 13.7039 59.136 13.7199 59.1015 13.7234C58.3327 13.797 57.5924 14.0522 56.9415 14.4678C56.2906 14.8834 55.7476 15.4477 55.3573 16.1141C55.3455 16.1364 55.3279 16.1552 55.3064 16.1685C55.2849 16.1817 55.2602 16.1889 55.2349 16.1894ZM48.5183 13.6114L55.1709 15.8769C55.5783 15.216 56.1294 14.6555 56.7834 14.2372C57.4374 13.8189 58.1773 13.5535 58.9481 13.4608L59.0592 7.16958C54.561 7.2364 50.4526 9.74854 48.5183 13.6114Z" fill="black"/>
<path d="M54.9105 8.95139C54.8824 8.95123 54.855 8.94274 54.8317 8.927C54.8084 8.91125 54.7903 8.88894 54.7797 8.86291C54.7658 8.82821 54.7662 8.78939 54.7808 8.75498C54.7955 8.72057 54.8232 8.69338 54.8578 8.67937C55.9362 8.24269 57.0739 7.96985 58.2331 7.86991C58.2516 7.86831 58.2703 7.87037 58.288 7.87598C58.3058 7.88159 58.3222 7.89064 58.3365 7.90261C58.3507 7.91459 58.3625 7.92925 58.3711 7.94577C58.3797 7.96228 58.3849 7.98032 58.3865 7.99886C58.3881 8.0174 58.386 8.03608 58.3804 8.05382C58.3748 8.07157 58.3658 8.08803 58.3538 8.10228C58.3418 8.11653 58.3272 8.12827 58.3106 8.13685C58.2941 8.14543 58.2761 8.15068 58.2575 8.15228C57.1262 8.24955 56.0158 8.51573 54.9632 8.94198C54.9464 8.94834 54.9285 8.95153 54.9105 8.95139Z" fill="black"/>
<path d="M51.119 11.4802C51.091 11.4807 51.0635 11.4727 51.0401 11.4574C51.0166 11.4421 50.9983 11.4201 50.9875 11.3943C50.9767 11.3685 50.9738 11.34 50.9793 11.3125C50.9848 11.2851 50.9983 11.2599 51.0183 11.2402C51.8388 10.4057 52.7845 9.70417 53.8212 9.16105C53.8377 9.1524 53.8557 9.14707 53.8742 9.14537C53.8927 9.14367 53.9113 9.14562 53.9291 9.15113C53.9468 9.15664 53.9633 9.16558 53.9776 9.17746C53.9919 9.18934 54.0037 9.20391 54.0123 9.22035C54.021 9.23679 54.0263 9.25477 54.028 9.27327C54.0297 9.29177 54.0277 9.31043 54.0222 9.32817C54.0167 9.34591 54.0078 9.3624 53.9959 9.37668C53.984 9.39096 53.9695 9.40277 53.953 9.41142C52.9395 9.9397 52.015 10.6235 51.2131 11.4379C51.1883 11.4635 51.1546 11.4787 51.119 11.4802Z" fill="black"/>
<path d="M64.4257 18.9546C64.0351 21.11 62.0726 22.8052 59.6659 22.8795C58.9748 22.9026 58.2861 22.7858 57.6413 22.536L53.8867 28.349C55.6996 29.1623 57.6825 29.5244 59.6659 29.4041C65.6634 29.0596 70.3789 24.5455 70.9023 19.1099L64.4257 18.9546Z" fill="#99B9FF"/>
<path d="M58.9471 29.5661C57.1836 29.5693 55.4394 29.1984 53.8297 28.478C53.8111 28.4697 53.7945 28.4575 53.781 28.4422C53.7676 28.427 53.7575 28.409 53.7515 28.3896C53.746 28.37 53.7447 28.3495 53.7476 28.3294C53.7505 28.3093 53.7576 28.29 53.7685 28.2728L57.5193 22.4589C57.5371 22.4316 57.5638 22.4113 57.5948 22.4014C57.6258 22.3915 57.6593 22.3925 57.6896 22.4043C58.3165 22.648 58.9865 22.7617 59.6587 22.7384C61.9515 22.6678 63.8942 21.0658 64.2829 18.9302C64.2891 18.8971 64.3068 18.8673 64.3328 18.846C64.3588 18.8246 64.3914 18.8131 64.4251 18.8135L70.9026 18.9688C70.922 18.9695 70.941 18.9741 70.9586 18.9824C70.9761 18.9907 70.9918 19.0024 71.0046 19.017C71.0175 19.0315 71.0273 19.0485 71.0333 19.0669C71.0394 19.0853 71.0417 19.1048 71.04 19.1241C70.5082 24.7235 65.6139 29.2094 59.6747 29.5454C59.43 29.5598 59.1874 29.5667 58.9471 29.5661ZM54.0951 28.287C55.8482 29.0415 57.7534 29.3761 59.6587 29.264C65.4087 28.9336 70.1478 24.6397 70.7464 19.2474L64.5418 19.0996C64.0815 21.3049 62.0532 22.9464 59.6709 23.0208C58.9981 23.0446 58.327 22.9385 57.6943 22.7083L54.0951 28.287Z" fill="black"/>
<path d="M58.9311 28.6258C57.68 28.6287 56.4369 28.4272 55.2509 28.029C55.2333 28.0228 55.2172 28.0133 55.2033 28.0008C55.1895 27.9884 55.1782 27.9734 55.1702 27.9566C55.1621 27.9398 55.1575 27.9216 55.1565 27.903C55.1555 27.8844 55.1581 27.8659 55.1643 27.8483C55.1705 27.8307 55.1801 27.8146 55.1925 27.8007C55.2049 27.7869 55.2199 27.7756 55.2367 27.7676C55.2535 27.7595 55.2717 27.7549 55.2903 27.7539C55.3089 27.7529 55.3275 27.7555 55.345 27.7617C56.5008 28.1493 57.7121 28.3457 58.9311 28.3434C59.1532 28.3434 59.3782 28.3377 59.6003 28.3246C59.6188 28.3234 59.6374 28.326 59.655 28.3321C59.6725 28.3381 59.6887 28.3476 59.7026 28.3599C59.7165 28.3722 59.7279 28.3872 59.736 28.4039C59.7441 28.4206 59.7489 28.4387 59.75 28.4573C59.7511 28.4758 59.7485 28.4944 59.7425 28.5119C59.7364 28.5295 59.7269 28.5457 59.7146 28.5596C59.7023 28.5735 59.6873 28.5848 59.6706 28.5929C59.6539 28.6011 59.6358 28.6058 59.6172 28.6069C59.3932 28.6192 59.1626 28.6258 58.9311 28.6258Z" fill="black"/>
<path d="M61.9816 28.22C61.9473 28.2202 61.914 28.2078 61.8882 28.1852C61.8623 28.1626 61.8456 28.1314 61.8411 28.0974C61.8366 28.0633 61.8446 28.0288 61.8637 28.0003C61.8828 27.9718 61.9117 27.9512 61.9449 27.9424C65.8736 26.8713 68.91 23.752 69.6752 19.9965C69.6827 19.9598 69.7044 19.9276 69.7357 19.907C69.7669 19.8863 69.8051 19.8789 69.8418 19.8864C69.8785 19.8939 69.9107 19.9156 69.9314 19.9469C69.952 19.9781 69.9594 20.0163 69.9519 20.053C69.1641 23.912 66.0496 27.1122 62.0192 28.2153C62.0069 28.2182 61.9943 28.2198 61.9816 28.22Z" fill="black"/>
<path d="M52.712 27.7382L56.5004 21.9073C55.9265 21.492 55.4588 20.9471 55.1353 20.3169C54.8118 19.6867 54.6416 18.9891 54.6387 18.2807C54.6387 17.9294 54.6804 17.5794 54.7629 17.2379L47.8241 14.9111C47.4437 16.025 47.2497 17.194 47.25 18.3711C47.2481 22.36 49.4365 25.7936 52.712 27.7382Z" fill="#99B9FF"/>
<path d="M52.7095 27.8793C52.6844 27.8792 52.6597 27.8724 52.638 27.8596C49.1733 25.803 47.1055 22.2564 47.1055 18.371C47.1052 17.1786 47.3017 15.9943 47.6871 14.8659C47.6994 14.8306 47.725 14.8016 47.7584 14.785C47.7919 14.7684 47.8305 14.7657 47.866 14.7774L54.8057 17.1041C54.8393 17.1152 54.8676 17.1384 54.885 17.1692C54.9024 17.2 54.9077 17.2362 54.8998 17.2707C54.8198 17.6014 54.7793 17.9404 54.7793 18.2807C54.7815 18.9671 54.9463 19.6433 55.2601 20.2538C55.5738 20.8644 56.0277 21.3919 56.5846 21.7933C56.6125 21.815 56.6314 21.8462 56.6376 21.881C56.6439 21.9157 56.6371 21.9516 56.6185 21.9816L52.8291 27.8116C52.8166 27.8322 52.7991 27.8492 52.7782 27.8611C52.7573 27.873 52.7336 27.8792 52.7095 27.8793ZM47.9102 15.0908C47.5636 16.15 47.3873 17.2575 47.3878 18.372C47.3878 22.1124 49.3578 25.5328 52.6663 27.5471L56.3097 21.9411C55.6161 21.414 55.0866 20.7006 54.7831 19.884C54.4797 19.0673 54.4147 18.1812 54.5958 17.3291L47.9102 15.0908Z" fill="black"/>
<path d="M61.2422 13.3384C63.4324 13.665 65.1172 15.3621 65.3168 17.4601L75.9084 17.7669V17.7537C75.9084 9.98388 69.718 3.33409 61.4323 2.47852L61.2422 13.3384Z" fill="#99B9FF"/>
<path d="M75.9034 17.9079L65.3117 17.6011C65.2772 17.6003 65.2442 17.5868 65.219 17.5632C65.1938 17.5396 65.1782 17.5075 65.1752 17.4731C64.9813 15.4391 63.3549 13.7957 61.2221 13.4785C61.1881 13.4735 61.1572 13.4563 61.135 13.4301C61.1129 13.404 61.101 13.3707 61.1016 13.3364L61.2898 2.47554C61.29 2.45609 61.2943 2.4369 61.3024 2.41922C61.3105 2.40154 61.3223 2.38578 61.3369 2.37294C61.3516 2.36 61.3688 2.35023 61.3874 2.34423C61.406 2.33824 61.4257 2.33616 61.4451 2.33812C65.4727 2.75414 69.1783 4.5613 71.8787 7.4264C74.579 10.2915 76.0483 13.9463 76.0483 17.7536C76.0483 17.7937 76.0331 17.8323 76.0059 17.8618C75.9788 17.8895 75.9421 17.906 75.9034 17.9079ZM65.4397 17.3225L75.7622 17.6218C75.6935 9.94513 69.6244 3.54007 61.5666 2.63554L61.3783 13.2187C63.5403 13.5915 65.1856 15.2546 65.4397 17.3225Z" fill="black"/>
<path d="M49.3648 13.6038H35.5024C34.8193 13.6038 34.2656 14.1575 34.2656 14.8405V33.2595C34.2656 33.9425 34.8193 34.4962 35.5024 34.4962H49.3648C50.0479 34.4962 50.6016 33.9425 50.6016 33.2595V14.8405C50.6016 14.1575 50.0479 13.6038 49.3648 13.6038Z" fill="white"/>
<path d="M39.7658 19.575H36.207V31.2688H39.7658V19.575Z" fill="#CADDFF"/>
<path d="M44.215 16.3474H40.6562V31.2687H44.215V16.3474Z" fill="#CADDFF"/>
<path d="M48.6604 24.2971H45.1016V31.2688H48.6604V24.2971Z" fill="#CADDFF"/>
<path d="M36.8834 26.7152C36.8459 26.7152 36.81 26.7003 36.7835 26.6739C36.7571 26.6474 36.7422 26.6115 36.7422 26.574V19.1788C36.7422 19.1413 36.7571 19.1054 36.7835 19.079C36.81 19.0525 36.8459 19.0376 36.8834 19.0376H40.4422C40.4795 19.0378 40.5153 19.0528 40.5417 19.0792C40.5681 19.1056 40.5831 19.1414 40.5833 19.1788V22.5267C40.5833 22.5642 40.5685 22.6001 40.542 22.6266C40.5155 22.653 40.4796 22.6679 40.4422 22.6679C40.4047 22.6679 40.3688 22.653 40.3423 22.6266C40.3158 22.6001 40.301 22.5642 40.301 22.5267V19.32H37.0246V26.574C37.0246 26.6115 37.0097 26.6474 36.9832 26.6739C36.9567 26.7003 36.9208 26.7152 36.8834 26.7152Z" fill="black"/>
<path d="M44.8875 29.2386C44.85 29.2386 44.8141 29.2237 44.7876 29.1973C44.7612 29.1708 44.7463 29.1349 44.7463 29.0974V16.0934H41.4699V26.6032C41.4699 26.6406 41.455 26.6765 41.4285 26.703C41.402 26.7295 41.3661 26.7444 41.3287 26.7444C41.2912 26.7444 41.2553 26.7295 41.2289 26.703C41.2024 26.6765 41.1875 26.6406 41.1875 26.6032V15.9522C41.1875 15.9148 41.2024 15.8789 41.2289 15.8524C41.2553 15.8259 41.2912 15.811 41.3287 15.811H44.8875C44.9249 15.811 44.9608 15.8259 44.9873 15.8524C45.0138 15.8789 45.0287 15.9148 45.0287 15.9522V29.0974C45.0287 29.1349 45.0138 29.1708 44.9873 29.1973C44.9608 29.2237 44.9249 29.2386 44.8875 29.2386Z" fill="black"/>
<path d="M45.7779 29.7665C45.7405 29.7665 45.7045 29.7516 45.6781 29.7251C45.6516 29.6987 45.6367 29.6627 45.6367 29.6253V23.9017C45.6367 23.8642 45.6516 23.8283 45.6781 23.8019C45.7045 23.7754 45.7405 23.7605 45.7779 23.7605H49.3357C49.3732 23.7605 49.4091 23.7754 49.4356 23.8019C49.4621 23.8283 49.4769 23.8642 49.4769 23.9017V27.9236C49.4769 27.961 49.4621 27.9969 49.4356 28.0234C49.4091 28.0499 49.3732 28.0647 49.3357 28.0647C49.2983 28.0647 49.2624 28.0499 49.2359 28.0234C49.2094 27.9969 49.1946 27.961 49.1946 27.9236V24.0429H45.9191V29.6253C45.9191 29.6627 45.9042 29.6987 45.8777 29.7251C45.8513 29.7516 45.8153 29.7665 45.7779 29.7665Z" fill="black"/>
<path d="M40.0114 34.6685C39.974 34.6685 39.9381 34.6537 39.9116 34.6272C39.8851 34.6007 39.8703 34.5648 39.8703 34.5274C39.8703 34.4899 39.8851 34.454 39.9116 34.4275C39.9381 34.401 39.974 34.3862 40.0114 34.3862L49.3644 34.3551C49.5084 34.3549 49.651 34.3263 49.7839 34.2709C49.9169 34.2156 50.0376 34.1346 50.1393 34.0326C50.2409 33.9306 50.3215 33.8096 50.3763 33.6765C50.4312 33.5433 50.4593 33.4007 50.4591 33.2567V14.8406C50.4588 14.5501 50.3433 14.2716 50.1379 14.0662C49.9325 13.8608 49.654 13.7453 49.3635 13.745H35.503C35.2125 13.7453 34.9339 13.8608 34.7285 14.0662C34.5231 14.2716 34.4076 14.5501 34.4074 14.8406V33.2567C34.4076 33.5472 34.5231 33.8257 34.7285 34.0311C34.9339 34.2365 35.2125 34.352 35.503 34.3523H35.6347C35.6722 34.3523 35.7081 34.3672 35.7346 34.3936C35.761 34.4201 35.7759 34.456 35.7759 34.4935C35.7759 34.5309 35.761 34.5668 35.7346 34.5933C35.7081 34.6198 35.6722 34.6347 35.6347 34.6347H35.503C35.1376 34.6344 34.7872 34.4892 34.5289 34.2308C34.2705 33.9724 34.1252 33.6221 34.125 33.2567V14.8406C34.1255 14.4753 34.2708 14.1251 34.5291 13.8668C34.7875 13.6085 35.1377 13.4631 35.503 13.4626H49.3654C49.7304 13.4636 50.0801 13.6092 50.338 13.8675C50.5959 14.1257 50.741 14.4756 50.7415 14.8406V33.2567C50.7412 33.6221 50.596 33.9724 50.3376 34.2308C50.0792 34.4892 49.7289 34.6344 49.3635 34.6347L40.0114 34.6685Z" fill="black"/>
<path d="M16.5781 72.0589L16.8021 74.1936L18.245 74.3621V71.832L16.5781 72.0589Z" fill="white"/>
<path d="M18.2463 74.5032H18.2294L16.7865 74.3347C16.7546 74.3307 16.7251 74.3161 16.7025 74.2932C16.68 74.2703 16.6658 74.2405 16.6623 74.2086L16.4382 72.0748C16.4345 72.0384 16.4451 72.0019 16.4677 71.9731C16.4904 71.9443 16.5233 71.9254 16.5597 71.9205L18.2266 71.6927C18.2466 71.6903 18.2669 71.6921 18.2861 71.6979C18.3054 71.7037 18.3233 71.7135 18.3386 71.7266C18.3538 71.7398 18.3661 71.7561 18.3745 71.7745C18.383 71.7928 18.3874 71.8127 18.3875 71.8329V74.3629C18.3875 74.3829 18.3832 74.4027 18.3749 74.4208C18.3666 74.439 18.3546 74.4552 18.3395 74.4684C18.3139 74.4912 18.2807 74.5036 18.2463 74.5032ZM16.9286 74.0665L18.1052 74.2001V71.9939L16.7338 72.1821L16.9286 74.0665Z" fill="black"/>
<path d="M18.4742 78.077C17.5636 78.2022 16.6402 78.2022 15.7296 78.077C15.64 78.0647 15.5541 78.0337 15.4773 77.9861C15.4005 77.9385 15.3346 77.8753 15.2838 77.8006C15.2329 77.7259 15.1983 77.6414 15.1822 77.5525C15.1661 77.4636 15.1688 77.3723 15.1902 77.2845C15.4444 76.2491 15.8839 74.2839 16.6378 73.3727L16.8261 73.8669L17.0849 73.4019C17.1021 73.3703 17.1267 73.3433 17.1565 73.3232C17.1863 73.3031 17.2205 73.2903 17.2562 73.2862L17.821 73.2137C17.8781 73.2065 17.9359 73.2212 17.9828 73.2546C18.0297 73.2881 18.0623 73.338 18.0742 73.3944L18.1683 73.8227L18.3659 73.2579L19.0248 77.3541C19.0476 77.523 19.0023 77.694 18.8991 77.8295C18.7958 77.9651 18.643 78.0541 18.4742 78.077Z" fill="#99B9FF"/>
<path d="M17.1093 78.3113C16.6408 78.3125 16.1728 78.281 15.7087 78.2172C15.5994 78.2025 15.4945 78.165 15.4006 78.1072C15.3068 78.0493 15.2262 77.9723 15.1641 77.8812C15.1019 77.7901 15.0596 77.687 15.04 77.5785C15.0203 77.47 15.0237 77.3586 15.0499 77.2515L15.1044 77.0284C15.3652 75.9545 15.8028 74.1577 16.5257 73.2833C16.5415 73.2642 16.562 73.2496 16.5852 73.241C16.6084 73.2324 16.6334 73.23 16.6578 73.2341C16.6823 73.2382 16.7052 73.2486 16.7242 73.2644C16.7433 73.2801 16.758 73.3006 16.7667 73.3238L16.8467 73.5336L16.9568 73.3341C16.985 73.2831 17.0249 73.2395 17.0731 73.2068C17.1214 73.1741 17.1766 73.1532 17.2345 73.1459L17.7992 73.0734C17.8811 73.0642 17.9638 73.0822 18.0345 73.1245C18.1052 73.1668 18.1601 73.2312 18.1907 73.3078L18.2237 73.2136C18.234 73.1838 18.254 73.1583 18.2804 73.1412C18.3069 73.1241 18.3383 73.1163 18.3697 73.1191C18.4011 73.1219 18.4307 73.1352 18.4537 73.1567C18.4767 73.1783 18.4918 73.207 18.4966 73.2381L19.1555 77.3343C19.183 77.5398 19.1284 77.7478 19.0037 77.9134C18.879 78.0789 18.6942 78.1888 18.4891 78.2191C18.0318 78.2815 17.5708 78.3123 17.1093 78.3113ZM16.5963 73.6626C16.0005 74.5455 15.6165 76.122 15.3802 77.0934L15.3256 77.3174C15.3086 77.3857 15.3063 77.4568 15.3188 77.5261C15.3313 77.5954 15.3583 77.6612 15.3981 77.7193C15.4381 77.7777 15.4898 77.827 15.5499 77.8643C15.61 77.9016 15.6773 77.9259 15.7473 77.9358C16.6451 78.0596 17.5556 78.0596 18.4533 77.9358C18.5843 77.9164 18.7024 77.8463 18.7821 77.7407C18.8619 77.6351 18.8969 77.5023 18.8797 77.371L18.3093 73.8283L18.2962 73.8668C18.2854 73.8955 18.2659 73.9201 18.2404 73.937C18.2149 73.9539 18.1846 73.9623 18.154 73.961C18.1233 73.9588 18.0941 73.9467 18.0709 73.9265C18.0476 73.9063 18.0315 73.8791 18.0251 73.849L17.931 73.4198C17.9263 73.3989 17.9141 73.3804 17.8968 73.3677C17.8795 73.3551 17.8582 73.3492 17.8368 73.3511L17.2721 73.4226C17.2585 73.4245 17.2455 73.4296 17.2342 73.4374C17.2229 73.4453 17.2137 73.4557 17.2072 73.4678L16.9511 73.9346C16.9381 73.9581 16.9185 73.9773 16.8948 73.99C16.8711 74.0027 16.8443 74.0083 16.8175 74.0061C16.7902 74.0042 16.7641 73.9942 16.7425 73.9775C16.7209 73.9607 16.7047 73.938 16.6961 73.912L16.5963 73.6626Z" fill="black"/>
<path d="M16.8034 77.6252C16.3905 77.6275 15.9785 77.584 15.5751 77.4953C15.5386 77.4871 15.5068 77.4647 15.4867 77.433C15.4667 77.4013 15.4601 77.363 15.4683 77.3264C15.4765 77.2898 15.499 77.258 15.5306 77.238C15.5623 77.2179 15.6007 77.2113 15.6372 77.2195C17.0378 77.5386 18.5024 77.1254 18.5174 77.1254C18.5356 77.119 18.5549 77.1164 18.5741 77.1178C18.5933 77.1191 18.612 77.1244 18.6291 77.1332C18.6463 77.1421 18.6614 77.1543 18.6736 77.1693C18.6858 77.1842 18.6948 77.2014 18.7 77.22C18.7053 77.2385 18.7067 77.2579 18.7042 77.277C18.7017 77.2961 18.6953 77.3145 18.6855 77.331C18.6756 77.3475 18.6624 77.3619 18.6468 77.3731C18.6312 77.3844 18.6134 77.3924 18.5946 77.3965C18.0097 77.5487 17.4078 77.6255 16.8034 77.6252Z" fill="black"/>
<path d="M16.4561 76.0383C16.4186 76.0389 16.3825 76.0246 16.3555 75.9986C16.3286 75.9726 16.3131 75.9369 16.3125 75.8995C16.3119 75.862 16.3262 75.8259 16.3522 75.7989C16.3782 75.772 16.4139 75.7566 16.4514 75.7559L17.8039 75.7117H17.8086C17.846 75.7111 17.8822 75.7253 17.9091 75.7514C17.936 75.7774 17.9515 75.8131 17.9521 75.8505C17.9528 75.888 17.9385 75.9241 17.9125 75.951C17.8864 75.978 17.8508 75.9934 17.8133 75.9941L16.4608 76.0383H16.4561Z" fill="black"/>
<path d="M23.3359 70.9229L23.5515 74.0374H25.288L25.369 70.9229H23.3359Z" fill="white"/>
<path d="M25.289 74.1784H23.5533C23.5175 74.1785 23.4829 74.1649 23.4567 74.1404C23.4305 74.1159 23.4145 74.0824 23.4121 74.0466L23.1957 70.933C23.1943 70.9137 23.1969 70.8942 23.2034 70.8759C23.2099 70.8576 23.2201 70.8409 23.2333 70.8267C23.2466 70.8126 23.2627 70.8013 23.2805 70.7935C23.2983 70.7857 23.3174 70.7817 23.3369 70.7815H25.3699C25.3887 70.7816 25.4073 70.7855 25.4246 70.793C25.4419 70.8004 25.4576 70.8112 25.4706 70.8248C25.4839 70.8381 25.4944 70.854 25.5013 70.8714C25.5083 70.8889 25.5116 70.9076 25.5111 70.9264L25.4301 74.041C25.4292 74.0778 25.4139 74.1127 25.3875 74.1384C25.3611 74.164 25.3258 74.1784 25.289 74.1784ZM23.6889 73.896H25.1562L25.2297 71.0639H23.4884L23.6889 73.896Z" fill="black"/>
<path d="M23.1016 75.8003C23.0994 75.9433 23.1462 76.0827 23.2342 76.1954C23.3222 76.308 23.4462 76.3872 23.5854 76.4196C24.5831 76.6521 26.8317 77.1726 27.4727 77.2667C28.3057 77.391 29.3288 77.1359 29.7684 76.6493C30.2079 76.1627 28.7838 74.9993 28.1071 74.5786C27.1028 73.9498 26.138 72.7084 25.7333 72.6519C25.3286 72.5954 24.5765 73.7616 24.5765 73.7616L23.3417 73.243C23.1898 74.0871 23.1095 74.9426 23.1016 75.8003Z" fill="#99B9FF"/>
<path d="M27.9062 77.4324C27.7544 77.4329 27.6027 77.4218 27.4525 77.3995C26.8276 77.3053 24.7418 76.8291 23.554 76.5524C23.3835 76.512 23.232 76.4147 23.1242 76.2767C23.0164 76.1386 22.9588 75.9679 22.961 75.7928C22.9688 74.9283 23.0491 74.0659 23.201 73.2148C23.2051 73.1943 23.2137 73.1749 23.2261 73.1581C23.2386 73.1414 23.2547 73.1276 23.2732 73.1179C23.2917 73.1081 23.3122 73.1027 23.3331 73.1018C23.3539 73.101 23.3748 73.1049 23.394 73.1131L24.5234 73.5837C24.7682 73.2185 25.3414 72.4439 25.7564 72.5013C25.9927 72.5333 26.2911 72.8082 26.7993 73.2901C27.2201 73.6891 27.6963 74.1372 28.1858 74.4478C28.6234 74.7217 29.895 75.6563 29.9901 76.3378C30.0024 76.4081 29.9986 76.4804 29.9789 76.549C29.9591 76.6177 29.924 76.6809 29.8762 76.734C29.4922 77.1595 28.6865 77.4324 27.9062 77.4324ZM23.4476 73.4416C23.3225 74.2199 23.2545 75.0064 23.2443 75.7947C23.2429 75.9056 23.2795 76.0137 23.348 76.101C23.4165 76.1883 23.5127 76.2496 23.6208 76.2747C24.5733 76.4968 26.8586 77.023 27.4977 77.1218C28.3006 77.2413 29.2738 76.9844 29.6626 76.5486C29.6826 76.5262 29.6971 76.4993 29.7046 76.4701C29.7121 76.4409 29.7126 76.4104 29.7058 76.3811C29.6418 75.9208 28.6921 75.1038 28.0314 74.6868C27.5184 74.3659 27.0309 73.9028 26.5998 73.4943C26.2412 73.1545 25.8703 72.8025 25.7132 72.7809C25.5249 72.7545 25.0317 73.3051 24.691 73.835C24.6731 73.8632 24.6457 73.8842 24.6138 73.894C24.5819 73.9038 24.5475 73.9019 24.5168 73.8887L23.4476 73.4416Z" fill="black"/>
<path d="M27.892 76.8592C26.0688 76.8592 23.6395 75.8775 23.5021 75.8238C23.4674 75.8097 23.4397 75.7824 23.4252 75.7479C23.4106 75.7134 23.4104 75.6745 23.4245 75.6398C23.4386 75.6051 23.4659 75.5774 23.5004 75.5629C23.5349 75.5483 23.5738 75.548 23.6085 75.5622C23.6527 75.58 28.0153 77.343 29.2813 76.1994C29.2946 76.185 29.3108 76.1736 29.3288 76.1658C29.3468 76.158 29.3662 76.1541 29.3858 76.1542C29.4054 76.1544 29.4247 76.1586 29.4426 76.1666C29.4605 76.1747 29.4765 76.1864 29.4896 76.2009C29.5028 76.2155 29.5127 76.2326 29.5188 76.2512C29.525 76.2698 29.5272 76.2895 29.5253 76.3091C29.5234 76.3286 29.5174 76.3475 29.5078 76.3646C29.4982 76.3816 29.4852 76.3966 29.4695 76.4083C29.1062 76.7415 28.5367 76.8592 27.892 76.8592Z" fill="black"/>
<path d="M25.9646 74.9747C25.9361 74.9745 25.9084 74.9658 25.8851 74.9496C25.8617 74.9334 25.8437 74.9106 25.8336 74.884C25.8234 74.8575 25.8215 74.8285 25.8281 74.8008C25.8346 74.7732 25.8494 74.7481 25.8704 74.729L26.7533 73.9318C26.7669 73.9182 26.7831 73.9075 26.8009 73.9004C26.8187 73.8933 26.8378 73.8899 26.857 73.8904C26.8762 73.8909 26.8951 73.8954 26.9125 73.9034C26.9299 73.9115 26.9455 73.923 26.9583 73.9373C26.9711 73.9516 26.9809 73.9683 26.987 73.9865C26.9931 74.0047 26.9955 74.024 26.9939 74.0431C26.9924 74.0622 26.9869 74.0808 26.9779 74.0978C26.9689 74.1147 26.9565 74.1297 26.9416 74.1417L26.0587 74.938C26.0329 74.9613 25.9994 74.9744 25.9646 74.9747Z" fill="black"/>
<path d="M16.0872 50.6224C16.0872 50.6224 15.5488 60.3566 15.2674 63.7177C14.986 67.0788 15.9263 72.4805 15.9263 72.4805L18.6069 72.3393C18.6069 72.3393 18.7904 65.7715 18.989 63.9474C18.989 63.9474 20.1185 61.4747 20.4564 59.2694C20.7943 57.0641 21.9351 53.5806 21.9351 53.5806C21.9351 53.5806 22.8631 70.967 22.9525 72.3328C22.9525 72.3328 25.0543 72.4269 25.8073 71.9563C25.8073 71.9563 27.1429 65.6171 26.9509 62.1675C26.7589 58.7179 26.9697 50.1489 26.9697 50.1489L16.0872 50.6224Z" fill="black"/>
<path d="M18.4952 64.0875H17.6763C17.6389 64.0875 17.603 64.0727 17.5765 64.0462C17.55 64.0197 17.5352 63.9838 17.5352 63.9464C17.5352 63.9089 17.55 63.873 17.5765 63.8465C17.603 63.82 17.6389 63.8052 17.6763 63.8052H18.4952C18.5327 63.8052 18.5686 63.82 18.595 63.8465C18.6215 63.873 18.6364 63.9089 18.6364 63.9464C18.6364 63.9838 18.6215 64.0197 18.595 64.0462C18.5686 64.0727 18.5327 64.0875 18.4952 64.0875Z" fill="white"/>
<path d="M24.3298 69.1439C24.3113 69.1437 24.293 69.1398 24.276 69.1324C24.2591 69.1251 24.2437 69.1145 24.2308 69.1012C24.218 69.0879 24.2079 69.0722 24.2011 69.055C24.1943 69.0377 24.1911 69.0194 24.1914 69.0009C24.2206 67.3772 25.9929 64.483 26.0682 64.3606C26.0889 64.3312 26.12 64.3107 26.1553 64.3034C26.1905 64.2962 26.2272 64.3026 26.2578 64.3215C26.2885 64.3404 26.3107 64.3702 26.3201 64.4049C26.3295 64.4397 26.3252 64.4767 26.3083 64.5084C26.2904 64.5376 24.502 67.4601 24.4738 69.0056C24.4734 69.0241 24.4694 69.0424 24.462 69.0594C24.4545 69.0764 24.4438 69.0917 24.4305 69.1046C24.4171 69.1174 24.4013 69.1275 24.384 69.1343C24.3668 69.141 24.3483 69.1443 24.3298 69.1439Z" fill="white"/>
<path d="M27.8182 35.0525C28.014 35.0375 28.9712 36.9981 31.9681 36.9162C34.965 36.8343 37.3689 33.4807 37.3689 33.4807C37.3689 33.4807 38.4042 31.7356 39.1892 31.105C39.9742 30.4744 40.0984 30.3906 40.0984 30.3906C40.1693 30.4963 40.2072 30.6206 40.2072 30.7478C40.2072 30.875 40.1693 30.9994 40.0984 31.105C39.8518 31.4909 39.1722 32.2128 39.1722 32.2128C39.3854 32.336 39.5453 32.5337 39.6213 32.7678C39.6973 33.0019 39.6838 33.2559 39.5836 33.4807C39.1948 34.4661 38.1002 34.3861 38.1002 34.3861C38.1002 34.3861 35.8779 44.2239 26.6953 39.5497L27.8182 35.0525Z" fill="white"/>
<path d="M31.246 40.9512C29.8417 40.9512 28.2981 40.5249 26.6283 39.6749C26.5998 39.6605 26.577 39.6368 26.5636 39.6078C26.5503 39.5787 26.5472 39.546 26.5549 39.5149L27.6797 35.0187C27.6865 34.9897 27.7025 34.9638 27.7252 34.9446C27.7479 34.9255 27.7762 34.9142 27.8058 34.9123C27.915 34.9029 27.9894 34.9857 28.1522 35.1674C28.6002 35.6672 29.6516 36.8362 31.9623 36.775C34.8057 36.6969 37.1466 33.5428 37.2492 33.4026C37.3264 33.2736 38.3175 31.6218 39.0987 30.9949C39.8799 30.3681 40.0117 30.2768 40.0173 30.273C40.0472 30.2541 40.083 30.247 40.1178 30.2531C40.1526 30.2592 40.1839 30.278 40.2056 30.3059C40.2941 30.4343 40.342 30.5863 40.343 30.7423C40.344 30.8982 40.2981 31.0508 40.2112 31.1803C39.9578 31.5352 39.6804 31.8723 39.3811 32.1893C39.6634 32.4162 39.9656 32.8821 39.7086 33.5325C39.3669 34.3993 38.5189 34.5151 38.2026 34.5274C38.02 35.2163 36.9037 38.9511 33.8579 40.3827C33.0403 40.7637 32.1481 40.9579 31.246 40.9512ZM26.8561 39.4745C29.516 40.8044 31.8324 41.0247 33.7431 40.1277C36.964 38.6151 37.9495 34.3975 37.9589 34.3551C37.9666 34.3222 37.9858 34.2931 38.0131 34.2731C38.0404 34.2531 38.0739 34.2435 38.1076 34.2459C38.1471 34.2459 39.1043 34.3024 39.4488 33.4289C39.537 33.2361 39.5503 33.0173 39.4859 32.8153C39.4215 32.6132 39.2841 32.4424 39.1006 32.3362C39.0818 32.3257 39.0657 32.3111 39.0534 32.2934C39.0411 32.2758 39.0331 32.2556 39.0298 32.2343C39.0265 32.2131 39.0282 32.1914 39.0345 32.1709C39.0409 32.1503 39.0519 32.1315 39.0667 32.1159C39.0733 32.1093 39.7397 31.3987 39.9759 31.0288C40.0176 30.9677 40.0453 30.8981 40.0568 30.825C40.0684 30.7519 40.0636 30.6772 40.0427 30.6062C39.9204 30.7003 39.6917 30.8801 39.2747 31.2142C38.5217 31.8223 37.4977 33.5353 37.4864 33.5532C37.4845 33.5565 37.4823 33.5597 37.4798 33.5626C37.38 33.7019 34.9996 36.9745 31.9679 37.0574C29.5207 37.1251 28.4139 35.8846 27.9395 35.3556L27.8962 35.3076L26.8561 39.4745Z" fill="black"/>
<path d="M12.9648 39.5497C12.9648 39.5497 13.8637 33.7442 17.046 32.3154C20.2283 30.8866 24.5222 31.0862 25.7053 31.7996C26.8884 32.5131 29.9804 35.7368 29.9804 35.7368L27.2508 39.5488C27.2508 39.5488 27.8749 49.8082 27.3817 52.5161C27.3817 52.5161 24.3443 52.8709 23.0567 52.3636C21.7691 51.8563 17.5326 51.1457 15.508 52.0756L15.8761 39.0866L12.9648 39.5497Z" fill="#CADDFF"/>
<path d="M25.2333 52.7796C24.4192 52.7796 23.556 52.7156 22.997 52.4972C21.6689 51.9748 17.4832 51.3225 15.5612 52.2064C15.5395 52.2166 15.5156 52.221 15.4916 52.2192C15.4677 52.2174 15.4447 52.2094 15.4248 52.196C15.4047 52.1828 15.3883 52.1648 15.3771 52.1435C15.3659 52.1223 15.3603 52.0986 15.3608 52.0746L15.7269 39.2532L12.9879 39.6889C12.9659 39.6924 12.9433 39.6906 12.922 39.6837C12.9008 39.6768 12.8815 39.6651 12.8656 39.6494C12.8498 39.6338 12.8379 39.6146 12.8311 39.5935C12.8242 39.5724 12.8225 39.5499 12.826 39.528C12.8627 39.288 13.7738 33.6302 16.9844 32.1864C20.1309 30.7746 24.4869 30.9026 25.7755 31.6781C26.9633 32.3925 29.9526 35.5071 30.0797 35.6388C30.1024 35.6628 30.1161 35.694 30.1183 35.727C30.1206 35.76 30.1112 35.7927 30.0919 35.8195L27.3897 39.591C27.4414 40.4579 27.9939 49.9163 27.5149 52.5424C27.5096 52.5721 27.4948 52.5994 27.4727 52.6201C27.4507 52.6408 27.4225 52.6538 27.3925 52.6572C26.6754 52.7356 25.9547 52.7765 25.2333 52.7796ZM18.2513 51.4825C20.1827 51.4825 22.2647 51.9042 23.1005 52.2355C24.2083 52.6723 26.7101 52.4464 27.2523 52.3908C27.7069 49.5775 27.1158 39.6569 27.1045 39.5628C27.1019 39.5293 27.1113 39.496 27.1308 39.4687L29.7926 35.7527C29.2966 35.2407 26.6781 32.5525 25.6277 31.9229C24.5217 31.2574 20.2627 31.0259 17.0983 32.4471C14.3489 33.682 13.3277 38.3703 13.1366 39.3802L15.8493 38.9491C15.8697 38.9458 15.8907 38.9471 15.9105 38.953C15.9304 38.9589 15.9487 38.9691 15.9641 38.983C15.9793 38.9967 15.9913 39.0136 15.9991 39.0325C16.0069 39.0514 16.0104 39.0718 16.0093 39.0922L15.6478 51.8619C16.3651 51.588 17.2903 51.4825 18.2541 51.4825H18.2513Z" fill="black"/>
<path d="M18.2946 49.5399C18.2571 49.5431 18.2199 49.5314 18.1912 49.5072C18.1624 49.483 18.1444 49.4484 18.1412 49.4109C18.1379 49.3735 18.1497 49.3363 18.1739 49.3075C18.198 49.2787 18.2327 49.2608 18.2701 49.2575C23.0704 48.4104 24.4643 45.0973 24.4775 45.0634C24.4845 45.0462 24.4948 45.0306 24.5078 45.0174C24.5208 45.0042 24.5363 44.9937 24.5534 44.9865C24.5705 44.9792 24.5889 44.9755 24.6074 44.9753C24.6259 44.9752 24.6443 44.9788 24.6615 44.9857C24.6787 44.9927 24.6943 45.003 24.7075 45.016C24.7207 45.0291 24.7312 45.0446 24.7385 45.0617C24.7457 45.0787 24.7494 45.0971 24.7496 45.1156C24.7497 45.1342 24.7462 45.1526 24.7392 45.1697C24.7251 45.2046 23.2737 48.6598 18.32 49.5352L18.2946 49.5399Z" fill="black"/>
<path d="M27.015 43.6065H20.832L22.7681 36.7007H28.9511L27.015 43.6065Z" fill="black"/>
<path d="M13.5089 39.5713L16.6385 38.1726C16.6385 38.1726 16.1971 43.4746 22.5278 41.0264C22.3797 40.5486 22.3119 40.0496 22.3273 39.5496C22.3602 38.7533 22.8365 39.5233 22.9033 40.1699C22.9702 40.8165 24.4564 40.5549 25.3505 40.2998C26.2447 40.0447 27.4165 40.2113 25.3505 41.3511C23.2845 42.491 22.8327 41.9818 22.8327 41.9818C22.8327 41.9818 20.1973 45.6733 16.9124 44.8892C12.8745 43.9245 13.5089 39.5713 13.5089 39.5713Z" fill="white"/>
<path d="M17.8267 45.1387C17.5075 45.1387 17.1894 45.1011 16.8789 45.0267C12.7639 44.0431 13.3634 39.5958 13.37 39.5515C13.3733 39.5279 13.3826 39.5055 13.3969 39.4864C13.4112 39.4673 13.4301 39.4521 13.4519 39.4423L16.5805 38.0437C16.6029 38.0335 16.6276 38.0295 16.6521 38.032C16.6766 38.0344 16.6999 38.0434 16.7198 38.0578C16.7397 38.072 16.7556 38.091 16.766 38.1131C16.7764 38.1352 16.7809 38.1596 16.7791 38.1839C16.7791 38.2037 16.638 40.0965 17.8729 41.0189C18.8235 41.7295 20.3304 41.7032 22.355 40.9417C22.2289 40.4866 22.1724 40.0151 22.1874 39.5431C22.1922 39.4282 22.2063 39.0724 22.451 39.0724H22.4566C22.7691 39.0724 23.0044 39.7774 23.044 40.1596C23.047 40.1931 23.0579 40.2255 23.0757 40.2541C23.0935 40.2827 23.1178 40.3068 23.1466 40.3243C23.4779 40.5483 24.4728 40.4071 25.3114 40.168C25.7001 40.057 26.4729 39.9412 26.6206 40.2979C26.7402 40.5897 26.3693 40.9568 25.4177 41.4782C23.829 42.3554 23.1353 42.2849 22.868 42.1719C22.4491 42.7056 20.4085 45.1387 17.8267 45.1387ZM13.6401 39.6673C13.5736 40.3969 13.6396 41.1326 13.835 41.8387C14.2802 43.3852 15.3268 44.365 16.941 44.7565C20.0942 45.5095 22.6872 41.9413 22.7136 41.9046C22.7258 41.8873 22.7419 41.8731 22.7605 41.8629C22.7791 41.8528 22.7997 41.8471 22.8209 41.8462C22.842 41.8453 22.8631 41.849 22.8826 41.8572C22.9021 41.8653 22.9196 41.8776 22.9338 41.8933C22.9338 41.8933 23.3969 42.2698 25.2784 41.2344C26.3722 40.6311 26.3552 40.4099 26.3552 40.408C26.3129 40.3384 25.9006 40.296 25.3848 40.4429C24.9594 40.5643 23.5306 40.9314 22.9847 40.5615C22.9218 40.5209 22.8689 40.4667 22.8299 40.4028C22.7909 40.3389 22.7669 40.267 22.7597 40.1925C22.7309 39.911 22.6358 39.6404 22.4821 39.4028C22.4728 39.4557 22.4672 39.5092 22.4651 39.5628C22.4511 40.0452 22.5163 40.5266 22.6581 40.9878C22.67 41.0224 22.6681 41.0603 22.6526 41.0935C22.6372 41.1267 22.6094 41.1526 22.5752 41.1657C20.3916 42.0128 18.751 42.0392 17.6987 41.2514C16.5965 40.4269 16.4855 38.9689 16.4864 38.4013L13.6401 39.6673Z" fill="black"/>
<path d="M21.8633 29.6705C21.5932 29.918 21.0642 30.2202 20.651 30.0121C20.3433 29.8568 20.171 29.4559 20.1804 28.9956C20.0995 29.0077 20.017 29.0036 19.9377 28.9836C19.8583 28.9635 19.7838 28.928 19.7183 28.8789C19.5121 28.6972 19.5507 28.3641 19.5592 28.1438C19.5959 27.131 19.0076 26.9757 19.1517 26.2886C19.2646 25.7484 19.6891 25.4265 19.7682 25.3662C20.1691 25.0622 20.4402 25.161 21.1141 24.9841C22.2436 24.6876 22.2831 24.1991 23.0295 24.1963C23.0728 24.1963 24.0893 24.2076 24.4338 24.9097C24.7162 25.4811 24.3868 26.1748 24.0479 26.539C23.6093 27.0096 23.2949 26.7781 22.8545 27.1743C22.0826 27.869 22.6662 28.9354 21.8633 29.6705Z" fill="black"/>
<path d="M24.1255 27.8633L24.0803 27.8247C23.8563 27.6317 23.6229 27.4077 23.5636 27.1178C23.3104 25.8848 22.1809 25.4368 22.1292 26.5691C22.116 26.8515 21.0722 26.8402 21.1964 27.1395C21.5192 27.9216 21.5258 27.7108 21.0703 27.9998C21.0182 28.0014 20.967 28.0136 20.9197 28.0355C20.6863 28.1438 20.6034 28.461 20.7314 28.7433C20.7659 28.822 20.8168 28.8924 20.8808 28.9497C20.9448 29.007 21.0203 29.0499 21.1023 29.0756V30.3105C21.1021 30.5369 21.0346 30.7582 20.9084 30.9462C20.7822 31.1342 20.603 31.2805 20.3935 31.3665L19.9766 31.5369C19.9766 31.5369 21.9211 32.8057 23.8949 31.4127L23.6314 31.2941C23.4039 31.1921 23.2096 31.0283 23.0708 30.8213C22.932 30.6142 22.8542 30.3723 22.8464 30.1232V29.8822C22.9728 29.8947 23.1004 29.8839 23.2229 29.8502C23.7754 29.6893 23.958 29.053 23.8648 28.2624L24.0888 28.1419C24.1135 28.1293 24.1347 28.111 24.1507 28.0884C24.1667 28.0658 24.1769 28.0397 24.1805 28.0122C24.1841 27.9848 24.181 27.9569 24.1714 27.931C24.1618 27.905 24.1461 27.8818 24.1255 27.8633Z" fill="white"/>
<path d="M21.9018 32.2023C21.1986 32.1979 20.5087 32.0097 19.9007 31.6564C19.879 31.6425 19.8615 31.6229 19.8502 31.5997C19.8388 31.5765 19.8341 31.5507 19.8366 31.525C19.839 31.4993 19.8485 31.4748 19.8639 31.4541C19.8794 31.4335 19.9003 31.4175 19.9243 31.4079L20.3412 31.2376C20.5251 31.1629 20.6824 31.0351 20.7931 30.8704C20.9038 30.7057 20.9627 30.5117 20.9624 30.3133V29.1744C20.8036 29.0972 20.677 28.9666 20.6048 28.8054C20.44 28.4525 20.5539 28.0524 20.857 27.9094C20.9093 27.885 20.9653 27.8694 21.0227 27.8633C21.0942 27.819 21.1535 27.788 21.2015 27.7616C21.2297 27.7465 21.2608 27.7305 21.2796 27.7183C21.2526 27.6373 21.2211 27.5578 21.1855 27.4802C21.1516 27.403 21.1111 27.3098 21.0641 27.1978C21.0492 27.1652 21.0415 27.1297 21.0415 27.0938C21.0415 27.0579 21.0492 27.0224 21.0641 26.9898C21.1384 26.8373 21.3521 26.7771 21.5996 26.7074C21.7211 26.6735 21.9441 26.6133 21.9827 26.5587C22.0166 25.8744 22.411 25.7907 22.5315 25.7813C22.956 25.7493 23.5216 26.2396 23.6967 27.0915C23.7475 27.3418 23.9668 27.5479 24.1673 27.7211L24.2125 27.7597C24.2505 27.7928 24.2799 27.8346 24.2982 27.8815C24.3166 27.9284 24.3232 27.9791 24.3177 28.0291C24.3121 28.0792 24.2945 28.1272 24.2664 28.1689C24.2382 28.2107 24.2003 28.245 24.156 28.2689L24.0148 28.3452C24.0967 29.228 23.8266 29.8248 23.2618 29.9886C23.1718 30.0141 23.0788 30.028 22.9851 30.03V30.1241C22.9934 30.3459 23.0635 30.5611 23.1874 30.7453C23.3112 30.9295 23.484 31.0756 23.6863 31.167L23.9499 31.2856C23.9728 31.2956 23.9925 31.3115 24.0072 31.3317C24.0218 31.3519 24.0308 31.3757 24.0332 31.4006C24.0356 31.4254 24.0313 31.4504 24.0208 31.4731C24.0103 31.4957 23.9939 31.5151 23.9734 31.5294C23.3709 31.9661 22.6459 32.2016 21.9018 32.2023ZM20.3017 31.5557C20.8448 31.8211 22.1898 32.2993 23.6016 31.4362L23.5734 31.423C23.3223 31.3095 23.108 31.1281 22.9547 30.8993C22.8013 30.6704 22.715 30.4032 22.7056 30.1279V29.8831C22.7055 29.8634 22.7096 29.8439 22.7174 29.8258C22.7253 29.8077 22.7369 29.7914 22.7514 29.7781C22.766 29.7647 22.7831 29.7545 22.8018 29.7481C22.8205 29.7417 22.8403 29.7393 22.8599 29.741C22.9698 29.7528 23.0809 29.7439 23.1875 29.7147C23.8078 29.5339 23.772 28.6501 23.7287 28.2793C23.7251 28.2511 23.7301 28.2224 23.7433 28.1972C23.7564 28.1719 23.7769 28.1513 23.8021 28.1381L24.0261 28.0176C24.0303 28.0154 24.0338 28.0121 24.0364 28.0082C24.0391 28.0043 24.0407 27.9997 24.0412 27.995C24.0419 27.9905 24.0414 27.9858 24.0397 27.9815C24.0381 27.9773 24.0353 27.9735 24.0318 27.9706L23.9866 27.932C23.7503 27.7287 23.4925 27.483 23.4219 27.146C23.2713 26.4147 22.8148 26.041 22.555 26.0599C22.315 26.0787 22.2726 26.4269 22.267 26.5757C22.2557 26.8138 21.962 26.8966 21.6778 26.9757C21.557 27.0034 21.44 27.0458 21.3295 27.1018C21.3737 27.2072 21.4114 27.2901 21.4425 27.3654C21.5968 27.7211 21.6486 27.836 21.3342 28.0092C21.2824 28.0364 21.2194 28.0703 21.146 28.1183C21.125 28.1314 21.101 28.1389 21.0763 28.14C21.0437 28.1417 21.0118 28.1497 20.9822 28.1635C20.8194 28.2388 20.7676 28.4722 20.8664 28.684C20.8925 28.7444 20.9312 28.7985 20.9799 28.8426C21.0286 28.8868 21.0862 28.92 21.1488 28.94C21.1783 28.9484 21.2043 28.9662 21.2228 28.9906C21.2413 29.0151 21.2513 29.0449 21.2514 29.0756V30.3114C21.2518 30.5659 21.1761 30.8147 21.034 31.0259C20.892 31.237 20.69 31.4009 20.4542 31.4964L20.3017 31.5557Z" fill="black"/>
<path d="M22.8473 30.0236H22.8266C22.5805 29.9863 22.3452 29.8971 22.1363 29.7617C21.9274 29.6264 21.7498 29.448 21.6153 29.2386C21.5975 29.2067 21.593 29.1691 21.6026 29.1339C21.6123 29.0987 21.6354 29.0687 21.667 29.0503C21.6994 29.0317 21.7378 29.0267 21.7739 29.0362C21.81 29.0457 21.8409 29.069 21.86 29.1011C21.9743 29.2728 22.123 29.4189 22.2967 29.5302C22.4704 29.6415 22.6652 29.7156 22.869 29.7478C22.8875 29.7492 22.9056 29.7543 22.9222 29.7627C22.9388 29.7711 22.9535 29.7827 22.9656 29.7968C22.9777 29.8109 22.9869 29.8273 22.9927 29.8449C22.9985 29.8626 23.0008 29.8812 22.9993 29.8998C22.9979 29.9183 22.9929 29.9364 22.9844 29.953C22.976 29.9696 22.9644 29.9843 22.9503 29.9964C22.9362 30.0085 22.9198 30.0178 22.9022 30.0235C22.8845 30.0293 22.8659 30.0316 22.8473 30.0301V30.0236Z" fill="black"/>
<path d="M45.1876 71.9327C45.1501 71.9356 45.1131 71.9235 45.0846 71.8991C45.0561 71.8746 45.0384 71.8398 45.0356 71.8024C45.0327 71.7649 45.0448 71.7279 45.0693 71.6994C45.0937 71.6709 45.1285 71.6532 45.1659 71.6504C45.2544 71.6363 54.0314 70.2207 60.0486 64.3408C60.0618 64.3272 60.0775 64.3163 60.0949 64.3089C60.1123 64.3015 60.1311 64.2976 60.15 64.2976C60.1689 64.2976 60.1877 64.3013 60.2051 64.3087C60.2225 64.316 60.2383 64.3268 60.2515 64.3404C60.2647 64.354 60.275 64.37 60.2819 64.3877C60.2887 64.4053 60.292 64.4242 60.2914 64.4431C60.2908 64.462 60.2865 64.4806 60.2785 64.4978C60.2706 64.515 60.2594 64.5304 60.2454 64.5432C54.1622 70.487 45.2977 71.9158 45.2092 71.929L45.1876 71.9327Z" fill="black"/>
<path d="M52.1771 71.9148C52.1439 71.915 52.1116 71.9034 52.086 71.8821C52.0604 71.8608 52.0432 71.8312 52.0374 71.7985C52.0315 71.7657 52.0374 71.7319 52.054 71.7031C52.0706 71.6743 52.0969 71.6523 52.1282 71.6409C52.1959 71.6155 58.9352 69.0996 61.2148 64.7125C61.2228 64.6952 61.2342 64.6796 61.2484 64.6668C61.2626 64.654 61.2792 64.6442 61.2973 64.638C61.3153 64.6318 61.3345 64.6293 61.3535 64.6308C61.3726 64.6322 61.3911 64.6374 61.4081 64.6462C61.425 64.655 61.44 64.6672 61.4522 64.6819C61.4643 64.6967 61.4733 64.7138 61.4786 64.7321C61.484 64.7504 61.4855 64.7697 61.4832 64.7886C61.4809 64.8076 61.4748 64.8259 61.4652 64.8424C59.1347 69.3311 52.2948 71.8809 52.2261 71.9016C52.2106 71.9088 52.1941 71.9132 52.1771 71.9148Z" fill="black"/>
<path d="M16.6879 9.94806C16.6665 9.94792 16.6454 9.94294 16.6262 9.93348C16.6069 9.92403 16.5901 9.91035 16.5769 9.89347C16.5654 9.87891 16.557 9.86223 16.552 9.8444C16.547 9.82656 16.5457 9.80792 16.5479 9.78954C16.5502 9.77116 16.5561 9.75342 16.5653 9.73733C16.5744 9.72124 16.5867 9.70713 16.6014 9.69581C20.7033 6.46649 25.5933 4.39141 30.7659 3.68512C34.6513 3.16274 37.3442 3.61453 37.3705 3.61923C37.408 3.6256 37.4413 3.64658 37.4633 3.67756C37.4853 3.70853 37.4941 3.74697 37.4877 3.78442C37.4813 3.82186 37.4604 3.85524 37.4294 3.87722C37.3984 3.8992 37.36 3.90797 37.3225 3.9016C37.2962 3.89689 34.6381 3.45169 30.7923 3.97031C25.6744 4.66918 20.8357 6.72105 16.7755 9.91417C16.7509 9.93486 16.7201 9.94678 16.6879 9.94806Z" fill="black"/>
<path d="M27.9817 2.87197C27.9479 2.87213 27.9152 2.86019 27.8895 2.8383C27.8638 2.81642 27.8468 2.78604 27.8416 2.75269C27.8363 2.71933 27.8432 2.6852 27.861 2.65649C27.8788 2.62778 27.9062 2.60639 27.9384 2.59619C28.0128 2.57266 35.4607 0.256296 42.2997 2.53972C42.3353 2.5522 42.3644 2.5783 42.3807 2.61228C42.3971 2.64626 42.3992 2.68533 42.3868 2.72091C42.3743 2.75648 42.3482 2.78564 42.3142 2.80196C42.2802 2.81829 42.2411 2.82045 42.2056 2.80797C35.4532 0.549019 28.0928 2.84185 28.0194 2.86538C28.0072 2.86939 27.9945 2.8716 27.9817 2.87197Z" fill="black"/>
<path d="M9.4575 7.19779C9.42982 7.19777 9.40275 7.18962 9.37967 7.17434C9.35658 7.15906 9.3385 7.13733 9.32766 7.11185C9.31683 7.08637 9.31373 7.05827 9.31874 7.03105C9.32375 7.00382 9.33666 6.97867 9.35585 6.95872L9.80011 6.49469C9.81276 6.48071 9.82808 6.46941 9.84517 6.46145C9.86226 6.45349 9.88077 6.44903 9.89961 6.44834C9.91845 6.44765 9.93724 6.45073 9.95486 6.45742C9.97249 6.46411 9.9886 6.47426 10.0022 6.48727C10.0159 6.50028 10.0268 6.51589 10.0343 6.53319C10.0418 6.55048 10.0458 6.5691 10.046 6.58795C10.0462 6.6068 10.0426 6.6255 10.0354 6.64295C10.0283 6.66039 10.0177 6.67623 10.0044 6.68952L9.55916 7.15449C9.54599 7.16817 9.53021 7.17906 9.51274 7.1865C9.49528 7.19394 9.47649 7.19778 9.4575 7.19779Z" fill="black"/>
<path d="M7.90642 8.82327C7.87885 8.82301 7.85194 8.81474 7.82899 8.79946C7.80603 8.78417 7.78802 8.76254 7.77715 8.7372C7.76627 8.71186 7.763 8.6839 7.76774 8.65673C7.77248 8.62957 7.78502 8.60436 7.80383 8.5842L8.24903 8.12017C8.26139 8.10519 8.27671 8.09292 8.29403 8.08413C8.31135 8.07534 8.3303 8.07022 8.34969 8.06909C8.36908 8.06795 8.38849 8.07083 8.40672 8.07754C8.42494 8.08426 8.44159 8.09466 8.45561 8.1081C8.46964 8.12154 8.48074 8.13772 8.48822 8.15565C8.4957 8.17357 8.4994 8.19285 8.4991 8.21227C8.49879 8.23169 8.49448 8.25084 8.48643 8.26851C8.47839 8.28619 8.46678 8.30202 8.45234 8.31501L8.01184 8.78468C7.99778 8.79789 7.98119 8.80812 7.96308 8.81475C7.94496 8.82138 7.92569 8.82428 7.90642 8.82327Z" fill="black"/>
<path d="M8.33861 7.22229C8.32028 7.22238 8.30212 7.21885 8.28516 7.2119C8.2682 7.20496 8.25278 7.19473 8.23978 7.18182L7.78893 6.73756C7.76369 6.71104 7.74973 6.67575 7.75 6.63914C7.75028 6.60253 7.76477 6.56745 7.79041 6.54132C7.81606 6.51519 7.85085 6.50004 7.88745 6.49907C7.92405 6.49811 7.9596 6.51139 7.98659 6.53614L8.43744 6.98134C8.45757 7.00084 8.47139 7.02593 8.47712 7.05337C8.48286 7.08081 8.48024 7.10934 8.4696 7.13527C8.45896 7.16121 8.4408 7.18336 8.41745 7.19887C8.3941 7.21438 8.36664 7.22254 8.33861 7.22229Z" fill="black"/>
<path d="M9.91888 8.77809C9.8835 8.77704 9.84985 8.76257 9.82476 8.73761L9.37391 8.29335C9.35994 8.28055 9.3487 8.26507 9.34084 8.24783C9.33298 8.23059 9.32868 8.21195 9.32817 8.19301C9.32767 8.17407 9.33099 8.15523 9.33793 8.1376C9.34486 8.11997 9.35527 8.10392 9.36854 8.0904C9.38181 8.07687 9.39766 8.06616 9.41516 8.05889C9.43266 8.05163 9.45143 8.04796 9.47038 8.0481C9.48932 8.04824 9.50804 8.0522 9.52543 8.05973C9.54281 8.06726 9.5585 8.07821 9.57156 8.09193L10.0234 8.53619C10.0434 8.55588 10.0571 8.58111 10.0627 8.60864C10.0684 8.63618 10.0656 8.66476 10.0549 8.69074C10.0442 8.71671 10.026 8.73891 10.0026 8.75447C9.9792 8.77003 9.95168 8.77825 9.92358 8.77809H9.91888Z" fill="black"/>
<path d="M50.3858 74.1727C50.1788 74.1717 49.9779 74.1025 49.8142 73.9757C49.6506 73.849 49.5332 73.6719 49.4804 73.4717C49.4276 73.2716 49.4422 73.0596 49.522 72.8686C49.6018 72.6776 49.7423 72.5183 49.9219 72.4152C50.1014 72.3122 50.3099 72.2712 50.515 72.2986C50.7202 72.326 50.9106 72.4202 51.0568 72.5668C51.203 72.7133 51.2968 72.904 51.3237 73.1092C51.3506 73.3145 51.3091 73.5229 51.2056 73.7021C51.1226 73.8459 51.003 73.9652 50.859 74.0478C50.7151 74.1305 50.5518 74.1736 50.3858 74.1727ZM50.3858 72.5642C50.2241 72.5614 50.0669 72.6176 49.9435 72.7222C49.8202 72.8268 49.7391 72.9727 49.7154 73.1327C49.6916 73.2927 49.7269 73.4559 49.8146 73.5918C49.9023 73.7277 50.0364 73.827 50.1919 73.8714C50.3475 73.9157 50.5138 73.9019 50.66 73.8326C50.8061 73.7633 50.9221 73.6433 50.9863 73.4948C51.0504 73.3463 51.0584 73.1796 51.0087 73.0257C50.959 72.8718 50.855 72.7412 50.7161 72.6583C50.6168 72.5986 50.5035 72.5661 50.3877 72.5642H50.3858Z" fill="black"/>
<path d="M44.3289 4.03233C44.2094 4.03217 44.092 4.00056 43.9886 3.94068C43.8851 3.8808 43.7992 3.79476 43.7395 3.6912C43.6798 3.58763 43.6484 3.47019 43.6484 3.35065C43.6485 3.23111 43.68 3.11368 43.7397 3.01016C43.7996 2.90653 43.8856 2.82048 43.9893 2.76067C44.0929 2.70086 44.2105 2.66939 44.3301 2.66943C44.4498 2.66948 44.5673 2.70102 44.6709 2.76091C44.7745 2.82079 44.8605 2.9069 44.9203 3.01057C44.98 3.11424 45.0114 3.23181 45.0113 3.35147C45.0112 3.47113 44.9796 3.58865 44.9197 3.69222C44.8598 3.79579 44.7736 3.88174 44.6699 3.94145C44.5662 4.00115 44.4486 4.0325 44.3289 4.03233ZM44.3289 2.9518C44.2321 2.95149 44.1384 2.98642 44.0654 3.05008C43.9924 3.11373 43.945 3.20176 43.9322 3.29776C43.9193 3.39376 43.9417 3.49117 43.9953 3.57183C44.049 3.65249 44.1301 3.71089 44.2236 3.73615C44.3171 3.76141 44.4166 3.7518 44.5036 3.70912C44.5905 3.66643 44.659 3.59358 44.6962 3.50415C44.7334 3.41472 44.7368 3.31481 44.7057 3.22306C44.6747 3.1313 44.6114 3.05396 44.5275 3.00545C44.4679 2.97005 44.4002 2.9506 44.3308 2.94898L44.3289 2.9518Z" fill="black"/>
</svg>
