<svg width="79" height="79" viewBox="0 0 79 79" fill="none" xmlns="http://www.w3.org/2000/svg">
<path d="M19.292 20.3008C27.4469 12.0582 25.1122 6.89261 30.6909 3.076C39.275 -2.79608 55.299 2.25626 64.7519 10.3329C76.3291 20.2263 82.2974 38.2887 75.498 54.6296C68.2515 72.0326 49.1798 81.0657 32.171 78.3434C16.9809 75.9125 2.04368 63.8853 0.546652 49.4584C0.384403 47.8944 -0.331573 39.4433 4.69059 32.1572C8.84114 26.137 12.8304 26.8351 19.292 20.3008Z" fill="#CADDFF"/>
<path d="M59.4736 68.2877L71.9667 70.796C72.6591 70.9846 72.6497 71.8732 72.4073 72.0544L64.7448 77.4746C63.2138 78.6547 60.1499 78.2943 59.3679 78.1123L47.9766 74.6022L58.968 68.3849C59.1176 68.2883 59.2988 68.2535 59.4736 68.2877Z" fill="#99B9FF"/>
<path d="M77.2316 9.60839L77.0109 7.85856L75.0922 7.6699C74.9702 7.27751 74.8156 6.89602 74.6299 6.52944L75.8695 5.056L74.8035 3.65141L73.049 4.45134C72.7467 4.17358 72.422 3.92118 72.0783 3.69669L72.416 1.79687L70.7898 1.11298L69.671 2.68075C69.2704 2.59174 68.863 2.53652 68.4532 2.51567L67.7929 0.702637L66.0421 0.92337L65.8534 2.84394C65.4613 2.96591 65.0802 3.12052 64.7139 3.30616L63.2414 2.06571L61.8359 3.13354L62.6349 4.88903C62.3571 5.19133 62.1047 5.51598 61.8802 5.85969L59.9936 5.52388L59.3097 7.15202L60.8756 8.27078C60.7866 8.67203 60.7314 9.08002 60.7105 9.49048L58.8984 10.1508L59.1192 11.9025L61.0379 12.0912C61.1596 12.4836 61.3143 12.8651 61.5001 13.2316L60.2606 14.7051L61.3275 16.1115L63.082 15.3116C63.3836 15.5899 63.7079 15.8423 64.0517 16.0663L63.714 17.9651L65.3403 18.65L66.459 17.0813C66.8596 17.1707 67.267 17.226 67.6768 17.2463L68.3372 19.0603L70.0879 18.8386L70.2766 16.919C70.6687 16.7967 71.0499 16.6418 71.4161 16.4559L72.8886 17.6963L74.2942 16.6285L73.4829 14.8645C73.7609 14.5624 74.0133 14.2377 74.2375 13.8938L76.1355 14.2315L76.8203 12.6034L75.2535 11.4846C75.3425 11.0837 75.3977 10.676 75.4186 10.2659L77.2316 9.60839ZM68.6324 14.3881C67.7404 14.5012 66.8349 14.3472 66.0304 13.9456C65.226 13.544 64.5587 12.9128 64.1129 12.132C63.6672 11.3511 63.463 10.4555 63.5263 9.55863C63.5895 8.66172 63.9173 7.80371 64.4683 7.09311C65.0192 6.38252 65.7685 5.85127 66.6213 5.56655C67.4742 5.28183 68.3924 5.25643 69.2597 5.49356C70.127 5.73069 70.9045 6.21971 71.4938 6.89875C72.0832 7.5778 72.458 8.41638 72.5707 9.30842C72.6459 9.90059 72.6037 10.5018 72.4465 11.0776C72.2892 11.6535 72.02 12.1927 71.6543 12.6644C71.2885 13.1362 70.8334 13.5312 70.3149 13.827C69.7964 14.1228 69.2247 14.3134 68.6324 14.3881Z" fill="#99B9FF"/>
<path d="M11.5466 20.5875C11.5174 20.5875 11.489 20.5784 11.4652 20.5615C11.4414 20.5446 11.4234 20.5207 11.4136 20.4932L10.9344 19.1726C10.6704 19.1553 10.4079 19.12 10.1486 19.0669L9.33269 20.2112C9.31386 20.2373 9.28673 20.2563 9.25572 20.265C9.22471 20.2738 9.19166 20.2717 9.16195 20.2593L7.89603 19.7272C7.86655 19.7146 7.84222 19.6923 7.82698 19.664C7.81174 19.6358 7.80649 19.6032 7.81208 19.5716L8.05829 18.1849C7.83942 18.0373 7.63079 17.875 7.43382 17.6991L6.15281 18.283C6.12362 18.2965 6.09073 18.2997 6.05952 18.2919C6.02832 18.2842 6.00067 18.2661 5.98113 18.2406L5.15101 17.1454C5.13088 17.1204 5.1199 17.0893 5.1199 17.0572C5.1199 17.0251 5.13088 16.994 5.15101 16.969L6.05659 15.8927C5.94109 15.6546 5.84151 15.4091 5.75851 15.1579L4.35863 15.022C4.32664 15.0191 4.2966 15.0053 4.27346 14.9831C4.25031 14.9608 4.23544 14.9313 4.23129 14.8994L4.05961 13.5354C4.05573 13.5034 4.06299 13.471 4.08017 13.4437C4.09734 13.4163 4.1234 13.3958 4.15394 13.3854L5.47457 12.9053C5.49224 12.6412 5.52785 12.3787 5.58117 12.1195L4.43694 11.3026C4.41079 11.2838 4.3918 11.2566 4.38306 11.2256C4.37432 11.1946 4.37635 11.1615 4.38883 11.1318L4.9218 9.86498C4.93417 9.83546 4.95624 9.81105 4.98437 9.79578C5.0125 9.78052 5.045 9.77531 5.07649 9.78102L6.46221 10.0272C6.60988 9.80805 6.77219 9.59911 6.94802 9.40181L6.3641 8.11986C6.3509 8.09054 6.348 8.05763 6.35588 8.02646C6.36376 7.99529 6.38196 7.9677 6.4075 7.94818L7.50174 7.11713C7.52733 7.09781 7.55871 7.08776 7.59076 7.08862C7.62281 7.08947 7.65362 7.10119 7.67814 7.12184L8.75351 8.02742C8.99124 7.91112 9.23677 7.81152 9.48834 7.72933L9.62323 6.32758C9.62638 6.2955 9.64032 6.26544 9.66276 6.24231C9.68521 6.21918 9.71483 6.20434 9.7468 6.20023L11.1089 6.02855C11.1411 6.0248 11.1735 6.03209 11.2009 6.04924C11.2284 6.06638 11.2492 6.09235 11.2599 6.12288L11.7391 7.44351C12.0031 7.46117 12.2656 7.49679 12.5248 7.5501L13.3408 6.40493C13.3596 6.37878 13.3868 6.35979 13.4178 6.35105C13.4488 6.34231 13.4818 6.34435 13.5115 6.35682L14.7775 6.88884C14.8069 6.90153 14.8313 6.92381 14.8465 6.95206C14.8618 6.98031 14.867 7.01288 14.8614 7.04449L14.6152 8.43115C14.8342 8.57912 15.0431 8.74141 15.2406 8.91695L16.5216 8.33305C16.5508 8.31974 16.5836 8.31678 16.6146 8.32467C16.6457 8.33257 16.6731 8.35083 16.6924 8.37644L17.5225 9.47067C17.5426 9.49566 17.5536 9.52678 17.5536 9.55887C17.5536 9.59096 17.5426 9.62209 17.5225 9.64707L16.6169 10.7234C16.7326 10.9617 16.8321 11.2075 16.915 11.4592L18.3158 11.5941C18.3476 11.5974 18.3773 11.6113 18.4002 11.6335C18.4231 11.6557 18.4379 11.685 18.4422 11.7167L18.6139 13.0807C18.6176 13.1128 18.6103 13.1453 18.5932 13.1727C18.5761 13.2002 18.5501 13.2209 18.5196 13.2316L17.1989 13.7108C17.1813 13.9752 17.1456 14.238 17.0923 14.4976L18.2366 15.3145C18.2626 15.3331 18.2816 15.3601 18.2903 15.3909C18.2991 15.4218 18.2971 15.4547 18.2847 15.4843L17.7517 16.7511C17.7393 16.7806 17.7173 16.805 17.6891 16.8203C17.661 16.8356 17.6285 16.8408 17.597 16.8351L16.2113 16.5889C16.0636 16.8083 15.9013 17.0176 15.7255 17.2152L16.3094 18.4962C16.3228 18.5255 16.3258 18.5585 16.3179 18.5897C16.31 18.6209 16.2917 18.6485 16.266 18.6679L15.1718 19.499C15.1463 19.5186 15.1149 19.5289 15.0827 19.528C15.0506 19.5272 15.0197 19.5152 14.9954 19.4942L13.92 18.5887C13.6822 18.705 13.4367 18.805 13.1852 18.8877L13.0503 20.2885C13.0471 20.3206 13.0332 20.3506 13.0107 20.3738C12.9883 20.3969 12.9587 20.4117 12.9267 20.4159L11.5646 20.5875H11.5466ZM10.0873 18.7641C10.0977 18.7632 10.1081 18.7632 10.1185 18.7641C10.4226 18.8316 10.7318 18.8735 11.0429 18.8896C11.0709 18.8911 11.0979 18.9009 11.1204 18.9177C11.1428 18.9344 11.1599 18.9575 11.1693 18.9839L11.641 20.2895L12.7795 20.1451L12.9125 18.7641C12.9148 18.7369 12.925 18.7109 12.9417 18.6893C12.9584 18.6677 12.9811 18.6515 13.0069 18.6424C13.3043 18.5497 13.5934 18.432 13.8709 18.2906C13.8958 18.278 13.9238 18.273 13.9514 18.2762C13.9791 18.2794 14.0052 18.2906 14.0266 18.3085L15.0859 19.2009L16 18.5076L15.4255 17.2435C15.4139 17.2184 15.41 17.1903 15.4143 17.1629C15.4187 17.1355 15.4311 17.1101 15.45 17.0898C15.6604 16.8601 15.8513 16.6134 16.0207 16.3521C16.036 16.329 16.0577 16.3108 16.0832 16.2997C16.1087 16.2887 16.1368 16.2852 16.1641 16.2898L17.53 16.5332L17.9753 15.4748L16.848 14.6702C16.8253 14.6541 16.8079 14.6316 16.798 14.6055C16.7881 14.5795 16.7861 14.5511 16.7924 14.524C16.8594 14.2195 16.9011 13.91 16.9169 13.5986C16.9183 13.5707 16.9281 13.5438 16.9449 13.5215C16.9617 13.4991 16.9848 13.4823 17.0112 13.4731L18.3158 13.0015L18.1715 11.8629L16.7952 11.7261C16.7674 11.7235 16.741 11.7126 16.7194 11.695C16.6977 11.6774 16.6818 11.6537 16.6735 11.6271C16.5811 11.3294 16.4637 11.04 16.3226 10.7621C16.31 10.7372 16.3051 10.7092 16.3082 10.6816C16.3114 10.6539 16.3226 10.6278 16.3405 10.6064L17.2329 9.54614L16.5396 8.63208L15.2765 9.20749C15.2512 9.21889 15.2232 9.22264 15.1959 9.21828C15.1686 9.21392 15.1431 9.20164 15.1227 9.18297C14.8932 8.97224 14.6468 8.78073 14.386 8.61038C14.3626 8.59557 14.3441 8.57409 14.333 8.5487C14.3219 8.52332 14.3187 8.49518 14.3237 8.46794L14.5671 7.10014L13.5097 6.65585L12.705 7.78782C12.6889 7.81054 12.6664 7.82796 12.6404 7.83786C12.6143 7.84777 12.5859 7.84973 12.5588 7.84347C12.2547 7.77602 11.9455 7.73437 11.6344 7.71895C11.6063 7.71755 11.5793 7.70783 11.5568 7.69103C11.5343 7.67424 11.5173 7.65112 11.508 7.62462L11.0363 6.32003L9.89774 6.46341L9.76473 7.84536C9.76237 7.87245 9.7522 7.89828 9.73546 7.91971C9.71871 7.94115 9.69612 7.95726 9.6704 7.9661C9.37304 8.059 9.08399 8.17669 8.80633 8.31795C8.78147 8.33051 8.75348 8.3355 8.72581 8.33231C8.69815 8.32913 8.67203 8.3179 8.65068 8.30003L7.59135 7.40766L6.67729 8.10193L7.2527 9.36502C7.26382 9.39046 7.26743 9.41855 7.26308 9.44596C7.25873 9.47338 7.24662 9.49898 7.22818 9.51972C7.01725 9.74878 6.82601 9.99523 6.65653 10.2564C6.64148 10.2799 6.61981 10.2983 6.59429 10.3093C6.56876 10.3204 6.54053 10.3237 6.51315 10.3187L5.14724 10.0753L4.702 11.1337L5.83397 11.9393C5.85659 11.9553 5.87402 11.9776 5.88408 12.0034C5.89414 12.0293 5.89639 12.0575 5.89056 12.0846C5.82274 12.3889 5.78077 12.6985 5.76511 13.01C5.76371 13.038 5.75398 13.065 5.73718 13.0875C5.72038 13.11 5.69727 13.127 5.67078 13.1364L4.36713 13.608L4.51051 14.7466L5.89056 14.8805C5.91782 14.8827 5.94387 14.8928 5.96548 14.9096C5.98709 14.9263 6.00335 14.949 6.01225 14.9749C6.10489 15.2725 6.22227 15.5618 6.36316 15.8399C6.37571 15.8647 6.38071 15.8927 6.37752 15.9204C6.37433 15.9481 6.36312 15.9742 6.34524 15.9955L5.45288 17.0558L6.14621 17.9708L7.4093 17.3954C7.43458 17.3835 7.46283 17.3795 7.49041 17.3839C7.51798 17.3883 7.54361 17.4008 7.56399 17.4199C7.79339 17.63 8.03946 17.8212 8.29977 17.9916C8.32318 18.0066 8.34159 18.0283 8.35267 18.0538C8.36375 18.0793 8.36702 18.1076 8.36203 18.1349L8.11205 19.5075L9.1695 19.9518L9.97414 18.8198C9.98752 18.8025 10.0047 18.7885 10.0243 18.7788C10.0439 18.7692 10.0655 18.7642 10.0873 18.7641ZM11.3306 16.986C10.4363 16.9836 9.57351 16.6556 8.90354 16.0632C8.23356 15.4708 7.8023 14.6547 7.6904 13.7674C7.56914 12.7996 7.83671 11.8231 8.43443 11.0523C9.03215 10.2814 9.91119 9.77913 10.8788 9.65556C11.8464 9.5341 12.8227 9.80181 13.593 10.3999C14.3633 10.9979 14.8647 11.8773 14.9869 12.8449C15.0525 13.3634 15.007 13.89 14.8532 14.3896C14.6994 14.8891 14.4409 15.3502 14.0949 15.742C13.749 16.1338 13.3235 16.4475 12.8469 16.662C12.3702 16.8765 11.8533 16.9869 11.3306 16.986ZM11.3467 9.90837C11.2019 9.90861 11.0573 9.91775 10.9137 9.93572C10.0199 10.0483 9.20746 10.5113 8.65508 11.2229C8.10269 11.9345 7.85562 12.8364 7.9682 13.7302C8.08078 14.6239 8.5438 15.4364 9.2554 15.9888C9.967 16.5412 10.8689 16.7882 11.7626 16.6756C12.6226 16.5718 13.4103 16.1432 13.9646 15.4777C14.519 14.8122 14.7981 13.96 14.7448 13.0954C14.6916 12.2309 14.31 11.4194 13.6781 10.827C13.0462 10.2345 12.2119 9.90591 11.3457 9.90837H11.3467Z" fill="#99B9FF"/>
<path d="M75.3863 48.8055L30.0133 42.4957C29.4627 42.4252 28.9566 42.1565 28.5899 41.7397C28.2231 41.323 28.0209 40.7869 28.021 40.2317L27.3984 8.58193C27.3984 8.58193 28.4361 7.83672 29.019 7.5509C29.3289 7.39981 29.6761 7.34275 30.018 7.38676L75.259 13.157C75.8097 13.2272 76.3159 13.4959 76.6827 13.9127C77.0494 14.3295 77.2516 14.8657 77.2512 15.4209V46.5057C77.2518 46.7678 77.1941 47.0268 77.0821 47.2639C76.9702 47.501 76.8069 47.7102 76.6041 47.8763C76.2391 48.1734 75.3863 48.8055 75.3863 48.8055Z" fill="#5479F7"/>
<path d="M74.0028 49.2263L28.7627 43.4571C28.2119 43.3868 27.7056 43.1181 27.3387 42.7014C26.9718 42.2846 26.7694 41.7484 26.7695 41.1931V10.1074C26.7695 9.85563 26.8231 9.60676 26.9268 9.37732C27.0304 9.14788 27.1817 8.94313 27.3707 8.77671C27.5596 8.61028 27.7818 8.48599 28.0224 8.41209C28.2631 8.3382 28.5167 8.31639 28.7665 8.34813L74.0075 14.1183C74.5583 14.1886 75.0646 14.4572 75.4315 14.874C75.7984 15.2908 76.0008 15.827 76.0007 16.3823V47.468C76.0006 47.7198 75.9468 47.9686 75.8431 48.198C75.7393 48.4274 75.5879 48.6321 75.3989 48.7985C75.2099 48.9648 74.9876 49.089 74.7469 49.1627C74.5062 49.2365 74.2525 49.2582 74.0028 49.2263Z" fill="#99B9FF"/>
<path d="M26.7704 17.1247C26.7329 17.1247 26.6969 17.1098 26.6703 17.0832C26.6438 17.0567 26.6289 17.0207 26.6289 16.9832V10.1074C26.6289 9.83556 26.6867 9.56683 26.7986 9.3191C26.9106 9.07136 27.074 8.85031 27.278 8.67066C27.482 8.491 27.7219 8.35687 27.9818 8.27719C28.2417 8.1975 28.5156 8.1741 28.7853 8.20853L72.0708 13.7288C72.0892 13.731 72.107 13.7368 72.1231 13.746C72.1392 13.7551 72.1533 13.7674 72.1646 13.782C72.176 13.7967 72.1843 13.8135 72.1891 13.8314C72.1938 13.8493 72.195 13.8679 72.1925 13.8863C72.1878 13.9234 72.1686 13.9571 72.139 13.9801C72.1095 14.0031 72.0721 14.0135 72.035 14.0089L28.7495 8.48869C28.5196 8.45935 28.2862 8.4793 28.0647 8.54724C27.8431 8.61518 27.6386 8.72953 27.4648 8.88269C27.2909 9.03584 27.1517 9.22428 27.0564 9.43546C26.961 9.64664 26.9118 9.87571 26.9119 10.1074V16.9832C26.9119 17.0207 26.897 17.0567 26.8705 17.0832C26.8439 17.1098 26.8079 17.1247 26.7704 17.1247Z" fill="black"/>
<path d="M73.0412 47.9491L29.8435 42.4402C29.4424 42.389 29.0739 42.1931 28.8071 41.8893C28.5403 41.5855 28.3936 41.1947 28.3945 40.7904V10.8046C28.3945 10.6364 28.4303 10.4702 28.4996 10.317C28.5688 10.1638 28.6699 10.027 28.7961 9.91594C28.9223 9.80482 29.0707 9.72187 29.2314 9.67259C29.3922 9.62331 29.5616 9.60884 29.7284 9.63015L72.9271 15.1391C73.3275 15.1902 73.6955 15.3856 73.9622 15.6886C74.2289 15.9916 74.376 16.3815 74.376 16.7851V46.77C74.3766 46.9386 74.3411 47.1053 74.2721 47.2591C74.203 47.4129 74.102 47.5502 73.9756 47.6618C73.8493 47.7734 73.7006 47.8568 73.5394 47.9063C73.3783 47.9559 73.2085 47.9705 73.0412 47.9491Z" fill="#CADDFF"/>
<path d="M76.0138 50.8968L75.9402 50.7232C75.8862 50.5973 75.8002 50.4875 75.6909 50.4048C75.5816 50.3221 75.4526 50.2693 75.3167 50.2516L29.3777 44.3257C27.9702 44.1456 26.3751 44.4201 25.1422 45.1209L4.57812 56.8793V61.9835L47.6165 67.5339C49.0244 67.7143 50.4527 67.4308 51.685 66.7264L75.6695 53.0136C75.7744 52.9558 75.8608 52.8693 75.9184 52.7642C75.9761 52.6592 76.0026 52.5398 75.9949 52.4203C75.9742 52.1316 76.0138 50.8968 76.0138 50.8968Z" fill="#99B9FF"/>
<path d="M47.6107 65.8861L1.24811 59.897C1.11359 59.8799 0.98787 59.8208 0.888754 59.7283C0.789638 59.6357 0.72215 59.5143 0.695855 59.3813C0.669561 59.2483 0.685797 59.1103 0.742249 58.987C0.798702 58.8637 0.892508 58.7613 1.0104 58.6943L24.8657 45.0692C26.0985 44.3652 27.5269 44.0818 28.9351 44.2617L75.2967 50.2508C75.431 50.2683 75.5563 50.3275 75.6552 50.42C75.754 50.5125 75.8213 50.6337 75.8477 50.7665C75.874 50.8993 75.8581 51.037 75.802 51.1602C75.746 51.2834 75.6528 51.386 75.5354 51.4535L51.6792 65.0786C50.4467 65.7825 49.0185 66.066 47.6107 65.8861Z" fill="white"/>
<path d="M56.6885 58.3255L16.4867 53.0948C16.3652 53.0794 16.2516 53.026 16.162 52.9424C16.0725 52.8588 16.0115 52.7492 15.9877 52.629C15.9639 52.5088 15.9785 52.3842 16.0295 52.2727C16.0804 52.1613 16.1651 52.0688 16.2716 52.0081L25.7245 46.6643C26.8386 46.027 28.1304 45.7709 29.4034 45.9351L69.6052 51.1658C69.7268 51.1812 69.8404 51.2346 69.9299 51.3182C70.0195 51.4018 70.0805 51.5114 70.1042 51.6316C70.128 51.7518 70.1134 51.8764 70.0624 51.9879C70.0115 52.0993 69.9268 52.1919 69.8203 52.2525L60.3674 57.5963C59.2533 58.2336 57.9615 58.4897 56.6885 58.3255Z" fill="#CADDFF"/>
<path d="M48.4281 66.0793C48.1483 66.0793 47.8689 66.0613 47.5914 66.0255L37.9602 64.7822C37.9227 64.7774 37.8887 64.7578 37.8656 64.7278C37.8425 64.6978 37.8322 64.6599 37.8371 64.6223C37.842 64.5848 37.8616 64.5508 37.8916 64.5277C37.9216 64.5046 37.9595 64.4944 37.997 64.4992L47.6272 65.7435C49.0046 65.9163 50.4009 65.6394 51.608 64.9539L67.0263 56.1444C67.059 56.1257 67.0977 56.1208 67.134 56.1307C67.1702 56.1406 67.2011 56.1646 67.2197 56.1972C67.2383 56.2299 67.2433 56.2686 67.2334 56.3048C67.2234 56.3411 67.1995 56.3719 67.1669 56.3906L51.7485 65.1992C50.7368 65.7755 49.5925 66.0788 48.4281 66.0793Z" fill="black"/>
<path d="M52.3817 47.4773H52.3628L40.8743 45.968C40.8368 45.9631 40.8027 45.9436 40.7796 45.9136C40.7565 45.8836 40.7463 45.8457 40.7512 45.8081C40.7561 45.7706 40.7757 45.7366 40.8056 45.7135C40.8356 45.6904 40.8735 45.6802 40.9111 45.685L52.3996 47.1943C52.4371 47.1967 52.4722 47.2139 52.497 47.2421C52.5219 47.2703 52.5345 47.3072 52.5321 47.3448C52.5298 47.3823 52.5126 47.4173 52.4844 47.4422C52.4562 47.4671 52.4192 47.4797 52.3817 47.4773Z" fill="black"/>
<path d="M23.5206 45.9786C23.4894 45.9786 23.4591 45.9684 23.4343 45.9494C23.4096 45.9304 23.3918 45.9038 23.3837 45.8737C23.3757 45.8436 23.3778 45.8116 23.3897 45.7829C23.4017 45.7541 23.4228 45.73 23.4498 45.7145L24.795 44.9466C26.0551 44.2296 27.5136 43.94 28.9521 44.1212L35.0468 44.9221C35.0844 44.927 35.1184 44.9465 35.1415 44.9765C35.1646 45.0065 35.1748 45.0444 35.1699 45.082C35.165 45.1195 35.1455 45.1535 35.1155 45.1766C35.0855 45.1997 35.0476 45.2099 35.01 45.2051L28.9153 44.4051C27.538 44.2318 26.1415 44.5088 24.9346 45.1947L23.5904 45.9625C23.5689 45.974 23.5448 45.9795 23.5206 45.9786Z" fill="black"/>
<path d="M59.7122 71.745C60.2508 71.9742 60.7979 72.2166 61.2215 72.6137C61.645 73.0109 61.9525 73.6372 61.8195 74.2174C61.5714 75.3059 60.3848 75.8946 59.5358 76.4473C58.4548 77.1501 57.3294 77.7972 56.1238 78.2623C54.6891 78.815 52.8223 78.9358 51.7752 77.5557C51.0828 76.6379 52.7477 73.8042 54.1806 72.626C54.8117 72.1072 55.5814 71.7563 56.3682 71.5261C57.4582 71.2043 58.6265 71.2751 59.6697 71.7261L59.7122 71.745Z" fill="black"/>
<path d="M51.7716 74.7183C52.2046 74.6522 52.5631 74.4494 52.9121 74.0278C53.3658 73.4806 53.646 72.8581 54.0365 72.2741C54.7025 71.2808 55.5383 70.9724 56.723 71.0299C57.673 71.0768 58.6137 71.2386 59.5247 71.512C59.9614 71.644 60.4095 71.8129 60.717 72.1506C60.801 72.2449 60.8755 72.3732 60.8179 72.4836C60.7838 72.5359 60.7367 72.5785 60.6812 72.6071C59.9111 73.1005 59.3487 73.8589 59.1002 74.739C58.8926 75.4701 58.4031 76.0917 57.8343 76.5907C56.7098 77.5765 55.093 78.2509 53.5799 78.0887C52.9781 78.0245 52.4008 77.8283 51.8028 77.7434C51.2047 77.6585 50.6198 77.6812 50.0293 77.6982C48.7464 77.7331 47.4664 77.801 46.1835 77.8349C43.7346 77.8978 41.2852 77.9569 38.8351 78.0123L35.0336 78.0972C33.344 78.0971 31.6866 77.6347 30.241 76.76C28.7954 75.8854 27.6167 74.632 26.8325 73.1354L23.6602 67.0841L27.2947 56.9275L32.9951 70.1687C33.2866 70.845 34.3865 71.3648 34.9968 71.6667C36.0156 72.1685 37.1051 72.5251 38.1974 72.8279C40.6934 73.5212 43.2677 73.9344 45.8382 74.2513C47.6381 74.4739 49.4511 74.6598 51.2641 74.7409C51.4336 74.7498 51.6036 74.7422 51.7716 74.7183Z" fill="white"/>
<path d="M54.0277 78.2519C53.8733 78.2523 53.7189 78.2441 53.5654 78.2274C53.2343 78.1844 52.9061 78.1214 52.5825 78.0387C52.3203 77.9783 52.0505 77.9161 51.7836 77.8774C51.2324 77.8158 50.677 77.8003 50.1233 77.8312H50.0337C49.4102 77.8491 48.7763 77.8746 48.1631 77.8991C47.516 77.9246 46.8425 77.9519 46.1879 77.9689C43.5834 78.0368 41.011 78.0972 38.8385 78.1462C37.5714 78.1758 36.3042 78.2041 35.037 78.2311C33.3208 78.2343 31.6367 77.7664 30.168 76.8786C28.6993 75.9907 27.5024 74.7169 26.7076 73.1958L23.5353 67.1435C23.5264 67.1261 23.5211 67.1072 23.5198 67.0877C23.5186 67.0682 23.5212 67.0487 23.5277 67.0303L27.1623 56.8747C27.1719 56.8478 27.1894 56.8245 27.2124 56.8077C27.2355 56.7908 27.263 56.7813 27.2915 56.7803C27.3199 56.7794 27.3479 56.7872 27.3718 56.8025C27.3957 56.8178 27.4144 56.84 27.4255 56.8662C27.4255 56.8662 33.0966 70.0395 33.1249 70.1064C33.3853 70.7102 34.388 71.2035 34.987 71.4978L35.0597 71.5337C35.9294 71.9629 36.9086 72.3175 38.2358 72.6864C40.3818 73.2816 42.7316 73.724 45.8539 74.1061C47.9811 74.3683 49.7017 74.5239 51.2685 74.5937C51.4295 74.6023 51.5909 74.5953 51.7505 74.573C52.1646 74.5098 52.4891 74.3117 52.8042 73.9325C53.0655 73.5996 53.2987 73.2456 53.5013 72.8741C53.6334 72.6486 53.7683 72.4156 53.9201 72.1902C54.5804 71.2101 55.4162 70.8186 56.7312 70.8837C57.6909 70.9302 58.6412 71.094 59.5611 71.3714C60.0177 71.5091 60.4855 71.6865 60.8176 72.0496C60.9704 72.2176 61.0147 72.3968 60.9393 72.543C60.8942 72.6181 60.8288 72.679 60.7506 72.7185C60.0091 73.1931 59.4671 73.923 59.2272 74.7701C59.0385 75.4522 58.5933 76.0983 57.9188 76.6898C56.8066 77.6784 55.3511 78.2519 54.0277 78.2519ZM50.8053 77.5387C51.1457 77.5354 51.4858 77.5563 51.8232 77.601C52.1062 77.6406 52.3788 77.7048 52.6457 77.7661C52.9585 77.8451 53.2757 77.9052 53.5956 77.9463C54.9568 78.0925 56.5454 77.5312 57.7415 76.4822C58.3744 75.9276 58.7857 75.3276 58.9678 74.6985C59.2263 73.7859 59.8098 72.9994 60.6082 72.4873C60.6416 72.4702 60.6714 72.4468 60.6959 72.4185C60.7119 72.3864 60.6789 72.3147 60.6157 72.2459C60.3327 71.9327 59.9045 71.7742 59.4838 71.6478C58.5843 71.3774 57.6552 71.2174 56.717 71.1714C55.4992 71.1129 54.7568 71.4544 54.155 72.3534C54.0088 72.5713 53.872 72.8005 53.7466 73.0222C53.5357 73.4069 53.2934 73.7735 53.0221 74.1183C52.6599 74.556 52.2807 74.7833 51.7958 74.8579C51.6182 74.884 51.4383 74.8919 51.2591 74.8815C49.6847 74.8116 47.9575 74.656 45.8218 74.3919C42.6854 74.0042 40.3233 73.5637 38.1622 72.9647C36.818 72.5873 35.8237 72.2298 34.938 71.7931L34.8653 71.7572C34.2305 71.4459 33.1674 70.9233 32.8684 70.2243L27.3104 57.3143L23.8202 67.0728L26.9642 73.0694C27.7345 74.5445 28.8948 75.78 30.3187 76.6413C31.7427 77.5025 33.3757 77.9565 35.0399 77.9538L38.8376 77.8689C41.0072 77.8198 43.5824 77.7595 46.186 77.6916C46.8463 77.6746 47.5066 77.6472 48.1575 77.6218C48.7716 77.5972 49.4064 77.5718 50.0309 77.5548H50.1252C50.3431 77.5453 50.5733 77.5387 50.8053 77.5387Z" fill="black"/>
<path d="M18.4241 49.8119C23.9566 50.1534 26.4158 52.4032 27.3223 53.3965C29.9466 56.284 28.9967 59.0563 31.9587 63.7295C32.1983 64.1068 32.6888 64.852 32.6652 65.8472C32.6115 68.0913 29.9872 69.6544 29.5136 69.9364C28.426 70.5782 27.2032 70.9565 25.9432 71.041H26.0762C25.647 71.0194 25.0226 70.8779 24.8405 70.4883L24.1387 69.2082L24.0726 69.6695C23.5453 73.0767 26.2988 77.7432 26.2988 77.7432L18.3968 76.6773C14.3406 76.2698 10.473 74.6699 7.37707 72.0174C5.69421 70.576 4.39338 69.228 3.83212 67.5914C2.87938 64.8124 2.96616 64.02 2.70015 60.6477C2.50618 58.3514 3.19429 56.0675 4.6245 54.2606C6.7441 51.6184 10.8182 48.8469 18.4241 49.8119Z" fill="#5479F7"/>
<path d="M24.588 70.5524C24.5611 70.5524 24.5349 70.5447 24.5122 70.5304C24.4895 70.516 24.4713 70.4955 24.4597 70.4713L22.5891 66.5424C22.575 66.5088 22.5745 66.4711 22.5875 66.437C22.6006 66.403 22.6262 66.3753 22.6592 66.3597C22.6921 66.3442 22.7298 66.3419 22.7644 66.3535C22.799 66.365 22.8278 66.3894 22.8448 66.4217L24.7163 70.3496C24.7244 70.3664 24.7291 70.3846 24.7302 70.4032C24.7312 70.4218 24.7285 70.4404 24.7223 70.4579C24.7161 70.4755 24.7064 70.4916 24.6939 70.5054C24.6813 70.5192 24.6662 70.5304 24.6493 70.5383C24.6303 70.5477 24.6093 70.5526 24.588 70.5524Z" fill="#CADDFF"/>
<path d="M20.0195 40.5459C20.1469 40.71 20.9968 41.3383 20.9968 41.3383L21.3402 41.9788C21.3402 41.9788 20.4752 42.9919 20.4752 42.9372C20.4752 42.8825 20.0195 40.5459 20.0195 40.5459Z" fill="white"/>
<path d="M20.7685 42.8042C20.7403 42.8044 20.7127 42.7962 20.6893 42.7806C20.6658 42.765 20.6476 42.7427 20.6368 42.7167C20.6261 42.6907 20.6234 42.662 20.629 42.6344C20.6347 42.6068 20.6484 42.5815 20.6685 42.5618L21.0977 42.1364C21.1547 42.0808 21.1901 42.0067 21.1977 41.9275C21.2053 41.8482 21.1846 41.7688 21.1392 41.7034L20.2902 40.778C20.2753 40.7648 20.2632 40.7487 20.255 40.7305C20.2467 40.7124 20.2423 40.6927 20.2422 40.6728C20.2421 40.6528 20.2461 40.6331 20.2541 40.6148C20.2622 40.5966 20.274 40.5802 20.2887 40.5669C20.3035 40.5535 20.321 40.5434 20.3399 40.5372C20.3589 40.531 20.3789 40.529 20.3987 40.5311C20.4186 40.5332 20.4377 40.5395 20.455 40.5495C20.4722 40.5596 20.4871 40.5731 20.4987 40.5893L21.3646 41.5327C21.4515 41.6527 21.4925 41.7999 21.48 41.9476C21.4676 42.0952 21.4025 42.2335 21.2967 42.3373L20.8685 42.7627C20.8418 42.789 20.8059 42.8039 20.7685 42.8042Z" fill="black"/>
<path d="M19.4705 36.4333L19.961 36.1059C20.1516 35.7265 20.2849 35.3208 20.3563 34.9023C20.6063 33.4222 20.1233 31.4186 18.9347 30.7517C17.3575 29.8612 16.0039 32.144 11.7288 32.5044C9.8422 32.6629 9.38752 32.2846 8.32064 32.7959C6.04445 33.8882 5.45865 36.9549 5.35112 37.519C4.40781 42.4497 8.21217 46.8804 10.0252 47.402C10.7525 47.6114 11.7232 47.7907 11.7232 47.7907C12.7306 47.9793 13.5154 48.0652 13.622 48.0491C17.8377 47.4049 19.3271 38.3331 19.3281 38.3331L19.4705 36.4333Z" fill="black"/>
<path d="M18.6519 36.6784C18.6686 36.5888 18.7124 36.5064 18.7774 36.4425C18.8424 36.3786 18.9256 36.3363 19.0155 36.3213C19.1054 36.3062 19.1977 36.3192 19.28 36.3585C19.3623 36.3977 19.4305 36.4613 19.4754 36.5407C19.9744 37.416 20.2121 38.0245 20.2914 38.3971C20.3989 38.8961 19.9348 39.3961 20.1848 39.9318C20.3329 40.2488 20.531 40.5922 20.6753 41.0176C20.788 41.3467 20.8516 41.6906 20.864 42.0383C20.8696 42.1816 20.8961 42.4033 20.9253 42.675C21.0894 44.1909 21.3441 47.2764 18.5 47.1614C18.469 47.1598 18.4379 47.1646 18.4088 47.1755C18.3796 47.1864 18.353 47.2032 18.3306 47.2247C18.3081 47.2463 18.2903 47.2722 18.2783 47.3009C18.2662 47.3296 18.2602 47.3604 18.2605 47.3915C18.268 48.0518 18.3029 49.8554 18.4491 50.8336C18.4869 51.0915 18.4294 51.3542 18.2874 51.5727C18.1453 51.7911 17.9285 51.9503 17.6775 52.0203C16.3352 52.3976 13.8354 52.9334 11.9648 52.325C11.8497 52.2868 11.7433 52.2259 11.6522 52.1458C11.561 52.0657 11.4868 51.9682 11.434 51.8589C11.3812 51.7497 11.3509 51.6309 11.3449 51.5097C11.3388 51.3886 11.3572 51.2674 11.3988 51.1534C11.6205 50.5393 11.929 48.8131 11.7271 47.7868C12.546 47.6786 13.3441 47.4484 14.0948 47.1038C16.0116 46.2246 16.9549 44.0852 16.4257 42.0401C16.3116 41.6015 16.0654 40.977 16.322 40.3158C16.9823 38.6103 17.9746 40.3243 17.9746 40.3243L18.6519 36.6784Z" fill="white"/>
<path d="M13.935 52.7421C13.2521 52.7531 12.5716 52.6576 11.9182 52.4591C11.7846 52.4153 11.6612 52.3451 11.5553 52.2528C11.4494 52.1604 11.3631 52.0478 11.3015 51.9214C11.2399 51.7951 11.2043 51.6577 11.1968 51.5174C11.1893 51.3771 11.2101 51.2366 11.2578 51.1045C11.471 50.513 11.7776 48.816 11.5805 47.8133L11.5503 47.6605L11.705 47.6454C12.5078 47.5371 13.2904 47.3111 14.0274 46.9747C15.8527 46.137 16.7998 44.0768 16.28 42.0751C16.2649 42.0167 16.2479 41.9553 16.23 41.8865C16.1083 41.4601 15.947 40.8753 16.1819 40.2593C16.3894 39.7244 16.6611 39.4396 16.9875 39.415C17.3648 39.3858 17.6903 39.7046 17.8902 39.9584L18.5081 36.6464C18.5304 36.5283 18.5884 36.42 18.6742 36.3359C18.7601 36.2519 18.8697 36.1962 18.9882 36.1764C19.1067 36.1567 19.2285 36.1738 19.3369 36.2255C19.4454 36.2771 19.5354 36.3608 19.5948 36.4653C20.1608 37.4539 20.3579 38.0425 20.4258 38.3613C20.4806 38.617 20.4098 38.8594 20.3419 39.0943C20.2645 39.3622 20.191 39.615 20.3089 39.8669C20.3494 39.9546 20.3947 40.0452 20.4419 40.1385C20.5824 40.4057 20.7038 40.6824 20.8051 40.9668C20.922 41.309 20.9878 41.6666 21.0003 42.028C21.0003 42.1412 21.0239 42.3157 21.0456 42.5185L21.0607 42.6543C21.1635 43.6042 21.3786 45.5786 20.4004 46.6285C19.9542 47.1049 19.3118 47.3294 18.4892 47.2964C18.4769 47.2956 18.4646 47.2975 18.453 47.3019C18.4415 47.3063 18.431 47.3131 18.4223 47.3218C18.4138 47.3298 18.4071 47.3395 18.4025 47.3502C18.398 47.3609 18.3957 47.3724 18.3959 47.3841C18.4053 48.0934 18.4411 49.8489 18.5845 50.8073C18.6265 51.0992 18.5611 51.3964 18.4004 51.6436C18.2397 51.8909 17.9948 52.0713 17.711 52.1515C16.8102 52.4119 15.365 52.7421 13.935 52.7421ZM11.8861 47.9086C12.0427 48.983 11.7446 50.596 11.5267 51.2016C11.4913 51.2988 11.476 51.4022 11.4816 51.5055C11.4873 51.6087 11.5139 51.7098 11.5597 51.8025C11.6041 51.894 11.6664 51.9756 11.7431 52.0424C11.8198 52.1092 11.9092 52.1598 12.0059 52.1912C13.8444 52.7892 16.3234 52.2553 17.6365 51.8846C17.854 51.8235 18.042 51.6855 18.1654 51.4961C18.2888 51.3068 18.3391 51.0791 18.3072 50.8554C18.161 49.8791 18.1251 48.1085 18.1185 47.3926C18.1178 47.3426 18.1274 47.293 18.1467 47.2469C18.166 47.2008 18.1946 47.1592 18.2308 47.1247C18.2671 47.0894 18.3103 47.0619 18.3577 47.0439C18.405 47.0258 18.4556 47.0177 18.5062 47.02C19.242 47.0501 19.8118 46.8549 20.1995 46.4408C21.089 45.489 20.8758 43.5278 20.7852 42.6902L20.7702 42.5553C20.7466 42.3383 20.7277 42.1676 20.723 42.044C20.7112 41.71 20.6505 41.3794 20.5428 41.063C20.4457 40.7908 20.329 40.526 20.1938 40.2706C20.1466 40.1763 20.0995 40.0819 20.058 39.9876C19.8957 39.6405 19.9919 39.3094 20.0759 39.0179C20.1372 38.8075 20.1947 38.6085 20.1551 38.4227C20.1023 38.1774 19.9287 37.6152 19.3543 36.6068C19.3238 36.5522 19.2771 36.5084 19.2207 36.4815C19.1642 36.4546 19.1008 36.446 19.0392 36.4568C18.9777 36.4664 18.9208 36.495 18.8764 36.5387C18.8321 36.5824 18.8026 36.6389 18.792 36.7002L18.0374 40.7224L17.8487 40.3923C17.7318 40.1904 17.3544 39.6688 17.0139 39.699C16.7536 39.7188 16.5639 40.0716 16.4479 40.3593C16.2423 40.8875 16.3875 41.3969 16.5036 41.8073C16.5224 41.8742 16.5404 41.9374 16.5564 41.9959C17.1101 44.1306 16.097 46.3285 14.1472 47.2237C13.4286 47.5548 12.6677 47.7853 11.8861 47.9086Z" fill="black"/>
<path d="M17.5051 43.2711C17.4275 43.2713 17.3502 43.2622 17.2749 43.2437C16.8976 43.1494 16.5674 42.8249 16.3061 42.2816C16.297 42.2647 16.2914 42.2462 16.2897 42.2272C16.2879 42.2081 16.29 42.1889 16.2959 42.1707C16.3018 42.1525 16.3114 42.1356 16.324 42.1212C16.3365 42.1068 16.3519 42.0951 16.3692 42.0868C16.3864 42.0785 16.4052 42.0737 16.4243 42.0729C16.4434 42.072 16.4625 42.0751 16.4804 42.0818C16.4984 42.0886 16.5147 42.0989 16.5285 42.1122C16.5423 42.1254 16.5533 42.1413 16.5608 42.1589C16.7834 42.6212 17.0457 42.8928 17.34 42.9683C17.4362 42.9909 17.5361 42.9936 17.6334 42.9762C17.7307 42.9589 17.8235 42.9218 17.906 42.8674C17.9363 42.8467 17.9735 42.8387 18.0096 42.845C18.0457 42.8512 18.0781 42.8712 18.0997 42.9009C18.1214 42.9305 18.1307 42.9673 18.1257 43.0037C18.1207 43.04 18.1018 43.073 18.0729 43.0956C17.905 43.2088 17.7075 43.2698 17.5051 43.2711Z" fill="black"/>
<path d="M2.21503 59.8581C4.72988 61.3778 9.84355 63.5446 18.0739 63.0418C18.3686 63.0234 18.6615 63.0998 18.9097 63.2599C19.1578 63.42 19.3482 63.6553 19.453 63.9313L19.9662 65.9868C20.8692 69.5998 22.5669 72.9658 24.9355 75.8396L26.1618 77.331C26.2036 77.382 26.2297 77.4441 26.2367 77.5097C26.2437 77.5752 26.2315 77.6414 26.2014 77.7001C26.1714 77.7588 26.1249 77.8075 26.0675 77.8401C26.0102 77.8727 25.9446 77.8879 25.8788 77.8838L20.452 77.4848C11.1368 76.2528 3.90072 71.5806 1.57924 63.0701L0.960438 60.8005C0.918528 60.6378 0.925821 60.4664 0.981407 60.3078C1.03699 60.1493 1.13836 60.0108 1.27269 59.9099C1.40702 59.809 1.56826 59.7502 1.73601 59.741C1.90375 59.7318 2.07046 59.7726 2.21503 59.8581Z" fill="white"/>
<path d="M25.973 78.031H25.9418L24.6608 77.9366C24.6423 77.9353 24.6241 77.9303 24.6075 77.9219C24.5908 77.9135 24.576 77.9019 24.5638 77.8878C24.5516 77.8737 24.5424 77.8574 24.5365 77.8397C24.5307 77.822 24.5283 77.8033 24.5297 77.7847C24.5311 77.7662 24.5361 77.748 24.5445 77.7314C24.5528 77.7147 24.5644 77.6999 24.5785 77.6877C24.5926 77.6756 24.609 77.6663 24.6266 77.6604C24.6443 77.6546 24.663 77.6523 24.6816 77.6536L25.9626 77.748C25.9952 77.7505 26.0278 77.7433 26.0563 77.7274C26.0848 77.7114 26.108 77.6874 26.123 77.6583C26.1385 77.6294 26.1448 77.5964 26.1413 77.5638C26.1378 77.5311 26.1245 77.5003 26.1031 77.4753L24.8287 75.9293C22.4505 73.0379 20.743 69.6551 19.8292 66.0245L19.317 63.9776C19.2227 63.7313 19.052 63.5218 18.83 63.3795C18.608 63.2373 18.3463 63.1698 18.0831 63.1871C17.2656 63.2368 16.4764 63.2613 15.7155 63.2607C8.6897 63.2607 4.25805 61.2618 2.14221 59.9836C2.0223 59.91 1.88304 59.8741 1.74248 59.8806C1.60193 59.8872 1.46658 59.9358 1.354 60.0202C1.24143 60.1046 1.15682 60.2209 1.11116 60.354C1.06551 60.4871 1.06092 60.6308 1.09798 60.7666L1.71678 63.0371C2.47143 65.7878 3.76188 68.2168 5.56642 70.2553C5.57881 70.2692 5.58833 70.2855 5.59444 70.3031C5.60055 70.3207 5.60313 70.3393 5.60204 70.3579C5.60094 70.3766 5.59619 70.3948 5.58806 70.4116C5.57992 70.4283 5.56857 70.4433 5.55463 70.4557C5.54069 70.4681 5.52446 70.4776 5.50684 70.4838C5.48923 70.4899 5.47058 70.4924 5.45196 70.4914C5.43335 70.4903 5.41513 70.4855 5.39835 70.4774C5.38157 70.4692 5.36656 70.4579 5.35418 70.4439C3.52133 68.3687 2.20542 65.9057 1.44323 63.1116L0.824418 60.842C0.771983 60.6516 0.777989 60.4499 0.841656 60.263C0.905322 60.0761 1.02371 59.9126 1.18145 59.7938C1.33919 59.675 1.52899 59.6064 1.72622 59.5969C1.92346 59.5873 2.119 59.6373 2.28749 59.7402C4.6033 61.1401 9.73395 63.4125 18.0643 62.9041C18.3896 62.8815 18.7134 62.9649 18.9874 63.1417C19.2613 63.3186 19.4706 63.5794 19.584 63.8851C19.5861 63.89 19.5877 63.895 19.5887 63.9002L20.1028 65.9547C21.0044 69.5459 22.692 72.8921 25.0438 75.7519L26.3182 77.299C26.3724 77.3646 26.4068 77.4442 26.4174 77.5286C26.4281 77.613 26.4145 77.6987 26.3783 77.7757C26.3421 77.8527 26.2848 77.9178 26.2131 77.9635C26.1413 78.0092 26.058 78.0336 25.973 78.0338V78.031Z" fill="black"/>
<path d="M65.7602 43.524L35.281 39.7423C34.5434 39.6479 33.9453 38.9971 33.9453 38.2811V1.74118C33.9453 1.02615 34.5434 0.520539 35.281 0.60921L65.7612 4.3881C66.4988 4.48243 67.0978 5.13425 67.0978 5.84928V42.3949C67.0969 43.1099 66.4979 43.6155 65.7602 43.524Z" fill="white"/>
<path d="M49.6202 41.6647H49.6032L35.2649 39.8856C34.4593 39.7856 33.8047 39.0678 33.8047 38.282V33.2089C33.8047 33.1714 33.8196 33.1354 33.8461 33.1088C33.8727 33.0823 33.9087 33.0674 33.9462 33.0674C33.9837 33.0674 34.0197 33.0823 34.0462 33.1088C34.0728 33.1354 34.0877 33.1714 34.0877 33.2089V38.2829C34.0877 38.9291 34.631 39.5215 35.2998 39.6036L49.6381 41.3817C49.6756 41.3839 49.7107 41.401 49.7356 41.4291C49.7606 41.4573 49.7733 41.4941 49.7711 41.5317C49.7688 41.5692 49.7518 41.6043 49.7237 41.6292C49.6955 41.6542 49.6586 41.6669 49.6211 41.6647H49.6202Z" fill="black"/>
<path d="M67.096 19.1933C67.0585 19.1933 67.0225 19.1784 66.996 19.1518C66.9694 19.1253 66.9545 19.0893 66.9545 19.0518V5.85209C66.9545 5.20687 66.4102 4.61447 65.7414 4.53146L35.2623 0.752574C35.1116 0.730177 34.9578 0.740309 34.8114 0.782289C34.665 0.824268 34.5292 0.897121 34.4133 0.995947C34.3086 1.0894 34.2253 1.20437 34.1691 1.33298C34.1129 1.4616 34.0852 1.60084 34.0878 1.74116V11.8996C34.0878 11.9372 34.0729 11.9731 34.0464 11.9997C34.0199 12.0262 33.9839 12.0411 33.9463 12.0411C33.9088 12.0411 33.8728 12.0262 33.8463 11.9997C33.8197 11.9731 33.8048 11.9372 33.8048 11.8996V1.74116C33.802 1.56071 33.8382 1.38177 33.9108 1.21654C33.9834 1.05132 34.0907 0.903682 34.2256 0.783704C34.3717 0.657497 34.5433 0.564276 34.7287 0.510394C34.9141 0.456512 35.109 0.443236 35.3 0.471469L65.7792 4.2513C66.5847 4.35034 67.2403 5.06914 67.2403 5.85492V19.0518C67.2403 19.0706 67.2366 19.0892 67.2293 19.1066C67.222 19.1239 67.2113 19.1397 67.1979 19.1528C67.1845 19.166 67.1685 19.1764 67.151 19.1833C67.1335 19.1903 67.1148 19.1936 67.096 19.1933Z" fill="black"/>
<path d="M63.0376 26.2163L37.8438 23.0921V12.7676L63.0376 15.8918V26.2163Z" fill="#5479F7"/>
<path d="M45.7798 26.0691L37.8438 25.0852V35.6521L45.7798 36.6369V26.0691Z" fill="#CADDFF"/>
<path d="M47.5312 26.2859V36.8538L63.0364 38.7762V28.2093L47.5312 26.2859Z" fill="#CADDFF"/>
<path d="M63.0376 14.0597L37.8438 10.9364V5.01343L63.0376 8.13766V14.0597Z" fill="#CADDFF"/>
<path d="M77.2598 51.2902L54.1394 48.332C53.8628 48.2912 53.6095 48.1542 53.424 47.9451C53.2385 47.736 53.1327 47.4681 53.1253 47.1887V31.5789C53.1219 31.4504 53.147 31.3227 53.1987 31.205C53.2503 31.0873 53.3273 30.9825 53.4242 30.8979C53.5211 30.8134 53.6354 30.7513 53.759 30.7161C53.8826 30.6808 54.0125 30.6733 54.1394 30.694L77.2598 33.6523C77.5363 33.693 77.7896 33.83 77.9751 34.0391C78.1606 34.2483 78.2664 34.5161 78.2738 34.7955V50.4016C78.2778 50.5304 78.2531 50.6585 78.2017 50.7767C78.1503 50.8948 78.0734 51.0002 77.9764 51.0851C77.8795 51.17 77.765 51.2325 77.6411 51.2679C77.5172 51.3034 77.387 51.311 77.2598 51.2902Z" fill="#99B9FF"/>
<path d="M77.3926 51.4392C77.3424 51.4393 77.2924 51.4362 77.2426 51.4298L54.1222 48.4725C53.8119 48.4263 53.5279 48.2723 53.3198 48.0375C53.1118 47.8028 52.9931 47.5022 52.9845 47.1887V31.5788C52.9819 31.4315 53.011 31.2853 53.07 31.1502C53.1289 31.0151 53.2162 30.8942 53.326 30.7959C53.439 30.6979 53.5719 30.6255 53.7155 30.5837C53.8591 30.5418 54.0101 30.5315 54.158 30.5535L68.5189 32.391C68.5565 32.3958 68.5905 32.4152 68.6137 32.4451C68.6369 32.475 68.6472 32.5129 68.6425 32.5504C68.6377 32.588 68.6183 32.6221 68.5884 32.6452C68.5585 32.6684 68.5206 32.6788 68.4831 32.674L54.1222 30.8365C54.0142 30.8196 53.9039 30.8264 53.7989 30.8564C53.6938 30.8864 53.5966 30.9388 53.5137 31.01C53.434 31.0817 53.3706 31.1699 53.3281 31.2684C53.2856 31.3669 53.265 31.4735 53.2675 31.5807V47.1887C53.2743 47.4339 53.3672 47.6688 53.5301 47.8523C53.693 48.0357 53.9153 48.1558 54.158 48.1914L77.2785 51.1496C77.3864 51.1661 77.4966 51.1592 77.6016 51.1292C77.7066 51.0993 77.8039 51.047 77.8869 50.9761C77.9665 50.9042 78.0298 50.816 78.0723 50.7176C78.1147 50.6191 78.1355 50.5126 78.1331 50.4053V41.5081C78.1331 41.4706 78.148 41.4346 78.1745 41.408C78.2011 41.3815 78.2371 41.3666 78.2746 41.3666C78.3121 41.3666 78.3481 41.3815 78.3746 41.408C78.4012 41.4346 78.4161 41.4706 78.4161 41.5081V50.4016C78.4201 50.5377 78.3964 50.6733 78.3465 50.8C78.2967 50.9268 78.2217 51.0421 78.126 51.1391C78.0304 51.236 77.9161 51.3126 77.79 51.3642C77.664 51.4158 77.5288 51.4413 77.3926 51.4392Z" fill="black"/>
<path d="M75.4249 36.9028L55.8711 34.4785V44.803L75.4249 47.2273V36.9028Z" fill="#5479F7"/>
<path d="M65.3332 36.3597C65.2957 36.3597 65.2597 36.3447 65.2332 36.3182C65.2066 36.2917 65.1917 36.2557 65.1917 36.2182V35.7805L64.754 35.7267C64.7165 35.7221 64.6823 35.7027 64.6591 35.6729C64.6358 35.6431 64.6254 35.6053 64.63 35.5677C64.6346 35.5302 64.654 35.4961 64.6838 35.4728C64.7136 35.4495 64.7514 35.4391 64.7889 35.4437L65.3549 35.5135C65.3893 35.5175 65.4211 35.534 65.4441 35.5599C65.4671 35.5859 65.4797 35.6194 65.4794 35.6541V36.22C65.4792 36.2389 65.4752 36.2575 65.4677 36.2747C65.4602 36.292 65.4493 36.3076 65.4357 36.3206C65.422 36.3336 65.406 36.3437 65.3884 36.3504C65.3708 36.3571 65.352 36.3603 65.3332 36.3597Z" fill="black"/>
<path d="M63.58 35.5758H63.5621L62.3707 35.4277C62.3331 35.423 62.299 35.4037 62.2757 35.3739C62.2525 35.3441 62.242 35.3063 62.2466 35.2687C62.2512 35.2312 62.2706 35.197 62.3004 35.1738C62.3302 35.1505 62.368 35.1401 62.4056 35.1447L63.597 35.2918C63.6154 35.2942 63.6332 35.3001 63.6494 35.3093C63.6656 35.3186 63.6798 35.3309 63.6912 35.3456C63.7025 35.3604 63.7109 35.3772 63.7158 35.3951C63.7207 35.4131 63.722 35.4319 63.7196 35.4503C63.7159 35.4848 63.6996 35.5166 63.6738 35.5398C63.648 35.5629 63.6146 35.5757 63.58 35.5758ZM61.1972 35.2805H61.1793L59.9879 35.1324C59.9693 35.1301 59.9513 35.1242 59.9351 35.115C59.9188 35.1057 59.9044 35.0934 59.8929 35.0786C59.8814 35.0639 59.8729 35.047 59.8679 35.0289C59.8629 35.0109 59.8615 34.9921 59.8638 34.9735C59.8661 34.9549 59.872 34.9369 59.8813 34.9207C59.8905 34.9044 59.9028 34.89 59.9176 34.8785C59.9324 34.867 59.9492 34.8585 59.9673 34.8535C59.9853 34.8485 60.0042 34.8471 60.0228 34.8494L61.2142 34.9966C61.2517 34.9988 61.2868 35.0159 61.3117 35.044C61.3367 35.0722 61.3494 35.109 61.3472 35.1466C61.3449 35.1841 61.3279 35.2192 61.2997 35.2441C61.2716 35.2691 61.2347 35.2818 61.1972 35.2796V35.2805ZM58.8134 34.9853H58.7965L57.6051 34.8372C57.5866 34.8349 57.5688 34.8291 57.5526 34.82C57.5364 34.8109 57.5221 34.7986 57.5106 34.784C57.4992 34.7694 57.4907 34.7526 57.4857 34.7347C57.4807 34.7168 57.4793 34.6981 57.4815 34.6796C57.4858 34.6425 57.5045 34.6085 57.5336 34.585C57.5627 34.5615 57.5999 34.5505 57.6371 34.5542L58.8285 34.7023C58.8661 34.7046 58.9011 34.7218 58.926 34.7501C58.9508 34.7783 58.9635 34.8152 58.9611 34.8527C58.9587 34.8903 58.9415 34.9253 58.9133 34.9502C58.8851 34.975 58.8481 34.9876 58.8106 34.9853H58.8134Z" fill="black"/>
<path d="M55.8681 35.186C55.8305 35.186 55.7946 35.1711 55.768 35.1445C55.7415 35.118 55.7266 35.082 55.7266 35.0445V34.4785C55.7263 34.4584 55.7303 34.4384 55.7384 34.42C55.7465 34.4016 55.7585 34.3852 55.7735 34.3718C55.7886 34.3585 55.8063 34.3485 55.8256 34.3427C55.8448 34.3368 55.8651 34.3352 55.885 34.338L56.451 34.4078C56.4696 34.41 56.4876 34.4159 56.5039 34.425C56.5202 34.4342 56.5346 34.4465 56.5461 34.4612C56.5577 34.4759 56.5662 34.4928 56.5713 34.5108C56.5763 34.5288 56.5778 34.5477 56.5756 34.5662C56.5733 34.5848 56.5675 34.6028 56.5583 34.6191C56.5491 34.6354 56.5368 34.6497 56.5221 34.6613C56.5074 34.6729 56.4905 34.6814 56.4725 34.6865C56.4545 34.6915 56.4357 34.693 56.4171 34.6907L56.0143 34.6408V35.0473C56.0139 35.0661 56.0098 35.0845 56.0023 35.1017C55.9947 35.1189 55.9838 35.1343 55.9702 35.1472C55.9566 35.1601 55.9406 35.1702 55.923 35.1769C55.9055 35.1835 55.8868 35.1866 55.8681 35.186Z" fill="black"/>
<path d="M55.8681 37.1133C55.8305 37.1133 55.7945 37.0984 55.768 37.0718C55.7415 37.0453 55.7266 37.0093 55.7266 36.9718V36.0077C55.7266 35.9702 55.7415 35.9342 55.768 35.9077C55.7945 35.8811 55.8305 35.8662 55.8681 35.8662C55.9056 35.8662 55.9416 35.8811 55.9681 35.9077C55.9946 35.9342 56.0096 35.9702 56.0096 36.0077V36.9718C56.0096 37.0093 55.9946 37.0453 55.9681 37.0718C55.9416 37.0984 55.9056 37.1133 55.8681 37.1133Z" fill="black"/>
<path d="M56.432 38.7123H56.4122L55.8462 38.6425C55.812 38.6383 55.7804 38.6217 55.7577 38.5957C55.7349 38.5698 55.7224 38.5364 55.7227 38.5019V37.9359C55.7227 37.8984 55.7376 37.8624 55.7641 37.8359C55.7906 37.8093 55.8266 37.7944 55.8642 37.7944C55.9017 37.7944 55.9377 37.8093 55.9642 37.8359C55.9907 37.8624 56.0057 37.8984 56.0057 37.9359V38.3774L56.4424 38.4312C56.4799 38.4334 56.515 38.4505 56.54 38.4786C56.5649 38.5067 56.5777 38.5436 56.5754 38.5812C56.5732 38.6187 56.5561 38.6538 56.528 38.6787C56.4998 38.7037 56.463 38.7164 56.4254 38.7142L56.432 38.7123Z" fill="black"/>
<path d="M63.5805 39.5988H63.5626L62.3712 39.4517C62.3336 39.447 62.2995 39.4277 62.2762 39.3979C62.253 39.3681 62.2425 39.3302 62.2471 39.2927C62.2518 39.2552 62.2711 39.221 62.3009 39.1978C62.3307 39.1745 62.3686 39.164 62.4061 39.1687L63.5975 39.3168C63.6161 39.3179 63.6342 39.3226 63.651 39.3308C63.6677 39.3389 63.6827 39.3503 63.695 39.3642C63.7074 39.3781 63.7169 39.3944 63.723 39.412C63.729 39.4295 63.7316 39.4482 63.7305 39.4667C63.7294 39.4853 63.7246 39.5035 63.7165 39.5202C63.7083 39.537 63.697 39.552 63.683 39.5643C63.6691 39.5767 63.6529 39.5862 63.6353 39.5922C63.6177 39.5983 63.5991 39.6009 63.5805 39.5998V39.5988ZM61.1977 39.3026H61.1798L59.9884 39.1555C59.9698 39.1532 59.9519 39.1472 59.9356 39.138C59.9193 39.1288 59.905 39.1164 59.8934 39.1017C59.8819 39.0869 59.8734 39.07 59.8684 39.052C59.8634 39.0339 59.862 39.0151 59.8643 38.9965C59.8666 38.9779 59.8725 38.96 59.8818 38.9437C59.891 38.9274 59.9034 38.9131 59.9181 38.9016C59.9329 38.89 59.9498 38.8815 59.9678 38.8766C59.9858 38.8716 60.0047 38.8702 60.0233 38.8725L61.2147 39.0206C61.2522 39.0228 61.2873 39.0399 61.3122 39.068C61.3372 39.0961 61.3499 39.133 61.3477 39.1705C61.3454 39.2081 61.3284 39.2432 61.3002 39.2681C61.2721 39.2931 61.2352 39.3058 61.1977 39.3036V39.3026ZM58.814 39.0074H58.797L57.6056 38.8593C57.587 38.857 57.5691 38.851 57.5528 38.8418C57.5365 38.8326 57.5222 38.8202 57.5106 38.8055C57.4991 38.7907 57.4906 38.7738 57.4856 38.7558C57.4806 38.7377 57.4792 38.7189 57.4815 38.7003C57.4838 38.6817 57.4898 38.6638 57.499 38.6475C57.5082 38.6312 57.5206 38.6169 57.5353 38.6054C57.5501 38.5939 57.567 38.5854 57.585 38.5804C57.6031 38.5754 57.6219 38.574 57.6405 38.5763L58.8319 38.7234C58.8694 38.7258 58.9045 38.743 58.9293 38.7712C58.9542 38.7994 58.9668 38.8364 58.9644 38.8739C58.962 38.9114 58.9449 38.9465 58.9166 38.9713C58.8884 38.9962 58.8515 39.0088 58.814 39.0064V39.0074Z" fill="black"/>
<path d="M65.3331 39.8157H65.3161L64.7501 39.7459C64.7315 39.7436 64.7136 39.7377 64.6973 39.7285C64.681 39.7193 64.6667 39.7069 64.6552 39.6922C64.6319 39.6623 64.6214 39.6245 64.6261 39.587C64.6307 39.5495 64.6501 39.5153 64.6799 39.492C64.7097 39.4688 64.7475 39.4583 64.785 39.4629L65.1878 39.5129V39.1073C65.1878 39.0698 65.2027 39.0338 65.2293 39.0073C65.2558 38.9807 65.2918 38.9658 65.3293 38.9658C65.3668 38.9658 65.4028 38.9807 65.4294 39.0073C65.4559 39.0338 65.4708 39.0698 65.4708 39.1073V39.6733C65.4709 39.6919 65.4674 39.7104 65.4603 39.7276C65.4532 39.7448 65.4428 39.7605 65.4296 39.7736C65.4165 39.7868 65.4008 39.7972 65.3836 39.8043C65.3664 39.8113 65.3479 39.8149 65.3293 39.8148L65.3331 39.8157Z" fill="black"/>
<path d="M65.3329 38.2868C65.2954 38.2868 65.2594 38.2719 65.2328 38.2454C65.2063 38.2189 65.1914 38.1829 65.1914 38.1454V37.1813C65.1914 37.1438 65.2063 37.1078 65.2328 37.0812C65.2594 37.0547 65.2954 37.0398 65.3329 37.0398C65.3704 37.0398 65.4064 37.0547 65.433 37.0812C65.4595 37.1078 65.4744 37.1438 65.4744 37.1813V38.1454C65.4744 38.1829 65.4595 38.2189 65.433 38.2454C65.4064 38.2719 65.3704 38.2868 65.3329 38.2868Z" fill="black"/>
<path d="M75.4226 43.9042C75.3851 43.9042 75.3491 43.8893 75.3226 43.8627C75.296 43.8362 75.2811 43.8002 75.2811 43.7627V43.3212L74.8434 43.2656C74.8059 43.2608 74.7718 43.2414 74.7486 43.2115C74.7255 43.1816 74.7151 43.1437 74.7199 43.1061C74.7246 43.0686 74.7441 43.0345 74.774 43.0113C74.8039 42.9882 74.8418 42.9778 74.8793 42.9826L75.4406 43.0533C75.4747 43.0579 75.506 43.0746 75.5287 43.1005C75.5514 43.1263 75.564 43.1595 75.5641 43.1939V43.7599C75.5645 43.7787 75.5611 43.7974 75.5542 43.8149C75.5472 43.8324 75.5369 43.8483 75.5237 43.8618C75.5105 43.8752 75.4948 43.8859 75.4775 43.8932C75.4601 43.9004 75.4415 43.9042 75.4226 43.9042Z" fill="black"/>
<path d="M73.7518 43.125H73.7338L72.6226 42.9835C72.5854 42.9785 72.5517 42.9591 72.5287 42.9294C72.5058 42.8998 72.4955 42.8622 72.5 42.825C72.5022 42.8065 72.5081 42.7886 72.5173 42.7724C72.5265 42.7561 72.5388 42.7419 72.5535 42.7305C72.5683 42.7191 72.5852 42.7107 72.6032 42.7059C72.6212 42.7011 72.64 42.6999 72.6585 42.7024L73.7697 42.8439C73.8072 42.8462 73.8423 42.8634 73.8671 42.8916C73.892 42.9199 73.9046 42.9568 73.9022 42.9943C73.8999 43.0318 73.8827 43.0669 73.8544 43.0917C73.8262 43.1166 73.7893 43.1292 73.7518 43.1269V43.125ZM71.5293 42.842H71.5114L70.4002 42.7005C70.3816 42.6981 70.3637 42.6921 70.3474 42.6829C70.3312 42.6736 70.3169 42.6612 70.3054 42.6464C70.2939 42.6316 70.2855 42.6146 70.2805 42.5966C70.2756 42.5785 70.2743 42.5596 70.2766 42.5411C70.279 42.5225 70.285 42.5045 70.2943 42.4883C70.3036 42.472 70.3159 42.4577 70.3307 42.4463C70.3455 42.4348 70.3625 42.4263 70.3805 42.4214C70.3986 42.4165 70.4175 42.4151 70.436 42.4175L71.5473 42.5599C71.5848 42.5623 71.6198 42.5795 71.6447 42.6077C71.6695 42.6359 71.6822 42.6729 71.6798 42.7104C71.6774 42.7479 71.6602 42.783 71.632 42.8078C71.6038 42.8327 71.5669 42.8453 71.5293 42.8429V42.842ZM69.3069 42.559H69.289L68.1778 42.4165C68.1592 42.4142 68.1412 42.4082 68.125 42.3989C68.1087 42.3896 68.0945 42.3772 68.083 42.3624C68.0715 42.3476 68.063 42.3307 68.0581 42.3126C68.0532 42.2946 68.0518 42.2757 68.0542 42.2571C68.0565 42.2385 68.0625 42.2206 68.0718 42.2043C68.0811 42.1881 68.0935 42.1738 68.1083 42.1623C68.1231 42.1508 68.14 42.1424 68.1581 42.1375C68.1762 42.1325 68.195 42.1312 68.2136 42.1336L69.3248 42.2751C69.3623 42.2774 69.3974 42.2946 69.4223 42.3228C69.4471 42.351 69.4597 42.388 69.4574 42.4255C69.455 42.463 69.4378 42.4981 69.4096 42.5229C69.3814 42.5478 69.3444 42.5604 69.3069 42.558V42.559ZM67.0845 42.276H67.0713L65.9601 42.1345C65.9415 42.1321 65.9235 42.1262 65.9073 42.1169C65.891 42.1076 65.8767 42.0952 65.8653 42.0804C65.8538 42.0656 65.8453 42.0487 65.8404 42.0306C65.8355 42.0125 65.8341 41.9937 65.8365 41.9751C65.8388 41.9565 65.8448 41.9386 65.8541 41.9223C65.8634 41.906 65.8758 41.8918 65.8906 41.8803C65.9054 41.8688 65.9223 41.8604 65.9404 41.8554C65.9585 41.8505 65.9773 41.8492 65.9959 41.8515L67.1071 41.993C67.1446 41.9954 67.1797 42.0126 67.2045 42.0408C67.2294 42.069 67.242 42.1059 67.2397 42.1435C67.2373 42.181 67.2201 42.216 67.1919 42.2409C67.1637 42.2657 67.1267 42.2784 67.0892 42.276H67.0845ZM64.863 41.993H64.8441L63.7329 41.8515C63.6954 41.8466 63.6613 41.827 63.6382 41.7971C63.6152 41.7671 63.6049 41.7291 63.6098 41.6916C63.6147 41.6541 63.6343 41.62 63.6643 41.597C63.6942 41.5739 63.7322 41.5636 63.7697 41.5685L64.88 41.711C64.9175 41.7132 64.9526 41.7303 64.9775 41.7584C65.0025 41.7865 65.0152 41.8234 65.013 41.8609C65.0107 41.8985 64.9937 41.9336 64.9655 41.9585C64.9374 41.9835 64.9005 41.9962 64.863 41.9939V41.993ZM62.6406 41.71H62.6226L61.5114 41.5676C61.4928 41.5652 61.4749 41.5592 61.4586 41.5499C61.4424 41.5407 61.4281 41.5283 61.4166 41.5135C61.3934 41.4836 61.3831 41.4457 61.3879 41.4082C61.3926 41.3706 61.4121 41.3365 61.442 41.3133C61.4719 41.2902 61.5097 41.2798 61.5473 41.2846L62.6585 41.4261C62.696 41.4285 62.7311 41.4456 62.7559 41.4739C62.7808 41.5021 62.7934 41.539 62.791 41.5765C62.7886 41.6141 62.7715 41.6491 62.7432 41.674C62.715 41.6988 62.6781 41.7114 62.6406 41.7091V41.71Z" fill="black"/>
<path d="M59.8563 41.9176C59.8188 41.9176 59.7828 41.9027 59.7563 41.8761C59.7298 41.8496 59.7148 41.8136 59.7148 41.7761V41.2101C59.7148 41.19 59.719 41.1702 59.7271 41.1518C59.7352 41.1334 59.7471 41.117 59.762 41.1035C59.7774 41.0905 59.7953 41.0808 59.8146 41.0749C59.8339 41.0691 59.8542 41.0673 59.8743 41.0696L60.4402 41.1412C60.4778 41.146 60.5119 41.1655 60.535 41.1954C60.5582 41.2253 60.5686 41.2631 60.5638 41.3007C60.5591 41.3382 60.5396 41.3723 60.5097 41.3955C60.4798 41.4186 60.4419 41.429 60.4044 41.4242L60.0025 41.3724V41.778C60.0023 41.7968 59.9983 41.8154 59.9908 41.8327C59.9833 41.8499 59.9724 41.8655 59.9588 41.8785C59.9452 41.8915 59.9291 41.9017 59.9115 41.9084C59.8939 41.9151 59.8752 41.9182 59.8563 41.9176Z" fill="black"/>
<path d="M60.4184 43.7476H60.4005L59.8345 43.6759C59.8003 43.6717 59.7687 43.6551 59.7459 43.6292C59.7231 43.6033 59.7107 43.5699 59.7109 43.5354V42.9694C59.7109 42.9318 59.7258 42.8959 59.7524 42.8693C59.7789 42.8428 59.8149 42.8279 59.8524 42.8279C59.89 42.8279 59.926 42.8428 59.9525 42.8693C59.979 42.8959 59.9939 42.9318 59.9939 42.9694V43.4108L60.4316 43.4674C60.4692 43.4698 60.5042 43.487 60.5291 43.5152C60.5539 43.5434 60.5665 43.5804 60.5642 43.6179C60.5618 43.6554 60.5446 43.6905 60.5164 43.7153C60.4882 43.7402 60.4512 43.7528 60.4137 43.7504L60.4184 43.7476Z" fill="black"/>
<path d="M73.7518 45.4492H73.7338L72.6226 45.3077C72.6041 45.3054 72.5861 45.2994 72.5699 45.2901C72.5536 45.2808 72.5393 45.2684 72.5278 45.2536C72.5046 45.2237 72.4943 45.1858 72.4991 45.1483C72.5038 45.1108 72.5233 45.0767 72.5532 45.0535C72.5831 45.0303 72.6209 45.02 72.6585 45.0247L73.7697 45.1672C73.8072 45.1696 73.8423 45.1867 73.8671 45.215C73.892 45.2432 73.9046 45.2801 73.9022 45.3176C73.8999 45.3552 73.8827 45.3902 73.8544 45.4151C73.8262 45.4399 73.7893 45.4525 73.7518 45.4502V45.4492ZM71.5293 45.1662H71.5114L70.4002 45.0247C70.3816 45.0224 70.3637 45.0164 70.3474 45.0071C70.3312 44.9978 70.3169 44.9854 70.3054 44.9706C70.2939 44.9558 70.2855 44.9389 70.2805 44.9208C70.2756 44.9028 70.2743 44.8839 70.2766 44.8653C70.279 44.8467 70.285 44.8288 70.2943 44.8125C70.3035 44.7963 70.3159 44.782 70.3307 44.7705C70.3455 44.759 70.3625 44.7506 70.3805 44.7457C70.3986 44.7407 70.4175 44.7394 70.436 44.7417L71.5473 44.8832C71.5848 44.8856 71.6198 44.9028 71.6447 44.931C71.6695 44.9592 71.6822 44.9962 71.6798 45.0337C71.6774 45.0712 71.6602 45.1063 71.632 45.1311C71.6038 45.156 71.5669 45.1686 71.5293 45.1662ZM69.3069 44.8832H69.289L68.1778 44.7417C68.1406 44.7368 68.1068 44.7174 68.0839 44.6877C68.0609 44.658 68.0506 44.6205 68.0551 44.5833C68.0573 44.5647 68.0632 44.5469 68.0724 44.5306C68.0816 44.5144 68.0939 44.5002 68.1087 44.4888C68.1234 44.4773 68.1403 44.469 68.1583 44.4642C68.1763 44.4593 68.1951 44.4581 68.2136 44.4606L69.3248 44.6021C69.3623 44.6045 69.3974 44.6217 69.4223 44.6499C69.4471 44.6781 69.4597 44.7151 69.4574 44.7526C69.455 44.7901 69.4378 44.8252 69.4096 44.85C69.3814 44.8749 69.3444 44.8875 69.3069 44.8851V44.8832ZM67.0845 44.6002H67.0713L65.9601 44.4587C65.9415 44.4564 65.9235 44.4504 65.9073 44.4411C65.891 44.4318 65.8767 44.4194 65.8652 44.4046C65.8538 44.3898 65.8453 44.3729 65.8404 44.3548C65.8355 44.3368 65.8341 44.3179 65.8365 44.2993C65.8388 44.2807 65.8448 44.2628 65.8541 44.2465C65.8634 44.2303 65.8758 44.216 65.8906 44.2045C65.9054 44.1931 65.9223 44.1846 65.9404 44.1797C65.9585 44.1747 65.9773 44.1734 65.9959 44.1758L67.1071 44.3182C67.1446 44.3206 67.1797 44.3378 67.2045 44.366C67.2294 44.3942 67.242 44.4311 67.2397 44.4687C67.2373 44.5062 67.2201 44.5412 67.1919 44.5661C67.1637 44.5909 67.1267 44.6036 67.0892 44.6012L67.0845 44.6002ZM64.863 44.3173H64.8451L63.7339 44.1758C63.6963 44.171 63.6622 44.1515 63.639 44.1216C63.6159 44.0917 63.6055 44.0539 63.6103 44.0163C63.615 43.9788 63.6345 43.9447 63.6644 43.9215C63.6943 43.8984 63.7322 43.888 63.7697 43.8928L64.88 44.0343C64.9175 44.0365 64.9526 44.0536 64.9775 44.0817C65.0025 44.1098 65.0152 44.1467 65.013 44.1842C65.0107 44.2218 64.9937 44.2569 64.9655 44.2818C64.9374 44.3068 64.9005 44.3195 64.863 44.3173ZM62.6406 44.0343H62.6226L61.5114 43.8928C61.4928 43.8904 61.4749 43.8844 61.4586 43.8751C61.4424 43.8659 61.4281 43.8535 61.4166 43.8387C61.4051 43.8238 61.3967 43.8069 61.3918 43.7889C61.3868 43.7708 61.3855 43.7519 61.3878 43.7333C61.3902 43.7148 61.3962 43.6968 61.4055 43.6806C61.4148 43.6643 61.4272 43.65 61.442 43.6385C61.4568 43.6271 61.4737 43.6186 61.4918 43.6137C61.5098 43.6087 61.5287 43.6074 61.5473 43.6098L62.6585 43.7513C62.696 43.7536 62.7311 43.7708 62.7559 43.7991C62.7808 43.8273 62.7934 43.8642 62.791 43.9017C62.7886 43.9393 62.7715 43.9743 62.7432 43.9992C62.715 44.024 62.6781 44.0366 62.6406 44.0343Z" fill="black"/>
<path d="M75.4235 45.6634H75.4055L74.8396 45.5927C74.802 45.5879 74.7679 45.5685 74.7447 45.5386C74.7216 45.5087 74.7112 45.4708 74.716 45.4333C74.7207 45.3957 74.7402 45.3616 74.7701 45.3385C74.8 45.3153 74.8379 45.3049 74.8754 45.3097L75.2772 45.3606V44.9559C75.2772 44.9184 75.2922 44.8824 75.3187 44.8559C75.3452 44.8294 75.3812 44.8145 75.4187 44.8145C75.4563 44.8145 75.4922 44.8294 75.5188 44.8559C75.5453 44.8824 75.5602 44.9184 75.5602 44.9559V45.5219C75.5602 45.542 75.5559 45.5617 75.5476 45.58C75.5393 45.5982 75.5272 45.6144 75.5121 45.6276C75.4875 45.6493 75.4562 45.6619 75.4235 45.6634Z" fill="black"/>
<path d="M56.4031 36.4728C56.3751 36.4727 56.3478 36.4644 56.3246 36.4489C56.3013 36.4333 56.2832 36.4112 56.2725 36.3854C56.2618 36.3596 56.259 36.3311 56.2644 36.3037C56.2699 36.2763 56.2833 36.2511 56.3031 36.2313L57.4502 35.0871C57.477 35.0621 57.5125 35.0484 57.5491 35.0491C57.5858 35.0497 57.6208 35.0646 57.6467 35.0905C57.6726 35.1164 57.6874 35.1514 57.6881 35.1881C57.6887 35.2247 57.6751 35.2602 57.6501 35.287L56.5069 36.4313C56.4933 36.4449 56.4771 36.4556 56.4593 36.4628C56.4414 36.4699 56.4223 36.4733 56.4031 36.4728Z" fill="#99B9FF"/>
<path d="M56.8177 38.3074C56.799 38.3075 56.7804 38.304 56.7631 38.2968C56.7457 38.2897 56.73 38.2792 56.7168 38.2659C56.6905 38.2392 56.6758 38.2033 56.6758 38.1659C56.6758 38.1285 56.6905 38.0925 56.7168 38.0659L59.4326 35.3501C59.4458 35.337 59.4614 35.3266 59.4786 35.3195C59.4958 35.3124 59.5143 35.3088 59.5329 35.3088C59.5515 35.3089 59.5699 35.3126 59.5871 35.3198C59.6043 35.3269 59.6199 35.3374 59.633 35.3506C59.6461 35.3638 59.6565 35.3794 59.6636 35.3966C59.6707 35.4139 59.6743 35.4323 59.6743 35.4509C59.6742 35.4695 59.6705 35.488 59.6634 35.5051C59.6562 35.5223 59.6457 35.5379 59.6325 35.551L56.9177 38.2659C56.9046 38.2791 56.8891 38.2896 56.8719 38.2967C56.8547 38.3038 56.8363 38.3075 56.8177 38.3074Z" fill="#99B9FF"/>
<path d="M58.8207 38.5576C58.7832 38.5572 58.7474 38.5423 58.7207 38.5161C58.6944 38.4894 58.6797 38.4535 58.6797 38.4161C58.6797 38.3786 58.6944 38.3427 58.7207 38.3161L61.444 35.5918C61.4571 35.5786 61.4727 35.5681 61.4899 35.561C61.5071 35.5538 61.5255 35.5501 61.5441 35.55C61.5628 35.55 61.5812 35.5536 61.5984 35.5607C61.6156 35.5678 61.6313 35.5782 61.6445 35.5913C61.6577 35.6045 61.6681 35.6201 61.6753 35.6372C61.6825 35.6544 61.6862 35.6728 61.6862 35.6915C61.6863 35.7101 61.6826 35.7285 61.6755 35.7457C61.6685 35.7629 61.6581 35.7786 61.6449 35.7918L58.9207 38.5161C58.9076 38.5292 58.892 38.5397 58.8748 38.5468C58.8577 38.5539 58.8393 38.5576 58.8207 38.5576Z" fill="#99B9FF"/>
<path d="M60.8175 38.813C60.7989 38.8132 60.7805 38.8097 60.7633 38.8026C60.7461 38.7954 60.7305 38.7848 60.7176 38.7715C60.7043 38.7584 60.6938 38.7428 60.6866 38.7257C60.6795 38.7085 60.6758 38.6901 60.6758 38.6715C60.6758 38.6529 60.6795 38.6345 60.6866 38.6173C60.6938 38.6002 60.7043 38.5846 60.7176 38.5715L63.4531 35.8359C63.4798 35.8097 63.5157 35.7949 63.5531 35.7949C63.5906 35.7949 63.6265 35.8097 63.6531 35.8359C63.6664 35.849 63.6769 35.8646 63.684 35.8817C63.6912 35.8989 63.6949 35.9173 63.6949 35.9359C63.6949 35.9545 63.6912 35.9729 63.684 35.9901C63.6769 36.0073 63.6664 36.0228 63.6531 36.0359L60.9175 38.7715C60.9045 38.7848 60.8889 38.7953 60.8718 38.8024C60.8546 38.8095 60.8361 38.8131 60.8175 38.813Z" fill="#99B9FF"/>
<path d="M62.8293 39.0538C62.7918 39.0536 62.7558 39.0387 62.7293 39.0123C62.716 38.9992 62.7055 38.9836 62.6984 38.9664C62.6912 38.9493 62.6875 38.9309 62.6875 38.9123C62.6875 38.8937 62.6912 38.8752 62.6984 38.8581C62.7055 38.8409 62.716 38.8253 62.7293 38.8123L64.6017 36.9398C64.6147 36.9259 64.6303 36.9148 64.6477 36.907C64.665 36.8993 64.6838 36.8951 64.7028 36.8948C64.7218 36.8945 64.7406 36.898 64.7582 36.9051C64.7759 36.9122 64.7919 36.9228 64.8053 36.9362C64.8187 36.9497 64.8293 36.9657 64.8365 36.9833C64.8436 37.0009 64.8471 37.0198 64.8467 37.0388C64.8464 37.0578 64.8422 37.0765 64.8345 37.0939C64.8268 37.1112 64.8156 37.1268 64.8017 37.1398L62.9293 39.0123C62.9027 39.0387 62.8668 39.0536 62.8293 39.0538Z" fill="#99B9FF"/>
<path d="M60.4691 43.2268C60.4505 43.2269 60.4321 43.2233 60.4149 43.2162C60.3978 43.209 60.3822 43.1986 60.3691 43.1853C60.3428 43.1587 60.3281 43.1228 60.3281 43.0853C60.3281 43.0479 60.3428 43.012 60.3691 42.9854L61.5388 41.8157C61.5655 41.7894 61.6014 41.7747 61.6388 41.7747C61.6762 41.7747 61.7121 41.7894 61.7388 41.8157C61.752 41.8287 61.7625 41.8443 61.7697 41.8615C61.7769 41.8786 61.7806 41.897 61.7806 41.9156C61.7806 41.9342 61.7769 41.9527 61.7697 41.9698C61.7625 41.987 61.752 42.0026 61.7388 42.0156L60.5634 43.1853C60.5386 43.2109 60.5048 43.2258 60.4691 43.2268Z" fill="#99B9FF"/>
<path d="M62.4656 43.4767C62.4376 43.4767 62.4103 43.4684 62.387 43.4528C62.3638 43.4373 62.3457 43.4152 62.335 43.3894C62.3243 43.3635 62.3215 43.3351 62.3269 43.3077C62.3324 43.2802 62.3458 43.255 62.3656 43.2352L63.5428 42.058C63.5697 42.033 63.6051 42.0194 63.6418 42.02C63.6785 42.0207 63.7134 42.0355 63.7394 42.0615C63.7653 42.0874 63.7801 42.1224 63.7808 42.159C63.7814 42.1957 63.7678 42.2312 63.7428 42.258L62.5656 43.4352C62.5525 43.4484 62.5369 43.4589 62.5197 43.466C62.5026 43.4731 62.4842 43.4768 62.4656 43.4767Z" fill="#99B9FF"/>
<path d="M64.466 43.7324C64.4474 43.7326 64.4289 43.7291 64.4117 43.722C64.3945 43.7148 64.379 43.7043 64.366 43.6909C64.3528 43.6778 64.3422 43.6622 64.3351 43.6451C64.3279 43.6279 64.3242 43.6095 64.3242 43.5909C64.3242 43.5723 64.3279 43.5539 64.3351 43.5367C64.3422 43.5196 64.3528 43.504 64.366 43.4909L65.5555 42.3014C65.5823 42.2764 65.6178 42.2628 65.6545 42.2634C65.6911 42.2641 65.7261 42.2789 65.752 42.3049C65.7779 42.3308 65.7928 42.3658 65.7934 42.4024C65.7941 42.4391 65.7805 42.4746 65.7555 42.5014L64.566 43.6909C64.5529 43.7041 64.5373 43.7146 64.5202 43.7217C64.503 43.7289 64.4846 43.7325 64.466 43.7324Z" fill="#99B9FF"/>
<path d="M66.3021 44.0078C66.2833 44.008 66.2648 44.0044 66.2474 43.9973C66.2301 43.9902 66.2144 43.9796 66.2012 43.9663C66.1749 43.9397 66.1602 43.9038 66.1602 43.8663C66.1602 43.8289 66.1749 43.793 66.2012 43.7664L67.3709 42.5967C67.3975 42.5704 67.4334 42.5557 67.4708 42.5557C67.5083 42.5557 67.5442 42.5704 67.5708 42.5967C67.5841 42.6097 67.5946 42.6253 67.6017 42.6425C67.6089 42.6596 67.6126 42.6781 67.6126 42.6967C67.6126 42.7153 67.6089 42.7337 67.6017 42.7508C67.5946 42.768 67.5841 42.7836 67.5708 42.7966L66.4021 43.9663C66.389 43.9796 66.3734 43.9901 66.3563 43.9972C66.3391 44.0043 66.3207 44.0079 66.3021 44.0078Z" fill="#99B9FF"/>
<path d="M68.3051 44.2579C68.2676 44.2575 68.2317 44.2427 68.2051 44.2164C68.1788 44.1897 68.1641 44.1538 68.1641 44.1164C68.1641 44.079 68.1788 44.043 68.2051 44.0164L69.3832 42.8391C69.3963 42.8259 69.4119 42.8154 69.4291 42.8082C69.4462 42.8011 69.4646 42.7974 69.4832 42.7974C69.5018 42.7974 69.5202 42.8011 69.5374 42.8082C69.5546 42.8154 69.5701 42.8259 69.5832 42.8391C69.6095 42.8658 69.6242 42.9017 69.6242 42.9391C69.6242 42.9766 69.6095 43.0125 69.5832 43.0391L68.406 44.2164C68.3791 44.2429 68.3428 44.2578 68.3051 44.2579Z" fill="#99B9FF"/>
<path d="M70.3019 44.5135C70.2833 44.5136 70.2649 44.51 70.2477 44.5029C70.2305 44.4958 70.215 44.4853 70.2019 44.472C70.1887 44.4589 70.1782 44.4433 70.171 44.4262C70.1639 44.409 70.1602 44.3906 70.1602 44.372C70.1602 44.3534 70.1639 44.335 70.171 44.3178C70.1782 44.3007 70.1887 44.2851 70.2019 44.272L71.3915 43.0825C71.4181 43.0562 71.454 43.0415 71.4914 43.0415C71.5289 43.0415 71.5648 43.0562 71.5914 43.0825C71.6047 43.0956 71.6152 43.1111 71.6224 43.1283C71.6295 43.1455 71.6332 43.1639 71.6332 43.1825C71.6332 43.2011 71.6295 43.2195 71.6224 43.2367C71.6152 43.2538 71.6047 43.2694 71.5914 43.2825L70.4019 44.472C70.3889 44.4853 70.3733 44.4958 70.3561 44.5029C70.339 44.51 70.3205 44.5136 70.3019 44.5135Z" fill="#99B9FF"/>
<path d="M72.2386 44.8116C72.2012 44.8112 72.1653 44.7963 72.1386 44.7701C72.1124 44.7434 72.0977 44.7075 72.0977 44.6701C72.0977 44.6326 72.1124 44.5967 72.1386 44.5701L73.3159 43.3928C73.329 43.3796 73.3446 43.3692 73.3618 43.362C73.379 43.3548 73.3974 43.3511 73.416 43.3511C73.4346 43.351 73.4531 43.3547 73.4703 43.3617C73.4875 43.3688 73.5032 43.3792 73.5163 43.3924C73.5295 43.4055 73.54 43.4211 73.5472 43.4383C73.5543 43.4554 73.5581 43.4739 73.5581 43.4925C73.5581 43.5111 73.5545 43.5295 73.5474 43.5467C73.5404 43.564 73.53 43.5796 73.5168 43.5928L72.3386 44.7701C72.3255 44.7832 72.31 44.7937 72.2928 44.8008C72.2756 44.8079 72.2572 44.8116 72.2386 44.8116Z" fill="#99B9FF"/>
<path d="M74.2351 45.0673C74.2072 45.0673 74.1798 45.059 74.1566 45.0434C74.1333 45.0279 74.1152 45.0058 74.1045 44.98C74.0938 44.9541 74.091 44.9257 74.0965 44.8983C74.1019 44.8708 74.1154 44.8456 74.1351 44.8258L74.9794 43.9816C75.0062 43.9566 75.0417 43.943 75.0784 43.9436C75.115 43.9443 75.15 43.9591 75.1759 43.985C75.2018 44.011 75.2167 44.0459 75.2173 44.0826C75.218 44.1193 75.2044 44.1547 75.1794 44.1816L74.3351 45.0305C74.3078 45.0553 74.272 45.0685 74.2351 45.0673Z" fill="#99B9FF"/>
<path d="M34.956 29.3659L11.8347 26.4087C11.558 26.3677 11.3047 26.2305 11.1192 26.0213C10.9338 25.812 10.828 25.544 10.8206 25.2644V13.8957C10.8172 13.7672 10.8423 13.6396 10.894 13.522C10.9456 13.4043 11.0227 13.2995 11.1195 13.215C11.2164 13.1306 11.3308 13.0686 11.4544 13.0335C11.578 12.9983 11.7079 12.991 11.8347 13.0118L34.956 15.971C35.2325 16.0119 35.4857 16.149 35.6712 16.3581C35.8566 16.5672 35.9625 16.8349 35.9701 17.1143V28.4783C35.974 28.6071 35.9494 28.7351 35.898 28.8533C35.8466 28.9714 35.7696 29.0767 35.6727 29.1616C35.5757 29.2464 35.4612 29.3088 35.3373 29.3441C35.2134 29.3794 35.0832 29.3869 34.956 29.3659Z" fill="#5479F7"/>
<path d="M35.084 29.5122C35.0342 29.5123 34.9844 29.5092 34.9349 29.5028L24.0614 28.1397C24.0429 28.1374 24.0249 28.1314 24.0087 28.1221C23.9924 28.1128 23.9781 28.1004 23.9666 28.0856C23.9435 28.0557 23.9331 28.0178 23.9379 27.9803C23.9426 27.9428 23.9621 27.9087 23.992 27.8855C24.0219 27.8623 24.0598 27.852 24.0973 27.8567L34.9708 29.2245C35.0787 29.2413 35.189 29.2345 35.2941 29.2046C35.3991 29.1746 35.4964 29.1222 35.5792 29.0509C35.6584 28.9797 35.7213 28.8923 35.7638 28.7947C35.8062 28.697 35.8273 28.5914 35.8254 28.485V17.1096C35.8183 16.8645 35.7252 16.6298 35.5624 16.4464C35.3996 16.2631 35.1775 16.1429 34.9349 16.1069L11.8136 13.1496C11.7057 13.1327 11.5954 13.1393 11.4904 13.1691C11.3853 13.1989 11.288 13.2512 11.2051 13.3223C11.1256 13.3942 11.0624 13.4824 11.0199 13.5808C10.9775 13.6793 10.9567 13.7857 10.9589 13.893V21.5262C10.9589 21.5637 10.944 21.5997 10.9175 21.6262C10.8909 21.6528 10.855 21.6677 10.8174 21.6677C10.7799 21.6677 10.7439 21.6528 10.7174 21.6262C10.6908 21.5997 10.6759 21.5637 10.6759 21.5262V13.8958C10.6734 13.7483 10.7026 13.6021 10.7617 13.4669C10.8208 13.3318 10.9083 13.211 11.0184 13.1128C11.1313 13.0151 11.2641 12.943 11.4075 12.9013C11.5509 12.8596 11.7017 12.8494 11.8494 12.8714L34.9708 15.8286C35.281 15.8748 35.5651 16.0288 35.7731 16.2636C35.9812 16.4984 36.0999 16.7989 36.1084 17.1125V28.4784C36.1124 28.6146 36.0887 28.7502 36.0388 28.877C35.9889 29.0038 35.9138 29.1192 35.818 29.2162C35.7223 29.3132 35.6079 29.3897 35.4817 29.4413C35.3556 29.4928 35.2203 29.5182 35.084 29.516V29.5122Z" fill="black"/>
<path d="M33.171 18.4934L13.6172 16.0691V23.4505L33.171 25.8757V18.4934Z" fill="#99B9FF"/>
<path d="M71.8007 46.4227C71.778 46.4225 71.7558 46.417 71.7356 46.4067C71.7028 46.3894 71.6782 46.3599 71.6669 46.3247C71.6556 46.2894 71.6586 46.2511 71.6752 46.218C71.7611 46.052 71.846 45.8822 71.9252 45.7152C71.9413 45.6813 71.9703 45.6552 72.0057 45.6427C72.041 45.6301 72.08 45.6321 72.1139 45.6483C72.1478 45.6644 72.1739 45.6933 72.1864 45.7287C72.199 45.7641 72.197 45.803 72.1808 45.8369C72.0997 46.0067 72.0139 46.1793 71.9261 46.3482C71.914 46.3708 71.8959 46.3898 71.8738 46.4029C71.8517 46.416 71.8264 46.4229 71.8007 46.4227Z" fill="black"/>
<path d="M54.5011 56.7378C54.1398 56.7378 53.7757 56.7283 53.4172 56.7104C53.3799 56.7084 53.3448 56.6918 53.3197 56.664C53.2946 56.6363 53.2815 56.5997 53.2833 56.5623C53.2857 56.5251 53.3025 56.4903 53.3302 56.4653C53.3578 56.4403 53.3941 56.427 53.4314 56.4283C53.7842 56.4453 54.1445 56.4548 54.5001 56.4548H54.5388C54.5763 56.4548 54.6123 56.4697 54.6389 56.4962C54.6654 56.5227 54.6803 56.5587 54.6803 56.5963C54.6803 56.6338 54.6654 56.6698 54.6389 56.6963C54.6123 56.7228 54.5763 56.7378 54.5388 56.7378H54.5011ZM55.6529 56.7076C55.6153 56.7086 55.5789 56.6946 55.5517 56.6688C55.5245 56.643 55.5086 56.6074 55.5076 56.5698C55.5066 56.5323 55.5205 56.4959 55.5464 56.4687C55.5722 56.4414 55.6078 56.4256 55.6453 56.4246C56.0132 56.4048 56.3849 56.3765 56.749 56.3378C56.7863 56.3343 56.8235 56.3456 56.8526 56.3693C56.8817 56.3929 56.9003 56.427 56.9046 56.4642C56.9066 56.4827 56.9049 56.5015 56.8996 56.5193C56.8943 56.5372 56.8855 56.5538 56.8738 56.5683C56.862 56.5827 56.8475 56.5947 56.8311 56.6036C56.8147 56.6124 56.7968 56.618 56.7782 56.6198C56.4094 56.6585 56.033 56.6878 55.6604 56.7066L55.6529 56.7076ZM52.3126 56.6283H52.2985C51.9268 56.5915 51.5523 56.5434 51.1854 56.4878C51.1668 56.485 51.1489 56.4786 51.1328 56.4689C51.1167 56.4592 51.1027 56.4464 51.0915 56.4313C51.0804 56.4162 51.0723 56.3991 51.0677 56.3808C51.0632 56.3626 51.0623 56.3436 51.0651 56.3251C51.0679 56.3065 51.0743 56.2886 51.084 56.2725C51.0937 56.2564 51.1064 56.2424 51.1215 56.2312C51.1367 56.22 51.1538 56.212 51.1721 56.2074C51.1903 56.2029 51.2092 56.202 51.2278 56.2048C51.59 56.2604 51.9598 56.3076 52.3268 56.3444C52.3453 56.346 52.3633 56.3514 52.3798 56.3601C52.3962 56.3688 52.4108 56.3807 52.4226 56.3951C52.4343 56.4095 52.4431 56.4262 52.4484 56.444C52.4536 56.4619 52.4553 56.4806 52.4532 56.4991C52.4499 56.5341 52.4337 56.5667 52.4077 56.5904C52.3817 56.6141 52.3478 56.6273 52.3126 56.6274V56.6283ZM57.8687 56.4755C57.8312 56.4784 57.794 56.4662 57.7655 56.4417C57.7369 56.4172 57.7192 56.3824 57.7163 56.3449C57.7135 56.3073 57.7256 56.2702 57.7501 56.2416C57.7746 56.2131 57.8095 56.1954 57.847 56.1925C58.2139 56.135 58.5799 56.0661 58.9346 55.9897C58.9531 55.9849 58.9724 55.9838 58.9913 55.9866C59.0102 55.9894 59.0284 55.996 59.0447 56.006C59.0609 56.016 59.075 56.0292 59.0861 56.0448C59.0971 56.0604 59.1049 56.0781 59.1089 56.0968C59.1129 56.1155 59.1131 56.1348 59.1095 56.1536C59.1058 56.1724 59.0984 56.1902 59.0877 56.206C59.0769 56.2218 59.0631 56.2353 59.047 56.2456C59.0309 56.256 59.0129 56.2629 58.9941 56.2661C58.6337 56.3444 58.263 56.4133 57.8913 56.4717C57.884 56.4739 57.8764 56.4752 57.8687 56.4755ZM50.11 56.2869C50.1003 56.2882 50.0905 56.2882 50.0808 56.2869C49.7129 56.2104 49.3459 56.1218 48.9884 56.0256C48.9694 56.0218 48.9514 56.0141 48.9355 56.0031C48.9196 55.992 48.9061 55.9778 48.8959 55.9614C48.8857 55.9449 48.879 55.9265 48.8762 55.9073C48.8733 55.8882 48.8745 55.8686 48.8795 55.8499C48.8846 55.8312 48.8934 55.8138 48.9055 55.7986C48.9176 55.7835 48.9326 55.771 48.9497 55.7619C48.9668 55.7528 48.9856 55.7473 49.0049 55.7458C49.0242 55.7442 49.0437 55.7467 49.062 55.7529C49.4138 55.8473 49.7761 55.9341 50.1383 56.0105C50.1569 56.0123 50.1749 56.0178 50.1914 56.0266C50.2078 56.0355 50.2224 56.0475 50.2342 56.0619C50.246 56.0764 50.2549 56.093 50.2603 56.1109C50.2657 56.1288 50.2675 56.1475 50.2656 56.1661C50.2638 56.1847 50.2583 56.2027 50.2495 56.2192C50.2406 56.2356 50.2286 56.2502 50.2142 56.262C50.1997 56.2738 50.1831 56.2827 50.1652 56.2881C50.1473 56.2935 50.1286 56.2953 50.11 56.2935V56.2869ZM60.0468 56.0039C60.0129 56.0034 59.9803 55.9908 59.9549 55.9683C59.9295 55.9459 59.913 55.915 59.9084 55.8815C59.9039 55.8479 59.9115 55.8137 59.93 55.7853C59.9484 55.7569 59.9765 55.736 60.0091 55.7265C60.2487 55.6596 60.4882 55.5879 60.7212 55.5124C60.8373 55.4747 60.9514 55.436 61.0646 55.3973C61.0821 55.3911 61.1007 55.3884 61.1193 55.3894C61.1378 55.3904 61.156 55.395 61.1728 55.4031C61.1896 55.4111 61.2046 55.4223 61.217 55.4361C61.2295 55.45 61.2391 55.4661 61.2453 55.4836C61.2514 55.5012 61.2541 55.5197 61.2531 55.5383C61.2522 55.5569 61.2475 55.575 61.2395 55.5918C61.2315 55.6086 61.2203 55.6236 61.2064 55.6361C61.1926 55.6485 61.1765 55.6581 61.1589 55.6643C61.0439 55.7039 60.9278 55.7435 60.8109 55.7812C60.5741 55.8576 60.3298 55.9312 60.0864 55.9991C60.0736 56.0031 60.0602 56.005 60.0468 56.0048V56.0039ZM47.9574 55.7067C47.9423 55.7069 47.9272 55.7043 47.913 55.6992C47.5555 55.5794 47.2008 55.4483 46.8584 55.3096C46.8412 55.3025 46.8255 55.2921 46.8123 55.279C46.7991 55.2659 46.7886 55.2503 46.7815 55.2332C46.7743 55.216 46.7705 55.1976 46.7705 55.179C46.7704 55.1604 46.774 55.1419 46.7811 55.1247C46.7881 55.1075 46.7985 55.0918 46.8116 55.0786C46.8247 55.0654 46.8403 55.0549 46.8575 55.0477C46.8747 55.0405 46.8931 55.0368 46.9117 55.0368C46.9303 55.0367 46.9487 55.0403 46.966 55.0473C47.3018 55.1841 47.6508 55.3134 48.0036 55.4313C48.0353 55.4421 48.0622 55.4638 48.0794 55.4925C48.0966 55.5212 48.1031 55.5551 48.0976 55.5882C48.0922 55.6212 48.0752 55.6513 48.0497 55.673C48.0242 55.6947 47.9918 55.7066 47.9583 55.7067H47.9574ZM62.1541 55.2785C62.1216 55.2783 62.0901 55.2669 62.0649 55.2462C62.0398 55.2255 62.0226 55.1968 62.0162 55.1649C62.0097 55.133 62.0145 55.0998 62.0297 55.071C62.0448 55.0422 62.0695 55.0195 62.0994 55.0068C62.44 54.8672 62.7805 54.7162 63.1116 54.5578C63.1284 54.5498 63.1466 54.5452 63.1651 54.5442C63.1837 54.5433 63.2023 54.546 63.2198 54.5522C63.2373 54.5584 63.2534 54.568 63.2672 54.5805C63.281 54.5929 63.2923 54.608 63.3003 54.6247C63.3082 54.6415 63.3128 54.6597 63.3138 54.6783C63.3148 54.6969 63.3121 54.7154 63.3058 54.7329C63.2996 54.7505 63.29 54.7666 63.2776 54.7804C63.2651 54.7942 63.2501 54.8054 63.2333 54.8134C62.8974 54.9738 62.5522 55.1266 62.207 55.2681C62.1903 55.2755 62.1723 55.2793 62.1541 55.2794V55.2785ZM45.8944 54.8653C45.8727 54.8653 45.8513 54.8601 45.8321 54.8502C45.4925 54.6851 45.1586 54.5068 44.8397 54.321C44.8236 54.3117 44.8095 54.2993 44.7982 54.2846C44.7869 54.2698 44.7786 54.253 44.7737 54.2351C44.7689 54.2171 44.7677 54.1984 44.7701 54.1799C44.7725 54.1615 44.7786 54.1437 44.7879 54.1276C44.7972 54.1115 44.8095 54.0974 44.8243 54.0861C44.839 54.0748 44.8558 54.0664 44.8738 54.0616C44.8918 54.0568 44.9105 54.0556 44.9289 54.058C44.9474 54.0604 44.9651 54.0665 44.9812 54.0757C45.2954 54.2587 45.6236 54.4333 45.9566 54.5964C45.9855 54.6104 46.0087 54.6338 46.0226 54.6627C46.0364 54.6917 46.04 54.7245 46.0328 54.7557C46.0256 54.787 46.0079 54.8148 45.9828 54.8347C45.9576 54.8546 45.9264 54.8654 45.8944 54.8653ZM64.1643 54.3191C64.1328 54.3193 64.1021 54.3089 64.0771 54.2896C64.0521 54.2703 64.0343 54.2432 64.0265 54.2126C64.0187 54.1821 64.0213 54.1497 64.034 54.1208C64.0467 54.0919 64.0686 54.0681 64.0964 54.0531C64.4199 53.8758 64.7416 53.6871 65.052 53.4937C65.0837 53.4759 65.121 53.471 65.1562 53.48C65.1915 53.489 65.2219 53.5112 65.2412 53.542C65.2605 53.5728 65.2672 53.6099 65.2599 53.6455C65.2526 53.6811 65.2318 53.7126 65.2019 53.7333C64.8869 53.9305 64.5605 54.121 64.2332 54.2993C64.2125 54.3122 64.1887 54.3193 64.1643 54.3201V54.3191ZM43.9691 53.7428C43.9405 53.7429 43.9125 53.7344 43.8889 53.7182C43.5776 53.5032 43.2757 53.2758 42.989 53.0409C42.9746 53.0291 42.9627 53.0146 42.954 52.9981C42.9452 52.9817 42.9398 52.9637 42.938 52.9452C42.9362 52.9267 42.9381 52.908 42.9435 52.8902C42.9489 52.8724 42.9578 52.8558 42.9696 52.8414C42.9815 52.8271 42.996 52.8152 43.0124 52.8064C43.0289 52.7977 43.0469 52.7922 43.0654 52.7904C43.0839 52.7886 43.1026 52.7905 43.1204 52.7959C43.1382 52.8014 43.1548 52.8103 43.1691 52.8221C43.4521 53.0513 43.7455 53.2749 44.0502 53.4824C44.0749 53.4996 44.0935 53.5243 44.1032 53.5528C44.1129 53.5813 44.1132 53.6122 44.1042 53.6409C44.0951 53.6697 44.0771 53.6948 44.0528 53.7126C44.0285 53.7304 43.9992 53.74 43.9691 53.7399V53.7428ZM66.0547 53.1371C66.0248 53.1369 65.9958 53.1272 65.9718 53.1095C65.9478 53.0917 65.93 53.0668 65.921 53.0383C65.912 53.0098 65.9122 52.9792 65.9217 52.9509C65.9311 52.9226 65.9493 52.898 65.9736 52.8806C66.2783 52.6646 66.5754 52.4401 66.8556 52.2137C66.8701 52.202 66.8867 52.1932 66.9046 52.1879C66.9225 52.1827 66.9412 52.181 66.9597 52.1829C66.9782 52.1849 66.9962 52.1905 67.0126 52.1994C67.0289 52.2083 67.0434 52.2204 67.0551 52.2349C67.0668 52.2494 67.0755 52.266 67.0808 52.2839C67.0861 52.3018 67.0878 52.3205 67.0858 52.339C67.0838 52.3576 67.0782 52.3755 67.0693 52.3919C67.0604 52.4082 67.0483 52.4227 67.0339 52.4344C66.7509 52.6636 66.4471 52.8919 66.1368 53.1117C66.1126 53.1283 66.084 53.1371 66.0547 53.1371ZM42.2494 52.3297C42.214 52.3286 42.1802 52.3141 42.1551 52.2891C41.9947 52.1325 41.8363 51.9693 41.6834 51.8043C41.5806 51.692 41.4797 51.5788 41.3844 51.4656C41.3709 51.4517 41.3605 51.4352 41.3536 51.4171C41.3468 51.399 41.3437 51.3797 41.3447 51.3603C41.3456 51.341 41.3505 51.3221 41.359 51.3047C41.3675 51.2873 41.3796 51.2719 41.3943 51.2593C41.409 51.2468 41.4262 51.2374 41.4447 51.2318C41.4632 51.2261 41.4827 51.2243 41.5019 51.2265C41.5212 51.2287 41.5397 51.2348 41.5565 51.2444C41.5733 51.2541 41.5879 51.2671 41.5995 51.2826C41.6938 51.392 41.7881 51.5033 41.8919 51.6128C42.0391 51.7741 42.1938 51.9335 42.3513 52.0844C42.3778 52.111 42.3927 52.1469 42.3927 52.1844C42.3927 52.2219 42.3778 52.2579 42.3513 52.2844C42.3384 52.2987 42.3227 52.3102 42.3052 52.3182C42.2877 52.3261 42.2687 52.3304 42.2494 52.3306V52.3297ZM67.7876 51.7354C67.7593 51.735 67.7318 51.7262 67.7085 51.71C67.6853 51.6939 67.6675 51.6711 67.6574 51.6447C67.6472 51.6183 67.6452 51.5895 67.6516 51.5619C67.658 51.5344 67.6725 51.5094 67.6932 51.4901C67.9526 51.2486 68.2158 50.9864 68.4762 50.71C68.4888 50.6961 68.5041 50.6848 68.5212 50.6768C68.5382 50.6688 68.5567 50.6644 68.5755 50.6636C68.5944 50.6629 68.6131 50.6659 68.6308 50.6726C68.6484 50.6792 68.6645 50.6892 68.6782 50.7022C68.6919 50.7151 68.7029 50.7306 68.7105 50.7479C68.7181 50.7651 68.7222 50.7837 68.7225 50.8025C68.7228 50.8213 68.7194 50.84 68.7124 50.8575C68.7054 50.875 68.695 50.8909 68.6818 50.9043C68.4177 51.1873 68.1498 51.4515 67.8857 51.6977C67.8593 51.7229 67.8241 51.7368 67.7876 51.7363V51.7354ZM40.809 50.6336C40.786 50.6335 40.7634 50.6279 40.743 50.6172C40.7227 50.6066 40.7052 50.5911 40.692 50.5723C40.4798 50.2657 40.2798 49.9431 40.0977 49.6148C40.0804 49.5821 40.0766 49.544 40.0871 49.5085C40.0976 49.473 40.1216 49.443 40.1539 49.425C40.1862 49.407 40.2243 49.4023 40.26 49.4121C40.2957 49.4218 40.3262 49.4452 40.3449 49.4771C40.5232 49.7978 40.7222 50.112 40.925 50.411C40.9395 50.4323 40.948 50.4571 40.9495 50.4828C40.951 50.5085 40.9455 50.5342 40.9336 50.557C40.9217 50.5799 40.9038 50.599 40.8819 50.6125C40.8599 50.626 40.8347 50.6333 40.809 50.6336ZM69.3186 50.1186C69.2918 50.1181 69.2656 50.1101 69.2432 50.0955C69.2207 50.0808 69.2028 50.0602 69.1916 50.0358C69.1804 50.0115 69.1762 49.9845 69.1797 49.9579C69.1831 49.9313 69.194 49.9063 69.211 49.8856C69.4468 49.6026 69.6827 49.3139 69.9006 49.0196C69.9232 48.9896 69.9568 48.9698 69.9941 48.9646C70.0313 48.9594 70.0691 48.9691 70.0991 48.9918C70.1292 49.0144 70.1489 49.0481 70.1542 49.0853C70.1594 49.1225 70.1496 49.1603 70.1269 49.1904C69.9015 49.4884 69.6666 49.7837 69.427 50.0676C69.4139 50.0836 69.3973 50.0965 69.3785 50.1053C69.3598 50.1141 69.3393 50.1187 69.3186 50.1186ZM39.7299 48.6913C39.7024 48.6914 39.6755 48.6835 39.6524 48.6686C39.6293 48.6537 39.611 48.6325 39.5997 48.6074C39.4572 48.2838 39.3223 47.9424 39.1846 47.5632C39.1721 47.5278 39.1742 47.4888 39.1904 47.455C39.2066 47.4211 39.2355 47.395 39.2709 47.3825C39.3063 47.37 39.3453 47.3721 39.3791 47.3883C39.413 47.4044 39.4391 47.4334 39.4516 47.4688C39.5855 47.8461 39.7195 48.1782 39.8591 48.4951C39.8669 48.5123 39.8712 48.5308 39.8718 48.5496C39.8724 48.5684 39.8692 48.5872 39.8624 48.6047C39.8556 48.6223 39.8454 48.6383 39.8324 48.6519C39.8193 48.6655 39.8037 48.6763 39.7864 48.6838C39.7683 48.69 39.749 48.6922 39.7299 48.6904V48.6913ZM70.6609 48.3395C70.6326 48.3392 70.6051 48.3307 70.5816 48.315C70.5506 48.2939 70.5293 48.2614 70.5222 48.2247C70.5151 48.1879 70.5229 48.1498 70.5439 48.1188C70.7505 47.8112 70.9495 47.4971 71.1363 47.1839C71.1558 47.1524 71.1869 47.1297 71.2229 47.1208C71.2589 47.112 71.297 47.1176 71.3289 47.1365C71.3608 47.1554 71.384 47.1861 71.3935 47.222C71.403 47.2579 71.398 47.296 71.3797 47.3283C71.191 47.6462 70.9882 47.965 70.7788 48.2772C70.7656 48.2963 70.748 48.3118 70.7274 48.3225C70.7069 48.3332 70.684 48.3387 70.6609 48.3386V48.3395ZM38.9601 46.6C38.9307 46.6001 38.9019 46.591 38.8778 46.5742C38.8536 46.5573 38.8353 46.5334 38.8252 46.5057L38.7696 46.3312C38.6752 46.0246 38.5809 45.735 38.4781 45.4501C38.4719 45.4326 38.4692 45.414 38.4702 45.3955C38.4712 45.3769 38.4758 45.3587 38.4838 45.3419C38.4918 45.3252 38.5031 45.3101 38.5169 45.2977C38.5307 45.2853 38.5469 45.2757 38.5644 45.2695C38.5819 45.2633 38.6005 45.2606 38.6191 45.2616C38.6376 45.2626 38.6558 45.2672 38.6726 45.2752C38.6894 45.2833 38.7044 45.2945 38.7168 45.3083C38.7293 45.3222 38.7388 45.3383 38.745 45.3558C38.845 45.6388 38.9394 45.935 39.0384 46.2435L39.095 46.417C39.1007 46.4349 39.1027 46.4538 39.101 46.4725C39.0993 46.4912 39.094 46.5093 39.0852 46.5259C39.0764 46.5425 39.0644 46.5572 39.0499 46.5691C39.0354 46.581 39.0187 46.5899 39.0007 46.5953C38.9875 46.5989 38.9738 46.6005 38.9601 46.6ZM38.2055 44.505C38.1783 44.505 38.1518 44.4973 38.1289 44.4828C38.106 44.4682 38.0877 44.4474 38.0762 44.4229C37.9278 44.0926 37.7491 43.7768 37.5423 43.4796C37.5311 43.4644 37.523 43.4472 37.5186 43.4289C37.5141 43.4106 37.5133 43.3915 37.5163 43.3729C37.5193 43.3543 37.526 43.3365 37.536 43.3205C37.5459 43.3045 37.559 43.2907 37.5744 43.2798C37.5898 43.2689 37.6072 43.2612 37.6256 43.2572C37.6441 43.2531 37.6631 43.2528 37.6816 43.2562C37.7002 43.2596 37.7178 43.2667 37.7336 43.277C37.7494 43.2874 37.7629 43.3007 37.7734 43.3164C37.9905 43.6281 38.1781 43.9594 38.3338 44.3059C38.3438 44.3274 38.3482 44.3511 38.3466 44.3747C38.345 44.3984 38.3375 44.4213 38.3247 44.4412C38.3119 44.4612 38.2942 44.4776 38.2734 44.4889C38.2525 44.5002 38.2292 44.5061 38.2055 44.5059V44.505ZM36.9169 42.7127C36.8823 42.7129 36.8487 42.7005 36.8226 42.6778C36.5502 42.4414 36.2522 42.2363 35.934 42.0665C35.9036 42.0473 35.8817 42.0173 35.8726 41.9825C35.8635 41.9478 35.8681 41.9108 35.8852 41.8793C35.9024 41.8477 35.9309 41.8239 35.965 41.8126C35.9991 41.8012 36.0363 41.8033 36.0689 41.8184C36.4063 41.9981 36.7227 42.2148 37.0122 42.4646C37.034 42.4836 37.0494 42.5088 37.0564 42.5369C37.0634 42.5649 37.0617 42.5944 37.0514 42.6215C37.0411 42.6485 37.0228 42.6717 36.9989 42.688C36.9751 42.7043 36.9468 42.7129 36.9179 42.7127H36.9169ZM28.3489 41.8467H28.3357C27.9545 41.8136 27.5782 41.7377 27.2141 41.6203C27.1804 41.6072 27.1531 41.5818 27.1376 41.5492C27.1221 41.5166 27.1196 41.4793 27.1307 41.445C27.1418 41.4106 27.1656 41.3818 27.1972 41.3645C27.2288 41.3471 27.2659 41.3424 27.3008 41.3515C27.6451 41.4625 28.0008 41.534 28.3611 41.5647C28.3797 41.5655 28.3979 41.5699 28.4148 41.5778C28.4317 41.5856 28.4468 41.5967 28.4594 41.6104C28.472 41.6242 28.4817 41.6402 28.4881 41.6577C28.4944 41.6752 28.4973 41.6937 28.4965 41.7123C28.4957 41.7309 28.4912 41.7491 28.4834 41.766C28.4755 41.7828 28.4644 41.798 28.4507 41.8106C28.437 41.8231 28.421 41.8329 28.4035 41.8392C28.386 41.8456 28.3674 41.8485 28.3489 41.8477V41.8467ZM29.461 41.8467C29.4235 41.8481 29.387 41.8345 29.3594 41.8089C29.3319 41.7834 29.3157 41.7479 29.3143 41.7104C29.313 41.6729 29.3266 41.6363 29.3521 41.6088C29.3777 41.5813 29.4131 41.5651 29.4506 41.5637C29.8421 41.5326 30.2232 41.476 30.5449 41.4251C30.5635 41.4221 30.5824 41.4229 30.6007 41.4273C30.619 41.4318 30.6362 41.4397 30.6514 41.4508C30.6666 41.4619 30.6795 41.4759 30.6893 41.4919C30.6991 41.508 30.7056 41.5258 30.7085 41.5444C30.7115 41.563 30.7107 41.5819 30.7063 41.6002C30.7018 41.6185 30.6939 41.6357 30.6828 41.6509C30.6717 41.6661 30.6577 41.679 30.6417 41.6888C30.6256 41.6986 30.6078 41.7051 30.5892 41.7081C30.2628 41.7599 29.8742 41.8175 29.4723 41.8495L29.461 41.8467ZM34.9784 41.6515C34.964 41.6511 34.9498 41.6489 34.936 41.6448C34.5903 41.536 34.2344 41.4627 33.8738 41.426C33.8553 41.4241 33.8373 41.4186 33.8209 41.4097C33.8045 41.4009 33.79 41.3889 33.7783 41.3744C33.7665 41.36 33.7578 41.3433 33.7525 41.3255C33.7472 41.3076 33.7454 41.2889 33.7474 41.2704C33.7517 41.2331 33.7704 41.199 33.7995 41.1754C33.8286 41.1518 33.8657 41.1405 33.903 41.144C34.2824 41.1829 34.6569 41.2601 35.0209 41.3741C35.0526 41.3849 35.0795 41.4064 35.0969 41.435C35.1143 41.4637 35.1211 41.4975 35.116 41.5306C35.111 41.5637 35.0944 41.594 35.0692 41.6161C35.044 41.6382 35.0119 41.6507 34.9784 41.6515ZM31.6674 41.5279C31.6299 41.5306 31.5928 41.5184 31.5643 41.4938C31.5358 41.4692 31.5183 41.4343 31.5155 41.3968C31.5128 41.3592 31.5251 41.3222 31.5496 41.2937C31.5742 41.2652 31.6091 41.2476 31.6467 41.2449C32.0806 41.1798 32.4362 41.1402 32.7664 41.1213C32.785 41.12 32.8037 41.1225 32.8213 41.1285C32.839 41.1345 32.8553 41.144 32.8692 41.1564C32.8832 41.1688 32.8946 41.1838 32.9026 41.2006C32.9107 41.2174 32.9154 41.2357 32.9164 41.2543C32.9184 41.2917 32.9056 41.3284 32.8806 41.3563C32.8557 41.3843 32.8207 41.4012 32.7833 41.4034C32.4617 41.4222 32.1136 41.4609 31.6882 41.5251L31.6674 41.5279ZM26.2443 41.1713C26.219 41.1717 26.1942 41.1648 26.1726 41.1515C25.8442 40.9578 25.5364 40.7312 25.2539 40.4752C25.2382 40.4634 25.2251 40.4484 25.2155 40.4313C25.2058 40.4142 25.1999 40.3952 25.198 40.3757C25.1961 40.3561 25.1983 40.3364 25.2044 40.3177C25.2106 40.2991 25.2206 40.2819 25.2337 40.2673C25.2469 40.2527 25.2629 40.241 25.2808 40.2329C25.2987 40.2249 25.3181 40.2206 25.3378 40.2205C25.3574 40.2204 25.3769 40.2243 25.3949 40.2321C25.4129 40.2399 25.4292 40.2513 25.4425 40.2657C25.7109 40.5088 26.0032 40.7241 26.3151 40.9081C26.3417 40.9239 26.3624 40.948 26.374 40.9767C26.3857 41.0054 26.3875 41.0371 26.3794 41.067C26.3713 41.0969 26.3536 41.1233 26.329 41.1421C26.3044 41.1609 26.2744 41.1712 26.2434 41.1713H26.2443ZM24.5936 39.695C24.5719 39.695 24.5506 39.6901 24.5311 39.6806C24.5117 39.6712 24.4946 39.6574 24.4813 39.6403C24.2493 39.3411 24.0387 39.0259 23.8512 38.697C23.8403 38.6809 23.8329 38.6628 23.8294 38.6437C23.8258 38.6247 23.8263 38.6051 23.8306 38.5862C23.835 38.5673 23.8431 38.5495 23.8547 38.5339C23.8662 38.5183 23.8808 38.5052 23.8976 38.4955C23.9144 38.4857 23.933 38.4796 23.9522 38.4774C23.9715 38.4751 23.991 38.4769 24.0096 38.4825C24.0281 38.4881 24.0453 38.4975 24.0601 38.5101C24.0749 38.5227 24.0869 38.5381 24.0955 38.5555C24.2771 38.8722 24.4808 39.1757 24.7049 39.4639C24.7278 39.4935 24.7381 39.5309 24.7335 39.568C24.7289 39.6052 24.7098 39.6389 24.6803 39.662C24.6557 39.6825 24.6247 39.6939 24.5926 39.6941L24.5936 39.695ZM23.471 37.7763C23.4437 37.7763 23.4169 37.7684 23.394 37.7535C23.371 37.7386 23.3529 37.7174 23.3418 37.6924C23.1965 37.3641 23.0588 37.0113 22.9333 36.6434C22.9208 36.6079 22.9229 36.5689 22.9392 36.5349C22.9555 36.5009 22.9846 36.4748 23.0201 36.4623C23.0556 36.4498 23.0947 36.4519 23.1287 36.4682C23.1626 36.4845 23.1887 36.5136 23.2012 36.5491C23.3248 36.9095 23.4588 37.2547 23.6012 37.5764C23.6089 37.5935 23.6131 37.612 23.6136 37.6308C23.6141 37.6496 23.6109 37.6683 23.6042 37.6858C23.5974 37.7034 23.5872 37.7194 23.5743 37.733C23.5613 37.7466 23.5458 37.7575 23.5286 37.765C23.5099 37.7723 23.4901 37.7758 23.4701 37.7754L23.471 37.7763ZM22.7428 35.6728C22.7116 35.6728 22.6814 35.6626 22.6566 35.6436C22.6319 35.6247 22.6141 35.5981 22.606 35.5681C22.5117 35.22 22.4249 34.853 22.3457 34.4767C22.338 34.4399 22.3453 34.4016 22.3659 34.3702C22.3865 34.3388 22.4188 34.3169 22.4556 34.3092C22.4923 34.3016 22.5306 34.3089 22.562 34.3295C22.5934 34.3501 22.6154 34.3823 22.623 34.4191C22.7013 34.7898 22.7871 35.1521 22.8796 35.4945C22.8844 35.5125 22.8857 35.5312 22.8833 35.5496C22.8809 35.5681 22.8749 35.5859 22.8656 35.602C22.8563 35.6181 22.8439 35.6323 22.8291 35.6436C22.8144 35.6549 22.7975 35.6632 22.7796 35.6681C22.7673 35.6713 22.7545 35.6725 22.7418 35.6718L22.7428 35.6728ZM22.2806 33.4937C22.2471 33.494 22.2146 33.4822 22.189 33.4606C22.1634 33.4389 22.1464 33.4089 22.141 33.3758C22.0825 33.0183 22.0287 32.6457 21.9815 32.2674C21.9769 32.2299 21.9874 32.1921 22.0106 32.1623C22.0339 32.1325 22.0681 32.1131 22.1056 32.1085C22.1431 32.1039 22.1809 32.1143 22.2107 32.1376C22.2406 32.1609 22.2599 32.195 22.2645 32.2325C22.3117 32.6099 22.3645 32.9768 22.4221 33.3296C22.4281 33.3666 22.4191 33.4045 22.3972 33.4349C22.3752 33.4654 22.3421 33.4858 22.3051 33.4919C22.2967 33.4933 22.2881 33.4936 22.2796 33.4928L22.2806 33.4937Z" fill="black"/>
<path d="M22.0015 31.2581C21.9662 31.2583 21.9321 31.2452 21.9059 31.2215C21.8797 31.1977 21.8633 31.1651 21.86 31.1299C21.8431 30.9412 21.828 30.7525 21.8129 30.5639C21.8101 30.5263 21.8224 30.4893 21.847 30.4608C21.8716 30.4323 21.9065 30.4148 21.944 30.412C21.9815 30.4092 22.0186 30.4215 22.0471 30.4461C22.0756 30.4707 22.0931 30.5056 22.0959 30.5431C22.11 30.7318 22.1251 30.9204 22.1421 31.1091C22.1438 31.1276 22.1418 31.1463 22.1363 31.1641C22.1307 31.1818 22.1217 31.1983 22.1098 31.2126C22.0979 31.2269 22.0833 31.2387 22.0668 31.2473C22.0503 31.2559 22.0323 31.2612 22.0138 31.2629L22.0015 31.2581Z" fill="black"/>
<path d="M58.2733 21.3779C58.2357 21.3787 58.1994 21.3645 58.1724 21.3385C58.1453 21.3125 58.1297 21.2768 58.1289 21.2393C58.1282 21.2017 58.1424 21.1655 58.1684 21.1384C58.1944 21.1113 58.2301 21.0957 58.2676 21.0949C58.4563 21.0874 58.6449 21.0817 58.8336 21.0789C58.8522 21.0784 58.8706 21.0816 58.888 21.0883C58.9053 21.0951 58.9211 21.1052 58.9344 21.1181C58.9478 21.131 58.9584 21.1465 58.9657 21.1636C58.973 21.1806 58.9768 21.199 58.977 21.2176C58.9773 21.2362 58.9741 21.2546 58.9673 21.2719C58.9605 21.2893 58.9504 21.3051 58.9375 21.3185C58.9247 21.3319 58.9093 21.3426 58.8922 21.3501C58.8752 21.3575 58.8569 21.3615 58.8383 21.3619C58.6496 21.3619 58.461 21.3704 58.2723 21.3779H58.2733Z" fill="black"/>
<path d="M73.5612 30.0761C73.5319 30.0762 73.5032 30.0672 73.4792 30.0503C73.4552 30.0334 73.437 30.0095 73.4272 29.9818C73.3056 29.6177 73.1688 29.2602 73.0207 28.9196C73.0058 28.8851 73.0052 28.8461 73.0191 28.8111C73.033 28.7762 73.0602 28.7482 73.0947 28.7333C73.1293 28.7184 73.1683 28.7179 73.2032 28.7318C73.2382 28.7457 73.2662 28.7728 73.281 28.8074C73.432 29.1545 73.5706 29.5196 73.6952 29.8912C73.7011 29.9089 73.7034 29.9275 73.7021 29.9461C73.7008 29.9647 73.6959 29.9828 73.6875 29.9994C73.6792 30.0161 73.6677 30.0309 73.6536 30.0431C73.6395 30.0553 73.6232 30.0646 73.6055 30.0705C73.5913 30.0751 73.5762 30.0771 73.5612 30.0761ZM72.6443 27.9716C72.6191 27.9716 72.5944 27.9649 72.5726 27.9521C72.5509 27.9393 72.533 27.921 72.5207 27.899C72.3736 27.6311 72.2142 27.3698 72.0491 27.1198C72.0085 27.0575 71.9661 26.9962 71.9236 26.9311C71.9022 26.9002 71.894 26.8621 71.9007 26.8251C71.9074 26.7882 71.9286 26.7554 71.9595 26.734C71.9904 26.7126 72.0285 26.7044 72.0655 26.7111C72.1024 26.7178 72.1352 26.7389 72.1566 26.7698C72.2 26.8321 72.2425 26.8953 72.2849 26.9585C72.4557 27.2141 72.6179 27.483 72.7698 27.7575C72.7865 27.79 72.7901 27.8278 72.7797 27.863C72.7694 27.8981 72.7459 27.9279 72.7141 27.9461C72.6934 27.9604 72.6694 27.9691 72.6443 27.9716ZM71.3369 26.085C71.3165 26.0851 71.2963 26.0808 71.2777 26.0723C71.2592 26.0638 71.2426 26.0514 71.2294 26.0359C70.9826 25.7492 70.7213 25.4752 70.4464 25.2153C70.4191 25.1894 70.4033 25.1537 70.4023 25.1161C70.4013 25.0785 70.4153 25.0421 70.4412 25.0148C70.4671 24.9875 70.5028 24.9717 70.5404 24.9707C70.578 24.9697 70.6144 24.9837 70.6417 25.0096C70.9247 25.2775 71.1935 25.5605 71.4435 25.8511C71.468 25.8795 71.4802 25.9165 71.4776 25.954C71.4749 25.9914 71.4576 26.0263 71.4293 26.051C71.4038 26.0738 71.3711 26.0868 71.3369 26.0878V26.085ZM69.6729 24.5068C69.6415 24.5065 69.611 24.4959 69.5861 24.4767C69.2918 24.2484 68.9796 24.0276 68.6579 23.822C68.6412 23.8125 68.6266 23.7997 68.6151 23.7843C68.6035 23.769 68.5952 23.7515 68.5906 23.7328C68.586 23.7141 68.5853 23.6947 68.5884 23.6758C68.5916 23.6568 68.5986 23.6387 68.609 23.6226C68.6194 23.6064 68.6329 23.5925 68.6489 23.5818C68.6648 23.5711 68.6827 23.5637 68.7016 23.5601C68.7205 23.5565 68.7399 23.5568 68.7587 23.561C68.7774 23.5651 68.7951 23.5731 68.8107 23.5843C69.139 23.7937 69.4588 24.0191 69.7597 24.2531C69.7832 24.2711 69.8004 24.2961 69.809 24.3244C69.8176 24.3528 69.817 24.3831 69.8074 24.4111C69.7978 24.4392 69.7797 24.4635 69.7556 24.4806C69.7314 24.4978 69.7025 24.507 69.6729 24.5068ZM67.7401 23.2683C67.7174 23.2685 67.695 23.2629 67.675 23.2522C67.3439 23.0787 66.9986 22.9155 66.6468 22.7646C66.6137 22.749 66.5879 22.7212 66.5748 22.687C66.5618 22.6529 66.5624 22.615 66.5767 22.5813C66.591 22.5476 66.6178 22.5208 66.6514 22.5064C66.685 22.492 66.7229 22.4912 66.7571 22.5042C67.1165 22.658 67.4693 22.8249 67.8061 23.0023C67.8337 23.0172 67.8556 23.0409 67.8683 23.0696C67.881 23.0983 67.8838 23.1304 67.8762 23.1609C67.8687 23.1913 67.8512 23.2184 67.8265 23.2379C67.8019 23.2573 67.7715 23.268 67.7401 23.2683ZM65.6289 22.3646C65.6132 22.3644 65.5977 22.3619 65.5827 22.357C65.2299 22.2354 64.863 22.1231 64.4932 22.0231C64.4742 22.0193 64.4562 22.0117 64.4403 22.0006C64.4244 21.9896 64.4109 21.9754 64.4007 21.9589C64.3905 21.9425 64.3838 21.9241 64.3809 21.9049C64.3781 21.8857 64.3793 21.8662 64.3843 21.8475C64.3894 21.8288 64.3982 21.8113 64.4103 21.7962C64.4224 21.781 64.4374 21.7685 64.4545 21.7594C64.4716 21.7503 64.4904 21.7448 64.5097 21.7433C64.529 21.7418 64.5484 21.7442 64.5668 21.7505C64.9441 21.8514 65.3158 21.9656 65.6752 22.0891C65.7069 22.1 65.7339 22.1217 65.7511 22.1506C65.7683 22.1794 65.7747 22.2134 65.7691 22.2465C65.7636 22.2796 65.7464 22.3097 65.7207 22.3313C65.6951 22.3529 65.6625 22.3647 65.6289 22.3646ZM63.4112 21.7646H63.3829C63.015 21.6901 62.6368 21.6241 62.2585 21.5703C62.2214 21.5647 62.188 21.5448 62.1654 21.5148C62.1428 21.4848 62.1329 21.4472 62.1378 21.41C62.1403 21.3915 62.1465 21.3738 62.1559 21.3577C62.1654 21.3417 62.178 21.3277 62.1929 21.3165C62.2078 21.3054 62.2248 21.2973 62.2429 21.2928C62.2609 21.2883 62.2797 21.2874 62.2981 21.2902C62.6821 21.3449 63.066 21.4119 63.4395 21.4873C63.4771 21.4911 63.5116 21.5096 63.5354 21.5388C63.5593 21.568 63.5706 21.6054 63.5669 21.643C63.5631 21.6805 63.5446 21.715 63.5154 21.7389C63.4862 21.7628 63.4487 21.7741 63.4112 21.7703V21.7646ZM61.1369 21.442H61.1275C60.7502 21.409 60.3728 21.3864 59.988 21.3732C59.9504 21.3718 59.915 21.3556 59.8894 21.3281C59.8639 21.3006 59.8503 21.264 59.8517 21.2265C59.853 21.189 59.8693 21.1535 59.8968 21.128C59.9243 21.1024 59.9608 21.0888 59.9983 21.0902C60.3832 21.1034 60.7719 21.127 61.152 21.16C61.1895 21.1615 61.2249 21.1778 61.2504 21.2054C61.2759 21.233 61.2893 21.2696 61.2878 21.3071C61.2863 21.3447 61.27 21.3801 61.2424 21.4055C61.2148 21.431 61.1782 21.4445 61.1407 21.443L61.1369 21.442Z" fill="black"/>
<path d="M74.007 31.7344C73.9744 31.7343 73.9429 31.7229 73.9177 31.7023C73.8925 31.6817 73.875 31.6531 73.8684 31.6212C73.8306 31.4392 73.7882 31.2552 73.7438 31.0751C73.7385 31.0568 73.737 31.0376 73.7393 31.0187C73.7416 30.9998 73.7477 30.9815 73.7572 30.9651C73.7667 30.9486 73.7795 30.9342 73.7947 30.9227C73.8099 30.9113 73.8273 30.903 73.8458 30.8984C73.8643 30.8939 73.8835 30.8931 73.9023 30.8961C73.9211 30.8991 73.9391 30.9059 73.9552 30.9161C73.9713 30.9262 73.9852 30.9395 73.9961 30.9552C74.0069 30.9708 74.0145 30.9885 74.0183 31.0071C74.0636 31.1901 74.1061 31.3779 74.1457 31.5637C74.1496 31.5819 74.1498 31.6007 74.1464 31.619C74.143 31.6373 74.136 31.6548 74.1258 31.6704C74.1157 31.686 74.1025 31.6994 74.0871 31.7099C74.0718 31.7204 74.0545 31.7278 74.0363 31.7316L74.007 31.7344Z" fill="black"/>
<path d="M74.3759 62.1166C74.3383 62.1166 74.3024 62.1017 74.2758 62.0751C74.2493 62.0486 74.2344 62.0126 74.2344 61.9751V61.2431C74.2344 61.2055 74.2493 61.1695 74.2758 61.143C74.3024 61.1165 74.3383 61.1016 74.3759 61.1016C74.4134 61.1016 74.4494 61.1165 74.4759 61.143C74.5025 61.1695 74.5174 61.2055 74.5174 61.2431V61.9751C74.5174 62.0126 74.5025 62.0486 74.4759 62.0751C74.4494 62.1017 74.4134 62.1166 74.3759 62.1166Z" fill="black"/>
<path d="M74.3759 63.8212C74.3383 63.8212 74.3024 63.8062 74.2758 63.7797C74.2493 63.7532 74.2344 63.7172 74.2344 63.6797V62.9476C74.2344 62.9101 74.2493 62.8741 74.2758 62.8476C74.3024 62.8211 74.3383 62.8062 74.3759 62.8062C74.4134 62.8062 74.4494 62.8211 74.4759 62.8476C74.5025 62.8741 74.5174 62.9101 74.5174 62.9476V63.6797C74.5174 63.7172 74.5025 63.7532 74.4759 63.7797C74.4494 63.8062 74.4134 63.8212 74.3759 63.8212Z" fill="black"/>
<path d="M73.8882 62.6023H73.1571C73.1196 62.6023 73.0836 62.5874 73.0571 62.5609C73.0305 62.5343 73.0156 62.4984 73.0156 62.4608C73.0156 62.4233 73.0305 62.3873 73.0571 62.3608C73.0836 62.3342 73.1196 62.3193 73.1571 62.3193H73.8882C73.9257 62.3193 73.9617 62.3342 73.9882 62.3608C74.0148 62.3873 74.0297 62.4233 74.0297 62.4608C74.0297 62.4984 74.0148 62.5343 73.9882 62.5609C73.9617 62.5874 73.9257 62.6023 73.8882 62.6023Z" fill="black"/>
<path d="M75.5923 62.6023H74.8602C74.8227 62.6023 74.7867 62.5874 74.7602 62.5609C74.7336 62.5343 74.7188 62.4984 74.7188 62.4608C74.7188 62.4233 74.7336 62.3873 74.7602 62.3608C74.7867 62.3342 74.8227 62.3193 74.8602 62.3193H75.5923C75.6298 62.3193 75.6658 62.3342 75.6923 62.3608C75.7188 62.3873 75.7337 62.4233 75.7337 62.4608C75.7337 62.4984 75.7188 62.5343 75.6923 62.5609C75.6658 62.5874 75.6298 62.6023 75.5923 62.6023Z" fill="black"/>
<path d="M20.8212 5.38414C20.7837 5.38414 20.7477 5.36923 20.7211 5.3427C20.6946 5.31616 20.6797 5.28017 20.6797 5.24264V4.51064C20.6797 4.47311 20.6946 4.43712 20.7211 4.41058C20.7477 4.38405 20.7837 4.36914 20.8212 4.36914C20.8587 4.36914 20.8947 4.38405 20.9212 4.41058C20.9478 4.43712 20.9627 4.47311 20.9627 4.51064V5.24264C20.9627 5.28017 20.9478 5.31616 20.9212 5.3427C20.8947 5.36923 20.8587 5.38414 20.8212 5.38414Z" fill="black"/>
<path d="M20.8212 7.08873C20.7837 7.08873 20.7477 7.07382 20.7211 7.04729C20.6946 7.02075 20.6797 6.98476 20.6797 6.94723V6.21523C20.6797 6.1777 20.6946 6.14171 20.7211 6.11517C20.7477 6.08864 20.7837 6.07373 20.8212 6.07373C20.8587 6.07373 20.8947 6.08864 20.9212 6.11517C20.9478 6.14171 20.9627 6.1777 20.9627 6.21523V6.94723C20.9627 6.98476 20.9478 7.02075 20.9212 7.04729C20.8947 7.07382 20.8587 7.08873 20.8212 7.08873Z" fill="black"/>
<path d="M20.3344 5.87088H19.6024C19.5649 5.87088 19.5289 5.85598 19.5024 5.82944C19.4758 5.8029 19.4609 5.76691 19.4609 5.72939C19.4609 5.69186 19.4758 5.65587 19.5024 5.62933C19.5289 5.6028 19.5649 5.58789 19.6024 5.58789H20.3344C20.372 5.58789 20.4079 5.6028 20.4345 5.62933C20.461 5.65587 20.4759 5.69186 20.4759 5.72939C20.4759 5.76691 20.461 5.8029 20.4345 5.82944C20.4079 5.85598 20.372 5.87088 20.3344 5.87088Z" fill="black"/>
<path d="M22.0415 5.87088H21.3095C21.2719 5.87088 21.2359 5.85598 21.2094 5.82944C21.1829 5.8029 21.168 5.76691 21.168 5.72939C21.168 5.69186 21.1829 5.65587 21.2094 5.62933C21.2359 5.6028 21.2719 5.58789 21.3095 5.58789H22.0415C22.079 5.58789 22.115 5.6028 22.1415 5.62933C22.1681 5.65587 22.183 5.69186 22.183 5.72939C22.183 5.76691 22.1681 5.8029 22.1415 5.82944C22.115 5.85598 22.079 5.87088 22.0415 5.87088Z" fill="black"/>
<path d="M5.09067 28.2453C5.07664 28.2454 5.06267 28.2435 5.04917 28.2397C5.02574 28.2321 5.00469 28.2186 4.98814 28.2004C4.97158 28.1822 4.9601 28.1599 4.95484 28.1359L4.5662 26.4379C4.56054 26.4138 4.56139 26.3885 4.56865 26.3648C4.57591 26.3411 4.58934 26.3197 4.60755 26.3028C4.62575 26.286 4.6481 26.2742 4.67232 26.2688C4.69654 26.2634 4.72176 26.2644 4.74543 26.2719L6.4113 26.7851C6.43499 26.7924 6.45634 26.8058 6.47321 26.824C6.49008 26.8422 6.50188 26.8645 6.50742 26.8886C6.51296 26.9128 6.51205 26.938 6.50479 26.9617C6.49752 26.9854 6.48415 27.0068 6.46602 27.0237L5.19066 28.2076C5.17735 28.2202 5.16165 28.2301 5.14448 28.2365C5.12731 28.243 5.10901 28.246 5.09067 28.2453ZM4.89446 26.6125L5.17746 27.834L6.09624 26.9851L4.89446 26.6125Z" fill="black"/>
</svg>
